<svg xmlns="http://www.w3.org/2000/svg" width="171" height="171" viewBox="0 0 171 171"><defs><filter height="123.594" width="120.474" y="42.281" x="42.776" filterUnits="userSpaceOnUse" id="a"><feColorMatrix values="1 0 0 0 0 0 1 0 0 0 0 0 1 0 0 0 0 0 1 0"/></filter><mask id="b" height="123.594" width="120.474" y="42.281" x="42.776" maskUnits="userSpaceOnUse"><g filter="url(#a)" transform="translate(-220.21 -311.393)"><path d="M306 322.67c-40.869 0-74 33.131-74 74s33.131 74 74 74 74-33.131 74-74-33.131-74-74-74z" fill="#D45B3E"/><path d="M306 322.67c-1.368.03-2.734.099-4.098.205v147.65c1.364.086 2.731.134 4.098.145 40.869 0 74-33.131 74-74s-33.131-74-74-74z" fill="#C45237"/></g></mask><mask maskUnits="userSpaceOnUse" id="c"><path d="M305.559 322.67a74 74 0 0 0-74 74 74 74 0 0 0 74 74 74 74 0 0 0 74-74 74 74 0 0 0-74-74z" transform="translate(-219.743 -311.386)" fill="#d45b3e"/><path d="M85.813 11.283v148a74 74 0 0 0 .003 0 74 74 0 0 0 74-74 74 74 0 0 0-74-74 74 74 0 0 0-.004 0z" fill="#c45237"/></mask></defs><path enable-background="new" d="M85.816.781c46.626 0 84.503 37.877 84.503 84.503s-37.877 84.503-84.503 84.503S1.313 131.91 1.313 85.284 39.19.781 85.816.781z" opacity=".2" fill="none" stroke="#fff" stroke-width=".994"/><path mask="url(#b)" d="M42.776 111.749l53.099 54.126 32.875-14.625 22-19.75 8.5-22L162 96.75l1.25-8.5-41.583-40.368L81.25 48l-8.37-5.719-30.104 69.468z" fill="#b14731"/><path d="M85.816 11.284a74 74 0 0 0-74 74 74 74 0 0 0 74 74 74 74 0 0 0 74-74 74 74 0 0 0-74-74z" fill="#d45b3e"/><path d="M85.813 11.283v148a74 74 0 0 0 .003 0 74 74 0 0 0 74-74 74 74 0 0 0-74-74 74 74 0 0 0-.004 0z" fill="#c45237"/><path mask="url(#c)" d="M42.765 110.894l50.86 52.981 39.875-7.625 22-31 8.5-25.5-.75-11-41.687-40.86-39.401.05-9.266-5.683z" fill="#b14731" fill-rule="evenodd"/><path d="M128.816 55.37v5.61h-86v-5.61a7.478 7.478 0 0 1 7.479-7.478h71.043a7.478 7.478 0 0 1 7.478 7.479z" fill="#a5a5a5"/><path d="M109.653 53.408v.187a1.402 1.402 0 0 1-2.804 0v-.187a1.402 1.402 0 0 1 2.804 0zm4.207-1.403c-.775 0-1.403.628-1.403 1.403v.187a1.402 1.402 0 0 0 2.805 0v-.187c0-.775-.628-1.403-1.402-1.403zm5.608 0c-.774 0-1.402.628-1.402 1.403v.187a1.402 1.402 0 0 0 2.804 0v-.187c0-.775-.627-1.403-1.402-1.403z" fill="#777"/><path d="M128.816 59.11v52.348a7.478 7.478 0 0 1-7.478 7.478H50.295a7.479 7.479 0 0 1-7.479-7.479V59.11h11.218V46.023a3.739 3.739 0 0 1 3.739-3.74h14.956a3.739 3.739 0 0 1 3.74 3.74V59.11h52.347z" fill="#e9f2f4"/><path d="M76.469 46.023V59.11H54.034V46.023a3.739 3.739 0 0 1 3.739-3.74h14.956a3.74 3.74 0 0 1 3.74 3.74z" fill="#c3e4ed"/><path d="M72.73 48.827v3.74a1.87 1.87 0 0 1-1.87 1.869H59.642a1.87 1.87 0 0 1-1.869-1.87v-3.739a1.87 1.87 0 0 1 1.87-1.87H70.86a1.87 1.87 0 0 1 1.87 1.87z" fill="#b2d1d8"/><path d="M115.73 110.523H55.902a3.739 3.739 0 0 1-3.739-3.74V86.22a3.739 3.739 0 0 1 3.74-3.74h59.825a3.739 3.739 0 0 1 3.74 3.74v20.565a3.739 3.739 0 0 1-3.74 3.739zm-39.261-39.26a3.739 3.739 0 0 0-3.74-3.74H55.903a3.739 3.739 0 1 0 0 7.478H72.73a3.74 3.74 0 0 0 3.74-3.739zm43 0a3.739 3.739 0 0 0-3.74-3.74H85.816a3.739 3.739 0 1 0 0 7.478h29.913a3.74 3.74 0 0 0 3.74-3.739z" fill="#cfdfe2"/><path d="M107.757 89.69a8.145 8.145 0 1 1-16.29 0 8.145 8.145 0 0 1 16.29 0z" fill="#84a7b7"/><path d="M113.574 117.468v10.815H85.651v-10.815c0-7.711 6.25-13.962 13.962-13.962 7.71 0 13.961 6.25 13.961 13.962zM97.7 83.414a4.406 4.406 0 1 0 0 8.811 4.406 4.406 0 0 0 0-8.81z" fill="#9ab7c1"/><path d="M110.667 108.94a13.893 13.893 0 0 1 2.907 8.528v10.815H85.651v-7.552c.36.047.727.074 1.1.074h5.609a8.413 8.413 0 0 0 8.413-8.413c0-5.254 6.68-7.61 9.894-3.452z" fill="#84a7b7"/><path d="M120.754 126.881c0 .775-.628 1.402-1.403 1.402H80.81a1.402 1.402 0 0 1 0-2.804h38.543c.774 0 1.402.628 1.402 1.402zm6.66-1.402h-.276a1.402 1.402 0 0 0 0 2.804h.276a1.402 1.402 0 0 0 0-2.804z" fill="#256277"/></svg>