<svg xmlns="http://www.w3.org/2000/svg" width="171" height="171" viewBox="0 0 171 171"><defs><filter height="96.516" width="120.405" y="64.7" x="42.292" filterUnits="userSpaceOnUse" id="a"><feColorMatrix values="1 0 0 0 0 0 1 0 0 0 0 0 1 0 0 0 0 0 1 0"/></filter><mask id="b" height="96.516" width="120.405" y="64.7" x="42.292" maskUnits="userSpaceOnUse"><g filter="url(#a)" transform="translate(-220.21 -311.393)"><path d="M305.947 322.886c-40.869 0-74 33.131-74 74s33.131 74 74 74 74-33.131 74-74-33.131-74-74-74z" fill="#D45B3E"/><path d="M305.947 322.886c-1.368.03-2.734.099-4.098.205v147.65c1.364.086 2.731.134 4.098.145 40.869 0 74-33.131 74-74s-33.131-74-74-74z" fill="#C45237"/></g></mask><mask maskUnits="userSpaceOnUse" id="c"><path d="M305.559 322.67a74 74 0 0 0-74 74 74 74 0 0 0 74 74 74 74 0 0 0 74-74 74 74 0 0 0-74-74z" transform="translate(-219.796 -311.17)" fill="#d45b3e"/><path d="M85.764 11.5v148a74 74 0 0 0 74-74 74 74 0 0 0-74-74z" fill="#c45237"/></mask></defs><path enable-background="new" d="M85.763.997c46.626 0 84.503 37.877 84.503 84.503s-37.877 84.503-84.503 84.503S1.26 132.126 1.26 85.5 39.137.997 85.763.997z" opacity=".2" fill="none" stroke="#fff" stroke-width=".994"/><path mask="url(#b)" d="M42.292 87.92l72.655 73.296 23.5-14.5 19-23.5 4.5-15.75.75-6.25L125.791 64.7 42.292 87.92z" fill="#b14731"/><path d="M85.763 11.5a74 74 0 0 0-74 74 74 74 0 0 0 74 74 74 74 0 0 0 74-74 74 74 0 0 0-74-74z" fill="#d45b3e"/><path d="M85.764 11.5v148a74 74 0 0 0 74-74 74 74 0 0 0-74-74z" fill="#c45237"/><path mask="url(#c)" d="M42.27 87.604l45.334 77.5 34.018-5.771 35.356-27.577 5.303-30.052-36.504-37.035z" fill="#b14731" fill-rule="evenodd"/><path d="M125.466 91.172H46.06a3.781 3.781 0 0 1-3.781-3.782V68.485a3.781 3.781 0 0 1 3.78-3.782h79.406a3.781 3.781 0 0 1 3.781 3.782V87.39a3.781 3.781 0 0 1-3.781 3.782z" fill="#dcf3f9"/><path d="M125.466 64.703H46.06a3.781 3.781 0 0 0-3.781 3.782V87.39a3.781 3.781 0 0 0 3.78 3.782h79.406a3.781 3.781 0 0 0 3.781-3.782V68.485a3.781 3.781 0 0 0-3.781-3.782zm.945 22.687a.946.946 0 0 1-.945.946H46.06a.946.946 0 0 1-.945-.946V68.485c0-.522.424-.946.945-.946h79.405c.521 0 .945.425.945.946V87.39z" fill="#c3e4ed"/><path d="M58.633 80.947c0 2.441-2.332 4.427-5.199 4.427h-3.781a1.418 1.418 0 0 1 0-2.836h3.781c1.26 0 2.363-.744 2.363-1.591 0-.848-1.104-1.591-2.363-1.591h-1.89c-2.867 0-5.2-1.986-5.2-4.427 0-2.442 2.333-4.428 5.2-4.428h3.78a1.418 1.418 0 0 1 0 2.836h-3.78c-1.26 0-2.364.744-2.364 1.592 0 .847 1.105 1.59 2.364 1.59h1.89c2.867 0 5.2 1.987 5.2 4.428zm48.872-7.61h3.781a1.418 1.418 0 0 0 0-2.836h-3.78c-2.868 0-5.2 1.986-5.2 4.428v6.018c0 2.441 2.332 4.427 5.2 4.427h3.78a1.418 1.418 0 0 0 0-2.836h-3.78c-1.26 0-2.364-.744-2.364-1.591v-6.018c0-.848 1.104-1.592 2.363-1.592zm-41.971 0h3.781a1.418 1.418 0 0 0 0-2.836h-3.781c-2.867 0-5.2 1.986-5.2 4.428v6.018c0 2.441 2.333 4.427 5.2 4.427h3.781a1.418 1.418 0 0 0 0-2.836h-3.781c-1.26 0-2.363-.744-2.363-1.591v-1.591h6.144a1.418 1.418 0 0 0 0-2.836h-6.144v-1.592c0-.847 1.104-1.59 2.363-1.59zm19.55 10.399a1.418 1.418 0 1 1-2.802.44l-.52-3.316h-5.61l-.52 3.316a1.418 1.418 0 0 1-2.802-.44l1.538-9.797c.313-1.992 2.243-3.437 4.589-3.437 2.346 0 4.275 1.445 4.589 3.437l1.538 9.797zm-3.768-5.712l-.572-3.645c-.079-.501-.784-1.042-1.787-1.042-1.002 0-1.708.54-1.787 1.042l-.572 3.645h4.718zm42.448-7.523c-.783 0-1.418.635-1.418 1.418v4.6h-4.726v-4.6a1.418 1.418 0 0 0-2.836 0v12.037a1.418 1.418 0 0 0 2.836 0v-4.6h4.726v4.6a1.418 1.418 0 0 0 2.836 0V71.919c0-.783-.635-1.418-1.418-1.418zm-23.727 4.428c0-2.442-2.332-4.428-5.199-4.428h-5.672c-.783 0-1.418.635-1.418 1.418v12.037a1.418 1.418 0 0 0 2.836 0V73.337h4.254c1.26 0 2.363.744 2.363 1.592 0 .847-1.104 1.59-2.363 1.59h-1.89a1.418 1.418 0 0 0 0 2.837h1.107l3.364 5.354a1.417 1.417 0 1 0 2.401-1.508l-2.7-4.297c1.726-.721 2.917-2.232 2.917-3.976z" fill="#84a7b7"/><path d="M103.832 77.136l23.612 9.24c2.193.858 2.445 3.86.426 5.072l-8.42 5.052-5.051 8.42c-1.212 2.019-4.215 1.767-5.073-.426l-9.24-23.612a2.89 2.89 0 1 1 3.746-3.746z" fill="#fc8059"/><path d="M127.87 91.448l-8.42 5.052-18.715-18.716a2.89 2.89 0 0 1 3.097-.648l23.612 9.24c2.193.858 2.445 3.86.426 5.072z" fill="#ad3c1e"/></svg>