<?xml version="1.0" encoding="UTF-8" standalone="no"?>
<!-- Generator: Adobe Illustrator 17.0.0, SVG Export Plug-In . SVG Version: 6.00 Build 0)  -->

<svg
   xmlns:dc="http://purl.org/dc/elements/1.1/"
   xmlns:cc="http://creativecommons.org/ns#"
   xmlns:rdf="http://www.w3.org/1999/02/22-rdf-syntax-ns#"
   xmlns:svg="http://www.w3.org/2000/svg"
   xmlns="http://www.w3.org/2000/svg"
   xmlns:sodipodi="http://sodipodi.sourceforge.net/DTD/sodipodi-0.dtd"
   xmlns:inkscape="http://www.inkscape.org/namespaces/inkscape"
   version="1.1"
   id="Слой_1"
   inkscape:version="0.91 r13725"
   sodipodi:docname="Трастовость сайта.svg"
   x="0px"
   y="0px"
   width="171px"
   height="171px"
   viewBox="0 0 171 171"
   enable-background="new 0 0 171 171"
   xml:space="preserve"><metadata
     id="metadata53"><rdf:RDF><cc:Work
         rdf:about=""><dc:format>image/svg+xml</dc:format><dc:type
           rdf:resource="http://purl.org/dc/dcmitype/StillImage" /></cc:Work></rdf:RDF></metadata><defs
     id="defs51"><linearGradient
       gradientTransform="matrix(0.9942,0,0,0.9942,-204.277,-978.343)"
       y2="1069.832"
       x2="376.7999"
       y1="1069.832"
       x1="206.7999"
       gradientUnits="userSpaceOnUse"
       id="path5_1_"><stop
         id="stop10"
         style="stop-color:#FFFFFF"
         offset="0" /><stop
         id="stop12"
         style="stop-color:#000000"
         offset="1" /></linearGradient><defs
       id="defs15"><filter
         height="123.594"
         width="120.474"
         y="42.281"
         x="42.776"
         filterUnits="userSpaceOnUse"
         id="Adobe_OpacityMaskFilter"><feColorMatrix
           id="feColorMatrix18"
           values="1 0 0 0 0  0 1 0 0 0  0 0 1 0 0  0 0 0 1 0"
           type="matrix" /></filter></defs><mask
       id="mask6287"
       height="123.594"
       width="120.474"
       y="42.281"
       x="42.776"
       maskUnits="userSpaceOnUse"><g
         filter="url(#Adobe_OpacityMaskFilter)"
         transform="translate(-220.21042,-311.39331)"
         id="g6289"><path
           d="     M306,322.67c-40.869,0-74,33.131-74,74l0,0c0,40.869,33.131,74,74,74s74-33.131,74-74l0,0C380,355.801,346.869,322.67,306,322.67     L306,322.67z"
           fill="#D45B3E"
           inkscape:original="M 305.55859 322.66992 A 74 74 0 0 0 231.55859 396.66992 A 74 74 0 0 0 305.55859 470.66992 A 74 74 0 0 0 379.55859 396.66992 A 74 74 0 0 0 305.55859 322.66992 z "
           sodipodi:type="inkscape:offset"
           inkscape:radius="0"
           id="path6291" /><path
           d="M306,322.67c-1.368,0.03-2.734,0.099-4.098,0.205v147.65     c1.364,0.086,2.731,0.134,4.098,0.145c40.869,0,74-33.131,74-74l0,0C380,355.801,346.869,322.67,306,322.67L306,322.67z"
           fill="#C45237"
           inkscape:connector-curvature="0"
           id="path6293" /></g></mask><mask
       maskUnits="userSpaceOnUse"
       id="mask4240"><g
         id="g4242"><path
           style="fill:#d45b3e"
           d="m 305.55859,322.66992 a 74,74 0 0 0 -74,74 74,74 0 0 0 74,74 74,74 0 0 0 74,-74 74,74 0 0 0 -74,-74 z"
           inkscape:original="M 305.55859 322.66992 A 74 74 0 0 0 231.55859 396.66992 A 74 74 0 0 0 305.55859 470.66992 A 74 74 0 0 0 379.55859 396.66992 A 74 74 0 0 0 305.55859 322.66992 z "
           sodipodi:type="inkscape:offset"
           inkscape:radius="0"
           id="path4244"
           transform="translate(-219.74259,-311.38592)" /><path
           style="opacity:1;fill:#c45237;fill-opacity:1;fill-rule:nonzero;stroke:none;stroke-width:1;stroke-miterlimit:4;stroke-dasharray:none;stroke-opacity:1"
           d="m 85.8125,11.283203 0,147.999997 a 74,74 0 0 0 0.0039,0 74,74 0 0 0 74.000004,-73.999997 74,74 0 0 0 -74.000004,-74 74,74 0 0 0 -0.0039,0 z"
           id="path4246"
           inkscape:connector-curvature="0" /></g></mask></defs><sodipodi:namedview
     id="namedview61"
     pagecolor="#ffffff"
     bordercolor="#666666"
     borderopacity="1"
     objecttolerance="10"
     gridtolerance="10"
     guidetolerance="10"
     showgrid="false"
     inkscape:zoom="0.99999996"
     inkscape:cx="67.359585"
     inkscape:cy="-80.521581"
     showguides="true"
     inkscape:pageopacity="0"
     inkscape:pageshadow="2"
     inkscape:window-width="1536"
     inkscape:window-height="801"
     inkscape:window-x="-8"
     inkscape:window-y="-8"
     inkscape:window-maximized="1"
     inkscape:current-layer="Слой_1"
     inkscape:guide-bbox="true"><inkscape:grid
       type="xygrid"
       id="grid4289" /><sodipodi:guide
       position="85.812504,159.68751"
       orientation="1,0"
       id="guide4223" /></sodipodi:namedview><g
     id="g4248"><path
       id="path5"
       inkscape:connector-curvature="0"
       enable-background="new    "
       d="m 85.816,0.781 c 46.626,0 84.503,37.877 84.503,84.503 0,46.626 -37.877,84.503 -84.503,84.503 C 39.19,169.787 1.313,131.91 1.313,85.284 1.313,38.658 39.19,0.781 85.816,0.781 Z"
       style="opacity:0.2;fill:none;stroke:#ffffff;stroke-width:0.99400002;stroke-opacity:1" /><path
       id="path6279"
       sodipodi:nodetypes="ccccccccccc"
       inkscape:connector-curvature="0"
       mask="url(#mask6287)"
       d="m 42.776,111.749 53.099,54.126 32.875,-14.625 22,-19.75 8.5,-22 2.75,-12.75 1.25,-8.5 L 121.667,47.882 81.25,48 72.88,42.281 42.776,111.749 Z"
       style="fill:#b14731" /><g
       id="g4228"><path
         style="fill:#d45b3e"
         d="m 305.55859,322.66992 a 74,74 0 0 0 -74,74 74,74 0 0 0 74,74 74,74 0 0 0 74,-74 74,74 0 0 0 -74,-74 z"
         inkscape:original="M 305.55859 322.66992 A 74 74 0 0 0 231.55859 396.66992 A 74 74 0 0 0 305.55859 470.66992 A 74 74 0 0 0 379.55859 396.66992 A 74 74 0 0 0 305.55859 322.66992 z "
         sodipodi:type="inkscape:offset"
         inkscape:radius="0"
         id="path5875"
         transform="translate(-219.74259,-311.38592)" /><path
         style="opacity:1;fill:#c45237;fill-opacity:1;fill-rule:nonzero;stroke:none;stroke-width:1;stroke-miterlimit:4;stroke-dasharray:none;stroke-opacity:1"
         d="M 85.8125 11.283203 L 85.8125 159.2832 A 74 74 0 0 0 85.816406 159.2832 A 74 74 0 0 0 159.81641 85.283203 A 74 74 0 0 0 85.816406 11.283203 A 74 74 0 0 0 85.8125 11.283203 z "
         id="path4221" /></g><path
       mask="url(#mask4240)"
       sodipodi:nodetypes="cccccccccc"
       inkscape:connector-curvature="0"
       id="path4232"
       d="m 42.765167,110.89384 50.859837,52.98116 39.875006,-7.625 22,-31 8.5,-25.500003 -0.75,-11.000001 -41.6875,-40.859377 -39.400894,0.05002 -9.265166,-5.683709 z"
       style="fill:#b14731;fill-opacity:1;fill-rule:evenodd;stroke:none;stroke-width:1px;stroke-linecap:butt;stroke-linejoin:miter;stroke-opacity:1" /><g
       id="g5267"
       transform="matrix(0.16796875,0,0,0.16796875,42.816373,42.283769)"><path
         id="path5211"
         inkscape:connector-curvature="0"
         d="m 511.998,77.913 0,33.391 L 0,111.304 0,77.913 C 0,53.325 19.933,33.391 44.522,33.391 l 422.955,0 c 24.587,0 44.521,19.934 44.521,44.522 z"
         style="fill:#a5a5a5" /><path
         id="path5213"
         inkscape:connector-curvature="0"
         d="m 397.911,66.226 0,1.113 c 0,4.61 -3.738,8.348 -8.348,8.348 -4.61,0 -8.348,-3.738 -8.348,-8.348 l 0,-1.113 c 0,-4.61 3.738,-8.348 8.348,-8.348 4.61,0 8.348,3.738 8.348,8.348 z m 25.044,-8.348 c -4.61,0 -8.348,3.738 -8.348,8.348 l 0,1.113 c 0,4.61 3.738,8.348 8.348,8.348 4.61,0 8.348,-3.738 8.348,-8.348 l 0,-1.113 c -10e-4,-4.61 -3.738,-8.348 -8.348,-8.348 z m 33.391,0 c -4.61,0 -8.348,3.738 -8.348,8.348 l 0,1.113 c 0,4.61 3.738,8.348 8.348,8.348 4.61,0 8.348,-3.738 8.348,-8.348 l 0,-1.113 c 0,-4.61 -3.738,-8.348 -8.348,-8.348 z"
         style="fill:#777777" /><path
         id="path5215"
         inkscape:connector-curvature="0"
         d="m 511.998,100.174 0,311.652 c 0,24.588 -19.933,44.522 -44.522,44.522 l -422.954,0 C 19.933,456.346 0,436.412 0,411.824 l 0,-311.65 66.783,0 0,-77.913 C 66.783,9.966 76.749,0 89.043,0 l 89.043,0 c 12.295,0 22.261,9.966 22.261,22.261 l 0,77.913 311.651,0 z"
         style="fill:#e9f2f4" /><path
         id="path5217"
         inkscape:connector-curvature="0"
         d="m 200.348,22.261 0,77.913 -133.565,0 0,-77.913 C 66.783,9.966 76.749,0 89.043,0 l 89.043,0 c 12.296,0 22.262,9.966 22.262,22.261 z"
         style="fill:#c3e4ed" /><path
         id="path5219"
         inkscape:connector-curvature="0"
         d="m 178.087,38.957 0,22.261 c 0,6.147 -4.983,11.13 -11.13,11.13 l -66.783,0 c -6.147,0 -11.13,-4.983 -11.13,-11.13 l 0,-22.261 c 0,-6.147 4.983,-11.13 11.13,-11.13 l 66.783,0 c 6.147,-0.001 11.13,4.982 11.13,11.13 z"
         style="fill:#b2d1d8" /><path
         id="path5221"
         inkscape:connector-curvature="0"
         d="m 434.085,406.259 -356.172,0 c -12.295,0 -22.261,-9.966 -22.261,-22.261 l 0,-122.433 c 0,-12.295 9.966,-22.261 22.261,-22.261 l 356.172,0 c 12.295,0 22.261,9.966 22.261,22.261 l 0,122.435 c 0,12.293 -9.966,22.259 -22.261,22.259 z m -233.737,-233.737 0,0 c 0,-12.295 -9.966,-22.261 -22.261,-22.261 l -100.174,0 c -12.295,0 -22.261,9.966 -22.261,22.261 l 0,0 c 0,12.295 9.966,22.261 22.261,22.261 l 100.174,0 c 12.295,0 22.261,-9.967 22.261,-22.261 z m 255.998,0 0,0 c 0,-12.295 -9.966,-22.261 -22.261,-22.261 l -178.085,0 c -12.295,0 -22.261,9.966 -22.261,22.261 l 0,0 c 0,12.295 9.966,22.261 22.261,22.261 l 178.087,0 c 12.293,0 22.259,-9.967 22.259,-22.261 z"
         style="fill:#cfdfe2" /><path
         id="path5223"
         inkscape:connector-curvature="0"
         d="m 386.623,282.228 c 0,26.78 -21.709,48.489 -48.489,48.489 -26.78,0 -48.489,-21.709 -48.489,-48.489 0,-26.78 21.71,-48.489 48.489,-48.489 26.779,0 48.489,21.709 48.489,48.489 z"
         style="fill:#84a7b7" /><path
         id="path5225"
         inkscape:connector-curvature="0"
         d="m 421.257,447.607 0,64.391 -166.243,0 0,-64.391 c 0,-45.907 37.216,-83.122 83.122,-83.122 l 0,0 c 45.905,-0.001 83.121,37.215 83.121,83.122 z M 326.749,244.87 c -14.485,0 -26.228,11.743 -26.228,26.228 0,14.485 11.743,26.228 26.228,26.228 14.485,0 26.228,-11.743 26.228,-26.228 -0.002,-14.486 -11.745,-26.228 -26.228,-26.228 z"
         style="fill:#9ab7c1" /><path
         id="path5227"
         inkscape:connector-curvature="0"
         d="m 403.945,396.837 c 10.854,14.039 17.312,31.648 17.312,50.77 l 0,64.391 -166.243,0 0,-44.962 c 2.146,0.281 4.33,0.441 6.551,0.441 l 33.391,0 c 27.662,0 50.087,-22.424 50.087,-50.087 l 0,0 c -0.002,-31.284 39.768,-45.303 58.902,-20.553 z"
         style="fill:#84a7b7" /><path
         id="path5229"
         inkscape:connector-curvature="0"
         d="m 463.998,503.65 c 0,4.61 -3.738,8.348 -8.348,8.348 l -229.463,0 c -4.61,0 -8.348,-3.738 -8.348,-8.348 0,-4.61 3.738,-8.348 8.348,-8.348 l 229.465,0 c 4.608,0 8.346,3.738 8.346,8.348 z m 39.652,-8.348 -1.64,0 c -4.61,0 -8.348,3.738 -8.348,8.348 0,4.61 3.738,8.348 8.348,8.348 l 1.64,0 c 4.61,0 8.348,-3.738 8.348,-8.348 0,-4.61 -3.738,-8.348 -8.348,-8.348 z"
         style="fill:#256277" /><g
         id="g5231" /><g
         id="g5233" /><g
         id="g5235" /><g
         id="g5237" /><g
         id="g5239" /><g
         id="g5241" /><g
         id="g5243" /><g
         id="g5245" /><g
         id="g5247" /><g
         id="g5249" /><g
         id="g5251" /><g
         id="g5253" /><g
         id="g5255" /><g
         id="g5257" /><g
         id="g5259" /></g></g></svg>