<svg xmlns="http://www.w3.org/2000/svg" width="171" height="171" viewBox="0 0 171 171"><defs><filter height="122.244" width="119.396" y="41.097" x="42.038" filterUnits="userSpaceOnUse" id="a"><feColorMatrix values="1 0 0 0 0 0 1 0 0 0 0 0 1 0 0 0 0 0 1 0"/></filter><mask id="b" height="122.244" width="119.396" y="41.097" x="42.038" maskUnits="userSpaceOnUse"><g filter="url(#a)" transform="translate(-220.21 -311.393)"><path d="M305.684 322.886c-40.869 0-74 33.131-74 74s33.131 74 74 74 74-33.131 74-74-33.131-74-74-74z" fill="#D45B3E"/><path d="M305.684 322.886c-1.368.03-2.734.099-4.098.205v147.65c1.364.086 2.731.134 4.098.145 40.869 0 74-33.131 74-74s-33.131-74-74-74z" fill="#C45237"/></g></mask><mask maskUnits="userSpaceOnUse" id="c"><path d="M305.559 322.67a74 74 0 0 0-74 74 74 74 0 0 0 74 74 74 74 0 0 0 74-74 74 74 0 0 0-74-74z" transform="translate(-220.059 -311.17)" fill="#d45b3e"/><path d="M85.5 11.5v148a74 74 0 0 0 74-74 74 74 0 0 0-74-74z" fill="#c45237"/></mask></defs><path enable-background="new" d="M85.5.997c46.626 0 84.503 37.877 84.503 84.503s-37.877 84.503-84.503 84.503S.997 132.126.997 85.5 38.874.997 85.5.997z" opacity=".2" fill="none" stroke="#fff" stroke-width=".994"/><path mask="url(#b)" d="M42.038 104.442l59.771 58.899 36.125-14.625 18-29 5.5-17.25-53.228-46.026-2.916-.14-16.583-15.203L75.5 51.977l16.934 16.989-11.75-.25-13.531-11.969-7.969 10.25L71.84 77.903l-29.802 26.539z" fill="#b14731"/><path d="M85.5 11.5a74 74 0 0 0-74 74 74 74 0 0 0 74 74 74 74 0 0 0 74-74 74 74 0 0 0-74-74z" fill="#d45b3e"/><path d="M85.5 11.5v148a74 74 0 0 0 74-74 74 74 0 0 0-74-74z" fill="#c45237"/><path mask="url(#c)" d="M41.765 102.934L101.5 163l27-7 20.75-21 11.5-27.5 1.22-17.72-74.614-49.059L75.75 53l15.625 15.625-12.83-.155-10.75-11.437L58.5 66l11.625 11.625z" fill="#b14731" fill-rule="evenodd"/><path d="M129.28 102.116c0 4.319-3.41 7.82-7.614 7.82H49.334c-4.205 0-7.614-3.501-7.614-7.82 0-4.318 3.41-7.82 7.614-7.82h72.332c4.205 0 7.614 3.502 7.614 7.82z" fill="#dbd8d2"/><path d="M71.224 63.019c0 3.779-2.983 6.842-6.662 6.842-3.68 0-6.662-3.063-6.662-6.842 0-3.779 2.983-6.842 6.662-6.842 3.68 0 6.662 3.063 6.662 6.842zm35.214-6.842c-3.68 0-6.662 3.063-6.662 6.842 0 3.779 2.983 6.842 6.662 6.842 3.68 0 6.662-3.063 6.662-6.842 0-3.779-2.983-6.842-6.662-6.842z" fill="#b2d1d8"/><path d="M75.983 87.15v12.462H53.14V87.149c0-6.478 5.114-11.729 11.421-11.729 6.307 0 11.42 5.251 11.42 11.73zM63.61 58.131c-2.102 0-3.807 1.75-3.807 3.91 0 2.159 1.705 3.91 3.807 3.91 2.103 0 3.807-1.751 3.807-3.91 0-2.16-1.704-3.91-3.807-3.91zm42.828 17.288c-6.307 0-11.42 5.252-11.42 11.73v12.462h22.84V87.15c0-6.479-5.112-11.73-11.42-11.73zm-.952-17.288c-2.102 0-3.807 1.75-3.807 3.91 0 2.159 1.705 3.91 3.807 3.91 2.103 0 3.807-1.751 3.807-3.91 0-2.16-1.704-3.91-3.807-3.91z" fill="#cfdfe2"/><path d="M75.855 85.39c.084.574.128 1.161.128 1.76v13.99H53.14V90.863c1.572 2.471 4.288 4.105 7.376 4.105 4.862 0 8.804-4.048 8.804-9.041 0-4.156 5.932-4.648 6.534-.538zm35.342.537c0 4.994-3.942 9.042-8.804 9.042-3.088 0-5.804-1.634-7.376-4.105v10.275h22.842v-13.99c0-.598-.044-1.186-.128-1.76-.602-4.11-6.534-3.617-6.534.538z" fill="#b2d1d8"/><path d="M121.19 102.116c0 .81-.64 1.467-1.428 1.467H51.238c-.789 0-1.428-.657-1.428-1.467s.64-1.466 1.428-1.466h68.524c.789 0 1.428.657 1.428 1.466z" fill="#a5a5a5"/><path d="M95.547 50.856c0 5.699-4.498 10.318-10.047 10.318s-10.047-4.62-10.047-10.318c0-5.699 4.498-10.318 10.047-10.318s10.047 4.62 10.047 10.318z" fill="#a384e2"/><path d="M102.723 83.687v19.866H68.277V83.687c0-9.177 7.243-16.616 16.18-16.616h2.087c8.936 0 16.18 7.44 16.18 16.616zm-18.658-40.2c-3.17 0-5.741 2.639-5.741 5.895 0 3.257 2.57 5.896 5.74 5.896 3.171 0 5.742-2.64 5.742-5.896s-2.57-5.896-5.741-5.896z" fill="#b69cf7"/><path d="M102.53 82.105c.127.866.193 1.752.193 2.654v18.794H68.277V90.362c2.37 3.726 6.466 6.19 11.123 6.19 7.332 0 13.276-6.105 13.276-13.635 0-6.268 8.947-7.01 9.855-.812z" fill="#a384e2"/><path d="M105.486 102.116c0 11.337-8.948 20.527-19.986 20.527s-19.986-9.19-19.986-20.527c0-11.336 8.948-20.526 19.986-20.526s19.986 9.19 19.986 20.526z" fill="#fc8059"/><path d="M98.824 102.116c0 7.558-5.965 13.685-13.324 13.685s-13.324-6.127-13.324-13.685c0-7.557 5.965-13.684 13.324-13.684s13.324 6.127 13.324 13.684z" fill="#fff"/><path d="M89.307 102.116c0 2.16-1.704 3.91-3.807 3.91-2.103 0-3.807-1.75-3.807-3.91 0-2.159 1.704-3.91 3.807-3.91 2.103 0 3.807 1.751 3.807 3.91zm-2.38 26.88v-17.594c0-.81-.639-1.466-1.427-1.466s-1.428.656-1.428 1.466v17.594c0 .81.64 1.466 1.428 1.466.788 0 1.428-.656 1.428-1.466zm0-36.165V75.237c0-.81-.639-1.466-1.427-1.466s-1.428.656-1.428 1.466V92.83c0 .81.64 1.466 1.428 1.466.788 0 1.428-.657 1.428-1.466zm26.173 9.285c0-.81-.64-1.466-1.428-1.466h-17.13c-.789 0-1.428.657-1.428 1.466 0 .81.64 1.467 1.428 1.467h17.13c.789 0 1.428-.657 1.428-1.467zm-35.214 0c0-.81-.64-1.466-1.428-1.466h-17.13c-.789 0-1.428.657-1.428 1.466 0 .81.64 1.467 1.428 1.467h17.13c.789 0 1.428-.657 1.428-1.467z" fill="#fc8059"/></svg>