<?xml version="1.0" encoding="UTF-8" standalone="no"?>
<!-- Generator: Adobe Illustrator 17.0.0, SVG Export Plug-In . SVG Version: 6.00 Build 0)  -->

<svg
   xmlns:dc="http://purl.org/dc/elements/1.1/"
   xmlns:cc="http://creativecommons.org/ns#"
   xmlns:rdf="http://www.w3.org/1999/02/22-rdf-syntax-ns#"
   xmlns:svg="http://www.w3.org/2000/svg"
   xmlns="http://www.w3.org/2000/svg"
   xmlns:sodipodi="http://sodipodi.sourceforge.net/DTD/sodipodi-0.dtd"
   xmlns:inkscape="http://www.inkscape.org/namespaces/inkscape"
   version="1.1"
   id="Слой_1"
   inkscape:version="0.91 r13725"
   sodipodi:docname="Продвигаемые запросы.svg"
   x="0px"
   y="0px"
   width="171px"
   height="171px"
   viewBox="0 0 171 171"
   enable-background="new 0 0 171 171"
   xml:space="preserve"><metadata
     id="metadata49"><rdf:RDF><cc:Work
         rdf:about=""><dc:format>image/svg+xml</dc:format><dc:type
           rdf:resource="http://purl.org/dc/dcmitype/StillImage" /></cc:Work></rdf:RDF></metadata><defs
     id="defs47"><linearGradient
       gradientTransform="matrix(0.9942,0,0,0.9942,-204.277,-978.343)"
       y2="1070.0493"
       x2="376.7467"
       y1="1070.0493"
       x1="206.7467"
       gradientUnits="userSpaceOnUse"
       id="path5_1_"><stop
         id="stop7"
         style="stop-color:#FFFFFF"
         offset="0" /><stop
         id="stop9"
         style="stop-color:#000000"
         offset="1" /></linearGradient><defs
       id="defs15"><filter
         height="96.516"
         width="120.405"
         y="64.7"
         x="42.292"
         filterUnits="userSpaceOnUse"
         id="Adobe_OpacityMaskFilter"><feColorMatrix
           id="feColorMatrix18"
           values="1 0 0 0 0  0 1 0 0 0  0 0 1 0 0  0 0 0 1 0"
           type="matrix" /></filter></defs><mask
       id="mask5871"
       height="96.516"
       width="120.405"
       y="64.7"
       x="42.292"
       maskUnits="userSpaceOnUse"><g
         filter="url(#Adobe_OpacityMaskFilter)"
         transform="translate(-220.21042,-311.39331)"
         id="g5873"><path
           d="     M305.947,322.886c-40.869,0-74,33.131-74,74l0,0c0,40.869,33.131,74,74,74s74-33.131,74-74l0,0     C379.947,356.017,346.816,322.886,305.947,322.886L305.947,322.886z"
           fill="#D45B3E"
           inkscape:original="M 305.55859 322.66992 A 74 74 0 0 0 231.55859 396.66992 A 74 74 0 0 0 305.55859 470.66992 A 74 74 0 0 0 379.55859 396.66992 A 74 74 0 0 0 305.55859 322.66992 z "
           sodipodi:type="inkscape:offset"
           inkscape:radius="0"
           id="path5875" /><path
           d="M305.947,322.886c-1.368,0.03-2.734,0.099-4.098,0.205     v147.65c1.364,0.086,2.731,0.134,4.098,0.145c40.869,0,74-33.131,74-74l0,0C379.947,356.017,346.816,322.886,305.947,322.886     L305.947,322.886z"
           fill="#C45237"
           inkscape:connector-curvature="0"
           id="path5877" /></g></mask><mask
       maskUnits="userSpaceOnUse"
       id="mask4235"><g
         id="g4237"><path
           id="path4239"
           inkscape:radius="0"
           sodipodi:type="inkscape:offset"
           inkscape:original="M 305.55859 322.66992 A 74 74 0 0 0 231.55859 396.66992 A 74 74 0 0 0 305.55859 470.66992 A 74 74 0 0 0 379.55859 396.66992 A 74 74 0 0 0 305.55859 322.66992 z "
           d="m 305.55859,322.66992 a 74,74 0 0 0 -74,74 74,74 0 0 0 74,74 74,74 0 0 0 74,-74 74,74 0 0 0 -74,-74 z"
           style="fill:#d45b3e"
           transform="translate(-219.79559,-311.16992)" /><path
           style="opacity:1;fill:#c45237;fill-opacity:1;fill-rule:nonzero;stroke:none;stroke-width:1;stroke-miterlimit:4;stroke-dasharray:none;stroke-opacity:1"
           d="m 85.763672,11.5 0,148 a 74,74 0 0 0 73.999998,-74 74,74 0 0 0 -73.999998,-74 z"
           id="path4241"
           inkscape:connector-curvature="0" /></g></mask></defs><sodipodi:namedview
     id="namedview61"
     pagecolor="#ffffff"
     bordercolor="#666666"
     borderopacity="1"
     objecttolerance="10"
     gridtolerance="10"
     guidetolerance="10"
     showgrid="false"
     inkscape:zoom="0.99999996"
     inkscape:cx="187.81977"
     inkscape:cy="-90.61528"
     showguides="true"
     inkscape:pageopacity="0"
     inkscape:pageshadow="2"
     inkscape:window-width="1536"
     inkscape:window-height="801"
     inkscape:window-x="-8"
     inkscape:window-y="-8"
     inkscape:window-maximized="1"
     inkscape:current-layer="Слой_1"
     inkscape:guide-bbox="true"><inkscape:grid
       type="xygrid"
       id="grid4289" /><sodipodi:guide
       position="85.764323,159.52993"
       orientation="1,0"
       id="guide4218" /></sodipodi:namedview><g
     id="g4243"><path
       id="path5"
       inkscape:connector-curvature="0"
       enable-background="new    "
       d="m 85.763,0.997 c 46.626,0 84.503,37.877 84.503,84.503 0,46.626 -37.877,84.503 -84.503,84.503 C 39.137,170.003 1.26,132.126 1.26,85.5 1.26,38.874 39.137,0.997 85.763,0.997 Z"
       style="opacity:0.2;fill:none;stroke:#ffffff;stroke-width:0.99400002;stroke-opacity:1" /><path
       id="path5863"
       sodipodi:nodetypes="cccccccc"
       inkscape:connector-curvature="0"
       mask="url(#mask5871)"
       d="m 42.292,87.92 72.655,73.296 23.5,-14.5 19,-23.5 4.5,-15.75 0.75,-6.25 L 125.791,64.7 42.292,87.92 Z"
       style="fill:#b14731" /><g
       id="g4223"><path
         id="path4213"
         inkscape:radius="0"
         sodipodi:type="inkscape:offset"
         inkscape:original="M 305.55859 322.66992 A 74 74 0 0 0 231.55859 396.66992 A 74 74 0 0 0 305.55859 470.66992 A 74 74 0 0 0 379.55859 396.66992 A 74 74 0 0 0 305.55859 322.66992 z "
         d="m 305.55859,322.66992 a 74,74 0 0 0 -74,74 74,74 0 0 0 74,74 74,74 0 0 0 74,-74 74,74 0 0 0 -74,-74 z"
         style="fill:#d45b3e"
         transform="translate(-219.79559,-311.16992)" /><path
         style="opacity:1;fill:#c45237;fill-opacity:1;fill-rule:nonzero;stroke:none;stroke-width:1;stroke-miterlimit:4;stroke-dasharray:none;stroke-opacity:1"
         d="M 85.763672 11.5 L 85.763672 159.5 A 74 74 0 0 0 159.76367 85.5 A 74 74 0 0 0 85.763672 11.5 z "
         id="path4216" /></g><path
       mask="url(#mask4235)"
       sodipodi:nodetypes="ccccccc"
       inkscape:connector-curvature="0"
       id="path4227"
       d="m 42.270159,87.604289 45.333567,77.499411 34.018644,-5.77096 35.35534,-27.57717 5.3033,-30.05204 -36.50438,-37.034717 z"
       style="fill:#b14731;fill-opacity:1;fill-rule:evenodd;stroke:none;stroke-width:1px;stroke-linecap:butt;stroke-linejoin:miter;stroke-opacity:1" /><g
       id="g5833"
       transform="translate(218.316,-19.885976)"><g
         id="g5421"
         transform="matrix(0.16985727,0,0,0.16985727,-175.98347,61.68638)"><path
           id="path5375"
           inkscape:connector-curvature="0"
           d="m 489.43,290.663 -467.48,0 c -12.295,0 -22.261,-9.966 -22.261,-22.261 l 0,-111.304 c 0,-12.295 9.966,-22.261 22.261,-22.261 l 467.48,0 c 12.295,0 22.261,9.966 22.261,22.261 l 0,111.304 c 0,12.295 -9.966,22.261 -22.261,22.261 z"
           style="fill:#dcf3f9" /><path
           id="path5377"
           inkscape:connector-curvature="0"
           d="m 489.43,134.837 -467.48,0 c -12.295,0 -22.261,9.966 -22.261,22.261 l 0,111.304 c 0,12.295 9.966,22.261 22.261,22.261 l 467.48,0 c 12.295,0 22.261,-9.966 22.261,-22.261 l 0,-111.304 c 0,-12.295 -9.966,-22.261 -22.261,-22.261 z m 5.565,133.565 c 0,3.069 -2.497,5.565 -5.565,5.565 l -467.48,0 c -3.069,0 -5.565,-2.497 -5.565,-5.565 l 0,-111.304 c 0,-3.069 2.497,-5.565 5.565,-5.565 l 467.48,0 c 3.069,0 5.565,2.497 5.565,5.565 l 0,111.304 z"
           style="fill:#c3e4ed" /><path
           id="path5379-2"
           inkscape:connector-curvature="0"
           d="m 95.967,230.467 c 0,14.372 -13.731,26.064 -30.609,26.064 l -22.26,0 c -4.61,0 -8.348,-3.738 -8.348,-8.348 0,-4.61 3.738,-8.348 8.348,-8.348 l 22.261,0 c 7.412,0 13.913,-4.378 13.913,-9.368 0,-4.99 -6.501,-9.368 -13.913,-9.368 l -11.13,0 c -16.878,0 -30.609,-11.691 -30.609,-26.064 0,-14.373 13.731,-26.064 30.609,-26.064 l 22.26,0 c 4.61,0 8.348,3.738 8.348,8.348 0,4.61 -3.738,8.348 -8.348,8.348 l -22.261,0 c -7.412,0 -13.913,4.378 -13.913,9.368 0,4.99 6.501,9.368 13.913,9.368 l 11.13,0 c 16.879,-0.001 30.609,11.691 30.609,26.064 z m 287.724,-44.8 22.261,0 c 4.61,0 8.348,-3.738 8.348,-8.348 0,-4.61 -3.738,-8.348 -8.348,-8.348 l -22.261,0 c -16.878,0 -30.609,11.693 -30.609,26.064 l 0,35.432 c 0,14.372 13.73,26.064 30.609,26.064 l 22.261,0 c 4.61,0 8.348,-3.738 8.348,-8.348 0,-4.61 -3.738,-8.348 -8.348,-8.348 l -22.261,0 c -7.412,0 -13.913,-4.378 -13.913,-9.368 l 0,-35.432 c -0.001,-4.991 6.5,-9.368 13.913,-9.368 z m -247.098,0 22.261,0 c 4.61,0 8.348,-3.738 8.348,-8.348 0,-4.61 -3.738,-8.348 -8.348,-8.348 l -22.261,0 c -16.878,0 -30.609,11.693 -30.609,26.064 l 0,35.432 c 0,14.372 13.73,26.064 30.609,26.064 l 22.261,0 c 4.61,0 8.348,-3.738 8.348,-8.348 0,-4.61 -3.738,-8.348 -8.348,-8.348 l -22.261,0 c -7.412,0 -13.913,-4.378 -13.913,-9.368 l 0,-9.369 36.174,0 c 4.61,0 8.348,-3.738 8.348,-8.348 0,-4.61 -3.738,-8.348 -8.348,-8.348 l -36.174,0 0,-9.368 c 0,-4.99 6.502,-9.367 13.913,-9.367 z m 115.099,61.22 c 0.716,4.555 -2.396,8.826 -6.952,9.542 -0.439,0.069 -0.875,0.102 -1.306,0.102 -4.039,0 -7.59,-2.937 -8.237,-7.053 l -3.066,-19.522 -33.026,0 -3.066,19.522 c -0.717,4.555 -4.992,7.669 -9.542,6.952 -4.555,-0.716 -7.667,-4.988 -6.952,-9.542 l 9.06,-57.679 c 1.842,-11.727 13.203,-20.237 27.014,-20.237 13.812,0 25.171,8.511 27.014,20.238 0,0 9.059,57.677 9.059,57.677 z m -22.182,-33.626 -3.371,-21.463 c -0.463,-2.95 -4.617,-6.132 -10.519,-6.132 -5.902,0 -10.056,3.183 -10.519,6.133 l -3.371,21.462 27.78,0 0,0 z m 249.903,-44.29 c -4.61,0 -8.348,3.738 -8.348,8.348 l 0,27.084 -27.826,0 0,-27.084 c 0,-4.61 -3.738,-8.348 -8.348,-8.348 -4.61,0 -8.348,3.738 -8.348,8.348 l 0,70.864 c 0,4.61 3.738,8.348 8.348,8.348 4.61,0 8.348,-3.738 8.348,-8.348 l 0,-27.085 27.826,0 0,27.084 c 0,4.61 3.738,8.348 8.348,8.348 4.61,0 8.348,-3.738 8.348,-8.348 l 0,-70.864 c 0,-4.611 -3.738,-8.347 -8.348,-8.347 z m -139.688,26.064 c 0,-14.372 -13.73,-26.064 -30.609,-26.064 l -33.391,0 c -4.61,0 -8.348,3.738 -8.348,8.348 l 0,70.864 c 0,4.61 3.738,8.348 8.348,8.348 4.61,0 8.348,-3.738 8.348,-8.348 l 0,-62.516 25.043,0 c 7.412,0 13.913,4.378 13.913,9.368 0,4.99 -6.501,9.368 -13.913,9.368 l -11.13,0 c -4.61,0 -8.348,3.738 -8.348,8.348 0,4.61 3.738,8.348 8.348,8.348 l 6.517,0 19.807,31.525 c 1.586,2.524 4.3,3.908 7.077,3.908 1.517,0 3.053,-0.414 4.432,-1.28 3.903,-2.453 5.08,-7.605 2.628,-11.509 l -15.892,-25.296 c 10.158,-4.246 17.17,-13.143 17.17,-23.412 z"
           style="fill:#84a7b7" /><path
           id="path5381-2"
           inkscape:connector-curvature="0"
           d="m 362.066,208.032 139.011,54.396 c 12.911,5.052 14.395,22.731 2.505,29.864 l -49.567,29.741 -29.74,49.567 c -7.133,11.89 -24.812,10.406 -29.864,-2.505 L 340.015,230.084 c -2.464,-6.296 -0.966,-13.454 3.814,-18.235 l 0,0 c 4.782,-4.783 11.94,-6.281 18.237,-3.817 z"
           style="fill:#fc8059" /><path
           id="path5383"
           inkscape:connector-curvature="0"
           d="M 503.584,292.292 454.017,322.033 343.83,211.846 c 4.782,-4.782 11.939,-6.279 18.235,-3.814 l 139.011,54.396 c 12.913,5.052 14.397,22.73 2.508,29.864 z"
           style="fill:#ad3c1e" /><g
           id="g5385" /><g
           id="g5387" /><g
           id="g5389" /><g
           id="g5391" /><g
           id="g5393" /><g
           id="g5395" /><g
           id="g5397" /><g
           id="g5399" /><g
           id="g5401" /><g
           id="g5403" /><g
           id="g5405" /><g
           id="g5407" /><g
           id="g5409" /><g
           id="g5411" /><g
           id="g5413" /></g></g></g></svg>