<svg xmlns="http://www.w3.org/2000/svg" width="171" height="171" viewBox="0 0 171 171"><path fill="#03142E" d="M85.369.466c46.9 0 85 38.1 85 85s-38.1 85-85 85-85-38.1-85-85 38.1-85 85-85z"/><path opacity=".2" fill="none" stroke="#FFF" enable-background="new" d="M85.369.966c46.624 0 84.5 37.876 84.5 84.5s-37.876 84.5-84.5 84.5-84.5-37.876-84.5-84.5 37.876-84.5 84.5-84.5z"/><g transform="translate(.25 -.25)"><circle fill="#177898" cx="85.119" cy="85.716" r="74"/><path fill="#0F7289" d="M85.134 11.716l-.021.002v147.998h.021c40.86 0 73.984-33.131 73.984-74s-33.123-74-73.984-74z"/></g><defs><filter id="a" filterUnits="userSpaceOnUse" x="41.369" y="51.938" width="124" height="113.219"><feColorMatrix values="1 0 0 0 0 0 1 0 0 0 0 0 1 0 0 0 0 0 1 0"/></filter></defs><mask maskUnits="userSpaceOnUse" x="41.369" y="51.938" width="124" height="113.219" id="b"><g transform="translate(.25 -.25)" filter="url(#a)"><circle fill="#177898" cx="85.119" cy="85.716" r="74"/><path fill="#0F7289" d="M85.134 11.716l-.021.002v147.998h.021c40.86 0 73.984-33.131 73.984-74s-33.123-74-73.984-74z"/></g></mask><path mask="url(#b)" fill="#0F4E5D" d="M41.369 115.156l50 50 35.25-13.5 23.5-17.5 13.25-25.5 1.5-7.75-.25-6.25.75-2.75-40.5-39.969-83.5 63.219z"/><g transform="matrix(.17188 0 0 .1725 41.5 41.15)"><path fill="#D2DCF0" d="M484.755 62.699H25.721c-14.626 0-26.483 11.857-26.483 26.483v335.449c0 14.626 11.857 26.483 26.483 26.483h459.034c14.626 0 26.483-11.857 26.483-26.483V89.182c0-14.626-11.857-26.483-26.483-26.483zm-44.138 17.655h8.828a8.829 8.829 0 0 1 0 17.656h-8.828a8.829 8.829 0 0 1 0-17.656zm-247.172 0h211.862a8.829 8.829 0 0 1 0 17.656H193.445a8.829 8.829 0 0 1 0-17.656zm-44.138 0h8.828a8.829 8.829 0 0 1 0 17.656h-8.828a8.829 8.829 0 0 1 0-17.656zm-35.31 0h8.828a8.829 8.829 0 0 1 0 17.656h-8.828a8.829 8.829 0 0 1 0-17.656zm-35.311 0a8.829 8.829 0 1 1-.001 17.657 8.829 8.829 0 0 1 .001-17.657zm-26.482 0a8.829 8.829 0 1 1-.001 17.657 8.829 8.829 0 0 1 .001-17.657zm-26.483 0a8.829 8.829 0 1 1-.001 17.657 8.829 8.829 0 0 1 .001-17.657zm467.862 88.276v256.001a8.829 8.829 0 0 1-8.828 8.828H17.997a1.103 1.103 0 0 1-1.103-1.103V116.769c0-.609.494-1.103 1.103-1.103h466.758a8.829 8.829 0 0 1 8.828 8.828v44.136zm-8.828-70.621h-8.828a8.829 8.829 0 0 1 0-17.656h8.828a8.829 8.829 0 0 1 0 17.656z"/><path fill="#FFF" d="M255.238 207.403v226.055h229.517a8.829 8.829 0 0 0 8.828-8.828v-256H255.238v38.773zm132.414 5.365v-8.828a8.829 8.829 0 0 1 8.828-8.828h61.793a8.829 8.829 0 0 1 8.828 8.828v79.449a8.829 8.829 0 0 1-8.828 8.828H396.48a8.829 8.829 0 0 1-8.828-8.828v-70.621zm-105.931 0v-8.828a8.829 8.829 0 0 1 8.828-8.828h61.793a8.829 8.829 0 0 1 8.828 8.828v79.449a8.829 8.829 0 0 1-8.828 8.828h-61.794a8.829 8.829 0 0 1-8.828-8.828v-70.621h.001zm8.827 105.931h167.725a8.829 8.829 0 0 1 8.828 8.828v70.621a8.829 8.829 0 0 1-8.828 8.828H290.548a8.829 8.829 0 0 1-8.828-8.828v-70.621a8.83 8.83 0 0 1 8.828-8.828z"/><ellipse fill="#FF6469" cx="25.721" cy="89.182" rx="1.517" ry="1.523"/><ellipse fill="#FFE169" cx="52.204" cy="89.182" rx="1.517" ry="1.523"/><ellipse fill="#87E1AA" cx="78.686" cy="89.182" rx="1.517" ry="1.523"/><path d="M113.997 98.009h8.828a8.829 8.829 0 0 0 0-17.656h-8.828a8.829 8.829 0 0 0 0 17.656zm35.31 0h8.828a8.829 8.829 0 0 0 0-17.656h-8.828a8.829 8.829 0 0 0 0 17.656zm291.31 0h8.828a8.829 8.829 0 0 0 0-17.656h-8.828a8.829 8.829 0 0 0 0 17.656zm44.138-17.655h-8.828a8.829 8.829 0 0 0 0 17.656h8.828a8.829 8.829 0 0 0 0-17.656zm-291.31 17.655h211.862a8.829 8.829 0 0 0 0-17.656H193.445a8.829 8.829 0 0 0 0 17.656z" fill="#E4EAF6"/><path fill="#FF6469" d="M484.755 115.665H255.238v52.966h238.345v-44.138a8.828 8.828 0 0 0-8.828-8.828zm-167.724 35.31h-35.31a8.829 8.829 0 0 1 0-17.656h35.31a8.829 8.829 0 0 1 0 17.656zm70.621 0h-35.31a8.829 8.829 0 0 1 0-17.656h35.31a8.829 8.829 0 0 1 0 17.656zm70.62 0h-35.31a8.829 8.829 0 0 1 0-17.656h35.31a8.829 8.829 0 0 1 0 17.656z"/><path d="M317.031 133.32h-35.31a8.829 8.829 0 0 0 0 17.656h35.31a8.829 8.829 0 0 0 0-17.656zm70.621 0h-35.31a8.829 8.829 0 0 0 0 17.656h35.31a8.829 8.829 0 0 0 0-17.656zm70.62 0h-35.31a8.829 8.829 0 0 0 0 17.656h35.31a8.829 8.829 0 0 0 0-17.656z" fill="#D2555F"/><path d="M290.548 292.216h61.793a8.829 8.829 0 0 0 8.828-8.828v-70.621a8.829 8.829 0 0 1-8.828 8.828h-61.793a8.829 8.829 0 0 1-8.828-8.828v70.621a8.829 8.829 0 0 0 8.828 8.828zm105.931 0h61.793a8.829 8.829 0 0 0 8.828-8.828v-70.621a8.829 8.829 0 0 1-8.828 8.828h-61.793a8.829 8.829 0 0 1-8.828-8.828v70.621a8.829 8.829 0 0 0 8.828 8.828z" fill="#DEE3ED"/><path fill="#FF969B" d="M290.548 221.596h61.793a8.829 8.829 0 0 0 8.828-8.828v-8.828a8.829 8.829 0 0 0-8.828-8.828h-61.793a8.829 8.829 0 0 0-8.828 8.828v8.828a8.83 8.83 0 0 0 8.828 8.828z"/><path fill="#A0DCF0" d="M396.479 221.596h61.793a8.829 8.829 0 0 0 8.828-8.828v-8.828a8.829 8.829 0 0 0-8.828-8.828h-61.793a8.829 8.829 0 0 0-8.828 8.828v8.828a8.83 8.83 0 0 0 8.828 8.828z"/><path fill="#DEE3ED" d="M308.204 327.527v70.621a8.829 8.829 0 0 1-8.828 8.828h158.897a8.829 8.829 0 0 0 8.828-8.828v-70.621a8.829 8.829 0 0 0-8.828-8.828H299.376a8.829 8.829 0 0 1 8.828 8.828z"/><path fill="#91E6BE" d="M290.548 406.976h8.828a8.829 8.829 0 0 0 8.828-8.828v-70.621a8.829 8.829 0 0 0-8.828-8.828h-8.828a8.829 8.829 0 0 0-8.828 8.828v70.621a8.83 8.83 0 0 0 8.828 8.828z"/><g fill="#464655"><path d="M202.272 304.507c0 29.252 23.713 52.966 52.966 52.966V251.541c-29.252 0-52.966 23.713-52.966 52.966z"/><path d="M231.512 398.569l-6.305 10.921a8.828 8.828 0 0 1-12.058 3.231l-30.58-17.655a8.83 8.83 0 0 1-3.231-12.06l6.285-10.885a96.892 96.892 0 0 1-23.736-41.13h-12.579a8.829 8.829 0 0 1-8.828-8.828v-35.31a8.829 8.829 0 0 1 8.828-8.828h12.578a96.88 96.88 0 0 1 23.735-41.129l-6.283-10.882a8.829 8.829 0 0 1 3.231-12.06l30.58-17.655a8.826 8.826 0 0 1 12.058 3.231l6.303 10.919c7.608-1.914 15.528-3.043 23.729-3.043v-91.74H17.997c-.609 0-1.103.494-1.103 1.103v315.587c0 .609.494 1.103 1.103 1.103h237.241V401.61c-8.201.001-16.12-1.127-23.726-3.041zM129.478 240.74c-4.63 3.064-9.852 5.306-15.481 6.449v9.717a8.828 8.828 0 0 1-8.829 8.828 8.829 8.829 0 0 1-8.828-8.828v-9.718c-5.632-1.142-10.856-3.384-15.486-6.451l-6.897 6.897a8.826 8.826 0 0 1-12.484 0 8.827 8.827 0 0 1 0-12.483l6.897-6.898c-3.065-4.629-5.308-9.854-6.451-15.485h-9.716a8.829 8.829 0 0 1 0-17.656h9.717c1.143-5.632 3.384-10.854 6.45-15.482l-6.901-6.901a8.828 8.828 0 0 1 0-12.484 8.826 8.826 0 0 1 12.483 0l6.9 6.9c4.631-3.065 9.855-5.309 15.488-6.452v-9.717a8.828 8.828 0 0 1 8.829-8.828 8.829 8.829 0 0 1 8.828 8.828v9.717c5.632 1.143 10.855 3.385 15.485 6.451l6.897-6.897a8.826 8.826 0 0 1 12.484 0 8.827 8.827 0 0 1 0 12.483l-6.897 6.898c3.065 4.629 5.308 9.854 6.451 15.485h9.718a8.829 8.829 0 0 1 0 17.656h-9.717c-1.144 5.633-3.385 10.858-6.453 15.489l6.894 6.894a8.828 8.828 0 0 1 0 12.484 8.826 8.826 0 0 1-12.483 0l-6.898-6.896z"/><ellipse cx="105.169" cy="203.94" rx="3.034" ry="3.045"/></g><path fill="#707384" d="M225.205 199.528a8.828 8.828 0 0 0-12.058-3.231l-30.58 17.655a8.83 8.83 0 0 0-3.231 12.06l6.283 10.882a96.897 96.897 0 0 0-23.735 41.129h-12.577a8.829 8.829 0 0 0-8.828 8.828v35.31a8.829 8.829 0 0 0 8.828 8.828h12.578a96.901 96.901 0 0 0 23.736 41.13l-6.285 10.885a8.829 8.829 0 0 0 3.231 12.06l30.58 17.655a8.826 8.826 0 0 0 12.058-3.231l6.305-10.921c7.607 1.914 15.526 3.042 23.726 3.042v-26.483c-39.002 0-70.621-31.618-70.621-70.621s31.618-70.621 70.621-70.621v-26.483c-8.202 0-16.121 1.128-23.729 3.043l-6.302-10.916z"/><path fill="#9097AA" d="M184.617 304.507c0 39.003 31.618 70.621 70.621 70.621v-17.655c-29.252 0-52.966-23.713-52.966-52.966 0-29.252 23.713-52.966 52.966-52.966v-17.655c-39.002 0-70.621 31.618-70.621 70.621z"/><path fill="#707384" d="M148.858 247.637a8.827 8.827 0 0 0 .001-12.484l-6.894-6.894c3.066-4.631 5.309-9.856 6.453-15.489h9.717a8.829 8.829 0 0 0 0-17.656h-9.717c-1.143-5.632-3.385-10.856-6.451-15.485l6.897-6.898a8.827 8.827 0 0 0 0-12.483 8.826 8.826 0 0 0-12.484 0l-6.897 6.897c-4.63-3.064-9.854-5.308-15.485-6.451v-9.717a8.829 8.829 0 0 0-8.828-8.828 8.827 8.827 0 0 0-8.829 8.828v9.717c-5.633 1.143-10.857 3.385-15.488 6.452l-6.9-6.9a8.826 8.826 0 0 0-12.483 0 8.826 8.826 0 0 0 0 12.484l6.901 6.901c-3.064 4.629-5.306 9.852-6.45 15.482h-9.718a8.829 8.829 0 0 0 0 17.656h9.717c1.143 5.632 3.385 10.856 6.451 15.485l-6.897 6.898a8.827 8.827 0 0 0 0 12.483 8.826 8.826 0 0 0 12.484 0l6.897-6.897c4.63 3.065 9.854 5.309 15.486 6.451v9.717a8.829 8.829 0 0 0 8.828 8.828 8.827 8.827 0 0 0 8.829-8.828v-9.718c5.63-1.142 10.851-3.383 15.481-6.449l6.897 6.897a8.824 8.824 0 0 0 12.482.001zm-43.689-17.214c-14.626 0-26.483-11.857-26.483-26.483s11.857-26.483 26.483-26.483 26.483 11.857 26.483 26.483c0 14.627-11.857 26.483-26.483 26.483z"/><path fill="#9097AA" d="M105.169 177.458c-14.626 0-26.483 11.857-26.483 26.483s11.857 26.483 26.483 26.483 26.483-11.857 26.483-26.483c0-14.627-11.857-26.483-26.483-26.483zm0 44.138c-9.75 0-17.655-7.905-17.655-17.655 0-9.751 7.905-17.655 17.655-17.655s17.655 7.904 17.655 17.655c0 9.75-7.905 17.655-17.655 17.655z"/></g></svg>