<svg xmlns="http://www.w3.org/2000/svg" width="171" height="171" viewBox="0 0 171 171"><path fill="#03142E" d="M85.5.5c46.9 0 85 38.1 85 85s-38.1 85-85 85-85-38.1-85-85 38.1-85 85-85z"/><path opacity=".2" fill="none" stroke="#FFF" enable-background="new" d="M85.5 1C132.124 1 170 38.876 170 85.5S132.124 170 85.5 170 1 132.124 1 85.5 38.876 1 85.5 1z"/><g transform="translate(.25 -.25)"><circle fill="#177898" cx="85.25" cy="85.75" r="74"/><path fill="#0F7289" d="M85.265 11.75l-.021.002V159.75h.021c40.86 0 73.984-33.131 73.984-74s-33.123-74-73.984-74z"/></g><defs><filter id="a" filterUnits="userSpaceOnUse" x="36.475" y="51.721" width="127.906" height="115.563"><feColorMatrix values="1 0 0 0 0 0 1 0 0 0 0 0 1 0 0 0 0 0 1 0"/></filter></defs><mask maskUnits="userSpaceOnUse" x="36.475" y="51.721" width="127.906" height="115.563" id="b"><g transform="translate(.25 -.25)" filter="url(#a)"><circle fill="#177898" cx="85.25" cy="85.75" r="74"/><path fill="#0F7289" d="M85.265 11.75l-.021.002V159.75h.021c40.86 0 73.984-33.131 73.984-74s-33.123-74-73.984-74z"/></g></mask><path mask="url(#b)" fill="#0F4E5D" d="M36.475 116.315l50.906 50.969 23.5-7 24.5-13.25 23.5-30 4-14.75.5-10.5 1-5.5-33.219-34.563-94.687 64.594z"/><path fill="#464655" d="M131.12 51.707h-12.586a3.399 3.399 0 0 1-.23.255l-4.81 4.81-.004.004h15.941v47.31H41.57v-47.31h43.124l5.07-5.07H39.878a3.38 3.38 0 0 0-3.38 3.38v54.07H134.5v-54.07a3.38 3.38 0 0 0-3.38-3.38z"/><path fill="#FFF" d="M68.838 93.394l-7.502 3.215a1.584 1.584 0 0 1-.728.13 1.603 1.603 0 0 1-1.46-1.347 1.56 1.56 0 0 1 .11-.86l2.18-5.087L68.5 72.97l16.195-16.194H41.569v47.31h87.862v-47.31H113.49L82.898 87.368l-14.06 6.026z"/><path fill="#BEC8DC" d="M36.5 115.914a3.38 3.38 0 0 0 3.38 3.379h91.24a3.38 3.38 0 0 0 3.38-3.38v-6.758h-98v6.759zm49-4.225a2.534 2.534 0 1 1 0 5.07 2.534 2.534 0 0 1 0-5.07z"/><path fill="#AFBBD0" d="M71.56 122.672l-1.056 8.448h29.992l-1.056-8.448z"/><path fill="#BEC8DC" d="M70.293 131.12a1.69 1.69 0 0 0 0 3.38h30.414a1.69 1.69 0 0 0 0-3.38H70.293z"/><g fill="#96A5B9" transform="translate(36.369 36.466) scale(.1914)"><path d="M186.064 432.729l-2.207 17.655h145.656l-2.207-17.655z"/><circle cx="256.685" cy="406.246" r="13.241"/></g><path fill="#D75055" d="M68.5 72.97l7.198 7.2 30.597-30.597-3.6-3.6-3.6-3.6-9.332 9.334-5.07 5.069z"/><path fill="#FF6469" d="M106.295 49.573L75.698 80.17l7.2 7.2 30.592-30.593.004-.004-7.2-7.2z"/><path d="M99.096 42.374l3.6 3.6-3.6-3.6zm14.398 14.398l4.81-4.81a3.38 3.38 0 0 0 0-4.779l-4.81-4.81-7.2 7.2 7.2 7.2zm-54.347 38.62zm23.751-8.024l-7.2-7.199-8.998 9 3.6 3.599-1.462.626z" fill="#FFF0BE"/><path fill="#FFDC9B" d="M63.1 85.568l3.6 3.6 8.998-8.999L68.5 72.97l-7.06 16.475z"/><path fill="#D75055" d="M66.7 89.168l-3.6-3.6-1.661 3.877-2.18 5.087a1.557 1.557 0 0 0-.111.86c.11.721.724 1.3 1.46 1.347.235.014.482-.025.728-.13l7.502-3.215 1.461-.627-3.6-3.599z"/><path fill="#FFDC9B" d="M106.295 49.573l7.199-7.2-4.937-4.936a3.2 3.2 0 0 0-4.525 0l-4.936 4.937 3.6 3.6 3.599 3.6z"/></svg>