<svg xmlns="http://www.w3.org/2000/svg" width="171" height="171" viewBox="0 0 171 171"><path fill="#03142E" d="M85.5.31c46.9 0 85 38.1 85 85s-38.1 85-85 85-85-38.1-85-85 38.1-85 85-85z"/><path opacity=".2" fill="none" stroke="#FFF" enable-background="new" d="M85.5.81c46.624 0 84.5 37.876 84.5 84.5s-37.876 84.5-84.5 84.5S1 131.934 1 85.31 38.876.81 85.5.81z"/><g transform="translate(.25 -.25)"><circle fill="#177898" cx="85.25" cy="85.56" r="74"/><path fill="#0F7289" d="M85.265 11.56l-.021.002V159.56h.021c40.86 0 73.984-33.131 73.984-74s-33.123-74-73.984-74z"/></g><defs><filter id="a" filterUnits="userSpaceOnUse" x="38.506" y="55.853" width="121.763" height="109.844"><feColorMatrix values="1 0 0 0 0 0 1 0 0 0 0 0 1 0 0 0 0 0 1 0"/></filter></defs><mask maskUnits="userSpaceOnUse" x="38.506" y="55.853" width="121.763" height="109.844" id="b"><g transform="translate(.25 -.25)" filter="url(#a)"><circle fill="#177898" cx="85.25" cy="85.56" r="74"/><path fill="#0F7289" d="M85.265 11.56l-.021.002V159.56h.021c40.86 0 73.984-33.131 73.984-74s-33.123-74-73.984-74z"/></g></mask><path mask="url(#b)" fill="#0F4E5D" d="M38.506 117.96l25.41 43.767 30.238 3.971 34.295-12.728 27.224-27.577 4.596-16.263-30.826-53.276-90.937 62.106z"/><path d="M56.328 118.038H41.74v-58.91h40.518v-3.272H41.741c-1.79 0-3.241 1.465-3.241 3.273v58.909c0 1.807 1.451 3.272 3.241 3.272H82.26v-3.272H56.328zm72.93-62.182h-22.69v3.273h22.69v58.909H88.741v3.272h40.518c1.79 0 3.241-1.465 3.241-3.272v-58.91c0-1.807-1.451-3.272-3.242-3.272zm-29.172 0H88.741v3.273h11.345z" fill="#78AAC3"/><g fill="#FFF"><path d="M62.335 93.492h2.57l-5.747-5.802c-.4.468-.763.97-1.08 1.503l4.257 4.3zm3.717-1.157V89.74l-4.258-4.298c-.528.32-1.025.687-1.49 1.09l5.748 5.803zm-8.736-1.597a10.93 10.93 0 0 0-.703 2.754h3.431l-2.728-2.754z"/><path d="M82.259 59.129H56.328v13.909h10.534c.448 0 .81.366.81.818v8.394c6.73.164 12.156 5.738 12.156 12.572 0 6.937-5.59 12.58-12.46 12.58-4.791 0-8.957-2.747-11.04-6.762v17.398h27.551v-58.91h-1.62z"/><path d="M66.052 82.313v-7.639h-9.724v14.33c1.89-3.642 5.494-6.24 9.724-6.69zm1.621 11.997a.824.824 0 0 1-.016.16c-.006.027-.015.052-.023.077-.007.026-.013.051-.023.076-.013.032-.031.061-.048.091-.01.017-.016.034-.026.05a.814.814 0 0 1-.226.227c-.016.01-.032.018-.049.027-.03.017-.059.035-.09.048-.025.01-.05.016-.075.024-.026.008-.05.017-.076.022a.815.815 0 0 1-.159.017H56.538c.162 5.892 4.956 10.636 10.83 10.636 5.977 0 10.839-4.91 10.839-10.943 0-5.931-4.699-10.772-10.534-10.936v10.425z"/><path d="M66.052 87.427v-3.465c-.953.117-1.868.36-2.728.71l2.728 2.755zm53.482-15.207c.895 0 1.621.732 1.621 1.636 0 .904-.726 1.636-1.62 1.636h-12.966v9.819h1.62c.895 0 1.621.732 1.621 1.636 0 .904-.726 1.636-1.62 1.636h-1.621v3.273h12.965c.895 0 1.621.733 1.621 1.637s-.726 1.636-1.62 1.636h-12.966v3.273l-3.242 8.181-3.241-8.181v-3.273h-3.241c-.895 0-1.621-.733-1.621-1.636s.726-1.637 1.62-1.637h3.242v-3.273h-3.241a1.628 1.628 0 0 1-1.621-1.636c0-.904.726-1.636 1.62-1.636h3.242v-3.273h-3.241a1.63 1.63 0 0 1-1.621-1.637c0-.903.726-1.636 1.62-1.636h3.242v-3.273h-3.241a1.628 1.628 0 0 1-1.621-1.636 1.63 1.63 0 0 1 1.62-1.637h3.242v-3.272h-3.241c-.895 0-1.621-.733-1.621-1.637s.726-1.636 1.62-1.636h3.242v-6.546h-6.483v58.91h35.655v-58.91h-22.69V72.22h12.966zm-9.724 8.18a1.63 1.63 0 0 1 1.621-1.636h8.103a1.63 1.63 0 0 1 1.621 1.636 1.63 1.63 0 0 1-1.62 1.637h-8.104c-.895 0-1.62-.733-1.62-1.637zm9.724 8.182h-4.862c-.895 0-1.62-.733-1.62-1.636 0-.904.725-1.637 1.62-1.637h4.862a1.63 1.63 0 0 1 1.621 1.637c0 .903-.726 1.636-1.62 1.636zm0 13.09h-8.103c-.895 0-1.621-.732-1.621-1.635s.726-1.637 1.62-1.637h8.104c.895 0 1.621.733 1.621 1.637s-.726 1.636-1.62 1.636zm-8.103-35.999h8.103a1.63 1.63 0 0 1 1.621 1.637c0 .903-.726 1.636-1.62 1.636h-8.104a1.63 1.63 0 0 1-1.621-1.636 1.63 1.63 0 0 1 1.62-1.637z"/></g><g fill="#E4EAF6"><path d="M87.12 59.129v58.909h6.484v-58.91h-4.862zm-32.203 36h-8.314a.814.814 0 0 1-.81-.819V73.856c0-.452.362-.818.81-.818h9.725v-13.91H41.74v58.91h14.587V100.64a12.59 12.59 0 0 1-1.41-5.511z"/><path d="M56.328 89.003V74.674h-8.914v18.818h7.566c.167-1.605.637-3.12 1.348-4.489z"/></g><path fill="#BEC8DC" d="M83.88 59.129v58.909h3.24v-58.91H85.5z"/><path fill="#707384" d="M45.793 73.856v20.455c0 .452.362.818.81.818h8.314c.048 1.984.55 3.855 1.41 5.511 2.084 4.015 6.25 6.761 11.041 6.761 6.87 0 12.46-5.642 12.46-12.58 0-6.833-5.426-12.407-12.156-12.57v-8.395a.814.814 0 0 0-.81-.818H46.603a.814.814 0 0 0-.81.818zm20.259 13.57l-2.728-2.754c.86-.35 1.775-.593 2.728-.71v3.465zm-4.258-1.984l4.258 4.298v2.595l-5.747-5.803c.464-.403.96-.77 1.489-1.09zm-2.635 2.248l5.747 5.802h-2.57l-4.258-4.299c.318-.533.68-1.035 1.08-1.503zm-1.843 3.048l2.728 2.754h-3.431c.116-.962.356-1.885.703-2.754zm20.89 4.084c0 6.034-4.861 10.943-10.837 10.943-5.875 0-10.67-4.744-10.831-10.636h10.324a.8.8 0 0 0 .159-.017c.026-.005.05-.015.076-.022.025-.008.05-.014.074-.024a.66.66 0 0 0 .091-.048c.016-.01.033-.016.048-.027a.814.814 0 0 0 .226-.228c.01-.015.018-.032.027-.049.017-.03.034-.059.048-.091.01-.025.015-.05.023-.076.008-.025.017-.05.022-.076a.838.838 0 0 0 .016-.16V83.887c5.836.163 10.535 5.004 10.535 10.935zM47.415 74.674h18.637v7.64c-4.23.45-7.834 3.047-9.724 6.69a12.56 12.56 0 0 0-1.348 4.488h-7.566V74.674z"/><path d="M83.88 59.129h4.86v-3.273h-6.48v3.273zm3.24 58.909h-4.86v3.272h6.482v-3.272z" fill="#5F8CAF"/><path d="M111.43 68.947h8.104a1.63 1.63 0 0 0 1.621-1.637c0-.903-.726-1.636-1.62-1.636h-8.104a1.63 1.63 0 0 0-1.621 1.636 1.63 1.63 0 0 0 1.62 1.637zM95.224 67.31a1.63 1.63 0 0 0 1.621 1.637h3.241v-3.273h-3.241c-.895 0-1.62.733-1.62 1.636zm0 6.546c0 .904.726 1.636 1.621 1.636h3.241V72.22h-3.241c-.895 0-1.62.732-1.62 1.636zm25.931 0c0-.904-.726-1.636-1.62-1.636h-12.966v3.272h12.965c.895 0 1.621-.732 1.621-1.636zM95.224 93.492a1.63 1.63 0 0 0 1.621 1.637h3.241v-3.273h-3.241c-.895 0-1.62.733-1.62 1.636zm25.931 0c0-.903-.726-1.636-1.62-1.636h-12.966v3.273h12.965a1.63 1.63 0 0 0 1.621-1.637zM95.224 80.401a1.63 1.63 0 0 0 1.621 1.637h3.241v-3.273h-3.241c-.895 0-1.62.733-1.62 1.636zm25.931 0c0-.903-.726-1.636-1.62-1.636h-8.104a1.63 1.63 0 0 0-1.621 1.636 1.63 1.63 0 0 0 1.62 1.637h8.104a1.63 1.63 0 0 0 1.621-1.637zm-25.931 6.546c0 .904.726 1.636 1.621 1.636h3.241v-3.272h-3.241c-.895 0-1.62.732-1.62 1.636zm14.586 0c0-.904-.726-1.636-1.62-1.636h-1.621v3.272h1.62c.895 0 1.621-.732 1.621-1.636zm9.724-1.637h-4.862c-.895 0-1.62.733-1.62 1.637s.725 1.636 1.62 1.636h4.862c.895 0 1.621-.732 1.621-1.636 0-.904-.726-1.636-1.62-1.636zm0 13.091h-8.103c-.895 0-1.621.733-1.621 1.637s.726 1.636 1.62 1.636h8.104c.895 0 1.621-.733 1.621-1.636s-.726-1.637-1.62-1.637z" fill="#BEC8DC"/><path fill="#707384" d="M106.569 72.22V52.583h-3.242v45.818h3.242V75.492z"/><path fill="#464655" d="M100.086 88.583v9.818h3.241V52.583h-3.241v32.728z"/><path fill="#FFF0BE" d="M106.569 98.401h-3.242v4.91h1.297l-1.297 3.272z"/><path fill="#FFDC9B" d="M103.327 98.401h-3.241l3.241 8.182-1.296-3.273h1.296z"/><path fill="#464655" d="M104.624 103.31h-2.593l1.296 3.273z"/><path d="M106.515 50.537zm-.034-.117zm-3.154-1.11h-1.62a1.63 1.63 0 0 0-1.621 1.637v1.636h3.241v-3.272z" fill="#FFDC9B"/><path fill="#FFF0BE" d="M106.569 52.583v-1.636a1.614 1.614 0 0 0-.087-.527 1.63 1.63 0 0 0-1.534-1.11h-1.62v3.273h3.24z"/></svg>