<?xml version="1.0" encoding="utf-8"?>
<!-- Generator: Adobe Illustrator 17.0.0, SVG Export Plug-In . SVG Version: 6.00 Build 0)  -->
<!DOCTYPE svg PUBLIC "-//W3C//DTD SVG 1.1//EN" "http://www.w3.org/Graphics/SVG/1.1/DTD/svg11.dtd">
<svg version="1.1"
	 id="Слой_1" xmlns:dc="http://purl.org/dc/elements/1.1/" xmlns:cc="http://creativecommons.org/ns#" xmlns:rdf="http://www.w3.org/1999/02/22-rdf-syntax-ns#" xmlns:svg="http://www.w3.org/2000/svg" xmlns:sodipodi="http://sodipodi.sourceforge.net/DTD/sodipodi-0.dtd" xmlns:inkscape="http://www.inkscape.org/namespaces/inkscape" sodipodi:docname="1.РўС‰Р°С‚РµР»СЊРЅРѕРµ  РёР·СѓС‡РµРЅРёРµ СЃРµРіРјРµРЅС‚Р°  СЂС‹РЅРєР° РєРѕРјРїР°РЅРёРё.svg" inkscape:version="0.91 r13725"
	 xmlns="http://www.w3.org/2000/svg" xmlns:xlink="http://www.w3.org/1999/xlink" x="0px" y="0px" width="171px" height="171px"
	 viewBox="0 0 171 171" enable-background="new 0 0 171 171" xml:space="preserve">
<sodipodi:namedview  showguides="true" inkscape:cy="28.761287" inkscape:cx="89.560946" inkscape:zoom="1.4142136" showgrid="false" guidetolerance="10" gridtolerance="10" objecttolerance="10" borderopacity="1" bordercolor="#666666" pagecolor="#ffffff" id="namedview61" inkscape:guide-bbox="true" inkscape:current-layer="Слой_1" inkscape:window-maximized="1" inkscape:window-y="-8" inkscape:window-x="-8" inkscape:window-height="801" inkscape:window-width="1536" inkscape:pageshadow="2" inkscape:pageopacity="0">
	<inkscape:grid  type="xygrid" id="grid4289"></inkscape:grid>
</sodipodi:namedview>
<g id="g4459">
	<g id="g4274">
		<path id="path4272" inkscape:connector-curvature="0" fill="#03142E" d="M85.744,0.663c46.9,0,85,38.1,85,85s-38.1,85-85,85
			s-85-38.1-85-85S38.844,0.663,85.744,0.663z"/>
		
			<path id="path4271" inkscape:connector-curvature="0" opacity="0.2" fill="none" stroke="#FFFFFF" enable-background="new    " d="
			M85.744,1.163c46.624,0,84.5,37.876,84.5,84.5s-37.876,84.5-84.5,84.5s-84.5-37.876-84.5-84.5S39.12,1.163,85.744,1.163z"/>
	</g>
	<g id="g4232" transform="translate(0.25,-0.25)">
		<circle id="path4230" fill="#177898" cx="85.494" cy="85.913" r="74"/>
		<path id="path4278" inkscape:connector-curvature="0" fill="#0F7289" d="M85.509,11.913c-0.007,0.001-0.014,0.001-0.021,0.002
			v147.998c0.007,0,0.014,0,0.021,0c40.86,0,73.984-33.131,73.984-74S126.37,11.913,85.509,11.913
			C85.509,11.913,85.509,11.913,85.509,11.913z"/>
	</g>
	<defs>
		<filter id="Adobe_OpacityMaskFilter" filterUnits="userSpaceOnUse" x="41.238" y="52.166" width="121.567" height="114.043">
			<feColorMatrix  type="matrix" values="1 0 0 0 0  0 1 0 0 0  0 0 1 0 0  0 0 0 1 0"/>
		</filter>
	</defs>
	<mask maskUnits="userSpaceOnUse" x="41.238" y="52.166" width="121.567" height="114.043" id="mask4451">
		<g id="g4453" transform="translate(0.25,-0.25)" filter="url(#Adobe_OpacityMaskFilter)">
			<circle id="circle4455" fill="#177898" cx="85.494" cy="85.913" r="74"/>
			<path id="path4457" inkscape:connector-curvature="0" fill="#0F7289" d="M85.509,11.913c-0.007,0.001-0.014,0.001-0.021,0.002
				v147.998c0.007,0,0.014,0,0.021,0c40.86,0,73.984-33.131,73.984-74S126.37,11.913,85.509,11.913
				C85.509,11.913,85.509,11.913,85.509,11.913z"/>
		</g>
	</mask>
	<path id="path4443" sodipodi:nodetypes="ccccccccc" inkscape:connector-curvature="0" mask="url(#mask4451)" fill="#0F4E5D" d="
		M41.238,114.679l51.53,51.53l39.985-16.009l21.39-26.163l6.187-16.44l2.121-9.723l0.354-8.309l-36.991-37.399L41.238,114.679z"/>
	<g id="g4389" transform="matrix(0.17382812,0,0,0.17249636,41.250001,41.090932)">
		<path id="path4279" inkscape:connector-curvature="0" fill="#D2DCF0" d="M485.482,64.187H26.447
			c-14.626,0-26.483,11.857-26.483,26.483v335.449c0,14.626,11.857,26.483,26.483,26.483h459.034
			c14.626,0,26.483-11.857,26.483-26.483V90.67C511.965,76.044,500.108,64.187,485.482,64.187z M441.344,81.842h8.828
			c4.875,0,8.828,3.953,8.828,8.828c0,4.875-3.953,8.828-8.828,8.828h-8.828c-4.875,0-8.828-3.953-8.828-8.828
			C432.517,85.795,436.469,81.842,441.344,81.842z M194.172,81.842h211.862c4.875,0,8.828,3.953,8.828,8.828
			c0,4.875-3.953,8.828-8.828,8.828H194.172c-4.875,0-8.828-3.953-8.828-8.828C185.344,85.795,189.297,81.842,194.172,81.842z
			 M150.034,81.842h8.828c4.875,0,8.828,3.953,8.828,8.828c0,4.875-3.953,8.828-8.828,8.828h-8.828
			c-4.875,0-8.828-3.953-8.828-8.828C141.206,85.795,145.159,81.842,150.034,81.842z M114.724,81.842h8.828
			c4.875,0,8.828,3.953,8.828,8.828c0,4.875-3.953,8.828-8.828,8.828h-8.828c-4.875,0-8.828-3.953-8.828-8.828
			C105.896,85.795,109.849,81.842,114.724,81.842z M79.413,81.842c4.875,0,8.828,3.953,8.828,8.828c0,4.875-3.953,8.828-8.828,8.828
			c-4.875,0-8.828-3.953-8.828-8.828C70.586,85.795,74.538,81.842,79.413,81.842z M52.931,81.842c4.875,0,8.828,3.953,8.828,8.828
			c0,4.875-3.953,8.828-8.828,8.828s-8.828-3.953-8.828-8.828C44.103,85.795,48.055,81.842,52.931,81.842z M26.447,81.842
			c4.875,0,8.828,3.953,8.828,8.828c0,4.875-3.953,8.828-8.828,8.828s-8.828-3.953-8.828-8.828
			C17.619,85.795,21.572,81.842,26.447,81.842z M494.31,426.119c0,4.875-3.953,8.828-8.828,8.828H26.447
			c-4.875,0-8.828-3.953-8.828-8.828V125.98c0-4.875,3.953-8.828,8.828-8.828h459.034c4.875,0,8.828,3.953,8.828,8.828V426.119z
			 M485.482,99.497h-8.828c-4.875,0-8.828-3.953-8.828-8.828c0-4.875,3.953-8.828,8.828-8.828h8.828
			c4.875,0,8.828,3.953,8.828,8.828C494.31,95.545,490.357,99.497,485.482,99.497z"/>
		<path id="path4281" inkscape:connector-curvature="0" fill="#FFFFFF" d="M485.482,117.153H26.447
			c-4.875,0-8.828,3.953-8.828,8.828V426.12c0,4.875,3.953,8.828,8.828,8.828h459.034c4.875,0,8.828-3.953,8.828-8.828V125.98
			C494.31,121.105,490.357,117.153,485.482,117.153z M282.448,143.635h123.586c4.875,0,8.828,3.953,8.828,8.828
			c0,4.875-3.953,8.828-8.828,8.828H282.448c-4.875,0-8.828-3.953-8.828-8.828C273.62,147.588,277.573,143.635,282.448,143.635z
			 M273.62,187.773c0-4.875,3.953-8.828,8.828-8.828H459c4.875,0,8.828,3.953,8.828,8.828l0,0c0,4.875-3.953,8.828-8.828,8.828
			H282.448C277.573,196.601,273.62,192.648,273.62,187.773L273.62,187.773z M467.827,223.084c0,4.875-3.953,8.828-8.828,8.828
			h-17.655c-4.875,0-8.828-3.953-8.828-8.828c0-4.875,3.953-8.828,8.828-8.828h17.655
			C463.875,214.256,467.827,218.209,467.827,223.084z M414.862,223.084c0,4.875-3.953,8.828-8.828,8.828h-17.655
			c-4.875,0-8.828-3.953-8.828-8.828c0-4.875,3.953-8.828,8.828-8.828h17.655C410.909,214.256,414.862,218.209,414.862,223.084z
			 M361.896,223.084c0,4.875-3.953,8.828-8.828,8.828h-17.655c-4.875,0-8.828-3.953-8.828-8.828c0-4.875,3.953-8.828,8.828-8.828
			h17.655C357.943,214.256,361.896,218.209,361.896,223.084z M308.931,223.084c0,4.875-3.953,8.828-8.828,8.828h-17.655
			c-4.875,0-8.828-3.953-8.828-8.828c0-4.875,3.953-8.828,8.828-8.828h17.655C304.978,214.256,308.931,218.209,308.931,223.084z
			 M282.448,249.566h150.069c4.875,0,8.828,3.953,8.828,8.828c0,4.875-3.953,8.828-8.828,8.828H282.448
			c-4.875,0-8.828-3.953-8.828-8.828C273.62,253.519,277.573,249.566,282.448,249.566z M61.758,408.464L61.758,408.464
			c-4.875,0-8.828-3.953-8.828-8.828c0-4.875,3.953-8.828,8.828-8.828l0,0c4.875,0,8.828,3.953,8.828,8.828
			C70.586,404.511,66.633,408.464,61.758,408.464z M70.586,364.326c0,4.875-3.953,8.828-8.828,8.828l0,0
			c-4.875,0-8.828-3.953-8.828-8.828V205.428c0-4.875,3.953-8.828,8.828-8.828l0,0c4.875,0,8.828,3.953,8.828,8.828V364.326z
			 M97.068,408.464L97.068,408.464c-4.875,0-8.828-3.953-8.828-8.828c0-4.875,3.953-8.828,8.828-8.828l0,0
			c4.875,0,8.828,3.953,8.828,8.828C105.896,404.511,101.943,408.464,97.068,408.464z M105.896,364.326
			c0,4.875-3.953,8.828-8.828,8.828l0,0c-4.875,0-8.828-3.953-8.828-8.828V152.463c0-4.875,3.953-8.828,8.828-8.828l0,0
			c4.875,0,8.828,3.953,8.828,8.828V364.326z M132.379,408.464L132.379,408.464c-4.875,0-8.828-3.953-8.828-8.828
			c0-4.875,3.953-8.828,8.828-8.828l0,0c4.875,0,8.828,3.953,8.828,8.828C141.206,404.511,137.254,408.464,132.379,408.464z
			 M141.206,364.326c0,4.875-3.953,8.828-8.828,8.828l0,0c-4.875,0-8.828-3.953-8.828-8.828V249.566
			c0-4.875,3.953-8.828,8.828-8.828l0,0c4.875,0,8.828,3.953,8.828,8.828V364.326z M167.689,408.464
			c-4.875,0-8.828-3.953-8.828-8.828c0-4.875,3.953-8.828,8.828-8.828c4.875,0,8.828,3.953,8.828,8.828
			C176.517,404.511,172.564,408.464,167.689,408.464z M176.517,364.326c0,4.875-3.953,8.828-8.828,8.828
			c-4.875,0-8.828-3.953-8.828-8.828V187.773c0-4.875,3.953-8.828,8.828-8.828c4.875,0,8.828,3.953,8.828,8.828V364.326z
			 M202.999,408.464c-4.875,0-8.828-3.953-8.828-8.828c0-4.875,3.953-8.828,8.828-8.828c4.875,0,8.828,3.953,8.828,8.828
			C211.827,404.511,207.875,408.464,202.999,408.464z M211.827,364.326c0,4.875-3.953,8.828-8.828,8.828
			c-4.875,0-8.828-3.953-8.828-8.828v-52.966c0-4.875,3.953-8.828,8.828-8.828c4.875,0,8.828,3.953,8.828,8.828V364.326z
			 M238.31,408.464c-4.875,0-8.828-3.953-8.828-8.828c0-4.875,3.953-8.828,8.828-8.828s8.828,3.953,8.828,8.828
			C247.137,404.511,243.185,408.464,238.31,408.464z M247.137,364.326c0,4.875-3.953,8.828-8.828,8.828s-8.828-3.953-8.828-8.828
			v-88.276c0-4.875,3.953-8.828,8.828-8.828s8.828,3.953,8.828,8.828V364.326z M432.517,408.464H282.448
			c-4.875,0-8.828-3.953-8.828-8.828c0-4.875,3.953-8.828,8.828-8.828h150.069c4.875,0,8.828,3.953,8.828,8.828
			C441.344,404.511,437.392,408.464,432.517,408.464z M467.827,373.154H282.448c-4.875,0-8.828-3.953-8.828-8.828
			s3.953-8.828,8.828-8.828h185.379c4.875,0,8.828,3.953,8.828,8.828S472.702,373.154,467.827,373.154z M273.62,329.015
			c0-4.875,3.953-8.828,8.828-8.828h167.724c4.875,0,8.828,3.953,8.828,8.828c0,4.875-3.953,8.828-8.828,8.828H282.448
			C277.573,337.842,273.62,333.89,273.62,329.015z M467.827,302.532H282.448c-4.875,0-8.828-3.953-8.828-8.828
			s3.953-8.828,8.828-8.828h185.379c4.875,0,8.828,3.953,8.828,8.828S472.702,302.532,467.827,302.532z"/>
		<ellipse id="circle4283" fill="#FF6469" cx="26.448" cy="90.67" rx="1.535" ry="1.523"/>
		<ellipse id="circle4285" fill="#FFE169" cx="52.931" cy="90.67" rx="1.535" ry="1.523"/>
		<ellipse id="circle4287" fill="#87E1AA" cx="79.412" cy="90.67" rx="1.535" ry="1.523"/>
		<g id="g4289">
			<path id="path4291" inkscape:connector-curvature="0" fill="#E4EAF6" d="M114.724,99.497h8.828c4.875,0,8.828-3.953,8.828-8.828
				c0-4.875-3.953-8.828-8.828-8.828h-8.828c-4.875,0-8.828,3.953-8.828,8.828C105.896,95.545,109.849,99.497,114.724,99.497z"/>
			<path id="path4293" inkscape:connector-curvature="0" fill="#E4EAF6" d="M150.034,99.497h8.828c4.875,0,8.828-3.953,8.828-8.828
				c0-4.875-3.953-8.828-8.828-8.828h-8.828c-4.875,0-8.828,3.953-8.828,8.828C141.206,95.545,145.159,99.497,150.034,99.497z"/>
			<path id="path4295" inkscape:connector-curvature="0" fill="#E4EAF6" d="M441.344,99.497h8.828c4.875,0,8.828-3.953,8.828-8.828
				c0-4.875-3.953-8.828-8.828-8.828h-8.828c-4.875,0-8.828,3.953-8.828,8.828C432.517,95.545,436.469,99.497,441.344,99.497z"/>
			<path id="path4297" inkscape:connector-curvature="0" fill="#E4EAF6" d="M485.482,81.842h-8.828
				c-4.875,0-8.828,3.953-8.828,8.828c0,4.875,3.953,8.828,8.828,8.828h8.828c4.875,0,8.828-3.953,8.828-8.828
				C494.31,85.795,490.357,81.842,485.482,81.842z"/>
			<path id="path4299" inkscape:connector-curvature="0" fill="#E4EAF6" d="M194.172,99.497h211.862
				c4.875,0,8.828-3.953,8.828-8.828c0-4.875-3.953-8.828-8.828-8.828H194.172c-4.875,0-8.828,3.953-8.828,8.828
				C185.344,95.545,189.297,99.497,194.172,99.497z"/>
		</g>
		<path id="path4301" inkscape:connector-curvature="0" fill="#FFE169" d="M61.758,196.601L61.758,196.601
			c-4.875,0-8.828,3.953-8.828,8.828v158.897c0,4.875,3.953,8.828,8.828,8.828l0,0c4.875,0,8.828-3.953,8.828-8.828V205.428
			C70.586,200.553,66.633,196.601,61.758,196.601z"/>
		<path id="path4303" inkscape:connector-curvature="0" fill="#D2DCF0" d="M61.758,390.809L61.758,390.809
			c-4.875,0-8.828,3.953-8.828,8.828c0,4.875,3.953,8.828,8.828,8.828l0,0c4.875,0,8.828-3.953,8.828-8.828
			C70.586,394.761,66.633,390.809,61.758,390.809z"/>
		<path id="path4305" inkscape:connector-curvature="0" fill="#FF6469" d="M97.068,143.635L97.068,143.635
			c-4.875,0-8.828,3.953-8.828,8.828v211.862c0,4.875,3.953,8.828,8.828,8.828l0,0c4.875,0,8.828-3.953,8.828-8.828V152.463
			C105.896,147.588,101.943,143.635,97.068,143.635z"/>
		<path id="path4307" inkscape:connector-curvature="0" fill="#D2DCF0" d="M97.068,390.809L97.068,390.809
			c-4.875,0-8.828,3.953-8.828,8.828c0,4.875,3.953,8.828,8.828,8.828l0,0c4.875,0,8.828-3.953,8.828-8.828
			C105.896,394.761,101.943,390.809,97.068,390.809z"/>
		<path id="path4309" inkscape:connector-curvature="0" fill="#B4E173" d="M132.379,240.739L132.379,240.739
			c-4.875,0-8.828,3.953-8.828,8.828v114.759c0,4.875,3.953,8.828,8.828,8.828l0,0c4.875,0,8.828-3.953,8.828-8.828v-114.76
			C141.206,244.691,137.254,240.739,132.379,240.739z"/>
		<path id="path4311" inkscape:connector-curvature="0" fill="#D2DCF0" d="M132.379,390.809L132.379,390.809
			c-4.875,0-8.828,3.953-8.828,8.828c0,4.875,3.953,8.828,8.828,8.828l0,0c4.875,0,8.828-3.953,8.828-8.828
			C141.206,394.761,137.254,390.809,132.379,390.809z"/>
		<path id="path4313" inkscape:connector-curvature="0" fill="#A0DCF0" d="M167.689,178.946c-4.875,0-8.828,3.953-8.828,8.828
			v176.552c0,4.875,3.953,8.828,8.828,8.828c4.875,0,8.828-3.953,8.828-8.828V187.773
			C176.517,182.898,172.564,178.946,167.689,178.946z"/>
		<ellipse id="circle4315" fill="#D2DCF0" cx="167.689" cy="399.636" rx="1.535" ry="1.523"/>
		<path id="path4317" inkscape:connector-curvature="0" fill="#C3B4FA" d="M202.999,302.532c-4.875,0-8.828,3.953-8.828,8.828
			v52.966c0,4.875,3.953,8.828,8.828,8.828c4.875,0,8.828-3.953,8.828-8.828V311.36
			C211.827,306.484,207.875,302.532,202.999,302.532z"/>
		<ellipse id="circle4319" fill="#D2DCF0" cx="202.999" cy="399.636" rx="1.535" ry="1.523"/>
		<path id="path4321" inkscape:connector-curvature="0" fill="#FFAFD7" d="M238.31,267.222c-4.875,0-8.828,3.953-8.828,8.828v88.276
			c0,4.875,3.953,8.828,8.828,8.828s8.828-3.953,8.828-8.828V276.05C247.137,271.174,243.185,267.222,238.31,267.222z"/>
		<ellipse id="circle4323" fill="#D2DCF0" cx="238.31" cy="399.636" rx="1.535" ry="1.523"/>
		<g id="g4325">
			<path id="path4327" inkscape:connector-curvature="0" fill="#FF6469" d="M282.448,161.291h123.586
				c4.875,0,8.828-3.953,8.828-8.828c0-4.875-3.953-8.828-8.828-8.828H282.448c-4.875,0-8.828,3.953-8.828,8.828
				C273.62,157.338,277.573,161.291,282.448,161.291z"/>
			<path id="path4329" inkscape:connector-curvature="0" fill="#FF6469" d="M282.448,196.601H459c4.875,0,8.828-3.953,8.828-8.828
				l0,0c0-4.875-3.953-8.828-8.828-8.828H282.448c-4.875,0-8.828,3.953-8.828,8.828l0,0
				C273.62,192.648,277.573,196.601,282.448,196.601z"/>
		</g>
		<g id="g4331">
			<path id="path4333" inkscape:connector-curvature="0" fill="#D2DCF0" d="M282.448,214.256c-4.875,0-8.828,3.953-8.828,8.828
				c0,4.875,3.953,8.828,8.828,8.828h17.655c4.875,0,8.828-3.953,8.828-8.828c0-4.875-3.953-8.828-8.828-8.828H282.448z"/>
			<path id="path4335" inkscape:connector-curvature="0" fill="#D2DCF0" d="M335.413,214.256c-4.875,0-8.828,3.953-8.828,8.828
				c0,4.875,3.953,8.828,8.828,8.828h17.655c4.875,0,8.828-3.953,8.828-8.828c0-4.875-3.953-8.828-8.828-8.828H335.413z"/>
			<path id="path4337" inkscape:connector-curvature="0" fill="#D2DCF0" d="M388.379,214.256c-4.875,0-8.828,3.953-8.828,8.828
				c0,4.875,3.953,8.828,8.828,8.828h17.655c4.875,0,8.828-3.953,8.828-8.828c0-4.875-3.953-8.828-8.828-8.828H388.379z"/>
			<path id="path4339" inkscape:connector-curvature="0" fill="#D2DCF0" d="M458.999,214.256h-17.655
				c-4.875,0-8.828,3.953-8.828,8.828c0,4.875,3.953,8.828,8.828,8.828h17.655c4.875,0,8.828-3.953,8.828-8.828
				C467.827,218.209,463.875,214.256,458.999,214.256z"/>
		</g>
		<g id="g4341">
			<path id="path4343" inkscape:connector-curvature="0" fill="#AFBBD0" d="M282.448,267.222h150.069
				c4.875,0,8.828-3.953,8.828-8.828c0-4.875-3.953-8.828-8.828-8.828H282.448c-4.875,0-8.828,3.953-8.828,8.828
				C273.62,263.269,277.573,267.222,282.448,267.222z"/>
			<path id="path4345" inkscape:connector-curvature="0" fill="#AFBBD0" d="M467.827,284.877H282.448
				c-4.875,0-8.828,3.953-8.828,8.828s3.953,8.828,8.828,8.828h185.379c4.875,0,8.828-3.953,8.828-8.828
				S472.702,284.877,467.827,284.877z"/>
			<path id="path4347" inkscape:connector-curvature="0" fill="#AFBBD0" d="M282.448,337.842h167.724
				c4.875,0,8.828-3.953,8.828-8.828c0-4.875-3.953-8.828-8.828-8.828H282.448c-4.875,0-8.828,3.953-8.828,8.828
				C273.62,333.889,277.573,337.842,282.448,337.842z"/>
			<path id="path4349" inkscape:connector-curvature="0" fill="#AFBBD0" d="M467.827,355.497H282.448
				c-4.875,0-8.828,3.953-8.828,8.828s3.953,8.828,8.828,8.828h185.379c4.875,0,8.828-3.953,8.828-8.828
				S472.702,355.497,467.827,355.497z"/>
			<path id="path4351" inkscape:connector-curvature="0" fill="#AFBBD0" d="M432.517,390.809H282.448
				c-4.875,0-8.828,3.953-8.828,8.828c0,4.875,3.953,8.828,8.828,8.828h150.069c4.875,0,8.828-3.953,8.828-8.828
				C441.344,394.761,437.392,390.809,432.517,390.809z"/>
		</g>
		<g id="g4353">
		</g>
		<g id="g4355">
		</g>
		<g id="g4357">
		</g>
		<g id="g4359">
		</g>
		<g id="g4361">
		</g>
		<g id="g4363">
		</g>
		<g id="g4365">
		</g>
		<g id="g4367">
		</g>
		<g id="g4369">
		</g>
		<g id="g4371">
		</g>
		<g id="g4373">
		</g>
		<g id="g4375">
		</g>
		<g id="g4377">
		</g>
		<g id="g4379">
		</g>
		<g id="g4381">
		</g>
	</g>
</g>
</svg>
