<?xml version="1.0" encoding="utf-8"?>
<!-- Generator: Adobe Illustrator 17.0.0, SVG Export Plug-In . SVG Version: 6.00 Build 0)  -->
<!DOCTYPE svg PUBLIC "-//W3C//DTD SVG 1.1//EN" "http://www.w3.org/Graphics/SVG/1.1/DTD/svg11.dtd">
<svg version="1.1"
	 id="Слой_1" xmlns:dc="http://purl.org/dc/elements/1.1/" xmlns:cc="http://creativecommons.org/ns#" xmlns:rdf="http://www.w3.org/1999/02/22-rdf-syntax-ns#" xmlns:svg="http://www.w3.org/2000/svg" xmlns:sodipodi="http://sodipodi.sourceforge.net/DTD/sodipodi-0.dtd" xmlns:inkscape="http://www.inkscape.org/namespaces/inkscape" sodipodi:docname="2. Р—Р°РїРёСЃСЊ РіР»Р°РІРЅС‹С…  РїРѕС‚СЂРµР±РЅРѕСЃС‚РµР№  Рё С‚СЂР°РґРёС†РёР№.svg" inkscape:version="0.91 r13725"
	 xmlns="http://www.w3.org/2000/svg" xmlns:xlink="http://www.w3.org/1999/xlink" x="0px" y="0px" width="171px" height="171px"
	 viewBox="0 0 171 171" enable-background="new 0 0 171 171" xml:space="preserve">
<sodipodi:namedview  showguides="true" inkscape:cy="41.075249" inkscape:cx="126.47934" inkscape:zoom="1.4142136" showgrid="false" guidetolerance="10" gridtolerance="10" objecttolerance="10" borderopacity="1" bordercolor="#666666" pagecolor="#ffffff" id="namedview61" inkscape:guide-bbox="true" inkscape:current-layer="Слой_1" inkscape:window-maximized="1" inkscape:window-y="-8" inkscape:window-x="-8" inkscape:window-height="801" inkscape:window-width="1536" inkscape:pageshadow="2" inkscape:pageopacity="0">
	<inkscape:grid  type="xygrid" id="grid4289"></inkscape:grid>
</sodipodi:namedview>
<g id="g4477">
	<g id="g4274">
		<path id="path4272" inkscape:connector-curvature="0" fill="#03142E" d="M85.5,0.31c46.9,0,85,38.1,85,85s-38.1,85-85,85
			s-85-38.1-85-85S38.6,0.31,85.5,0.31z"/>
		
			<path id="path4271" inkscape:connector-curvature="0" opacity="0.2" fill="none" stroke="#FFFFFF" enable-background="new    " d="
			M85.5,0.81c46.624,0,84.5,37.876,84.5,84.5s-37.876,84.5-84.5,84.5S1,131.934,1,85.31S38.876,0.81,85.5,0.81z"/>
	</g>
	<g id="g4232" transform="translate(0.25,-0.25)">
		<circle id="path4230" fill="#177898" cx="85.25" cy="85.56" r="74"/>
		<path id="path4278" inkscape:connector-curvature="0" fill="#0F7289" d="M85.265,11.56c-0.007,0.001-0.014,0.001-0.021,0.002
			V159.56c0.007,0,0.014,0,0.021,0c40.86,0,73.984-33.131,73.984-74S126.126,11.56,85.265,11.56
			C85.265,11.56,85.265,11.56,85.265,11.56z"/>
	</g>
	<defs>
		<filter id="Adobe_OpacityMaskFilter" filterUnits="userSpaceOnUse" x="38.506" y="55.853" width="121.763" height="109.844">
			<feColorMatrix  type="matrix" values="1 0 0 0 0  0 1 0 0 0  0 0 1 0 0  0 0 0 1 0"/>
		</filter>
	</defs>
	<mask maskUnits="userSpaceOnUse" x="38.506" y="55.853" width="121.763" height="109.844" id="mask4469">
		<g id="g4471" transform="translate(0.25,-0.25)" filter="url(#Adobe_OpacityMaskFilter)">
			<circle id="circle4473" fill="#177898" cx="85.25" cy="85.56" r="74"/>
			<path id="path4475" inkscape:connector-curvature="0" fill="#0F7289" d="M85.265,11.56c-0.007,0.001-0.014,0.001-0.021,0.002
				V159.56c0.007,0,0.014,0,0.021,0c40.86,0,73.984-33.131,73.984-74S126.126,11.56,85.265,11.56
				C85.265,11.56,85.265,11.56,85.265,11.56z"/>
		</g>
	</mask>
	<path id="path4461" sodipodi:nodetypes="cccccccc" inkscape:connector-curvature="0" mask="url(#mask4469)" fill="#0F4E5D" d="
		M38.506,117.96l25.41,43.767l30.238,3.971l34.295-12.728l27.224-27.577l4.596-16.263l-30.826-53.276L38.506,117.96z"/>
	<g id="g4399" transform="matrix(0.18359375,0,0,0.18536874,38.744003,38.208696)">
		<g id="g4273">
			<path id="path4275" inkscape:connector-curvature="0" fill="#78AAC3" d="M95.774,430.649H16.326V112.857h79.448h141.241V95.201
				H16.326c-9.751,0-17.655,7.904-17.655,17.656v317.793c0,9.751,7.904,17.655,17.655,17.655h220.69v-17.655H95.774z"/>
			<path id="path4277" inkscape:connector-curvature="0" fill="#78AAC3" d="M493.015,95.201H369.429v17.655h123.586v317.793H298.809
				h-26.483v17.655h220.69c9.751,0,17.655-7.904,17.655-17.655V112.857C510.67,103.105,502.766,95.201,493.015,95.201z"/>
			<polygon id="polygon4279" fill="#78AAC3" points="334.118,95.201 272.326,95.201 272.326,112.857 298.809,112.857 
				334.118,112.857 			"/>
		</g>
		<g id="g4281">
			<path id="path4283" inkscape:connector-curvature="0" fill="#FFFFFF" d="M128.498,298.236h13.999l-31.304-31.304
				c-2.179,2.529-4.156,5.236-5.886,8.109C105.307,275.041,128.498,298.236,128.498,298.236z"/>
			<path id="path4285" inkscape:connector-curvature="0" fill="#FFFFFF" d="M148.74,291.995v-13.999l-23.193-23.19
				c-2.873,1.731-5.58,3.708-8.109,5.886L148.74,291.995z"/>
			<path id="path4287" inkscape:connector-curvature="0" fill="#FFFFFF" d="M101.159,283.376c-1.894,4.687-3.198,9.671-3.83,14.86
				h18.688C116.017,298.236,101.159,283.376,101.159,283.376z"/>
			<path id="path4289" inkscape:connector-curvature="0" fill="#FFFFFF" d="M237.016,112.857H95.774v75.034h57.379
				c2.44,0,4.414,1.974,4.414,4.414v45.283c36.654,0.885,66.207,30.953,66.207,67.82c0,37.422-30.444,67.862-67.862,67.862
				c-26.098,0-48.789-14.817-60.138-36.473v93.853h141.241h8.828V112.857H237.016z"/>
			<path id="path4291" inkscape:connector-curvature="0" fill="#FFFFFF" d="M148.74,237.928v-41.209H95.774v77.301
				C106.071,254.374,125.699,240.36,148.74,237.928z"/>
			<path id="path4293" inkscape:connector-curvature="0" fill="#FFFFFF" d="M157.568,302.65c0,0.289-0.03,0.578-0.087,0.863
				c-0.029,0.143-0.081,0.276-0.122,0.414c-0.041,0.137-0.072,0.275-0.127,0.407c-0.072,0.174-0.168,0.333-0.262,0.495
				c-0.05,0.087-0.086,0.179-0.142,0.263c-0.324,0.488-0.744,0.907-1.231,1.231c-0.084,0.056-0.175,0.093-0.263,0.142
				c-0.162,0.093-0.321,0.189-0.495,0.262c-0.132,0.055-0.271,0.085-0.407,0.127c-0.138,0.042-0.27,0.094-0.414,0.122
				c-0.285,0.056-0.574,0.087-0.863,0.087H96.92c0.882,31.787,26.996,57.379,58.993,57.379c32.552,0,59.034-26.483,59.034-59.034
				c0-31.997-25.592-58.111-57.379-58.993C157.568,246.415,157.568,302.65,157.568,302.65z"/>
			<path id="path4295" inkscape:connector-curvature="0" fill="#FFFFFF" d="M148.74,265.513v-18.688
				c-5.19,0.632-10.173,1.937-14.86,3.83L148.74,265.513z"/>
			<path id="path4297" inkscape:connector-curvature="0" fill="#FFFFFF" d="M440.049,183.477c4.875,0,8.828,3.953,8.828,8.828
				c0,4.875-3.953,8.828-8.828,8.828h-70.621v52.965h8.828c4.875,0,8.828,3.953,8.828,8.828c0,4.875-3.953,8.828-8.828,8.828h-8.828
				v17.655h70.621c4.875,0,8.828,3.953,8.828,8.828s-3.953,8.828-8.828,8.828h-70.621v17.655l-17.655,44.138l-17.655-44.138v-17.655
				h-17.655c-4.875,0-8.828-3.953-8.828-8.828s3.953-8.828,8.828-8.828h17.655v-17.655h-17.655c-4.875,0-8.828-3.953-8.828-8.828
				c0-4.875,3.953-8.828,8.828-8.828h17.655v-17.655h-17.655c-4.875,0-8.828-3.953-8.828-8.828c0-4.875,3.953-8.828,8.828-8.828
				h17.655v-17.655h-17.655c-4.875,0-8.828-3.953-8.828-8.828c0-4.875,3.953-8.828,8.828-8.828h17.655V165.82h-17.655
				c-4.875,0-8.828-3.953-8.828-8.828c0-4.875,3.953-8.828,8.828-8.828h17.655v-35.309h-35.31v317.793h194.207V112.857H369.429
				v70.621h70.62V183.477z M387.084,227.615c0-4.875,3.953-8.828,8.828-8.828h44.138c4.875,0,8.828,3.953,8.828,8.828
				c0,4.875-3.953,8.828-8.828,8.828h-44.138C391.036,236.443,387.084,232.49,387.084,227.615z M440.049,271.753h-26.483
				c-4.875,0-8.828-3.953-8.828-8.828c0-4.875,3.953-8.828,8.828-8.828h26.483c4.875,0,8.828,3.953,8.828,8.828
				C448.877,267.8,444.924,271.753,440.049,271.753z M440.049,342.373h-44.138c-4.875,0-8.828-3.953-8.828-8.828
				s3.953-8.828,8.828-8.828h44.138c4.875,0,8.828,3.953,8.828,8.828S444.924,342.373,440.049,342.373z M395.911,148.167h44.138
				c4.875,0,8.828,3.953,8.828,8.828c0,4.875-3.953,8.828-8.828,8.828h-44.138c-4.875,0-8.828-3.953-8.828-8.828
				C387.084,152.12,391.036,148.167,395.911,148.167z"/>
		</g>
		<g id="g4299">
			<polygon id="polygon4301" fill="#E4EAF6" points="263.499,112.857 263.499,430.649 272.326,430.649 298.809,430.649 
				298.809,112.857 272.326,112.857 			"/>
			<path id="path4303" inkscape:connector-curvature="0" fill="#E4EAF6" d="M88.092,307.063H42.809c-2.44,0-4.414-1.974-4.414-4.414
				V192.305c0-2.44,1.974-4.414,4.414-4.414h52.966v-75.034H16.326v317.793h79.448v-93.853
				C91.093,327.863,88.35,317.768,88.092,307.063z"/>
			<path id="path4305" inkscape:connector-curvature="0" fill="#E4EAF6" d="M95.774,274.02v-77.301H47.223v101.517h41.209
				C89.346,289.576,91.905,281.403,95.774,274.02z"/>
		</g>
		<polygon id="polygon4307" fill="#BEC8DC" points="245.843,112.857 245.843,430.649 254.671,430.649 263.499,430.649 
			263.499,112.857 254.671,112.857 		"/>
		<path id="path4309" inkscape:connector-curvature="0" fill="#707384" d="M38.395,192.305V302.65c0,2.44,1.974,4.414,4.414,4.414
			h45.283c0.258,10.706,3,20.8,7.682,29.733c11.349,21.656,34.04,36.473,60.138,36.473c37.418,0,67.862-30.44,67.862-67.862
			c0-36.867-29.553-66.935-66.207-67.82v-45.283c0-2.44-1.974-4.414-4.414-4.414H95.774H42.809
			C40.369,187.891,38.395,189.865,38.395,192.305z M148.74,265.513l-14.86-14.858c4.687-1.894,9.671-3.198,14.86-3.83V265.513z
			 M125.547,254.805l23.193,23.189v13.999l-31.304-31.304C119.965,258.512,122.672,256.536,125.547,254.805z M111.195,266.932
			l31.304,31.304H128.5l-23.19-23.193C107.04,272.168,109.016,269.461,111.195,266.932z M101.159,283.376l14.858,14.86H97.329
			C97.961,293.046,99.266,288.063,101.159,283.376z M214.947,305.408c0,32.552-26.483,59.034-59.034,59.034
			c-31.997,0-58.111-25.592-58.993-57.379h56.234c0.289,0,0.578-0.03,0.863-0.087c0.143-0.029,0.276-0.081,0.414-0.122
			c0.137-0.041,0.275-0.072,0.407-0.127c0.174-0.072,0.333-0.168,0.495-0.262c0.087-0.05,0.179-0.086,0.263-0.142
			c0.488-0.324,0.907-0.744,1.231-1.231c0.056-0.084,0.093-0.175,0.142-0.263c0.093-0.162,0.189-0.321,0.262-0.495
			c0.055-0.132,0.085-0.271,0.127-0.407c0.042-0.138,0.094-0.27,0.122-0.414c0.056-0.285,0.087-0.574,0.087-0.863v-56.234
			C189.355,247.297,214.947,273.412,214.947,305.408z M47.223,196.719h48.552h52.966v41.209
			c-23.041,2.432-42.669,16.445-52.966,36.092c-3.87,7.383-6.429,15.555-7.342,24.216h-41.21
			C47.223,298.236,47.223,196.719,47.223,196.719z"/>
		<g id="g4311">
			<polygon id="polygon4313" fill="#5F8CAF" points="245.843,112.857 254.671,112.857 263.499,112.857 272.326,112.857 
				272.326,95.201 237.016,95.201 237.016,112.857 			"/>
			<polygon id="polygon4315" fill="#5F8CAF" points="263.499,430.649 254.671,430.649 245.843,430.649 237.016,430.649 
				237.016,448.304 272.326,448.304 272.326,430.649 			"/>
		</g>
		<g id="g4317">
			<path id="path4319" inkscape:connector-curvature="0" fill="#BEC8DC" d="M395.911,165.822h44.138
				c4.875,0,8.828-3.953,8.828-8.828c0-4.875-3.953-8.828-8.828-8.828h-44.138c-4.875,0-8.828,3.953-8.828,8.828
				C387.084,161.87,391.036,165.822,395.911,165.822z"/>
			<path id="path4321" inkscape:connector-curvature="0" fill="#BEC8DC" d="M307.637,156.993c0,4.875,3.953,8.828,8.828,8.828
				h17.655v-17.655h-17.655C311.589,148.166,307.637,152.118,307.637,156.993z"/>
			<path id="path4323" inkscape:connector-curvature="0" fill="#BEC8DC" d="M307.637,192.305c0,4.875,3.953,8.828,8.828,8.828
				h17.655v-17.655h-17.655C311.589,183.477,307.637,187.43,307.637,192.305z"/>
			<path id="path4325" inkscape:connector-curvature="0" fill="#BEC8DC" d="M448.877,192.305c0-4.875-3.953-8.828-8.828-8.828
				h-70.621v17.655h70.621C444.924,201.132,448.877,197.18,448.877,192.305z"/>
			<path id="path4327" inkscape:connector-curvature="0" fill="#BEC8DC" d="M307.637,298.236c0,4.875,3.953,8.828,8.828,8.828
				h17.655v-17.656h-17.655C311.589,289.408,307.637,293.361,307.637,298.236z"/>
			<path id="path4329" inkscape:connector-curvature="0" fill="#BEC8DC" d="M448.877,298.236c0-4.875-3.953-8.828-8.828-8.828
				h-70.621v17.655h70.621C444.924,307.063,448.877,303.111,448.877,298.236z"/>
			<path id="path4331" inkscape:connector-curvature="0" fill="#BEC8DC" d="M307.637,227.615c0,4.875,3.953,8.828,8.828,8.828
				h17.655v-17.655h-17.655C311.589,218.788,307.637,222.74,307.637,227.615z"/>
			<path id="path4333" inkscape:connector-curvature="0" fill="#BEC8DC" d="M448.877,227.615c0-4.875-3.953-8.828-8.828-8.828
				h-44.138c-4.875,0-8.828,3.953-8.828,8.828c0,4.875,3.953,8.828,8.828,8.828h44.138
				C444.924,236.443,448.877,232.49,448.877,227.615z"/>
			<path id="path4335" inkscape:connector-curvature="0" fill="#BEC8DC" d="M307.637,262.926c0,4.875,3.953,8.828,8.828,8.828
				h17.655v-17.656h-17.655C311.589,254.098,307.637,258.051,307.637,262.926z"/>
			<path id="path4337" inkscape:connector-curvature="0" fill="#BEC8DC" d="M387.084,262.926c0-4.875-3.953-8.828-8.828-8.828
				h-8.828v17.655h8.828C383.131,271.753,387.084,267.801,387.084,262.926z"/>
			<path id="path4339" inkscape:connector-curvature="0" fill="#BEC8DC" d="M440.049,254.098h-26.483
				c-4.875,0-8.828,3.953-8.828,8.828c0,4.875,3.953,8.828,8.828,8.828h26.483c4.875,0,8.828-3.953,8.828-8.828
				C448.877,258.051,444.924,254.098,440.049,254.098z"/>
			<path id="path4341" inkscape:connector-curvature="0" fill="#BEC8DC" d="M440.049,324.718h-44.138
				c-4.875,0-8.828,3.953-8.828,8.828s3.953,8.828,8.828,8.828h44.138c4.875,0,8.828-3.953,8.828-8.828
				S444.924,324.718,440.049,324.718z"/>
		</g>
		<polygon id="polygon4343" fill="#707384" points="369.429,183.477 369.429,112.857 369.429,95.201 369.429,77.546 351.773,77.546 
			351.773,324.718 369.429,324.718 369.429,307.063 369.429,289.408 369.429,271.753 369.429,254.098 369.429,201.132 		"/>
		<polygon id="polygon4345" fill="#464655" points="334.118,271.753 334.118,289.408 334.118,307.063 334.118,324.718 
			351.773,324.718 351.773,77.546 334.118,77.546 334.118,95.201 334.118,112.857 334.118,148.166 334.118,165.821 334.118,183.477 
			334.118,201.132 334.118,218.788 334.118,236.443 334.118,254.098 		"/>
		<polygon id="polygon4347" fill="#FFF0BE" points="369.429,324.718 351.773,324.718 351.773,351.2 358.835,351.2 351.773,368.856 
					"/>
		<polygon id="polygon4349" fill="#FFDC9B" points="351.773,324.718 334.118,324.718 351.773,368.856 344.711,351.2 351.773,351.2 
					"/>
		<polygon id="polygon4351" fill="#464655" points="358.835,351.2 351.773,351.2 344.711,351.2 351.773,368.856 		"/>
		<g id="g4353">
			<path id="path4355" inkscape:connector-curvature="0" fill="#FFDC9B" d="M369.137,66.505c0.11,0.427,0.2,0.862,0.246,1.312
				C369.337,67.367,369.248,66.931,369.137,66.505z"/>
			<path id="path4357" inkscape:connector-curvature="0" fill="#FFDC9B" d="M368.952,65.876c-0.871-2.559-2.881-4.585-5.429-5.48
				C366.072,61.291,368.082,63.317,368.952,65.876z"/>
			<path id="path4359" inkscape:connector-curvature="0" fill="#FFDC9B" d="M351.773,59.891h-8.828
				c-4.875,0-8.828,3.953-8.828,8.828v8.828h17.655V59.891L351.773,59.891z"/>
		</g>
		<path id="path4361" inkscape:connector-curvature="0" fill="#FFF0BE" d="M369.429,77.546v-8.828c0-0.305-0.015-0.606-0.045-0.903
			c-0.045-0.449-0.135-0.885-0.246-1.312c-0.055-0.213-0.115-0.423-0.185-0.628c-0.871-2.559-2.881-4.585-5.429-5.48
			c-0.916-0.321-1.896-0.505-2.922-0.505h-8.828v17.655L369.429,77.546L369.429,77.546z"/>
		<g id="g4363">
		</g>
		<g id="g4365">
		</g>
		<g id="g4367">
		</g>
		<g id="g4369">
		</g>
		<g id="g4371">
		</g>
		<g id="g4373">
		</g>
		<g id="g4375">
		</g>
		<g id="g4377">
		</g>
		<g id="g4379">
		</g>
		<g id="g4381">
		</g>
		<g id="g4383">
		</g>
		<g id="g4385">
		</g>
		<g id="g4387">
		</g>
		<g id="g4389">
		</g>
		<g id="g4391">
		</g>
	</g>
</g>
</svg>
