<?xml version="1.0" encoding="utf-8"?>
<!-- Generator: Adobe Illustrator 17.0.0, SVG Export Plug-In . SVG Version: 6.00 Build 0)  -->
<!DOCTYPE svg PUBLIC "-//W3C//DTD SVG 1.1//EN" "http://www.w3.org/Graphics/SVG/1.1/DTD/svg11.dtd">
<svg version="1.1"
	 id="Слой_1" xmlns:dc="http://purl.org/dc/elements/1.1/" xmlns:cc="http://creativecommons.org/ns#" xmlns:rdf="http://www.w3.org/1999/02/22-rdf-syntax-ns#" xmlns:svg="http://www.w3.org/2000/svg" xmlns:sodipodi="http://sodipodi.sourceforge.net/DTD/sodipodi-0.dtd" xmlns:inkscape="http://www.inkscape.org/namespaces/inkscape" sodipodi:docname="3. РђРЅР°Р»РёР·  РїРѕР»СѓС‡РµРЅРЅРѕР№  РёРЅС„РѕСЂРјР°С†РёРё.svg" inkscape:version="0.91 r13725"
	 xmlns="http://www.w3.org/2000/svg" xmlns:xlink="http://www.w3.org/1999/xlink" x="0px" y="0px" width="171px" height="171px"
	 viewBox="0 0 171 171" enable-background="new 0 0 171 171" xml:space="preserve">
<sodipodi:namedview  showguides="true" inkscape:cy="38.097284" inkscape:cx="78.251413" inkscape:zoom="1.4142136" showgrid="false" guidetolerance="10" gridtolerance="10" objecttolerance="10" borderopacity="1" bordercolor="#666666" pagecolor="#ffffff" id="namedview61" inkscape:guide-bbox="true" inkscape:current-layer="Слой_1" inkscape:window-maximized="1" inkscape:window-y="-8" inkscape:window-x="-8" inkscape:window-height="801" inkscape:window-width="1536" inkscape:pageshadow="2" inkscape:pageopacity="0">
	<inkscape:grid  type="xygrid" id="grid4289"></inkscape:grid>
</sodipodi:namedview>
<g id="g4451">
	<g id="g4274">
		<path id="path4272" inkscape:connector-curvature="0" fill="#03142E" d="M85.369,0.466c46.9,0,85,38.1,85,85s-38.1,85-85,85
			s-85-38.1-85-85S38.469,0.466,85.369,0.466z"/>
		
			<path id="path4271" inkscape:connector-curvature="0" opacity="0.2" fill="none" stroke="#FFFFFF" enable-background="new    " d="
			M85.369,0.966c46.624,0,84.5,37.876,84.5,84.5s-37.876,84.5-84.5,84.5s-84.5-37.876-84.5-84.5S38.745,0.966,85.369,0.966z"/>
	</g>
	<g id="g4232" transform="translate(0.25,-0.25)">
		<circle id="path4230" fill="#177898" cx="85.119" cy="85.716" r="74"/>
		<path id="path4278" inkscape:connector-curvature="0" fill="#0F7289" d="M85.134,11.716c-0.007,0.001-0.014,0.001-0.021,0.002
			v147.998c0.007,0,0.014,0,0.021,0c40.86,0,73.984-33.131,73.984-74S125.995,11.716,85.134,11.716
			C85.134,11.716,85.134,11.716,85.134,11.716z"/>
	</g>
	<defs>
		<filter id="Adobe_OpacityMaskFilter" filterUnits="userSpaceOnUse" x="41.369" y="51.938" width="124" height="113.219">
			<feColorMatrix  type="matrix" values="1 0 0 0 0  0 1 0 0 0  0 0 1 0 0  0 0 0 1 0"/>
		</filter>
	</defs>
	<mask maskUnits="userSpaceOnUse" x="41.369" y="51.938" width="124" height="113.219" id="mask4443">
		<g id="g4445" transform="translate(0.25,-0.25)" filter="url(#Adobe_OpacityMaskFilter)">
			<circle id="circle4447" fill="#177898" cx="85.119" cy="85.716" r="74"/>
			<path id="path4449" inkscape:connector-curvature="0" fill="#0F7289" d="M85.134,11.716c-0.007,0.001-0.014,0.001-0.021,0.002
				v147.998c0.007,0,0.014,0,0.021,0c40.86,0,73.984-33.131,73.984-74S125.995,11.716,85.134,11.716
				C85.134,11.716,85.134,11.716,85.134,11.716z"/>
		</g>
	</mask>
	<path id="path4435" sodipodi:nodetypes="cccccccccc" inkscape:connector-curvature="0" mask="url(#mask4443)" fill="#0F4E5D" d="
		M41.369,115.156l50,50l35.25-13.5l23.5-17.5l13.25-25.5l1.5-7.75l-0.25-6.25l0.75-2.75l-40.5-39.969L41.369,115.156z"/>
	<g id="g4387" transform="matrix(0.171875,0,0,0.17249636,41.5,41.150931)">
		<path id="path4289" inkscape:connector-curvature="0" fill="#D2DCF0" d="M484.755,62.699H25.721
			c-14.626,0-26.483,11.857-26.483,26.483v335.449c0,14.626,11.857,26.483,26.483,26.483h459.034
			c14.626,0,26.483-11.857,26.483-26.483V89.182C511.238,74.556,499.381,62.699,484.755,62.699z M440.617,80.354h8.828
			c4.875,0,8.828,3.953,8.828,8.828s-3.953,8.828-8.828,8.828h-8.828c-4.875,0-8.828-3.953-8.828-8.828
			C431.79,84.307,435.742,80.354,440.617,80.354z M193.445,80.354h211.862c4.875,0,8.828,3.953,8.828,8.828
			s-3.953,8.828-8.828,8.828H193.445c-4.875,0-8.828-3.953-8.828-8.828S188.57,80.354,193.445,80.354z M149.307,80.354h8.828
			c4.875,0,8.828,3.953,8.828,8.828s-3.953,8.828-8.828,8.828h-8.828c-4.875,0-8.828-3.953-8.828-8.828
			S144.432,80.354,149.307,80.354z M113.997,80.354h8.828c4.875,0,8.828,3.953,8.828,8.828s-3.953,8.828-8.828,8.828h-8.828
			c-4.875,0-8.828-3.953-8.828-8.828S109.122,80.354,113.997,80.354z M78.686,80.354c4.875,0,8.828,3.953,8.828,8.828
			s-3.953,8.828-8.828,8.828s-8.828-3.953-8.828-8.828C69.859,84.307,73.811,80.354,78.686,80.354z M52.204,80.354
			c4.875,0,8.828,3.953,8.828,8.828s-3.953,8.828-8.828,8.828s-8.828-3.953-8.828-8.828S47.328,80.354,52.204,80.354z
			 M25.721,80.354c4.875,0,8.828,3.953,8.828,8.828s-3.953,8.828-8.828,8.828s-8.828-3.953-8.828-8.828S20.846,80.354,25.721,80.354
			z M493.583,168.63v256.001c0,4.875-3.953,8.828-8.828,8.828H255.238H25.721h-7.724c-0.609,0-1.103-0.494-1.103-1.103v-7.724
			V168.631v-44.138v-7.724c0-0.609,0.494-1.103,1.103-1.103h7.724h229.517h229.517c4.875,0,8.828,3.953,8.828,8.828
			C493.583,124.494,493.583,168.63,493.583,168.63z M484.755,98.009h-8.828c-4.875,0-8.828-3.953-8.828-8.828
			s3.953-8.828,8.828-8.828h8.828c4.875,0,8.828,3.953,8.828,8.828C493.583,94.057,489.63,98.009,484.755,98.009z"/>
		<path id="path4291" inkscape:connector-curvature="0" fill="#FFFFFF" d="M255.238,207.403v26.483v17.655v105.931v17.655v26.483
			v31.848h229.517c4.875,0,8.828-3.953,8.828-8.828V168.63H255.238C255.238,168.63,255.238,207.403,255.238,207.403z
			 M387.652,212.768v-8.828c0-4.875,3.953-8.828,8.828-8.828h61.793c4.875,0,8.828,3.953,8.828,8.828v8.828v70.621
			c0,4.875-3.953,8.828-8.828,8.828H396.48c-4.875,0-8.828-3.953-8.828-8.828V212.768z M281.721,212.768v-8.828
			c0-4.875,3.953-8.828,8.828-8.828h61.793c4.875,0,8.828,3.953,8.828,8.828v8.828v70.621c0,4.875-3.953,8.828-8.828,8.828h-61.794
			c-4.875,0-8.828-3.953-8.828-8.828v-70.621H281.721z M290.548,318.699h8.828h158.897c4.875,0,8.828,3.953,8.828,8.828v70.621
			c0,4.875-3.953,8.828-8.828,8.828H299.376h-8.828c-4.875,0-8.828-3.953-8.828-8.828v-70.621
			C281.721,322.652,285.673,318.699,290.548,318.699z"/>
		<ellipse id="circle4293" fill="#FF6469" cx="25.721" cy="89.182" rx="1.517" ry="1.523"/>
		<ellipse id="circle4295" fill="#FFE169" cx="52.204" cy="89.182" rx="1.517" ry="1.523"/>
		<ellipse id="circle4297" fill="#87E1AA" cx="78.686" cy="89.182" rx="1.517" ry="1.523"/>
		<g id="g4299">
			<path id="path4301" inkscape:connector-curvature="0" fill="#E4EAF6" d="M113.997,98.009h8.828c4.875,0,8.828-3.953,8.828-8.828
				s-3.953-8.828-8.828-8.828h-8.828c-4.875,0-8.828,3.953-8.828,8.828C105.169,94.057,109.122,98.009,113.997,98.009z"/>
			<path id="path4303" inkscape:connector-curvature="0" fill="#E4EAF6" d="M149.307,98.009h8.828c4.875,0,8.828-3.953,8.828-8.828
				s-3.953-8.828-8.828-8.828h-8.828c-4.875,0-8.828,3.953-8.828,8.828C140.479,94.057,144.432,98.009,149.307,98.009z"/>
			<path id="path4305" inkscape:connector-curvature="0" fill="#E4EAF6" d="M440.617,98.009h8.828c4.875,0,8.828-3.953,8.828-8.828
				s-3.953-8.828-8.828-8.828h-8.828c-4.875,0-8.828,3.953-8.828,8.828C431.79,94.057,435.742,98.009,440.617,98.009z"/>
			<path id="path4307" inkscape:connector-curvature="0" fill="#E4EAF6" d="M484.755,80.354h-8.828
				c-4.875,0-8.828,3.953-8.828,8.828s3.953,8.828,8.828,8.828h8.828c4.875,0,8.828-3.953,8.828-8.828S489.63,80.354,484.755,80.354
				z"/>
			<path id="path4309" inkscape:connector-curvature="0" fill="#E4EAF6" d="M193.445,98.009h211.862
				c4.875,0,8.828-3.953,8.828-8.828s-3.953-8.828-8.828-8.828H193.445c-4.875,0-8.828,3.953-8.828,8.828
				C184.617,94.057,188.57,98.009,193.445,98.009z"/>
		</g>
		<path id="path4311" inkscape:connector-curvature="0" fill="#FF6469" d="M484.755,115.665H255.238v52.966h238.345v-44.138
			C493.583,119.617,489.63,115.665,484.755,115.665z M317.031,150.975h-35.31c-4.875,0-8.828-3.953-8.828-8.828
			c0-4.875,3.953-8.828,8.828-8.828h35.31c4.875,0,8.828,3.953,8.828,8.828C325.859,147.022,321.906,150.975,317.031,150.975z
			 M387.652,150.975h-35.31c-4.875,0-8.828-3.953-8.828-8.828c0-4.875,3.953-8.828,8.828-8.828h35.31
			c4.875,0,8.828,3.953,8.828,8.828C396.48,147.022,392.527,150.975,387.652,150.975z M458.272,150.975h-35.31
			c-4.875,0-8.828-3.953-8.828-8.828c0-4.875,3.953-8.828,8.828-8.828h35.31c4.875,0,8.828,3.953,8.828,8.828
			C467.1,147.022,463.148,150.975,458.272,150.975z"/>
		<g id="g4313">
			<path id="path4315" inkscape:connector-curvature="0" fill="#D2555F" d="M317.031,133.32h-35.31
				c-4.875,0-8.828,3.953-8.828,8.828c0,4.875,3.953,8.828,8.828,8.828h35.31c4.875,0,8.828-3.953,8.828-8.828
				C325.859,137.273,321.906,133.32,317.031,133.32z"/>
			<path id="path4317" inkscape:connector-curvature="0" fill="#D2555F" d="M387.652,133.32h-35.31
				c-4.875,0-8.828,3.953-8.828,8.828c0,4.875,3.953,8.828,8.828,8.828h35.31c4.875,0,8.828-3.953,8.828-8.828
				C396.48,137.273,392.527,133.32,387.652,133.32z"/>
			<path id="path4319" inkscape:connector-curvature="0" fill="#D2555F" d="M458.272,133.32h-35.31
				c-4.875,0-8.828,3.953-8.828,8.828c0,4.875,3.953,8.828,8.828,8.828h35.31c4.875,0,8.828-3.953,8.828-8.828
				C467.1,137.273,463.148,133.32,458.272,133.32z"/>
		</g>
		<g id="g4321">
			<path id="path4323" inkscape:connector-curvature="0" fill="#DEE3ED" d="M290.548,292.216h61.793
				c4.875,0,8.828-3.953,8.828-8.828v-70.621c0,4.875-3.953,8.828-8.828,8.828h-61.793c-4.875,0-8.828-3.953-8.828-8.828v70.621
				C281.721,288.264,285.673,292.216,290.548,292.216z"/>
			<path id="path4325" inkscape:connector-curvature="0" fill="#DEE3ED" d="M396.479,292.216h61.793
				c4.875,0,8.828-3.953,8.828-8.828v-70.621c0,4.875-3.953,8.828-8.828,8.828h-61.793c-4.875,0-8.828-3.953-8.828-8.828v70.621
				C387.652,288.264,391.604,292.216,396.479,292.216z"/>
		</g>
		<path id="path4327" inkscape:connector-curvature="0" fill="#FF969B" d="M290.548,221.596h61.793c4.875,0,8.828-3.953,8.828-8.828
			v-8.828c0-4.875-3.953-8.828-8.828-8.828h-61.793c-4.875,0-8.828,3.953-8.828,8.828v8.828
			C281.721,217.643,285.673,221.596,290.548,221.596z"/>
		<path id="path4329" inkscape:connector-curvature="0" fill="#A0DCF0" d="M396.479,221.596h61.793c4.875,0,8.828-3.953,8.828-8.828
			v-8.828c0-4.875-3.953-8.828-8.828-8.828h-61.793c-4.875,0-8.828,3.953-8.828,8.828v8.828
			C387.652,217.643,391.604,221.596,396.479,221.596z"/>
		<path id="path4331" inkscape:connector-curvature="0" fill="#DEE3ED" d="M308.204,327.527v70.621c0,4.875-3.953,8.828-8.828,8.828
			h158.897c4.875,0,8.828-3.953,8.828-8.828v-70.621c0-4.875-3.953-8.828-8.828-8.828H299.376
			C304.251,318.699,308.204,322.652,308.204,327.527z"/>
		<path id="path4333" inkscape:connector-curvature="0" fill="#91E6BE" d="M290.548,406.976h8.828c4.875,0,8.828-3.953,8.828-8.828
			v-70.621c0-4.875-3.953-8.828-8.828-8.828h-8.828c-4.875,0-8.828,3.953-8.828,8.828v70.621
			C281.721,403.023,285.673,406.976,290.548,406.976z"/>
		<g id="g4335">
			<path id="path4337" inkscape:connector-curvature="0" fill="#464655" d="M202.272,304.507c0,29.252,23.713,52.966,52.966,52.966
				V251.541C225.986,251.541,202.272,275.254,202.272,304.507z"/>
			<path id="path4339" inkscape:connector-curvature="0" fill="#464655" d="M231.512,398.569l-6.305,10.921
				c-2.438,4.222-7.837,5.668-12.058,3.231l-30.58-17.655c-4.222-2.438-5.668-7.837-3.231-12.06l6.285-10.885
				c-11.05-11.375-19.293-25.443-23.736-41.13h-12.579c-4.875,0-8.828-3.953-8.828-8.828v-35.31c0-4.875,3.953-8.828,8.828-8.828
				h12.578c4.442-15.688,12.686-29.754,23.735-41.129l-6.283-10.882c-2.438-4.223-0.991-9.622,3.231-12.06l30.58-17.655
				c4.222-2.438,9.621-0.991,12.058,3.231l6.303,10.919c7.608-1.914,15.528-3.043,23.729-3.043v-38.774v-52.966H25.721h-7.724
				c-0.609,0-1.103,0.494-1.103,1.103v7.724v44.138v256.001v7.724c0,0.609,0.494,1.103,1.103,1.103h7.724h229.517V401.61
				C247.037,401.611,239.118,400.483,231.512,398.569z M129.478,240.74c-4.63,3.064-9.852,5.306-15.481,6.449v9.717
				c0,4.876-3.953,8.829-8.829,8.828c-4.875,0-8.828-3.953-8.828-8.828v-9.718c-5.632-1.142-10.856-3.384-15.486-6.451l-6.897,6.897
				c-3.447,3.448-9.036,3.448-12.484,0c-3.447-3.447-3.447-9.036,0-12.483l6.897-6.898c-3.065-4.629-5.308-9.854-6.451-15.485
				h-9.716c-4.875,0-8.828-3.953-8.828-8.828s3.953-8.828,8.828-8.828h9.717c1.143-5.632,3.384-10.854,6.45-15.482l-6.901-6.901
				c-3.447-3.448-3.447-9.037,0-12.484l0,0c3.448-3.448,9.036-3.447,12.483,0l6.9,6.9c4.631-3.065,9.855-5.309,15.488-6.452v-9.717
				c0-4.876,3.953-8.829,8.829-8.828c4.875,0,8.828,3.953,8.828,8.828v9.717c5.632,1.143,10.855,3.385,15.485,6.451l6.897-6.897
				c3.447-3.448,9.036-3.448,12.484,0c3.447,3.447,3.447,9.036,0,12.483l-6.897,6.898c3.065,4.629,5.308,9.854,6.451,15.485h9.718
				c4.875,0,8.828,3.953,8.828,8.828s-3.953,8.828-8.828,8.828h-9.717c-1.144,5.633-3.385,10.858-6.453,15.489l6.894,6.894
				c3.447,3.448,3.447,9.037,0,12.484l0,0c-3.447,3.448-9.036,3.447-12.483,0L129.478,240.74z"/>
			<ellipse id="circle4341" fill="#464655" cx="105.169" cy="203.94" rx="3.034" ry="3.045"/>
		</g>
		<path id="path4343" inkscape:connector-curvature="0" fill="#707384" d="M225.205,199.528c-2.438-4.222-7.837-5.668-12.058-3.231
			l-30.58,17.655c-4.222,2.438-5.668,7.837-3.231,12.06l6.283,10.882c-11.049,11.375-19.292,25.442-23.735,41.129h-12.577
			c-4.875,0-8.828,3.953-8.828,8.828v35.31c0,4.875,3.953,8.828,8.828,8.828h12.578c4.444,15.688,12.687,29.756,23.736,41.13
			l-6.285,10.885c-2.438,4.223-0.991,9.622,3.231,12.06l30.58,17.655c4.222,2.438,9.621,0.991,12.058-3.231l6.305-10.921
			c7.607,1.914,15.526,3.042,23.726,3.042v-26.483c-39.002,0-70.621-31.618-70.621-70.621s31.618-70.621,70.621-70.621v-26.483
			c-8.202,0-16.121,1.128-23.729,3.043C231.507,210.444,225.205,199.528,225.205,199.528z"/>
		<path id="path4345" inkscape:connector-curvature="0" fill="#9097AA" d="M184.617,304.507c0,39.003,31.618,70.621,70.621,70.621
			v-17.655c-29.252,0-52.966-23.713-52.966-52.966c0-29.252,23.713-52.966,52.966-52.966v-17.655
			C216.236,233.886,184.617,265.504,184.617,304.507z"/>
		<path id="path4347" inkscape:connector-curvature="0" fill="#707384" d="M148.858,247.637L148.858,247.637
			c3.448-3.447,3.448-9.036,0.001-12.484l-6.894-6.894c3.066-4.631,5.309-9.856,6.453-15.489h9.717c4.875,0,8.828-3.953,8.828-8.828
			s-3.953-8.828-8.828-8.828h-9.717c-1.143-5.632-3.385-10.856-6.451-15.485l6.897-6.898c3.447-3.447,3.447-9.036,0-12.483
			c-3.448-3.448-9.037-3.448-12.484,0l-6.897,6.897c-4.63-3.064-9.854-5.308-15.485-6.451v-9.717c0-4.875-3.953-8.828-8.828-8.828
			c-4.876-0.001-8.829,3.951-8.829,8.828v9.717c-5.633,1.143-10.857,3.385-15.488,6.452l-6.9-6.9c-3.447-3.447-9.036-3.448-12.483,0
			l0,0c-3.448,3.447-3.448,9.036,0,12.484l6.901,6.901c-3.064,4.629-5.306,9.852-6.45,15.482h-9.718
			c-4.875,0-8.828,3.953-8.828,8.828s3.953,8.828,8.828,8.828h9.717c1.143,5.632,3.385,10.856,6.451,15.485l-6.897,6.898
			c-3.447,3.447-3.447,9.036,0,12.483c3.448,3.448,9.037,3.448,12.484,0l6.897-6.897c4.63,3.065,9.854,5.309,15.486,6.451v9.717
			c0,4.875,3.953,8.828,8.828,8.828c4.876,0.001,8.829-3.951,8.829-8.828v-9.718c5.63-1.142,10.851-3.383,15.481-6.449l6.897,6.897
			C139.822,251.084,145.411,251.085,148.858,247.637z M105.169,230.423c-14.626,0-26.483-11.857-26.483-26.483
			s11.857-26.483,26.483-26.483s26.483,11.857,26.483,26.483C131.652,218.567,119.795,230.423,105.169,230.423z"/>
		<path id="path4349" inkscape:connector-curvature="0" fill="#9097AA" d="M105.169,177.458c-14.626,0-26.483,11.857-26.483,26.483
			s11.857,26.483,26.483,26.483s26.483-11.857,26.483-26.483C131.652,189.314,119.795,177.458,105.169,177.458z M105.169,221.596
			c-9.75,0-17.655-7.905-17.655-17.655c0-9.751,7.905-17.655,17.655-17.655s17.655,7.904,17.655,17.655
			C122.824,213.691,114.919,221.596,105.169,221.596z"/>
		<g id="g4351">
		</g>
		<g id="g4353">
		</g>
		<g id="g4355">
		</g>
		<g id="g4357">
		</g>
		<g id="g4359">
		</g>
		<g id="g4361">
		</g>
		<g id="g4363">
		</g>
		<g id="g4365">
		</g>
		<g id="g4367">
		</g>
		<g id="g4369">
		</g>
		<g id="g4371">
		</g>
		<g id="g4373">
		</g>
		<g id="g4375">
		</g>
		<g id="g4377">
		</g>
		<g id="g4379">
		</g>
	</g>
</g>
</svg>
