<svg xmlns="http://www.w3.org/2000/svg" width="171" height="171" viewBox="0 0 171 171"><path fill="#03142E" d="M85.744.663c46.9 0 85 38.1 85 85s-38.1 85-85 85-85-38.1-85-85 38.1-85 85-85z"/><path opacity=".2" fill="none" stroke="#FFF" enable-background="new" d="M85.744 1.163c46.624 0 84.5 37.876 84.5 84.5s-37.876 84.5-84.5 84.5-84.5-37.876-84.5-84.5 37.876-84.5 84.5-84.5z"/><g transform="translate(.25 -.25)"><circle fill="#177898" cx="85.494" cy="85.913" r="74"/><path fill="#0F7289" d="M85.509 11.913l-.021.002v147.998h.021c40.86 0 73.984-33.131 73.984-74s-33.123-74-73.984-74z"/></g><defs><filter id="a" filterUnits="userSpaceOnUse" x="41.238" y="52.166" width="121.567" height="114.043"><feColorMatrix values="1 0 0 0 0 0 1 0 0 0 0 0 1 0 0 0 0 0 1 0"/></filter></defs><mask maskUnits="userSpaceOnUse" x="41.238" y="52.166" width="121.567" height="114.043" id="b"><g transform="translate(.25 -.25)" filter="url(#a)"><circle fill="#177898" cx="85.494" cy="85.913" r="74"/><path fill="#0F7289" d="M85.509 11.913l-.021.002v147.998h.021c40.86 0 73.984-33.131 73.984-74s-33.123-74-73.984-74z"/></g></mask><path mask="url(#b)" fill="#0F4E5D" d="M41.238 114.679l51.53 51.53 39.985-16.009 21.39-26.163 6.187-16.44 2.121-9.723.354-8.309-36.991-37.399-84.576 62.513z"/><g transform="matrix(.17383 0 0 .1725 41.25 41.09)"><path fill="#D2DCF0" d="M485.482 64.187H26.447C11.821 64.187-.036 76.044-.036 90.67v335.449c0 14.626 11.857 26.483 26.483 26.483h459.034c14.626 0 26.483-11.857 26.483-26.483V90.67c.001-14.626-11.856-26.483-26.482-26.483zm-44.138 17.655h8.828a8.829 8.829 0 0 1 0 17.656h-8.828a8.829 8.829 0 0 1 0-17.656zm-247.172 0h211.862a8.829 8.829 0 0 1 0 17.656H194.172a8.829 8.829 0 0 1 0-17.656zm-44.138 0h8.828a8.829 8.829 0 0 1 0 17.656h-8.828a8.829 8.829 0 0 1 0-17.656zm-35.31 0h8.828a8.829 8.829 0 0 1 0 17.656h-8.828a8.829 8.829 0 0 1 0-17.656zm-35.311 0a8.829 8.829 0 1 1-.001 17.657 8.829 8.829 0 0 1 .001-17.657zm-26.482 0a8.829 8.829 0 1 1-.001 17.657 8.829 8.829 0 0 1 .001-17.657zm-26.484 0a8.829 8.829 0 1 1-.001 17.657 8.829 8.829 0 0 1 .001-17.657zM494.31 426.119a8.829 8.829 0 0 1-8.828 8.828H26.447a8.829 8.829 0 0 1-8.828-8.828V125.98a8.829 8.829 0 0 1 8.828-8.828h459.034a8.829 8.829 0 0 1 8.828 8.828v300.139zm-8.828-326.622h-8.828a8.829 8.829 0 0 1 0-17.656h8.828a8.829 8.829 0 0 1 0 17.656z"/><path fill="#FFF" d="M485.482 117.153H26.447a8.829 8.829 0 0 0-8.828 8.828V426.12a8.829 8.829 0 0 0 8.828 8.828h459.034a8.829 8.829 0 0 0 8.828-8.828V125.98a8.826 8.826 0 0 0-8.827-8.827zm-203.034 26.482h123.586a8.829 8.829 0 0 1 0 17.656H282.448a8.829 8.829 0 0 1 0-17.656zm-8.828 44.138a8.829 8.829 0 0 1 8.828-8.828H459a8.829 8.829 0 0 1 0 17.656H282.448a8.829 8.829 0 0 1-8.828-8.828zm194.207 35.311a8.829 8.829 0 0 1-8.828 8.828h-17.655a8.829 8.829 0 0 1 0-17.656h17.655a8.828 8.828 0 0 1 8.828 8.828zm-52.965 0a8.829 8.829 0 0 1-8.828 8.828h-17.655a8.829 8.829 0 0 1 0-17.656h17.655a8.829 8.829 0 0 1 8.828 8.828zm-52.966 0a8.829 8.829 0 0 1-8.828 8.828h-17.655a8.829 8.829 0 0 1 0-17.656h17.655a8.829 8.829 0 0 1 8.828 8.828zm-52.965 0a8.829 8.829 0 0 1-8.828 8.828h-17.655a8.829 8.829 0 0 1 0-17.656h17.655a8.829 8.829 0 0 1 8.828 8.828zm-26.483 26.482h150.069a8.829 8.829 0 0 1 0 17.656H282.448a8.829 8.829 0 0 1 0-17.656zM61.758 408.464a8.829 8.829 0 0 1 0-17.656 8.829 8.829 0 0 1 0 17.656zm8.828-44.138a8.829 8.829 0 0 1-17.656 0V205.428a8.829 8.829 0 0 1 17.656 0v158.898zm26.482 44.138a8.829 8.829 0 0 1 0-17.656 8.829 8.829 0 0 1 0 17.656zm8.828-44.138a8.829 8.829 0 0 1-17.656 0V152.463a8.829 8.829 0 0 1 17.656 0v211.863zm26.483 44.138a8.829 8.829 0 0 1 0-17.656 8.829 8.829 0 0 1 0 17.656zm8.827-44.138a8.829 8.829 0 0 1-17.656 0v-114.76a8.829 8.829 0 0 1 17.656 0v114.76zm26.483 44.138a8.829 8.829 0 1 1 .001-17.657 8.829 8.829 0 0 1-.001 17.657zm8.828-44.138a8.829 8.829 0 0 1-17.656 0V187.773a8.829 8.829 0 0 1 17.656 0v176.553zm26.482 44.138a8.829 8.829 0 1 1 .001-17.657 8.829 8.829 0 0 1-.001 17.657zm8.828-44.138a8.829 8.829 0 0 1-17.656 0V311.36a8.829 8.829 0 0 1 17.656 0v52.966zm26.483 44.138a8.829 8.829 0 1 1 .001-17.657 8.829 8.829 0 0 1-.001 17.657zm8.827-44.138a8.829 8.829 0 0 1-17.656 0V276.05a8.829 8.829 0 0 1 17.656 0v88.276zm185.38 44.138H282.448a8.829 8.829 0 0 1 0-17.656h150.069a8.829 8.829 0 0 1 0 17.656zm35.31-35.31H282.448a8.829 8.829 0 0 1 0-17.656h185.379a8.829 8.829 0 0 1 0 17.656zM273.62 329.015a8.829 8.829 0 0 1 8.828-8.828h167.724a8.829 8.829 0 0 1 0 17.656H282.448a8.83 8.83 0 0 1-8.828-8.828zm194.207-26.483H282.448a8.829 8.829 0 0 1 0-17.656h185.379a8.829 8.829 0 0 1 0 17.656z"/><ellipse fill="#FF6469" cx="26.448" cy="90.67" rx="1.535" ry="1.523"/><ellipse fill="#FFE169" cx="52.931" cy="90.67" rx="1.535" ry="1.523"/><ellipse fill="#87E1AA" cx="79.412" cy="90.67" rx="1.535" ry="1.523"/><path d="M114.724 99.497h8.828a8.829 8.829 0 0 0 0-17.656h-8.828a8.829 8.829 0 0 0 0 17.656zm35.31 0h8.828a8.829 8.829 0 0 0 0-17.656h-8.828a8.829 8.829 0 0 0 0 17.656zm291.31 0h8.828a8.829 8.829 0 0 0 0-17.656h-8.828a8.829 8.829 0 0 0 0 17.656zm44.138-17.655h-8.828a8.829 8.829 0 0 0 0 17.656h8.828a8.829 8.829 0 0 0 0-17.656zm-291.31 17.655h211.862a8.829 8.829 0 0 0 0-17.656H194.172a8.829 8.829 0 0 0 0 17.656z" fill="#E4EAF6"/><path fill="#FFE169" d="M61.758 196.601a8.829 8.829 0 0 0-8.828 8.828v158.897a8.829 8.829 0 0 0 17.656 0V205.428a8.828 8.828 0 0 0-8.828-8.827z"/><path fill="#D2DCF0" d="M61.758 390.809a8.829 8.829 0 0 0 0 17.656 8.829 8.829 0 0 0 0-17.656z"/><path fill="#FF6469" d="M97.068 143.635a8.829 8.829 0 0 0-8.828 8.828v211.862a8.829 8.829 0 0 0 17.656 0V152.463a8.829 8.829 0 0 0-8.828-8.828z"/><path fill="#D2DCF0" d="M97.068 390.809a8.829 8.829 0 0 0 0 17.656 8.829 8.829 0 0 0 0-17.656z"/><path fill="#B4E173" d="M132.379 240.739a8.829 8.829 0 0 0-8.828 8.828v114.759a8.829 8.829 0 0 0 17.656 0v-114.76a8.829 8.829 0 0 0-8.828-8.827z"/><path fill="#D2DCF0" d="M132.379 390.809a8.829 8.829 0 0 0 0 17.656 8.829 8.829 0 0 0 0-17.656z"/><path fill="#A0DCF0" d="M167.689 178.946a8.829 8.829 0 0 0-8.828 8.828v176.552a8.829 8.829 0 0 0 17.656 0V187.773a8.828 8.828 0 0 0-8.828-8.827z"/><ellipse fill="#D2DCF0" cx="167.689" cy="399.636" rx="1.535" ry="1.523"/><path fill="#C3B4FA" d="M202.999 302.532a8.829 8.829 0 0 0-8.828 8.828v52.966a8.829 8.829 0 0 0 17.656 0V311.36a8.827 8.827 0 0 0-8.828-8.828z"/><ellipse fill="#D2DCF0" cx="202.999" cy="399.636" rx="1.535" ry="1.523"/><path fill="#FFAFD7" d="M238.31 267.222a8.829 8.829 0 0 0-8.828 8.828v88.276a8.829 8.829 0 0 0 17.656 0V276.05a8.829 8.829 0 0 0-8.828-8.828z"/><ellipse fill="#D2DCF0" cx="238.31" cy="399.636" rx="1.535" ry="1.523"/><path d="M282.448 161.291h123.586a8.829 8.829 0 0 0 0-17.656H282.448a8.829 8.829 0 0 0 0 17.656zm0 35.31H459a8.829 8.829 0 0 0 0-17.656H282.448a8.829 8.829 0 0 0 0 17.656z" fill="#FF6469"/><path d="M282.448 214.256a8.829 8.829 0 0 0 0 17.656h17.655a8.829 8.829 0 0 0 0-17.656h-17.655zm52.965 0a8.829 8.829 0 0 0 0 17.656h17.655a8.829 8.829 0 0 0 0-17.656h-17.655zm52.966 0a8.829 8.829 0 0 0 0 17.656h17.655a8.829 8.829 0 0 0 0-17.656h-17.655zm70.62 0h-17.655a8.829 8.829 0 0 0 0 17.656h17.655a8.829 8.829 0 0 0 0-17.656z" fill="#D2DCF0"/><path d="M282.448 267.222h150.069a8.829 8.829 0 0 0 0-17.656H282.448a8.829 8.829 0 0 0 0 17.656zm185.379 17.655H282.448a8.829 8.829 0 0 0 0 17.656h185.379a8.829 8.829 0 0 0 0-17.656zm-185.379 52.965h167.724a8.829 8.829 0 0 0 0-17.656H282.448a8.829 8.829 0 0 0 0 17.656zm185.379 17.655H282.448a8.829 8.829 0 0 0 0 17.656h185.379a8.829 8.829 0 0 0 0-17.656zm-35.31 35.312H282.448a8.829 8.829 0 0 0 0 17.656h150.069a8.829 8.829 0 0 0 0-17.656z" fill="#AFBBD0"/></g></svg>