<?xml version="1.0" encoding="utf-8"?>
<!-- Generator: Adobe Illustrator 17.0.0, SVG Export Plug-In . SVG Version: 6.00 Build 0)  -->
<!DOCTYPE svg PUBLIC "-//W3C//DTD SVG 1.1//EN" "http://www.w3.org/Graphics/SVG/1.1/DTD/svg11.dtd">
<svg version="1.1"
	 id="Слой_1" xmlns:dc="http://purl.org/dc/elements/1.1/" xmlns:cc="http://creativecommons.org/ns#" xmlns:rdf="http://www.w3.org/1999/02/22-rdf-syntax-ns#" xmlns:svg="http://www.w3.org/2000/svg" xmlns:sodipodi="http://sodipodi.sourceforge.net/DTD/sodipodi-0.dtd" xmlns:inkscape="http://www.inkscape.org/namespaces/inkscape" sodipodi:docname="4. Р Р°Р·СЂР°Р±РѕС‚РєР° РёРЅРґРёРІРёРґСѓР°Р»СЊРЅРѕРіРѕ  СЂРµС€РµРЅРёСЏ.svg" inkscape:version="0.91 r13725"
	 xmlns="http://www.w3.org/2000/svg" xmlns:xlink="http://www.w3.org/1999/xlink" x="0px" y="0px" width="171px" height="171px"
	 viewBox="0 0 171 171" enable-background="new 0 0 171 171" xml:space="preserve">
<sodipodi:namedview  showguides="true" inkscape:cy="-20.244945" inkscape:cx="212.17367" inkscape:zoom="1" showgrid="false" guidetolerance="10" gridtolerance="10" objecttolerance="10" borderopacity="1" bordercolor="#666666" pagecolor="#ffffff" id="namedview61" inkscape:guide-bbox="true" inkscape:current-layer="Слой_1" inkscape:window-maximized="1" inkscape:window-y="-8" inkscape:window-x="-8" inkscape:window-height="801" inkscape:window-width="1536" inkscape:pageshadow="2" inkscape:pageopacity="0">
	<inkscape:grid  type="xygrid" id="grid4289"></inkscape:grid>
</sodipodi:namedview>
<g id="g4384">
	<g id="g4274">
		<path id="path4272" inkscape:connector-curvature="0" fill="#03142E" d="M85.5,0.5c46.9,0,85,38.1,85,85s-38.1,85-85,85
			s-85-38.1-85-85S38.6,0.5,85.5,0.5z"/>
		
			<path id="path4271" inkscape:connector-curvature="0" opacity="0.2" fill="none" stroke="#FFFFFF" enable-background="new    " d="
			M85.5,1C132.124,1,170,38.876,170,85.5S132.124,170,85.5,170S1,132.124,1,85.5S38.876,1,85.5,1z"/>
	</g>
	<g id="g4232" transform="translate(0.25,-0.25)">
		<circle id="path4230" fill="#177898" cx="85.25" cy="85.75" r="74"/>
		<path id="path4278" inkscape:connector-curvature="0" fill="#0F7289" d="M85.265,11.75c-0.007,0.001-0.014,0.001-0.021,0.002
			V159.75c0.007,0,0.014,0,0.021,0c40.86,0,73.984-33.131,73.984-74S126.126,11.75,85.265,11.75
			C85.265,11.75,85.265,11.75,85.265,11.75z"/>
	</g>
	<defs>
		<filter id="Adobe_OpacityMaskFilter" filterUnits="userSpaceOnUse" x="36.475" y="51.721" width="127.906" height="115.563">
			<feColorMatrix  type="matrix" values="1 0 0 0 0  0 1 0 0 0  0 0 1 0 0  0 0 0 1 0"/>
		</filter>
	</defs>
	<mask maskUnits="userSpaceOnUse" x="36.475" y="51.721" width="127.906" height="115.563" id="mask4376">
		<g id="g4378" transform="translate(0.25,-0.25)" filter="url(#Adobe_OpacityMaskFilter)">
			<circle id="circle4380" fill="#177898" cx="85.25" cy="85.75" r="74"/>
			<path id="path4382" inkscape:connector-curvature="0" fill="#0F7289" d="M85.265,11.75c-0.007,0.001-0.014,0.001-0.021,0.002
				V159.75c0.007,0,0.014,0,0.021,0c40.86,0,73.984-33.131,73.984-74S126.126,11.75,85.265,11.75
				C85.265,11.75,85.265,11.75,85.265,11.75z"/>
		</g>
	</mask>
	<path id="path4368" sodipodi:nodetypes="cccccccccc" inkscape:connector-curvature="0" mask="url(#mask4376)" fill="#0F4E5D" d="
		M36.475,116.315l50.906,50.969l23.5-7l24.5-13.25l23.5-30l4-14.75l0.5-10.5l1-5.5l-33.219-34.563L36.475,116.315z"/>
	<g id="g4333" transform="matrix(0.19140625,0,0,0.19140588,36.369003,36.466001)">
		<path id="path4261" inkscape:connector-curvature="0" fill="#464655" d="M495.03,79.626h-65.758
			c-0.375,0.46-0.778,0.906-1.207,1.335l-25.128,25.128l-0.019,0.02h83.284V353.28H27.167V106.109h225.303l26.483-26.483H18.339
			c-9.751,0-17.655,7.904-17.655,17.655v282.483h512.001V97.281C512.685,87.53,504.78,79.626,495.03,79.626z"/>
		<path id="path4263" inkscape:connector-curvature="0" fill="#FFFFFF" d="M169.633,297.419l-39.194,16.798
			c-1.286,0.551-2.574,0.755-3.8,0.678c-3.849-0.244-7.055-3.27-7.633-7.034c-0.22-1.43-0.077-2.962,0.579-4.495l11.39-26.577l0,0
			l36.888-86.072l84.608-84.608H27.167v247.172h459.035V106.109h-83.284l-159.83,159.83
			C243.088,265.939,169.633,297.419,169.633,297.419z"/>
		<path id="path4265" inkscape:connector-curvature="0" fill="#BEC8DC" d="M0.684,415.074c0,9.751,7.904,17.655,17.655,17.655
			h167.724h141.241h167.724c9.75,0,17.655-7.904,17.655-17.655v-35.31h-512V415.074z M256.685,393.005
			c7.313,0,13.241,5.929,13.241,13.241s-5.928,13.241-13.241,13.241c-7.313,0-13.241-5.929-13.241-13.241
			S249.372,393.005,256.685,393.005z"/>
		<polygon id="polygon4267" fill="#AFBBD0" points="183.857,450.384 178.34,494.522 335.03,494.522 329.513,450.384 		"/>
		<path id="path4269" inkscape:connector-curvature="0" fill="#BEC8DC" d="M177.237,494.522c-4.875,0-8.828,3.953-8.828,8.828
			s3.953,8.828,8.828,8.828h158.897c4.875,0,8.828-3.953,8.828-8.828s-3.953-8.828-8.828-8.828h-1.103h-156.69
			C178.341,494.522,177.237,494.522,177.237,494.522z"/>
		<g id="g4271">
			<polygon id="polygon4273" fill="#96A5B9" points="186.064,432.729 183.857,450.384 329.513,450.384 327.306,432.729 			"/>
			<circle id="circle4275" fill="#96A5B9" cx="256.685" cy="406.246" r="13.241"/>
		</g>
		<polygon id="polygon4277" fill="#D75055" points="167.864,190.715 205.476,228.327 365.326,68.478 346.52,49.672 327.714,30.866 
			278.954,79.626 252.471,106.109 		"/>
		<polygon id="polygon4279" fill="#FF6469" points="365.326,68.478 205.476,228.327 243.088,265.938 402.918,106.109 
			402.938,106.089 365.326,68.477 		"/>
		<g id="g4281">
			<path id="polygon4283" fill="#FFF0BE" d="M327.714,30.866l18.806,18.806L327.714,30.866z"/>
			<path id="path4285" inkscape:connector-curvature="0" fill="#FFF0BE" d="M402.938,106.089l25.128-25.128
				c0.429-0.429,0.831-0.875,1.207-1.335c5.661-6.934,5.259-17.167-1.207-23.633l-25.128-25.128l-37.612,37.613L402.938,106.089z"/>
			<path id="path4287" inkscape:connector-curvature="0" fill="#FFF0BE" d="M119.006,307.859c0.577,3.765,3.784,6.792,7.633,7.034
				C122.789,314.651,119.583,311.625,119.006,307.859z"/>
			<polygon id="polygon4289" fill="#FFF0BE" points="243.088,265.938 205.476,228.327 158.462,275.342 177.268,294.148 
				169.633,297.419 			"/>
		</g>
		<polygon id="polygon4291" fill="#FFDC9B" points="139.655,256.536 158.462,275.342 205.476,228.327 167.864,190.715 
			130.976,276.787 130.976,276.788 		"/>
		<path id="path4293" inkscape:connector-curvature="0" fill="#D75055" d="M158.462,275.342l-18.806-18.806l-8.68,20.253
			l-11.39,26.577c-0.658,1.534-0.799,3.065-0.579,4.495c0.577,3.765,3.784,6.792,7.633,7.034c1.226,0.077,2.514-0.127,3.8-0.678
			l39.194-16.798l7.634-3.272C177.268,294.147,158.462,275.342,158.462,275.342z"/>
		<path id="path4295" inkscape:connector-curvature="0" fill="#FFDC9B" d="M365.326,68.478L365.326,68.478l37.612-37.612l0,0
			L377.147,5.074c-6.529-6.528-17.113-6.528-23.642,0l-25.791,25.792l0,0l18.806,18.806L365.326,68.478z"/>
		<g id="g4297">
		</g>
		<g id="g4299">
		</g>
		<g id="g4301">
		</g>
		<g id="g4303">
		</g>
		<g id="g4305">
		</g>
		<g id="g4307">
		</g>
		<g id="g4309">
		</g>
		<g id="g4311">
		</g>
		<g id="g4313">
		</g>
		<g id="g4315">
		</g>
		<g id="g4317">
		</g>
		<g id="g4319">
		</g>
		<g id="g4321">
		</g>
		<g id="g4323">
		</g>
		<g id="g4325">
		</g>
	</g>
</g>
</svg>
