<svg xmlns="http://www.w3.org/2000/svg" width="171" height="171" viewBox="0 0 171 171"><defs><mask maskUnits="userSpaceOnUse" id="a"><circle cx="85.25" cy="85.75" r="74" fill="#d45b3e"/><path d="M85.265 11.75l-.021.002V159.75h.021c40.86 0 73.984-33.131 73.984-74s-33.123-74-73.984-74z" fill="#c45237"/></mask></defs><path d="M85.5.5c46.9 0 85 38.1 85 85s-38.1 85-85 85-85-38.1-85-85 38.1-85 85-85z" fill="#0b2848"/><circle cx="85.25" cy="85.75" r="74" fill="#d45b3e"/><path d="M85.265 11.75l-.021.002V159.75h.021c40.86 0 73.984-33.131 73.984-74s-33.123-74-73.984-74z" fill="#c45237"/><path d="M85.5 1C132.124 1 170 38.876 170 85.5S132.124 170 85.5 170 1 132.124 1 85.5 38.876 1 85.5 1z" opacity=".2" fill="none" stroke="#fff"/><path mask="url(#a)" d="M42.785 77.911L53.563 88.8l-6.364 16.44-.618 4.95-1.97 2.168 53.323 53.34 21.567-9.016L145.75 137.5l11.5-15.75 4.25-14 1.25-3.5-65.331-61.449z" fill="#b14731" fill-rule="evenodd"/><g transform="matrix(.1892 0 0 .18935 42.285 42.75)"><path d="M308.568 16.225v169.831c0 7.511-5.104 13.836-12.042 15.676a16.164 16.164 0 0 1-4.18.546H18.68c-8.961 0-16.223-7.262-16.223-16.223V16.225C2.457 7.264 9.719.002 18.68.002h273.666c1.443 0 2.845.189 4.18.546 6.938 1.841 12.042 8.165 12.042 15.677z" fill="#e6e6e6"/><path d="M308.566 16.223v16.142H2.456V16.223C2.456 7.262 9.718 0 18.678 0h273.666c8.961 0 16.222 7.262 16.222 16.223z" fill="#b3b3b3"/><circle cx="24.706" cy="16.182" r="10.114" fill="#fc7a51"/><circle cx="51.676" cy="16.182" r="10.114" fill="#f9de58"/></g><path d="M48.467 54.455h44.46v2.083h-44.46zm0 4.562h44.46v2.082h-44.46zm0 4.561h44.46v2.083h-44.46zm0 4.562h44.46v2.083h-44.46zm0 4.562h44.46v2.082h-44.46z" fill="gray"/><path d="M100.475 84.824l-7.744 7.148a9.103 9.103 0 0 1-12.352 0l-7.742-7.148a9.332 9.332 0 0 1-2.974-7.553l.45-9.278c.048-.623.127-1.237.243-1.837a16.428 16.428 0 0 1 3.59-7.557 16.423 16.423 0 0 1 2.678-2.54 16.41 16.41 0 0 1 9.932-3.33 16.43 16.43 0 0 1 9.933 3.33 16.475 16.475 0 0 1 6.51 11.934l.448 9.278a9.33 9.33 0 0 1-2.972 7.553z" fill="#fcd18b"/><path d="M92.2 82.455a5.647 5.647 0 0 1-5.644 5.648 5.644 5.644 0 0 1-5.644-5.648H92.2z" fill="#fff"/><path d="M107.65 66.404h-2.46c0-10.284-8.36-18.65-18.634-18.65-10.276 0-18.635 8.366-18.635 18.65h-2.46c0-11.641 9.463-21.111 21.095-21.111 11.63 0 21.093 9.47 21.093 21.111z" fill="#f9de58"/><path d="M102.757 66.156a16.425 16.425 0 0 0-3.591-7.559 16.743 16.743 0 0 0-2.003-2l-.127-.102c-.169-.14-.34-.276-.514-.409l-.033-.026-.002.001a16.425 16.425 0 0 0-9.93-3.332 16.416 16.416 0 0 0-9.933 3.331l-.013.01c-.228.173-.452.352-.671.537l-.064.053c-.21.178-.414.363-.615.551l-.072.068c-.202.192-.398.39-.59.591l-.053.056a16.428 16.428 0 0 0-4.19 8.23 13.878 13.878 0 0 0 6.266-3.693 13.856 13.856 0 0 0 9.934 4.181c3.893 0 7.41-1.601 9.933-4.18a13.877 13.877 0 0 0 6.268 3.692z" fill="gray"/><g fill="gray" transform="matrix(.1892 0 0 .18935 42.285 42.75)"><circle cx="194.995" cy="163.953" r="10"/><circle cx="272.995" cy="163.953" r="10"/></g><path d="M73.898 92.161l2.46-1.893 9.649 9.656-4.54 7.385zm25.314 0l-2.46-1.893-9.648 9.656 4.54 7.385z" fill="#e6e6e6"/><path fill="#2be0c6" d="M86.555 108.85l2.676-2.677-2.676-4.545-2.675 4.545zm0 19.9l7.357-7.363-7.357-12.495-7.356 12.495z"/><path d="M77.278 85.345a1.231 1.231 0 0 1-1.23 1.23h-5.813a4.942 4.942 0 0 1-4.94-4.944V78.34h2.46v3.292a2.481 2.481 0 0 0 2.48 2.483h5.813c.68 0 1.23.55 1.23 1.23z" fill="#fc7a51"/><path d="M68.291 64.308c-4.267 0-7.727 3.462-7.727 7.733 0 4.271 3.46 7.733 7.727 7.733m36.529-15.466c4.267 0 7.726 3.462 7.726 7.733 0 4.271-3.459 7.733-7.726 7.733" fill="#29abe2"/><path d="M77.278 85.345a1.231 1.231 0 0 1-1.23 1.23h-3.594v-2.461h3.594c.68 0 1.23.55 1.23 1.23zm48.222 37.85h-22.745a2.25 2.25 0 0 1-2.249-2.25V91.553a2.25 2.25 0 0 1 2.249-2.25h22.746a2.25 2.25 0 0 1 2.249 2.25v29.392a2.25 2.25 0 0 1-2.25 2.25z" fill="gray"/><path fill="#e6e6e6" d="M103.344 92.142h21.568v28.213h-21.568z"/><path d="M116.668 87.787h-5.08c-.792 0-1.433.642-1.433 1.434v4.815h7.946V89.22c0-.792-.642-1.434-1.433-1.434zm-10.675 9.089h16.27v2.083h-16.27zm0 4.562h16.27v2.083h-16.27zm0 4.562h16.27v2.082h-16.27zm0 4.561h16.27v2.083h-16.27zm0 4.562h8.135v2.083h-8.135z" fill="#29abe2"/><path d="M53.312 88.074c-5.745 0-10.403 4.661-10.403 10.411 0 3.23 1.47 6.116 3.776 8.026l-2.106 5.902 5.424-4.054-.002-.004c1.04.35 2.153.542 3.312.542 5.745 0 10.403-4.662 10.403-10.412 0-5.75-4.658-10.411-10.404-10.411z" fill="#fc7a51"/><path d="M51.734 100.179c0-.618.101-1.173.303-1.665.201-.492.617-.92 1.247-1.287.19-.113.422-.242.7-.387a5.69 5.69 0 0 0 .812-.52c.265-.202.489-.439.672-.71.182-.27.274-.583.274-.936 0-.265-.05-.498-.152-.7a1.6 1.6 0 0 0-.396-.511 1.653 1.653 0 0 0-.577-.312 2.232 2.232 0 0 0-.67-.104c-.278 0-.53.047-.757.142a2.577 2.577 0 0 0-.614.359c-.183.145-.347.31-.492.492a5.397 5.397 0 0 0-.368.52l-1.645-1.135a3.68 3.68 0 0 1 .652-1.04c.271-.303.58-.558.926-.766a4.33 4.33 0 0 1 1.125-.473 4.952 4.952 0 0 1 2.665.047 3.6 3.6 0 0 1 1.258.662c.371.303.673.69.907 1.164.233.473.35 1.037.35 1.693 0 .403-.048.76-.142 1.069-.095.309-.23.59-.407.841-.176.253-.384.48-.624.682a7.12 7.12 0 0 1-.812.586c-.253.151-.505.297-.757.435a4.558 4.558 0 0 0-.69.464 2.25 2.25 0 0 0-.51.586c-.132.22-.198.489-.198.804h-2.08zm.038 4.407v-2.61h2.098v2.61h-2.098z" fill="#fff"/><path d="M77.544 103.554l2.106-5.902-5.425 4.054.003.004a10.38 10.38 0 0 0-3.312-.542c-5.745 0-10.403 4.662-10.403 10.412 0 5.75 4.658 10.412 10.403 10.412 5.746 0 10.403-4.662 10.403-10.412 0-3.23-1.47-6.116-3.775-8.026z" fill="#29abe2"/><path d="M69.811 113.123v-7.43h2.211v7.43h-2.211zm0 4.41v-2.494h2.211v2.493h-2.211z" fill="#fff"/></svg>