<svg xmlns="http://www.w3.org/2000/svg" width="171" height="171" viewBox="0 0 171 171"><path fill="#0B2848" d="M85.5.5c46.9 0 85 38.1 85 85s-38.1 85-85 85-85-38.1-85-85 38.1-85 85-85z"/><circle fill="#D45B3E" cx="85.25" cy="85.75" r="74"/><path fill="#C45237" d="M85.265 11.75l-.021.002V159.75h.021c40.86 0 73.984-33.131 73.984-74s-33.123-74-73.984-74z"/><path opacity=".2" fill="none" stroke="#FFF" enable-background="new" d="M85.5 1C132.124 1 170 38.876 170 85.5S132.124 170 85.5 170 1 132.124 1 85.5 38.876 1 85.5 1z"/><defs><filter id="a" filterUnits="userSpaceOnUse" x="42.763" y="45.25" width="119.091" height="118.576"><feColorMatrix values="1 0 0 0 0 0 1 0 0 0 0 0 1 0 0 0 0 0 1 0"/></filter></defs><mask maskUnits="userSpaceOnUse" x="42.763" y="45.25" width="119.091" height="118.576" id="b"><g filter="url(#a)"><circle fill="#D45B3E" cx="85.25" cy="85.75" r="74"/><path fill="#C45237" d="M85.265 11.75l-.021.002V159.75h.021c40.86 0 73.984-33.131 73.984-74s-33.123-74-73.984-74z"/></g></mask><path mask="url(#b)" fill="#B14731" d="M42.763 97.939l65.527 65.887 28.638-15.203 19.269-21.567 4.95-20.683.707-12.198-.177-2.475-46.591-46.45-72.323 52.689z"/><g transform="matrix(.19848 0 0 .19945 43 42.791)"><path fill="#29ABE2" d="M384.844 33.972v241.542c0 10.445-8.468 18.912-18.912 18.912H17.652c-10.445 0-18.912-8.467-18.912-18.912V33.972c0-11.954 9.69-21.644 21.644-21.644H363.2c11.954-.001 21.644 9.689 21.644 21.644"/><path fill="#E6E6E6" d="M25.009 268.155V38.596h333.573v229.559H25.009"/><path fill="#2496B5" d="M238.026 323.33h-92.46v-28.908h92.46v28.908"/><path fill="#29ABE2" d="M307.531 342.241H76.062c0-5.22 2.12-9.95 5.54-13.37s8.15-5.54 13.37-5.54h193.65c10.45 0 18.909 8.47 18.909 18.91"/><path fill="#6EC6EB" d="M177.152 323.331h-20.61l5.76 18.91h14.85v-18.91"/><path fill="#FFF" d="M218.502 268.155H46.01V116.433h172.492v151.722"/><path fill="#FC7A51" d="M338.496 86.896H235.912V73.974h102.584v12.922"/><path fill="#29ABE2" d="M338.496 107.254H235.912V94.332h102.584v12.922"/><path fill="#FC7A51" d="M46.01 94.332h172.492v12.922H46.01V94.332"/><path fill="#29ABE2" d="M63.267 243.139h137.978v12.922H63.267v-12.922M46.01 73.974h172.492v12.922H46.01V73.974m292.486 55.381H235.912v-12.922h102.584v12.922m-70.584 80.785h-32v-12.922h32v12.922m0 24.301h-32v-12.922h32v12.922m70.584 24.301H235.912V245.82h102.584v12.922"/><path fill="#CCC" d="M320.629 189.542l-2.968 3.28 12.632 11.43h-41.601l12.633-11.43-2.968-3.28-17.866 16.165 8.24 33.935h41.524l8.24-33.935-17.866-16.165m-13.347 25.005h-9.153l-.789-5.872h9.942v5.872m4.423-5.872h9.943l-.789 5.872h-9.154v-5.872m-18.041 5.872h-6.474l-1.426-5.872h7.111l.789 5.872m-5.4 4.424h5.994l.832 6.193h-5.323l-1.503-6.193m10.459 0h8.559v6.193h-7.727l-.832-6.193m12.982 0h8.559l-.832 6.193h-7.728v-6.193m13.025 0h5.994l-1.504 6.193h-5.323l.833-6.193m.593-4.424l.789-5.872h7.112l-1.426 5.872h-6.475m-33.113 20.671l-1.367-5.63h4.843l.756 5.63h-4.232m7.94-5.631h7.133v5.63h-6.377l-.756-5.63m11.556 5.631v-5.63h7.134l-.757 5.63h-6.377m10.841 0l.756-5.63h4.843l-1.367 5.63h-4.232"/><path fill="#FC7A51" d="M101.608 222.429l-24.587-26.636-10.408 14.125-8.05-5.932 17.592-23.874 23.412 25.363 36.77-66.39 28.027 45.043 32.863-58.621 8.722 4.89-41.137 73.38-27.973-44.958-35.231 63.61m178.963-83.895h-44.659v39.236h44.659v-39.236"/><path fill="#2BE0C6" d="M338.496 138.534h-44.66v39.236h44.66v-39.236"/><path fill="#CCC" d="M358.582 63.001H25.009V38.596h333.573v24.405"/><ellipse fill="#FC7A51" cx="40.578" cy="50.797" rx="1.191" ry="1.197"/><ellipse fill="#F9DE58" cx="59.245" cy="50.797" rx="1.191" ry="1.197"/><path fill="#6EC6EB" d="M363.2 12.327H122.605l8.006 26.267h227.972V231.06h26.263V33.972c-.002-11.955-9.692-21.645-21.646-21.645"/><path fill="#EEE" d="M295.685 229.587h-4.843l.358 1.474h4.683l-.198-1.474m11.597 0h-7.133l.198 1.474h6.935v-1.474m11.557 0h-7.134v1.474h6.936l.198-1.474m9.306 0h-4.843l-.198 1.474h4.683l.358-1.474m-33.886-10.616h-5.994l1.504 6.193h5.323l-.833-6.193m13.023 0h-8.559l.832 6.193h7.727v-6.193m12.983 0h-8.559v6.193h7.728l.831-6.193m10.458 0h-5.994l-.832 6.193h5.323l1.503-6.193m-37.847-10.296h-7.111l1.426 5.872h6.474l-.789-5.872m14.406 0h-9.942l.789 5.872h9.153v-5.872m14.366 0h-9.943v5.872h9.154l.789-5.872m11.575 0h-7.112l-.789 5.872h6.475l1.426-5.872m-97.311 1.465v-12.922h32v12.922h-32m0-32.37v-39.236h44.66v39.236h-44.66m57.924 0v-39.236h44.66v39.236h-44.66m-57.924-48.415v-12.922h102.584v12.922H235.912m0-22.101V94.332h102.584v12.922H235.912m0-20.358V73.974h102.584v12.922H235.912m122.67-23.895H138.048l3.344 10.973h77.109v12.922H145.33l2.266 7.436H218.5v12.922h-66.966l2.798 9.179H218.5v114.628h17.41v-9.542h32v9.542h18.736l-6.156-25.354 17.866-16.165 2.968 3.28-12.633 11.43h41.601l-12.632-11.43 2.968-3.28 17.866 16.165-6.156 25.354h26.242V63.001"/><path fill="#FFF" d="M218.502 116.433h-64.168l16.898 55.444 25.995-46.37 8.722 4.89-30.68 54.727 14.059 46.128a14.616 14.616 0 0 1 2.364-.191h26.81V116.433"/><path fill="#FDA589" d="M338.496 73.974H235.912v12.922h102.584V73.974"/><path fill="#6EC6EB" d="M338.496 94.332H235.912v12.922h102.584V94.332"/><path fill="#FDA589" d="M218.502 94.332h-70.905l3.939 12.922h66.966V94.332"/><path fill="#6EC6EB" d="M218.502 73.974h-77.109l3.938 12.922h73.171V73.974m119.994 42.459H235.912v12.922h102.584v-12.922m-70.584 80.785h-32v12.922h32v-12.922m0 24.301h-32v9.542h32v-9.542"/><path fill="#DCDCDC" d="M289.768 225.164l-1.504-6.193h5.994l.832 6.193h-5.322m9.786 0l-.832-6.193h8.559v6.193h-7.727m12.151 0v-6.193h8.559l-.832 6.193h-7.727m12.191 0l.832-6.193h5.994l-1.504 6.193h-5.322m-36.706-10.617l-1.426-5.872h7.111l.789 5.872h-6.474m10.938 0l-.789-5.872h9.942v5.872h-9.153m13.577 0v-5.872h9.943l-.789 5.872h-9.154m13.617 0l.789-5.872h7.112l-1.426 5.872h-6.475m-4.693-25.005l-2.968 3.28 12.632 11.43h-41.601l12.633-11.43-2.968-3.28-17.866 16.165 6.156 25.354h4.552l-.358-1.474h4.843l.198 1.474h4.464l-.198-1.474h7.133v1.474h4.424v-1.474h7.134l-.198 1.474h4.464l.198-1.474h4.843l-.358 1.474h4.552l6.156-25.354-17.867-16.165"/><path fill="#FDA589" d="M197.227 125.507l-25.995 46.37 4.037 13.247 30.68-54.727-8.722-4.89m83.344 13.027h-44.659v39.236h44.659v-39.236"/><path fill="#6FEAD8" d="M338.496 138.534h-44.66v39.236h44.66v-39.236"/><path fill="#DCDCDC" d="M358.582 38.596H130.61l7.438 24.405h220.534V38.596"/><path fill="gray" d="M427.002 245.601v158.3c0 8.03-6.51 14.541-14.55 14.541h-220.76c-8.03 0-14.54-6.51-14.54-14.541v-158.3c0-8.03 6.51-14.54 14.54-14.54h220.76c8.039 0 14.55 6.51 14.55 14.54"/><path fill="#E6E6E6" d="M209.705 246.311h192.662v156.884H209.705V246.311"/><path fill="#4D4D4D" d="M200.031 324.752a7.918 7.918 0 1 1-15.836 0c0-3.291 2.018-6.117 4.88-7.314a7.92 7.92 0 0 1 10.956 7.314"/><path fill="#ADADAD" d="M192.113 316.834a7.908 7.908 0 0 0-3.038.604l4.592 15.079a7.918 7.918 0 0 0-1.554-15.683"/><path fill="#FFF" d="M391.502 403.195H219.01V296.304h172.492v106.891"/><path fill="#FC7A51" d="M219.01 274.203h172.492v12.922H219.01v-12.922"/><path fill="#29ABE2" d="M219.01 253.846h172.492v12.922H219.01v-12.922m14.591 129.122h143.311v12.922H233.601v-12.922"/><path fill="#FC7A51" d="M283.891 375.279L266.75 356.71l-7.255 9.847-5.612-4.135 12.263-16.644 16.322 17.682 25.633-46.282 19.538 31.4 22.91-40.865 6.081 3.408-28.678 51.155-19.501-31.341-24.56 44.344"/><path fill="#A9A9A9" d="M412.452 231.061H261.991l4.648 15.25h135.727v156.884h-87.912l4.647 15.246h93.35c8.04 0 14.55-6.51 14.55-14.541V245.6c.001-8.029-6.51-14.539-14.549-14.539"/><path fill="#EEE" d="M402.367 246.311H266.64l2.296 7.535h122.566v12.922H272.874l2.267 7.435h116.361v12.922H279.079l2.798 9.179h109.625v106.891h-77.047 87.912V246.311"/><path fill="#FFF" d="M391.502 296.304H281.877l13.412 44.007 12.812-23.133 19.538 31.4 22.91-40.865 6.081 3.408-28.678 51.155-19.501-31.341-10.333 18.657 10.172 33.376h68.622v12.922h-64.683l2.226 7.305h77.047V296.304"/><path fill="#FDA589" d="M391.502 274.203H275.141l3.938 12.922h112.423v-12.922"/><path fill="#6EC6EB" d="M391.502 253.846H268.936l3.938 12.922h118.628v-12.922m-14.59 129.122H308.29l3.939 12.922h64.683v-12.922"/><path fill="#FDA589" d="M350.549 307.713l-22.91 40.865-19.538-31.4-12.812 23.133 2.829 9.281 10.333-18.657 19.501 31.341 28.678-51.155-6.081-3.408"/></g></svg>