<?xml version="1.0" encoding="UTF-8" standalone="no"?>
<!-- Generator: Adobe Illustrator 17.0.0, SVG Export Plug-In . SVG Version: 6.00 Build 0)  -->

<svg
   xmlns:dc="http://purl.org/dc/elements/1.1/"
   xmlns:cc="http://creativecommons.org/ns#"
   xmlns:rdf="http://www.w3.org/1999/02/22-rdf-syntax-ns#"
   xmlns:svg="http://www.w3.org/2000/svg"
   xmlns="http://www.w3.org/2000/svg"
   xmlns:sodipodi="http://sodipodi.sourceforge.net/DTD/sodipodi-0.dtd"
   xmlns:inkscape="http://www.inkscape.org/namespaces/inkscape"
   version="1.1"
   id="Слой_1"
   sodipodi:docname="Вызвать интерес.svg"
   inkscape:version="0.91 r13725"
   x="0px"
   y="0px"
   width="171px"
   height="171px"
   viewBox="0 0 171 171"
   enable-background="new 0 0 171 171"
   xml:space="preserve"><metadata
     id="metadata93"><rdf:RDF><cc:Work
         rdf:about=""><dc:format>image/svg+xml</dc:format><dc:type
           rdf:resource="http://purl.org/dc/dcmitype/StillImage" /><dc:title></dc:title></cc:Work></rdf:RDF></metadata><defs
     id="defs91"><defs
       id="defs11"><filter
         height="118.576"
         width="119.091"
         y="45.25"
         x="42.763"
         filterUnits="userSpaceOnUse"
         id="Adobe_OpacityMaskFilter"><feColorMatrix
           id="feColorMatrix14"
           values="1 0 0 0 0  0 1 0 0 0  0 0 1 0 0  0 0 0 1 0"
           type="matrix" /></filter></defs><mask
       id="mask4373"
       height="118.576"
       width="119.091"
       y="45.25"
       x="42.763"
       maskUnits="userSpaceOnUse"><g
         filter="url(#Adobe_OpacityMaskFilter)"
         id="g4375"><circle
           r="74"
           cy="85.75"
           cx="85.25"
           fill="#D45B3E"
           id="circle4377" /><path
           d="M85.265,11.75c-0.007,0.001-0.014,0.001-0.021,0.002     V159.75c0.007,0,0.014,0,0.021,0c40.86,0,73.984-33.131,73.984-74S126.126,11.75,85.265,11.75     C85.265,11.75,85.265,11.75,85.265,11.75z"
           fill="#C45237"
           inkscape:connector-curvature="0"
           id="path4379" /></g></mask><mask
       maskUnits="userSpaceOnUse"
       id="mask4504"><g
         id="g4506"><circle
           id="circle4508"
           cx="85.25"
           cy="85.75"
           r="74"
           style="fill:#d45b3e" /><path
           id="path4510"
           inkscape:connector-curvature="0"
           d="m 85.265,11.75 c -0.007,10e-4 -0.014,10e-4 -0.021,0.002 l 0,147.998 c 0.007,0 0.014,0 0.021,0 40.86,0 73.984,-33.131 73.984,-74 0,-40.869 -33.123,-74 -73.984,-74 0,0 0,0 0,0 z"
           style="fill:#c45237" /></g></mask></defs><sodipodi:namedview
     showguides="false"
     inkscape:cy="59.207493"
     inkscape:cx="-5.0883722"
     inkscape:zoom="2"
     showgrid="false"
     guidetolerance="10"
     gridtolerance="10"
     objecttolerance="10"
     borderopacity="1"
     bordercolor="#666666"
     pagecolor="#ffffff"
     id="namedview61"
     inkscape:guide-bbox="true"
     inkscape:current-layer="Слой_1"
     inkscape:window-maximized="1"
     inkscape:window-y="-8"
     inkscape:window-x="-8"
     inkscape:window-height="801"
     inkscape:window-width="1536"
     inkscape:pageshadow="2"
     inkscape:pageopacity="0"><inkscape:grid
       type="xygrid"
       id="grid4289" /></sodipodi:namedview><g
     id="g4512"><path
       id="path4295"
       inkscape:connector-curvature="0"
       d="m 85.5,0.5 c 46.9,0 85,38.1 85,85 0,46.9 -38.1,85 -85,85 -46.9,0 -85,-38.1 -85,-85 0,-46.9 38.1,-85 85,-85 z"
       style="fill:#0b2848" /><g
       id="g4274"><circle
         id="path4230"
         cx="85.25"
         cy="85.75"
         r="74"
         style="fill:#d45b3e" /><path
         id="path4278"
         inkscape:connector-curvature="0"
         d="m 85.265,11.75 c -0.007,10e-4 -0.014,10e-4 -0.021,0.002 l 0,147.998 c 0.007,0 0.014,0 0.021,0 40.86,0 73.984,-33.131 73.984,-74 0,-40.869 -33.123,-74 -73.984,-74 0,0 0,0 0,0 z"
         style="fill:#c45237" /></g><path
       id="path4271"
       inkscape:connector-curvature="0"
       enable-background="new    "
       d="M 85.5,1 C 132.124,1 170,38.876 170,85.5 170,132.124 132.124,170 85.5,170 38.876,170 1,132.124 1,85.5 1,38.876 38.876,1 85.5,1 Z"
       style="opacity:0.2;fill:none;stroke:#ffffff" /><path
       mask="url(#mask4504)"
       sodipodi:nodetypes="ccccccccccccc"
       inkscape:connector-curvature="0"
       id="path4496"
       d="m 42.785322,77.911445 10.778017,10.887392 -6.363961,16.440233 -0.618719,4.94975 -1.970432,2.1682 53.324062,53.33968 21.566761,-9.01561 L 145.75,137.5 l 11.5,-15.75 4.25,-14 1.25,-3.5 -65.331456,-61.448874 z"
       style="fill:#b14731;fill-opacity:1;fill-rule:evenodd;stroke:none;stroke-width:1px;stroke-linecap:butt;stroke-linejoin:miter;stroke-opacity:1" /><g
       transform="matrix(0.18919244,0,0,0.18934849,42.285343,42.749999)"
       id="g4433"><g
         id="g4305"><g
           id="g4307"><path
             inkscape:connector-curvature="0"
             style="fill:#e6e6e6"
             d="m 308.568,16.225 0,169.831 c 0,7.511 -5.104,13.836 -12.042,15.676 -1.335,0.357 -2.737,0.546 -4.18,0.546 l -273.666,0 c -8.961,0 -16.223,-7.262 -16.223,-16.223 l 0,-169.83 C 2.457,7.264 9.719,0.002 18.68,0.002 l 273.666,0 c 1.443,0 2.845,0.189 4.18,0.546 6.938,1.841 12.042,8.165 12.042,15.677 z"
             id="path4309" /><path
             inkscape:connector-curvature="0"
             style="fill:#b3b3b3"
             d="m 308.566,16.223 0,16.142 -306.11,0 0,-16.142 C 2.456,7.262 9.718,0 18.678,0 l 273.666,0 c 8.961,0 16.222,7.262 16.222,16.223 z"
             id="path4311" /><circle
             style="fill:#fc7a51"
             cx="24.705999"
             cy="16.181999"
             r="10.114"
             id="circle4313" /><circle
             style="fill:#f9de58"
             cx="51.675999"
             cy="16.181999"
             r="10.114"
             id="circle4315" /></g><g
           id="g4317"><rect
             x="32.675999"
             y="61.817001"
             style="fill:#808080"
             width="235"
             height="11"
             id="rect4319" /><rect
             x="32.675999"
             y="85.907997"
             style="fill:#808080"
             width="235"
             height="11"
             id="rect4321" /><rect
             x="32.675999"
             y="109.999"
             style="fill:#808080"
             width="235"
             height="11"
             id="rect4323" /><rect
             x="32.675999"
             y="134.091"
             style="fill:#808080"
             width="235"
             height="11"
             id="rect4325" /><rect
             x="32.675999"
             y="158.18201"
             style="fill:#808080"
             width="235"
             height="11"
             id="rect4327" /></g><path
           inkscape:connector-curvature="0"
           style="fill:#fcd18b"
           d="m 307.569,222.203 -40.93,37.75 c -18.44,17.01 -46.85,17.01 -65.29,0 l -40.92,-37.75 c -11.06,-10.2 -16.84,-24.89 -15.72,-39.89 l 2.38,-49 c 0.25,-3.29 0.67,-6.53 1.28,-9.7 2.84,-15.07 9.53,-28.71 18.98,-39.91 4.2,-4.99 8.95,-9.49 14.15,-13.41 14.64,-11.07 32.85,-17.59 52.5,-17.59 19.65,0 37.86,6.53 52.5,17.59 2.35,1.77 4.61,3.66 6.77,5.66 2.61,2.43 5.08,5.01 7.38,7.74 9.45,11.2 16.14,24.84 18.98,39.92 0.61,3.17 1.03,6.41 1.28,9.7 l 2.37,49 c 1.13,14.999 -4.661,29.69 -15.71,39.89 z"
           id="path4329" /><path
           inkscape:connector-curvature="0"
           style="fill:#ffffff"
           d="m 263.829,209.692 c 0,3.104 -0.476,6.099 -1.357,8.906 -3.79,12.127 -15.107,20.925 -28.474,20.925 -13.375,0 -24.692,-8.797 -28.474,-20.925 -0.881,-2.808 -1.357,-5.802 -1.357,-8.906 l 59.662,0 z"
           id="path4331" /><path
           inkscape:connector-curvature="0"
           style="fill:#f9de58"
           d="m 345.49,124.923 -13,0 c 0,-54.31 -44.185,-98.495 -98.494,-98.495 -54.311,0 -98.495,44.185 -98.495,98.495 l -13,0 c 0,-61.479 50.017,-111.495 111.495,-111.495 61.478,0 111.494,50.017 111.494,111.495 z"
           id="path4333" /><path
           inkscape:connector-curvature="0"
           style="fill:#808080"
           d="m 319.629,123.613 c -2.84,-15.08 -9.53,-28.72 -18.98,-39.92 -2.3,-2.73 -4.77,-5.31 -7.38,-7.74 -1.045,-0.969 -2.118,-1.907 -3.209,-2.824 -0.219,-0.184 -0.446,-0.357 -0.667,-0.538 -0.894,-0.736 -1.798,-1.459 -2.72,-2.159 -0.059,-0.045 -0.115,-0.094 -0.174,-0.138 -0.002,0.002 -0.004,0.004 -0.007,0.005 -14.643,-11.057 -32.847,-17.595 -52.493,-17.595 -19.651,0 -37.86,6.529 -52.498,17.592 0,0 -0.001,-0.001 -0.002,-0.002 -0.022,0.017 -0.042,0.035 -0.064,0.051 -1.208,0.915 -2.391,1.86 -3.549,2.835 -0.112,0.094 -0.225,0.188 -0.337,0.282 -1.108,0.943 -2.191,1.915 -3.251,2.911 -0.127,0.12 -0.256,0.237 -0.383,0.357 -1.066,1.015 -2.104,2.058 -3.117,3.125 -0.093,0.098 -0.188,0.193 -0.28,0.291 -1.088,1.156 -2.145,2.342 -3.169,3.557 -9.45,11.2 -16.14,24.84 -18.98,39.91 12.765,-3.477 24.129,-10.323 33.119,-19.504 13.34,13.625 31.938,22.084 52.511,22.084 20.574,0 39.164,-8.459 52.5,-22.079 8.994,9.181 20.363,16.027 33.13,19.499 z"
           id="path4335" /><g
           id="g4337"><circle
             style="fill:#808080"
             cx="194.995"
             cy="163.953"
             r="10"
             id="circle4339" /><circle
             style="fill:#808080"
             cx="272.995"
             cy="163.953"
             r="10"
             id="circle4341" /></g><g
           id="g4343"><polygon
             style="fill:#e6e6e6"
             points="167.095,260.953 180.095,250.953 231.095,301.953 207.095,340.953 "
             id="polygon4345" /><polygon
             style="fill:#e6e6e6"
             points="300.895,260.953 287.895,250.953 236.895,301.953 260.895,340.953 "
             id="polygon4347" /></g><polygon
           style="fill:#2be0c6"
           points="233.995,349.095 248.137,334.953 233.995,310.953 219.853,334.953 "
           id="polygon4349" /><polygon
           style="fill:#2be0c6"
           points="233.995,454.189 272.881,415.304 233.995,349.313 195.11,415.304 "
           id="polygon4351" /><path
           inkscape:connector-curvature="0"
           style="fill:#fc7a51"
           d="m 184.959,224.953 c 0,1.8 -0.73,3.42 -1.9,4.6 -1.18,1.17 -2.8,1.9 -4.6,1.9 l -30.73,0 c -14.42,0 -26.11,-11.69 -26.11,-26.11 l 0,-17.39 13,0 0,17.39 c 0,7.24 5.87,13.11 13.11,13.11 l 30.73,0 c 3.59,0 6.5,2.909 6.5,6.5 z"
           id="path4353" /><g
           id="g4355"><path
             inkscape:connector-curvature="0"
             style="fill:#29abe2"
             d="m 137.457,113.853 c -22.556,0 -40.841,18.285 -40.841,40.841 0,22.556 18.285,40.841 40.841,40.841"
             id="path4357" /><path
             inkscape:connector-curvature="0"
             style="fill:#29abe2"
             d="m 330.533,113.853 c 22.556,0 40.841,18.285 40.841,40.841 0,22.556 -18.285,40.841 -40.841,40.841"
             id="path4359" /></g><path
           inkscape:connector-curvature="0"
           style="fill:#808080"
           d="m 184.959,224.953 c 0,1.8 -0.73,3.42 -1.9,4.6 -1.18,1.17 -2.8,1.9 -4.6,1.9 l -19,0 0,-13 19,0 c 3.59,0 6.5,2.909 6.5,6.5 z"
           id="path4361" /><g
           id="g4363"><path
             inkscape:connector-curvature="0"
             style="fill:#808080"
             d="m 439.846,424.854 -120.226,0 c -6.565,0 -11.887,-5.322 -11.887,-11.887 l 0,-155.226 c 0,-6.565 5.322,-11.887 11.887,-11.887 l 120.227,0 c 6.565,0 11.887,5.322 11.887,11.887 l 0,155.227 c -10e-4,6.564 -5.323,11.886 -11.888,11.886 z"
             id="path4365" /><rect
             x="322.733"
             y="260.854"
             style="fill:#e6e6e6"
             width="114"
             height="149"
             id="rect4367" /><path
             inkscape:connector-curvature="0"
             style="fill:#29abe2"
             d="m 393.161,237.854 -26.855,0 c -4.182,0 -7.572,3.39 -7.572,7.572 l 0,25.428 42,0 0,-25.428 c -10e-4,-4.182 -3.392,-7.572 -7.573,-7.572 z"
             id="path4369" /><g
             id="g4371"><rect
               x="336.733"
               y="285.854"
               style="fill:#29abe2"
               width="86"
               height="11"
               id="rect4373" /><rect
               x="336.733"
               y="309.94601"
               style="fill:#29abe2"
               width="86"
               height="11"
               id="rect4375" /><rect
               x="336.733"
               y="334.03699"
               style="fill:#29abe2"
               width="86"
               height="11"
               id="rect4377" /><rect
               x="336.733"
               y="358.12799"
               style="fill:#29abe2"
               width="86"
               height="11"
               id="rect4379" /><rect
               x="336.733"
               y="382.22"
               style="fill:#29abe2"
               width="43"
               height="11"
               id="rect4381" /></g></g><path
           inkscape:connector-curvature="0"
           style="fill:#fc7a51"
           d="m 58.285,239.366 c -30.369,0 -54.987,24.619 -54.987,54.987 0,17.057 7.768,32.3 19.958,42.385 l -11.133,31.173 28.672,-21.413 -0.013,-0.02 c 5.5,1.846 11.382,2.862 17.504,2.862 30.368,0 54.987,-24.619 54.987,-54.987 0,-30.368 -24.619,-54.987 -54.988,-54.987 z"
           id="path4383" /><g
           id="g4385"><path
             inkscape:connector-curvature="0"
             style="fill:#ffffff"
             d="m 49.943,303.296 c 0,-3.263 0.533,-6.194 1.599,-8.792 1.065,-2.598 3.263,-4.861 6.594,-6.794 0.999,-0.599 2.231,-1.282 3.697,-2.048 1.464,-0.765 2.897,-1.681 4.296,-2.747 1.399,-1.065 2.58,-2.314 3.547,-3.747 0.965,-1.431 1.449,-3.08 1.449,-4.945 0,-1.399 -0.267,-2.63 -0.799,-3.697 -0.534,-1.065 -1.233,-1.964 -2.098,-2.697 -0.867,-0.732 -1.883,-1.282 -3.047,-1.649 -1.166,-0.365 -2.348,-0.549 -3.546,-0.549 -1.466,0 -2.798,0.25 -3.997,0.749 -1.199,0.499 -2.282,1.133 -3.247,1.898 -0.967,0.767 -1.833,1.633 -2.598,2.598 -0.766,0.966 -1.416,1.883 -1.948,2.748 l -8.692,-5.995 c 0.865,-2.064 2.014,-3.896 3.447,-5.495 1.431,-1.599 3.063,-2.947 4.895,-4.046 1.831,-1.099 3.812,-1.931 5.945,-2.497 2.131,-0.565 4.329,-0.849 6.594,-0.849 2.531,0 5.029,0.367 7.494,1.099 2.463,0.734 4.678,1.898 6.644,3.497 1.964,1.599 3.562,3.647 4.795,6.144 1.232,2.498 1.848,5.479 1.848,8.942 0,2.132 -0.249,4.013 -0.749,5.645 -0.499,1.633 -1.217,3.114 -2.148,4.446 -0.933,1.333 -2.033,2.532 -3.297,3.597 -1.266,1.066 -2.698,2.098 -4.296,3.097 -1.333,0.799 -2.665,1.566 -3.997,2.298 -1.333,0.734 -2.548,1.549 -3.647,2.448 -1.099,0.899 -1.998,1.932 -2.698,3.097 -0.699,1.166 -1.049,2.582 -1.049,4.246 l -10.991,0 0,-0.002 z m 0.2,23.278 0,-13.787 11.09,0 0,13.787 -11.09,0 z"
             id="path4387" /></g><g
           id="g4389"><path
             inkscape:connector-curvature="0"
             style="fill:#29abe2"
             d="m 186.362,321.124 11.133,-31.173 -28.672,21.413 0.013,0.02 c -5.5,-1.846 -11.382,-2.862 -17.504,-2.862 -30.369,0 -54.987,24.619 -54.987,54.987 0,30.368 24.618,54.987 54.987,54.987 30.368,0 54.987,-24.619 54.987,-54.987 0.001,-17.057 -7.767,-32.299 -19.957,-42.385 z"
             id="path4391" /><g
             id="g4393"><path
               inkscape:connector-curvature="0"
               style="fill:#ffffff"
               d="m 145.49,371.66 0,-39.244 11.687,0 0,39.244 -11.687,0 z m 0,23.285 0,-13.168 11.687,0 0,13.168 -11.687,0 z"
               id="path4395" /></g></g></g><g
         id="g4397" /><g
         id="g4399" /><g
         id="g4401" /><g
         id="g4403" /><g
         id="g4405" /><g
         id="g4407" /><g
         id="g4409" /><g
         id="g4411" /><g
         id="g4413" /><g
         id="g4415" /><g
         id="g4417" /><g
         id="g4419" /><g
         id="g4421" /><g
         id="g4423" /><g
         id="g4425" /></g></g></svg>