<svg xmlns="http://www.w3.org/2000/svg" width="171" height="171" viewBox="0 0 171 171"><defs><mask maskUnits="userSpaceOnUse" id="a"><circle cx="85.25" cy="85.75" r="74" fill="#d45b3e"/><path d="M85.265 11.75l-.021.002V159.75h.021c40.86 0 73.984-33.131 73.984-74s-33.123-74-73.984-74z" fill="#c45237"/></mask></defs><path d="M85.5.5c46.9 0 85 38.1 85 85s-38.1 85-85 85-85-38.1-85-85 38.1-85 85-85z" fill="#0b2848"/><circle cx="85.25" cy="85.75" r="74" fill="#d45b3e"/><path d="M85.265 11.75l-.021.002V159.75h.021c40.86 0 73.984-33.131 73.984-74s-33.123-74-73.984-74z" fill="#c45237"/><path d="M85.5 1C132.124 1 170 38.876 170 85.5S132.124 170 85.5 170 1 132.124 1 85.5 38.876 1 85.5 1z" opacity=".2" fill="none" stroke="#fff"/><path mask="url(#a)" d="M47.266 99.234l13.859 14.516-4.836 10.733L97.5 165.75 120 154.5l21.25-13.25 15.5-20.5L161.5 110l1-7.5-39.375-40.469L96.5 57.5l-2 5-17.928-19.692z" fill="#b14731" fill-rule="evenodd"/><g transform="matrix(.20161 0 0 .20135 42.194 42.75)"><path d="M280.813 191.579l-1-13.25 12.053-5.636c8.447.112 16.86.805 25.194 2.069-3.073 5.149-21.724 14.661-25.194 14.93l-11.053 1.887" fill="#ddb57a"/><circle cx="107.24" cy="383.645" r="43.475" fill="#f9de58"/><circle cx="107.24" cy="383.645" r="28.2" fill="#d6b71d"/><path d="M267.615 68.835c2.917-8.482 11.917-13.233 20.572-10.879l29.548 8.066c7.183 16.123 7.183 16.123-3.506 27.807l-43.291-8.722-12.126 8.222 8.803-24.494" fill="#ddb57a"/><path d="M277.813 121.579l-4-2.25 4.5-13.25c0-6.197-6.803-8.5-13-8.5l5.626-12.472 4.855-5.306a45.012 45.012 0 0 1 41.941-13.778l.078.017h.035l7.045 1.93.234.061 76.916 27.722v68.797c-4.778 0-9.503.718-14.021 2.103a47.238 47.238 0 0 0-12.775 6.136l-6.872 4.673a27.911 27.911 0 0 1-23.991 3.575 186.467 186.467 0 0 0-27.245-6.266l-.078-.009a184.416 184.416 0 0 0-25.194-2.069c-.865-.017-8.938 23.136-9.803 23.136l-29.75-2.5c-9.174 0-26.719-8.4-30.25-16.25-1.289-2.83-5.5-12.944-5.5-16.25 0-6.249 3.156-25.906 7.25-30 4.085-4.094 4.51-6.25 10.75-6.25l11.25-5c1.193 0 30.813 2.06 31.999 2" fill="#fcd18b"/><path d="M322.18 119.341h-32.066l.036 8.035c.001 0 20.957.919 32.03-8.035" fill="#ddb57a"/><path d="M291.897 127.38c-1.18.06-2.38.08-3.57.08h-34.14c-5.79 0-11.07 2.18-15.06 5.76-.31.27-.61.56-.91.86-4.1 4.1-6.62 9.74-6.62 15.99 0 3.31.71 6.46 2 9.29h-124.3V96.33c0-6.2 5.03-11.22 11.23-11.22h160.11c6.2 0 11.229 5.02 11.229 11.22v30.28l.031.77" fill="gray"/><path d="M291.867 172.69v13.91h-182.57v-27.24h124.3c3.13 6.95 9.67 12.03 17.49 13.1 1.01.14 2.05.21 3.1.21h35.08c.87 0 1.73.01 2.6.02" fill="#4d4d4d"/><path d="M291.867 186.6v9.89c0 6.2-5.03 11.23-11.229 11.23h-160.11c-6.2 0-11.23-5.03-11.23-11.23v-9.89h182.569" fill="gray"/><path d="M252.797 135.352c-8.126 0-14.713 6.587-14.713 14.713s6.587 14.713 14.713 14.713 10.56-6.587 10.56-14.713-2.434-14.713-10.56-14.713z" fill="#fff"/><path d="M189.397 19.36v261.3c0 10.7-8.67 19.37-19.37 19.37H44.447c-10.69 0-19.37-8.67-19.37-19.37V19.36C25.077 8.67 33.757 0 44.447 0h125.58c10.7 0 19.37 8.67 19.37 19.36" fill="#29abe2"/><path fill="#fff" d="M181.647 39.6v215.53H32.837V39.6h148.81"/><path d="M181.647 61.11v103.318H80.973V76.723c0-8.627 6.999-15.612 15.626-15.612l85.048-.001" fill="gray"/><path fill="#4d4d4d" d="M181.647 164.428v37.904H80.973v-37.904h100.674"/><path d="M181.647 202.332v29.388H96.599c-8.627 0-15.626-6.999-15.626-15.626v-13.762h100.674" fill="gray"/><path d="M113.147 135.17c0 7.83 2.97 14.99 7.84 20.39-.68.08-1.36.11-2.05.11-11.32 0-20.5-9.18-20.5-20.5s9.18-20.5 20.5-20.5c.69 0 1.37.03 2.05.11a30.369 30.369 0 0 0-7.84 20.39m51.001 0c0-11.322-9.178-20.5-20.5-20.5s-20.5 9.178-20.5 20.5 9.178 20.5 20.5 20.5c11.321 0 20.5-9.178 20.5-20.5" fill="#f4d521"/><path d="M170.027 0H59.267l12.069 39.6h110.311v215.53h-44.624l13.684 44.9h19.32c10.7 0 19.37-8.67 19.37-19.37V19.36c0-10.69-8.67-19.36-19.37-19.36" fill="#6ec6eb"/><path d="M181.647 231.72h-51.759l7.135 23.41h44.624v-23.41m0-192.12H71.336l10.127 33.229c1.732-6.741 7.854-11.719 15.136-11.719h85.048V39.6" fill="#fff"/><path d="M143.648 155.67c-11.322 0-20.5-9.178-20.5-20.5s9.178-20.5 20.5-20.5 20.5 9.178 20.5 20.5-9.179 20.5-20.5 20.5m37.999-94.56H96.599c-7.282 0-13.405 4.978-15.136 11.719l17.538 57.546c2.16-9.007 10.267-15.705 19.936-15.705.69 0 1.37.03 2.05.11a30.369 30.369 0 0 0-7.84 20.39c0 7.83 2.97 14.99 7.84 20.39-.68.08-1.36.11-2.05.11a20.427 20.427 0 0 1-13.875-5.411l4.318 14.169h72.267V61.11" fill="#a9a9a9"/><path fill="#868686" d="M181.647 164.428h-72.268l11.552 37.904h60.716v-37.904"/><path fill="#a9a9a9" d="M181.647 202.332h-60.716l8.957 29.388h51.759v-29.388"/><path d="M118.937 114.67c-9.669 0-17.776 6.697-19.936 15.705l6.06 19.884a20.427 20.427 0 0 0 13.875 5.411c.69 0 1.37-.03 2.05-.11a30.369 30.369 0 0 1-7.84-20.39c0-7.83 2.97-14.99 7.84-20.39-.679-.08-1.359-.11-2.049-.11m24.711 0c-11.322 0-20.5 9.178-20.5 20.5s9.178 20.5 20.5 20.5 20.5-9.178 20.5-20.5-9.179-20.5-20.5-20.5" fill="#f8e368"/><path fill="#d6b71d" d="M103.74 304.849v25.5h7v-25.5m10.5 0v30.321h7v-30.321m-42 0v30.321h7v-30.321"/><circle cx="107.24" cy="278.17" r="15.333" fill="#2496b5"/><path d="M251.087 172.46l4.31 14.14h36.47v-13.91c-.87-.01-1.73-.02-2.6-.02h-35.08c-1.05 0-2.09-.07-3.1-.21" fill="#868686"/><path d="M291.867 186.6h-36.47l6.43 21.12h18.81c6.2 0 11.229-5.03 11.229-11.23v-9.89M280.637 85.11h-56.171l14.66 48.11c3.99-3.58 9.27-5.76 15.06-5.76h34.14c1.19 0 2.39-.02 3.57-.08l-.03-.77V96.33c.001-6.2-5.029-11.22-11.229-11.22" fill="#a9a9a9"/></g></svg>