<?xml version="1.0" encoding="UTF-8" standalone="no"?>
<!-- Generator: Adobe Illustrator 17.0.0, SVG Export Plug-In . SVG Version: 6.00 Build 0)  -->

<svg
   xmlns:dc="http://purl.org/dc/elements/1.1/"
   xmlns:cc="http://creativecommons.org/ns#"
   xmlns:rdf="http://www.w3.org/1999/02/22-rdf-syntax-ns#"
   xmlns:svg="http://www.w3.org/2000/svg"
   xmlns="http://www.w3.org/2000/svg"
   xmlns:sodipodi="http://sodipodi.sourceforge.net/DTD/sodipodi-0.dtd"
   xmlns:inkscape="http://www.inkscape.org/namespaces/inkscape"
   version="1.1"
   id="Слой_1"
   sodipodi:docname="Сделать продажу.svg"
   inkscape:version="0.91 r13725"
   x="0px"
   y="0px"
   width="171px"
   height="171px"
   viewBox="0 0 171 171"
   enable-background="new 0 0 171 171"
   xml:space="preserve"><metadata
     id="metadata93"><rdf:RDF><cc:Work
         rdf:about=""><dc:format>image/svg+xml</dc:format><dc:type
           rdf:resource="http://purl.org/dc/dcmitype/StillImage" /><dc:title></dc:title></cc:Work></rdf:RDF></metadata><defs
     id="defs91"><defs
       id="defs11"><filter
         height="118.576"
         width="119.091"
         y="45.25"
         x="42.763"
         filterUnits="userSpaceOnUse"
         id="Adobe_OpacityMaskFilter"><feColorMatrix
           id="feColorMatrix14"
           values="1 0 0 0 0  0 1 0 0 0  0 0 1 0 0  0 0 0 1 0"
           type="matrix" /></filter></defs><mask
       id="mask4373"
       height="118.576"
       width="119.091"
       y="45.25"
       x="42.763"
       maskUnits="userSpaceOnUse"><g
         filter="url(#Adobe_OpacityMaskFilter)"
         id="g4375"><circle
           r="74"
           cy="85.75"
           cx="85.25"
           fill="#D45B3E"
           id="circle4377" /><path
           d="M85.265,11.75c-0.007,0.001-0.014,0.001-0.021,0.002     V159.75c0.007,0,0.014,0,0.021,0c40.86,0,73.984-33.131,73.984-74S126.126,11.75,85.265,11.75     C85.265,11.75,85.265,11.75,85.265,11.75z"
           fill="#C45237"
           inkscape:connector-curvature="0"
           id="path4379" /></g></mask><mask
       maskUnits="userSpaceOnUse"
       id="mask4504"><g
         id="g4506"><circle
           id="circle4508"
           cx="85.25"
           cy="85.75"
           r="74"
           style="fill:#d45b3e" /><path
           id="path4510"
           inkscape:connector-curvature="0"
           d="m 85.265,11.75 c -0.007,10e-4 -0.014,10e-4 -0.021,0.002 l 0,147.998 c 0.007,0 0.014,0 0.021,0 40.86,0 73.984,-33.131 73.984,-74 0,-40.869 -33.123,-74 -73.984,-74 0,0 0,0 0,0 z"
           style="fill:#c45237" /></g></mask><mask
       maskUnits="userSpaceOnUse"
       id="mask4447"><g
         id="g4449"><circle
           id="circle4451"
           cx="85.25"
           cy="85.75"
           r="74"
           style="fill:#d45b3e" /><path
           id="path4453"
           inkscape:connector-curvature="0"
           d="m 85.265,11.75 c -0.007,10e-4 -0.014,10e-4 -0.021,0.002 l 0,147.998 c 0.007,0 0.014,0 0.021,0 40.86,0 73.984,-33.131 73.984,-74 0,-40.869 -33.123,-74 -73.984,-74 0,0 0,0 0,0 z"
           style="fill:#c45237" /></g></mask></defs><sodipodi:namedview
     showguides="false"
     inkscape:cy="55.199903"
     inkscape:cx="46.532526"
     inkscape:zoom="1.4142136"
     showgrid="false"
     guidetolerance="10"
     gridtolerance="10"
     objecttolerance="10"
     borderopacity="1"
     bordercolor="#666666"
     pagecolor="#ffffff"
     id="namedview61"
     inkscape:guide-bbox="true"
     inkscape:current-layer="Слой_1"
     inkscape:window-maximized="1"
     inkscape:window-y="-8"
     inkscape:window-x="-8"
     inkscape:window-height="801"
     inkscape:window-width="1536"
     inkscape:pageshadow="2"
     inkscape:pageopacity="0"><inkscape:grid
       type="xygrid"
       id="grid4289" /></sodipodi:namedview><g
     id="g4455"><path
       id="path4295"
       inkscape:connector-curvature="0"
       d="m 85.5,0.5 c 46.9,0 85,38.1 85,85 0,46.9 -38.1,85 -85,85 -46.9,0 -85,-38.1 -85,-85 0,-46.9 38.1,-85 85,-85 z"
       style="fill:#0b2848" /><g
       id="g4274"><circle
         id="path4230"
         cx="85.25"
         cy="85.75"
         r="74"
         style="fill:#d45b3e" /><path
         id="path4278"
         inkscape:connector-curvature="0"
         d="m 85.265,11.75 c -0.007,10e-4 -0.014,10e-4 -0.021,0.002 l 0,147.998 c 0.007,0 0.014,0 0.021,0 40.86,0 73.984,-33.131 73.984,-74 0,-40.869 -33.123,-74 -73.984,-74 0,0 0,0 0,0 z"
         style="fill:#c45237" /></g><path
       id="path4271"
       inkscape:connector-curvature="0"
       enable-background="new    "
       d="M 85.5,1 C 132.124,1 170,38.876 170,85.5 170,132.124 132.124,170 85.5,170 38.876,170 1,132.124 1,85.5 1,38.876 38.876,1 85.5,1 Z"
       style="opacity:0.2;fill:none;stroke:#ffffff" /><path
       mask="url(#mask4447)"
       sodipodi:nodetypes="cccccccccccccc"
       inkscape:connector-curvature="0"
       id="path4431"
       d="M 47.265625,99.234375 61.125,113.75 56.28867,124.48343 97.5,165.75 120,154.5 l 21.25,-13.25 15.5,-20.5 4.75,-10.75 1,-7.5 L 123.125,62.03125 96.5,57.5 l -2,5 -17.928078,-19.691942 z"
       style="fill:#b14731;fill-opacity:1;fill-rule:evenodd;stroke:none;stroke-width:1px;stroke-linecap:butt;stroke-linejoin:miter;stroke-opacity:1" /><g
       transform="matrix(0.20160969,0,0,0.20134857,42.194235,42.750001)"
       id="g4382"><g
         id="g4282"><path
           inkscape:connector-curvature="0"
           style="fill:#ddb57a"
           d="m 280.813,191.579 -1,-13.25 12.053,-5.636 c 8.447,0.112 16.86,0.805 25.194,2.069 -3.073,5.149 -21.724,14.661 -25.194,14.93 l -11.053,1.887"
           id="path4284" /><circle
           style="fill:#f9de58"
           cx="107.24"
           cy="383.64499"
           r="43.474998"
           id="circle4286" /><circle
           style="fill:#d6b71d"
           cx="107.24"
           cy="383.64499"
           r="28.200001"
           id="circle4288" /><path
           inkscape:connector-curvature="0"
           style="fill:#ddb57a"
           d="m 267.615,68.835 c 2.917,-8.482 11.917,-13.233 20.572,-10.879 l 29.548,8.066 c 7.183,16.123 7.183,16.123 -3.506,27.807 l -43.291,-8.722 -12.126,8.222 8.803,-24.494"
           id="path4290" /><path
           inkscape:connector-curvature="0"
           style="fill:#fcd18b"
           d="m 277.813,121.579 -4,-2.25 4.5,-13.25 c 0,-6.197 -6.803,-8.5 -13,-8.5 l 5.626,-12.472 4.855,-5.306 c 10.689,-11.684 26.622,-16.807 41.941,-13.778 l 0.078,0.017 0.035,0 7.045,1.93 0.234,0.061 76.916,27.722 0,68.797 c -4.778,0 -9.503,0.718 -14.021,2.103 -4.518,1.384 -8.828,3.445 -12.775,6.136 l -6.872,4.673 c -7.036,4.787 -15.873,6.102 -23.991,3.575 -8.923,-2.77 -18.028,-4.864 -27.245,-6.266 l -0.078,-0.009 c -8.334,-1.264 -16.747,-1.956 -25.194,-2.069 -0.865,-0.017 -8.938,23.136 -9.803,23.136 l -29.75,-2.5 c -9.174,0 -26.719,-8.4 -30.25,-16.25 -1.289,-2.83 -5.5,-12.944 -5.5,-16.25 0,-6.249 3.156,-25.906 7.25,-30 4.085,-4.094 4.51,-6.25 10.75,-6.25 l 11.25,-5 c 1.193,0 30.813,2.06 31.999,2"
           id="path4292" /><path
           inkscape:connector-curvature="0"
           style="fill:#ddb57a"
           d="m 322.18,119.341 -32.066,0 0.036,8.035 c 0.001,0 20.957,0.919 32.03,-8.035"
           id="path4294" /><path
           inkscape:connector-curvature="0"
           style="fill:#808080"
           d="m 291.897,127.38 c -1.18,0.06 -2.38,0.08 -3.57,0.08 l -34.14,0 c -5.79,0 -11.07,2.18 -15.06,5.76 -0.31,0.27 -0.61,0.56 -0.91,0.86 -4.1,4.1 -6.62,9.74 -6.62,15.99 0,3.31 0.71,6.46 2,9.29 l -124.3,0 0,-63.03 c 0,-6.2 5.03,-11.22 11.23,-11.22 l 160.11,0 c 6.2,0 11.229,5.02 11.229,11.22 l 0,30.28 0.031,0.77"
           id="path4296" /><path
           inkscape:connector-curvature="0"
           style="fill:#4d4d4d"
           d="m 291.867,172.69 0,13.91 -182.57,0 0,-27.24 124.3,0 c 3.13,6.95 9.67,12.03 17.49,13.1 1.01,0.14 2.05,0.21 3.1,0.21 l 35.08,0 c 0.87,0 1.73,0.01 2.6,0.02"
           id="path4298" /><path
           inkscape:connector-curvature="0"
           style="fill:#808080"
           d="m 291.867,186.6 0,9.89 c 0,6.2 -5.03,11.23 -11.229,11.23 l -160.11,0 c -6.2,0 -11.23,-5.03 -11.23,-11.23 l 0,-9.89 182.569,0"
           id="path4300" /><path
           inkscape:connector-curvature="0"
           style="fill:#ffffff"
           d="m 252.797,135.352 c -8.126,0 -14.713,6.587 -14.713,14.713 0,8.126 6.587,14.713 14.713,14.713 8.126,0 10.56,-6.587 10.56,-14.713 0,-8.126 -2.434,-14.713 -10.56,-14.713 z"
           id="path4302" /><path
           inkscape:connector-curvature="0"
           style="fill:#29abe2"
           d="m 189.397,19.36 0,261.3 c 0,10.7 -8.67,19.37 -19.37,19.37 l -125.58,0 c -10.69,0 -19.37,-8.67 -19.37,-19.37 l 0,-261.3 C 25.077,8.67 33.757,0 44.447,0 l 125.58,0 c 10.7,0 19.37,8.67 19.37,19.36"
           id="path4304" /><polyline
           style="fill:#ffffff"
           points="181.647,39.6 181.647,255.13 32.837,255.13 32.837,39.6 181.647,39.6  "
           id="polyline4306" /><path
           inkscape:connector-curvature="0"
           style="fill:#808080"
           d="m 181.647,61.11 0,103.318 -100.674,0 0,-87.705 c 0,-8.627 6.999,-15.612 15.626,-15.612 l 85.048,-10e-4"
           id="path4308" /><polyline
           style="fill:#4d4d4d"
           points="181.647,164.428 181.647,202.332 80.973,202.332 80.973,164.428 181.647,164.428  "
           id="polyline4310" /><path
           inkscape:connector-curvature="0"
           style="fill:#808080"
           d="m 181.647,202.332 0,29.388 -85.048,0 c -8.627,0 -15.626,-6.999 -15.626,-15.626 l 0,-13.762 100.674,0"
           id="path4312" /><path
           inkscape:connector-curvature="0"
           style="fill:#f4d521"
           d="m 113.147,135.17 c 0,7.83 2.97,14.99 7.84,20.39 -0.68,0.08 -1.36,0.11 -2.05,0.11 -11.32,0 -20.5,-9.18 -20.5,-20.5 0,-11.32 9.18,-20.5 20.5,-20.5 0.69,0 1.37,0.03 2.05,0.11 -4.87,5.4 -7.84,12.56 -7.84,20.39"
           id="path4314" /><path
           inkscape:connector-curvature="0"
           style="fill:#f4d521"
           d="m 164.148,135.17 c 0,-11.322 -9.178,-20.5 -20.5,-20.5 -11.322,0 -20.5,9.178 -20.5,20.5 0,11.322 9.178,20.5 20.5,20.5 11.321,0 20.5,-9.178 20.5,-20.5"
           id="path4316" /><path
           inkscape:connector-curvature="0"
           style="fill:#6ec6eb"
           d="m 170.027,0 -110.76,0 12.069,39.6 110.311,0 0,21.51 0,103.318 0,37.904 0,29.388 0,23.41 -44.624,0 13.684,44.9 19.32,0 c 10.7,0 19.37,-8.67 19.37,-19.37 l 0,-72.94 0,-21.12 0,-27.24 0,-74.25 0,-65.75 C 189.397,8.67 180.727,0 170.027,0"
           id="path4318" /><path
           inkscape:connector-curvature="0"
           style="fill:#ffffff"
           d="m 181.647,231.72 -51.759,0 7.135,23.41 44.624,0 0,-23.41 m 0,-192.12 -110.311,0 10.127,33.229 C 83.195,66.088 89.317,61.11 96.599,61.11 l 85.048,0 0,-21.51"
           id="path4320" /><path
           inkscape:connector-curvature="0"
           style="fill:#a9a9a9"
           d="m 143.648,155.67 c -11.322,0 -20.5,-9.178 -20.5,-20.5 0,-11.322 9.178,-20.5 20.5,-20.5 11.322,0 20.5,9.178 20.5,20.5 0,11.322 -9.179,20.5 -20.5,20.5 m 37.999,-94.56 0,0 -85.048,0 c -7.282,0 -13.405,4.978 -15.136,11.719 l 17.538,57.546 c 2.16,-9.007 10.267,-15.705 19.936,-15.705 0.69,0 1.37,0.03 2.05,0.11 -4.87,5.4 -7.84,12.56 -7.84,20.39 0,7.83 2.97,14.99 7.84,20.39 -0.68,0.08 -1.36,0.11 -2.05,0.11 -5.351,0 -10.224,-2.052 -13.875,-5.411 l 4.318,14.169 72.267,0 0,-103.318"
           id="path4322" /><polyline
           style="fill:#868686"
           points="181.647,164.428 181.647,164.428 109.379,164.428 120.931,202.332 181.647,202.332    181.647,164.428  "
           id="polyline4324" /><polyline
           style="fill:#a9a9a9"
           points="181.647,202.332 181.647,202.332 120.931,202.332 129.888,231.72 181.647,231.72    181.647,202.332  "
           id="polyline4326" /><path
           inkscape:connector-curvature="0"
           style="fill:#f8e368"
           d="m 118.937,114.67 c -9.669,0 -17.776,6.697 -19.936,15.705 l 6.06,19.884 c 3.651,3.359 8.524,5.411 13.875,5.411 0.69,0 1.37,-0.03 2.05,-0.11 -4.87,-5.4 -7.84,-12.56 -7.84,-20.39 0,-7.83 2.97,-14.99 7.84,-20.39 -0.679,-0.08 -1.359,-0.11 -2.049,-0.11"
           id="path4328" /><path
           inkscape:connector-curvature="0"
           style="fill:#f8e368"
           d="m 143.648,114.67 c -11.322,0 -20.5,9.178 -20.5,20.5 0,11.322 9.178,20.5 20.5,20.5 11.322,0 20.5,-9.178 20.5,-20.5 0,-11.322 -9.179,-20.5 -20.5,-20.5"
           id="path4330" /><polyline
           style="fill:#d6b71d"
           points="103.74,304.849 103.74,330.349 110.74,330.349 110.74,304.849  "
           id="polyline4332" /><polyline
           style="fill:#d6b71d"
           points="121.24,304.849 121.24,335.17 128.24,335.17 128.24,304.849  "
           id="polyline4334" /><polyline
           style="fill:#d6b71d"
           points="86.24,304.849 86.24,335.17 93.24,335.17 93.24,304.849  "
           id="polyline4336" /><circle
           style="fill:#2496b5"
           cx="107.24"
           cy="278.17001"
           r="15.333"
           id="circle4338" /><path
           inkscape:connector-curvature="0"
           style="fill:#868686"
           d="m 251.087,172.46 4.31,14.14 36.47,0 0,-13.91 c -0.87,-0.01 -1.73,-0.02 -2.6,-0.02 l -35.08,0 c -1.05,0 -2.09,-0.07 -3.1,-0.21"
           id="path4340" /><path
           inkscape:connector-curvature="0"
           style="fill:#a9a9a9"
           d="m 291.867,186.6 0,0 -36.47,0 6.43,21.12 18.81,0 c 6.2,0 11.229,-5.03 11.229,-11.23 l 0,-9.89"
           id="path4342" /><path
           inkscape:connector-curvature="0"
           style="fill:#a9a9a9"
           d="m 280.637,85.11 -9.704,0 -9.167,0 -37.3,0 14.66,48.11 c 3.99,-3.58 9.27,-5.76 15.06,-5.76 l 34.14,0 c 1.19,0 2.39,-0.02 3.57,-0.08 l -0.03,-0.77 0,-7.269 0,-23.011 c 0.001,-6.2 -5.029,-11.22 -11.229,-11.22"
           id="path4344" /></g><g
         id="g4346" /><g
         id="g4348" /><g
         id="g4350" /><g
         id="g4352" /><g
         id="g4354" /><g
         id="g4356" /><g
         id="g4358" /><g
         id="g4360" /><g
         id="g4362" /><g
         id="g4364" /><g
         id="g4366" /><g
         id="g4368" /><g
         id="g4370" /><g
         id="g4372" /><g
         id="g4374" /></g></g></svg>