<svg xmlns="http://www.w3.org/2000/svg" width="171" height="171" viewBox="0 0 171 171"><defs><mask maskUnits="userSpaceOnUse" id="a"><circle cx="85.333" cy="85.972" r="74" fill="#d45b3e"/><path d="M85.348 11.972l-.021.002v147.998h.021c40.86 0 73.984-33.131 73.984-74s-33.123-74-73.984-74z" fill="#c45237"/></mask></defs><circle cx="85.333" cy="85.972" r="74" fill="#d45b3e"/><path d="M85.348 11.972l-.021.002v147.998h.021c40.86 0 73.984-33.131 73.984-74s-33.123-74-73.984-74z" fill="#c45237"/><path d="M85.583 1.222c46.624 0 84.5 37.876 84.5 84.5s-37.876 84.5-84.5 84.5-84.5-37.876-84.5-84.5 37.876-84.5 84.5-84.5z" opacity=".2" fill="none" stroke="#fff"/><path mask="url(#a)" d="M35 88.875l8.75 8.75 3.5 13.75 55.685 55.685 27.88-13.03 25.456-29.7 5.656-25.455 1.768-24.042-38.589-38.964-10.908 12.094v7.425l-4.95 5.657-5.657-6.718-15.91-5.656-4.874-7.218-.43 6.51-7.777 1.768-16.617 6.364-9.546 10.253-5.657 12.728-.707 9.546z" fill="#b14731" fill-rule="evenodd"/><path d="M123.523 59.495a1.894 1.894 0 0 0 1.548-.543l10.208-10.208a1.893 1.893 0 0 0-1.168-3.224l-7.632-.694-.694-7.632a1.893 1.893 0 0 0-3.225-1.168l-10.207 10.208a1.893 1.893 0 0 0-.543 1.548l.903 8.132-1.911 1.912c-7.06-6.458-16.32-10.547-26.51-11v-3.595a1.893 1.893 0 0 0-3.785 0v3.594c-21.724.966-39.22 18.463-40.187 40.187h-3.594a1.893 1.893 0 0 0 0 3.786h3.594c.966 21.724 18.463 39.22 40.187 40.187v3.594a1.893 1.893 0 0 0 3.786 0v-3.594c21.724-.966 39.22-18.463 40.186-40.187h3.594a1.893 1.893 0 0 0 0-3.786h-3.594c-.453-10.19-4.542-19.45-11-26.51l1.912-1.911 8.132.904zm-1.143-17.933l.47 5.178c.084.91.804 1.631 1.715 1.714l5.178.471-6.706 6.706-6.627-.736-.736-6.627 6.706-6.706zm-1.69 45.45h-2.667a1.893 1.893 0 0 0 0 3.786h2.667c-.96 19.637-16.76 35.438-36.397 36.398v-2.668a1.893 1.893 0 0 0-3.786 0v2.668c-19.636-.96-35.438-16.762-36.398-36.398h2.668a1.893 1.893 0 0 0 0-3.786h-2.668c.96-19.636 16.762-35.438 36.398-36.397v2.667a1.893 1.893 0 0 0 3.786 0v-2.667c9.146.447 17.46 4.114 23.83 9.889l-5.696 5.696c-5.343-4.718-12.356-7.586-20.027-7.586-16.703 0-30.292 13.588-30.292 30.291 0 16.703 13.589 30.292 30.292 30.292 16.702 0 30.29-13.589 30.29-30.292 0-7.671-2.867-14.685-7.585-20.027l5.696-5.697c5.775 6.37 9.442 14.685 9.89 23.83zm-39.629 3.232c.37.37.854.554 1.339.554.484 0 .969-.184 1.338-.554L94.02 79.962a14.596 14.596 0 0 1 3.052 8.943c0 8.09-6.582 14.673-14.672 14.673-8.091 0-14.673-6.582-14.673-14.673 0-8.09 6.582-14.672 14.673-14.672a14.59 14.59 0 0 1 8.942 3.052L81.061 87.566a1.894 1.894 0 0 0 0 2.678zM82.4 70.447c-10.178 0-18.459 8.28-18.459 18.458 0 10.179 8.28 18.46 18.459 18.46 10.178 0 18.459-8.281 18.459-18.46a18.37 18.37 0 0 0-4.144-11.637l5.71-5.71a26.393 26.393 0 0 1 6.48 17.347c0 14.615-11.89 26.505-26.505 26.505-14.615 0-26.505-11.89-26.505-26.505C55.895 74.29 67.785 62.4 82.4 62.4a26.393 26.393 0 0 1 17.347 6.48l-5.71 5.71A18.37 18.37 0 0 0 82.4 70.447z" fill="#fff"/></svg>