<svg xmlns="http://www.w3.org/2000/svg" width="171" height="171" viewBox="0 0 171 171"><g transform="translate(.25 -.25)"><circle fill="#D45B3E" cx="85.25" cy="86.026" r="74"/><path fill="#C45237" d="M85.265 12.026l-.021.002v147.998h.021c40.86 0 73.984-33.131 73.984-74s-33.123-74-73.984-74z"/></g><path opacity=".2" fill="none" stroke="#FFF" enable-background="new" d="M85.5 1.276c46.624 0 84.5 37.876 84.5 84.5s-37.876 84.5-84.5 84.5S1 132.4 1 85.776s37.876-84.5 84.5-84.5z"/><defs><filter id="a" filterUnits="userSpaceOnUse" x="49" y="37.645" width="114.342" height="129.432"><feColorMatrix values="1 0 0 0 0 0 1 0 0 0 0 0 1 0 0 0 0 0 1 0"/></filter></defs><mask maskUnits="userSpaceOnUse" x="49" y="37.645" width="114.342" height="129.432" id="b"><g transform="translate(.25 -.25)" filter="url(#a)"><circle fill="#D45B3E" cx="85.25" cy="86.026" r="74"/><path fill="#C45237" d="M85.265 12.026l-.021.002v147.998h.021c40.86 0 73.984-33.131 73.984-74s-33.123-74-73.984-74z"/></g></mask><path mask="url(#b)" fill="#B14731" d="M61.574 132.142l35.256 34.935 32.925-13.833 18.385-17.324 10.96-19.799 4.243-22.627-.354-3.182.177-3.359-77.65-49.308-8.482 1.572-2.721 5.918v5.375c0 .5.5 3 .5 3l-4.875 6.75h-8.625l-8.375 4.5-2.438 5.516-1.25 6 1.25 4.625 1.75 2.625.625.75L49 94.651l1.625 13.25 4.875 9 4 5.25 2.5 4.375-.426 5.616z"/><path fill="#FFF" d="M117.802 89.916h-1.697c-1.777-4.925-4.935-9.373-9.198-12.927-.02-.08-.04-.139-.06-.218-.67-2.383-.197-4.905 1.422-7.486.69-1.093.67-2.443-.02-3.535a3.24 3.24 0 0 0-3.178-1.509c-5.842.735-9.198 3.495-11.053 5.917a38.366 38.366 0 0 0-6.218-1.27 1.196 1.196 0 0 0-1.322 1.032 1.2 1.2 0 0 0 1.026 1.33c2.25.278 4.48.755 6.613 1.43a1.195 1.195 0 0 0 1.342-.476c1.46-2.185 4.362-4.925 9.908-5.62.514-.06.79.278.889.417a.904.904 0 0 1 0 .993c-1.955 3.137-2.547 6.394-1.698 9.412.02.08.04.159.04.238.02.338.177.675.434.894 4.342 3.514 7.48 8.002 9.1 12.946.157.497.61.815 1.124.815h2.566a2.34 2.34 0 0 1 2.33 2.343v8.697a2.34 2.34 0 0 1-2.33 2.343h-2.428c-.513 0-.987.338-1.125.834-1.362 4.448-7.52 11.735-8.152 12.49l-.454.397-.02.02c-3.888 3.534-4.282 7.684-4.302 8.856v2.899a.71.71 0 0 1-.71.715H89.043a.71.71 0 0 1-.71-.715v-2.74c0-.338-.139-.656-.395-.894-.257-.218-.593-.337-.908-.298-2.98.318-5.981.258-8.902-.119a1.28 1.28 0 0 0-.948.278 1.196 1.196 0 0 0-.414.894v2.879a.71.71 0 0 1-.71.715H64.47a.713.713 0 0 1-.71-.655v-.994c-.1-2.005-.73-7.148-4.678-11.238-2.033-2.105-3.85-4.865-5.389-8.201 0-.02-.02-.04-.02-.04a25.377 25.377 0 0 1-2.092-5.62v-.039l-.02-.08c0-.02 0-.02-.02-.039-.77-2.542-.67-5.699-.67-5.739v-.04c0-1.37.118-2.76.335-4.11.099-.655-.335-1.27-.967-1.37-.651-.1-1.263.338-1.362.973a28.288 28.288 0 0 0-.375 4.488c0 .318-.079 3.634.77 6.453l.02.06a28.896 28.896 0 0 0 2.27 6.116c1.657 3.574 3.611 6.552 5.822 8.836 3.375 3.495 3.928 7.903 4.027 9.67v1.053a3.094 3.094 0 0 0 3.079 2.899h11.586c1.698 0 3.08-1.39 3.08-3.098v-1.549c2.25.219 4.52.258 6.809.1v1.449c0 1.708 1.381 3.098 3.079 3.098h11.586c1.698 0 3.08-1.39 3.08-3.098v-2.86c.02-.694.276-4.17 3.513-7.128l.493-.437.119-.119c.276-.318 6.395-7.446 8.388-12.57h1.58c2.585 0 4.697-2.124 4.697-4.725v-8.697c0-2.602-2.112-4.726-4.698-4.726z"/><path fill="#FFF" d="M64.154 59.376c-8.546 0-15.494 7.01-15.494 15.588 0 8.598 6.948 15.587 15.494 15.587s15.495-6.99 15.495-15.587S72.7 59.376 64.154 59.376zm0 28.792c-7.244 0-13.126-5.917-13.126-13.204s5.882-13.205 13.126-13.205S77.28 67.696 77.28 74.964c0 7.287-5.882 13.204-13.126 13.204zm18.613-50.892c-5.822 0-10.56 4.765-10.56 10.623s4.718 10.623 10.56 10.623c5.823 0 10.56-4.765 10.56-10.623s-4.737-10.623-10.56-10.623zm0 18.863c-4.52 0-8.191-3.693-8.191-8.24s3.671-8.24 8.191-8.24 8.192 3.693 8.192 8.24-3.672 8.24-8.192 8.24z"/></svg>