<?xml version="1.0" encoding="UTF-8" standalone="no"?>
<!-- Generator: Adobe Illustrator 17.0.0, SVG Export Plug-In . SVG Version: 6.00 Build 0)  -->

<svg
   xmlns:dc="http://purl.org/dc/elements/1.1/"
   xmlns:cc="http://creativecommons.org/ns#"
   xmlns:rdf="http://www.w3.org/1999/02/22-rdf-syntax-ns#"
   xmlns:svg="http://www.w3.org/2000/svg"
   xmlns="http://www.w3.org/2000/svg"
   xmlns:sodipodi="http://sodipodi.sourceforge.net/DTD/sodipodi-0.dtd"
   xmlns:inkscape="http://www.inkscape.org/namespaces/inkscape"
   version="1.1"
   id="Слой_1"
   sodipodi:docname="Результат.svg"
   inkscape:version="0.91 r13725"
   x="0px"
   y="0px"
   width="171px"
   height="171px"
   viewBox="0 0 171 171"
   enable-background="new 0 0 171 171"
   xml:space="preserve"><metadata
     id="metadata12"><rdf:RDF><cc:Work
         rdf:about=""><dc:format>image/svg+xml</dc:format><dc:type
           rdf:resource="http://purl.org/dc/dcmitype/StillImage" /><dc:title></dc:title></cc:Work></rdf:RDF></metadata><defs
     id="defs10"><mask
       maskUnits="userSpaceOnUse"
       id="mask4239"><g
         id="g4241"><circle
           id="circle4243"
           cx="85.333"
           cy="85.972"
           r="74"
           style="fill:#d45b3e" /><path
           id="path4245"
           inkscape:connector-curvature="0"
           d="m 85.348,11.972 c -0.007,0.001 -0.014,0.001 -0.021,0.002 l 0,147.998 c 0.007,0 0.014,0 0.021,0 40.86,0 73.984,-33.131 73.984,-74 0,-40.869 -33.123,-74 -73.984,-74 0,0 0,0 0,0 z"
           style="fill:#c45237" /></g></mask></defs><sodipodi:namedview
     showguides="false"
     inkscape:cy="35.248351"
     inkscape:cx="104.33487"
     inkscape:zoom="2.0000001"
     showgrid="false"
     guidetolerance="10"
     gridtolerance="10"
     objecttolerance="10"
     borderopacity="1"
     bordercolor="#666666"
     pagecolor="#ffffff"
     id="namedview61"
     inkscape:guide-bbox="true"
     inkscape:current-layer="Слой_1"
     inkscape:window-maximized="1"
     inkscape:window-y="-8"
     inkscape:window-x="-8"
     inkscape:window-height="801"
     inkscape:window-width="1536"
     inkscape:pageshadow="2"
     inkscape:pageopacity="0"><inkscape:grid
       type="xygrid"
       id="grid4289" /></sodipodi:namedview><g
     id="g4247"><g
       id="g4274"><circle
         id="path4230"
         cx="85.333"
         cy="85.972"
         r="74"
         style="fill:#d45b3e" /><path
         id="path4278"
         inkscape:connector-curvature="0"
         d="m 85.348,11.972 c -0.007,0.001 -0.014,0.001 -0.021,0.002 l 0,147.998 c 0.007,0 0.014,0 0.021,0 40.86,0 73.984,-33.131 73.984,-74 0,-40.869 -33.123,-74 -73.984,-74 0,0 0,0 0,0 z"
         style="fill:#c45237" /></g><path
       id="path4271"
       inkscape:connector-curvature="0"
       enable-background="new    "
       d="m 85.583,1.222 c 46.624,0 84.5,37.876 84.5,84.5 0,46.624 -37.876,84.5 -84.5,84.5 -46.624,0 -84.5,-37.876 -84.5,-84.5 0,-46.624 37.876,-84.5 84.5,-84.5 z"
       style="opacity:0.2;fill:none;stroke:#ffffff" /><path
       mask="url(#mask4239)"
       sodipodi:nodetypes="ccccccccccc"
       inkscape:connector-curvature="0"
       id="path4210"
       d="m 51.378597,120.95749 44.434369,43.325 39.244424,-9.8995 21.2132,-33.23402 6.71752,-28.284267 -1.06066,-6.010408 -50.45458,-32.060001 -8.58884,3.775731 L 95.01211,51.0106 73.539103,65.287539 Z"
       style="fill:#b14731;fill-opacity:1;fill-rule:evenodd;stroke:none;stroke-width:1px;stroke-linecap:butt;stroke-linejoin:miter;stroke-opacity:1" /><g
       transform="matrix(0.14277406,0,0,0.14281459,50.342862,50.972)"
       id="g4189"><g
         id="g4145"><g
           id="g4147"><path
             style="fill:#ffffff"
             inkscape:connector-curvature="0"
             d="m 294.636,81.562 0,-15.023 15.023,0 23.697,0 L 313.089,0 156.242,0 6.935,490.146 l 132.714,0 24.131,-104.062 137.243,0 24.131,104.062 137.242,0 -83.771,-275.01 -13.961,0 -15.021,0 0,-15.023 0,-39.978 -39.98,0 -15.022,0 0,-15.023 0,-63.55 -0.005,0 z m -107.477,204.233 8.296,-33.933 c 12.064,-46.756 24.128,-105.57 34.687,-155.34 l 3.017,0 c 12.063,49.013 24.129,108.583 36.195,155.34 l 8.296,33.933 -90.491,0 z"
             id="path4149" /><polygon
             style="fill:#ffffff"
             points="309.659,145.112 357.29,145.112 364.661,145.112 364.661,169.305 364.661,200.113 374.046,200.113 428.212,200.113 428.212,145.112 483.212,145.112 483.212,81.562 428.212,81.562 428.212,26.557 364.661,26.557 364.661,81.562 337.933,81.562 309.659,81.562 "
             id="polygon4151" /></g></g><g
         id="g4153" /><g
         id="g4155" /><g
         id="g4157" /><g
         id="g4159" /><g
         id="g4161" /><g
         id="g4163" /><g
         id="g4165" /><g
         id="g4167" /><g
         id="g4169" /><g
         id="g4171" /><g
         id="g4173" /><g
         id="g4175" /><g
         id="g4177" /><g
         id="g4179" /><g
         id="g4181" /></g></g></svg>