<?xml version="1.0" encoding="UTF-8" standalone="no"?>
<!-- Generator: Adobe Illustrator 17.0.0, SVG Export Plug-In . SVG Version: 6.00 Build 0)  -->

<svg
   xmlns:dc="http://purl.org/dc/elements/1.1/"
   xmlns:cc="http://creativecommons.org/ns#"
   xmlns:rdf="http://www.w3.org/1999/02/22-rdf-syntax-ns#"
   xmlns:svg="http://www.w3.org/2000/svg"
   xmlns="http://www.w3.org/2000/svg"
   xmlns:sodipodi="http://sodipodi.sourceforge.net/DTD/sodipodi-0.dtd"
   xmlns:inkscape="http://www.inkscape.org/namespaces/inkscape"
   version="1.1"
   id="Слой_1"
   sodipodi:docname="Гибкость.svg"
   inkscape:version="0.91 r13725"
   x="0px"
   y="0px"
   width="171px"
   height="171px"
   viewBox="0 0 171 171"
   enable-background="new 0 0 171 171"
   xml:space="preserve"><metadata
     id="metadata12"><rdf:RDF><cc:Work
         rdf:about=""><dc:format>image/svg+xml</dc:format><dc:type
           rdf:resource="http://purl.org/dc/dcmitype/StillImage" /><dc:title></dc:title></cc:Work></rdf:RDF></metadata><defs
     id="defs10"><mask
       maskUnits="userSpaceOnUse"
       id="mask4181"><g
         id="g4183"><circle
           id="circle4185"
           cx="85.333"
           cy="85.972"
           r="74"
           style="fill:#d45b3e" /><path
           id="path4187"
           inkscape:connector-curvature="0"
           d="m 85.348,11.972 c -0.007,0.001 -0.014,0.001 -0.021,0.002 l 0,147.998 c 0.007,0 0.014,0 0.021,0 40.86,0 73.984,-33.131 73.984,-74 0,-40.869 -33.123,-74 -73.984,-74 0,0 0,0 0,0 z"
           style="fill:#c45237" /></g></mask></defs><sodipodi:namedview
     showguides="false"
     inkscape:cy="-33.156929"
     inkscape:cx="127.2203"
     inkscape:zoom="1"
     showgrid="false"
     guidetolerance="10"
     gridtolerance="10"
     objecttolerance="10"
     borderopacity="1"
     bordercolor="#666666"
     pagecolor="#ffffff"
     id="namedview61"
     inkscape:guide-bbox="true"
     inkscape:current-layer="Слой_1"
     inkscape:window-maximized="1"
     inkscape:window-y="-8"
     inkscape:window-x="-8"
     inkscape:window-height="801"
     inkscape:window-width="1536"
     inkscape:pageshadow="2"
     inkscape:pageopacity="0"><inkscape:grid
       type="xygrid"
       id="grid4289" /></sodipodi:namedview><g
     id="g4189"><g
       id="g4274"><circle
         id="path4230"
         cx="85.333"
         cy="85.972"
         r="74"
         style="fill:#d45b3e" /><path
         id="path4278"
         inkscape:connector-curvature="0"
         d="m 85.348,11.972 c -0.007,0.001 -0.014,0.001 -0.021,0.002 l 0,147.998 c 0.007,0 0.014,0 0.021,0 40.86,0 73.984,-33.131 73.984,-74 0,-40.869 -33.123,-74 -73.984,-74 0,0 0,0 0,0 z"
         style="fill:#c45237" /></g><path
       id="path4271"
       inkscape:connector-curvature="0"
       enable-background="new    "
       d="m 85.583,1.222 c 46.624,0 84.5,37.876 84.5,84.5 0,46.624 -37.876,84.5 -84.5,84.5 -46.624,0 -84.5,-37.876 -84.5,-84.5 0,-46.624 37.876,-84.5 84.5,-84.5 z"
       style="opacity:0.2;fill:none;stroke:#ffffff" /><path
       mask="url(#mask4181)"
       sodipodi:nodetypes="cccccccccccccccccccc"
       inkscape:connector-curvature="0"
       id="path4173"
       d="m 40.712737,85.067594 5.746876,8.638737 -1.709614,9.043669 -2.3125,5.1875 L 97.249997,163.25 120.5,160.5 l 25.25,-18.25 14.5,-26.5 1.75,-26.249998 -51.5,-50.093749 -13.906252,14.9375 9.062502,8.21875 -8.562502,0.5625 -4.84375,1.375 -20.484835,-19.265165 3.734835,10.015165 -6,3 -10.75,3.25 -12.249999,12.999999 z"
       style="fill:#b14731;fill-opacity:1;fill-rule:evenodd;stroke:none;stroke-width:1px;stroke-linecap:butt;stroke-linejoin:miter;stroke-opacity:1" /><g
       transform="matrix(0.3240445,0,0,0.32323232,37.212332,37.972001)"
       id="g4146"><path
         style="fill:#ffffff"
         inkscape:connector-curvature="0"
         d="m 112.632,185.074 6.88,-3.972 c 2.804,-1.619 3.765,-5.205 2.146,-8.01 l -13.036,-22.579 c -1.086,-1.881 -3.057,-2.933 -5.083,-2.933 -0.995,0 -2.003,0.253 -2.926,0.787 l -6.88,3.972 c -0.945,0.545 -1.947,0.794 -2.923,0.794 -3.063,0 -5.872,-2.449 -5.872,-5.872 l 0,-7.944 c 0,-3.238 -2.625,-5.864 -5.864,-5.864 l -26.073,0 c -3.238,0 -5.864,2.625 -5.864,5.864 l 0,7.944 c 0,3.423 -2.81,5.872 -5.872,5.872 -0.976,0 -1.978,-0.249 -2.923,-0.794 l -6.88,-3.972 c -0.923,-0.533 -1.932,-0.786 -2.926,-0.787 -2.027,0 -3.997,1.052 -5.083,2.933 l -13.036,22.579 c -1.619,2.805 -0.658,6.391 2.146,8.01 l 6.88,3.972 c 3.909,2.257 3.909,7.899 0,10.156 l -6.88,3.972 c -2.805,1.619 -3.765,5.205 -2.146,8.01 l 13.036,22.579 c 1.086,1.881 3.057,2.933 5.083,2.933 0.995,0 2.003,-0.254 2.926,-0.787 l 6.88,-3.972 c 0.945,-0.545 1.947,-0.794 2.923,-0.794 3.063,0 5.872,2.449 5.872,5.872 l 0,7.944 c 0,3.238 2.625,5.864 5.864,5.864 l 26.072,0 c 3.238,0 5.864,-2.625 5.864,-5.864 l 0,-7.944 c 0,-3.423 2.81,-5.872 5.872,-5.872 0.976,0 1.978,0.249 2.923,0.794 l 6.88,3.972 c 0.923,0.533 1.932,0.787 2.926,0.787 2.027,0 3.997,-1.052 5.083,-2.933 l 13.036,-22.579 c 1.619,-2.805 0.658,-6.391 -2.146,-8.01 l -6.88,-3.972 c -3.908,-2.257 -3.908,-7.9 0.001,-10.156 z m -46.594,22.474 c -9.608,0 -17.396,-7.789 -17.396,-17.396 0,-9.608 7.789,-17.396 17.396,-17.396 9.607,0 17.396,7.789 17.396,17.396 0,9.607 -7.789,17.396 -17.396,17.396 z"
         id="path4148" /><path
         style="fill:#ffffff"
         inkscape:connector-curvature="0"
         d="m 108.109,23.659 c -3.146,-3.144 -8.243,-3.144 -11.389,0 -3.145,3.146 -3.145,8.244 0,11.389 l 14.39,14.389 C 58.221,52.056 15.409,93.599 10.776,145.943 l 1.19,-2.062 c 3.406,-5.9 9.756,-9.565 16.57,-9.564 0.144,0 0.287,0.013 0.431,0.017 9.074,-37.721 41.965,-66.251 81.815,-68.729 L 96.72,79.666 c -3.145,3.145 -3.145,8.244 0,11.389 1.573,1.572 3.633,2.358 5.694,2.358 2.061,0 4.122,-0.786 5.694,-2.358 l 28.004,-28.004 c 1.51,-1.511 2.358,-3.559 2.358,-5.694 0,-2.136 -0.848,-4.184 -2.358,-5.694 L 108.109,23.659 Z"
         id="path4150" /><path
         style="fill:#ffffff"
         inkscape:connector-curvature="0"
         d="m 209.868,64.857 c 17.881,0 32.428,-14.547 32.428,-32.428 C 242.296,14.547 227.749,0 209.868,0 191.987,0 177.44,14.547 177.44,32.428 c 0,17.881 14.547,32.429 32.428,32.429 z"
         id="path4152" /><path
         style="fill:#ffffff"
         inkscape:connector-curvature="0"
         d="m 273.039,152.276 0,-44.58 c 0,-12.34 -7.93,-23.283 -19.657,-27.124 l -0.054,-0.018 -17.152,-2.84 c -1.46,-0.449 -3.02,0.324 -3.545,1.764 l -19.462,53.399 c -1.123,3.081 -5.48,3.081 -6.602,0 L 187.105,79.478 c -0.424,-1.163 -1.522,-1.892 -2.698,-1.892 -0.279,0 -17.999,2.964 -17.999,2.964 -11.823,3.94 -19.723,14.9 -19.723,27.294 l 0,44.432 c 0,6.659 5.398,12.056 12.056,12.056 l 102.241,0 c 6.66,0 12.057,-5.398 12.057,-12.056 z"
         id="path4154" /><path
         style="fill:#ffffff"
         inkscape:connector-curvature="0"
         d="m 287.37,162.933 c -0.673,9.215 -8.233,14.858 -17.45,15.526 -7.062,40.425 -41.207,71.64 -82.979,74.237 l 14.061,-14.061 c 3.145,-3.146 3.145,-8.244 0,-11.389 -3.146,-3.144 -8.243,-3.144 -11.389,0 L 161.61,255.25 c -3.145,3.146 -3.145,8.244 0,11.389 l 28.003,28.003 c 1.573,1.572 3.633,2.358 5.694,2.358 2.061,0 4.122,-0.786 5.694,-2.358 3.145,-3.145 3.145,-8.244 0,-11.389 L 186.612,268.864 C 242.64,266.09 287.37,219.637 287.37,162.933 Z"
         id="path4156" /><path
         style="fill:#ffffff"
         inkscape:connector-curvature="0"
         d="m 216.936,77.105 c -0.747,-0.814 -1.84,-1.224 -2.946,-1.224 l -8.245,0 c -1.105,0 -2.198,0.41 -2.946,1.224 -1.157,1.261 -1.325,3.082 -0.504,4.505 l 4.407,6.644 -2.063,17.405 4.063,10.808 c 0.396,1.087 1.933,1.087 2.33,0 l 4.063,-10.808 -2.063,-17.405 4.407,-6.644 c 0.822,-1.423 0.654,-3.244 -0.503,-4.505 z"
         id="path4158" /></g></g></svg>