<svg xmlns="http://www.w3.org/2000/svg" width="171" height="171" viewBox="0 0 171 171"><defs><mask maskUnits="userSpaceOnUse" id="a"><circle cx="85.333" cy="85.972" r="74" fill="#d45b3e"/><path d="M85.348 11.972l-.021.002v147.998h.021c40.86 0 73.984-33.131 73.984-74s-33.123-74-73.984-74z" fill="#c45237"/></mask></defs><circle cx="85.333" cy="85.972" r="74" fill="#d45b3e"/><path d="M85.348 11.972l-.021.002v147.998h.021c40.86 0 73.984-33.131 73.984-74s-33.123-74-73.984-74z" fill="#c45237"/><path d="M85.583 1.222c46.624 0 84.5 37.876 84.5 84.5s-37.876 84.5-84.5 84.5-84.5-37.876-84.5-84.5 37.876-84.5 84.5-84.5z" opacity=".2" fill="none" stroke="#fff"/><path mask="url(#a)" d="M40.713 85.068l5.747 8.638-1.71 9.044-2.313 5.188L97.25 163.25l23.25-2.75 25.25-18.25 14.5-26.5L162 89.5l-51.5-50.094-13.906 14.938 9.062 8.219-8.562.562L92.25 64.5 71.765 45.235 75.5 55.25l-6 3-10.75 3.25-12.25 13z" fill="#b14731" fill-rule="evenodd"/><g fill="#fff"><path d="M73.71 97.794l2.23-1.284a1.893 1.893 0 0 0 .695-2.59l-4.224-7.297a1.9 1.9 0 0 0-2.596-.694l-2.229 1.284a1.89 1.89 0 0 1-.947.257c-.993 0-1.903-.792-1.903-1.898v-2.568c0-1.047-.85-1.896-1.9-1.896h-8.449c-1.05 0-1.9.849-1.9 1.896v2.568c0 1.106-.91 1.898-1.903 1.898a1.89 1.89 0 0 1-.947-.257l-2.23-1.284a1.899 1.899 0 0 0-2.595.694l-4.224 7.298a1.893 1.893 0 0 0 .695 2.589l2.23 1.284c1.266.73 1.266 2.553 0 3.283l-2.23 1.284a1.893 1.893 0 0 0-.695 2.589l4.224 7.298a1.9 1.9 0 0 0 2.595.694l2.23-1.284a1.89 1.89 0 0 1 .947-.257c.993 0 1.903.792 1.903 1.898v2.568c0 1.046.85 1.895 1.9 1.895h8.449c1.049 0 1.9-.848 1.9-1.895v-2.568c0-1.106.91-1.898 1.902-1.898.317 0 .641.08.948.257l2.23 1.284a1.9 1.9 0 0 0 2.595-.694l4.224-7.298a1.893 1.893 0 0 0-.696-2.59l-2.23-1.283c-1.266-.73-1.266-2.554.001-3.283zm-15.098 7.264c-3.114 0-5.637-2.517-5.637-5.623 0-3.105 2.523-5.623 5.637-5.623 3.113 0 5.637 2.518 5.637 5.623 0 3.106-2.524 5.623-5.637 5.623zM72.244 45.62a2.615 2.615 0 0 0-3.69 0 2.598 2.598 0 0 0 0 3.68l4.663 4.652c-17.138.846-31.011 14.274-32.513 31.193l.386-.666a6.219 6.219 0 0 1 5.37-3.091c.046 0 .092.004.139.005C49.539 69.2 60.197 59.98 73.11 59.178l-4.557 4.545a2.598 2.598 0 0 0 0 3.68c.51.509 1.177.763 1.845.763.668 0 1.336-.254 1.845-.762l9.075-9.052a2.6 2.6 0 0 0 0-3.68l-9.075-9.053zm32.975 13.316c5.794 0 10.508-4.702 10.508-10.482 0-5.78-4.714-10.482-10.508-10.482-5.794 0-10.508 4.702-10.508 10.482 0 5.78 4.714 10.482 10.508 10.482zm20.471 28.257v-14.41a9.228 9.228 0 0 0-6.37-8.768l-.018-.005-5.558-.918a.932.932 0 0 0-1.149.57l-6.306 17.26c-.364.996-1.776.996-2.14 0l-6.306-17.26a.931.931 0 0 0-.875-.612c-.09 0-5.832.958-5.832.958-3.831 1.274-6.391 4.817-6.391 8.823v14.362a3.902 3.902 0 0 0 3.906 3.896h33.131a3.902 3.902 0 0 0 3.907-3.896zm4.643 3.444c-.218 2.979-2.668 4.803-5.655 5.019-2.288 13.066-13.352 23.156-26.888 23.996l4.556-4.545a2.598 2.598 0 0 0 0-3.682 2.615 2.615 0 0 0-3.69 0l-9.075 9.052a2.598 2.598 0 0 0 0 3.681l9.074 9.052c.51.508 1.178.762 1.845.762a2.605 2.605 0 0 0 1.846-4.443l-4.663-4.651c18.155-.897 32.65-15.912 32.65-34.24z"/><path d="M107.51 62.895a1.292 1.292 0 0 0-.955-.396h-2.672c-.358 0-.712.133-.955.396-.375.407-.43.996-.163 1.456l1.428 2.148-.669 5.625 1.317 3.494a.402.402 0 0 0 .755 0l1.317-3.494-.669-5.625 1.428-2.148a1.233 1.233 0 0 0-.163-1.456z"/></g></svg>