<?xml version="1.0" encoding="UTF-8" standalone="no"?>
<!-- Generator: Adobe Illustrator 17.0.0, SVG Export Plug-In . SVG Version: 6.00 Build 0)  -->

<svg
   xmlns:dc="http://purl.org/dc/elements/1.1/"
   xmlns:cc="http://creativecommons.org/ns#"
   xmlns:rdf="http://www.w3.org/1999/02/22-rdf-syntax-ns#"
   xmlns:svg="http://www.w3.org/2000/svg"
   xmlns="http://www.w3.org/2000/svg"
   xmlns:sodipodi="http://sodipodi.sourceforge.net/DTD/sodipodi-0.dtd"
   xmlns:inkscape="http://www.inkscape.org/namespaces/inkscape"
   version="1.1"
   id="Слой_1"
   sodipodi:docname="Мониторинг.svg"
   inkscape:version="0.91 r13725"
   x="0px"
   y="0px"
   width="171px"
   height="171px"
   viewBox="0 0 171 171"
   enable-background="new 0 0 171 171"
   xml:space="preserve"><metadata
     id="metadata12"><rdf:RDF><cc:Work
         rdf:about=""><dc:format>image/svg+xml</dc:format><dc:type
           rdf:resource="http://purl.org/dc/dcmitype/StillImage" /><dc:title></dc:title></cc:Work></rdf:RDF></metadata><defs
     id="defs10"><mask
       maskUnits="userSpaceOnUse"
       id="mask4236"><g
         id="g4238"><circle
           id="circle4240"
           cx="85.333"
           cy="85.972"
           r="74"
           style="fill:#d45b3e" /><path
           id="path4242"
           inkscape:connector-curvature="0"
           d="m 85.348,11.972 c -0.007,0.001 -0.014,0.001 -0.021,0.002 l 0,147.998 c 0.007,0 0.014,0 0.021,0 40.86,0 73.984,-33.131 73.984,-74 0,-40.869 -33.123,-74 -73.984,-74 0,0 0,0 0,0 z"
           style="fill:#c45237" /></g></mask></defs><sodipodi:namedview
     showguides="false"
     inkscape:cy="-20.695025"
     inkscape:cx="65.852403"
     inkscape:zoom="1.4142136"
     showgrid="false"
     guidetolerance="10"
     gridtolerance="10"
     objecttolerance="10"
     borderopacity="1"
     bordercolor="#666666"
     pagecolor="#ffffff"
     id="namedview61"
     inkscape:guide-bbox="true"
     inkscape:current-layer="Слой_1"
     inkscape:window-maximized="1"
     inkscape:window-y="-8"
     inkscape:window-x="-8"
     inkscape:window-height="801"
     inkscape:window-width="1536"
     inkscape:pageshadow="2"
     inkscape:pageopacity="0"><inkscape:grid
       type="xygrid"
       id="grid4289" /></sodipodi:namedview><g
     id="g4244"><g
       id="g4274"><circle
         id="path4230"
         cx="85.333"
         cy="85.972"
         r="74"
         style="fill:#d45b3e" /><path
         id="path4278"
         inkscape:connector-curvature="0"
         d="m 85.348,11.972 c -0.007,0.001 -0.014,0.001 -0.021,0.002 l 0,147.998 c 0.007,0 0.014,0 0.021,0 40.86,0 73.984,-33.131 73.984,-74 0,-40.869 -33.123,-74 -73.984,-74 0,0 0,0 0,0 z"
         style="fill:#c45237" /></g><path
       id="path4271"
       inkscape:connector-curvature="0"
       enable-background="new    "
       d="m 85.583,1.222 c 46.624,0 84.5,37.876 84.5,84.5 0,46.624 -37.876,84.5 -84.5,84.5 -46.624,0 -84.5,-37.876 -84.5,-84.5 0,-46.624 37.876,-84.5 84.5,-84.5 z"
       style="opacity:0.2;fill:none;stroke:#ffffff" /><path
       mask="url(#mask4236)"
       sodipodi:nodetypes="ccccccccccccc"
       inkscape:connector-curvature="0"
       id="path4228"
       d="m 43.102263,102.75255 60.665657,61.35316 32.52691,-11.84404 21.2132,-28.99138 3.18198,-20.32932 1.41422,-13.435024 0.17677,-4.772971 -40.52606,-38.272154 -62.004419,1.679379 -11.667261,0.176777 -3.005204,2.828427 -0.883883,6.894291 z"
       style="fill:#b14731;fill-opacity:1;fill-rule:evenodd;stroke:none;stroke-width:1px;stroke-linecap:butt;stroke-linejoin:miter;stroke-opacity:1" /><g
       transform="matrix(0.1653043,0,0,0.1653043,43.015099,43.654017)"
       id="g4201"><g
         transform="translate(1,1)"
         id="g4145"><g
           id="g4147"><g
             id="g4149"><path
               style="fill:#ffffff"
               inkscape:connector-curvature="0"
               d="m 50.2,75.8 93.867,0 c 5.12,0 8.533,-3.413 8.533,-8.533 0,-5.12 -3.413,-8.533 -8.533,-8.533 l -93.867,0 c -5.12,0 -8.533,3.413 -8.533,8.533 0,5.12 3.413,8.533 8.533,8.533 z"
               id="path4151" /><path
               style="fill:#ffffff"
               inkscape:connector-curvature="0"
               d="m 178.2,75.8 76.8,0 c 5.12,0 8.533,-3.413 8.533,-8.533 0,-5.12 -3.413,-8.533 -8.533,-8.533 l -76.8,0 c -5.12,0 -8.533,3.413 -8.533,8.533 0,5.12 3.413,8.533 8.533,8.533 z"
               id="path4153" /><path
               style="fill:#ffffff"
               inkscape:connector-curvature="0"
               d="m 109.933,101.4 c 0,-5.12 -3.413,-8.533 -8.533,-8.533 l -51.2,0 c -5.12,0 -8.533,3.413 -8.533,8.533 0,5.12 3.413,8.533 8.533,8.533 l 51.2,0 c 5.12,0 8.533,-3.413 8.533,-8.533 z"
               id="path4155" /><path
               style="fill:#ffffff"
               inkscape:connector-curvature="0"
               d="m 135.533,92.867 c -5.12,0 -8.533,3.413 -8.533,8.533 0,5.12 3.413,8.533 8.533,8.533 l 76.8,0 c 5.12,0 8.533,-3.413 8.533,-8.533 0,-5.12 -3.413,-8.533 -8.533,-8.533 l -76.8,0 z"
               id="path4157" /><path
               style="fill:#ffffff"
               inkscape:connector-curvature="0"
               d="m 255,92.867 -8.533,0 c -5.12,0 -8.533,3.413 -8.533,8.533 0,5.12 3.413,8.533 8.533,8.533 l 8.533,0 c 5.12,0 8.533,-3.413 8.533,-8.533 0,-5.12 -3.413,-8.533 -8.533,-8.533 z"
               id="path4159" /><path
               style="fill:#ffffff"
               inkscape:connector-curvature="0"
               d="m 472.6,16.067 -435.2,0 c -21.333,0 -38.4,17.067 -38.4,38.4 l 0,260.267 0,38.4 c 0,21.333 17.067,38.4 38.4,38.4 l 163.84,0 -12.8,51.2 -1.707,0 c -23.893,0 -42.667,18.773 -42.667,42.667 0,5.12 3.413,8.533 8.533,8.533 l 204.8,0 c 5.12,0 8.533,-3.413 8.533,-8.533 0,-23.893 -18.773,-42.667 -42.667,-42.667 l -1.707,0 -12.8,-51.2 163.842,0 c 21.333,0 38.4,-17.067 38.4,-38.4 l 0,-38.4 0,-260.267 c 0,-21.334 -17.067,-38.4 -38.4,-38.4 z m -456.533,38.4 c 0,-11.947 9.387,-21.333 21.333,-21.333 l 435.2,0 c 11.947,0 21.333,9.387 21.333,21.333 l 0,251.733 -477.866,0 0,-251.733 z m 331.946,422.4 -185.173,0 c 3.413,-10.24 12.8,-17.067 23.893,-17.067 l 8.533,0 119.467,0 9.387,0 c 11.093,0 20.48,6.827 23.893,17.067 z m -44.373,-34.134 -97.28,0 12.8,-51.2 71.68,0 12.8,51.2 z m 190.293,-89.6 c 0,11.947 -9.387,21.333 -21.333,21.333 l -174.933,0 -85.333,0 -174.934,0 c -11.947,0 -21.333,-9.387 -21.333,-21.333 l 0,-29.867 477.867,0 0,29.867 z"
               id="path4161" /><path
               style="fill:#ffffff"
               inkscape:connector-curvature="0"
               d="m 425.667,195.267 c -4.07,0 -7.979,0.724 -11.607,2.047 l -41.64,-41.64 c 1.322,-3.628 2.047,-7.536 2.047,-11.607 0,-18.773 -15.36,-34.133 -34.133,-34.133 -18.773,0 -34.133,15.36 -34.133,34.133 0,4.07 0.724,7.979 2.047,11.607 l -61.459,61.46 c -5.101,-3.043 -11.048,-4.8 -17.387,-4.8 -4.07,0 -7.979,0.724 -11.607,2.047 l -16.04,-16.04 c 1.322,-3.628 2.047,-7.536 2.047,-11.607 0,-18.773 -15.36,-34.133 -34.133,-34.133 -18.773,0 -34.133,15.36 -34.133,34.133 0,4.07 0.724,7.979 2.047,11.607 l -16.04,16.04 c -3.628,-1.322 -7.536,-2.047 -11.607,-2.047 -18.773,0 -34.133,15.36 -34.133,34.133 0,18.773 15.36,34.133 34.133,34.133 18.773,0 34.133,-15.36 34.133,-34.133 0,-8.523 -3.173,-16.336 -8.386,-22.333 l 11.653,-11.653 c 5.998,5.214 13.811,8.386 22.333,8.386 8.522,0 16.336,-3.173 22.333,-8.386 l 11.653,11.653 c -5.214,5.998 -8.386,13.811 -8.386,22.333 0,18.773 15.36,34.133 34.133,34.133 18.773,0 34.133,-15.36 34.133,-34.133 0,-6.339 -1.757,-12.286 -4.8,-17.387 L 318,169.814 c 5.998,5.214 13.811,8.386 22.333,8.386 8.522,0 16.336,-3.173 22.333,-8.386 l 37.253,37.253 c -5.214,5.998 -8.387,13.811 -8.387,22.334 0,18.773 15.36,34.133 34.133,34.133 18.773,0 34.135,-15.361 34.135,-34.134 0,-18.773 -15.36,-34.133 -34.133,-34.133 z m -315.734,68.266 c -9.387,0 -17.067,-7.68 -17.067,-17.067 0,-9.387 7.68,-17.067 17.067,-17.067 9.387,0 17.067,7.681 17.067,17.068 0,9.387 -7.68,17.066 -17.067,17.066 z M 169.667,203.8 c -5.204,0 -9.876,-2.366 -13.013,-6.069 -0.347,-1.504 -1.124,-2.948 -2.347,-4.171 -0.139,-0.139 -0.286,-0.264 -0.431,-0.392 -0.817,-1.989 -1.276,-4.16 -1.276,-6.435 0,-9.387 7.68,-17.067 17.067,-17.067 9.387,0 17.067,7.68 17.067,17.067 0,2.275 -0.459,4.445 -1.276,6.435 -0.145,0.128 -0.291,0.253 -0.431,0.392 -1.223,1.223 -2,2.667 -2.347,4.171 -3.137,3.703 -7.81,6.069 -13.013,6.069 z m 59.733,59.733 c -9.387,0 -17.067,-7.68 -17.067,-17.067 0,-9.387 7.68,-17.067 17.067,-17.067 4.249,0 8.139,1.585 11.135,4.178 0.247,0.324 0.512,0.642 0.812,0.942 0.342,0.342 0.685,0.64 1.034,0.913 2.541,2.982 4.086,6.833 4.086,11.034 0,9.387 -7.68,17.067 -17.067,17.067 z m 110.933,-102.4 c -9.387,0 -17.067,-7.68 -17.067,-17.067 0,-9.387 7.681,-17.066 17.067,-17.066 9.386,0 17.067,7.68 17.067,17.067 0,2.275 -0.459,4.445 -1.276,6.435 -0.145,0.128 -0.291,0.253 -0.431,0.392 -1.223,1.223 -2,2.667 -2.347,4.171 -3.136,3.702 -7.809,6.068 -13.013,6.068 z m 85.334,85.334 c -9.387,0 -17.067,-7.68 -17.067,-17.067 0,-9.387 7.68,-17.067 17.067,-17.067 9.387,0 17.067,7.68 17.067,17.067 -10e-4,9.387 -7.681,17.067 -17.067,17.067 z"
               id="path4163" /></g></g></g><g
         id="g4165" /><g
         id="g4167" /><g
         id="g4169" /><g
         id="g4171" /><g
         id="g4173" /><g
         id="g4175" /><g
         id="g4177" /><g
         id="g4179" /><g
         id="g4181" /><g
         id="g4183" /><g
         id="g4185" /><g
         id="g4187" /><g
         id="g4189" /><g
         id="g4191" /><g
         id="g4193" /></g></g></svg>