<svg xmlns="http://www.w3.org/2000/svg" width="171" height="171" viewBox="0 0 171 171"><defs><mask maskUnits="userSpaceOnUse" id="a"><circle cx="85.333" cy="85.972" r="74" fill="#d45b3e"/><path d="M85.348 11.972l-.021.002v147.998h.021c40.86 0 73.984-33.131 73.984-74s-33.123-74-73.984-74z" fill="#c45237"/></mask></defs><circle cx="85.333" cy="85.972" r="74" fill="#d45b3e"/><path d="M85.348 11.972l-.021.002v147.998h.021c40.86 0 73.984-33.131 73.984-74s-33.123-74-73.984-74z" fill="#c45237"/><path d="M85.583 1.222c46.624 0 84.5 37.876 84.5 84.5s-37.876 84.5-84.5 84.5-84.5-37.876-84.5-84.5 37.876-84.5 84.5-84.5z" opacity=".2" fill="none" stroke="#fff"/><path mask="url(#a)" d="M51.972 52.913l-4.066 2.829-1.767 3.712-2.807.884L63.64 80.844l-4.597 4.42-1.944 8.838s-.707 10.253-.707 11.314c0 1.06-.464 3.58-.464 3.58l53.585 53.43 31.908-18.473 19.092-21.036 2.298-27.754V87.56l.177-6.54-49.668-27.568-3.365 4.587-24.642-14.55-6.824 6.064-5.657 6.895-1.06 1.944L58.623 46.55 55.86 51.5z" fill="#b14731" fill-rule="evenodd"/><g fill="#fff"><path d="M83.933 99.299h2.8v29.173h-2.8zm-7 0h2.8v22.227h-2.8zm-7 12.502h2.8v2.778h-2.8zm0-12.502h2.8v9.724h-2.8zm21 19.449h2.8v2.778h-2.8zm0-19.449h2.8v16.671h-2.8zm7 0h2.8v15.281h-2.8z"/><ellipse cx="85.333" cy="67.347" rx="9.8" ry="9.724"/><path d="M102.133 77.275v-9.117c0-8.814-4.473-16.9-11.967-21.634l-4.833-3.052-4.833 3.05c-7.494 4.735-11.967 12.822-11.967 21.636v9.117c-7.263 1.392-12.6 7.695-12.6 15.155v16.593h2.8c0-4.597 3.767-8.335 8.4-8.335h36.4c4.632 0 8.4 3.738 8.4 8.335h2.8V92.43c0-7.46-5.337-13.762-12.6-15.155zm-20.13-28.407l3.33-2.1 3.33 2.101c6.68 4.22 10.67 11.43 10.67 19.29v17.248h-28V68.158c0-7.859 3.99-15.07 10.67-19.29zm-14.87 49.041c-3.342 0-6.346 1.46-8.4 3.77V92.43c0-5.933 4.118-10.969 9.8-12.308V97.91h-1.4zm4.2 0v-9.724h28v9.724h-28zm40.6 3.77a11.215 11.215 0 0 0-8.4-3.77h-1.4V80.121c5.683 1.34 9.8 6.376 9.8 12.308v9.25zm-65.8-46.835v2.779h-2.8V60.4h2.8v2.778h2.8V60.4h2.8v-2.778h-2.8v-2.779zm12.6 2.779v-4.168h4.2v-2.779h-4.2V46.51h-2.8v4.167h-4.2v2.779h4.2v4.168zm2.8 9.724h2.8v-2.779h-2.8V61.79h-2.8v2.778h-2.8v2.779h2.8v2.778h2.8zm51.8-5.557v-2.778h2.8v-2.779h-2.8v-2.778h-2.8v2.778h-2.8v2.779h2.8v2.778zm9.8 4.168V61.79h-2.8v4.168h-4.2v2.778h4.2v4.168h2.8v-4.168h4.2v-2.778z"/><path d="M110.533 74.293v-2.778h2.8v-2.779h-2.8v-2.778h-2.8v2.778h-2.8v2.779h2.8v2.778z"/></g></svg>