<svg xmlns="http://www.w3.org/2000/svg" width="171" height="171" viewBox="0 0 171 171"><defs><mask maskUnits="userSpaceOnUse" id="a"><circle cx="85.333" cy="85.972" r="74" fill="#d45b3e"/><path d="M85.348 11.972l-.021.002v147.998h.021c40.86 0 73.984-33.131 73.984-74s-33.123-74-73.984-74z" fill="#c45237"/></mask></defs><circle cx="85.333" cy="85.972" r="74" fill="#d45b3e"/><path d="M85.348 11.972l-.021.002v147.998h.021c40.86 0 73.984-33.131 73.984-74s-33.123-74-73.984-74z" fill="#c45237"/><path d="M85.583 1.222c46.624 0 84.5 37.876 84.5 84.5s-37.876 84.5-84.5 84.5-84.5-37.876-84.5-84.5 37.876-84.5 84.5-84.5z" opacity=".2" fill="none" stroke="#fff"/><path mask="url(#a)" d="M43.102 102.753l60.666 61.353 32.527-11.844 21.213-28.992 3.182-20.329 1.414-13.435.177-4.773-40.526-38.272-62.004 1.68-11.668.176-3.005 2.828-.884 6.895z" fill="#b14731" fill-rule="evenodd"/><g fill="#fff"><path d="M51.479 56.35h15.516c.847 0 1.41-.565 1.41-1.411 0-.847-.563-1.41-1.41-1.41H51.48c-.847 0-1.41.563-1.41 1.41 0 .846.563 1.41 1.41 1.41zm21.159 0h12.695c.846 0 1.41-.565 1.41-1.411 0-.847-.564-1.41-1.41-1.41H72.638c-.847 0-1.41.563-1.41 1.41 0 .846.563 1.41 1.41 1.41zm-11.285 4.231c0-.846-.564-1.41-1.41-1.41h-8.464c-.847 0-1.41.564-1.41 1.41 0 .847.563 1.41 1.41 1.41h8.463c.847 0 1.41-.563 1.41-1.41zm4.232-1.411c-.847 0-1.411.565-1.411 1.411 0 .847.564 1.41 1.41 1.41H78.28c.846 0 1.41-.563 1.41-1.41 0-.846-.564-1.41-1.41-1.41H65.585zm19.748 0h-1.41c-.847 0-1.411.565-1.411 1.411 0 .847.564 1.41 1.41 1.41h1.411c.846 0 1.41-.563 1.41-1.41 0-.846-.564-1.41-1.41-1.41z"/><path d="M121.303 46.475h-71.94a6.321 6.321 0 0 0-6.348 6.348v49.371a6.321 6.321 0 0 0 6.348 6.348h27.083l-2.116 8.463h-.282c-3.95 0-7.053 3.103-7.053 7.053 0 .847.564 1.41 1.41 1.41h33.855c.846 0 1.41-.563 1.41-1.41 0-3.95-3.103-7.053-7.053-7.053h-.282l-2.116-8.463h27.084a6.321 6.321 0 0 0 6.348-6.348V52.823a6.321 6.321 0 0 0-6.348-6.348zm-75.467 6.348a3.492 3.492 0 0 1 3.527-3.526h71.94a3.492 3.492 0 0 1 3.527 3.526v41.612H45.836V52.823zm54.872 69.824h-30.61c.565-1.692 2.116-2.82 3.95-2.82h22.71c1.835 0 3.386 1.128 3.95 2.82zm-7.335-5.642h-16.08l2.115-8.464h11.85l2.115 8.464zm31.457-14.811a3.492 3.492 0 0 1-3.527 3.526h-71.94a3.492 3.492 0 0 1-3.527-3.526v-4.937h78.994v4.937z"/><path d="M113.545 76.098a5.59 5.59 0 0 0-1.919.338l-6.883-6.883c.219-.6.338-1.246.338-1.919 0-3.103-2.539-5.642-5.642-5.642s-5.642 2.539-5.642 5.642c0 .673.12 1.32.338 1.919l-10.16 10.16a5.594 5.594 0 0 0-4.792-.456l-2.652-2.651c.219-.6.339-1.246.339-1.919 0-3.103-2.54-5.642-5.643-5.642-3.103 0-5.642 2.539-5.642 5.642 0 .673.12 1.32.338 1.919l-2.651 2.651a5.593 5.593 0 0 0-1.919-.338c-3.103 0-5.642 2.54-5.642 5.642 0 3.104 2.539 5.643 5.642 5.643 3.104 0 5.643-2.54 5.643-5.643a5.61 5.61 0 0 0-1.387-3.691l1.927-1.927a5.613 5.613 0 0 0 3.691 1.387c1.41 0 2.7-.525 3.692-1.387l1.926 1.927a5.613 5.613 0 0 0-1.386 3.691c0 3.104 2.54 5.643 5.643 5.643 3.103 0 5.642-2.54 5.642-5.643a5.59 5.59 0 0 0-.794-2.874l9.797-9.797a5.613 5.613 0 0 0 3.692 1.387c1.409 0 2.7-.525 3.692-1.387l6.158 6.158a5.614 5.614 0 0 0-1.387 3.692c0 3.104 2.54 5.643 5.643 5.643 3.103 0 5.642-2.54 5.642-5.643 0-3.103-2.539-5.642-5.642-5.642zM61.353 87.382a2.83 2.83 0 0 1-2.821-2.82 2.83 2.83 0 0 1 2.82-2.822 2.83 2.83 0 0 1 2.822 2.821 2.83 2.83 0 0 1-2.821 2.821zm9.874-9.874c-.86 0-1.632-.39-2.151-1.003a1.427 1.427 0 0 0-.388-.69l-.071-.064a2.793 2.793 0 0 1-.211-1.064 2.83 2.83 0 0 1 2.821-2.821 2.83 2.83 0 0 1 2.821 2.821c0 .376-.076.735-.21 1.064a1.427 1.427 0 0 0-.46.754 2.817 2.817 0 0 1-2.15 1.003zm9.874 9.874a2.83 2.83 0 0 1-2.821-2.82 2.83 2.83 0 0 1 2.821-2.822c.703 0 1.346.262 1.84.69a1.529 1.529 0 0 0 .306.307c.42.493.675 1.13.675 1.824a2.83 2.83 0 0 1-2.82 2.821zM99.44 70.455a2.83 2.83 0 0 1-2.821-2.82 2.83 2.83 0 0 1 2.82-2.822 2.83 2.83 0 0 1 2.822 2.821c0 .376-.076.735-.21 1.064a1.427 1.427 0 0 0-.46.754 2.816 2.816 0 0 1-2.151 1.003zm14.106 14.106a2.83 2.83 0 0 1-2.821-2.82 2.83 2.83 0 0 1 2.821-2.822 2.83 2.83 0 0 1 2.821 2.821 2.83 2.83 0 0 1-2.821 2.821z"/></g></svg>