<?xml version="1.0" encoding="UTF-8" standalone="no"?>
<!-- Generator: Adobe Illustrator 17.0.0, SVG Export Plug-In . SVG Version: 6.00 Build 0)  -->

<svg
   xmlns:dc="http://purl.org/dc/elements/1.1/"
   xmlns:cc="http://creativecommons.org/ns#"
   xmlns:rdf="http://www.w3.org/1999/02/22-rdf-syntax-ns#"
   xmlns:svg="http://www.w3.org/2000/svg"
   xmlns="http://www.w3.org/2000/svg"
   xmlns:sodipodi="http://sodipodi.sourceforge.net/DTD/sodipodi-0.dtd"
   xmlns:inkscape="http://www.inkscape.org/namespaces/inkscape"
   version="1.1"
   id="Слой_1"
   sodipodi:docname="Реклама точно в цель.svg"
   inkscape:version="0.91 r13725"
   x="0px"
   y="0px"
   width="171px"
   height="171px"
   viewBox="0 0 171 171"
   enable-background="new 0 0 171 171"
   xml:space="preserve"><metadata
     id="metadata12"><rdf:RDF><cc:Work
         rdf:about=""><dc:format>image/svg+xml</dc:format><dc:type
           rdf:resource="http://purl.org/dc/dcmitype/StillImage" /><dc:title /></cc:Work></rdf:RDF></metadata><defs
     id="defs10"><mask
       maskUnits="userSpaceOnUse"
       id="mask4164"><g
         id="g4166"><circle
           id="circle4168"
           cx="85.333"
           cy="85.972"
           r="74"
           style="fill:#d45b3e" /><path
           id="path4170"
           inkscape:connector-curvature="0"
           d="m 85.348,11.972 c -0.007,0.001 -0.014,0.001 -0.021,0.002 l 0,147.998 c 0.007,0 0.014,0 0.021,0 40.86,0 73.984,-33.131 73.984,-74 0,-40.869 -33.123,-74 -73.984,-74 0,0 0,0 0,0 z"
           style="fill:#c45237" /></g></mask></defs><sodipodi:namedview
     showguides="false"
     inkscape:cy="29.151509"
     inkscape:cx="164.62949"
     inkscape:zoom="2.0000001"
     showgrid="false"
     guidetolerance="10"
     gridtolerance="10"
     objecttolerance="10"
     borderopacity="1"
     bordercolor="#666666"
     pagecolor="#ffffff"
     id="namedview61"
     inkscape:guide-bbox="true"
     inkscape:current-layer="Слой_1"
     inkscape:window-maximized="1"
     inkscape:window-y="-8"
     inkscape:window-x="-8"
     inkscape:window-height="801"
     inkscape:window-width="1536"
     inkscape:pageshadow="2"
     inkscape:pageopacity="0"><inkscape:grid
       type="xygrid"
       id="grid4289" /></sodipodi:namedview><g
     id="g4172"><g
       id="g4274"><circle
         id="path4230"
         cx="85.333"
         cy="85.972"
         r="74"
         style="fill:#d45b3e" /><path
         id="path4278"
         inkscape:connector-curvature="0"
         d="m 85.348,11.972 c -0.007,0.001 -0.014,0.001 -0.021,0.002 l 0,147.998 c 0.007,0 0.014,0 0.021,0 40.86,0 73.984,-33.131 73.984,-74 0,-40.869 -33.123,-74 -73.984,-74 0,0 0,0 0,0 z"
         style="fill:#c45237" /></g><path
       id="path4271"
       inkscape:connector-curvature="0"
       enable-background="new    "
       d="m 85.583,1.222 c 46.624,0 84.5,37.876 84.5,84.5 0,46.624 -37.876,84.5 -84.5,84.5 -46.624,0 -84.5,-37.876 -84.5,-84.5 0,-46.624 37.876,-84.5 84.5,-84.5 z"
       style="opacity:0.2;fill:none;stroke:#ffffff" /><path
       mask="url(#mask4164)"
       sodipodi:nodetypes="cccccccccccccccccccccc"
       inkscape:connector-curvature="0"
       id="path4156"
       d="m 34.999999,88.875002 8.75,8.75 3.5,13.749998 55.684971,55.68497 27.87978,-13.03053 25.45584,-29.69849 5.65686,-25.45584 1.76777,-24.04163 -38.5891,-38.964095 -10.90838,12.094038 0,7.424621 -4.94975,5.656854 -5.65685,-6.717514 -15.909901,-5.656854 -4.873765,-7.217514 -0.429536,6.510407 -7.778175,1.767767 -16.617008,6.363961 -9.545942,10.253048 -5.656854,12.727922 -0.707107,9.545941 z"
       style="fill:#b14731;fill-opacity:1;fill-rule:evenodd;stroke:none;stroke-width:1px;stroke-linecap:butt;stroke-linejoin:miter;stroke-opacity:1" /><g
       transform="matrix(0.19726579,0,0,0.19726688,34.833001,35.471753)"
       id="g4187"><g
         id="g4145"><g
           id="g4147"><path
             style="fill:#ffffff"
             inkscape:connector-curvature="0"
             d="m 449.596,121.778 c 0.355,0.04 0.709,0.059 1.062,0.059 2.529,0 4.975,-1.002 6.785,-2.811 l 51.746,-51.745 c 2.632,-2.633 3.505,-6.551 2.237,-10.053 -1.268,-3.502 -4.447,-5.954 -8.155,-6.291 L 464.58,47.42 461.061,8.729 c -0.336,-3.708 -2.789,-6.887 -6.29,-8.154 -3.502,-1.268 -7.42,-0.396 -10.054,2.237 l -51.746,51.746 c -2.061,2.061 -3.075,4.949 -2.752,7.847 l 4.58,41.223 -9.69,9.69 C 349.321,80.581 302.381,59.854 250.727,57.558 l 0,-18.223 c 0,-5.3 -4.297,-9.597 -9.597,-9.597 -5.3,0 -9.597,4.297 -9.597,9.597 l 0,18.22 C 121.408,62.451 32.714,151.145 27.817,261.271 l -18.22,0 c -5.3,0 -9.597,4.297 -9.597,9.597 0,5.3 4.297,9.597 9.597,9.597 l 18.22,0 c 4.897,110.126 93.591,198.819 203.716,203.716 l 0,18.22 c 0,5.3 4.297,9.597 9.597,9.597 5.3,0 9.597,-4.297 9.597,-9.597 l 0,-18.22 c 110.125,-4.896 198.819,-93.59 203.716,-203.716 l 18.22,0 c 5.3,0 9.597,-4.297 9.597,-9.597 0,-5.3 -4.297,-9.597 -9.597,-9.597 l -18.22,0 C 452.147,209.617 431.42,162.677 398.684,126.887 l 9.69,-9.69 41.222,4.581 z m -5.794,-90.905 2.387,26.25 c 0.42,4.614 4.074,8.269 8.688,8.689 l 26.25,2.386 -33.996,33.995 -33.592,-3.732 -3.732,-33.592 33.995,-33.996 z m -8.566,230.398 -13.521,0 c -5.3,0 -9.597,4.297 -9.597,9.597 0,5.3 4.297,9.597 9.597,9.597 l 13.521,0 c -4.865,99.542 -84.967,179.644 -184.508,184.508 l 0,-13.52 c 0,-5.3 -4.297,-9.597 -9.597,-9.597 -5.3,0 -9.597,4.297 -9.597,9.597 l 0,13.52 C 131.992,460.11 51.89,380.006 47.025,280.466 l 13.521,0 c 5.3,0 9.597,-4.297 9.597,-9.597 0,-5.3 -4.297,-9.597 -9.597,-9.597 l -13.521,0 C 51.89,161.732 131.992,81.628 231.533,76.764 l 0,13.52 c 0,5.3 4.297,9.597 9.597,9.597 5.3,0 9.597,-4.297 9.597,-9.597 l 0,-13.52 c 46.366,2.266 88.513,20.855 120.805,50.13 l -28.878,28.878 c -27.083,-23.919 -62.635,-38.459 -101.525,-38.459 -84.671,0 -153.556,68.884 -153.556,153.556 0,84.672 68.885,153.556 153.556,153.556 84.671,0 153.556,-68.884 153.556,-153.556 0,-38.889 -14.54,-74.441 -38.457,-101.526 l 28.878,-28.878 c 29.276,32.293 47.864,74.441 50.13,120.806 z m -200.892,16.384 c 1.875,1.874 4.33,2.811 6.786,2.811 2.456,0 4.913,-0.937 6.786,-2.811 l 52.12,-52.12 c 9.688,12.56 15.472,28.281 15.472,45.334 0,41.013 -33.366,74.379 -74.379,74.379 -41.013,0 -74.379,-33.366 -74.379,-74.379 0,-41.013 33.366,-74.379 74.379,-74.379 17.053,0 32.773,5.784 45.334,15.472 l -52.12,52.12 c -3.746,3.749 -3.746,9.825 0.001,13.573 z m 6.787,-100.358 c -51.597,0 -93.573,41.977 -93.573,93.573 0,51.596 41.976,93.573 93.573,93.573 51.597,0 93.573,-41.977 93.573,-93.573 0,-22.348 -7.885,-42.884 -21.006,-58.994 l 28.942,-28.942 c 20.457,23.583 32.853,54.338 32.853,87.935 0,74.087 -60.274,134.361 -134.361,134.361 -74.087,0 -134.361,-60.274 -134.361,-134.361 0,-74.087 60.274,-134.362 134.361,-134.362 33.596,0 64.353,12.396 87.936,32.853 l -28.942,28.943 C 284.015,185.182 263.48,177.297 241.131,177.297 Z"
             id="path4149" /></g></g><g
         id="g4151" /><g
         id="g4153" /><g
         id="g4155" /><g
         id="g4157" /><g
         id="g4159" /><g
         id="g4161" /><g
         id="g4163" /><g
         id="g4165" /><g
         id="g4167" /><g
         id="g4169" /><g
         id="g4171" /><g
         id="g4173" /><g
         id="g4175" /><g
         id="g4177" /><g
         id="g4179" /></g></g></svg>