<svg xmlns="http://www.w3.org/2000/svg" width="171" height="171" viewBox="0 0 171 171"><defs><mask maskUnits="userSpaceOnUse" id="a"><circle cx="85.333" cy="85.972" r="74" fill="#d45b3e"/><path d="M85.348 11.972l-.021.002v147.998h.021c40.86 0 73.984-33.131 73.984-74s-33.123-74-73.984-74z" fill="#c45237"/></mask></defs><circle cx="85.333" cy="85.972" r="74" fill="#d45b3e"/><path d="M85.348 11.972l-.021.002v147.998h.021c40.86 0 73.984-33.131 73.984-74s-33.123-74-73.984-74z" fill="#c45237"/><path d="M85.583 1.222c46.624 0 84.5 37.876 84.5 84.5s-37.876 84.5-84.5 84.5-84.5-37.876-84.5-84.5 37.876-84.5 84.5-84.5z" opacity=".2" fill="none" stroke="#fff"/><path mask="url(#a)" d="M51.379 120.957l44.434 43.325 39.244-9.899 21.214-33.234 6.717-28.284-1.06-6.01-50.455-32.06-8.589 3.775-7.872-7.56L73.54 65.289z" fill="#b14731" fill-rule="evenodd"/><g fill="#fff"><path d="M92.41 62.62v-2.145h5.527l-2.893-9.503H72.65l-21.317 70h18.948l3.445-14.862h19.595l3.445 14.862h19.595l-11.96-39.275h-4.138V73.84H92.41V62.62zM77.063 91.788l1.185-4.846c1.722-6.678 3.445-15.077 4.952-22.185h.43c1.723 7 3.446 15.507 5.169 22.185l1.184 4.846h-12.92z"/><path d="M94.554 71.696h7.853v7.855h9.073v-7.855h7.853V62.62h-7.853v-7.855h-9.073v7.855h-7.853z"/></g></svg>