<?xml version="1.0" encoding="UTF-8" standalone="no"?>
<!-- Generator: Adobe Illustrator 17.0.0, SVG Export Plug-In . SVG Version: 6.00 Build 0)  -->

<svg
   xmlns:dc="http://purl.org/dc/elements/1.1/"
   xmlns:cc="http://creativecommons.org/ns#"
   xmlns:rdf="http://www.w3.org/1999/02/22-rdf-syntax-ns#"
   xmlns:svg="http://www.w3.org/2000/svg"
   xmlns="http://www.w3.org/2000/svg"
   xmlns:sodipodi="http://sodipodi.sourceforge.net/DTD/sodipodi-0.dtd"
   xmlns:inkscape="http://www.inkscape.org/namespaces/inkscape"
   version="1.1"
   id="Слой_1"
   sodipodi:docname="Быстрый старт.svg"
   inkscape:version="0.91 r13725"
   x="0px"
   y="0px"
   width="171px"
   height="171px"
   viewBox="0 0 171 171"
   enable-background="new 0 0 171 171"
   xml:space="preserve"><metadata
     id="metadata12"><rdf:RDF><cc:Work
         rdf:about=""><dc:format>image/svg+xml</dc:format><dc:type
           rdf:resource="http://purl.org/dc/dcmitype/StillImage" /><dc:title></dc:title></cc:Work></rdf:RDF></metadata><defs
     id="defs10"><mask
       maskUnits="userSpaceOnUse"
       id="mask4337"><g
         id="g4339"><circle
           id="circle4341"
           cx="85.333"
           cy="85.972"
           r="74"
           style="fill:#d45b3e" /><path
           id="path4343"
           inkscape:connector-curvature="0"
           d="m 85.348,11.972 c -0.007,0.001 -0.014,0.001 -0.021,0.002 l 0,147.998 c 0.007,0 0.014,0 0.021,0 40.86,0 73.984,-33.131 73.984,-74 0,-40.869 -33.123,-74 -73.984,-74 0,0 0,0 0,0 z"
           style="fill:#c45237" /></g></mask></defs><sodipodi:namedview
     showguides="false"
     inkscape:cy="86.895381"
     inkscape:cx="-33.570145"
     inkscape:zoom="2.0000001"
     showgrid="false"
     guidetolerance="10"
     gridtolerance="10"
     objecttolerance="10"
     borderopacity="1"
     bordercolor="#666666"
     pagecolor="#ffffff"
     id="namedview61"
     inkscape:guide-bbox="true"
     inkscape:current-layer="Слой_1"
     inkscape:window-maximized="1"
     inkscape:window-y="-8"
     inkscape:window-x="-8"
     inkscape:window-height="801"
     inkscape:window-width="1536"
     inkscape:pageshadow="2"
     inkscape:pageopacity="0"><inkscape:grid
       type="xygrid"
       id="grid4289" /></sodipodi:namedview><g
     id="g4345"><g
       id="g4274"><circle
         id="path4230"
         cx="85.333"
         cy="85.972"
         r="74"
         style="fill:#d45b3e" /><path
         id="path4278"
         inkscape:connector-curvature="0"
         d="m 85.348,11.972 c -0.007,0.001 -0.014,0.001 -0.021,0.002 l 0,147.998 c 0.007,0 0.014,0 0.021,0 40.86,0 73.984,-33.131 73.984,-74 0,-40.869 -33.123,-74 -73.984,-74 0,0 0,0 0,0 z"
         style="fill:#c45237" /></g><path
       id="path4271"
       inkscape:connector-curvature="0"
       enable-background="new    "
       d="m 85.583,1.222 c 46.624,0 84.5,37.876 84.5,84.5 0,46.624 -37.876,84.5 -84.5,84.5 -46.624,0 -84.5,-37.876 -84.5,-84.5 0,-46.624 37.876,-84.5 84.5,-84.5 z"
       style="opacity:0.2;fill:none;stroke:#ffffff" /><path
       mask="url(#mask4337)"
       sodipodi:nodetypes="cccccccscccccccccccccccc"
       inkscape:connector-curvature="0"
       id="path4329"
       d="m 51.972347,52.913171 -4.065864,2.828427 -1.767767,3.71231 -2.806329,0.883884 20.307222,20.506096 -4.596194,4.419417 -1.944544,8.838835 c 0,0 -0.707107,10.25305 -0.707107,11.31371 0,1.06066 -0.464038,3.57972 -0.464038,3.57972 l 53.585434,53.43076 31.90819,-18.47316 19.09189,-21.03643 2.29809,-27.75394 0,-7.601398 0.17678,-6.540738 -49.66843,-27.56736 -3.36458,4.586391 -24.641874,-14.549569 -6.824375,6.064287 -5.656854,6.894291 -1.060661,1.944544 L 58.62357,46.54921 55.861434,51.498957 Z"
       style="fill:#b14731;fill-opacity:1;fill-rule:evenodd;stroke:none;stroke-width:1px;stroke-linecap:butt;stroke-linejoin:miter;stroke-opacity:1" /><g
       id="g4312"><rect
         x="83.932976"
         y="99.298668"
         style="fill:#ffffff;fill-opacity:1"
         width="2.8000588"
         height="29.17333"
         id="rect4149" /><rect
         x="76.933121"
         y="99.298668"
         style="fill:#ffffff;fill-opacity:1"
         width="2.8000588"
         height="22.227161"
         id="rect4151" /><rect
         x="69.932968"
         y="111.80148"
         style="fill:#ffffff;fill-opacity:1"
         width="2.8000588"
         height="2.7784681"
         id="rect4153" /><rect
         x="69.932968"
         y="99.298668"
         style="fill:#ffffff;fill-opacity:1"
         width="2.8000588"
         height="9.7243462"
         id="rect4155" /><rect
         x="90.933121"
         y="118.74765"
         style="fill:#ffffff;fill-opacity:1"
         width="2.8000588"
         height="2.7784681"
         id="rect4157" /><rect
         x="90.933121"
         y="99.298668"
         style="fill:#ffffff;fill-opacity:1"
         width="2.8000588"
         height="16.670517"
         id="rect4159" /><rect
         x="97.932968"
         y="99.298668"
         style="fill:#ffffff;fill-opacity:1"
         width="2.8000588"
         height="15.281282"
         id="rect4161" /><ellipse
         style="fill:#ffffff;fill-opacity:1"
         cx="85.333"
         cy="67.34687"
         id="circle4163"
         rx="9.7999115"
         ry="9.7243462" /><path
         inkscape:connector-curvature="0"
         style="fill:#ffffff;fill-opacity:1"
         d="m 102.13306,77.27543 0,-9.117249 c 0,-8.81443 -4.472922,-16.900986 -11.967283,-21.634067 L 85.333,43.472 80.500223,46.522655 c -7.494067,4.73454 -11.967281,12.821096 -11.967281,21.635526 l 0,9.117249 c -7.263277,1.39186 -12.599971,7.694758 -12.599971,15.154962 l 0,16.592628 2.800059,0 c 0,-4.59685 3.76732,-8.33512 8.399882,-8.33512 l 36.399878,0 c 4.63257,0 8.39989,3.73827 8.39989,8.33512 l 2.80006,0 0,-16.592628 c 2.9e-4,-7.459912 -5.3364,-13.76281 -12.59968,-15.154962 z M 82.003741,48.867608 85.333,46.767128 88.66226,48.869066 C 95.343122,53.088113 99.333,60.299469 99.333,68.158181 l 0,17.24844 -28,0 0,-17.24844 c 0,-7.858712 3.989878,-15.070068 10.670741,-19.290573 z M 67.132912,97.909436 c -3.341901,0 -6.34629,1.460125 -8.399882,3.770364 l 0,-9.249408 c 0,-5.933272 4.117474,-10.969172 9.799912,-12.308228 l 0,17.787272 -1.40003,0 z m 4.200088,0 0,-9.724347 28,0 0,9.724347 -28,0 z m 40.59997,3.770364 c -2.05389,-2.310239 -5.05827,-3.770364 -8.39988,-3.770364 l -1.40003,0 0,-17.788731 c 5.68273,1.340515 9.79991,6.376415 9.79991,12.308229 l 0,9.250866 0,0 z"
         id="path4165" /><polygon
         style="fill:#ffffff;fill-opacity:1"
         points="12.348,38.981 12.348,48.505 2.824,48.505 2.824,58.029 12.348,58.029 12.348,67.552 21.871,67.552 21.871,58.029 31.395,58.029 31.395,48.505 21.871,48.505 21.871,38.981 "
         id="polygon4167"
         transform="matrix(0.29400029,0,0,0.29173331,42.502744,43.472)" /><polygon
         style="fill:#ffffff;fill-opacity:1"
         points="55.205,48.505 55.205,34.219 69.491,34.219 69.491,24.695 55.205,24.695 55.205,10.41 45.681,10.41 45.681,24.695 31.395,24.695 31.395,34.219 45.681,34.219 45.681,48.505 "
         id="polygon4169"
         transform="matrix(0.29400029,0,0,0.29173331,42.502744,43.472)" /><polygon
         style="fill:#ffffff;fill-opacity:1"
         points="64.729,81.838 74.252,81.838 74.252,72.314 64.729,72.314 64.729,62.79 55.205,62.79 55.205,72.314 45.681,72.314 45.681,81.838 55.205,81.838 55.205,91.362 64.729,91.362 "
         id="polygon4171"
         transform="matrix(0.29400029,0,0,0.29173331,42.502744,43.472)" /><polygon
         style="fill:#ffffff;fill-opacity:1"
         points="240.919,62.79 240.919,53.267 250.443,53.267 250.443,43.743 240.919,43.743 240.919,34.219 231.395,34.219 231.395,43.743 221.871,43.743 221.871,53.267 231.395,53.267 231.395,62.79 "
         id="polygon4173"
         transform="matrix(0.29400029,0,0,0.29173331,42.502744,43.472)" /><polygon
         style="fill:#ffffff;fill-opacity:1"
         points="274.252,77.076 274.252,62.79 264.729,62.79 264.729,77.076 250.443,77.076 250.443,86.6 264.729,86.6 264.729,100.886 274.252,100.886 274.252,86.6 288.538,86.6 288.538,77.076 "
         id="polygon4175"
         transform="matrix(0.29400029,0,0,0.29173331,42.502744,43.472)" /><polygon
         style="fill:#ffffff;fill-opacity:1"
         points="231.395,105.648 231.395,96.124 240.919,96.124 240.919,86.6 231.395,86.6 231.395,77.076 221.871,77.076 221.871,86.6 212.348,86.6 212.348,96.124 221.871,96.124 221.871,105.648 "
         id="polygon4177"
         transform="matrix(0.29400029,0,0,0.29173331,42.502744,43.472)" /></g></g></svg>