<svg xmlns="http://www.w3.org/2000/svg" width="171" height="171" viewBox="0 0 171 171"><path fill="#D45B3E" d="M85.618 11.444c-40.87 0-74 33.131-74 74 0 40.87 33.13 74 74 74s74-33.13 74-74c0-40.869-33.131-74-74-74z"/><path fill="#C45237" d="M85.634 11.444l-.021.002v147.998h.02c40.86 0 73.985-33.13 73.985-74s-33.124-73.999-73.984-74z"/><path opacity=".2" fill="none" stroke="#FFF" enable-background="new" d="M85.618.944c46.624 0 84.5 37.876 84.5 84.5s-37.876 84.5-84.5 84.5-84.5-37.876-84.5-84.5 37.876-84.5 84.5-84.5z"/><defs><filter id="a" filterUnits="userSpaceOnUse" x="41.065" y="42.5" width="121.5" height="122"><feColorMatrix values="1 0 0 0 0 0 1 0 0 0 0 0 1 0 0 0 0 0 1 0"/></filter></defs><mask maskUnits="userSpaceOnUse" x="41.065" y="42.5" width="121.5" height="122" id="b"><g transform="translate(.688 .572)" filter="url(#a)"><path fill="#D45B3E" d="M84.93 10.872c-40.869 0-74 33.131-74 74s33.131 74 74 74 74-33.131 74-74-33.131-74-74-74z"/><path fill="#C45237" d="M84.946 10.872l-.021.002v147.998h.021c40.86 0 73.984-33.131 73.984-74s-33.124-73.999-73.984-74z"/></g></mask><path mask="url(#b)" fill="#B14731" d="M41.315 105.75l7.737 13.402-7.987 9.317 35.25 36.031 28.5-4 31.75-11.5 22-20.75 3-20.5 1-16-35.294-33.309L125.565 65l-7.021-6.646-56.729.396L48.909 42.5l-7.594 63.25z"/><path fill="#21D8DE" d="M41.04 58.32v46.041a7.941 7.941 0 0 0 7.942 7.943h69.586V58.319H41.04z"/><path fill="#242D3C" d="M48.981 96.423V42.431a7.944 7.944 0 0 0-7.941 7.944v53.986a7.938 7.938 0 0 1 7.941-7.938z"/><g fill="#FFF"><path d="M109.441 103.226H65.638V72.45h43.803v30.776zm-42.35-1.455h40.896V73.904H67.092v27.867z"/><path d="M109.441 73.904H65.638v-6.506h43.803v6.506zm-42.35-1.454h40.896v-3.598H67.092v3.598zm26.057 27.512H68.9v-11.22h24.247v11.22zm-22.793-1.454h21.34v-8.311h-21.34v8.311zm9.765-11.575H68.902v-11.22H80.12v11.22zm-9.765-1.454h8.31v-8.312h-8.31v8.312zm22.793 1.454H81.93v-11.22h11.218v11.22zm-9.765-1.454h8.311v-8.312h-8.31v8.312zm22.794 1.454h-11.22v-11.22h11.22v11.22zM96.41 85.48h8.312v-8.312H96.41v8.312zm-1.453 3.263h11.22v1.454h-11.22zm0 3.254h11.22v1.453h-11.22zm0 3.253h6.336v1.454h-6.336z"/><path d="M62.156 69.926H74.51v1.454H62.156zm0 10.672H74.51v1.454H62.156zm0 13.026H74.51v1.454H62.156zM60.6 71.378h-1.557v-1.454H60.6v1.454zm-3.114 0h-1.557v-1.454h1.557v1.454zM60.6 82.05h-1.557v-1.453H60.6v1.453zm-3.114 0h-1.557v-1.453h1.557v1.453zM60.6 95.079h-1.557v-1.454H60.6v1.454zm-3.114 0h-1.557v-1.454h1.557v1.454zm8.152-32.947h8.872v1.454h-8.872zm35.658 44.905h8.147v1.454h-8.147zm-20.27 0h17.827v1.454H81.026z"/></g><path fill="#3E4959" d="M41.04 118.766h77.53v9.69H41.04z"/><path fill="#242D3C" d="M41.04 125.225h77.53v3.23H41.04z"/><path d="M42.57 118.766h.92v1.614h-.92zm2.455 0h.92v1.614h-.92zm2.449 0h.918v1.614h-.918zm2.449 0h.926v1.614h-.926zm2.455 0h.92v1.614h-.92zm2.449 0h.92v1.614h-.92zm2.451 0h.924v1.614h-.924zm2.454 0h.92v1.614h-.92zm2.451 0h.918v1.614h-.918zm2.454 0h.92v1.614h-.92zm2.45 0h.918v1.614h-.918zm2.448 0h.925v1.614h-.925zm2.455 0h.92v1.614h-.92zm2.449 0h.92v1.614h-.92zm2.455 0h.919v1.614h-.92zm2.452 0h.919v1.614h-.92zm2.447 0h.92v1.614h-.92zm2.457 0h.92v1.614h-.92zm2.446 0h.92v1.614h-.92zm2.452 0h.926v1.614h-.926zm2.456 0h.918v1.614h-.918zm2.448 0h.921v1.614h-.921zm2.456 0h.918v1.614h-.918zm2.447 0h.92v1.614h-.92zm2.452 0h.923v1.614h-.923zm2.452 0h.92v1.614h-.92zm2.451 0h.92v1.614h-.92zm2.452 0h.924v1.614h-.924zm2.452 0h.92v1.614h-.92zm2.447 0h.92v1.614h-.92zm2.457 0h.92v1.614h-.92z" fill="#FFF"/><path fill="#F15424" d="M124.382 63.898h5.813v59.23h-5.813z"/><path fill="#D9D8D7" d="M124.382 123.125h5.813v1.397h-5.813z"/><path fill="#242D3C" d="M130.195 124.526v1.027a2.904 2.904 0 0 1-2.905 2.904 2.906 2.906 0 0 1-2.91-2.904v-1.027h5.815z"/><path fill="#D9D8D7" d="M126.32 60.179l-1.94 3.719h5.814l-1.943-3.72z"/><path fill="#242D3C" d="M127.282 58.32l-.962 1.859h1.931z"/></svg>