<svg xmlns="http://www.w3.org/2000/svg" width="171" height="171" viewBox="0 0 171 171"><path fill="#D45B3E" d="M85.411 11.99c-40.869 0-74 33.132-74 74 0 40.87 33.131 74 74 74s74-33.13 74-74c0-40.868-33.131-74-74-74z"/><path fill="#C45237" d="M85.427 11.99l-.021.003V159.99h.021c40.86 0 73.984-33.131 73.984-74s-33.124-74-73.984-74z"/><path opacity=".2" fill="none" stroke="#FFF" enable-background="new" d="M85.411 1.491c46.624 0 84.5 37.876 84.5 84.5s-37.876 84.5-84.5 84.5-84.5-37.876-84.5-84.5 37.876-84.5 84.5-84.5z"/><defs><filter id="a" filterUnits="userSpaceOnUse" x="41.429" y="45.161" width="121.516" height="119.297"><feColorMatrix values="1 0 0 0 0 0 1 0 0 0 0 0 1 0 0 0 0 0 1 0"/></filter></defs><mask maskUnits="userSpaceOnUse" x="41.429" y="45.161" width="121.516" height="119.297" id="b"><g transform="translate(6.755 -2.17)" filter="url(#a)"><path fill="#D45B3E" d="M78.656 14.16c-40.869 0-74 33.131-74 74s33.131 74 74 74 74-33.131 74-74-33.131-74-74-74z"/><path fill="#C45237" d="M78.672 14.16l-.021.002V162.16h.021c40.86 0 73.984-33.131 73.984-74s-33.124-74-73.984-74z"/></g></mask><path mask="url(#b)" fill="#B14731" d="M41.429 119.911l44.016 44.547 27.75-5.25 31-17.25 14.75-29.5 4-17.25-46.781-50.047-74.735 74.75z"/><g transform="translate(41.47 41.664) scale(.17188)"><path fill="#242D3C" d="M-.339 20.187H434.81v63.816H-.339z"/><path fill="#D9D8D7" d="M-.339 84.002H434.81V455.33H-.339z"/><path d="M20.935 105.276h392.602v328.781H20.935zM159.2 41.46h201.139v21.268H159.2zm-127.631 0h21.268v21.268H31.569zm42.562 0h21.268v21.268H74.131zm42.537 0h21.276v21.268h-21.276z" fill="#FFF"/><path d="M360.365 41.46h42.54v21.268h-42.54zM52.791 344.559h328.883v11.538H52.791zm0-23.014h328.883v11.52H52.791zm0-23.066h328.883v11.538H52.791zm0 69.146h328.883v11.538H52.791zm0 23.04h328.883v11.538H52.791zm0-253.527h328.883v149.837H52.791z" fill="#F15424"/><path d="M371.391 191.945H348.41l-6.759 33.582h36.498zm-77.443 14.602l-19.899 11.448 10.957 32.438 31.519-18.204zm-59.799 51.443l-11.448 19.773 25.623 22.677 18.199-31.583zm-26.073 74.255l.046 23.076 33.482 6.702V325.49zm14.625 77.494l11.448 19.838 32.374-10.926-18.199-31.532zm51.348 59.776l19.899 11.456 22.577-25.705-31.519-18.158zm74.361 26.104h22.981l6.758-33.61h-36.498zm77.44-14.648l19.845-11.456-10.944-32.407-31.496 18.158zm59.791-51.394l11.425-19.838-25.623-22.62-18.186 31.532zm26.02-74.256v-23.076l-33.562-6.755v36.533zm-14.595-77.558l-11.425-19.773-32.384 10.867 18.186 31.583zm-51.371-59.768l-19.873-11.448-22.567 25.682 31.496 18.204z" fill="#3E4959"/><path fill="#242D3C" d="M359.822 224.129c-65.961 0-119.572 53.555-119.572 119.637 0 66.056 53.612 119.613 119.572 119.613 66.122 0 119.785-53.558 119.785-119.613 0-66.079-53.66-119.637-119.785-119.637z"/><circle fill="#FFF" cx="359.93" cy="343.74" r="93.056"/><path fill="#16C6CC" d="M359.93 250.702v93.053h93.061c0-51.397-41.669-93.053-93.061-93.053z"/><path d="M357.6 258.62h4.641v9.316H357.6zm-13.13 10.854l-1.628-9.162 4.592-.806 1.613 9.167zm-12.657 3.822l-3.205-8.747 4.391-1.6 3.182 8.747zm-11.827 5.937l-4.651-8.044 4.047-2.332 4.644 8.067zm-10.603 7.923l-5.978-7.127 3.569-2.982 5.99 7.116zm-9.06 9.646l-7.117-5.992 2.993-3.555 7.117 5.992zm-7.253 11.054l-8.051-4.654 2.345-4.034 8.041 4.669zm-5.209 12.14l-8.745-3.17 1.6-4.377 8.745 3.192zm-3.026 12.889l-9.162-1.63.806-4.58 9.16 1.623zm-.743 13.197h-9.313v-4.651l9.331.005zm-7.624 14.756l-.805-4.587 9.166-1.608.805 4.587zm4.24 14.234l-1.592-4.386 8.752-3.171 1.611 4.367zm6.656 13.273l-2.345-4.024 8.064-4.657 2.322 4.035zm8.836 11.932l-2.992-3.562 7.127-5.987 2.992 3.562zm10.79 10.201l-3.568-3 5.991-7.125 3.568 3zm12.392 8.183l-4.047-2.317 4.651-8.067 4.04 2.325zm13.617 5.903l-4.391-1.585 3.205-8.744 4.368 1.589zm14.435 3.459l-4.592-.822 1.628-9.162 4.577.819zm10.166-8.405h4.644v9.298H357.6zm14.828 8.405l-1.618-9.173 4.592-.811 1.6 9.162zm14.436-3.459l-3.162-8.74 4.36-1.597 3.164 8.752zm13.616-5.929l-4.64-8.067 4.022-2.314 4.641 8.066zm12.36-8.158l-5.993-7.136 3.57-2.998 5.993 7.136zm10.83-10.202l-7.13-5.984 2.993-3.565 7.129 5.984zm8.825-11.922l-8.054-4.653 2.326-4.026 8.054 4.653zm6.659-13.281l-8.747-3.2 1.589-4.363 8.745 3.177zm4.219-14.234l-9.167-1.618.816-4.582 9.178 1.625zm-7.616-19.402h9.316v4.652h-9.316zm-.735-8.551l-.816-4.597 9.167-1.613.822 4.58zm-3.033-12.889l-1.582-4.36 8.747-3.195 1.577 4.38zm-5.233-12.158l-2.309-4.019 8.051-4.651 2.33 4.039zm-7.218-11.066l-2.992-3.562 7.13-5.99 2.993 3.562zm-9.102-9.616l-3.556-2.998 5.98-7.129 3.582 3zm-10.583-7.923l-4.012-2.33 4.647-8.053 4.019 2.332zm-11.804-5.937l-4.36-1.605 3.182-8.742 4.347 1.6zm-12.657-3.822l-4.598-.801 1.634-9.167 4.569.806z" fill="#242D3C"/><path fill="#FFF" d="M371.084 343.753c0 6.175-4.982 11.169-11.151 11.169-6.157 0-11.164-4.995-11.164-11.169 0-6.162 5.007-11.164 11.164-11.164 6.169-.001 11.151 5.002 11.151 11.164z"/><g fill="#242D3C"><path d="M359.93 358.647c-8.2 0-14.897-6.679-14.897-14.892 0-8.2 6.697-14.881 14.897-14.881 8.207 0 14.909 6.679 14.909 14.881.003 8.21-6.699 14.892-14.909 14.892zm0-22.349c-4.096 0-7.447 3.356-7.447 7.455s3.354 7.455 7.447 7.455c4.106 0 7.45-3.356 7.45-7.455-.001-4.099-3.341-7.455-7.45-7.455z"/><path d="M335.712 340.028h13.043v7.442h-13.043zm35.379 0h42.831v7.442h-42.831z"/></g><path fill="#D9D8D7" d="M359.93 404.018c-8.2 0-14.897-6.676-14.897-14.897 0-8.2 6.697-14.881 14.897-14.881 8.207 0 14.909 6.679 14.909 14.881.003 8.22-6.699 14.897-14.909 14.897zm0-22.344c-4.096 0-7.447 3.348-7.447 7.447 0 4.104 3.354 7.442 7.447 7.442 4.106 0 7.45-3.341 7.45-7.442.002-4.101-3.341-7.447-7.45-7.447z"/></g></svg>