<svg xmlns="http://www.w3.org/2000/svg" width="171" height="171" viewBox="0 0 171 171"><path fill="#D45B3E" d="M85.283 11.434c-40.869 0-74 33.13-74 74 0 40.869 33.131 74 74 74s74-33.131 74-74c0-40.87-33.13-74-74-74z"/><path fill="#C45237" d="M85.3 11.434c-.008 0-.015 0-.022.002v147.998h.021c40.86 0 73.984-33.131 73.984-74s-33.124-74-73.984-74z"/><path opacity=".2" fill="none" stroke="#FFF" enable-background="new" d="M85.283.933c46.624 0 84.5 37.876 84.5 84.5s-37.876 84.5-84.5 84.5-84.5-37.876-84.5-84.5 37.876-84.5 84.5-84.5z"/><defs><filter id="a" filterUnits="userSpaceOnUse" x="36.774" y="44.869" width="126.622" height="120.219"><feColorMatrix values="1 0 0 0 0 0 1 0 0 0 0 0 1 0 0 0 0 0 1 0"/></filter></defs><mask maskUnits="userSpaceOnUse" x="36.774" y="44.869" width="126.622" height="120.219" id="b"><g transform="translate(.071 .615)" filter="url(#a)"><path fill="#D45B3E" d="M85.212 10.819c-40.869 0-74 33.131-74 74s33.131 74 74 74 74-33.131 74-74-33.131-74-74-74z"/><path fill="#C45237" d="M85.228 10.819l-.021.002v147.998h.021c40.86 0 73.984-33.131 73.984-74s-33.124-74-73.984-74z"/></g></mask><path mask="url(#b)" fill="#B14731" d="M36.774 75.992l22.497 22.22-3.188 27.688 38.563 39.187 24-4 25.5-21.5 16-24.5 3.25-21.75-.25-2.75-51.469-45.719-53.531 23.469-5.22-4.544-16.152 12.199z"/><path fill="#E6E5E5" d="M56.078 51.067h55.705v74.902H56.078z"/><path fill="#242D3C" d="M56.078 44.898h55.705v6.169H56.078z"/><path fill="#16C6CC" d="M56.078 76.033h55.705V101H56.078z"/><g fill="#FFF"><path d="M93.56 93.767l-8.136-8.141-8.144 8.14z"/><path d="M84.93 93.767l-5.32-5.317-5.31 5.317zm-1.908-8.794a1.707 1.707 0 0 1-3.412 0 1.706 1.706 0 0 1 3.412 0z"/></g><path d="M60.363 105.282h12.855v10.277H60.363zm17.139 0h12.855v10.277H77.502zm17.14 0h12.855v10.277H94.642zM60.363 64.955h47.135v2.236H60.363z" fill="#F15424"/><path d="M60.363 116.67h12.855v1.117H60.363zm0 2.228h12.855v1.117H60.363zm0 2.228h6.43v1.117h-6.43zm17.139-4.456h12.855v1.117H77.502zm0 2.228h12.855v1.117H77.502zm0 2.228h6.425v1.117h-6.425zm17.14-4.456h12.855v1.117H94.642zm0 2.228h12.855v1.117H94.642zm0 2.228h6.43v1.117h-6.43zM68.363 71.051h31.134v1.12H68.363z" fill="#242D3C"/><path fill="#16C6CC" d="M60.363 54.928h47.13v6.166h-47.13z"/><path d="M65.6 57.453h5.237v1.117H65.6zm10.474 0h5.234v1.117h-5.234zm10.475 0h5.234v1.117h-5.234zm10.474 0h5.236v1.117h-5.236z" fill="#242D3C"/><path fill="#E6E5E5" d="M103.227 78.93h24.302v13.865h-24.302z"/><path fill="#242D3C" d="M106.746 88.427h2.47v1.939h-2.47z"/><path d="M110.447 84.78h2.47v5.586h-2.47zm3.701 2.204h2.464v3.38h-2.464z" fill="#CCCBCA"/><path fill="#F15424" d="M117.844 81.364h2.464v9.002h-2.464z"/><path fill="#CCCBCA" d="M121.545 83.602h2.47v6.76h-2.47z"/><path d="M66.233 109.867h1.114v1.114h-1.114zm-1.157 1.113H63.92v-1.114h1.156v1.114zm-2.313 0h-1.157v-1.114h1.157v1.114zm-2.314 0h-1.156v-1.114h1.156v1.114zm-2.313 0h-1.157v-1.114h1.157v1.114zm-2.314 0h-1.156v-1.114h1.156v1.114zm-2.313 0h-1.157v-1.114h1.157v1.114zm-2.314 0h-1.157v-1.114h1.157v1.114zm-2.313 0h-1.157v-1.114h1.157v1.114zm-2.314 0h-1.157v-1.114h1.157v1.114zm-2.314 0h-1.156v-1.114h1.156v1.114zm-2.312 0h-1.158v-1.114h1.158v1.114zm-2.315 0H38.47v-1.114h1.157v1.114zm-3.428-1.113h1.115v1.114h-1.115zm1.115-1.117h-1.115v-1.117h1.115v1.116zm0-2.234h-1.115V105.4h1.115v1.116zm0-2.233h-1.115v-1.116h1.115v1.116zm0-2.233h-1.115v-1.116h1.115v1.116zm0-2.232h-1.115v-1.116h1.115v1.116zm0-2.233h-1.115v-1.116h1.115v1.116zm0-2.233h-1.115v-1.117h1.115v1.117zm0-2.233h-1.115v-1.116h1.115v1.116zm0-2.233h-1.115V89.77h1.115v1.116zm0-2.232h-1.115v-1.116h1.115v1.116zm-1.115-3.349h1.115v1.115h-1.115zm28.877 1.115H63.92v-1.114h1.156v1.115zm-2.313 0h-1.157v-1.114h1.157v1.115zm-2.314 0h-1.156v-1.114h1.156v1.115zm-2.313 0h-1.157v-1.114h1.157v1.115zm-2.314 0h-1.156v-1.114h1.156v1.115zm-2.313 0h-1.157v-1.114h1.157v1.115zm-2.314 0h-1.157v-1.114h1.157v1.115zm-2.313 0h-1.157v-1.114h1.157v1.115zm-2.314 0h-1.157v-1.114h1.157v1.115zm-2.314 0h-1.157v-1.114h1.157v1.115zm-2.312 0h-1.158v-1.114h1.158v1.115zm-2.315 0H38.47v-1.114h1.157v1.115zm27.721 0h-1.115v-1.114h1.115zm0 22.33h-1.115v-1.117h1.115v1.116zm0-2.234h-1.115V105.4h1.115v1.116zm0-2.233h-1.115v-1.116h1.115v1.116zm0-2.233h-1.115v-1.116h1.115v1.116zm0-2.232h-1.115v-1.116h1.115v1.116zm0-2.233h-1.115v-1.116h1.115v1.116zm0-2.233h-1.115v-1.117h1.115v1.117zm0-2.233h-1.115v-1.116h1.115v1.116zm0-2.233h-1.115V89.77h1.115v1.116zm0-2.232h-1.115v-1.116h1.115v1.116z" fill="#242D3C"/><path fill="#16C6CC" d="M36.756 63.754h16.296v12.28H36.756z"/><path d="M38.574 68.224h12.661v1.117H38.574zm0-2.234h12.661v1.117H38.574zm0 4.463h12.661v1.116H38.574zm0 2.227h6.33v1.118h-6.33z" fill="#FFF"/><g fill="#242D3C"><path d="M115.915 68.862h18.452v1.117h-18.452zm0-2.228h18.452v1.117h-18.452zm0-2.228h9.226v1.119h-9.226zm15.99 46.162l-5.097 2.71-2.71 5.1-5.285-13.094z"/><path d="M129.92 117.861l1.471-1.476-4.36-4.359-1.474 1.478z"/></g></svg>