<svg xmlns="http://www.w3.org/2000/svg" width="171" height="171" viewBox="0 0 171 171"><defs><mask maskUnits="userSpaceOnUse" id="a"><circle cx="85.333" cy="85.972" r="74" fill="#d45b3e"/><path d="M85.348 11.972l-.021.002v147.998h.021c40.86 0 73.984-33.131 73.984-74s-33.123-74-73.984-74z" fill="#c45237"/></mask></defs><circle cx="85.333" cy="85.972" r="74" fill="#d45b3e"/><path d="M85.348 11.972l-.021.002v147.998h.021c40.86 0 73.984-33.131 73.984-74s-33.123-74-73.984-74z" fill="#c45237"/><path d="M85.583 1.222c46.624 0 84.5 37.876 84.5 84.5s-37.876 84.5-84.5 84.5-84.5-37.876-84.5-84.5 37.876-84.5 84.5-84.5z" opacity=".2" fill="none" stroke="#fff"/><path mask="url(#a)" d="M45.465 118.542l51.409 50.69 46.315-25.102 14.85-22.627 5.656-23.335.354-5.303-78.003-43.996z" fill="#b14731" fill-rule="evenodd"/><text y="117.401" x="45.333" style="line-height:125%" font-weight="400" font-size="80" font-family="sans-serif" letter-spacing="0" word-spacing="0" fill="#fff"><tspan style="line-height:125%;-inkscape-font-specification:'FontAwesome, Normal';text-align:start" y="117.401" x="45.333" font-family="FontAwesome"></tspan></text></svg>