<svg xmlns="http://www.w3.org/2000/svg" width="171" height="171" viewBox="0 0 171 171"><defs><mask maskUnits="userSpaceOnUse" id="a"><circle cx="85.333" cy="85.972" r="74" fill="#d45b3e"/><path d="M85.348 11.972l-.021.002v147.998h.021c40.86 0 73.984-33.131 73.984-74s-33.123-74-73.984-74z" fill="#c45237"/></mask></defs><circle cx="85.333" cy="85.972" r="74" fill="#d45b3e"/><path d="M85.348 11.972l-.021.002v147.998h.021c40.86 0 73.984-33.131 73.984-74s-33.123-74-73.984-74z" fill="#c45237"/><path d="M85.583 1.222c46.624 0 84.5 37.876 84.5 84.5s-37.876 84.5-84.5 84.5-84.5-37.876-84.5-84.5 37.876-84.5 84.5-84.5z" opacity=".2" fill="none" stroke="#fff"/><path mask="url(#a)" d="M42.484 111.594l54.891 56.031L138 152.75l23.5-29L164 98.5l-38.64-41.086L44.75 61l.25 49.25z" fill="#b14731" fill-rule="evenodd"/><text y="114.543" x="42.476" style="line-height:125%;-inkscape-font-specification:'FontAwesome, Normal';text-align:start" font-weight="400" font-size="80" font-family="FontAwesome" letter-spacing="0" word-spacing="0" fill="#fff"><tspan y="114.543" x="42.476"></tspan></text></svg>