<?xml version="1.0" encoding="UTF-8" standalone="no"?>
<!-- Generator: Adobe Illustrator 17.0.0, SVG Export Plug-In . SVG Version: 6.00 Build 0)  -->

<svg
   xmlns:dc="http://purl.org/dc/elements/1.1/"
   xmlns:cc="http://creativecommons.org/ns#"
   xmlns:rdf="http://www.w3.org/1999/02/22-rdf-syntax-ns#"
   xmlns:svg="http://www.w3.org/2000/svg"
   xmlns="http://www.w3.org/2000/svg"
   xmlns:sodipodi="http://sodipodi.sourceforge.net/DTD/sodipodi-0.dtd"
   xmlns:inkscape="http://www.inkscape.org/namespaces/inkscape"
   version="1.1"
   id="Слой_1"
   sodipodi:docname="Занимайтесь самым важным.svg"
   inkscape:version="0.91 r13725"
   x="0px"
   y="0px"
   width="171px"
   height="171px"
   viewBox="0 0 171 171"
   enable-background="new 0 0 171 171"
   xml:space="preserve"><metadata
     id="metadata12"><rdf:RDF><cc:Work
         rdf:about=""><dc:format>image/svg+xml</dc:format><dc:type
           rdf:resource="http://purl.org/dc/dcmitype/StillImage" /><dc:title></dc:title></cc:Work></rdf:RDF></metadata><defs
     id="defs10"><mask
       maskUnits="userSpaceOnUse"
       id="mask4156"><g
         id="g4158"><circle
           id="circle4160"
           cx="85.333"
           cy="85.972"
           r="74"
           style="fill:#d45b3e" /><path
           id="path4162"
           inkscape:connector-curvature="0"
           d="m 85.348,11.972 c -0.007,0.001 -0.014,0.001 -0.021,0.002 l 0,147.998 c 0.007,0 0.014,0 0.021,0 40.86,0 73.984,-33.131 73.984,-74 0,-40.869 -33.123,-74 -73.984,-74 0,0 0,0 0,0 z"
           style="fill:#c45237" /></g></mask></defs><sodipodi:namedview
     showguides="false"
     inkscape:cy="28.407997"
     inkscape:cx="17.376939"
     inkscape:zoom="1.4142136"
     showgrid="false"
     guidetolerance="10"
     gridtolerance="10"
     objecttolerance="10"
     borderopacity="1"
     bordercolor="#666666"
     pagecolor="#ffffff"
     id="namedview61"
     inkscape:guide-bbox="true"
     inkscape:current-layer="Слой_1"
     inkscape:window-maximized="1"
     inkscape:window-y="-8"
     inkscape:window-x="-8"
     inkscape:window-height="801"
     inkscape:window-width="1536"
     inkscape:pageshadow="2"
     inkscape:pageopacity="0"><inkscape:grid
       type="xygrid"
       id="grid4289" /></sodipodi:namedview><g
     id="g4164"><g
       id="g4274"><circle
         id="path4230"
         cx="85.333"
         cy="85.972"
         r="74"
         style="fill:#d45b3e" /><path
         id="path4278"
         inkscape:connector-curvature="0"
         d="m 85.348,11.972 c -0.007,0.001 -0.014,0.001 -0.021,0.002 l 0,147.998 c 0.007,0 0.014,0 0.021,0 40.86,0 73.984,-33.131 73.984,-74 0,-40.869 -33.123,-74 -73.984,-74 0,0 0,0 0,0 z"
         style="fill:#c45237" /></g><path
       id="path4271"
       inkscape:connector-curvature="0"
       enable-background="new    "
       d="m 85.583,1.222 c 46.624,0 84.5,37.876 84.5,84.5 0,46.624 -37.876,84.5 -84.5,84.5 -46.624,0 -84.5,-37.876 -84.5,-84.5 0,-46.624 37.876,-84.5 84.5,-84.5 z"
       style="opacity:0.2;fill:none;stroke:#ffffff" /><path
       mask="url(#mask4156)"
       sodipodi:nodetypes="cccccccc"
       inkscape:connector-curvature="0"
       id="path4148"
       d="m 45.464755,118.54151 51.408871,50.69072 46.315494,-25.10229 14.84924,-22.62741 5.65686,-23.334527 0.35355,-5.3033 -78.002716,-43.9953 z"
       style="fill:#b14731;fill-opacity:1;fill-rule:evenodd;stroke:none;stroke-width:1px;stroke-linecap:butt;stroke-linejoin:miter;stroke-opacity:1" /><text
       sodipodi:linespacing="125%"
       id="text4144"
       y="117.40057"
       x="45.333"
       style="font-style:normal;font-weight:normal;font-size:80px;line-height:125%;font-family:sans-serif;letter-spacing:0px;word-spacing:0px;fill:#ffffff;fill-opacity:1;stroke:none;stroke-width:1px;stroke-linecap:butt;stroke-linejoin:miter;stroke-opacity:1"
       xml:space="preserve"><tspan
         style="font-style:normal;font-variant:normal;font-weight:normal;font-stretch:normal;font-size:80px;line-height:125%;font-family:FontAwesome;-inkscape-font-specification:'FontAwesome, Normal';text-align:start;writing-mode:lr-tb;text-anchor:start;fill:#ffffff;fill-opacity:1"
         y="117.40057"
         x="45.333"
         id="tspan4146"
         sodipodi:role="line"></tspan></text>
</g></svg>