<svg xmlns="http://www.w3.org/2000/svg" width="235" height="235" viewBox="0 0 235 235"><defs><filter height="130.309" width="136.616" y="80.417" x="69.833" filterUnits="userSpaceOnUse" id="a"><feColorMatrix values="1 0 0 0 0 0 1 0 0 0 0 0 1 0 0 0 0 0 1 0"/></filter><mask id="b" height="130.309" width="136.616" y="80.417" x="69.833" maskUnits="userSpaceOnUse"><g filter="url(#a)" transform="translate(-219.74 -314.3) scale(1.0946)"><path d="M307.933 320.701c-40.869 0-74 33.131-74 74s33.131 74 74 74 74-33.131 74-74-33.131-74-74-74z" fill="#293378"/><path d="M307.931 320.701v148h.002c40.869 0 74-33.131 74-74s-33.131-74-74-74h-.002z" fill="#182265"/></g></mask><mask maskUnits="userSpaceOnUse" id="c"><path d="M305.559 322.67a74 74 0 0 0-74 74 74 74 0 0 0 74 74 74 74 0 0 0 74-74 74 74 0 0 0-74-74z" transform="translate(-217.142 -314.325) scale(1.0946)" fill="#293378"/><path d="M307.931 322.646v148h.002c40.869 0 74-33.13 74-74 0-40.869-33.131-74-74-74h-.002z" fill="#182265" transform="translate(-219.74 -314.3) scale(1.0946)"/></mask></defs><path enable-background="new" d="M117.321 24.288c51.563 0 93.45 41.888 93.45 93.45 0 51.562-41.888 93.45-93.45 93.45-51.562 0-93.45-41.888-93.45-93.45 0-51.562 41.887-93.45 93.45-93.45z" opacity=".2" fill="none" stroke="#fff" stroke-width="1.099"/><g opacity=".2" fill="none" stroke="#fff"><path d="M28.028 29.814c177.857 174.857 178.51 175.878 178.51 175.878" stroke-width="1.064"/><path d="M30.09 43.669C190.548 197.763 191.1 198.638 191.1 198.638" stroke-width=".963"/><path d="M28.041 205.677c177.556-175.163 178.587-175.8 178.587-175.8" stroke-width="1.064"/><path d="M41.926 203.826C198.456 45.744 199.338 45.205 199.338 45.205" stroke-width=".963"/></g><path d="M117.321 38.868a81 81 0 0 0-81 81 81 81 0 0 0 81 81 81 81 0 0 0 81-81 81 81 0 0 0-81-81z" fill="#293378"/><path d="M117.319 38.868v162h.002c44.735 0 81-36.265 81-81s-36.265-81-81-81h-.002z" fill="#182265"/><path mask="url(#b)" d="M69.833 153.791l5.358 6.179-2.091 1.894 48.385 48.861 61.167-25.099 20.823-34.209 2.975-19.707-1.859-7.437-41.326-43.857-93.432 73.375z" fill="#050d41"/><path mask="url(#c)" d="M69.823 156.026l4.017 7.26-.737.71 42.42 42.808 43.576-9.988 25.456-21.567 17.147-30.582.884-15.733.53-5.303-39.94-41.123z" fill="#0b1451" fill-rule="evenodd"/><path fill="#b5c3c6" d="M117.32 77.628h13.103v84.752H117.32z"/><path d="M117.32 82.517H71.367c-.855 0-1.546.69-1.546 1.539v71.897c0 .85.691 1.539 1.546 1.539h45.953V82.517zm27.663 0l11.647 6.52v61.934l-11.647 6.519h18.292c.853 0 1.546-.688 1.546-1.539V84.056c0-.85-.691-1.539-1.546-1.539h-18.292z" fill="#b6c8cc"/><path d="M130.423 74.56v90.616c0 .147.16.238.287.167l25.92-14.508V88.901l-25.92-14.509a.193.193 0 0 0-.287.168z" fill="#e3e9ec"/><path d="M154.992 98.816h4.914c.905 0 1.638-.729 1.638-1.63 0-.902-.733-1.63-1.638-1.63h-4.914c-.906 0-1.638.728-1.638 1.63 0 .901.732 1.63 1.638 1.63zm4.914 1.629h-4.914c-.906 0-1.638.729-1.638 1.63 0 .902.732 1.63 1.638 1.63h4.914c.905 0 1.638-.728 1.638-1.63 0-.901-.733-1.63-1.638-1.63zm0 35.857h-4.914c-.906 0-1.638.729-1.638 1.63 0 .901.732 1.63 1.638 1.63h4.914c.905 0 1.638-.729 1.638-1.63 0-.901-.733-1.63-1.638-1.63zm0 4.89h-4.914c-.906 0-1.638.728-1.638 1.63 0 .9.732 1.63 1.638 1.63h4.914c.905 0 1.638-.73 1.638-1.63 0-.902-.733-1.63-1.638-1.63z" fill="#a3b8be"/><path fill="#556080" d="M73.097 157.49H86.2v6.52H73.097zm75.343 0h13.104v6.52H148.44z"/><g fill="#556080" transform="matrix(1.6379 0 0 1.62985 68.997 73.638)"><ellipse cx="33.503" cy="5.365" rx="1.638" ry="1.63"/><ellipse cx="33.503" cy="11.365" rx="1.638" ry="1.63"/><ellipse cx="33.503" cy="45.365" rx="1.638" ry="1.63"/><ellipse cx="33.503" cy="39.365" rx="1.638" ry="1.63"/><ellipse cx="33.503" cy="17.365" rx="1.638" ry="1.63"/><ellipse cx="33.503" cy="51.365" rx="1.638" ry="1.63"/></g><path d="M135.337 103.57v6.52c2.719 0 4.932 2.201 4.932 4.907v9.745c0 2.703-2.213 4.905-4.932 4.905v6.52c6.332 0 11.483-5.126 11.483-11.427v-9.745c0-6.301-5.15-11.425-11.483-11.425z" fill="#b5c3c6"/><path d="M137.078 106.15h-1.372v-.046h-.369v1.676h1.741c2.654 0 6.449 3.077 6.449 5.716v12.742c0 2.64-3.797 5.958-6.449 5.958h-1.74v1.61h1.956c3.455-.117 7.87-4.102 7.87-7.567v-12.742c0-3.538-4.53-7.347-8.086-7.347z" fill="#cfe1e5"/><path d="M117.32 89.036H78.576a2.199 2.199 0 0 0-2.203 2.194v57.548c0 1.211.986 2.193 2.203 2.193h38.744V89.036z" fill="#556080"/><path fill="#71c285" d="M81.286 90.666h29.483v16.299H81.286z"/><path fill="#4c8056" d="M81.286 100.445h9.828v3.26h-9.828zm0-6.519h9.828v3.26h-9.828zm19.655 6.519h9.828v3.26h-9.828zm0-6.519h9.828v3.26h-9.828z"/><path fill="#d1d4d1" d="M91.114 90.666h9.827v16.299h-9.827z"/><path fill="#71c285" d="M81.286 111.854h29.483v16.299H81.286z"/><path fill="#4c8056" d="M81.286 121.633h9.828v3.26h-9.828zm0-6.519h9.828v3.26h-9.828zm19.655 6.519h9.828v3.26h-9.828zm0-6.519h9.828v3.26h-9.828z"/><path fill="#d1d4d1" d="M91.114 111.854h9.827v16.299h-9.827z"/><path fill="#71c285" d="M81.286 134.672h29.483v16.299H81.286z"/><path fill="#4c8056" d="M81.286 144.451h9.828v3.26h-9.828zm0-6.519h9.828v3.26h-9.828zm19.655 6.519h9.828v3.26h-9.828zm0-6.519h9.828v3.26h-9.828z"/><path fill="#d1d4d1" d="M91.114 134.672h9.827v16.299h-9.827z"/><path d="M76.373 128.153h40.947v3.26H76.373zm0-21.188h40.947v3.26H76.373z" fill="#b6c8cc"/></svg>