<svg xmlns="http://www.w3.org/2000/svg" width="235" height="235" viewBox="0 0 235 235"><path fill="none" d="M5.301 124.268h26.13"/><path opacity=".2" fill="none" stroke="#FFF" stroke-width="1.099" enable-background="new" d="M116.648 24.494c51.563 0 93.45 41.888 93.45 93.45s-41.888 93.45-93.45 93.45-93.45-41.888-93.45-93.45 41.887-93.45 93.45-93.45z"/><path fill="#D45B3E" d="M116.648 36.945c-44.735 0-81 36.265-81 81 0 44.734 36.265 81 81 81s81-36.266 81-81c0-44.736-36.265-81-81-81z"/><path fill="#C45237" d="M116.978 36.962v161.964h.002c44.552 0 80.668-36.256 80.668-80.981s-36.116-80.982-80.668-80.982h-.002z"/><path opacity=".2" enable-background="new" d="M201.958 118.077h24.897m-219.888 0h24.897m85.044 85.047l-.001 24.897m.009-219.888V33.03" fill="none" stroke="#FFF" stroke-width="1.058"/><defs><filter id="a" filterUnits="userSpaceOnUse" x="81.72" y="76.192" width="122.58" height="128.338"><feColorMatrix values="1 0 0 0 0 0 1 0 0 0 0 0 1 0 0 0 0 0 1 0"/></filter></defs><mask maskUnits="userSpaceOnUse" x="81.72" y="76.192" width="122.58" height="128.338" id="b"><g transform="translate(-1.87 -4.062)" filter="url(#a)"><path opacity=".2" fill="none" stroke="#FFF" stroke-width="1.099" enable-background="new" d="M118.519 28.556c51.563 0 93.45 41.888 93.45 93.45s-41.888 93.45-93.45 93.45-93.45-41.888-93.45-93.45 41.887-93.45 93.45-93.45z"/><path fill="#D45B3E" d="M118.445 42.4c-40.869 0-74 33.296-74 74.368 0 41.072 33.131 74.368 74 74.368s74-33.296 74-74.368c0-41.073-33.131-74.368-74-74.368z" transform="matrix(1.0946 0 0 1.08918 -11.13 -5.174)"/><path fill="#C45237" d="M118.747 42.416v148.703h.002c40.701 0 73.696-33.288 73.696-74.351s-32.995-74.351-73.696-74.351l-.002-.001z" transform="matrix(1.0946 0 0 1.08918 -11.13 -5.174)"/></g></mask><path mask="url(#b)" fill="#B14731" d="M81.72 133.342l41.1 71.188 49.973-7.436 16.492-26.091L204.3 148.85l-.246-15.999-80.628-56.658-41.706 57.149z"/><g transform="translate(74.886 76.183) scale(.16812)"><circle fill="#3AC2F2" cx="248.4" cy="280.8" r="216"/><path fill="#009CC6" d="M401.2 128c84 84 84 220.8 0 305.6-84 84-220.8 84-305.6 0"/><path fill="#0084A3" d="M273.2 251.2l-54.4 54.4 152.8 152.8c10.4-7.2 20-15.2 29.6-24.8 9.6-9.6 17.6-19.2 24.8-29.6L273.2 251.2z"/><circle fill="#EFEFEF" cx="248.4" cy="280.8" r="170.4"/><path fill="#E5E5E5" d="M368.4 160.8c66.4 66.4 66.4 174.4 0 240.8s-174.4 66.4-240.8 0"/><path fill="#D1D1D3" d="M273.2 251.2l-54.4 54.4L338 424.8c10.4-6.4 20.8-14.4 30.4-24 9.6-9.6 17.6-19.2 24-30.4L273.2 251.2z"/><circle fill="#009CC6" cx="248.4" cy="280.8" r="39.2"/><path fill="#3AC2F2" d="M220.4 252.8c15.2-15.2 40-15.2 55.2 0s15.2 40 0 55.2"/><path fill="#F15249" d="M256.4 224.8c0 4-3.2 7.2-7.2 7.2h-1.6c-4 0-7.2-3.2-7.2-7.2v-57.6c0-4 3.2-7.2 7.2-7.2h1.6c4 0 7.2 3.2 7.2 7.2v57.6z"/><path fill="#FFC114" d="M294.8 247.2c-3.2 3.2-7.2 2.4-10.4 0-3.2-3.2-2.4-7.2 0-10.4l71.2-69.6c3.2-3.2 7.2-2.4 10.4 0 3.2 3.2 2.4 7.2 0 10.4l-71.2 69.6z"/><path fill="#F15249" d="M320.4 32c0 18.4-15.2 32-33.6 32H210c-18.4 0-33.6-13.6-33.6-32S191.6 0 210 0h76.8c18.4 0 33.6 13.6 33.6 32z"/><path fill="#AD0E0E" d="M320.4 32c0 18.4-15.2 32-33.6 32H210c-18.4 0-33.6-14.4-33.6-32.8"/><path fill="#FFC114" d="M165.2 92c0 11.2-8.8 20-20 20s-20-8.8-20-20 8.8-20 20-20 20 8.8 20 20z"/><path fill="#FCA12A" d="M159.6 77.6c8 8 8 20.8 0 28.8s-20.8 8-28.8 0"/><path fill="#FFC114" d="M371.6 92c0 11.2-8.8 20-20 20s-20-8.8-20-20 8.8-20 20-20 20 8.8 20 20z"/><path fill="#FCA12A" d="M366 77.6c8 8 8 20.8 0 28.8s-20.8 8-28.8 0"/></g></svg>