<?xml version="1.0" encoding="utf-8"?>
<!-- Generator: Adobe Illustrator 17.0.0, SVG Export Plug-In . SVG Version: 6.00 Build 0)  -->
<!DOCTYPE svg PUBLIC "-//W3C//DTD SVG 1.1//EN" "http://www.w3.org/Graphics/SVG/1.1/DTD/svg11.dtd">
<svg version="1.1"
	 id="Слой_1" xmlns:osb="http://www.openswatchbook.org/uri/2009/osb" xmlns:dc="http://purl.org/dc/elements/1.1/" xmlns:cc="http://creativecommons.org/ns#" xmlns:rdf="http://www.w3.org/1999/02/22-rdf-syntax-ns#" xmlns:svg="http://www.w3.org/2000/svg" xmlns:sodipodi="http://sodipodi.sourceforge.net/DTD/sodipodi-0.dtd" xmlns:inkscape="http://www.inkscape.org/namespaces/inkscape" sodipodi:docname="Р’С‹ С†РµРЅРёС‚Рµ СЃРІРѕС‘  РІСЂРµРјСЏ.svg" inkscape:version="0.91 r13725"
	 xmlns="http://www.w3.org/2000/svg" xmlns:xlink="http://www.w3.org/1999/xlink" x="0px" y="0px" width="235px" height="235px"
	 viewBox="0 0 235 235" enable-background="new 0 0 235 235" xml:space="preserve">
<sodipodi:namedview  showguides="true" inkscape:cy="90.908852" inkscape:cx="-12.020137" inkscape:zoom="1.0156625" showgrid="false" guidetolerance="10" gridtolerance="10" objecttolerance="10" borderopacity="1" bordercolor="#666666" pagecolor="#ffffff" id="namedview61" inkscape:guide-bbox="true" inkscape:current-layer="Слой_1" inkscape:window-maximized="1" inkscape:window-y="-8" inkscape:window-x="-8" inkscape:window-height="801" inkscape:window-width="1536" inkscape:pageshadow="2" inkscape:pageopacity="0">
	<inkscape:grid  type="xygrid" id="grid4289"></inkscape:grid>
</sodipodi:namedview>
<g id="g4389">
	<path id="path6749" inkscape:connector-curvature="0" fill="#FFFFFF" fill-opacity="0" d="M5.301,124.268c26.13,0,26.13,0,26.13,0"
		/>
	<g id="g4934" transform="translate(-1.8707002,-4.0620534)">
		
			<path id="path5" inkscape:connector-curvature="0" opacity="0.2" fill="none" stroke="#FFFFFF" stroke-width="1.0994" enable-background="new    " d="
			M118.519,28.556c51.563,0,93.45,41.888,93.45,93.45s-41.888,93.45-93.45,93.45s-93.45-41.888-93.45-93.45
			S66.956,28.556,118.519,28.556z"/>
		<g id="g4899" transform="matrix(1.0945946,0,0,1.0891773,-11.130858,-5.1743415)">
			
				<path id="path4213" inkscape:radius="0" sodipodi:type="inkscape:offset" inkscape:original="M 305.55859 322.66992 A 74 74 0 0 0 231.55859 396.66992 A 74 74 0 0 0 305.55859 470.66992 A 74 74 0 0 0 379.55859 396.66992 A 74 74 0 0 0 305.55859 322.66992 z " fill="#D45B3E" d="
				M118.445,42.4c-40.869,0-74,33.296-74,74.368l0,0c0,41.072,33.131,74.368,74,74.368s74-33.296,74-74.368l0,0
				C192.445,75.695,159.314,42.4,118.445,42.4L118.445,42.4z"/>
			<path id="path5728" inkscape:connector-curvature="0" fill="#C45237" d="M118.747,42.416v148.703c0.001,0,0.001,0,0.002,0
				c40.701,0,73.696-33.288,73.696-74.351s-32.995-74.351-73.696-74.351C118.748,42.416,118.747,42.416,118.747,42.416z"/>
		</g>
	</g>
	<g id="g4950" transform="translate(-1.8707002,-4.0620534)">
		<g id="g4940">
			
				<path id="path6759" inkscape:connector-curvature="0" opacity="0.2" fill="none" stroke="#FFFFFF" stroke-width="1.0581" enable-background="new    " d="
				M203.829,122.139c24.758,0,24.897,0,24.897,0"/>
			
				<path id="path4928" inkscape:connector-curvature="0" opacity="0.2" fill="none" stroke="#FFFFFF" stroke-width="1.0581" enable-background="new    " d="
				M8.838,122.139c24.758,0,24.897,0,24.897,0"/>
		</g>
		<g id="g4944" transform="matrix(-4.322337e-5,0.99999999,-0.99999999,-4.322337e-5,240.92657,3.3623086)">
			
				<path id="path4946" inkscape:connector-curvature="0" opacity="0.2" fill="none" stroke="#FFFFFF" stroke-width="1.0581" enable-background="new    " d="
				M203.829,122.139c24.758,0,24.897,0,24.897,0"/>
			
				<path id="path4948" inkscape:connector-curvature="0" opacity="0.2" fill="none" stroke="#FFFFFF" stroke-width="1.0581" enable-background="new    " d="
				M8.838,122.139c24.758,0,24.897,0,24.897,0"/>
		</g>
	</g>
	<defs>
		<filter id="Adobe_OpacityMaskFilter" filterUnits="userSpaceOnUse" x="81.72" y="76.192" width="122.58" height="128.338">
			<feColorMatrix  type="matrix" values="1 0 0 0 0  0 1 0 0 0  0 0 1 0 0  0 0 0 1 0"/>
		</filter>
	</defs>
	<mask maskUnits="userSpaceOnUse" x="81.72" y="76.192" width="122.58" height="128.338" id="mask4377">
		<g id="g4379" transform="translate(-1.8707002,-4.0620534)" filter="url(#Adobe_OpacityMaskFilter)">
			
				<path id="path4381" inkscape:connector-curvature="0" opacity="0.2" fill="none" stroke="#FFFFFF" stroke-width="1.0994" enable-background="new    " d="
				M118.519,28.556c51.563,0,93.45,41.888,93.45,93.45s-41.888,93.45-93.45,93.45s-93.45-41.888-93.45-93.45
				S66.956,28.556,118.519,28.556z"/>
			<g id="g4383" transform="matrix(1.0945946,0,0,1.0891773,-11.130858,-5.1743415)">
				
					<path id="path4385" inkscape:radius="0" sodipodi:type="inkscape:offset" inkscape:original="M 305.55859 322.66992 A 74 74 0 0 0 231.55859 396.66992 A 74 74 0 0 0 305.55859 470.66992 A 74 74 0 0 0 379.55859 396.66992 A 74 74 0 0 0 305.55859 322.66992 z " fill="#D45B3E" d="
					M118.445,42.4c-40.869,0-74,33.296-74,74.368l0,0c0,41.072,33.131,74.368,74,74.368s74-33.296,74-74.368l0,0
					C192.445,75.695,159.314,42.4,118.445,42.4L118.445,42.4z"/>
				<path id="path4387" inkscape:connector-curvature="0" fill="#C45237" d="M118.747,42.416v148.703c0.001,0,0.001,0,0.002,0
					c40.701,0,73.696-33.288,73.696-74.351s-32.995-74.351-73.696-74.351C118.748,42.416,118.747,42.416,118.747,42.416z"/>
			</g>
		</g>
	</mask>
	<path id="path4365" sodipodi:nodetypes="cccccccc" inkscape:connector-curvature="0" mask="url(#mask4377)" fill="#B14731" d="
		M81.72,133.342l41.1,71.188l49.973-7.436l16.492-26.091l15.015-22.153l-0.246-15.999l-80.628-56.658L81.72,133.342z"/>
	<g id="g4332" transform="matrix(0.16812189,0,0,0.16812189,74.886345,76.182918)">
		<circle id="circle4264" fill="#3AC2F2" cx="248.4" cy="280.8" r="216"/>
		<path id="path4266" inkscape:connector-curvature="0" fill="#009CC6" d="M401.2,128c84,84,84,220.8,0,305.6
			c-84,84-220.8,84-305.6,0"/>
		<path id="path4268" inkscape:connector-curvature="0" fill="#0084A3" d="M273.2,251.2l-54.4,54.4l152.8,152.8
			c10.4-7.2,20-15.2,29.6-24.8c9.6-9.6,17.6-19.2,24.8-29.6L273.2,251.2z"/>
		<circle id="circle4270" fill="#EFEFEF" cx="248.4" cy="280.8" r="170.4"/>
		<path id="path4272" inkscape:connector-curvature="0" fill="#E5E5E5" d="M368.4,160.8c66.4,66.4,66.4,174.4,0,240.8
			s-174.4,66.4-240.8,0"/>
		<path id="path4274" inkscape:connector-curvature="0" fill="#D1D1D3" d="M273.2,251.2l-54.4,54.4L338,424.8
			c10.4-6.4,20.8-14.4,30.4-24c9.6-9.6,17.6-19.2,24-30.4L273.2,251.2z"/>
		<circle id="circle4276" fill="#009CC6" cx="248.4" cy="280.8" r="39.2"/>
		<path id="path4278" inkscape:connector-curvature="0" fill="#3AC2F2" d="M220.4,252.8c15.2-15.2,40-15.2,55.2,0s15.2,40,0,55.2"/>
		<path id="path4280" inkscape:connector-curvature="0" fill="#F15249" d="M256.4,224.8c0,4-3.2,7.2-7.2,7.2h-1.6
			c-4,0-7.2-3.2-7.2-7.2v-57.6c0-4,3.2-7.2,7.2-7.2h1.6c4,0,7.2,3.2,7.2,7.2C256.4,167.2,256.4,224.8,256.4,224.8z"/>
		<path id="path4282" inkscape:connector-curvature="0" fill="#FFC114" d="M294.8,247.2c-3.2,3.2-7.2,2.4-10.4,0l0,0
			c-3.2-3.2-2.4-7.2,0-10.4l71.2-69.6c3.2-3.2,7.2-2.4,10.4,0l0,0c3.2,3.2,2.4,7.2,0,10.4C366,177.6,294.8,247.2,294.8,247.2z"/>
		<path id="path4284" inkscape:connector-curvature="0" fill="#F15249" d="M320.4,32c0,18.4-15.2,32-33.6,32H210
			c-18.4,0-33.6-13.6-33.6-32l0,0c0-18.4,15.2-32,33.6-32h76.8C305.2,0,320.4,13.6,320.4,32L320.4,32z"/>
		<path id="path4286" inkscape:connector-curvature="0" fill="#AD0E0E" d="M320.4,32L320.4,32c0,18.4-15.2,32-33.6,32H210
			c-18.4,0-33.6-14.4-33.6-32.8l0,0"/>
		<path id="path4288" inkscape:connector-curvature="0" fill="#FFC114" d="M165.2,92c0,11.2-8.8,20-20,20l0,0c-11.2,0-20-8.8-20-20
			l0,0c0-11.2,8.8-20,20-20l0,0C156.4,72,165.2,80.8,165.2,92L165.2,92z"/>
		<path id="path4290" inkscape:connector-curvature="0" fill="#FCA12A" d="M159.6,77.6L159.6,77.6c8,8,8,20.8,0,28.8l0,0
			c-8,8-20.8,8-28.8,0l0,0"/>
		<path id="path4292" inkscape:connector-curvature="0" fill="#FFC114" d="M371.6,92c0,11.2-8.8,20-20,20l0,0c-11.2,0-20-8.8-20-20
			l0,0c0-11.2,8.8-20,20-20l0,0C362.8,72,371.6,80.8,371.6,92L371.6,92z"/>
		<path id="path4294" inkscape:connector-curvature="0" fill="#FCA12A" d="M366,77.6L366,77.6c8,8,8,20.8,0,28.8l0,0
			c-8,8-20.8,8-28.8,0l0,0"/>
		<g id="g4296">
		</g>
		<g id="g4298">
		</g>
		<g id="g4300">
		</g>
		<g id="g4302">
		</g>
		<g id="g4304">
		</g>
		<g id="g4306">
		</g>
		<g id="g4308">
		</g>
		<g id="g4310">
		</g>
		<g id="g4312">
		</g>
		<g id="g4314">
		</g>
		<g id="g4316">
		</g>
		<g id="g4318">
		</g>
		<g id="g4320">
		</g>
		<g id="g4322">
		</g>
		<g id="g4324">
		</g>
	</g>
</g>
</svg>
