<svg xmlns:osb="http://www.openswatchbook.org/uri/2009/osb" xmlns="http://www.w3.org/2000/svg" id="Слой_1" viewBox="0 0 235 235" width="235" height="235"><defs id="defs63"><linearGradient id="linearGradient5688" osb:paint="solid"><stop offset="0" id="stop5690" stop-color="#f00000"/></linearGradient><linearGradient id="linearGradient4460" osb:paint="solid"><stop offset="0" id="stop4462"/></linearGradient><linearGradient id="linearGradient4940" osb:paint="solid"><stop offset="0" id="stop4942" stop-color="#c2d0e0" stop-opacity="0"/></linearGradient><linearGradient id="linearGradient4247" osb:paint="solid"><stop offset="0" id="stop4249"/></linearGradient><linearGradient id="linearGradient4201" osb:paint="solid"><stop offset="0" id="stop4203" stop-color="#fff" stop-opacity=".157"/></linearGradient><linearGradient id="linearGradient4195" osb:paint="solid"><stop offset="0" id="stop4197"/></linearGradient><mask maskUnits="userSpaceOnUse" id="mask8394"><g transform="translate(-219.023 -315.673) scale(1.0946)" id="g8396"><path id="path8398" d="M305.559 322.67a74 74 0 0 0-74 74 74 74 0 0 0 74 74 74 74 0 0 0 74-74 74 74 0 0 0-74-74z" transform="translate(1.621 -1.023)" fill="#177898"/><path d="M307.178 321.646v148a74 74 0 0 0 .002 0 74 74 0 0 0 74-74 74 74 0 0 0-74-74 74 74 0 0 0-.002 0z" id="path8400" fill="#0f7289"/></g></mask></defs><style id="style3">.st0{fill:#197999}.st0,.st1,.st2,.st3,.st4,.st5,.st6{fill-rule:evenodd;clip-rule:evenodd}.st1{fill:#ec690b}.st2{fill:#f6ab80}.st3{fill:#783413}.st4{fill:#56230e}.st5{fill:#9c1915}.st6{fill:#c51727}</style><style id="style3-1">.st0{fill:#197999}.st0,.st1,.st2,.st3,.st4,.st5,.st6{fill-rule:evenodd;clip-rule:evenodd}.st1{fill:#ec690b}.st2{fill:#f6ab80}.st3{fill:#783413}.st4{fill:#56230e}.st5{fill:#9c1915}.st6{fill:#c51727}</style><style id="style3-5">.st0{fill:#197999}.st0,.st1,.st2,.st3,.st4,.st5,.st6{fill-rule:evenodd;clip-rule:evenodd}.st1{fill:#ec690b}.st2{fill:#f6ab80}.st3{fill:#783413}.st4{fill:#56230e}.st5{fill:#9c1915}.st6{fill:#c51727}</style><style id="style3-8">.st0{fill:#197999}.st0,.st1,.st2,.st3,.st4,.st5,.st6{fill-rule:evenodd;clip-rule:evenodd}.st1{fill:#ec690b}.st2{fill:#f6ab80}.st3{fill:#783413}.st4{fill:#56230e}.st5{fill:#9c1915}.st6{fill:#c51727}</style><style id="style3-5-3">.st0{fill:#197999}.st0,.st1,.st2,.st3,.st4,.st5,.st6{fill-rule:evenodd;clip-rule:evenodd}.st1{fill:#ec690b}.st2{fill:#f6ab80}.st3{fill:#783413}.st4{fill:#56230e}.st5{fill:#9c1915}.st6{fill:#c51727}</style><g id="g8404"><g transform="translate(-.52 -.042)" id="g4219" opacity=".2"><g id="g4457" transform="translate(11.464 11.21)"><g id="g4416"><g id="g4408" fill="none" fill-rule="evenodd" stroke="#fff"><g id="g4400"><path id="path4275" d="M186.47 107.91h37.25" stroke-width="1.325"/><path d="M186.018 104.55h37.71" id="path4277" stroke-width="1.334"/></g><g id="g4404"><path d="M-10.854 107.91h37.698" id="path4326" stroke-width="1.333"/><path id="path4328" d="M-10.857 104.55h37.71" stroke-width="1.334"/></g></g></g></g><g id="g4467" transform="rotate(90.055 106.568 117.562)"><g id="g4469"><g id="g4471" fill="none" fill-rule="evenodd" stroke="#fff"><g id="g4473"><path d="M186.47 107.91h37.25" id="path4475" stroke-width="1.325"/><path id="path4477" d="M186.018 104.55h37.71" stroke-width="1.334"/></g><g id="g4479"><path id="path4481" d="M-10.854 107.91h37.698" stroke-width="1.333"/><path d="M-10.857 104.55h37.71" id="path4483" stroke-width="1.334"/></g></g></g></g></g><path id="path5" d="M117.214 23.949c51.563 0 93.45 41.887 93.45 93.45s-41.887 93.45-93.45 93.45c-51.562 0-93.45-41.887-93.45-93.45s41.888-93.45 93.45-93.45z" class="st0" clip-rule="evenodd" opacity=".2" fill="none" fill-rule="evenodd" stroke="#fff" stroke-width="1.099"/><g transform="translate(-219.023 -315.673) scale(1.0946)" id="g4257"><path id="path4213" d="M305.559 322.67a74 74 0 0 0-74 74 74 74 0 0 0 74 74 74 74 0 0 0 74-74 74 74 0 0 0-74-74z" transform="translate(1.621 -1.023)" fill="#177898"/><path d="M307.178 321.646v148a74 74 0 0 0 .002 0 74 74 0 0 0 74-74 74 74 0 0 0-74-74 74 74 0 0 0-.002 0z" id="path5728" fill="#0f7289"/></g><path id="path6749" d="M12.312 117.88h26.132" fill="#fff" fill-opacity="0" fill-rule="evenodd" stroke-width="1.068"/><path mask="url(#mask8394)" id="path8386" d="M85.71 159.39l47.668 47.414 45.343-14.938L202.5 133.5l-53.785-58.094z" fill="#0f6378" fill-rule="evenodd"/><g transform="translate(-.418 1.157)" id="g8155" stroke-width="4" stroke-linecap="round"><g id="g8117"><path id="rect8106" fill="#32a5b9" d="M86.133 74.242h63v84h-63z"/><path id="rect8110" d="M86.133 74.242v84h31.64v-84h-31.64z" fill="#2b8a9a"/></g><g id="g8128"><rect ry="3.906" y="87.734" x="95.029" height="7.813" width="45.209" id="rect8121" fill="#c4c8c4"/><path id="rect8123" d="M98.936 87.734a3.898 3.898 0 0 0-3.907 3.907 3.898 3.898 0 0 0 3.907 3.906h18.837v-7.813H98.936z" fill="#a5a9a6"/></g><g id="g8132" transform="matrix(.675 0 0 .675 38.306 39.842)"><rect id="rect8134" width="45.209" height="7.813" x="95.029" y="87.734" ry="3.906" fill="#c4c8c4"/><path d="M98.936 87.734a3.898 3.898 0 0 0-3.907 3.907 3.898 3.898 0 0 0 3.907 3.906h18.837v-7.813H98.936z" id="path8136" fill="#a5a9a6"/></g><g id="g8151"><rect ry="1.465" y="148.477" x="102.45" height="2.93" width="30.516" id="rect8140" fill="#1c7186"/><path id="rect8146" d="M103.916 148.477c-.812 0-1.465.653-1.465 1.464 0 .812.653 1.465 1.465 1.465h13.857v-2.93h-13.857z" fill="#165b6b"/></g></g></g><style id="style3-2">.st0{fill:#197999}.st0,.st1,.st2,.st3,.st4,.st5,.st6{fill-rule:evenodd;clip-rule:evenodd}.st1{fill:#ec690b}.st2{fill:#f6ab80}.st3{fill:#783413}.st4{fill:#56230e}.st5{fill:#9c1915}.st6{fill:#c51727}</style><style id="style3-1-1">.st0{fill:#197999}.st0,.st1,.st2,.st3,.st4,.st5,.st6{fill-rule:evenodd;clip-rule:evenodd}.st1{fill:#ec690b}.st2{fill:#f6ab80}.st3{fill:#783413}.st4{fill:#56230e}.st5{fill:#9c1915}.st6{fill:#c51727}</style><style id="style3-5-4">.st0{fill:#197999}.st0,.st1,.st2,.st3,.st4,.st5,.st6{fill-rule:evenodd;clip-rule:evenodd}.st1{fill:#ec690b}.st2{fill:#f6ab80}.st3{fill:#783413}.st4{fill:#56230e}.st5{fill:#9c1915}.st6{fill:#c51727}</style><style id="style3-8-2">.st0{fill:#197999}.st0,.st1,.st2,.st3,.st4,.st5,.st6{fill-rule:evenodd;clip-rule:evenodd}.st1{fill:#ec690b}.st2{fill:#f6ab80}.st3{fill:#783413}.st4{fill:#56230e}.st5{fill:#9c1915}.st6{fill:#c51727}</style><style id="style3-5-3-6">.st0{fill:#197999}.st0,.st1,.st2,.st3,.st4,.st5,.st6{fill-rule:evenodd;clip-rule:evenodd}.st1{fill:#ec690b}.st2{fill:#f6ab80}.st3{fill:#783413}.st4{fill:#56230e}.st5{fill:#9c1915}.st6{fill:#c51727}</style></svg>