<?xml version="1.0" encoding="UTF-8" standalone="no"?>
<!-- Generator: Adobe Illustrator 17.0.0, SVG Export Plug-In . SVG Version: 6.00 Build 0)  -->

<svg
   xmlns:dc="http://purl.org/dc/elements/1.1/"
   xmlns:cc="http://creativecommons.org/ns#"
   xmlns:rdf="http://www.w3.org/1999/02/22-rdf-syntax-ns#"
   xmlns:svg="http://www.w3.org/2000/svg"
   xmlns="http://www.w3.org/2000/svg"
   xmlns:sodipodi="http://sodipodi.sourceforge.net/DTD/sodipodi-0.dtd"
   xmlns:inkscape="http://www.inkscape.org/namespaces/inkscape"
   version="1.1"
   id="Слой_1"
   sodipodi:docname="Вас интересует конкретный  результат - новые клиенты.svg"
   inkscape:version="0.91 r13725"
   x="0px"
   y="0px"
   width="235px"
   height="235px"
   viewBox="0 0 235 235"
   enable-background="new 0 0 235 235"
   xml:space="preserve"><metadata
     id="metadata90"><rdf:RDF><cc:Work
         rdf:about=""><dc:format>image/svg+xml</dc:format><dc:type
           rdf:resource="http://purl.org/dc/dcmitype/StillImage" /></cc:Work></rdf:RDF></metadata><defs
     id="defs88"><defs
       id="defs18"><filter
         height="130.309"
         width="136.616"
         y="80.417"
         x="69.833"
         filterUnits="userSpaceOnUse"
         id="Adobe_OpacityMaskFilter"><feColorMatrix
           id="feColorMatrix21"
           values="1 0 0 0 0  0 1 0 0 0  0 0 1 0 0  0 0 0 1 0"
           type="matrix" /></filter></defs><mask
       id="mask4392"
       height="130.309"
       width="136.616"
       y="80.417"
       x="69.833"
       maskUnits="userSpaceOnUse"><g
         filter="url(#Adobe_OpacityMaskFilter)"
         transform="matrix(1.0945946,0,0,1.0945944,-219.7408,-314.29912)"
         id="g4394"><path
           d="     M307.933,320.701c-40.869,0-74,33.131-74,74l0,0c0,40.869,33.131,74,74,74s74-33.131,74-74l0,0     C381.933,353.832,348.802,320.701,307.933,320.701L307.933,320.701z"
           fill="#293378"
           inkscape:original="M 305.55859 322.66992 A 74 74 0 0 0 231.55859 396.66992 A 74 74 0 0 0 305.55859 470.66992 A 74 74 0 0 0 379.55859 396.66992 A 74 74 0 0 0 305.55859 322.66992 z "
           sodipodi:type="inkscape:offset"
           inkscape:radius="0"
           id="path4396" /><path
           d="M307.931,320.701v148c0.001,0,0.001,0,0.002,0     c40.869,0,74-33.131,74-74l0,0c0-40.869-33.131-74-74-74l0,0C307.932,320.701,307.931,320.701,307.931,320.701z"
           fill="#182265"
           inkscape:connector-curvature="0"
           id="path4398" /></g></mask><mask
       maskUnits="userSpaceOnUse"
       id="mask4317"><g
         id="g4319"
         transform="matrix(1.0945946,0,0,1.0945944,-219.7408,-314.29912)"><g
           id="g4321"><path
             style="fill:#293378"
             d="m 305.55859,322.66992 a 74,74 0 0 0 -74,74 74,74 0 0 0 74,74 74,74 0 0 0 74,-74 74,74 0 0 0 -74,-74 z"
             inkscape:original="M 305.55859 322.66992 A 74 74 0 0 0 231.55859 396.66992 A 74 74 0 0 0 305.55859 470.66992 A 74 74 0 0 0 379.55859 396.66992 A 74 74 0 0 0 305.55859 322.66992 z "
             sodipodi:type="inkscape:offset"
             inkscape:radius="0"
             id="path4323"
             transform="translate(2.37441,-0.02374)" /><path
             style="fill:#182265"
             d="m 307.931,322.64618 0,148 c 0.001,0 0.001,0 0.002,0 40.869,0 74,-33.131 74,-74 l 0,0 c 0,-40.869 -33.131,-74 -74,-74 l 0,0 c -10e-4,0 -0.002,0 -0.002,0 z"
             inkscape:connector-curvature="0"
             id="path4325" /></g></g></mask></defs><sodipodi:namedview
     showguides="false"
     inkscape:cy="113.82299"
     inkscape:cx="33.745731"
     inkscape:zoom="1.4142136"
     showgrid="false"
     guidetolerance="10"
     gridtolerance="10"
     objecttolerance="10"
     borderopacity="1"
     bordercolor="#666666"
     pagecolor="#ffffff"
     id="namedview61"
     inkscape:guide-bbox="true"
     inkscape:current-layer="Слой_1"
     inkscape:window-maximized="1"
     inkscape:window-y="-8"
     inkscape:window-x="-8"
     inkscape:window-height="801"
     inkscape:window-width="1536"
     inkscape:pageshadow="2"
     inkscape:pageopacity="0"><inkscape:grid
       type="xygrid"
       id="grid4289" /><sodipodi:guide
       orientation="1,0"
       position="307.17715,321.94352"
       id="guide5726" /></sodipodi:namedview><g
     id="g4327"><path
       id="path5"
       inkscape:connector-curvature="0"
       enable-background="new    "
       d="m 117.321,24.288 c 51.563,0 93.45,41.888 93.45,93.45 0,51.562 -41.888,93.45 -93.45,93.45 -51.562,0 -93.45,-41.888 -93.45,-93.45 0,-51.562 41.887,-93.45 93.45,-93.45 l 0,0 z"
       style="opacity:0.2;fill:none;stroke:#ffffff;stroke-width:1.09940004" /><g
       id="g4378"
       transform="translate(24.12132,28.550252)"
       style="opacity:0.2"><g
         id="g4262"
         transform="translate(1.2475895,-7.1004611)"><path
           id="path5710"
           inkscape:connector-curvature="0"
           d="m 2.659,8.364 c 177.857,174.857 178.51,175.878 178.51,175.878"
           style="fill:none;stroke:#ffffff;stroke-width:1.06420004" /><path
           id="path5712"
           inkscape:connector-curvature="0"
           d="M 4.722,22.219 C 165.178,176.313 165.731,177.188 165.731,177.188"
           style="fill:none;stroke:#ffffff;stroke-width:0.96280003" /></g><g
         id="g4372"
         transform="matrix(0.01528629,-0.99988316,0.99988316,0.01528629,-6.3297317,179.85247)"><path
           id="path4374"
           inkscape:connector-curvature="0"
           d="m 2.882,10.207 c 177.857,174.857 178.51,175.878 178.51,175.878"
           style="fill:none;stroke:#ffffff;stroke-width:1.06420004" /><path
           id="path4376"
           inkscape:connector-curvature="0"
           d="M 4.945,24.062 C 165.401,178.156 165.954,179.031 165.954,179.031"
           style="fill:none;stroke:#ffffff;stroke-width:0.96280003" /></g></g><g
       id="g5733"
       transform="matrix(1.0945946,0,0,1.0945944,-219.7408,-314.29912)"><g
         id="g4297"><path
           style="fill:#293378"
           d="m 305.55859,322.66992 a 74,74 0 0 0 -74,74 74,74 0 0 0 74,74 74,74 0 0 0 74,-74 74,74 0 0 0 -74,-74 z"
           inkscape:original="M 305.55859 322.66992 A 74 74 0 0 0 231.55859 396.66992 A 74 74 0 0 0 305.55859 470.66992 A 74 74 0 0 0 379.55859 396.66992 A 74 74 0 0 0 305.55859 322.66992 z "
           sodipodi:type="inkscape:offset"
           inkscape:radius="0"
           id="path4213"
           transform="translate(2.37441,-0.02374)" /><path
           style="fill:#182265"
           d="m 307.931,322.64618 0,148 c 0.001,0 0.001,0 0.002,0 40.869,0 74,-33.131 74,-74 l 0,0 c 0,-40.869 -33.131,-74 -74,-74 l 0,0 c -10e-4,0 -0.002,0 -0.002,0 z"
           inkscape:connector-curvature="0"
           id="path5728" /></g></g><path
       id="path4384"
       sodipodi:nodetypes="cccccccccc"
       inkscape:connector-curvature="0"
       mask="url(#mask4392)"
       d="m 69.833,153.791 5.358,6.179 -2.091,1.894 48.385,48.861 61.167,-25.099 20.823,-34.209 2.975,-19.707 -1.859,-7.437 -41.326,-43.857 -93.432,73.375 z"
       style="fill:#050d41" /><path
       mask="url(#mask4317)"
       sodipodi:nodetypes="ccccccccccc"
       inkscape:connector-curvature="0"
       id="path4307"
       d="m 69.822888,156.02578 4.01753,7.26039 -0.73773,0.71036 42.420882,42.80759 43.57546,-9.98789 25.45584,-21.56675 17.14734,-30.58237 0.88388,-15.73313 0.53033,-5.3033 -39.94048,-41.122676 z"
       style="fill:#0b1451;fill-opacity:1;fill-rule:evenodd;stroke:none;stroke-width:1px;stroke-linecap:butt;stroke-linejoin:miter;stroke-opacity:1" /><g
       id="g4465"
       transform="matrix(1.6379028,0,0,1.6298464,68.997134,73.637673)"><g
         id="g4341"><rect
           id="rect4343"
           x="29.503"
           y="2.448"
           width="8"
           height="52"
           style="fill:#b5c3c6" /><g
           id="g4345"><path
             id="path4347"
             inkscape:connector-curvature="0"
             d="m 29.503,5.448 -28.056,0 c -0.522,0 -0.944,0.423 -0.944,0.944 l 0,44.113 c 0,0.521 0.422,0.944 0.944,0.944 l 28.056,0 0,-46.001 z"
             style="fill:#b6c8cc" /><path
             id="path4349"
             inkscape:connector-curvature="0"
             d="m 46.392,5.448 7.111,4 0,38 -7.111,4 11.168,0 c 0.521,0 0.944,-0.422 0.944,-0.944 l 0,-44.112 c 0,-0.521 -0.422,-0.944 -0.944,-0.944 l -11.168,0 z"
             style="fill:#b6c8cc" /></g><path
           id="path4351"
           inkscape:connector-curvature="0"
           d="m 37.503,0.566 0,55.598 c 0,0.09 0.097,0.146 0.175,0.102 l 15.825,-8.901 0,-38 L 37.678,0.463 C 37.6,0.419 37.503,0.476 37.503,0.566 Z"
           style="fill:#e3e9ec" /><g
           id="g4353"><path
             id="path4355"
             inkscape:connector-curvature="0"
             d="m 52.503,15.448 3,0 c 0.553,0 1,-0.447 1,-1 0,-0.553 -0.447,-1 -1,-1 l -3,0 c -0.553,0 -1,0.447 -1,1 0,0.553 0.447,1 1,1 z"
             style="fill:#a3b8be" /><path
             id="path4357"
             inkscape:connector-curvature="0"
             d="m 55.503,16.448 -3,0 c -0.553,0 -1,0.447 -1,1 0,0.553 0.447,1 1,1 l 3,0 c 0.553,0 1,-0.447 1,-1 0,-0.553 -0.447,-1 -1,-1 z"
             style="fill:#a3b8be" /><path
             id="path4359"
             inkscape:connector-curvature="0"
             d="m 55.503,38.448 -3,0 c -0.553,0 -1,0.447 -1,1 0,0.553 0.447,1 1,1 l 3,0 c 0.553,0 1,-0.447 1,-1 0,-0.553 -0.447,-1 -1,-1 z"
             style="fill:#a3b8be" /><path
             id="path4361"
             inkscape:connector-curvature="0"
             d="m 55.503,41.448 -3,0 c -0.553,0 -1,0.447 -1,1 0,0.553 0.447,1 1,1 l 3,0 c 0.553,0 1,-0.447 1,-1 0,-0.553 -0.447,-1 -1,-1 z"
             style="fill:#a3b8be" /></g><rect
           id="rect4363"
           x="2.503"
           y="51.448002"
           width="8"
           height="4"
           style="fill:#556080" /><rect
           id="rect4365"
           x="48.502998"
           y="51.448002"
           width="8"
           height="4"
           style="fill:#556080" /><g
           id="g4367"><ellipse
             id="circle4369"
             cx="33.502998"
             cy="5.3649998"
             rx="1.638"
             ry="1.63"
             style="fill:#556080" /><ellipse
             id="circle4371"
             cx="33.502998"
             cy="11.365"
             rx="1.638"
             ry="1.63"
             style="fill:#556080" /><ellipse
             id="circle4373"
             cx="33.502998"
             cy="45.365002"
             rx="1.638"
             ry="1.63"
             style="fill:#556080" /><ellipse
             id="circle4375"
             cx="33.502998"
             cy="39.365002"
             rx="1.638"
             ry="1.63"
             style="fill:#556080" /><ellipse
             id="circle4377"
             cx="33.502998"
             cy="17.365"
             rx="1.638"
             ry="1.63"
             style="fill:#556080" /><ellipse
             id="circle4379"
             cx="33.502998"
             cy="51.365002"
             rx="1.638"
             ry="1.63"
             style="fill:#556080" /></g><path
           id="path4381"
           inkscape:connector-curvature="0"
           d="m 40.503,18.365 0,4 c 1.66,0 3.011,1.351 3.011,3.011 l 0,5.979 c 0,1.659 -1.351,3.01 -3.011,3.01 l 0,4 c 3.866,0 7.011,-3.145 7.011,-7.011 l 0,-5.979 c 0,-3.866 -3.145,-7.01 -7.011,-7.01 z"
           style="fill:#b5c3c6" /><path
           id="path4383"
           inkscape:connector-curvature="0"
           d="m 41.566,19.948 -0.838,0 0,-0.028 -0.225,0 0,1.028 1.063,0 c 1.62,0 3.937,1.888 3.937,3.507 l 0,7.818 c 0,1.62 -2.318,3.656 -3.937,3.656 l -1.063,0 0,0.987 1.195,0 c 2.109,-0.071 4.805,-2.516 4.805,-4.642 l 0,-7.818 c 0,-2.171 -2.766,-4.508 -4.937,-4.508 z"
           style="fill:#cfe1e5" /><path
           id="path4385"
           inkscape:connector-curvature="0"
           d="m 29.503,9.448 -23.655,0 c -0.743,0 -1.345,0.603 -1.345,1.346 l 0,35.309 c 0,0.743 0.602,1.345 1.345,1.345 l 23.655,0 0,-38 z"
           style="fill:#556080" /><rect
           id="rect4387"
           x="7.5029998"
           y="10.448"
           width="18"
           height="10"
           style="fill:#71c285" /><rect
           id="rect4389"
           x="7.5029998"
           y="16.448"
           width="6"
           height="2"
           style="fill:#4c8056" /><rect
           id="rect4391"
           x="7.5029998"
           y="12.448"
           width="6"
           height="2"
           style="fill:#4c8056" /><rect
           id="rect4393"
           x="19.503"
           y="16.448"
           width="6"
           height="2"
           style="fill:#4c8056" /><rect
           id="rect4395"
           x="19.503"
           y="12.448"
           width="6"
           height="2"
           style="fill:#4c8056" /><rect
           id="rect4397"
           x="13.503"
           y="10.448"
           width="6"
           height="10"
           style="fill:#d1d4d1" /><rect
           id="rect4399"
           x="7.5029998"
           y="23.448"
           width="18"
           height="10"
           style="fill:#71c285" /><rect
           id="rect4401"
           x="7.5029998"
           y="29.448"
           width="6"
           height="2"
           style="fill:#4c8056" /><rect
           id="rect4403"
           x="7.5029998"
           y="25.448"
           width="6"
           height="2"
           style="fill:#4c8056" /><rect
           id="rect4405"
           x="19.503"
           y="29.448"
           width="6"
           height="2"
           style="fill:#4c8056" /><rect
           id="rect4407"
           x="19.503"
           y="25.448"
           width="6"
           height="2"
           style="fill:#4c8056" /><rect
           id="rect4409"
           x="13.503"
           y="23.448"
           width="6"
           height="10"
           style="fill:#d1d4d1" /><rect
           id="rect4411"
           x="7.5029998"
           y="37.448002"
           width="18"
           height="10"
           style="fill:#71c285" /><rect
           id="rect4413"
           x="7.5029998"
           y="43.448002"
           width="6"
           height="2"
           style="fill:#4c8056" /><rect
           id="rect4415"
           x="7.5029998"
           y="39.448002"
           width="6"
           height="2"
           style="fill:#4c8056" /><rect
           id="rect4417"
           x="19.503"
           y="43.448002"
           width="6"
           height="2"
           style="fill:#4c8056" /><rect
           id="rect4419"
           x="19.503"
           y="39.448002"
           width="6"
           height="2"
           style="fill:#4c8056" /><rect
           id="rect4421"
           x="13.503"
           y="37.448002"
           width="6"
           height="10"
           style="fill:#d1d4d1" /><g
           id="g4423"><rect
             id="rect4425"
             x="4.5029998"
             y="33.448002"
             width="25"
             height="2"
             style="fill:#b6c8cc" /><rect
             id="rect4427"
             x="4.5029998"
             y="20.448"
             width="25"
             height="2"
             style="fill:#b6c8cc" /></g></g><g
         id="g4429" /><g
         id="g4431" /><g
         id="g4433" /><g
         id="g4435" /><g
         id="g4437" /><g
         id="g4439" /><g
         id="g4441" /><g
         id="g4443" /><g
         id="g4445" /><g
         id="g4447" /><g
         id="g4449" /><g
         id="g4451" /><g
         id="g4453" /><g
         id="g4455" /><g
         id="g4457" /></g></g></svg>