<svg xmlns="http://www.w3.org/2000/svg" width="171" height="171" viewBox="0 0 171 171"><defs><mask maskUnits="userSpaceOnUse" id="a"><circle cx="85.725" cy="85.25" r="74" fill="#177898"/><path d="M85.74 11.25l-.021.002V159.25h.021c40.86 0 73.984-33.131 73.984-74s-33.123-74-73.984-74z" fill="#0f7289"/></mask></defs><circle cx="85.725" cy="85.25" r="74" fill="#177898"/><path d="M85.74 11.25l-.021.002V159.25h.021c40.86 0 73.984-33.131 73.984-74s-33.123-74-73.984-74z" fill="#0f7289"/><path d="M85.725.75c46.624 0 84.5 37.876 84.5 84.5s-37.876 84.5-84.5 84.5-84.5-37.876-84.5-84.5S39.101.75 85.725.75z" opacity=".2" fill="none" stroke="#fff"/><path mask="url(#a)" d="M61.192 105.55l53.183 50.575 26.875-16.375s15.25-15.5 15.5-17 5-19 5-19l-54.047-46.71L77.25 63l-5.5 17.25z" fill="#0f6378" fill-rule="evenodd"/><text y="116.975" x="54.72" font-size="90" style="line-height:125%" font-family="AmazingGrotesk-Ultra" fill="#fff"><tspan style="line-height:125%;-inkscape-font-specification:'Amazing Grotesk, Heavy';text-align:start" font-weight="900" font-family="Amazing Grotesk">6</tspan></text></svg>