<svg xmlns="http://www.w3.org/2000/svg" width="171" height="171" viewBox="0 0 171 171"><defs><mask maskUnits="userSpaceOnUse" id="a"><circle cx="85.058" cy="85.417" r="74" fill="#177898"/><path d="M85.073 11.417l-.021.002v147.998h.021c40.86 0 73.984-33.131 73.984-74s-33.123-74-73.984-74z" fill="#0f7289"/></mask></defs><circle cx="85.058" cy="85.417" r="74" fill="#177898"/><path d="M85.073 11.417l-.021.002v147.998h.021c40.86 0 73.984-33.131 73.984-74s-33.123-74-73.984-74z" fill="#0f7289"/><path d="M85.058.917c46.624 0 84.5 37.876 84.5 84.5s-37.876 84.5-84.5 84.5-84.5-37.876-84.5-84.5 37.876-84.5 84.5-84.5z" opacity=".2" fill="none" stroke="#fff"/><path mask="url(#a)" d="M56.578 105.621l56.797 56.504L142.5 145s11.5-18 11.5-19 9.25-27.75 9.25-27.75l-.5-8 .25-3.5-60.082-35.127z" fill="#0f6378" fill-rule="evenodd"/><text y="115.522" x="51.263" font-size="90" style="line-height:125%" font-family="AmazingGrotesk-Ultra" fill="#fff"><tspan style="line-height:125%;-inkscape-font-specification:'Amazing Grotesk, Heavy';text-align:start" font-weight="900" font-family="Amazing Grotesk">4</tspan></text></svg>