<svg xmlns="http://www.w3.org/2000/svg" width="171" height="171" viewBox="0 0 171 171"><defs><mask maskUnits="userSpaceOnUse" id="a"><circle cx="85.058" cy="85.417" r="74" fill="#177898"/><path d="M85.073 11.417l-.021.002v147.998h.021c40.86 0 73.984-33.131 73.984-74s-33.123-74-73.984-74z" fill="#0f7289"/></mask></defs><circle cx="85.058" cy="85.417" r="74" fill="#177898"/><path d="M85.073 11.417l-.021.002v147.998h.021c40.86 0 73.984-33.131 73.984-74s-33.123-74-73.984-74z" fill="#0f7289"/><path d="M85.058.917c46.624 0 84.5 37.876 84.5 84.5s-37.876 84.5-84.5 84.5-84.5-37.876-84.5-84.5 37.876-84.5 84.5-84.5z" opacity=".2" fill="none" stroke="#fff"/><path mask="url(#a)" d="M64.954 72.26l14.728 14.55-.248 2.199 13.064 12.916-6.673 8.175-25.102 2.486 49.057 49.134 24.72-13.22 15.25-16L160 113.75l2-4.75.75-4.75-.75-4.75-63.5-44.27L69 63.5z" fill="#0f6378" fill-rule="evenodd"/><text y="117.097" x="56.393" font-size="90" style="line-height:125%" font-family="AmazingGrotesk-Ultra" fill="#fff"><tspan style="line-height:125%;-inkscape-font-specification:'Amazing Grotesk, Heavy';text-align:start" font-weight="900" font-family="Amazing Grotesk">3</tspan></text></svg>