<svg xmlns="http://www.w3.org/2000/svg" width="171" height="171" viewBox="0 0 171 171"><defs><mask maskUnits="userSpaceOnUse" id="a"><circle cx="85.725" cy="85.25" r="74" fill="#177898"/><path d="M85.74 11.25l-.021.002V159.25h.021c40.86 0 73.984-33.131 73.984-74s-33.123-74-73.984-74z" fill="#0f7289"/></mask></defs><circle cx="85.725" cy="85.25" r="74" fill="#177898"/><path d="M85.74 11.25l-.021.002V159.25h.021c40.86 0 73.984-33.131 73.984-74s-33.123-74-73.984-74z" fill="#0f7289"/><path d="M85.725.75c46.624 0 84.5 37.876 84.5 84.5s-37.876 84.5-84.5 84.5-84.5-37.876-84.5-84.5S39.101.75 85.725.75z" opacity=".2" fill="none" stroke="#fff"/><path mask="url(#a)" d="M64.623 88.7l22.793 22.284-26.041 1.216 49.199 49.342s23.776-15.998 24.66-15.998c.884 0 19.269-19.799 19.8-20.506.53-.707 5.302-22.45 5.302-22.45L108.08 52.8l-37.9 11.073z" fill="#0f6378" fill-rule="evenodd"/><text y="116.705" x="58.86" font-size="90" style="line-height:125%" font-family="AmazingGrotesk-Ultra" fill="#fff"><tspan style="line-height:125%;-inkscape-font-specification:'Amazing Grotesk, Heavy';text-align:start" font-weight="900" font-family="Amazing Grotesk">5</tspan></text></svg>