<svg xmlns="http://www.w3.org/2000/svg" width="171" height="171" viewBox="0 0 171 171"><defs><mask maskUnits="userSpaceOnUse" id="a"><circle cx="85.246" cy="85.25" r="74" fill="#177898"/><path d="M85.261 11.25l-.021.002V159.25h.021c40.86 0 73.984-33.131 73.984-74s-33.123-74-73.984-74z" fill="#0f7289"/></mask></defs><circle cx="85.246" cy="85.25" r="74" fill="#177898"/><path d="M85.261 11.25l-.021.002V159.25h.021c40.86 0 73.984-33.131 73.984-74s-33.123-74-73.984-74z" fill="#0f7289"/><path d="M85.246.75c46.624 0 84.5 37.876 84.5 84.5s-37.876 84.5-84.5 84.5-84.5-37.876-84.5-84.5S38.622.75 85.246.75z" opacity=".2" fill="none" stroke="#fff"/><path mask="url(#a)" d="M59.719 104.703L114 159.5l22.5-13.5 20.25-23.25 6.75-21-.25-8-.75-3.25-62.483-36.334L67.75 70l5 18z" fill="#0f6378" fill-rule="evenodd"/><text y="116.885" x="55.276" font-size="90" style="line-height:125%" font-family="AmazingGrotesk-Ultra" fill="#fff"><tspan style="line-height:125%;-inkscape-font-specification:'Amazing Grotesk, Heavy';text-align:start" font-weight="900" font-family="Amazing Grotesk">8</tspan></text></svg>