<svg xmlns="http://www.w3.org/2000/svg" width="171" height="171" viewBox="0 0 171 171"><defs><mask maskUnits="userSpaceOnUse" id="a"><circle r="74" cy="85.5" cx="85.5" fill="#177898"/><path d="M85.515 11.5l-.021.002V159.5h.021c40.86 0 73.984-33.131 73.984-74s-33.123-74-73.984-74z" fill="#0f7289"/></mask></defs><circle r="74" cy="85.5" cx="85.5" fill="#177898"/><path d="M85.515 11.5l-.021.002V159.5h.021c40.86 0 73.984-33.131 73.984-74s-33.123-74-73.984-74z" fill="#0f7289"/><path d="M85.5 1C132.124 1 170 38.876 170 85.5S132.124 170 85.5 170 1 132.124 1 85.5 38.876 1 85.5 1z" opacity=".2" fill="none" stroke="#fff"/><path mask="url(#a)" d="M66.735 74.777l15.378 15.17-20.78 27.67 44.12 43.93L127.5 152.5l19.5-18.75 10.5-15.25 1.75-4-56.844-57.734L70.5 65.5z" fill="#0f6378" fill-rule="evenodd"/><text y="117.63" x="54.225" font-size="90" style="line-height:125%" font-family="AmazingGrotesk-Ultra" fill="#fff"><tspan style="line-height:125%;-inkscape-font-specification:'Amazing Grotesk, Heavy';text-align:start" font-weight="900" font-family="Amazing Grotesk">2</tspan></text></svg>