<svg xmlns="http://www.w3.org/2000/svg" width="171" height="171" viewBox="0 0 171 171"><defs><mask maskUnits="userSpaceOnUse" id="a"><circle r="74" cy="85.5" cx="85.5" fill="#177898"/><path d="M85.515 11.5l-.021.002V159.5h.021c40.86 0 73.984-33.131 73.984-74s-33.123-74-73.984-74z" fill="#0f7289"/></mask></defs><circle r="74" cy="85.5" cx="85.5" fill="#177898"/><path d="M85.515 11.5l-.021.002V159.5h.021c40.86 0 73.984-33.131 73.984-74s-33.123-74-73.984-74z" fill="#0F7289"/><path d="M85.5 1C132.124 1 170 38.876 170 85.5S132.124 170 85.5 170 1 132.124 1 85.5 38.876 1 85.5 1z" opacity=".2" fill="none" stroke="#fff"/><path mask="url(#a)" d="M71.75 65.444l7.548 12.268.959 31.77-6.155 7.934 27.706 48.807 26.532-15.376 15.203-11.313-48.127-85.992z" fill="#0f6378" fill-rule="evenodd"/><text y="117.45" x="67.905" font-size="90" style="line-height:125%" font-family="AmazingGrotesk-Ultra" fill="#fff"><tspan style="line-height:125%;-inkscape-font-specification:'Amazing Grotesk, Heavy';text-align:start" font-weight="900" font-family="Amazing Grotesk">1</tspan></text></svg>