<svg xmlns="http://www.w3.org/2000/svg" width="171" height="171" viewBox="0 0 171 171"><defs><mask maskUnits="userSpaceOnUse" id="a"><circle cx="85.725" cy="85.25" r="74" fill="#177898"/><path d="M85.74 11.25l-.021.002V159.25h.021c40.86 0 73.984-33.131 73.984-74s-33.123-74-73.984-74z" fill="#0f7289"/></mask></defs><circle cx="85.725" cy="85.25" r="74" fill="#177898"/><path d="M85.74 11.25l-.021.002V159.25h.021c40.86 0 73.984-33.131 73.984-74s-33.123-74-73.984-74z" fill="#0f7289"/><path d="M85.725.75c46.624 0 84.5 37.876 84.5 84.5s-37.876 84.5-84.5 84.5-84.5-37.876-84.5-84.5S39.101.75 85.725.75z" opacity=".2" fill="none" stroke="#fff"/><path mask="url(#a)" d="M59.844 69.136l25.893 25.673-16.88 22.396 48.876 48.845 31.467-28.99 12.02-26.517.707-5.656-50.38-51.553-45.786 8.065z" fill="#0f6378" fill-rule="evenodd"/><text y="117.2" x="56.52" font-size="90" style="line-height:125%" font-family="AmazingGrotesk-Ultra" fill="#fff"><tspan style="line-height:125%;-inkscape-font-specification:'Amazing Grotesk, Heavy';text-align:start" font-weight="900" font-family="Amazing Grotesk">7</tspan></text></svg>