<?xml version="1.0" encoding="UTF-8" standalone="no"?>
<!-- Generator: Adobe Illustrator 17.0.0, SVG Export Plug-In . SVG Version: 6.00 Build 0)  -->

<svg
   xmlns:dc="http://purl.org/dc/elements/1.1/"
   xmlns:cc="http://creativecommons.org/ns#"
   xmlns:rdf="http://www.w3.org/1999/02/22-rdf-syntax-ns#"
   xmlns:svg="http://www.w3.org/2000/svg"
   xmlns="http://www.w3.org/2000/svg"
   xmlns:sodipodi="http://sodipodi.sourceforge.net/DTD/sodipodi-0.dtd"
   xmlns:inkscape="http://www.inkscape.org/namespaces/inkscape"
   version="1.1"
   id="Слой_1"
   sodipodi:docname="Тип Сайта.svg"
   inkscape:version="0.91 r13725"
   x="0px"
   y="0px"
   width="171px"
   height="171px"
   viewBox="0 0 171 171"
   enable-background="new 0 0 171 171"
   xml:space="preserve"><metadata
     id="metadata12"><rdf:RDF><cc:Work
         rdf:about=""><dc:format>image/svg+xml</dc:format><dc:type
           rdf:resource="http://purl.org/dc/dcmitype/StillImage" /><dc:title></dc:title></cc:Work></rdf:RDF></metadata><defs
     id="defs10"><mask
       maskUnits="userSpaceOnUse"
       id="mask4343"><g
         id="g4345"><circle
           id="circle4347"
           cx="85.333"
           cy="85.972"
           r="74"
           style="fill:#d45b3e" /><path
           id="path4349"
           inkscape:connector-curvature="0"
           d="m 85.348,11.972 c -0.007,0.001 -0.014,0.001 -0.021,0.002 l 0,147.998 c 0.007,0 0.014,0 0.021,0 40.86,0 73.984,-33.131 73.984,-74 0,-40.869 -33.123,-74 -73.984,-74 0,0 0,0 0,0 z"
           style="fill:#c45237" /></g></mask></defs><sodipodi:namedview
     showguides="false"
     inkscape:cy="-102.14121"
     inkscape:cx="50.776543"
     inkscape:zoom="1"
     showgrid="false"
     guidetolerance="10"
     gridtolerance="10"
     objecttolerance="10"
     borderopacity="1"
     bordercolor="#666666"
     pagecolor="#ffffff"
     id="namedview61"
     inkscape:guide-bbox="true"
     inkscape:current-layer="Слой_1"
     inkscape:window-maximized="1"
     inkscape:window-y="-8"
     inkscape:window-x="-8"
     inkscape:window-height="801"
     inkscape:window-width="1536"
     inkscape:pageshadow="2"
     inkscape:pageopacity="0"><inkscape:grid
       type="xygrid"
       id="grid4289" /></sodipodi:namedview><g
     id="g4351"><g
       id="g4274"><circle
         id="path4230"
         cx="85.333"
         cy="85.972"
         r="74"
         style="fill:#d45b3e" /><path
         id="path4278"
         inkscape:connector-curvature="0"
         d="m 85.348,11.972 c -0.007,0.001 -0.014,0.001 -0.021,0.002 l 0,147.998 c 0.007,0 0.014,0 0.021,0 40.86,0 73.984,-33.131 73.984,-74 0,-40.869 -33.123,-74 -73.984,-74 0,0 0,0 0,0 z"
         style="fill:#c45237" /></g><path
       id="path4271"
       inkscape:connector-curvature="0"
       enable-background="new    "
       d="m 85.583,1.222 c 46.624,0 84.5,37.876 84.5,84.5 0,46.624 -37.876,84.5 -84.5,84.5 -46.624,0 -84.5,-37.876 -84.5,-84.5 0,-46.624 37.876,-84.5 84.5,-84.5 z"
       style="opacity:0.2;fill:none;stroke:#ffffff" /><path
       mask="url(#mask4343)"
       sodipodi:nodetypes="cccccccccc"
       inkscape:connector-curvature="0"
       id="path4335"
       d="M 38.345319,118.87586 83.999998,166 116.25,161.5 154,131.25 l 8,-21.75 1.5,-13.999998 -0.25,-9 -0.25,-3.25 -35.77686,-34.771446 z"
       style="fill:#b14731;fill-opacity:1;fill-rule:evenodd;stroke:none;stroke-width:1px;stroke-linecap:butt;stroke-linejoin:miter;stroke-opacity:1" /><g
       id="g4287"><rect
         style="opacity:1;fill:#ffffff;fill-opacity:1;fill-rule:nonzero;stroke:none;stroke-width:1;stroke-linecap:round;stroke-linejoin:miter;stroke-miterlimit:4;stroke-dasharray:none;stroke-opacity:1"
         id="rect4285"
         width="90.332886"
         height="66.29126"
         x="39.421204"
         y="55.211269" /><g
         id="g4239"
         transform="matrix(0.18359375,0,0,0.18469813,38.333,38.689279)"><g
           id="g4145"><path
             id="path4147"
             d="m 406.069,282.483 -141.241,0 0,-35.31 -17.655,0 0,35.31 -141.242,0 c -4.875,0 -8.828,3.953 -8.828,8.828 l 0,44.138 17.655,0 0,-35.31 132.414,0 0,35.31 17.655,0 0,-35.31 132.414,0 0,35.31 17.655,0 0,-44.139 c 10e-4,-4.875 -3.952,-8.827 -8.827,-8.827 z"
             style="fill:#d7deed"
             inkscape:connector-curvature="0" /><path
             id="path4149"
             d="m 485.517,52.966 -459.034,0 C 11.857,52.966 0,64.822 0,79.448 l 0,353.103 c 0,14.626 11.857,26.483 26.483,26.483 l 459.034,0 c 14.626,0 26.483,-11.857 26.483,-26.483 L 512,79.448 C 512,64.822 500.143,52.966 485.517,52.966 Z m 8.828,379.586 c 0,4.875 -3.953,8.828 -8.828,8.828 l -459.034,0 c -4.875,0 -8.828,-3.953 -8.828,-8.828 l 0,-317.793 c 0,-4.875 3.953,-8.828 8.828,-8.828 l 459.034,0 c 4.875,0 8.828,3.953 8.828,8.828 l 0,317.793 z"
             style="fill:#d7deed"
             inkscape:connector-curvature="0" /></g><circle
           id="circle4151"
           r="8.8280001"
           cy="79.447998"
           cx="26.483"
           style="fill:#ff6464" /><circle
           id="circle4153"
           r="8.8280001"
           cy="79.447998"
           cx="52.966"
           style="fill:#ffe182" /><circle
           id="circle4155"
           r="8.8280001"
           cy="79.447998"
           cx="79.447998"
           style="fill:#a5d76e" /><g
           id="g4157"><path
             id="path4159"
             d="m 123.586,88.276 -8.828,0 c -4.875,0 -8.828,-3.953 -8.828,-8.828 l 0,0 c 0,-4.875 3.953,-8.828 8.828,-8.828 l 8.828,0 c 4.875,0 8.828,3.953 8.828,8.828 l 0,0 c 0,4.875 -3.953,8.828 -8.828,8.828 z"
             style="fill:#eff2fa"
             inkscape:connector-curvature="0" /><path
             id="path4161"
             d="m 158.897,88.276 -8.828,0 c -4.875,0 -8.828,-3.953 -8.828,-8.828 l 0,0 c 0,-4.875 3.953,-8.828 8.828,-8.828 l 8.828,0 c 4.875,0 8.828,3.953 8.828,8.828 l 0,0 c -0.001,4.875 -3.953,8.828 -8.828,8.828 z"
             style="fill:#eff2fa"
             inkscape:connector-curvature="0" /><path
             id="path4163"
             d="m 450.207,88.276 -8.828,0 c -4.875,0 -8.828,-3.953 -8.828,-8.828 l 0,0 c 0,-4.875 3.953,-8.828 8.828,-8.828 l 8.828,0 c 4.875,0 8.828,3.953 8.828,8.828 l 0,0 c -0.001,4.875 -3.953,8.828 -8.828,8.828 z"
             style="fill:#eff2fa"
             inkscape:connector-curvature="0" /><path
             id="path4165"
             d="m 485.517,88.276 -8.828,0 c -4.875,0 -8.828,-3.953 -8.828,-8.828 l 0,0 c 0,-4.875 3.953,-8.828 8.828,-8.828 l 8.828,0 c 4.875,0 8.828,3.953 8.828,8.828 l 0,0 c 0,4.875 -3.953,8.828 -8.828,8.828 z"
             style="fill:#eff2fa"
             inkscape:connector-curvature="0" /><path
             id="path4167"
             d="m 406.069,88.276 -211.862,0 c -4.875,0 -8.828,-3.953 -8.828,-8.828 l 0,0 c 0,-4.875 3.953,-8.828 8.828,-8.828 l 211.862,0 c 4.875,0 8.828,3.953 8.828,8.828 l 0,0 c 0,4.875 -3.953,8.828 -8.828,8.828 z"
             style="fill:#eff2fa"
             inkscape:connector-curvature="0" /></g><path
           id="path4169"
           d="m 352.396,256 -192.792,0 c -5.266,0 -9.535,-4.269 -9.535,-9.535 l 0,-104.516 c 0,-5.266 4.269,-9.535 9.535,-9.535 l 192.792,0 c 5.266,0 9.535,4.269 9.535,9.535 l 0,104.516 c 0,5.266 -4.269,9.535 -9.535,9.535 z"
           style="fill:#ff6464"
           inkscape:connector-curvature="0" /><path
           id="path4171"
           d="m 311.638,414.897 -111.276,0 c -3.399,0 -6.155,-2.755 -6.155,-6.155 l 0,-75.967 c 0,-3.4 2.755,-6.155 6.155,-6.155 l 111.277,0 c 3.4,0 6.155,2.755 6.155,6.155 l 0,75.967 c -10e-4,3.399 -2.756,6.155 -6.156,6.155 z"
           style="fill:#c3e678"
           inkscape:connector-curvature="0" /><g
           id="g4173"><path
             id="path4175"
             d="m 335.448,203.034 -158.896,0 c -4.875,0 -8.828,-3.953 -8.828,-8.828 l 0,0 c 0,-4.875 3.953,-8.828 8.828,-8.828 l 158.897,0 c 4.875,0 8.828,3.953 8.828,8.828 l 0,0 c -10e-4,4.876 -3.954,8.828 -8.829,8.828 z"
             style="fill:#d2555a"
             inkscape:connector-curvature="0" /><path
             id="path4177"
             d="m 317.793,167.724 -123.586,0 c -4.875,0 -8.828,-3.953 -8.828,-8.828 l 0,0 c 0,-4.875 3.953,-8.828 8.828,-8.828 l 123.586,0 c 4.875,0 8.828,3.953 8.828,8.828 l 0,0 c 0,4.876 -3.953,8.828 -8.828,8.828 z"
             style="fill:#d2555a"
             inkscape:connector-curvature="0" /><path
             id="path4179"
             d="m 282.483,238.345 -52.966,0 c -4.875,0 -8.828,-3.953 -8.828,-8.828 l 0,0 c 0,-4.875 3.953,-8.828 8.828,-8.828 l 52.966,0 c 4.875,0 8.828,3.953 8.828,8.828 l 0,0 c -10e-4,4.875 -3.953,8.828 -8.828,8.828 z"
             style="fill:#d2555a"
             inkscape:connector-curvature="0" /></g><g
           id="g4181"><path
             id="path4183"
             d="m 273.655,397.241 -35.31,0 c -4.875,0 -8.828,-3.953 -8.828,-8.828 l 0,0 c 0,-4.875 3.953,-8.828 8.828,-8.828 l 35.31,0 c 4.875,0 8.828,3.953 8.828,8.828 l 0,0 c 0,4.876 -3.953,8.828 -8.828,8.828 z"
             style="fill:#a0cd5a"
             inkscape:connector-curvature="0" /><path
             id="path4185"
             d="m 291.31,361.931 -70.62,0 c -4.875,0 -8.828,-3.953 -8.828,-8.828 l 0,0 c 0,-4.875 3.953,-8.828 8.828,-8.828 l 70.621,0 c 4.875,0 8.828,3.953 8.828,8.828 l 0,0 c -0.001,4.875 -3.954,8.828 -8.829,8.828 z"
             style="fill:#a0cd5a"
             inkscape:connector-curvature="0" /></g><path
           id="path4187"
           d="m 461.707,414.897 -111.276,0 c -3.4,0 -6.155,-2.755 -6.155,-6.155 l 0,-75.967 c 0,-3.4 2.755,-6.155 6.155,-6.155 l 111.277,0 c 3.4,0 6.155,2.755 6.155,6.155 l 0,75.967 c -10e-4,3.399 -2.756,6.155 -6.156,6.155 z"
           style="fill:#aaebfa"
           inkscape:connector-curvature="0" /><g
           id="g4189"><path
             id="path4191"
             d="m 423.724,397.241 -35.31,0 c -4.875,0 -8.828,-3.953 -8.828,-8.828 l 0,0 c 0,-4.875 3.953,-8.828 8.828,-8.828 l 35.31,0 c 4.875,0 8.828,3.953 8.828,8.828 l 0,0 c 0,4.876 -3.953,8.828 -8.828,8.828 z"
             style="fill:#78cde6"
             inkscape:connector-curvature="0" /><path
             id="path4193"
             d="m 441.379,361.931 -70.621,0 c -4.875,0 -8.828,-3.953 -8.828,-8.828 l 0,0 c 0,-4.875 3.953,-8.828 8.828,-8.828 l 70.621,0 c 4.875,0 8.828,3.953 8.828,8.828 l 0,0 c 0,4.875 -3.953,8.828 -8.828,8.828 z"
             style="fill:#78cde6"
             inkscape:connector-curvature="0" /></g><path
           id="path4195"
           d="m 161.569,414.897 -111.276,0 c -3.399,0 -6.155,-2.755 -6.155,-6.155 l 0,-75.967 c 0,-3.4 2.755,-6.155 6.155,-6.155 l 111.277,0 c 3.399,0 6.155,2.755 6.155,6.155 l 0,75.967 c -0.001,3.399 -2.756,6.155 -6.156,6.155 z"
           style="fill:#ffe182"
           inkscape:connector-curvature="0" /><g
           id="g4197"><path
             id="path4199"
             d="m 123.586,397.241 -35.31,0 c -4.875,0 -8.828,-3.953 -8.828,-8.828 l 0,0 c 0,-4.875 3.953,-8.828 8.828,-8.828 l 35.31,0 c 4.875,0 8.828,3.953 8.828,8.828 l 0,0 c 0,4.876 -3.953,8.828 -8.828,8.828 z"
             style="fill:#ffcd64"
             inkscape:connector-curvature="0" /><path
             id="path4201"
             d="m 141.241,361.931 -70.62,0 c -4.875,0 -8.828,-3.953 -8.828,-8.828 l 0,0 c 0,-4.875 3.953,-8.828 8.828,-8.828 l 70.621,0 c 4.875,0 8.828,3.953 8.828,8.828 l 0,0 c -0.001,4.875 -3.954,8.828 -8.829,8.828 z"
             style="fill:#ffcd64"
             inkscape:connector-curvature="0" /></g><g
           id="g4203" /><g
           id="g4205" /><g
           id="g4207" /><g
           id="g4209" /><g
           id="g4211" /><g
           id="g4213" /><g
           id="g4215" /><g
           id="g4217" /><g
           id="g4219" /><g
           id="g4221" /><g
           id="g4223" /><g
           id="g4225" /><g
           id="g4227" /><g
           id="g4229" /><g
           id="g4231" /></g></g></g></svg>