<svg xmlns="http://www.w3.org/2000/svg" width="171" height="171" viewBox="0 0 171 171"><defs><mask maskUnits="userSpaceOnUse" id="a"><circle r="74" cy="85.972" cx="85.333" fill="#d45b3e"/><path d="M85.348 11.972l-.021.002v147.998h.021c40.86 0 73.984-33.131 73.984-74s-33.123-74-73.984-74z" fill="#c45237"/></mask></defs><circle r="74" cy="85.972" cx="85.333" fill="#d45b3e"/><path d="M85.348 11.972l-.021.002v147.998h.021c40.86 0 73.984-33.131 73.984-74s-33.123-74-73.984-74z" fill="#c45237"/><path mask="url(#a)" d="M38.36 116.906l47.465 47.465 25.014-3.094 24.572-12.374s17.854-19.446 18.562-18.915c.707.53 8.485-22.274 8.485-22.274l1.414-19.269-.177-4.596-32.87-31.863-13.05 1.843 6.145 5.271-6.01 6.895-73.716 48.967z" fill="#b14731" fill-rule="evenodd"/><path fill="#fff" stroke-linecap="round" d="M44.371 65.111h75.66v45.432h-75.66z"/><path d="M122.609 119.972H41.574a3.24 3.24 0 0 1-3.241-3.238v-1.62a1.62 1.62 0 0 1 1.62-1.618h84.277c.895 0 1.62.725 1.62 1.619v1.619a3.24 3.24 0 0 1-3.241 3.238z" fill="#c7cfe2"/><path d="M41.574 119.972h81.035a3.24 3.24 0 0 0 3.241-3.238H38.333a3.24 3.24 0 0 0 3.241 3.238z" fill="#afb9d2"/><path d="M91.934 116.734H78.732c-.92 0-1.762-.52-2.174-1.342l-.949-1.896h19.448l-.948 1.896a2.432 2.432 0 0 1-2.175 1.342z" fill="#959cb3"/><path d="M119.367 61.686H44.816a3.24 3.24 0 0 0-3.242 3.238v48.572h81.035V64.924a3.24 3.24 0 0 0-3.242-3.238zm-1.62 46.953h-71.31V66.543h71.31v42.096z" fill="#464655"/><path fill="#eff2fa" d="M82.092 102.163l35.655-35.62v42.096h-71.31L67.504 87.59z"/><path d="M65.885 89.21h3.241v19.429h-3.241zm-14.586 19.429v-4.858l3.24-3.238v8.096zm29.171-8.096h3.242v8.096h-3.241zm14.587 8.096V89.21l3.242-3.238v22.667zm14.586 0v-34l3.242-3.238v37.238z" fill="#e4eaf6"/><path d="M130.712 51.972h-11.345a1.62 1.62 0 1 0 0 3.238h7.433L82.092 99.873l-13.44-13.427a1.621 1.621 0 0 0-2.292 0L46.436 106.35v2.29h2.292l18.777-18.76 13.44 13.426a1.621 1.621 0 0 0 2.292 0L129.091 57.5v7.424a1.62 1.62 0 0 0 3.242 0V53.591a1.62 1.62 0 0 0-1.62-1.619z" fill="#ff6464"/><g fill="#d2555a" transform="matrix(.1836 0 0 .1834 38.333 39.02)"><circle r="17.655" cy="264.828" cx="158.897"/><circle r="17.655" cy="344.276" cx="79.448"/><circle r="17.655" cy="344.276" cx="238.345"/><circle r="17.655" cy="264.828" cx="317.793"/><circle r="17.655" cy="185.379" cx="397.241"/></g><path d="M85.583 1.222c46.624 0 84.5 37.876 84.5 84.5s-37.876 84.5-84.5 84.5-84.5-37.876-84.5-84.5 37.876-84.5 84.5-84.5z" opacity=".2" fill="none" stroke="#fff"/></svg>