<?xml version="1.0" encoding="UTF-8" standalone="no"?>
<!-- Generator: Adobe Illustrator 17.0.0, SVG Export Plug-In . SVG Version: 6.00 Build 0)  -->

<svg
   xmlns:dc="http://purl.org/dc/elements/1.1/"
   xmlns:cc="http://creativecommons.org/ns#"
   xmlns:rdf="http://www.w3.org/1999/02/22-rdf-syntax-ns#"
   xmlns:svg="http://www.w3.org/2000/svg"
   xmlns="http://www.w3.org/2000/svg"
   xmlns:sodipodi="http://sodipodi.sourceforge.net/DTD/sodipodi-0.dtd"
   xmlns:inkscape="http://www.inkscape.org/namespaces/inkscape"
   version="1.1"
   id="Слой_1"
   sodipodi:docname="Сложность Дизайна.svg"
   inkscape:version="0.91 r13725"
   x="0px"
   y="0px"
   width="171px"
   height="171px"
   viewBox="0 0 171 171"
   enable-background="new 0 0 171 171"
   xml:space="preserve"><metadata
     id="metadata12"><rdf:RDF><cc:Work
         rdf:about=""><dc:format>image/svg+xml</dc:format><dc:type
           rdf:resource="http://purl.org/dc/dcmitype/StillImage" /><dc:title></dc:title></cc:Work></rdf:RDF></metadata><defs
     id="defs10"><mask
       maskUnits="userSpaceOnUse"
       id="mask4493"><g
         id="g4495"><circle
           id="circle4497"
           cx="85.333"
           cy="85.972"
           r="74"
           style="fill:#d45b3e" /><path
           id="path4499"
           inkscape:connector-curvature="0"
           d="m 85.348,11.972 c -0.007,0.001 -0.014,0.001 -0.021,0.002 l 0,147.998 c 0.007,0 0.014,0 0.021,0 40.86,0 73.984,-33.131 73.984,-74 0,-40.869 -33.123,-74 -73.984,-74 0,0 0,0 0,0 z"
           style="fill:#c45237" /></g></mask></defs><sodipodi:namedview
     showguides="false"
     inkscape:cy="51.12149"
     inkscape:cx="-35.44527"
     inkscape:zoom="2.0000001"
     showgrid="false"
     guidetolerance="10"
     gridtolerance="10"
     objecttolerance="10"
     borderopacity="1"
     bordercolor="#666666"
     pagecolor="#ffffff"
     id="namedview61"
     inkscape:guide-bbox="true"
     inkscape:current-layer="Слой_1"
     inkscape:window-maximized="1"
     inkscape:window-y="-8"
     inkscape:window-x="-8"
     inkscape:window-height="801"
     inkscape:window-width="1536"
     inkscape:pageshadow="2"
     inkscape:pageopacity="0"><inkscape:grid
       type="xygrid"
       id="grid4289" /></sodipodi:namedview><g
     id="g4501"><g
       id="g4274"><circle
         id="path4230"
         cx="85.333"
         cy="85.972"
         r="74"
         style="fill:#d45b3e" /><path
         id="path4278"
         inkscape:connector-curvature="0"
         d="m 85.348,11.972 c -0.007,0.001 -0.014,0.001 -0.021,0.002 l 0,147.998 c 0.007,0 0.014,0 0.021,0 40.86,0 73.984,-33.131 73.984,-74 0,-40.869 -33.123,-74 -73.984,-74 0,0 0,0 0,0 z"
         style="fill:#c45237" /></g><path
       id="path4271"
       inkscape:connector-curvature="0"
       enable-background="new    "
       d="m 85.583,1.222 c 46.624,0 84.5,37.876 84.5,84.5 0,46.624 -37.876,84.5 -84.5,84.5 -46.624,0 -84.5,-37.876 -84.5,-84.5 0,-46.624 37.876,-84.5 84.5,-84.5 z"
       style="opacity:0.2;fill:none;stroke:#ffffff" /><path
       mask="url(#mask4493)"
       sodipodi:nodetypes="ccccccccc"
       inkscape:connector-curvature="0"
       id="path4485"
       d="m 38.404736,118.54152 44.59192,46.18291 34.383064,-2.20971 30.05204,-25.63262 16.08668,-33.94113 -0.70711,-14.849238 0.68867,-6.59173 -35.83709,-33.016465 z"
       style="fill:#b14731;fill-opacity:1;fill-rule:evenodd;stroke:none;stroke-width:1px;stroke-linecap:butt;stroke-linejoin:miter;stroke-opacity:1" /><g
       id="g4440"><rect
         style="opacity:1;fill:#ffffff;fill-opacity:1;fill-rule:nonzero;stroke:none;stroke-width:1;stroke-linecap:round;stroke-linejoin:miter;stroke-miterlimit:4;stroke-dasharray:none;stroke-opacity:1"
         id="rect4438"
         width="90.509666"
         height="66.998367"
         x="39.95153"
         y="54.857716" /><g
         id="g4395"
         transform="matrix(0.18359375,0,0,0.18469813,38.333,38.689279)"><path
           id="path4307"
           d="m 485.517,52.966 -459.034,0 C 11.857,52.966 0,64.822 0,79.448 l 0,353.103 c 0,14.626 11.857,26.483 26.483,26.483 l 459.034,0 c 14.626,0 26.483,-11.857 26.483,-26.483 L 512,79.448 C 512,64.822 500.143,52.966 485.517,52.966 Z m 8.828,379.586 c 0,4.875 -3.953,8.828 -8.828,8.828 l -459.034,0 c -4.875,0 -8.828,-3.953 -8.828,-8.828 l 0,-317.793 c 0,-4.875 3.953,-8.828 8.828,-8.828 l 459.034,0 c 4.875,0 8.828,3.953 8.828,8.828 l 0,317.793 z"
           style="fill:#d7deed"
           inkscape:connector-curvature="0" /><circle
           id="circle4309"
           r="8.8280001"
           cy="79.447998"
           cx="26.483"
           style="fill:#ff6464" /><circle
           id="circle4311"
           r="8.8280001"
           cy="79.447998"
           cx="52.966"
           style="fill:#ffe182" /><circle
           id="circle4313"
           r="8.8280001"
           cy="79.447998"
           cx="79.447998"
           style="fill:#a5d76e" /><g
           id="g4315"><path
             id="path4317"
             d="m 123.586,88.276 -8.828,0 c -4.875,0 -8.828,-3.953 -8.828,-8.828 l 0,0 c 0,-4.875 3.953,-8.828 8.828,-8.828 l 8.828,0 c 4.875,0 8.828,3.953 8.828,8.828 l 0,0 c 0,4.875 -3.953,8.828 -8.828,8.828 z"
             style="fill:#eff2fa"
             inkscape:connector-curvature="0" /><path
             id="path4319"
             d="m 158.897,88.276 -8.828,0 c -4.875,0 -8.828,-3.953 -8.828,-8.828 l 0,0 c 0,-4.875 3.953,-8.828 8.828,-8.828 l 8.828,0 c 4.875,0 8.828,3.953 8.828,8.828 l 0,0 c -0.001,4.875 -3.953,8.828 -8.828,8.828 z"
             style="fill:#eff2fa"
             inkscape:connector-curvature="0" /><path
             id="path4321"
             d="m 450.207,88.276 -8.828,0 c -4.875,0 -8.828,-3.953 -8.828,-8.828 l 0,0 c 0,-4.875 3.953,-8.828 8.828,-8.828 l 8.828,0 c 4.875,0 8.828,3.953 8.828,8.828 l 0,0 c -0.001,4.875 -3.953,8.828 -8.828,8.828 z"
             style="fill:#eff2fa"
             inkscape:connector-curvature="0" /><path
             id="path4323"
             d="m 485.517,88.276 -8.828,0 c -4.875,0 -8.828,-3.953 -8.828,-8.828 l 0,0 c 0,-4.875 3.953,-8.828 8.828,-8.828 l 8.828,0 c 4.875,0 8.828,3.953 8.828,8.828 l 0,0 c 0,4.875 -3.953,8.828 -8.828,8.828 z"
             style="fill:#eff2fa"
             inkscape:connector-curvature="0" /><path
             id="path4325"
             d="m 406.069,88.276 -211.862,0 c -4.875,0 -8.828,-3.953 -8.828,-8.828 l 0,0 c 0,-4.875 3.953,-8.828 8.828,-8.828 l 211.862,0 c 4.875,0 8.828,3.953 8.828,8.828 l 0,0 c 0,4.875 -3.953,8.828 -8.828,8.828 z"
             style="fill:#eff2fa"
             inkscape:connector-curvature="0" /></g><path
           id="path4327"
           d="m 389.707,377.146 -30.216,30.216 c -3.426,3.426 -8.981,3.426 -12.407,0 L 122.293,182.572 c -3.426,-3.426 -3.426,-8.981 0,-12.407 l 30.216,-30.216 c 3.426,-3.426 8.981,-3.426 12.407,0 l 224.79,224.79 c 3.427,3.425 3.427,8.981 10e-4,12.407 z"
           style="fill:#ffcd78"
           inkscape:connector-curvature="0" /><g
           id="g4329"><path
             id="path4331"
             d="m 258.585,258.585 12.484,-12.484 -12.484,-12.484 -12.484,12.484 c -3.447,3.447 -3.447,9.036 0,12.484 l 0,0 c 3.448,3.448 9.037,3.448 12.484,0 z"
             style="fill:#ebb45f"
             inkscape:connector-curvature="0" /><path
             id="path4333"
             d="m 233.618,233.618 12.484,-12.484 -12.484,-12.484 -12.484,12.484 c -3.447,3.447 -3.447,9.037 0,12.484 l 0,0 c 3.446,3.447 9.036,3.447 12.484,0 z"
             style="fill:#ebb45f"
             inkscape:connector-curvature="0" /><path
             id="path4335"
             d="m 208.649,208.649 12.484,-12.484 -12.484,-12.484 -12.484,12.484 c -3.447,3.447 -3.447,9.036 0,12.484 l 0,0 c 3.448,3.448 9.037,3.448 12.484,0 z"
             style="fill:#ebb45f"
             inkscape:connector-curvature="0" /><path
             id="path4337"
             d="m 308.522,308.522 12.484,-12.484 -12.484,-12.484 -12.484,12.484 c -3.447,3.447 -3.447,9.037 0,12.484 l 0,0 c 3.447,3.447 9.037,3.447 12.484,0 z"
             style="fill:#ebb45f"
             inkscape:connector-curvature="0" /><path
             id="path4339"
             d="M 283.554,283.554 296.038,271.07 283.554,258.586 271.07,271.07 c -3.447,3.447 -3.447,9.036 0,12.484 l 0,0 c 3.447,3.447 9.036,3.447 12.484,0 z"
             style="fill:#ebb45f"
             inkscape:connector-curvature="0" /><path
             id="path4341"
             d="m 333.49,333.49 12.484,-12.484 -12.484,-12.484 -12.484,12.484 c -3.447,3.447 -3.447,9.037 0,12.484 l 0,0 c 3.448,3.448 9.037,3.448 12.484,0 z"
             style="fill:#ebb45f"
             inkscape:connector-curvature="0" /><path
             id="path4343"
             d="m 358.458,358.458 12.484,-12.484 -12.484,-12.484 -12.484,12.484 c -3.447,3.447 -3.447,9.036 0,12.484 l 0,0 c 3.447,3.448 9.037,3.448 12.484,0 z"
             style="fill:#ebb45f"
             inkscape:connector-curvature="0" /><path
             id="path4345"
             d="m 183.681,183.681 12.484,-12.484 -12.484,-12.484 -12.484,12.484 c -3.447,3.447 -3.447,9.037 0,12.484 l 0,0 c 3.447,3.447 9.037,3.447 12.484,0 z"
             style="fill:#ebb45f"
             inkscape:connector-curvature="0" /></g><rect
           id="rect4347"
           height="35.310001"
           width="264.27301"
           style="fill:#ff6464"
           transform="matrix(0.7071,-0.7071,0.7071,0.7071,-109.8584,264.7599)"
           y="247.336"
           x="132.528" /><rect
           id="rect4349"
           height="264.27301"
           width="17.655001"
           style="fill:#d2555a"
           transform="matrix(0.7071,0.7071,-0.7071,0.7071,271.1405,-112.1191)"
           y="139.099"
           x="262.082" /><path
           id="path4351"
           d="m 183.713,370.91 -53.337,32.002 c -2.364,1.418 -5.052,-1.269 -3.634,-3.634 l 32.002,-53.337 24.969,24.969 z"
           style="fill:#ffe6a1"
           inkscape:connector-curvature="0" /><path
           id="path4353"
           d="m 130.377,402.912 22.126,-13.276 -12.484,-12.484 -13.276,22.126 c -1.418,2.365 1.269,5.052 3.634,3.634 z"
           style="fill:#ff6464"
           inkscape:connector-curvature="0" /><path
           id="path4355"
           d="m 370.581,146.59 12.484,12.484 c 3.447,3.447 3.447,9.037 0,12.484 l -12.484,12.484 -24.968,-24.968 12.484,-12.484 c 3.448,-3.447 9.037,-3.447 12.484,0 z"
           style="fill:#ffe6a1"
           inkscape:connector-curvature="0" /><path
           id="path4357"
           d="m 370.581,159.074 -12.484,12.484 12.484,12.484 12.484,-12.484 c 3.447,-3.447 3.447,-9.036 0,-12.484 L 370.581,146.59 c 3.448,3.447 3.447,9.037 0,12.484 z"
           style="fill:#ffdc9b"
           inkscape:connector-curvature="0" /><g
           id="g4359" /><g
           id="g4361" /><g
           id="g4363" /><g
           id="g4365" /><g
           id="g4367" /><g
           id="g4369" /><g
           id="g4371" /><g
           id="g4373" /><g
           id="g4375" /><g
           id="g4377" /><g
           id="g4379" /><g
           id="g4381" /><g
           id="g4383" /><g
           id="g4385" /><g
           id="g4387" /></g></g></g></svg>