<svg xmlns="http://www.w3.org/2000/svg" width="171" height="171" viewBox="0 0 171 171"><defs><mask maskUnits="userSpaceOnUse" id="a"><circle cx="85.333" cy="85.972" r="74" fill="#d45b3e"/><path d="M85.348 11.972l-.021.002v147.998h.021c40.86 0 73.984-33.131 73.984-74s-33.123-74-73.984-74z" fill="#c45237"/></mask></defs><circle cx="85.333" cy="85.972" r="74" fill="#d45b3e"/><path d="M85.348 11.972l-.021.002v147.998h.021c40.86 0 73.984-33.131 73.984-74s-33.123-74-73.984-74z" fill="#c45237"/><path d="M85.583 1.222c46.624 0 84.5 37.876 84.5 84.5s-37.876 84.5-84.5 84.5-84.5-37.876-84.5-84.5 37.876-84.5 84.5-84.5z" opacity=".2" fill="none" stroke="#fff"/><path mask="url(#a)" d="M38.345 118.876L84 166l32.25-4.5L154 131.25l8-21.75 1.5-14-.25-9-.25-3.25-35.777-34.771z" fill="#b14731" fill-rule="evenodd"/><path fill="#fff" stroke-linecap="round" d="M39.421 55.211h90.333v66.291H39.421z"/><g transform="matrix(.1836 0 0 .1847 38.333 38.69)"><g fill="#d7deed"><path d="M406.069 282.483H264.828v-35.31h-17.655v35.31H105.931a8.829 8.829 0 0 0-8.828 8.828v44.138h17.655v-35.31h132.414v35.31h17.655v-35.31h132.414v35.31h17.655V291.31a8.826 8.826 0 0 0-8.827-8.827z"/><path d="M485.517 52.966H26.483C11.857 52.966 0 64.822 0 79.448v353.103c0 14.626 11.857 26.483 26.483 26.483h459.034c14.626 0 26.483-11.857 26.483-26.483V79.448c0-14.626-11.857-26.482-26.483-26.482zm8.828 379.586a8.829 8.829 0 0 1-8.828 8.828H26.483a8.829 8.829 0 0 1-8.828-8.828V114.759a8.829 8.829 0 0 1 8.828-8.828h459.034a8.829 8.829 0 0 1 8.828 8.828v317.793z"/></g><circle r="8.828" cy="79.448" cx="26.483" fill="#ff6464"/><circle r="8.828" cy="79.448" cx="52.966" fill="#ffe182"/><circle r="8.828" cy="79.448" cx="79.448" fill="#a5d76e"/><path d="M123.586 88.276h-8.828a8.829 8.829 0 0 1 0-17.656h8.828a8.829 8.829 0 0 1 0 17.656zm35.311 0h-8.828a8.829 8.829 0 0 1 0-17.656h8.828a8.829 8.829 0 0 1 8.828 8.828 8.83 8.83 0 0 1-8.828 8.828zm291.31 0h-8.828a8.829 8.829 0 0 1 0-17.656h8.828a8.829 8.829 0 0 1 8.828 8.828 8.83 8.83 0 0 1-8.828 8.828zm35.31 0h-8.828a8.829 8.829 0 0 1 0-17.656h8.828a8.829 8.829 0 0 1 0 17.656zm-79.448 0H194.207a8.829 8.829 0 0 1 0-17.656h211.862a8.829 8.829 0 0 1 0 17.656z" fill="#eff2fa"/><path d="M352.396 256H159.604a9.535 9.535 0 0 1-9.535-9.535V141.949a9.535 9.535 0 0 1 9.535-9.535h192.792a9.535 9.535 0 0 1 9.535 9.535v104.516a9.535 9.535 0 0 1-9.535 9.535z" fill="#ff6464"/><path d="M311.638 414.897H200.362a6.155 6.155 0 0 1-6.155-6.155v-75.967c0-3.4 2.755-6.155 6.155-6.155h111.277c3.4 0 6.155 2.755 6.155 6.155v75.967a6.156 6.156 0 0 1-6.156 6.155z" fill="#c3e678"/><path d="M335.448 203.034H176.552a8.829 8.829 0 0 1 0-17.656h158.897a8.829 8.829 0 0 1 8.828 8.828 8.83 8.83 0 0 1-8.829 8.828zm-17.655-35.31H194.207a8.829 8.829 0 0 1 0-17.656h123.586a8.828 8.828 0 0 1 0 17.656zm-35.31 70.621h-52.966a8.829 8.829 0 0 1 0-17.656h52.966a8.829 8.829 0 0 1 8.828 8.828 8.83 8.83 0 0 1-8.828 8.828z" fill="#d2555a"/><path d="M273.655 397.241h-35.31a8.829 8.829 0 0 1 0-17.656h35.31a8.828 8.828 0 0 1 0 17.656zm17.655-35.31h-70.62a8.829 8.829 0 0 1 0-17.656h70.621a8.829 8.829 0 0 1 8.828 8.828 8.83 8.83 0 0 1-8.829 8.828z" fill="#a0cd5a"/><path d="M461.707 414.897H350.431a6.154 6.154 0 0 1-6.155-6.155v-75.967c0-3.4 2.755-6.155 6.155-6.155h111.277c3.4 0 6.155 2.755 6.155 6.155v75.967a6.156 6.156 0 0 1-6.156 6.155z" fill="#aaebfa"/><path d="M423.724 397.241h-35.31a8.829 8.829 0 0 1 0-17.656h35.31a8.828 8.828 0 0 1 0 17.656zm17.655-35.31h-70.621a8.829 8.829 0 0 1 0-17.656h70.621a8.829 8.829 0 0 1 0 17.656z" fill="#78cde6"/><path d="M161.569 414.897H50.293a6.155 6.155 0 0 1-6.155-6.155v-75.967c0-3.4 2.755-6.155 6.155-6.155H161.57a6.155 6.155 0 0 1 6.155 6.155v75.967a6.156 6.156 0 0 1-6.156 6.155z" fill="#ffe182"/><path d="M123.586 397.241h-35.31a8.829 8.829 0 0 1 0-17.656h35.31a8.828 8.828 0 0 1 0 17.656zm17.655-35.31h-70.62a8.829 8.829 0 0 1 0-17.656h70.621a8.829 8.829 0 0 1 8.828 8.828 8.83 8.83 0 0 1-8.829 8.828z" fill="#ffcd64"/></g></svg>