<?xml version="1.0" encoding="UTF-8" standalone="no"?>
<!-- Generator: Adobe Illustrator 17.0.0, SVG Export Plug-In . SVG Version: 6.00 Build 0)  -->

<svg
   xmlns:dc="http://purl.org/dc/elements/1.1/"
   xmlns:cc="http://creativecommons.org/ns#"
   xmlns:rdf="http://www.w3.org/1999/02/22-rdf-syntax-ns#"
   xmlns:svg="http://www.w3.org/2000/svg"
   xmlns="http://www.w3.org/2000/svg"
   xmlns:sodipodi="http://sodipodi.sourceforge.net/DTD/sodipodi-0.dtd"
   xmlns:inkscape="http://www.inkscape.org/namespaces/inkscape"
   version="1.1"
   id="Слой_1"
   sodipodi:docname="Вёрстка.svg"
   inkscape:version="0.91 r13725"
   x="0px"
   y="0px"
   width="171px"
   height="171px"
   viewBox="0 0 171 171"
   enable-background="new 0 0 171 171"
   xml:space="preserve"><metadata
     id="metadata12"><rdf:RDF><cc:Work
         rdf:about=""><dc:format>image/svg+xml</dc:format><dc:type
           rdf:resource="http://purl.org/dc/dcmitype/StillImage" /><dc:title></dc:title></cc:Work></rdf:RDF></metadata><defs
     id="defs10"><mask
       maskUnits="userSpaceOnUse"
       id="mask4251"><g
         id="g4253"><circle
           id="circle4255"
           cx="85.333"
           cy="85.972"
           r="74"
           style="fill:#d45b3e" /><path
           id="path4257"
           inkscape:connector-curvature="0"
           d="m 85.348,11.972 c -0.007,0.001 -0.014,0.001 -0.021,0.002 l 0,147.998 c 0.007,0 0.014,0 0.021,0 40.86,0 73.984,-33.131 73.984,-74 0,-40.869 -33.123,-74 -73.984,-74 0,0 0,0 0,0 z"
           style="fill:#c45237" /></g></mask></defs><sodipodi:namedview
     showguides="false"
     inkscape:cy="22.285359"
     inkscape:cx="62.215695"
     inkscape:zoom="1.4142136"
     showgrid="false"
     guidetolerance="10"
     gridtolerance="10"
     objecttolerance="10"
     borderopacity="1"
     bordercolor="#666666"
     pagecolor="#ffffff"
     id="namedview61"
     inkscape:guide-bbox="true"
     inkscape:current-layer="Слой_1"
     inkscape:window-maximized="1"
     inkscape:window-y="-8"
     inkscape:window-x="-8"
     inkscape:window-height="801"
     inkscape:window-width="1536"
     inkscape:pageshadow="2"
     inkscape:pageopacity="0"><inkscape:grid
       type="xygrid"
       id="grid4289" /></sodipodi:namedview><g
     id="g4259"><g
       id="g4274"><circle
         id="path4230"
         cx="85.333"
         cy="85.972"
         r="74"
         style="fill:#d45b3e" /><path
         id="path4278"
         inkscape:connector-curvature="0"
         d="m 85.348,11.972 c -0.007,0.001 -0.014,0.001 -0.021,0.002 l 0,147.998 c 0.007,0 0.014,0 0.021,0 40.86,0 73.984,-33.131 73.984,-74 0,-40.869 -33.123,-74 -73.984,-74 0,0 0,0 0,0 z"
         style="fill:#c45237" /></g><path
       id="path4271"
       inkscape:connector-curvature="0"
       enable-background="new    "
       d="m 85.583,1.222 c 46.624,0 84.5,37.876 84.5,84.5 0,46.624 -37.876,84.5 -84.5,84.5 -46.624,0 -84.5,-37.876 -84.5,-84.5 0,-46.624 37.876,-84.5 84.5,-84.5 z"
       style="opacity:0.2;fill:none;stroke:#ffffff" /><path
       mask="url(#mask4251)"
       sodipodi:nodetypes="ccccccccc"
       inkscape:connector-curvature="0"
       id="path4243"
       d="m 38.327397,118.22111 47.762851,48.00592 35.885672,-4.41942 23.68807,-17.67767 15.2028,-25.80939 1.06066,-21.56676 0,-13.081475 -34.65928,-34.703475 z"
       style="fill:#b14731;fill-opacity:1;fill-rule:evenodd;stroke:none;stroke-width:1px;stroke-linecap:butt;stroke-linejoin:miter;stroke-opacity:1" /><g
       transform="matrix(0.18359375,0,0,0.18223504,38.333,39.319921)"
       id="g4211"><path
         inkscape:connector-curvature="0"
         style="fill:#d7deed"
         d="m 485.517,459.034 -459.034,0 C 11.857,459.034 0,447.178 0,432.552 L 0,79.448 C 0,64.822 11.857,52.965 26.483,52.965 l 459.034,0 c 14.626,0 26.483,11.857 26.483,26.483 l 0,353.103 c 0,14.627 -11.857,26.483 -26.483,26.483 z"
         id="path4145" /><path
         inkscape:connector-curvature="0"
         style="fill:#5b5d6e"
         d="m 485.517,441.379 -459.034,0 c -4.875,0 -8.828,-3.953 -8.828,-8.828 l 0,-317.792 c 0,-4.875 3.953,-8.828 8.828,-8.828 l 459.034,0 c 4.875,0 8.828,3.953 8.828,8.828 l 0,317.793 c 0,4.875 -3.953,8.827 -8.828,8.827 z"
         id="path4147" /><circle
         style="fill:#ff6464"
         cx="26.483"
         cy="79.447998"
         r="8.8280001"
         id="circle4149" /><circle
         style="fill:#ffe182"
         cx="52.966"
         cy="79.447998"
         r="8.8280001"
         id="circle4151" /><circle
         style="fill:#a5d76e"
         cx="79.447998"
         cy="79.447998"
         r="8.8280001"
         id="circle4153" /><g
         id="g4155"><path
           inkscape:connector-curvature="0"
           style="fill:#eff2fa"
           d="m 123.586,88.276 -8.828,0 c -4.875,0 -8.828,-3.953 -8.828,-8.828 l 0,0 c 0,-4.875 3.953,-8.828 8.828,-8.828 l 8.828,0 c 4.875,0 8.828,3.953 8.828,8.828 l 0,0 c 0,4.875 -3.953,8.828 -8.828,8.828 z"
           id="path4157" /><path
           inkscape:connector-curvature="0"
           style="fill:#eff2fa"
           d="m 158.897,88.276 -8.828,0 c -4.875,0 -8.828,-3.953 -8.828,-8.828 l 0,0 c 0,-4.875 3.953,-8.828 8.828,-8.828 l 8.828,0 c 4.875,0 8.828,3.953 8.828,8.828 l 0,0 c -0.001,4.875 -3.953,8.828 -8.828,8.828 z"
           id="path4159" /><path
           inkscape:connector-curvature="0"
           style="fill:#eff2fa"
           d="m 450.207,88.276 -8.828,0 c -4.875,0 -8.828,-3.953 -8.828,-8.828 l 0,0 c 0,-4.875 3.953,-8.828 8.828,-8.828 l 8.828,0 c 4.875,0 8.828,3.953 8.828,8.828 l 0,0 c -0.001,4.875 -3.953,8.828 -8.828,8.828 z"
           id="path4161" /><path
           inkscape:connector-curvature="0"
           style="fill:#eff2fa"
           d="m 485.517,88.276 -8.828,0 c -4.875,0 -8.828,-3.953 -8.828,-8.828 l 0,0 c 0,-4.875 3.953,-8.828 8.828,-8.828 l 8.828,0 c 4.875,0 8.828,3.953 8.828,8.828 l 0,0 c 0,4.875 -3.953,8.828 -8.828,8.828 z"
           id="path4163" /><path
           inkscape:connector-curvature="0"
           style="fill:#eff2fa"
           d="m 406.069,88.276 -211.862,0 c -4.875,0 -8.828,-3.953 -8.828,-8.828 l 0,0 c 0,-4.875 3.953,-8.828 8.828,-8.828 l 211.862,0 c 4.875,0 8.828,3.953 8.828,8.828 l 0,0 c 0,4.875 -3.953,8.828 -8.828,8.828 z"
           id="path4165" /></g><g
         id="g4167"><path
           inkscape:connector-curvature="0"
           style="fill:#ffffff"
           d="m 176.556,353.099 c -2.457,0 -4.9,-1.022 -6.646,-3.012 l -61.793,-70.621 c -2.914,-3.332 -2.914,-8.298 0,-11.629 l 61.793,-70.621 c 3.211,-3.659 8.785,-4.034 12.457,-0.828 3.668,3.211 4.039,8.785 0.828,12.457 l -56.707,64.806 56.707,64.806 c 3.211,3.672 2.84,9.246 -0.828,12.457 -1.677,1.466 -3.751,2.185 -5.811,2.185 z"
           id="path4169" /><path
           inkscape:connector-curvature="0"
           style="fill:#ffffff"
           d="m 335.444,353.099 c -2.06,0 -4.134,-0.719 -5.811,-2.185 -3.668,-3.211 -4.039,-8.785 -0.828,-12.457 l 56.707,-64.806 -56.707,-64.806 c -3.211,-3.672 -2.84,-9.246 0.828,-12.457 3.677,-3.215 9.246,-2.836 12.457,0.828 l 61.793,70.621 c 2.914,3.332 2.914,8.298 0,11.629 l -61.793,70.621 c -1.745,1.99 -4.189,3.012 -6.646,3.012 z"
           id="path4171" /><path
           inkscape:connector-curvature="0"
           style="fill:#ffffff"
           d="m 220.685,370.763 c -1.09,0 -2.198,-0.207 -3.276,-0.633 -4.526,-1.815 -6.729,-6.948 -4.918,-11.478 L 283.112,182.1 c 1.811,-4.526 6.922,-6.733 11.478,-4.918 4.526,1.815 6.729,6.948 4.918,11.478 l -70.621,176.552 c -1.382,3.448 -4.697,5.551 -8.202,5.551 z"
           id="path4173" /></g><g
         id="g4175" /><g
         id="g4177" /><g
         id="g4179" /><g
         id="g4181" /><g
         id="g4183" /><g
         id="g4185" /><g
         id="g4187" /><g
         id="g4189" /><g
         id="g4191" /><g
         id="g4193" /><g
         id="g4195" /><g
         id="g4197" /><g
         id="g4199" /><g
         id="g4201" /><g
         id="g4203" /></g></g></svg>