<svg xmlns="http://www.w3.org/2000/svg" width="171" height="171" viewBox="0 0 171 171"><defs><mask maskUnits="userSpaceOnUse" id="a"><circle cx="85.333" cy="85.972" r="74" fill="#d45b3e"/><path d="M85.348 11.972l-.021.002v147.998h.021c40.86 0 73.984-33.131 73.984-74s-33.123-74-73.984-74z" fill="#c45237"/></mask></defs><g transform="matrix(0 .18164 -.18165 0 131.835 39.472)"><g transform="matrix(0 -5.5051 5.50539 0 -217.309 725.766)"><circle cx="85.333" cy="85.972" r="74" fill="#d45b3e"/><path d="M85.348 11.972l-.021.002v147.998h.021c40.86 0 73.984-33.131 73.984-74s-33.123-74-73.984-74z" fill="#c45237"/></g><path transform="matrix(0 -5.5051 5.50539 0 -217.309 725.766)" d="M85.583 1.222c46.624 0 84.5 37.876 84.5 84.5s-37.876 84.5-84.5 84.5-84.5-37.876-84.5-84.5 37.876-84.5 84.5-84.5z" opacity=".2" fill="none" stroke="#fff"/><path transform="matrix(0 -5.5051 5.50539 0 -217.309 725.766)" mask="url(#a)" d="M39.953 128.969l37.672 37.406L110.25 165 134 151.25 154.25 131l11.25-29.75-.75-7.75-44.602-46.648L102.5 42.25l-20.25 5-7 9.5L69.75 73s3.75 11 4 12S77 93.5 77 93.5l-15 16.75-21.188 17.875z" fill="#b14731" fill-rule="evenodd"/><path fill="#959cb3" d="M301.742 273.65l61.794 61.793-28.085 28.085-61.793-61.793z"/><path d="M273.653 301.742l61.792 61.792 10.043-10.043-36.978-36.978c6.203-5.838 12.151-11.938 17.508-18.577l-24.279-24.279-28.086 28.085z" fill="#7f8499"/><path d="M342.461 335.095v.004l-7.362 7.362c-11.38 11.371-11.38 31.21 0 42.572l118.127 118.126c5.689 5.694 13.259 8.827 21.302 8.827 8.052 0 15.62-3.134 21.31-8.823l7.344-7.34c5.689-5.685 8.819-13.245 8.819-21.288 0-8.038-3.129-15.599-8.819-21.284L385.028 335.095c-11.731-11.728-30.835-11.728-42.567 0z" fill="#5b5d6e"/><path d="M499.229 487.285c-8.043 0-15.611-3.134-21.302-8.827L359.801 360.332c-8.369-8.357-10.529-21.285-6.585-32.071-3.919 1.459-7.61 3.692-10.755 6.835v.004l-7.362 7.362c-11.38 11.371-11.38 31.21 0 42.572L453.226 503.16c5.689 5.694 13.259 8.827 21.302 8.827 8.052 0 15.62-3.134 21.31-8.823l7.344-7.34c3.052-3.049 5.299-6.662 6.789-10.574-3.392 1.293-7.002 2.035-10.742 2.035z" fill="#464655"/><path d="M176.547.013C79.042.013 0 79.056 0 176.56c0 97.504 79.042 176.547 176.547 176.547s176.547-79.043 176.547-176.547C353.094 79.056 274.052.013 176.547.013zm0 317.785c-78.003 0-141.238-63.235-141.238-141.238S98.544 35.323 176.547 35.323 317.785 98.557 317.785 176.56c0 78.003-63.235 141.238-141.238 141.238z" fill="#5b5d6e"/><path d="M176.547 17.668c-87.754 0-158.892 71.139-158.892 158.892s71.139 158.892 158.892 158.892S335.44 264.314 335.44 176.56c0-87.755-71.139-158.892-158.893-158.892zm0 300.13c-78.003 0-141.238-63.235-141.238-141.238S98.544 35.323 176.547 35.323 317.785 98.557 317.785 176.56c0 78.003-63.235 141.238-141.238 141.238z" fill="#707487"/><circle cx="176.547" cy="176.558" r="105.928" fill="#00d2ff"/><circle cx="218.918" cy="123.594" r="21.186" fill="#8ce6ff"/><path d="M144.769 176.56c0-55.949 17.361-101.653 39.345-105.547-2.509-.178-5.012-.382-7.566-.382-58.502 0-105.928 47.425-105.928 105.928 0 58.502 47.426 105.928 105.928 105.928 2.554 0 5.057-.204 7.566-.382-21.984-3.893-39.345-49.597-39.345-105.545z" fill="#18bdf6"/><path d="M80.689 221.42c-6.395-13.638-10.074-28.803-10.074-44.862 0-16.06 3.679-31.224 10.074-44.862 20.755-14.546 51.565-24.132 87.033-25.506V71.082c2.919-.242 5.847-.446 8.827-.446 2.98 0 5.91.204 8.827.446v35.109c35.468 1.374 66.276 10.96 87.032 25.506 6.397 13.638 10.075 28.804 10.075 44.863 0 16.06-3.679 31.224-10.075 44.863-20.755 14.545-51.564 24.132-87.032 25.506v35.11c-2.919.241-5.847.445-8.827.445-2.98 0-5.91-.204-8.827-.446V246.93c-35.468-1.377-66.278-10.962-87.033-25.51zm200.13-53.689c-8.198-23.248-47.869-41.828-95.443-43.902v43.902h95.444zm-113.097 0V123.83c-47.573 2.074-87.245 20.654-95.443 43.902h95.443zm113.098 17.655h-95.444v43.902c47.573-2.075 87.245-20.654 95.444-43.902zm-113.098 0H72.279c8.198 23.248 47.869 41.828 95.443 43.902v-43.902z" fill="#eff2fa"/><path d="M82.582 167.731H72.28c8.198-23.248 47.869-41.828 95.443-43.902v21.124c2.916-.096 5.848-.171 8.827-.171 2.98 0 5.911.074 8.827.17V123.83c47.573 2.074 87.245 20.654 95.444 43.902h-10.304c6.377 4.94 10.465 10.426 11.545 16.259.177-2.468.423-4.918.423-7.432 0-3.907-.235-7.756-.657-11.547-.072-.663-.215-1.302-.3-1.961-.42-3.22-.926-6.412-1.632-9.53-.087-.392-.206-.768-.298-1.156-.814-3.419-1.757-6.788-2.892-10.072-.03-.087-.065-.172-.095-.26a107.721 107.721 0 0 0-4.2-10.329l-.003-.004c-20.755-14.546-51.564-24.132-87.032-25.506v-35.11c-2.919-.242-5.847-.446-8.827-.446-2.98 0-5.91.204-8.827.446v35.109c-35.468 1.374-66.277 10.96-87.032 25.506a108.165 108.165 0 0 0-4.204 10.338c-.03.085-.064.168-.093.254-1.137 3.288-2.081 6.664-2.896 10.088-.09.383-.207.754-.292 1.138-.706 3.122-1.214 6.316-1.634 9.536-.084.659-.228 1.299-.299 1.962-.422 3.791-.657 7.64-.657 11.547 0 2.514.246 4.964.423 7.432 1.08-5.836 5.168-11.323 11.545-16.262z" fill="#d7deed"/></g></svg>