<svg xmlns="http://www.w3.org/2000/svg" width="171" height="171" viewBox="0 0 171 171"><defs><mask maskUnits="userSpaceOnUse" id="a"><circle cx="85.333" cy="85.972" r="74" fill="#d45b3e"/><path d="M85.348 11.972l-.021.002v147.998h.021c40.86 0 73.984-33.131 73.984-74s-33.123-74-73.984-74z" fill="#c45237"/></mask></defs><circle cx="85.333" cy="85.972" r="74" fill="#d45b3e"/><path d="M85.348 11.972l-.021.002v147.998h.021c40.86 0 73.984-33.131 73.984-74s-33.123-74-73.984-74z" fill="#c45237"/><path d="M85.583 1.222c46.624 0 84.5 37.876 84.5 84.5s-37.876 84.5-84.5 84.5-84.5-37.876-84.5-84.5 37.876-84.5 84.5-84.5z" opacity=".2" fill="none" stroke="#fff"/><path mask="url(#a)" d="M38.405 118.542l44.592 46.182 34.383-2.21 30.052-25.632 16.086-33.941-.707-14.85.689-6.591-35.837-33.016z" fill="#b14731" fill-rule="evenodd"/><path fill="#fff" stroke-linecap="round" d="M39.952 54.858h90.51v66.998h-90.51z"/><g transform="matrix(.1836 0 0 .1847 38.333 38.69)"><path d="M485.517 52.966H26.483C11.857 52.966 0 64.822 0 79.448v353.103c0 14.626 11.857 26.483 26.483 26.483h459.034c14.626 0 26.483-11.857 26.483-26.483V79.448c0-14.626-11.857-26.482-26.483-26.482zm8.828 379.586a8.829 8.829 0 0 1-8.828 8.828H26.483a8.829 8.829 0 0 1-8.828-8.828V114.759a8.829 8.829 0 0 1 8.828-8.828h459.034a8.829 8.829 0 0 1 8.828 8.828v317.793z" fill="#d7deed"/><circle r="8.828" cy="79.448" cx="26.483" fill="#ff6464"/><circle r="8.828" cy="79.448" cx="52.966" fill="#ffe182"/><circle r="8.828" cy="79.448" cx="79.448" fill="#a5d76e"/><path d="M123.586 88.276h-8.828a8.829 8.829 0 0 1 0-17.656h8.828a8.829 8.829 0 0 1 0 17.656zm35.311 0h-8.828a8.829 8.829 0 0 1 0-17.656h8.828a8.829 8.829 0 0 1 8.828 8.828 8.83 8.83 0 0 1-8.828 8.828zm291.31 0h-8.828a8.829 8.829 0 0 1 0-17.656h8.828a8.829 8.829 0 0 1 8.828 8.828 8.83 8.83 0 0 1-8.828 8.828zm35.31 0h-8.828a8.829 8.829 0 0 1 0-17.656h8.828a8.829 8.829 0 0 1 0 17.656zm-79.448 0H194.207a8.829 8.829 0 0 1 0-17.656h211.862a8.829 8.829 0 0 1 0 17.656z" fill="#eff2fa"/><path d="M389.707 377.146l-30.216 30.216a8.773 8.773 0 0 1-12.407 0l-224.791-224.79a8.773 8.773 0 0 1 0-12.407l30.216-30.216a8.773 8.773 0 0 1 12.407 0l224.79 224.79a8.772 8.772 0 0 1 .001 12.407z" fill="#ffcd78"/><path d="M258.585 258.585l12.484-12.484-12.484-12.484-12.484 12.484a8.828 8.828 0 0 0 0 12.484 8.826 8.826 0 0 0 12.484 0zm-24.967-24.967l12.484-12.484-12.484-12.484-12.484 12.484a8.828 8.828 0 0 0 0 12.484c3.446 3.447 9.036 3.447 12.484 0zm-24.969-24.969l12.484-12.484-12.484-12.484-12.484 12.484a8.828 8.828 0 0 0 0 12.484 8.826 8.826 0 0 0 12.484 0zm99.873 99.873l12.484-12.484-12.484-12.484-12.484 12.484a8.828 8.828 0 0 0 12.484 12.484zm-24.968-24.968l12.484-12.484-12.484-12.484-12.484 12.484a8.828 8.828 0 0 0 12.484 12.484zm49.936 49.936l12.484-12.484-12.484-12.484-12.484 12.484a8.828 8.828 0 0 0 0 12.484 8.826 8.826 0 0 0 12.484 0zm24.968 24.968l12.484-12.484-12.484-12.484-12.484 12.484a8.828 8.828 0 0 0 0 12.484 8.826 8.826 0 0 0 12.484 0zM183.681 183.681l12.484-12.484-12.484-12.484-12.484 12.484a8.828 8.828 0 0 0 12.484 12.484z" fill="#ebb45f"/><path fill="#ff6464" d="M158.743 345.94l186.868-186.867 24.968 24.968L183.71 370.908z"/><path fill="#d2555a" d="M358.102 171.556l12.484 12.484-186.868 186.867-12.484-12.484z"/><path d="M183.713 370.91l-53.337 32.002c-2.364 1.418-5.052-1.269-3.634-3.634l32.002-53.337 24.969 24.969z" fill="#ffe6a1"/><path d="M130.377 402.912l22.126-13.276-12.484-12.484-13.276 22.126c-1.418 2.365 1.269 5.052 3.634 3.634z" fill="#ff6464"/><path d="M370.581 146.59l12.484 12.484a8.828 8.828 0 0 1 0 12.484l-12.484 12.484-24.968-24.968 12.484-12.484a8.828 8.828 0 0 1 12.484 0z" fill="#ffe6a1"/><path d="M370.581 159.074l-12.484 12.484 12.484 12.484 12.484-12.484a8.828 8.828 0 0 0 0-12.484l-12.484-12.484a8.827 8.827 0 0 1 0 12.484z" fill="#ffdc9b"/></g></svg>