<svg xmlns="http://www.w3.org/2000/svg" width="171" height="171" viewBox="0 0 171 171"><defs><mask maskUnits="userSpaceOnUse" id="a"><circle cx="85.333" cy="85.972" r="74" fill="#d45b3e"/><path d="M85.348 11.972l-.021.002v147.998h.021c40.86 0 73.984-33.131 73.984-74s-33.123-74-73.984-74z" fill="#c45237"/></mask></defs><circle cx="85.333" cy="85.972" r="74" fill="#d45b3e"/><path d="M85.348 11.972l-.021.002v147.998h.021c40.86 0 73.984-33.131 73.984-74s-33.123-74-73.984-74z" fill="#c45237"/><path d="M85.583 1.222c46.624 0 84.5 37.876 84.5 84.5s-37.876 84.5-84.5 84.5-84.5-37.876-84.5-84.5 37.876-84.5 84.5-84.5z" opacity=".2" fill="none" stroke="#fff"/><path mask="url(#a)" d="M38.36 118.875l47.765 48.25 29.375-3.875s28.25-17 30-18.5S159 114 159 114l4.75-19-1.25-11.25-35.25-35.25z" fill="#b14731" fill-rule="evenodd"/><path fill="#fff" stroke-linecap="round" d="M40.5 54.75H130v66.75H40.5z"/><g transform="matrix(.1836 0 0 .1847 38.333 38.69)"><path d="M256 256c-53.629 0-97.103 43.475-97.103 97.103h194.207C353.103 299.475 309.629 256 256 256z" fill="#eff2fa"/><g fill="#d7deed"><path d="M256 317.793c-19.501 0-35.31 15.809-35.31 35.31h70.621c-.001-19.501-15.81-35.31-35.311-35.31z"/><path d="M485.517 52.966H26.483C11.857 52.966 0 64.822 0 79.448v353.103c0 14.626 11.857 26.483 26.483 26.483h459.034c14.626 0 26.483-11.857 26.483-26.483V79.448c0-14.626-11.857-26.482-26.483-26.482zm8.828 379.586a8.829 8.829 0 0 1-8.828 8.828H26.483a8.829 8.829 0 0 1-8.828-8.828V114.759a8.829 8.829 0 0 1 8.828-8.828h459.034a8.829 8.829 0 0 1 8.828 8.828v317.793z"/></g><circle r="8.828" cy="79.448" cx="26.483" fill="#ff6464"/><circle r="8.828" cy="79.448" cx="52.966" fill="#ffe182"/><circle r="8.828" cy="79.448" cx="79.448" fill="#a5d76e"/><path d="M123.586 88.276h-8.828a8.829 8.829 0 0 1 0-17.656h8.828a8.829 8.829 0 0 1 0 17.656zm35.311 0h-8.828a8.829 8.829 0 0 1 0-17.656h8.828a8.829 8.829 0 0 1 8.828 8.828 8.83 8.83 0 0 1-8.828 8.828zm291.31 0h-8.828a8.829 8.829 0 0 1 0-17.656h8.828a8.829 8.829 0 0 1 8.828 8.828 8.83 8.83 0 0 1-8.828 8.828zm35.31 0h-8.828a8.829 8.829 0 0 1 0-17.656h8.828a8.829 8.829 0 0 1 0 17.656zm-79.448 0H194.207a8.829 8.829 0 0 1 0-17.656h211.862a8.829 8.829 0 0 1 0 17.656z" fill="#eff2fa"/><path d="M379.586 353.103h52.966c0-97.354-79.202-176.552-176.552-176.552v52.966c68.147 0 123.586 55.44 123.586 123.586z" fill="#ffb473"/><path d="M132.414 353.103H79.448c0-97.354 79.202-176.552 176.552-176.552v52.966c-68.147 0-123.586 55.44-123.586 123.586z" fill="#ffe182"/><path d="M79.448 353.103h52.966c0-34.073 13.86-64.97 36.238-87.348l-37.434-37.434c-31.969 31.969-51.77 76.106-51.77 124.782z" fill="#c3e678"/><g fill="#ff6464"><path d="M343.348 265.756c22.378 22.378 36.238 53.274 36.238 87.348h52.966c0-48.676-19.8-92.813-51.769-124.782l-37.435 37.434z"/><path d="M238.345 379.586a8.796 8.796 0 0 1-6.241-2.586 8.825 8.825 0 0 1 0-12.483l150.069-150.069a8.825 8.825 0 0 1 12.483 0 8.825 8.825 0 0 1 0 12.483L244.587 377a8.802 8.802 0 0 1-6.242 2.586z"/></g><circle r="17.655" cy="353.103" cx="256" fill="#5b5d6e"/></g></svg>