<?xml version="1.0" encoding="UTF-8" standalone="no"?>
<!-- Generator: Adobe Illustrator 17.0.0, SVG Export Plug-In . SVG Version: 6.00 Build 0)  -->

<svg
   xmlns:dc="http://purl.org/dc/elements/1.1/"
   xmlns:cc="http://creativecommons.org/ns#"
   xmlns:rdf="http://www.w3.org/1999/02/22-rdf-syntax-ns#"
   xmlns:svg="http://www.w3.org/2000/svg"
   xmlns="http://www.w3.org/2000/svg"
   xmlns:sodipodi="http://sodipodi.sourceforge.net/DTD/sodipodi-0.dtd"
   xmlns:inkscape="http://www.inkscape.org/namespaces/inkscape"
   version="1.1"
   id="Слой_1"
   sodipodi:docname="А и Б тестирование.svg"
   inkscape:version="0.91 r13725"
   x="0px"
   y="0px"
   width="171px"
   height="171px"
   viewBox="0 0 171 171"
   enable-background="new 0 0 171 171"
   xml:space="preserve"><metadata
     id="metadata12"><rdf:RDF><cc:Work
         rdf:about=""><dc:format>image/svg+xml</dc:format><dc:type
           rdf:resource="http://purl.org/dc/dcmitype/StillImage" /><dc:title></dc:title></cc:Work></rdf:RDF></metadata><defs
     id="defs10"><mask
       maskUnits="userSpaceOnUse"
       id="mask4436"><g
         id="g4438"><circle
           r="74"
           cy="85.972"
           cx="85.333"
           id="circle4440"
           style="fill:#d45b3e" /><path
           d="m 85.348,11.972 c -0.007,0.001 -0.014,0.001 -0.021,0.002 l 0,147.998 c 0.007,0 0.014,0 0.021,0 40.86,0 73.984,-33.131 73.984,-74 0,-40.869 -33.123,-74 -73.984,-74 0,0 0,0 0,0 z"
           inkscape:connector-curvature="0"
           id="path4442"
           style="fill:#c45237" /></g></mask></defs><sodipodi:namedview
     showguides="false"
     inkscape:cy="-68.284358"
     inkscape:cx="149.19828"
     inkscape:zoom="1"
     showgrid="false"
     guidetolerance="10"
     gridtolerance="10"
     objecttolerance="10"
     borderopacity="1"
     bordercolor="#666666"
     pagecolor="#ffffff"
     id="namedview61"
     inkscape:guide-bbox="true"
     inkscape:current-layer="Слой_1"
     inkscape:window-maximized="1"
     inkscape:window-y="-8"
     inkscape:window-x="-8"
     inkscape:window-height="801"
     inkscape:window-width="1536"
     inkscape:pageshadow="2"
     inkscape:pageopacity="0"><inkscape:grid
       type="xygrid"
       id="grid4289" /></sodipodi:namedview><g
     id="g4274" /><g
     id="g4444"><g
       id="g4156"><circle
         r="74"
         cy="85.972"
         cx="85.333"
         id="path4230"
         style="fill:#d45b3e" /><path
         d="m 85.348,11.972 c -0.007,0.001 -0.014,0.001 -0.021,0.002 l 0,147.998 c 0.007,0 0.014,0 0.021,0 40.86,0 73.984,-33.131 73.984,-74 0,-40.869 -33.123,-74 -73.984,-74 0,0 0,0 0,0 z"
         inkscape:connector-curvature="0"
         id="path4278"
         style="fill:#c45237" /></g><path
       mask="url(#mask4436)"
       sodipodi:nodetypes="ccccsccccccccc"
       inkscape:connector-curvature="0"
       id="path4428"
       d="m 38.360542,116.90633 47.464541,47.46454 25.013907,-3.09359 24.57196,-12.37437 c 0,0 17.85444,-19.44543 18.56155,-18.9151 0.7071,0.53033 8.48528,-22.27387 8.48528,-22.27387 l 1.41421,-19.268655 -0.17677,-4.596194 -32.87067,-31.862697 -13.05022,1.84283 6.14613,5.271131 -6.01041,6.894291 -73.715877,48.967144 z"
       style="fill:#b14731;fill-opacity:1;fill-rule:evenodd;stroke:none;stroke-width:1px;stroke-linecap:butt;stroke-linejoin:miter;stroke-opacity:1" /><g
       id="g4270"><rect
         style="opacity:1;fill:#ffffff;fill-opacity:1;fill-rule:nonzero;stroke:none;stroke-width:1;stroke-linecap:round;stroke-linejoin:miter;stroke-miterlimit:4;stroke-dasharray:none;stroke-opacity:1"
         id="rect4268"
         width="75.660423"
         height="45.43161"
         x="44.370949"
         y="65.110764" /><g
         id="g4233"
         transform="matrix(0.18359375,0,0,0.18340805,38.333,39.019539)"><path
           id="path4161"
           d="m 459.034,441.379 -441.379,0 C 7.904,441.379 0,433.475 0,423.724 l 0,-8.828 c 0,-4.875 3.953,-8.828 8.828,-8.828 l 459.034,0 c 4.875,0 8.828,3.953 8.828,8.828 l 0,8.828 c 0,9.751 -7.904,17.655 -17.656,17.655 z"
           style="fill:#c7cfe2"
           inkscape:connector-curvature="0" /><path
           id="path4163"
           d="m 17.655,441.379 441.379,0 c 9.75,0 17.655,-7.905 17.655,-17.655 L 0,423.724 c 0,9.75 7.905,17.655 17.655,17.655 z"
           style="fill:#afb9d2"
           inkscape:connector-curvature="0" /><path
           id="path4165"
           d="m 291.955,423.724 -71.908,0 c -5.015,0 -9.6,-2.834 -11.843,-7.319 l -5.169,-10.336 105.931,0 -5.167,10.336 c -2.244,4.486 -6.829,7.319 -11.844,7.319 z"
           style="fill:#959cb3"
           inkscape:connector-curvature="0" /><path
           id="path4167"
           d="m 441.379,123.586 -406.069,0 c -9.75,0 -17.655,7.904 -17.655,17.655 l 0,264.828 441.379,0 0,-264.828 c 0,-9.751 -7.905,-17.655 -17.655,-17.655 z m -8.827,256 -388.414,0 0,-229.517 388.414,0 0,229.517 z"
           style="fill:#464655"
           inkscape:connector-curvature="0" /><polygon
           id="polygon4169"
           points="238.345,344.276 432.552,150.069 432.552,379.586 44.138,379.586 158.897,264.828 "
           style="fill:#eff2fa" /><g
           id="g4171"><rect
             id="rect4173"
             height="105.931"
             width="17.655001"
             style="fill:#e4eaf6"
             y="273.655"
             x="150.069" /><polygon
             id="polygon4175"
             points="70.621,379.586 70.621,353.103 88.276,335.448 88.276,379.586 "
             style="fill:#e4eaf6" /><rect
             id="rect4177"
             height="44.138"
             width="17.655001"
             style="fill:#e4eaf6"
             y="335.448"
             x="229.517" /><polygon
             id="polygon4179"
             points="308.966,379.586 308.966,273.655 326.621,256 326.621,379.586 "
             style="fill:#e4eaf6" /><polygon
             id="polygon4181"
             points="388.414,379.586 388.414,194.207 406.069,176.552 406.069,379.586 "
             style="fill:#e4eaf6" /></g><path
           id="path4183"
           d="m 503.172,70.621 -61.793,0 c -4.875,0 -8.828,3.953 -8.828,8.828 0,4.875 3.953,8.828 8.828,8.828 l 40.483,0 -243.517,243.517 -73.207,-73.207 c -3.448,-3.448 -9.035,-3.448 -12.483,0 l -108.517,108.517 0,12.482 12.483,0 102.275,-102.275 73.207,73.207 c 3.448,3.448 9.035,3.448 12.483,0 l 249.758,-249.759 0,40.482 c 0,4.875 3.953,8.828 8.828,8.828 4.875,0 8.828,-3.953 8.828,-8.828 l 0,-61.793 c 0,-4.875 -3.953,-8.827 -8.828,-8.827 z"
           style="fill:#ff6464"
           inkscape:connector-curvature="0" /><g
           id="g4185"><circle
             id="circle4187"
             r="17.655001"
             cy="264.828"
             cx="158.897"
             style="fill:#d2555a" /><circle
             id="circle4189"
             r="17.655001"
             cy="344.276"
             cx="79.447998"
             style="fill:#d2555a" /><circle
             id="circle4191"
             r="17.655001"
             cy="344.276"
             cx="238.345"
             style="fill:#d2555a" /><circle
             id="circle4193"
             r="17.655001"
             cy="264.828"
             cx="317.793"
             style="fill:#d2555a" /><circle
             id="circle4195"
             r="17.655001"
             cy="185.379"
             cx="397.241"
             style="fill:#d2555a" /></g><g
           id="g4197" /><g
           id="g4199" /><g
           id="g4201" /><g
           id="g4203" /><g
           id="g4205" /><g
           id="g4207" /><g
           id="g4209" /><g
           id="g4211" /><g
           id="g4213" /><g
           id="g4215" /><g
           id="g4217" /><g
           id="g4219" /><g
           id="g4221" /><g
           id="g4223" /><g
           id="g4225" /></g></g><path
       style="opacity:0.2;fill:none;stroke:#ffffff"
       id="path4271"
       inkscape:connector-curvature="0"
       enable-background="new    "
       d="m 85.583,1.222 c 46.624,0 84.5,37.876 84.5,84.5 0,46.624 -37.876,84.5 -84.5,84.5 -46.624,0 -84.5,-37.876 -84.5,-84.5 0,-46.624 37.876,-84.5 84.5,-84.5 z" /></g></svg>