<svg xmlns="http://www.w3.org/2000/svg" width="171" height="171" viewBox="0 0 171 171"><defs><mask maskUnits="userSpaceOnUse" id="a"><circle cx="85.333" cy="85.972" r="74" fill="#d45b3e"/><path d="M85.348 11.972l-.021.002v147.998h.021c40.86 0 73.984-33.131 73.984-74s-33.123-74-73.984-74z" fill="#c45237"/></mask></defs><circle cx="85.333" cy="85.972" r="74" fill="#d45b3e"/><path d="M85.348 11.972l-.021.002v147.998h.021c40.86 0 73.984-33.131 73.984-74s-33.123-74-73.984-74z" fill="#c45237"/><path d="M85.583 1.222c46.624 0 84.5 37.876 84.5 84.5s-37.876 84.5-84.5 84.5-84.5-37.876-84.5-84.5 37.876-84.5 84.5-84.5z" opacity=".2" fill="none" stroke="#fff"/><path mask="url(#a)" d="M38.327 118.221l47.763 48.006 35.886-4.42 23.688-17.677 15.203-25.81 1.06-21.566V83.672L127.268 48.97z" fill="#b14731" fill-rule="evenodd"/><g transform="matrix(.1836 0 0 .18224 38.333 39.32)"><path d="M485.517 459.034H26.483C11.857 459.034 0 447.178 0 432.552V79.448c0-14.626 11.857-26.483 26.483-26.483h459.034c14.626 0 26.483 11.857 26.483 26.483v353.103c0 14.627-11.857 26.483-26.483 26.483z" fill="#d7deed"/><path d="M485.517 441.379H26.483a8.829 8.829 0 0 1-8.828-8.828V114.759a8.829 8.829 0 0 1 8.828-8.828h459.034a8.829 8.829 0 0 1 8.828 8.828v317.793a8.828 8.828 0 0 1-8.828 8.827z" fill="#5b5d6e"/><circle cx="26.483" cy="79.448" r="8.828" fill="#ff6464"/><circle cx="52.966" cy="79.448" r="8.828" fill="#ffe182"/><circle cx="79.448" cy="79.448" r="8.828" fill="#a5d76e"/><path d="M123.586 88.276h-8.828a8.829 8.829 0 0 1 0-17.656h8.828a8.829 8.829 0 0 1 0 17.656zm35.311 0h-8.828a8.829 8.829 0 0 1 0-17.656h8.828a8.829 8.829 0 0 1 8.828 8.828 8.83 8.83 0 0 1-8.828 8.828zm291.31 0h-8.828a8.829 8.829 0 0 1 0-17.656h8.828a8.829 8.829 0 0 1 8.828 8.828 8.83 8.83 0 0 1-8.828 8.828zm35.31 0h-8.828a8.829 8.829 0 0 1 0-17.656h8.828a8.829 8.829 0 0 1 0 17.656zm-79.448 0H194.207a8.829 8.829 0 0 1 0-17.656h211.862a8.829 8.829 0 0 1 0 17.656z" fill="#eff2fa"/><path d="M176.556 353.099a8.82 8.82 0 0 1-6.646-3.012l-61.793-70.621a8.827 8.827 0 0 1 0-11.629l61.793-70.621c3.211-3.659 8.785-4.034 12.457-.828a8.828 8.828 0 0 1 .828 12.457l-56.707 64.806 56.707 64.806a8.828 8.828 0 0 1-6.639 14.642zm158.888 0a8.828 8.828 0 0 1-6.639-14.642l56.707-64.806-56.707-64.806a8.828 8.828 0 0 1 13.285-11.629l61.793 70.621a8.827 8.827 0 0 1 0 11.629l-61.793 70.621a8.818 8.818 0 0 1-6.646 3.012zm-114.759 17.664a8.901 8.901 0 0 1-3.276-.633c-4.526-1.815-6.729-6.948-4.918-11.478L283.112 182.1a8.818 8.818 0 0 1 11.478-4.918c4.526 1.815 6.729 6.948 4.918 11.478l-70.621 176.552a8.84 8.84 0 0 1-8.202 5.551z" fill="#fff"/></g></svg>