<?xml version="1.0" encoding="UTF-8" standalone="no"?>
<!-- Generator: Adobe Illustrator 17.0.0, SVG Export Plug-In . SVG Version: 6.00 Build 0)  -->

<svg
   xmlns:dc="http://purl.org/dc/elements/1.1/"
   xmlns:cc="http://creativecommons.org/ns#"
   xmlns:rdf="http://www.w3.org/1999/02/22-rdf-syntax-ns#"
   xmlns:svg="http://www.w3.org/2000/svg"
   xmlns="http://www.w3.org/2000/svg"
   xmlns:sodipodi="http://sodipodi.sourceforge.net/DTD/sodipodi-0.dtd"
   xmlns:inkscape="http://www.inkscape.org/namespaces/inkscape"
   version="1.1"
   id="Слой_1"
   sodipodi:docname="4. Первые Три Пункта.svg"
   inkscape:version="0.91 r13725"
   x="0px"
   y="0px"
   width="171px"
   height="171px"
   viewBox="0 0 171 171"
   enable-background="new 0 0 171 171"
   xml:space="preserve"><metadata
     id="metadata12"><rdf:RDF><cc:Work
         rdf:about=""><dc:format>image/svg+xml</dc:format><dc:type
           rdf:resource="http://purl.org/dc/dcmitype/StillImage" /><dc:title></dc:title></cc:Work></rdf:RDF></metadata><defs
     id="defs10"><mask
       maskUnits="userSpaceOnUse"
       id="mask4233"><g
         id="g4235"><circle
           id="circle4237"
           cx="85.333"
           cy="85.972"
           r="74"
           style="fill:#d45b3e" /><path
           id="path4239"
           inkscape:connector-curvature="0"
           d="m 85.348,11.972 c -0.007,0.001 -0.014,0.001 -0.021,0.002 l 0,147.998 c 0.007,0 0.014,0 0.021,0 40.86,0 73.984,-33.131 73.984,-74 0,-40.869 -33.123,-74 -73.984,-74 0,0 0,0 0,0 z"
           style="fill:#c45237" /></g></mask></defs><sodipodi:namedview
     showguides="false"
     inkscape:cy="53.685271"
     inkscape:cx="22.534721"
     inkscape:zoom="2"
     showgrid="false"
     guidetolerance="10"
     gridtolerance="10"
     objecttolerance="10"
     borderopacity="1"
     bordercolor="#666666"
     pagecolor="#ffffff"
     id="namedview61"
     inkscape:guide-bbox="true"
     inkscape:current-layer="Слой_1"
     inkscape:window-maximized="1"
     inkscape:window-y="-8"
     inkscape:window-x="-8"
     inkscape:window-height="801"
     inkscape:window-width="1536"
     inkscape:pageshadow="2"
     inkscape:pageopacity="0"><inkscape:grid
       type="xygrid"
       id="grid4289" /></sodipodi:namedview><g
     id="g4241"><g
       id="g4274"><circle
         id="path4230"
         cx="85.333"
         cy="85.972"
         r="74"
         style="fill:#d45b3e" /><path
         id="path4278"
         inkscape:connector-curvature="0"
         d="m 85.348,11.972 c -0.007,0.001 -0.014,0.001 -0.021,0.002 l 0,147.998 c 0.007,0 0.014,0 0.021,0 40.86,0 73.984,-33.131 73.984,-74 0,-40.869 -33.123,-74 -73.984,-74 0,0 0,0 0,0 z"
         style="fill:#c45237" /></g><path
       id="path4271"
       inkscape:connector-curvature="0"
       enable-background="new    "
       d="m 85.583,1.222 c 46.624,0 84.5,37.876 84.5,84.5 0,46.624 -37.876,84.5 -84.5,84.5 -46.624,0 -84.5,-37.876 -84.5,-84.5 0,-46.624 37.876,-84.5 84.5,-84.5 z"
       style="opacity:0.2;fill:none;stroke:#ffffff" /><path
       mask="url(#mask4233)"
       sodipodi:nodetypes="ccccccccccc"
       inkscape:connector-curvature="0"
       id="path4224"
       d="m 54.843743,130.45173 37.345301,37.45468 42.514796,-14.76086 23.15774,-28.10749 2.80791,-23.12159 -44.90128,-47.376157 -11.11641,0.02727 -1.93349,-4.394449 -5.49113,0.04419 -8.971648,-8.219427 z"
       style="fill:#b14731;fill-opacity:1;fill-rule:evenodd;stroke:none;stroke-width:1px;stroke-linecap:butt;stroke-linejoin:miter;stroke-opacity:1" /><g
       transform="matrix(0.21785714,0,0,0.21707317,40.672286,41.472)"
       id="g4194"><g
         id="XMLID_821_"><polygon
           id="XMLID_822_"
           style="fill:#dedde0"
           points="95,240 95,210 205,210 205,180 95,180 95,150 205,150 205,100 65,100 65,410 205,410 205,360 95,360 95,330 205,330 205,300 95,300 95,270 205,270 205,240 " /><path
           inkscape:connector-curvature="0"
           id="XMLID_823_"
           style="fill:#cdcdd0"
           d="m 205,150 50,0 0,30 -50,0 0,30 50,0 0,30 -50,0 0,30 50,0 0,30 -50,0 0,30 50,0 0,30 -50,0 0,50 140,0 0,-310 -140,0 0,50 z m 80,0 30,0 0,30 -30,0 0,-30 z m 0,60 30,0 0,30 -30,0 0,-30 z m 0,60 30,0 0,30 -30,0 0,-30 z m 0,60 30,0 0,30 -30,0 0,-30 z" /><polygon
           id="XMLID_829_"
           style="fill:#acabb1"
           points="345,60 285,60 285,80 125,80 125,60 65,60 65,100 205,100 345,100 " /><path
           inkscape:connector-curvature="0"
           id="XMLID_830_"
           style="fill:#565659"
           d="m 285,80 0,-20 0,-20 -40,0 C 245,17.909 227.092,0 205,0 182.908,0 165,17.909 165,40 l -40,0 0,20 0,20 160,0 z" /><polygon
           id="XMLID_831_"
           style="fill:#ffffff"
           points="255,360 255,330 205,330 95,330 95,360 205,360 " /><polygon
           id="XMLID_832_"
           style="fill:#ffffff"
           points="255,240 255,210 205,210 95,210 95,240 205,240 " /><polygon
           id="XMLID_833_"
           style="fill:#ffffff"
           points="255,180 255,150 205,150 95,150 95,180 205,180 " /><polygon
           id="XMLID_834_"
           style="fill:#ffffff"
           points="255,300 255,270 205,270 95,270 95,300 205,300 " /><rect
           id="XMLID_835_"
           x="285"
           y="330"
           style="fill:#ffffff"
           width="30"
           height="30" /><rect
           id="XMLID_836_"
           x="285"
           y="210"
           style="fill:#d80027"
           width="30"
           height="30" /><rect
           id="XMLID_837_"
           x="285"
           y="150"
           style="fill:#64c37d"
           width="30"
           height="30" /><rect
           id="XMLID_838_"
           x="285"
           y="270"
           style="fill:#ffffff"
           width="30"
           height="30" /></g><g
         id="g4158" /><g
         id="g4160" /><g
         id="g4162" /><g
         id="g4164" /><g
         id="g4166" /><g
         id="g4168" /><g
         id="g4170" /><g
         id="g4172" /><g
         id="g4174" /><g
         id="g4176" /><g
         id="g4178" /><g
         id="g4180" /><g
         id="g4182" /><g
         id="g4184" /><g
         id="g4186" /></g></g></svg>