<svg xmlns="http://www.w3.org/2000/svg" width="171" height="171" viewBox="0 0 171 171"><defs><mask maskUnits="userSpaceOnUse" id="a"><circle cx="85.333" cy="85.972" r="74" fill="#d45b3e"/><path d="M85.348 11.972l-.021.002v147.998h.021c40.86 0 73.984-33.131 73.984-74s-33.123-74-73.984-74z" fill="#c45237"/></mask></defs><circle cx="85.333" cy="85.972" r="74" fill="#d45b3e"/><path d="M85.348 11.972l-.021.002v147.998h.021c40.86 0 73.984-33.131 73.984-74s-33.123-74-73.984-74z" fill="#c45237"/><path d="M85.583 1.222c46.624 0 84.5 37.876 84.5 84.5s-37.876 84.5-84.5 84.5-84.5-37.876-84.5-84.5 37.876-84.5 84.5-84.5z" opacity=".2" fill="none" stroke="#fff"/><path mask="url(#a)" d="M54.844 130.452l37.345 37.454 42.515-14.76 23.158-28.108 2.807-23.122-44.9-47.376-11.117.028-1.934-4.395-5.49.044-8.972-8.22z" fill="#b14731" fill-rule="evenodd"/><path fill="#dedde0" d="M61.369 93.57v-6.513h23.964v-6.512H61.369v-6.512h23.964V63.179h-30.5v67.293h30.5v-10.854H61.369v-6.512h23.964v-6.512H61.369v-6.512h23.964V93.57z"/><path d="M85.333 74.033h10.893v6.512H85.333v6.512h10.893v6.513H85.333v6.512h10.893v6.512H85.333v6.512h10.893v6.512H85.333v10.854h30.5V63.179h-30.5v10.854zm17.429 0h6.535v6.512h-6.535v-6.512zm0 13.024h6.535v6.513h-6.535v-6.513zm0 13.025h6.535v6.512h-6.535v-6.512zm0 13.024h6.535v6.512h-6.535v-6.512z" fill="#cdcdd0"/><path fill="#acabb1" d="M115.833 54.496h-13.071v4.342H67.904v-4.342H54.833v8.683h61z"/><path d="M102.762 58.838v-8.683h-8.715c0-4.795-3.901-8.683-8.714-8.683-4.813 0-8.714 3.888-8.714 8.683h-8.715v8.683h34.858z" fill="#565659"/><path fill="#fff" d="M96.226 119.618v-6.512H61.369v6.512h23.964zm0-26.048v-6.513H61.369v6.513h23.964zm0-13.025v-6.512H61.369v6.512h23.964zm0 26.049v-6.512H61.369v6.512h23.964zm6.536 6.512h6.535v6.512h-6.535z"/><path fill="#d80027" d="M102.762 87.057h6.535v6.513h-6.535z"/><path fill="#64c37d" d="M102.762 74.033h6.535v6.512h-6.535z"/><path fill="#fff" d="M102.762 100.082h6.535v6.512h-6.535z"/></svg>