<?xml version="1.0" encoding="UTF-8" standalone="no"?>
<!-- Generator: Adobe Illustrator 17.0.0, SVG Export Plug-In . SVG Version: 6.00 Build 0)  -->

<svg
   xmlns:dc="http://purl.org/dc/elements/1.1/"
   xmlns:cc="http://creativecommons.org/ns#"
   xmlns:rdf="http://www.w3.org/1999/02/22-rdf-syntax-ns#"
   xmlns:svg="http://www.w3.org/2000/svg"
   xmlns="http://www.w3.org/2000/svg"
   xmlns:sodipodi="http://sodipodi.sourceforge.net/DTD/sodipodi-0.dtd"
   xmlns:inkscape="http://www.inkscape.org/namespaces/inkscape"
   version="1.1"
   id="Слой_1"
   sodipodi:docname="Настройка CMS.svg"
   inkscape:version="0.91 r13725"
   x="0px"
   y="0px"
   width="171px"
   height="171px"
   viewBox="0 0 171 171"
   enable-background="new 0 0 171 171"
   xml:space="preserve"><metadata
     id="metadata12"><rdf:RDF><cc:Work
         rdf:about=""><dc:format>image/svg+xml</dc:format><dc:type
           rdf:resource="http://purl.org/dc/dcmitype/StillImage" /><dc:title></dc:title></cc:Work></rdf:RDF></metadata><defs
     id="defs10"><mask
       maskUnits="userSpaceOnUse"
       id="mask4307"><g
         id="g4309"><circle
           id="circle4311"
           cx="85.333"
           cy="85.972"
           r="74"
           style="fill:#d45b3e" /><path
           id="path4313"
           inkscape:connector-curvature="0"
           d="m 85.348,11.972 c -0.007,0.001 -0.014,0.001 -0.021,0.002 l 0,147.998 c 0.007,0 0.014,0 0.021,0 40.86,0 73.984,-33.131 73.984,-74 0,-40.869 -33.123,-74 -73.984,-74 0,0 0,0 0,0 z"
           style="fill:#c45237" /></g></mask></defs><sodipodi:namedview
     showguides="false"
     inkscape:cy="34.244044"
     inkscape:cx="132.45872"
     inkscape:zoom="1.4142136"
     showgrid="false"
     guidetolerance="10"
     gridtolerance="10"
     objecttolerance="10"
     borderopacity="1"
     bordercolor="#666666"
     pagecolor="#ffffff"
     id="namedview61"
     inkscape:guide-bbox="true"
     inkscape:current-layer="Слой_1"
     inkscape:window-maximized="1"
     inkscape:window-y="-8"
     inkscape:window-x="-8"
     inkscape:window-height="801"
     inkscape:window-width="1536"
     inkscape:pageshadow="2"
     inkscape:pageopacity="0"><inkscape:grid
       type="xygrid"
       id="grid4289" /></sodipodi:namedview><g
     id="g4315"><g
       id="g4274"><circle
         id="path4230"
         cx="85.333"
         cy="85.972"
         r="74"
         style="fill:#d45b3e" /><path
         id="path4278"
         inkscape:connector-curvature="0"
         d="m 85.348,11.972 c -0.007,0.001 -0.014,0.001 -0.021,0.002 l 0,147.998 c 0.007,0 0.014,0 0.021,0 40.86,0 73.984,-33.131 73.984,-74 0,-40.869 -33.123,-74 -73.984,-74 0,0 0,0 0,0 z"
         style="fill:#c45237" /></g><path
       id="path4271"
       inkscape:connector-curvature="0"
       enable-background="new    "
       d="m 85.583,1.222 c 46.624,0 84.5,37.876 84.5,84.5 0,46.624 -37.876,84.5 -84.5,84.5 -46.624,0 -84.5,-37.876 -84.5,-84.5 0,-46.624 37.876,-84.5 84.5,-84.5 z"
       style="opacity:0.2;fill:none;stroke:#ffffff" /><path
       mask="url(#mask4307)"
       sodipodi:nodetypes="cccsccccc"
       inkscape:connector-curvature="0"
       id="path4299"
       d="M 38.359374,118.875 86.124998,167.125 115.5,163.25 c 0,0 28.25,-17 30,-18.5 C 147.25,143.25 159,114 159,114 l 4.75,-18.999998 -1.25,-11.25 -35.25,-35.249999 z"
       style="fill:#b14731;fill-opacity:1;fill-rule:evenodd;stroke:none;stroke-width:1px;stroke-linecap:butt;stroke-linejoin:miter;stroke-opacity:1" /><g
       id="g4260"><rect
         style="opacity:1;fill:#ffffff;fill-opacity:1;fill-rule:nonzero;stroke:none;stroke-width:1;stroke-linecap:round;stroke-linejoin:miter;stroke-miterlimit:4;stroke-dasharray:none;stroke-opacity:1"
         id="rect4258"
         width="89.5"
         height="66.75"
         x="40.5"
         y="54.750004" /><g
         id="g4221"
         transform="matrix(0.18359375,0,0,0.18469813,38.333,38.689279)"><path
           id="path4145"
           d="m 256,256 c -53.629,0 -97.103,43.475 -97.103,97.103 l 194.207,0 C 353.103,299.475 309.629,256 256,256 Z"
           style="fill:#eff2fa"
           inkscape:connector-curvature="0" /><g
           id="g4147"><path
             id="path4149"
             d="m 256,317.793 c -19.501,0 -35.31,15.809 -35.31,35.31 l 70.621,0 C 291.31,333.602 275.501,317.793 256,317.793 Z"
             style="fill:#d7deed"
             inkscape:connector-curvature="0" /><path
             id="path4151"
             d="m 485.517,52.966 -459.034,0 C 11.857,52.966 0,64.822 0,79.448 l 0,353.103 c 0,14.626 11.857,26.483 26.483,26.483 l 459.034,0 c 14.626,0 26.483,-11.857 26.483,-26.483 L 512,79.448 C 512,64.822 500.143,52.966 485.517,52.966 Z m 8.828,379.586 c 0,4.875 -3.953,8.828 -8.828,8.828 l -459.034,0 c -4.875,0 -8.828,-3.953 -8.828,-8.828 l 0,-317.793 c 0,-4.875 3.953,-8.828 8.828,-8.828 l 459.034,0 c 4.875,0 8.828,3.953 8.828,8.828 l 0,317.793 z"
             style="fill:#d7deed"
             inkscape:connector-curvature="0" /></g><circle
           id="circle4153"
           r="8.8280001"
           cy="79.447998"
           cx="26.483"
           style="fill:#ff6464" /><circle
           id="circle4155"
           r="8.8280001"
           cy="79.447998"
           cx="52.966"
           style="fill:#ffe182" /><circle
           id="circle4157"
           r="8.8280001"
           cy="79.447998"
           cx="79.447998"
           style="fill:#a5d76e" /><g
           id="g4159"><path
             id="path4161"
             d="m 123.586,88.276 -8.828,0 c -4.875,0 -8.828,-3.953 -8.828,-8.828 l 0,0 c 0,-4.875 3.953,-8.828 8.828,-8.828 l 8.828,0 c 4.875,0 8.828,3.953 8.828,8.828 l 0,0 c 0,4.875 -3.953,8.828 -8.828,8.828 z"
             style="fill:#eff2fa"
             inkscape:connector-curvature="0" /><path
             id="path4163"
             d="m 158.897,88.276 -8.828,0 c -4.875,0 -8.828,-3.953 -8.828,-8.828 l 0,0 c 0,-4.875 3.953,-8.828 8.828,-8.828 l 8.828,0 c 4.875,0 8.828,3.953 8.828,8.828 l 0,0 c -0.001,4.875 -3.953,8.828 -8.828,8.828 z"
             style="fill:#eff2fa"
             inkscape:connector-curvature="0" /><path
             id="path4165"
             d="m 450.207,88.276 -8.828,0 c -4.875,0 -8.828,-3.953 -8.828,-8.828 l 0,0 c 0,-4.875 3.953,-8.828 8.828,-8.828 l 8.828,0 c 4.875,0 8.828,3.953 8.828,8.828 l 0,0 c -0.001,4.875 -3.953,8.828 -8.828,8.828 z"
             style="fill:#eff2fa"
             inkscape:connector-curvature="0" /><path
             id="path4167"
             d="m 485.517,88.276 -8.828,0 c -4.875,0 -8.828,-3.953 -8.828,-8.828 l 0,0 c 0,-4.875 3.953,-8.828 8.828,-8.828 l 8.828,0 c 4.875,0 8.828,3.953 8.828,8.828 l 0,0 c 0,4.875 -3.953,8.828 -8.828,8.828 z"
             style="fill:#eff2fa"
             inkscape:connector-curvature="0" /><path
             id="path4169"
             d="m 406.069,88.276 -211.862,0 c -4.875,0 -8.828,-3.953 -8.828,-8.828 l 0,0 c 0,-4.875 3.953,-8.828 8.828,-8.828 l 211.862,0 c 4.875,0 8.828,3.953 8.828,8.828 l 0,0 c 0,4.875 -3.953,8.828 -8.828,8.828 z"
             style="fill:#eff2fa"
             inkscape:connector-curvature="0" /></g><path
           id="path4171"
           d="m 379.586,353.103 52.966,0 C 432.552,255.749 353.35,176.551 256,176.551 l 0,52.966 c 68.147,0 123.586,55.44 123.586,123.586 z"
           style="fill:#ffb473"
           inkscape:connector-curvature="0" /><path
           id="path4173"
           d="m 132.414,353.103 -52.966,0 C 79.448,255.749 158.65,176.551 256,176.551 l 0,52.966 c -68.147,0 -123.586,55.44 -123.586,123.586 z"
           style="fill:#ffe182"
           inkscape:connector-curvature="0" /><path
           id="path4175"
           d="m 79.448,353.103 52.966,0 c 0,-34.073 13.86,-64.97 36.238,-87.348 l -37.434,-37.434 c -31.969,31.969 -51.77,76.106 -51.77,124.782 z"
           style="fill:#c3e678"
           inkscape:connector-curvature="0" /><g
           id="g4177"><path
             id="path4179"
             d="m 343.348,265.756 c 22.378,22.378 36.238,53.274 36.238,87.348 l 52.966,0 c 0,-48.676 -19.8,-92.813 -51.769,-124.782 l -37.435,37.434 z"
             style="fill:#ff6464"
             inkscape:connector-curvature="0" /><path
             id="path4181"
             d="m 238.345,379.586 c -2.259,0 -4.518,-0.862 -6.241,-2.586 -3.448,-3.448 -3.448,-9.035 0,-12.483 L 382.173,214.448 c 3.448,-3.448 9.035,-3.448 12.483,0 3.448,3.448 3.448,9.035 0,12.483 L 244.587,377 c -1.725,1.724 -3.983,2.586 -6.242,2.586 z"
             style="fill:#ff6464"
             inkscape:connector-curvature="0" /></g><circle
           id="circle4183"
           r="17.655001"
           cy="353.103"
           cx="256"
           style="fill:#5b5d6e" /><g
           id="g4185" /><g
           id="g4187" /><g
           id="g4189" /><g
           id="g4191" /><g
           id="g4193" /><g
           id="g4195" /><g
           id="g4197" /><g
           id="g4199" /><g
           id="g4201" /><g
           id="g4203" /><g
           id="g4205" /><g
           id="g4207" /><g
           id="g4209" /><g
           id="g4211" /><g
           id="g4213" /></g></g></g></svg>