<svg xmlns="http://www.w3.org/2000/svg" width="171" height="171" viewBox="0 0 171 171"><path fill="#0B2848" d="M85.854.771c46.9 0 85 38.1 85 85s-38.1 85-85 85-85-38.1-85-85 38.1-85 85-85z"/><circle fill="#D45B3E" cx="85.604" cy="86.021" r="74"/><path fill="#C45237" d="M85.619 12.021l-.021.002v147.998h.021c40.86 0 73.984-33.131 73.984-74s-33.123-74-73.984-74z"/><path opacity=".2" fill="none" stroke="#FFF" enable-background="new" d="M85.854 1.271c46.624 0 84.5 37.876 84.5 84.5s-37.876 84.5-84.5 84.5-84.5-37.876-84.5-84.5 37.876-84.5 84.5-84.5z"/><defs><filter id="a" filterUnits="userSpaceOnUse" x="48.208" y="48.573" width="115.396" height="114.448"><feColorMatrix values="1 0 0 0 0 0 1 0 0 0 0 0 1 0 0 0 0 0 1 0"/></filter></defs><mask maskUnits="userSpaceOnUse" x="48.208" y="48.573" width="115.396" height="114.448" id="b"><g filter="url(#a)"><circle fill="#D45B3E" cx="85.604" cy="86.021" r="74"/><path fill="#C45237" d="M85.619 12.021l-.021.002v147.998h.021c40.86 0 73.984-33.131 73.984-74s-33.123-74-73.984-74z"/></g></mask><path mask="url(#b)" fill="#B14731" d="M48.208 107.847l56.146 55.174 20.5-10 23.25-20 14.75-22.5.75-13.5-42.641-44.984-31.888.058-3.985-3.521-34.235 59.698-2.647-.425z"/><path fill="#324D5B" d="M106.64 119.537L88.3 101.255l1.874-1.875c.938-.937.938-2.402 0-3.28a2.312 2.312 0 0 0-2.812-.352V50.865a2.35 2.35 0 0 0-2.344-2.344 2.35 2.35 0 0 0-2.343 2.344v44.824a2.312 2.312 0 0 0-2.813.351c-.938.938-.938 2.403 0 3.282l1.875 1.875-18.281 18.28c-.938.938-.938 2.403 0 3.282.937.938 2.402.938 3.28 0l15.938-15.879v10.782a2.35 2.35 0 0 0 2.344 2.343 2.35 2.35 0 0 0 2.344-2.343V106.88l15.937 15.938c.938.937 2.403.937 3.282 0 .937-.879.937-2.344.058-3.281z"/><path fill="#F3F3F3" d="M120.76 56.724v48.047H50.448V56.724h70.312z"/><path fill="#F4B459" d="M120.76 104.77H50.448a2.35 2.35 0 0 0-2.344 2.345 2.35 2.35 0 0 0 2.344 2.343h70.312a2.35 2.35 0 0 0 2.344-2.343 2.35 2.35 0 0 0-2.344-2.344zM50.448 56.725h70.312c1.29 0 2.344-1.055 2.344-2.344s-1.054-2.344-2.344-2.344H50.448c-1.29 0-2.344 1.055-2.344 2.344s1.055 2.344 2.344 2.344z"/><path fill="#476574" d="M75.057 68.443c-7.793 0-14.062 6.27-14.062 14.062s6.27 14.063 14.062 14.063 14.063-6.27 14.063-14.063H75.057V68.443z"/><path fill="#E2574C" d="M77.401 66.1a14.029 14.029 0 0 1 14.063 14.062c0-.059-14.063 0-14.063 0s.059-14.063 0-14.063z"/><path fill="#3DB39E" d="M101.425 86.021c1.64 0 2.93 1.29 2.93 2.93s-1.29 2.93-2.93 2.93a2.902 2.902 0 0 1-2.93-2.93 2.938 2.938 0 0 1 2.93-2.93z"/><path fill="#D1D6D8" d="M98.495 75.474v2.344h12.89v-2.344h-12.89zm9.375 3.516h-9.375v2.343h9.375V78.99zm-9.375 17.578h12.89v-2.344h-12.89v2.344z"/><path fill="#E2574C" d="M101.425 67.271c1.64 0 2.93 1.29 2.93 2.93 0 1.64-1.29 2.93-2.93 2.93a2.902 2.902 0 0 1-2.93-2.93 2.938 2.938 0 0 1 2.93-2.93z"/><path fill="#EFC75E" d="M50.448 109.458h70.312a2.35 2.35 0 0 0 2.344-2.343h-75a2.35 2.35 0 0 0 2.344 2.343zm70.312-57.421H50.448a2.35 2.35 0 0 0-2.344 2.343h75a2.35 2.35 0 0 0-2.344-2.343z"/></svg>