<svg xmlns="http://www.w3.org/2000/svg" width="171" height="171" viewBox="0 0 171 171"><path fill="#0B2848" d="M85.828.5c46.9 0 85 38.1 85 85s-38.1 85-85 85-85-38.1-85-85 38.1-85 85-85z"/><circle fill="#D45B3E" cx="85.578" cy="85.75" r="74"/><path fill="#C45237" d="M85.593 11.75l-.021.002V159.75h.021c40.86 0 73.984-33.131 73.984-74s-33.123-74-73.984-74z"/><path opacity=".2" fill="none" stroke="#FFF" enable-background="new" d="M85.828 1c46.624 0 84.5 37.876 84.5 84.5s-37.876 84.5-84.5 84.5-84.5-37.876-84.5-84.5S39.204 1 85.828 1z"/><defs><filter id="a" filterUnits="userSpaceOnUse" x="47.588" y="49.402" width="115.721" height="115.64"><feColorMatrix values="1 0 0 0 0 0 1 0 0 0 0 0 1 0 0 0 0 0 1 0"/></filter></defs><mask maskUnits="userSpaceOnUse" x="47.588" y="49.402" width="115.721" height="115.64" id="b"><g filter="url(#a)"><circle fill="#D45B3E" cx="85.578" cy="85.75" r="74"/><path fill="#C45237" d="M85.593 11.75l-.021.002V159.75h.021c40.86 0 73.984-33.131 73.984-74s-33.123-74-73.984-74z"/></g></mask><path mask="url(#b)" fill="#B14731" d="M47.588 117.908l46.471 47.134 36.5-12.75 28.75-35.5 4-19-.25-3.5-45.133-44.89-70.338 68.506z"/><path fill="#61B4E4" d="M93.184 61.824c0 3.157 2.57 5.74 5.713 5.74h18.968c3.142 0 5.713-2.583 5.713-5.74v-6.706c0-3.157-2.57-5.74-5.713-5.74H98.897c-3.142 0-5.713 2.583-5.713 5.74v6.706z"/><path fill="#005CB9" d="M93.184 80.01c0 3.157 2.57 5.74 5.713 5.74h18.968c3.142 0 5.713-2.583 5.713-5.74v-6.706c0-3.157-2.57-5.74-5.713-5.74H98.897c-3.142 0-5.713 2.583-5.713 5.74v6.706z"/><path fill="#FEE050" d="M93.184 98.196c0 3.157 2.57 5.74 5.713 5.74h18.968c3.142 0 5.713-2.583 5.713-5.74V91.49c0-3.157-2.57-5.74-5.713-5.74H98.897c-3.142 0-5.713 2.583-5.713 5.74v6.706z"/><path fill="#AF8400" d="M93.184 116.382c0 3.157 2.57 5.74 5.713 5.74h18.968c3.142 0 5.713-2.583 5.713-5.74v-6.706c0-3.157-2.57-5.74-5.713-5.74H98.897c-3.142 0-5.713 2.583-5.713 5.74v6.706z"/><path fill="#E8E8E8" d="M106.91 54.168c0-3.255-2.65-5.918-5.89-5.918H53.469c-3.24 0-5.89 2.663-5.89 5.918v63.164c0 3.255 2.65 5.918 5.89 5.918h47.55c3.24 0 5.891-2.663 5.891-5.918V54.168z"/><path fill="#7D868C" d="M55.333 100.203h43.822v3.64H55.333z"/><path fill="#C3C6C8" d="M61.572 92.833h31.345a16.122 16.122 0 0 0-7.18-10.29 12.675 12.675 0 0 0 4.129-9.381c0-7.004-5.651-12.681-12.622-12.681-6.97 0-12.622 5.677-12.622 12.68 0 3.718 1.592 7.062 4.129 9.381a16.121 16.121 0 0 0-7.18 10.291z"/><path fill="#7D868C" d="M60.85 107.225h32.788v3.64H60.85z"/></svg>