<svg xmlns="http://www.w3.org/2000/svg" width="171" height="171" viewBox="0 0 171 171"><path fill="#0B2848" d="M85.519.708c46.9 0 85 38.1 85 85s-38.1 85-85 85-85-38.1-85-85 38.1-85 85-85z"/><circle fill="#D45B3E" cx="85.269" cy="85.958" r="74"/><path fill="#C45237" d="M85.284 11.958l-.021.002v147.998h.021c40.86 0 73.984-33.131 73.984-74s-33.123-74-73.984-74z"/><path opacity=".2" fill="none" stroke="#FFF" enable-background="new" d="M85.519 1.208c46.624 0 84.5 37.876 84.5 84.5s-37.876 84.5-84.5 84.5-84.5-37.876-84.5-84.5 37.876-84.5 84.5-84.5z"/><defs><filter id="a" filterUnits="userSpaceOnUse" x="42.283" y="56.99" width="120.486" height="107.094"><feColorMatrix values="1 0 0 0 0 0 1 0 0 0 0 0 1 0 0 0 0 0 1 0"/></filter></defs><mask maskUnits="userSpaceOnUse" x="42.283" y="56.99" width="120.486" height="107.094" id="b"><g filter="url(#a)"><circle fill="#D45B3E" cx="85.269" cy="85.958" r="74"/><path fill="#C45237" d="M85.284 11.958l-.021.002v147.998h.021c40.86 0 73.984-33.131 73.984-74s-33.123-74-73.984-74z"/></g></mask><path mask="url(#b)" fill="#B14731" d="M42.283 112.039l56.861 52.044 25.125-9.625 27.75-25 9.75-20.5 1-9L119.3 56.99l-61.781 53.969-15.236 1.08z"/><path fill="#38454F" d="M73.407 107.522v2.975H97.13v-2.975h25.207v-47.59a2.97 2.97 0 0 0-2.965-2.974H51.166a2.97 2.97 0 0 0-2.966 2.974v47.59h25.207z"/><path fill="#B0B6BB" d="M97.131 107.522v2.975H73.407v-2.975H42.269v4.462a2.97 2.97 0 0 0 2.966 2.974h80.068a2.97 2.97 0 0 0 2.966-2.974v-4.462H97.13z"/><path fill="#546A79" d="M51.166 104.548h68.206V59.932H51.166z"/><path fill="#ECBA16" d="M80.82 73.317h8.897v-8.923h-8.896z"/><g fill="#25AE88"><path d="M83.786 88.189h2.966V73.317h-2.966z"/><path d="M108.993 89.266h-2.966v-5.539H64.51v5.539h-2.965v-8.513h47.448z"/></g><path d="M68.959 94.138c0 3.285-2.656 5.948-5.931 5.948s-5.931-2.663-5.931-5.948 2.655-5.95 5.93-5.95 5.932 2.664 5.932 5.95m22.241 0c0 3.285-2.656 5.948-5.931 5.948s-5.931-2.663-5.931-5.948 2.656-5.95 5.93-5.95 5.932 2.664 5.932 5.95m22.241 0c0 3.285-2.655 5.948-5.93 5.948-3.276 0-5.932-2.663-5.932-5.948s2.656-5.95 5.931-5.95c3.276 0 5.931 2.664 5.931 5.95" fill="#ECBA16"/></svg>