<svg xmlns="http://www.w3.org/2000/svg" width="171" height="171" viewBox="0 0 171 171"><path fill="#0B2848" d="M85.5.5c46.9 0 85 38.1 85 85s-38.1 85-85 85-85-38.1-85-85 38.1-85 85-85z"/><circle fill="#D45B3E" cx="85.25" cy="85.75" r="74"/><path fill="#C45237" d="M85.265 11.75l-.021.002V159.75h.021c40.86 0 73.984-33.131 73.984-74s-33.123-74-73.984-74z"/><path opacity=".2" fill="none" stroke="#FFF" enable-background="new" d="M85.5 1C132.124 1 170 38.876 170 85.5S132.124 170 85.5 170 1 132.124 1 85.5 38.876 1 85.5 1z"/><defs><filter id="a" filterUnits="userSpaceOnUse" x="47.749" y="48.251" width="116.923" height="118.374"><feColorMatrix values="1 0 0 0 0 0 1 0 0 0 0 0 1 0 0 0 0 0 1 0"/></filter></defs><mask maskUnits="userSpaceOnUse" x="47.749" y="48.251" width="116.923" height="118.374" id="b"><g filter="url(#a)"><circle fill="#D45B3E" cx="85.25" cy="85.75" r="74"/><path fill="#C45237" d="M85.265 11.75l-.021.002V159.75h.021c40.86 0 73.984-33.131 73.984-74s-33.123-74-73.984-74z"/></g></mask><path mask="url(#b)" fill="#B14731" d="M47.749 119.698l46.298 46.927 33.375-15.875 28.25-27 5-14.5 4-16-45.573-44.999-71.35 71.447z"/><path fill="#EFEFEF" d="M51.266 48.25h67.968a3.526 3.526 0 0 1 3.516 3.516v67.968a3.526 3.526 0 0 1-3.516 3.516H51.266a3.526 3.526 0 0 1-3.516-3.516V51.766a3.526 3.526 0 0 1 3.516-3.516z"/><path fill="#2B414D" d="M54.781 62.312h60.938a2.35 2.35 0 0 1 2.343 2.344v51.563a2.35 2.35 0 0 1-2.343 2.343H54.78a2.35 2.35 0 0 1-2.344-2.343V64.656a2.35 2.35 0 0 1 2.344-2.344z"/><path fill="#E4E7E7" d="M64.156 72.86h33.985c.644 0 1.171.527 1.171 1.171v1.172c0 .645-.527 1.172-1.171 1.172H64.156a1.175 1.175 0 0 1-1.172-1.172v-1.172c0-.644.528-1.172 1.172-1.172z"/><path fill="#E35E53" d="M78.219 81.062H64.156c-.644 0-1.172.528-1.172 1.172v1.172c0 .645.528 1.172 1.172 1.172H78.22c.644 0 1.172-.527 1.172-1.172v-1.172c0-.644-.528-1.172-1.172-1.172zM74.703 97.47H64.156c-.644 0-1.172.527-1.172 1.172v1.171c0 .645.528 1.172 1.172 1.172h10.547c.644 0 1.172-.527 1.172-1.172v-1.171c0-.645-.527-1.172-1.172-1.172zm31.64 0h-7.03c-.645 0-1.173.527-1.173 1.172v1.171c0 .645.528 1.172 1.172 1.172h7.032c.644 0 1.171-.527 1.171-1.172v-1.171c0-.645-.527-1.172-1.171-1.172z"/><path fill="#26A6D1" d="M106.344 81.062H85.25c-.645 0-1.172.528-1.172 1.172v1.172c0 .645.527 1.172 1.172 1.172h21.094c.644 0 1.172-.527 1.172-1.172v-1.172c0-.644-.528-1.172-1.172-1.172zm0 24.61H64.156c-.644 0-1.172.527-1.172 1.172v1.172c0 .644.528 1.171 1.172 1.171h42.188c.644 0 1.171-.527 1.171-1.171v-1.172c0-.645-.527-1.172-1.171-1.172z"/><path fill="#49B8A4" d="M92.281 89.266H64.156c-.644 0-1.172.527-1.172 1.171v1.172c0 .645.528 1.172 1.172 1.172h28.125c.645 0 1.172-.527 1.172-1.172v-1.172c0-.644-.527-1.171-1.172-1.171zm0 8.203H81.734c-.644 0-1.172.527-1.172 1.172v1.171c0 .645.528 1.172 1.172 1.172h10.547c.645 0 1.172-.527 1.172-1.172v-1.171c0-.645-.527-1.172-1.172-1.172z"/><path fill="#BFC3C5" d="M54.781 52.938c-1.289 0-2.344 1.054-2.344 2.343s1.055 2.344 2.344 2.344 2.344-1.055 2.344-2.344-1.055-2.343-2.344-2.343zm7.031 0c-1.289 0-2.343 1.054-2.343 2.343s1.054 2.344 2.343 2.344 2.344-1.055 2.344-2.344-1.054-2.343-2.344-2.343zm7.032 0c-1.29 0-2.344 1.054-2.344 2.343s1.055 2.344 2.344 2.344 2.343-1.055 2.343-2.344-1.054-2.343-2.343-2.343z"/></svg>