<svg xmlns="http://www.w3.org/2000/svg" width="171" height="171" viewBox="0 0 171 171"><defs><filter height="113.156" width="131.25" y="52.038" x="33.234" filterUnits="userSpaceOnUse" id="a"><feColorMatrix values="1 0 0 0 0 0 1 0 0 0 0 0 1 0 0 0 0 0 1 0"/></filter><mask id="b" height="113.156" width="131.25" y="52.038" x="33.234" maskUnits="userSpaceOnUse"><g filter="url(#a)"><circle r="74" cy="85.5" cx="85.5" fill="#177898"/><path d="M85.515 11.5l-.021.002V159.5h.021c40.86 0 73.984-33.131 73.984-74s-33.123-74-73.984-74z" fill="#0F7289"/></g></mask></defs><circle r="74" cy="85.5" cx="85.5" fill="#d45b3e"/><path d="M85.515 11.5l-.021.002V159.5h.021c40.86 0 73.984-33.131 73.984-74s-33.123-74-73.984-74z" fill="#c45237"/><path enable-background="new" d="M85.5 1C132.124 1 170 38.876 170 85.5S132.124 170 85.5 170 1 132.124 1 85.5 38.876 1 85.5 1z" opacity=".2" fill="none" stroke="#fff"/><path mask="url(#b)" d="M33.234 107.944l57.5 57.25 37.25-7.25 29.5-31.5 6.5-32 .5-5-38.688-37.406-78.813 59.406-13.749-3.5z" fill="#b14731"/><path d="M131.341 57.759v50.134H39.658V57.759c0-3.18 2.59-5.76 5.788-5.76h80.107c3.196 0 5.788 2.58 5.788 5.76" fill="gray"/><path fill="#fff" d="M45.998 101.584V58.308H125v43.276H45.998"/><path d="M107.081 66.528l-1.872 2.058 7.968 7.173H86.94l7.967-7.173-1.872-2.058-11.268 10.143 5.197 21.294h26.189l5.197-21.294-11.269-10.143m-8.418 15.69H92.89l-.497-3.684h6.27v3.685m2.79-3.685h6.27l-.497 3.685h-5.773v-3.685M90.075 82.22h-4.083l-.9-3.685h4.486l.497 3.685m-3.406 2.776h3.78l.526 3.886h-3.357l-.949-3.886m6.596 0h5.398v3.886h-4.874l-.524-3.886m8.188 0h5.398l-.524 3.886h-4.874v-3.886m8.213 0h3.78l-.947 3.886h-3.357l.524-3.886m.375-2.776l.497-3.685h4.485l-.899 3.685h-4.083M89.157 95.19l-.862-3.532h3.054l.477 3.532h-2.669m5.007-3.532h4.499v3.532h-4.022l-.477-3.532m7.289 3.532v-3.532h4.499l-.477 3.532h-4.022m6.837 0l.477-3.532h3.054l-.862 3.532h-2.67" fill="#29abe2"/><path fill="#ccc" d="M50.594 63.772h27.14v6.056h-27.14z"/><path fill="#e6e6e6" d="M50.594 72.604h27.14v24.903h-27.14z"/><path d="M125.553 52H75.988l1.932 6.308H125v43.276H91.176l1.792 5.85h38.373V57.759c0-3.18-2.592-5.76-5.788-5.76" fill="#a9a9a9"/><path d="M91.35 91.657h-3.055l.627 2.568.295.964h2.61l-.478-3.532m7.314 0h-4.499l.477 3.532h4.022v-3.532m7.289 0h-4.499v3.532h4.022l.477-3.532m5.87 0h-3.055l-.477 3.532h2.669l.862-3.532M90.45 84.995h-3.78l.948 3.886h3.357l-.525-3.886m8.213 0h-5.398l.525 3.886h4.873v-3.886m8.188 0h-5.398v3.886h4.874l.524-3.886m6.596 0h-3.78l-.525 3.886h3.357l.948-3.886m-23.87-6.46h-4.484l.899 3.684h4.083l-.497-3.685m9.085 0h-6.27l.497 3.685h5.773v-3.685m9.06 0h-6.27v3.685h5.773l.498-3.685m7.3 0h-4.485l-.498 3.685h4.084l.899-3.685M125 58.308H77.92l5.24 17.109 9.875-8.889 1.872 2.058-7.968 7.173h26.238l-7.968-7.173 1.872-2.058 11.268 10.143-5.196 21.294H90.067l1.109 3.619H125V58.308" fill="#fff"/><path d="M94.641 95.19l-.477-3.533h4.5v3.532H94.64m6.812 0v-3.532h4.499l-.477 3.532h-4.022m6.837 0l.477-3.532h3.054l-.862 3.532h-2.67m-20.671-6.308l-.949-3.886h3.78l.526 3.886h-3.357m6.172 0l-.525-3.886h5.398v3.886H93.79m7.663 0v-3.886h5.398l-.524 3.886h-4.874m7.689 0l.524-3.886h3.78l-.947 3.886h-3.357m-23.15-6.662l-.9-3.685h4.486l.497 3.685h-4.083m6.898 0l-.497-3.685h6.27v3.685H92.89m8.563 0v-3.685h6.27l-.497 3.685h-5.773m8.588 0l.497-3.685h4.485l-.899 3.685h-4.083m-2.96-15.69l-1.872 2.057 7.968 7.173H86.94l7.967-7.173-1.872-2.058-9.874 8.889 5.761 18.808-.627-2.568h3.055l.477 3.533h-2.61l.851 2.776h23.085l5.197-21.294-11.269-10.144" fill="#6ec6eb"/><path d="M138 107.434c0 3.972-3.237 7.192-7.23 7.192H40.228a7.222 7.222 0 0 1-5.11-2.107A7.144 7.144 0 0 1 33 107.434h105" fill="#fc7a51"/><path fill="#f9de58" d="M42.257 92.838H63.53v25.068H42.257z"/><path fill="#e0bf20" d="M57.95 92.838h5.58v24.983h-5.58zm-15.693 0h2.79v24.983h-2.79z"/><path fill="#f9de58" d="M51.198 114.625H72.47V119H51.198z"/><path fill="#e0bf20" d="M66.891 114.625h5.58v4.36h-5.58zm-15.693 0h2.79v4.36h-2.79z"/><path d="M138 107.434H85.942l2.204 7.192h42.624c3.992 0 7.228-3.22 7.228-7.192" fill="#fda589"/></svg>