<svg xmlns="http://www.w3.org/2000/svg" width="171" height="171" viewBox="0 0 171 171"><defs><filter height="120.379" width="119.25" y="43.496" x="45.25" filterUnits="userSpaceOnUse" id="a"><feColorMatrix values="1 0 0 0 0 0 1 0 0 0 0 0 1 0 0 0 0 0 1 0"/></filter><mask id="b" height="120.379" width="119.25" y="43.496" x="45.25" maskUnits="userSpaceOnUse"><g filter="url(#a)"><circle r="74" cy="85.5" cx="85.5" fill="#177898"/><path d="M85.515 11.5l-.021.002V159.5h.021c40.86 0 73.984-33.131 73.984-74s-33.123-74-73.984-74z" fill="#0F7289"/></g></mask></defs><circle r="74" cy="85.5" cx="85.5" fill="#d45b3e"/><path d="M85.515 11.5l-.021.002V159.5h.021c40.86 0 73.984-33.131 73.984-74s-33.123-74-73.984-74z" fill="#c45237"/><path enable-background="new" d="M85.5 1C132.124 1 170 38.876 170 85.5S132.124 170 85.5 170 1 132.124 1 85.5 38.876 1 85.5 1z" opacity=".2" fill="none" stroke="#fff"/><path mask="url(#b)" d="M45.25 113.781l49.625 50.094 28.375-7.125 27-22.5 13-33.25 1-12.5.25-3.75-43.847-41.254-75.403 70.285z" fill="#b14731"/><path fill="#2dc9af" d="M95.142 125.025H75.86v-8.98h19.282v8.98"/><path d="M125.759 58.633v54.938a3.944 3.944 0 0 1-3.942 3.948H49.185a3.946 3.946 0 0 1-3.944-3.948V58.633h80.518" fill="#2be0c6"/><path fill="#fff" d="M50.72 112.035V64.116h69.562v47.919H50.72"/><path d="M109.637 127.5H61.365a3.946 3.946 0 0 1 3.944-3.948h40.384a3.946 3.946 0 0 1 3.944 3.948" fill="#2be0c6"/><path d="M87.992 90.225a10.567 10.567 0 0 0-9.54-5.941H72.5a6.344 6.344 0 0 0-2.351-3.559 1.695 1.695 0 0 1-.68-1.469 1.707 1.707 0 0 1 1.576-1.576c.474-.03.924.132 1.267.455.343.323.532.76.532 1.232h3.068a4.782 4.782 0 0 0-1.5-3.47 4.714 4.714 0 0 0-3.557-1.282 4.76 4.76 0 0 0-4.447 4.451 4.756 4.756 0 0 0 1.91 4.122c.39.29.702.669.924 1.096H63.86a10.567 10.567 0 0 0-9.54 5.941 4.28 4.28 0 0 0 .206 4.173 4.271 4.271 0 0 0 3.649 2.03h25.963a4.271 4.271 0 0 0 3.649-2.03 4.28 4.28 0 0 0 .206-4.173m-2.81 2.551c-.11.175-.428.581-1.045.581H58.174c-.617 0-.936-.406-1.045-.58a1.216 1.216 0 0 1-.059-1.195 7.52 7.52 0 0 1 6.789-4.228h14.592a7.519 7.519 0 0 1 6.789 4.228c.273.554.05 1.02-.059 1.194" fill="#999"/><path fill="#f9de58" d="M81.836 108.603H60.474V91.826h21.362v16.777"/><path fill="#e6e6e6" d="M115.761 97.672h-22.13v5.922h22.13v-5.922m0-8.292h-22.13v5.92h22.13v-5.92m0-8.279h-22.13v5.922h22.13v-5.922"/><path d="M120.282 79.111v32.924h-32.95l1.67 5.484h32.815a3.944 3.944 0 0 0 3.942-3.948V79.11a11.415 11.415 0 0 1-5.477 0" fill="#6fead8"/><path d="M79.856 87.483l1.322 4.343h.658v1.531h2.3c.617 0 .936-.406 1.045-.58.109-.175.332-.641.059-1.195a7.514 7.514 0 0 0-5.384-4.099m13.775 16.11v-5.921h22.13v5.922h-22.13m0-8.293v-5.922h22.13v5.922h-22.13m0-8.278v-5.922h22.13v5.922h-22.13m21.885-10.406l-.003.003a11.355 11.355 0 0 1-7.503 2.824c-2.677 0-5.355-.942-7.501-2.824l-.002-.003-.002.003a11.357 11.357 0 0 1-7.503 2.822c-2.677 0-5.355-.94-7.502-2.822l-.002-.003a11.355 11.355 0 0 1-8.095 2.81l1.482 4.865c3.905.155 7.367 2.399 9.107 5.933a4.28 4.28 0 0 1-.206 4.173 4.271 4.271 0 0 1-3.65 2.03H82.58l4.752 15.607h32.95V79.11a11.344 11.344 0 0 1-4.764-2.491l-.002-.003" fill="#fff"/><path d="M78.885 84.293l.971 3.19a7.513 7.513 0 0 1 5.384 4.1 1.21 1.21 0 0 1-.059 1.193 1.212 1.212 0 0 1-1.044.581h-2.3v.63l.743 2.44h1.557a4.271 4.271 0 0 0 3.649-2.029 4.28 4.28 0 0 0 .206-4.173c-1.74-3.534-5.202-5.778-9.107-5.932" fill="#bababa"/><path fill="#fbe98e" d="M81.836 91.826h-.658l.658 2.16v-2.16"/><path fill="#eee" d="M115.761 97.672h-22.13v5.922h22.13v-5.922m0-8.292h-22.13v5.92h22.13v-5.92m0-8.279h-22.13v5.922h22.13v-5.922"/><path d="M105.693 123.552H85.228l1.203 3.948h23.206a3.946 3.946 0 0 0-3.944-3.948" fill="#6fead8"/><path d="M71.072 58.633h-25.83V79.11a11.397 11.397 0 0 0 5.477-.002v-14.99h22.022l-1.67-5.484" fill="#2ea897"/><path d="M72.741 64.116H50.72v14.991a11.358 11.358 0 0 0 4.76-2.49h.003l.002.003a11.357 11.357 0 0 0 7.502 2.822c1.159 0 2.317-.176 3.433-.528a4.76 4.76 0 0 1 4.741-4.308c1.215 0 2.36.452 3.252 1.291a4.784 4.784 0 0 1 1.498 3.353c.494.092.992.15 1.493.176l-4.663-15.31" fill="#bdbdbd"/><path d="M71.161 74.606a4.76 4.76 0 0 0-4.741 4.308 11.351 11.351 0 0 0 4.069-2.294l.002-.002a11.343 11.343 0 0 0 5.42 2.632 4.782 4.782 0 0 0-1.499-3.352 4.705 4.705 0 0 0-3.25-1.292" fill="#787878"/><path d="M125.759 58.633H71.072l1.67 5.483h47.54v14.995a11.403 11.403 0 0 0 5.477 0V58.633" fill="#5cafa3"/><path d="M120.282 64.116h-47.54l4.661 15.31a11.355 11.355 0 0 0 8.095-2.809l.002.003a11.357 11.357 0 0 0 7.503 2.823c2.677 0 5.355-.941 7.502-2.823l.002-.002.002.002a11.349 11.349 0 0 0 7.502 2.824c2.677 0 5.355-.941 7.503-2.824l.002-.002.002.002a11.341 11.341 0 0 0 4.764 2.491V64.116" fill="#bdbdbd"/><path d="M129.92 67.62l-2.086-11.4-1.5-8.2a5.508 5.508 0 0 0-5.42-4.52H50.085a5.512 5.512 0 0 0-5.419 4.52l-1.5 8.2-2.086 11.4c-.434 2.371.918 4.72 3.196 5.503a11.374 11.374 0 0 0 11.203-2.207h.002l.003.002a11.381 11.381 0 0 0 15.004 0l.002-.002a11.38 11.38 0 0 0 15.007 0l.002.002a11.381 11.381 0 0 0 15.005 0l.002-.002.002.002a11.376 11.376 0 0 0 15.004 0l.003-.002.002.002a11.378 11.378 0 0 0 11.205 2.207c2.278-.783 3.63-3.132 3.196-5.504z" fill="#e6e6e6"/><path d="M115.518 70.917l-.002-.002-.003.002a11.376 11.376 0 0 1-15.004 0l-.896-14.696-.776-12.721h13.337l1.552 12.72 1.792 14.697zM85.5 43.5v27.417l-.002-.002a11.38 11.38 0 0 1-15.007 0h-.002l.898-14.694.776-12.721H85.5zm-26.674 0l-1.554 12.72-1.792 14.695a11.374 11.374 0 0 1-11.203 2.206c-2.278-.783-3.63-3.13-3.196-5.502l2.083-11.398 1.501-8.2a5.512 5.512 0 0 1 5.419-4.521h8.742z" fill="#fc7a51"/><path fill="#e0bf20" d="M60.474 91.826h21.362v3.066H60.474z"/></svg>