<?xml version="1.0" encoding="UTF-8" standalone="no"?>
<!-- Generator: Adobe Illustrator 17.0.0, SVG Export Plug-In . SVG Version: 6.00 Build 0)  -->

<svg
   xmlns:dc="http://purl.org/dc/elements/1.1/"
   xmlns:cc="http://creativecommons.org/ns#"
   xmlns:rdf="http://www.w3.org/1999/02/22-rdf-syntax-ns#"
   xmlns:svg="http://www.w3.org/2000/svg"
   xmlns="http://www.w3.org/2000/svg"
   xmlns:sodipodi="http://sodipodi.sourceforge.net/DTD/sodipodi-0.dtd"
   xmlns:inkscape="http://www.inkscape.org/namespaces/inkscape"
   version="1.1"
   id="Слой_1"
   sodipodi:docname="Интернет-магазин.svg"
   inkscape:version="0.91 r13725"
   x="0px"
   y="0px"
   width="171px"
   height="171px"
   viewBox="0 0 171 171"
   enable-background="new 0 0 171 171"
   xml:space="preserve"><metadata
     id="metadata66"><rdf:RDF><cc:Work
         rdf:about=""><dc:format>image/svg+xml</dc:format><dc:type
           rdf:resource="http://purl.org/dc/dcmitype/StillImage" /><dc:title></dc:title></cc:Work></rdf:RDF></metadata><defs
     id="defs64"><defs
       id="defs10"><filter
         height="120.379"
         width="119.25"
         y="43.496"
         x="45.25"
         filterUnits="userSpaceOnUse"
         id="Adobe_OpacityMaskFilter"><feColorMatrix
           id="feColorMatrix13"
           values="1 0 0 0 0  0 1 0 0 0  0 0 1 0 0  0 0 0 1 0"
           type="matrix" /></filter></defs><mask
       id="mask4418"
       height="120.379"
       width="119.25"
       y="43.496"
       x="45.25"
       maskUnits="userSpaceOnUse"><g
         filter="url(#Adobe_OpacityMaskFilter)"
         id="g4420"><circle
           r="74"
           cy="85.5"
           cx="85.5"
           fill="#177898"
           id="circle4422" /><path
           d="M85.515,11.5c-0.007,0.001-0.014,0.001-0.021,0.002     V159.5c0.007,0,0.014,0,0.021,0c40.86,0,73.984-33.131,73.984-74S126.376,11.5,85.515,11.5C85.515,11.5,85.515,11.5,85.515,11.5z     "
           fill="#0F7289"
           inkscape:connector-curvature="0"
           id="path4424" /></g></mask></defs><sodipodi:namedview
     showguides="true"
     inkscape:cy="188.23576"
     inkscape:cx="453.3307"
     inkscape:zoom="0.5"
     showgrid="false"
     guidetolerance="10"
     gridtolerance="10"
     objecttolerance="10"
     borderopacity="1"
     bordercolor="#666666"
     pagecolor="#ffffff"
     id="namedview61"
     inkscape:guide-bbox="true"
     inkscape:current-layer="Слой_1"
     inkscape:window-maximized="1"
     inkscape:window-y="-8"
     inkscape:window-x="-8"
     inkscape:window-height="801"
     inkscape:window-width="1536"
     inkscape:pageshadow="2"
     inkscape:pageopacity="0"><inkscape:grid
       type="xygrid"
       id="grid4289" /></sodipodi:namedview><g
     id="g4253"><g
       id="g4249"><circle
         style="fill:#d45b3e;fill-opacity:1"
         r="74"
         cy="85.5"
         cx="85.5"
         id="circle4411" /><path
         style="fill:#c45237;fill-opacity:1"
         d="m 85.515,11.5 c -0.007,10e-4 -0.014,10e-4 -0.021,0.002 l 0,147.998 c 0.007,0 0.014,0 0.021,0 40.86,0 73.984,-33.131 73.984,-74 0,-40.869 -33.123,-74 -73.984,-74 l 0,0 z"
         inkscape:connector-curvature="0"
         id="path4413" /></g><path
       id="path4271"
       inkscape:connector-curvature="0"
       enable-background="new    "
       d="M 85.5,1 C 132.124,1 170,38.876 170,85.5 170,132.124 132.124,170 85.5,170 38.876,170 1,132.124 1,85.5 1,38.876 38.876,1 85.5,1 Z"
       style="opacity:0.2;fill:none;stroke:#ffffff" /><path
       id="path4410"
       sodipodi:nodetypes="ccccccccc"
       inkscape:connector-curvature="0"
       mask="url(#mask4418)"
       d="m 45.25,113.781 49.625,50.094 28.375,-7.125 27,-22.5 13,-33.25 1,-12.5 0.25,-3.75 -43.847,-41.254 -75.403,70.285 z"
       style="fill:#b14731;fill-opacity:1" /><g
       id="g4365"
       transform="matrix(0.21910773,0,0,0.21932058,40.999956,40.956758)"><g
         id="g4273"><polyline
           id="polyline4275"
           points="247.101,383.313 159.101,383.313 159.101,342.364 247.101,342.364      247.101,383.313    "
           style="fill:#2dc9af" /><path
           id="path4277"
           inkscape:connector-curvature="0"
           d="m 386.837,80.596 0,250.49 c 0,9.94 -8.05,18 -17.99,18 l -331.49,0 c -9.94,0 -18,-8.06 -18,-18 l 0,-250.49 367.48,0"
           style="fill:#2be0c6" /><polyline
           id="polyline4279"
           points="44.36,324.082 44.36,105.597 361.842,105.597 361.842,324.082 44.36,324.082         "
           style="fill:#ffffff" /><path
           id="path4281"
           inkscape:connector-curvature="0"
           d="m 313.257,394.596 -220.31,0 c 0,-4.97 2.02,-9.47 5.27,-12.73 3.26,-3.25 7.76,-5.27 12.73,-5.27 l 184.31,0 c 9.94,0 18,8.059 18,18"
           style="fill:#2be0c6" /><path
           id="path4283"
           inkscape:connector-curvature="0"
           d="m 214.469,224.642 c -8.23,-16.709 -24.915,-27.09 -43.542,-27.09 l -27.163,0 c -1.6,-6.441 -5.362,-12.231 -10.729,-16.226 -2.104,-1.566 -3.262,-4.069 -3.1,-6.697 0.236,-3.795 3.394,-6.953 7.188,-7.188 2.167,-0.135 4.217,0.603 5.782,2.074 1.568,1.474 2.432,3.469 2.432,5.619 l 14,0 c 0,-5.967 -2.494,-11.733 -6.843,-15.821 -4.411,-4.145 -10.176,-6.223 -16.238,-5.846 -10.894,0.677 -19.618,9.401 -20.294,20.294 -0.457,7.367 2.8,14.393 8.713,18.795 1.781,1.325 3.206,3.048 4.222,4.995 l -24.568,0 c -18.626,0 -35.311,10.38 -43.542,27.09 -3.015,6.121 -2.663,13.234 0.941,19.027 3.605,5.793 9.83,9.252 16.653,9.252 l 118.495,0 c 6.823,0 13.048,-3.459 16.653,-9.252 3.603,-5.793 3.955,-12.906 0.94,-19.026 m -12.828,11.631 c -0.496,0.796 -1.951,2.648 -4.766,2.648 l -118.495,0 c -2.814,0 -4.27,-1.852 -4.766,-2.648 -0.495,-0.796 -1.513,-2.92 -0.27,-5.445 5.857,-11.89 17.73,-19.276 30.984,-19.276 l 66.598,0 c 13.254,0 25.127,7.386 30.983,19.277 1.245,2.524 0.227,4.648 -0.268,5.444"
           style="fill:#999999" /><polyline
           id="polyline4285"
           points="186.375,308.434 88.88,308.434 88.88,231.939 186.375,231.939      186.375,308.434    "
           style="fill:#f9de58" /><polyline
           id="polyline4287"
           points="341.207,258.596 240.207,258.596 240.207,285.595 341.207,285.595      341.207,258.596    "
           style="fill:#e6e6e6" /><polyline
           id="polyline4289"
           points="341.207,220.784 240.207,220.784 240.207,247.784 341.207,247.784      341.207,220.784    "
           style="fill:#e6e6e6" /><polyline
           id="polyline4291"
           points="341.207,183.041 240.207,183.041 240.207,210.041 341.207,210.041      341.207,183.041    "
           style="fill:#e6e6e6" /><path
           id="path4293"
           inkscape:connector-curvature="0"
           d="m 361.842,173.966 0,150.117 -150.385,0 7.621,25.003 149.77,0 c 9.94,0 17.99,-8.06 17.99,-18 l 0,-157.12 c -4.098,1.012 -8.298,1.519 -12.496,1.519 -4.2,10e-4 -8.398,-0.506 -12.5,-1.519"
           style="fill:#6fead8" /><path
           id="path4295"
           inkscape:connector-curvature="0"
           d="m 177.339,212.139 6.034,19.8 3.002,0 0,6.982 10.5,0 c 2.814,0 4.27,-1.852 4.766,-2.648 0.495,-0.796 1.513,-2.92 0.269,-5.445 -4.893,-9.933 -13.984,-16.722 -24.571,-18.689 m 62.868,73.456 0,-27 101,0 0,27 -101,0 m 0,-37.811 0,-27 101,0 0,27 -101,0 m 0,-37.743 0,-27 101,0 0,27 -101,0 m 99.88,-47.445 -0.01,0.01 c -9.8,8.585 -22.023,12.877 -34.244,12.877 -12.221,0 -24.441,-4.292 -34.236,-12.877 l -0.01,-0.01 -0.01,0.01 c -9.8,8.58 -22.02,12.87 -34.24,12.87 -12.22,0 -24.44,-4.29 -34.24,-12.87 l -0.01,-0.01 c -9.8,8.585 -22.023,12.877 -34.245,12.877 -0.9,0 -1.801,-0.023 -2.7,-0.07 l 6.762,22.187 c 17.824,0.706 33.626,10.935 41.564,27.051 3.015,6.121 2.664,13.233 -0.94,19.027 -3.605,5.793 -9.83,9.252 -16.653,9.252 l -7.107,0 21.689,71.162 150.385,0 0,-150.116 c -7.834,-1.936 -15.31,-5.722 -21.744,-11.359 l -0.011,-0.011"
           style="fill:#ffffff" /><path
           id="path4297"
           inkscape:connector-curvature="0"
           d="m 172.905,197.591 4.434,14.548 c 10.588,1.966 19.678,8.756 24.571,18.689 1.244,2.525 0.226,4.649 -0.269,5.445 -0.496,0.796 -1.951,2.648 -4.766,2.648 l -10.5,0 0,2.868 3.393,11.132 7.107,0 c 6.823,0 13.048,-3.459 16.653,-9.252 3.604,-5.793 3.956,-12.906 0.94,-19.027 -7.937,-16.116 -23.739,-26.345 -41.563,-27.051"
           style="fill:#bababa" /><polyline
           id="polyline4299"
           points="186.375,231.939 183.373,231.939 186.375,241.789 186.375,238.921      186.375,231.939    "
           style="fill:#fbe98e" /><polyline
           id="polyline4301"
           points="341.207,258.596 240.207,258.596 240.207,285.595 341.207,285.595      341.207,258.596    "
           style="fill:#eeeeee" /><polyline
           id="polyline4303"
           points="341.207,220.784 240.207,220.784 240.207,247.784 341.207,247.784      341.207,220.784    "
           style="fill:#eeeeee" /><polyline
           id="polyline4305"
           points="341.207,183.041 240.207,183.041 240.207,210.041 341.207,210.041      341.207,183.041    "
           style="fill:#eeeeee" /><path
           id="path4307"
           inkscape:connector-curvature="0"
           d="m 295.257,376.596 -48.157,0 -45.243,0 5.49,18 105.91,0 c 0,-9.941 -8.06,-18 -18,-18"
           style="fill:#6fead8" /><path
           id="path4309"
           inkscape:connector-curvature="0"
           d="m 137.247,80.596 -117.89,0 0,93.36 c 4.097,1.012 8.29,1.518 12.484,1.518 4.206,0 8.411,-0.508 12.518,-1.526 l 0,-68.352 100.507,0 -7.619,-25"
           style="fill:#2ea897" /><path
           id="path4311"
           inkscape:connector-curvature="0"
           d="m 144.867,105.597 -100.507,0 0,68.352 c 7.826,-1.938 15.298,-5.723 21.728,-11.352 l 0.01,0 0.01,0.01 c 9.8,8.58 22.02,12.87 34.24,12.87 5.288,0 10.577,-0.804 15.669,-2.41 0.995,-10.567 9.579,-18.937 20.24,-19.599 0.468,-0.029 0.935,-0.044 1.399,-0.044 5.545,0 10.769,2.064 14.839,5.889 4.219,3.965 6.692,9.511 6.837,15.286 2.255,0.418 4.529,0.686 6.813,0.805 l -21.278,-69.807"
           style="fill:#bdbdbd" /><path
           id="path4313"
           inkscape:connector-curvature="0"
           d="m 137.655,153.424 c -0.464,0 -0.931,0.014 -1.399,0.044 -10.661,0.662 -19.244,9.031 -20.24,19.599 6.675,-2.106 13.012,-5.593 18.571,-10.46 l 0.01,-0.01 c 7.246,6.348 15.817,10.349 24.733,12.003 -0.144,-5.775 -2.617,-11.321 -6.837,-15.286 -4.069,-3.826 -9.293,-5.89 -14.838,-5.89"
           style="fill:#787878" /><path
           id="path4315"
           inkscape:connector-curvature="0"
           d="m 386.837,80.596 -249.59,0 7.619,25 216.975,0 0,68.369 c 4.102,1.014 8.3,1.52 12.5,1.52 4.198,0 8.397,-0.507 12.496,-1.519 l 0,-93.37"
           style="fill:#5cafa3" /><path
           id="path4317"
           inkscape:connector-curvature="0"
           d="m 361.842,105.597 -216.975,0 21.276,69.808 c 0.899,0.047 1.8,0.07 2.7,0.07 12.222,0 24.445,-4.292 34.245,-12.877 l 0.01,0.01 c 9.8,8.58 22.02,12.87 34.24,12.87 12.22,0 24.44,-4.29 34.24,-12.87 l 0.01,-0.01 0.01,0.01 c 9.795,8.585 22.015,12.877 34.236,12.877 12.221,0 24.444,-4.292 34.244,-12.877 l 0.01,-0.01 0.01,0.01 c 6.434,5.638 13.91,9.423 21.744,11.359 l 0,-68.37"
           style="fill:#bdbdbd" /><path
           id="path4319"
           inkscape:connector-curvature="0"
           d="m 405.825,121.574 -9.517,-51.977 -6.85,-37.39 c -2.18,-11.94 -12.59,-20.61 -24.73,-20.61 l -39.89,0 -60.87,0 -60.87,0 -60.87,0 -60.87,0 -39.9,0 c -12.13,0 -22.54,8.67 -24.73,20.61 l -6.85,37.39 -9.51,51.97 c -1.979,10.813 4.192,21.519 14.588,25.09 17.156,5.894 36.748,2.54 51.131,-10.06 l 0.01,0 0.01,0.01 c 19.6,17.16 48.88,17.16 68.48,0 l 0.01,-0.01 c 19.6,17.17 48.89,17.17 68.49,0 l 0.01,0.01 c 19.6,17.16 48.88,17.16 68.48,0 l 0.01,-0.01 0.01,0.01 c 19.59,17.17 48.88,17.17 68.48,0 l 0.01,-0.01 0.01,0.01 c 14.384,12.6 33.98,15.954 51.138,10.061 10.399,-3.572 16.57,-14.28 14.59,-25.094 l 0,0 z"
           style="fill:#e6e6e6" /><path
           id="path4321"
           inkscape:connector-curvature="0"
           d="m 340.097,136.606 -0.01,-0.01 -0.01,0.01 c -19.6,17.17 -48.89,17.17 -68.48,0 l -4.09,-67.01 -3.54,-58 60.87,0 7.08,58 8.18,67.01 0,0 z"
           style="fill:#fc7a51" /><path
           id="path4323"
           inkscape:connector-curvature="0"
           d="m 203.097,11.596 0,125.01 -0.01,-0.01 c -19.6,17.17 -48.89,17.17 -68.49,0 l -0.01,0 4.1,-67 3.54,-58 c 0,0 60.87,0 60.87,0 z"
           style="fill:#fc7a51" /><path
           id="path4325"
           inkscape:connector-curvature="0"
           d="m 81.357,11.596 -7.09,58 -8.18,67 C 51.703,149.197 32.111,152.55 14.956,146.656 4.559,143.084 -1.611,132.379 0.368,121.566 l 9.51,-51.97 6.85,-37.39 c 2.19,-11.94 12.6,-20.61 24.73,-20.61 0,0 39.899,0 39.899,0 z"
           style="fill:#fc7a51" /><rect
           id="rect4327"
           x="88.879997"
           y="231.938"
           width="97.495003"
           height="13.982"
           style="fill:#e0bf20" /></g><g
         id="g4329" /><g
         id="g4331" /><g
         id="g4333" /><g
         id="g4335" /><g
         id="g4337" /><g
         id="g4339" /><g
         id="g4341" /><g
         id="g4343" /><g
         id="g4345" /><g
         id="g4347" /><g
         id="g4349" /><g
         id="g4351" /><g
         id="g4353" /><g
         id="g4355" /><g
         id="g4357" /></g></g></svg>