<?xml version="1.0" encoding="utf-8"?>
<!-- Generator: Adobe Illustrator 17.0.0, SVG Export Plug-In . SVG Version: 6.00 Build 0)  -->
<!DOCTYPE svg PUBLIC "-//W3C//DTD SVG 1.1//EN" "http://www.w3.org/Graphics/SVG/1.1/DTD/svg11.dtd">
<svg version="1.1"
	 id="Слой_1" xmlns:dc="http://purl.org/dc/elements/1.1/" xmlns:cc="http://creativecommons.org/ns#" xmlns:rdf="http://www.w3.org/1999/02/22-rdf-syntax-ns#" xmlns:svg="http://www.w3.org/2000/svg" xmlns:sodipodi="http://sodipodi.sourceforge.net/DTD/sodipodi-0.dtd" xmlns:inkscape="http://www.inkscape.org/namespaces/inkscape" sodipodi:docname="Landing Page.svg" inkscape:version="0.91 r13725"
	 xmlns="http://www.w3.org/2000/svg" xmlns:xlink="http://www.w3.org/1999/xlink" x="0px" y="0px" width="171px" height="171px"
	 viewBox="0 0 171 171" enable-background="new 0 0 171 171" xml:space="preserve">
<sodipodi:namedview  showguides="true" inkscape:cy="53.996073" inkscape:cx="-14.445393" inkscape:zoom="2" showgrid="false" guidetolerance="10" gridtolerance="10" objecttolerance="10" borderopacity="1" bordercolor="#666666" pagecolor="#ffffff" id="namedview61" inkscape:guide-bbox="true" inkscape:current-layer="Слой_1" inkscape:window-maximized="1" inkscape:window-y="-8" inkscape:window-x="-8" inkscape:window-height="801" inkscape:window-width="1536" inkscape:pageshadow="2" inkscape:pageopacity="0">
	<inkscape:grid  type="xygrid" id="grid4289"></inkscape:grid>
</sodipodi:namedview>
<g id="g4296">
	<g id="g4274">
		<circle id="path4230" fill="#D45B3E" cx="85.188" cy="85.958" r="74"/>
		<path id="path4278" inkscape:connector-curvature="0" fill="#C45237" d="M85.202,11.958c-0.007,0.001-0.014,0.001-0.021,0.002
			v147.998c0.007,0,0.014,0,0.021,0c40.86,0,73.984-33.131,73.984-74S126.063,11.958,85.202,11.958
			C85.202,11.958,85.202,11.958,85.202,11.958z"/>
	</g>
	<path id="path4271" inkscape:connector-curvature="0" opacity="0.2" fill="none" stroke="#FFFFFF" enable-background="new    " d="
		M85.188,1.458c46.624,0,84.5,37.876,84.5,84.5s-37.876,84.5-84.5,84.5s-84.5-37.876-84.5-84.5S38.563,1.458,85.188,1.458z"/>
	<defs>
		<filter id="Adobe_OpacityMaskFilter" filterUnits="userSpaceOnUse" x="40.701" y="46.407" width="121.236" height="118.677">
			<feColorMatrix  type="matrix" values="1 0 0 0 0  0 1 0 0 0  0 0 1 0 0  0 0 0 1 0"/>
		</filter>
	</defs>
	<mask maskUnits="userSpaceOnUse" x="40.701" y="46.407" width="121.236" height="118.677" id="mask4288">
		<g id="g4290" filter="url(#Adobe_OpacityMaskFilter)">
			<circle id="circle4292" fill="#D45B3E" cx="85.188" cy="85.958" r="74"/>
			<path id="path4294" inkscape:connector-curvature="0" fill="#C45237" d="M85.202,11.958c-0.007,0.001-0.014,0.001-0.021,0.002
				v147.998c0.007,0,0.014,0,0.021,0c40.86,0,73.984-33.131,73.984-74S126.063,11.958,85.202,11.958
				C85.202,11.958,85.202,11.958,85.202,11.958z"/>
		</g>
	</mask>
	<path id="path4280" sodipodi:nodetypes="ccccscccccc" inkscape:connector-curvature="0" mask="url(#mask4288)" fill="#B14731" d="
		M40.701,115.845l49.111,49.238l31.625-6.875l28-20.5c0,0,3.75-10.25,5.5-11.75s7-24,7-24l-0.25-4.75l-36.465-35.404l-20.535,0.154
		L89.423,46.407L40.701,115.845z"/>
	<g id="g4343" transform="matrix(0.19603524,0,0,0.19534588,41.000001,41.156497)">
		<g id="g4229">
			<path id="path4231" inkscape:connector-curvature="0" fill="#E6E6E6" d="M452.407,129.725v251.88c0,11.14-7.57,20.52-17.86,23.25
				c-1.98,0.53-4.06,0.81-6.2,0.81H22.466c-13.29,0-24.06-10.77-24.06-24.06v-251.88c0-13.29,10.77-24.06,24.06-24.06h405.88
				c2.14,0,4.22,0.28,6.2,0.81C444.837,109.205,452.407,118.585,452.407,129.725"/>
			<polyline id="polyline4233" fill="#2BE0C6" points="241.906,229.665 415.906,229.665 415.906,188.665 241.906,188.665 
				241.906,229.665 			"/>
			<polyline id="polyline4235" fill="#2BE0C6" points="241.906,368.665 415.906,368.665 415.906,327.665 241.906,327.665 
				241.906,368.665 			"/>
			<polyline id="polyline4237" fill="#2BE0C6" points="241.906,314.165 415.906,314.165 415.906,243.165 241.906,243.165 
				241.906,314.165 			"/>
			<polyline id="polyline4239" fill="#2BE0C6" points="34.906,229.665 227.906,229.665 227.906,188.665 34.906,188.665 
				34.906,229.665 			"/>
			<path id="path4241" inkscape:connector-curvature="0" fill="#C7C7C7" d="M434.547,165.665h-6.2v240c2.14,0,4.22-0.28,6.2-0.81
				V165.665"/>
			<polyline id="polyline4243" fill="#FC7A51" points="384.406,431.896 409.406,415.066 428.347,431.896 428.347,125.665 
				384.406,125.665 384.406,431.896 			"/>
			<path id="path4245" inkscape:connector-curvature="0" fill="#999999" d="M452.407,129.725v23.94H-1.594v-23.94
				c0-13.29,10.77-24.06,24.06-24.06h405.88C441.637,105.665,452.407,116.435,452.407,129.725"/>
			<ellipse id="circle4247" fill="#FC7A51" cx="31.406" cy="129.665" rx="2.92" ry="2.93"/>
			<ellipse id="circle4249" fill="#F9DE58" cx="71.406" cy="129.665" rx="2.92" ry="2.93"/>
			<path id="path4251" inkscape:connector-curvature="0" fill="#C7C7C7" d="M384.406,153.665H261.061
				c-12.604,15.384-30.204,26.514-50.325,30.91c-6.22,1.37-12.69,2.09-19.33,2.09c-28.077,0-53.151-12.856-69.655-33H-1.594v12
				h121.765c7.168,9.273,16.106,17.109,26.309,23h81.426v4.29c13.734-6.102,25.655-15.543,34.736-27.29h121.764V153.665
				 M452.407,153.665h-24.06v12h24.06V153.665"/>
			<path id="path4253" inkscape:connector-curvature="0" fill="#32C3AE" d="M227.906,188.665h-81.427
				c13.219,7.633,28.56,12,44.927,12c12.996,0,25.346-2.754,36.5-7.71V188.665"/>
			<polyline id="polyline4255" fill="#D97150" points="428.347,153.665 384.406,153.665 384.406,165.665 428.347,165.665 
				428.347,153.665 			"/>
			<path id="path4257" inkscape:connector-curvature="0" fill="#8A8A8A" d="M101.85,105.665h-0.304c-0.09,1.65-0.14,3.32-0.14,5
				c0,15.58,3.95,30.23,10.92,43H-1.594h123.345C110.82,140.323,103.649,123.787,101.85,105.665 M281.266,105.665h-0.304
				c-1.798,18.12-8.971,34.659-19.901,48h123.345h43.94h24.06h-181.92c6.97-12.77,10.92-27.42,10.92-43
				C281.406,108.985,281.356,107.315,281.266,105.665"/>
			<path id="path4259" inkscape:connector-curvature="0" fill="#F9DE58" d="M281.406,96.665c0,43.07-30.25,79.08-70.67,87.91
				c-6.22,1.37-12.69,2.09-19.33,2.09c-49.71,0-90-40.29-90-90c0-38.07,23.63-70.61,57.01-83.77c10.22-4.02,21.34-6.23,32.99-6.23
				C241.116,6.665,281.406,46.955,281.406,96.665"/>
			<path id="path4261" inkscape:connector-curvature="0" fill="#FFFFFF" d="M256.108,96.665c0-35.734-28.968-64.701-64.701-64.701
				c-35.734,0-64.701,28.968-64.701,64.701s28.968,64.701,64.701,64.701S256.108,132.399,256.108,96.665"/>
			<polyline id="polyline4263" fill="#FC7A51" points="197.906,148.665 184.906,148.665 184.906,90.165 230.406,90.165 
				230.406,103.165 197.906,103.165 197.906,148.665 			"/>
			<polyline id="polyline4265" fill="#29ABE2" points="197.906,148.665 184.906,148.665 184.906,90.165 197.906,90.165 
				197.906,148.665 			"/>
			<path id="path4267" inkscape:connector-curvature="0" fill="#FC7A51" d="M207.286,355.535c0,8.5,7.86,17.91,5.76,25.75
				c-2.17,8.12-13.74,12.34-17.85,19.44c-4.17,7.2-2.08,19.32-7.93,25.17c-5.84,5.85-17.96,3.76-25.17,7.92
				c-6.29,3.64-10.32,13.14-16.79,16.77c-0.83,0.47-1.71,0.84-2.64,1.09c-7.84,2.09-17.26-5.76-25.76-5.76s-17.92,7.85-25.76,5.76
				c-8.11-2.17-12.33-13.75-19.44-17.85c-7.2-4.17-19.32-2.08-25.17-7.93c-5.84-5.85-3.75-17.97-7.92-25.17
				c-4.11-7.1-15.69-11.32-17.85-19.43c-2.1-7.84,5.76-17.26,5.76-25.76c0-8.51-7.86-17.92-5.76-25.76
				c2.16-8.12,13.74-12.34,17.85-19.44c4.17-7.2,2.08-19.32,7.92-25.17c5.85-5.85,17.97-3.76,25.17-7.92
				c5.98-3.46,9.92-12.2,15.84-16.19c1.12-0.75,2.31-1.33,3.6-1.67c7.84-2.09,17.26,5.76,25.76,5.76s17.92-7.85,25.76-5.76
				c8.11,2.17,12.33,13.75,19.43,17.86c7.21,4.16,19.33,2.07,25.17,7.92c5.85,5.85,3.76,17.97,7.93,25.17
				c4.11,7.1,15.68,11.32,17.85,19.44C215.146,337.615,207.286,347.025,207.286,355.535"/>
			<g id="g4269">
				<path id="path4271-4" inkscape:connector-curvature="0" fill="#FFFFFF" d="M74.353,346.956
					c-0.262-0.261-0.739-0.618-1.432-1.067c-0.693-0.449-1.535-0.889-2.526-1.32c-0.993-0.43-2.069-0.795-3.229-1.095
					c-1.16-0.299-2.34-0.449-3.537-0.449c-2.134,0-3.726,0.393-4.773,1.179c-1.049,0.786-1.572,1.891-1.572,3.313
					c0,0.824,0.196,1.507,0.59,2.05c0.393,0.543,0.963,1.021,1.712,1.432c0.749,0.413,1.693,0.786,2.836,1.123
					c1.142,0.337,2.461,0.693,3.959,1.067c1.946,0.525,3.715,1.086,5.307,1.685c1.591,0.599,2.938,1.348,4.043,2.246
					c1.104,0.898,1.956,1.975,2.556,3.229c0.598,1.255,0.898,2.799,0.898,4.633c0,2.134-0.403,3.959-1.208,5.475
					s-1.891,2.743-3.257,3.678c-1.367,0.936-2.939,1.62-4.717,2.05c-1.778,0.43-3.642,0.646-5.587,0.646
					c-2.996,0-5.953-0.449-8.873-1.348c-2.92-0.899-5.541-2.171-7.861-3.819l3.426-6.682c0.337,0.337,0.944,0.777,1.824,1.32
					c0.88,0.543,1.919,1.086,3.117,1.628c1.197,0.543,2.526,1.002,3.986,1.376c1.461,0.375,2.957,0.562,4.493,0.562
					c4.268,0,6.401-1.366,6.401-4.099c0-0.861-0.244-1.591-0.73-2.19c-0.486-0.598-1.179-1.123-2.077-1.572
					s-1.985-0.861-3.257-1.235c-1.273-0.374-2.695-0.786-4.269-1.235c-1.909-0.524-3.565-1.095-4.969-1.713
					c-1.404-0.618-2.575-1.348-3.51-2.19c-0.937-0.842-1.639-1.815-2.106-2.92c-0.468-1.104-0.701-2.423-0.701-3.959
					c0-2.021,0.373-3.818,1.123-5.391c0.748-1.573,1.787-2.882,3.116-3.931c1.328-1.048,2.873-1.844,4.633-2.386
					c1.759-0.542,3.65-0.814,5.672-0.814c2.808,0,5.391,0.441,7.749,1.32c2.358,0.88,4.417,1.919,6.177,3.116
					C77.78,340.669,74.353,346.956,74.353,346.956z"/>
				<path id="path4273" inkscape:connector-curvature="0" fill="#FFFFFF" d="M96.365,336.511h6.851l15.161,39.87h-7.974
					l-3.706-9.939H92.771l-3.649,9.939h-7.974L96.365,336.511z M105.293,360.994l-5.503-15.667l-5.728,15.667
					C94.062,360.994,105.293,360.994,105.293,360.994z"/>
				<path id="path4275" inkscape:connector-curvature="0" fill="#FFFFFF" d="M122.757,376.381v-39.87h7.749v33.075h20.328v6.795
					L122.757,376.381C122.757,376.381,122.757,376.381,122.757,376.381z"/>
				<path id="path4277" inkscape:connector-curvature="0" fill="#FFFFFF" d="M183.235,369.586v6.795H155.55v-39.87h27.179v6.795
					h-19.43v9.602h16.79v6.289h-16.79v10.388L183.235,369.586C183.235,369.586,183.235,369.586,183.235,369.586z"/>
			</g>
			<path id="path4279" inkscape:connector-curvature="0" fill="#FBE98E" d="M191.406,6.665c-11.65,0-22.77,2.21-32.99,6.23
				l3.4,11.17l4.008,13.153c7.846-3.381,16.496-5.254,25.583-5.254c35.733,0,64.701,28.968,64.701,64.701
				c0,31.661-22.74,58.011-52.78,63.605l7.409,24.305c40.42-8.83,70.67-44.84,70.67-87.91
				C281.406,46.955,241.116,6.665,191.406,6.665"/>
			<path id="path4281" inkscape:connector-curvature="0" fill="#FFFFFF" d="M191.406,31.964c-9.086,0-17.736,1.874-25.583,5.254
				l14.183,46.547l4.9,16.074v-9.674h13h32.5v13h-32.5v39.321l5.421,17.784c30.04-5.594,52.78-31.944,52.78-63.605
				C256.108,60.932,227.14,31.964,191.406,31.964"/>
			<polyline id="polyline4283" fill="#FDA589" points="230.406,90.165 197.906,90.165 197.906,103.165 230.406,103.165 
				230.406,90.165 			"/>
			<polyline id="polyline4285" fill="#6EC6EB" points="197.906,90.165 184.906,90.165 184.906,99.839 197.906,142.486 
				197.906,103.165 197.906,90.165 			"/>
			<path id="path4287" inkscape:connector-curvature="0" fill="#FDA589" d="M139.842,259.031c-7.216,0-15.434,6.114-22.935,6.114
				c-7.502,0-15.719-6.114-22.935-6.114c-0.96,0-1.904,0.108-2.825,0.354c-1.29,0.34-2.48,0.92-3.6,1.67l11.26,36.96l11.645,38.215
				h72.783v40.599h-60.41l22.482,73.755c6.47-3.63,10.5-13.13,16.79-16.77c7.21-4.16,19.33-2.07,25.17-7.92
				c5.85-5.85,3.76-17.97,7.93-25.17c4.11-7.1,15.68-11.32,17.85-19.44c0.246-0.919,0.355-1.859,0.357-2.817
				c0.009-7.216-6.117-15.429-6.117-22.933l0,0l0,0c0-7.513,6.126-15.727,6.117-22.943c-0.001-0.958-0.111-1.898-0.357-2.817
				c-2.17-8.12-13.74-12.34-17.85-19.44c-4.17-7.2-2.08-19.32-7.93-25.17c-5.84-5.85-17.96-3.76-25.17-7.92
				c-7.1-4.11-11.32-15.69-19.43-17.86C141.745,259.14,140.802,259.031,139.842,259.031"/>
			<g id="g4289">
				<g id="g4291">
					<rect id="rect4293" x="110.451" y="336.231" fill="#FDA589" width="72.783" height="40.599"/>
				</g>
				<g id="g4295">
					<g id="g4297">
						<path id="path4299" inkscape:connector-curvature="0" fill="#FFFFFF" d="M74.353,346.956
							c-0.262-0.261-0.739-0.618-1.432-1.067c-0.693-0.449-1.535-0.889-2.526-1.32c-0.993-0.43-2.069-0.795-3.229-1.095
							c-1.16-0.299-2.34-0.449-3.537-0.449c-2.134,0-3.726,0.393-4.773,1.179c-1.049,0.786-1.572,1.891-1.572,3.313
							c0,0.824,0.196,1.507,0.59,2.05c0.393,0.543,0.963,1.021,1.712,1.432c0.749,0.413,1.693,0.786,2.836,1.123
							c1.142,0.337,2.461,0.693,3.959,1.067c1.946,0.525,3.715,1.086,5.307,1.685c1.591,0.599,2.938,1.348,4.043,2.246
							c1.104,0.898,1.956,1.975,2.556,3.229c0.598,1.255,0.898,2.799,0.898,4.633c0,2.134-0.403,3.959-1.208,5.475
							s-1.891,2.743-3.257,3.678c-1.367,0.936-2.939,1.62-4.717,2.05c-1.778,0.43-3.642,0.646-5.587,0.646
							c-2.996,0-5.953-0.449-8.873-1.348c-2.92-0.899-5.541-2.171-7.861-3.819l3.426-6.682c0.337,0.337,0.944,0.777,1.824,1.32
							c0.88,0.543,1.919,1.086,3.117,1.628c1.197,0.543,2.526,1.002,3.986,1.376c1.461,0.375,2.957,0.562,4.493,0.562
							c4.268,0,6.401-1.366,6.401-4.099c0-0.861-0.244-1.591-0.73-2.19c-0.486-0.598-1.179-1.123-2.077-1.572
							s-1.985-0.861-3.257-1.235c-1.273-0.374-2.695-0.786-4.269-1.235c-1.909-0.524-3.565-1.095-4.969-1.713
							c-1.404-0.618-2.575-1.348-3.51-2.19c-0.937-0.842-1.639-1.815-2.106-2.92c-0.468-1.104-0.701-2.423-0.701-3.959
							c0-2.021,0.373-3.818,1.123-5.391c0.748-1.573,1.787-2.882,3.116-3.931c1.328-1.048,2.873-1.844,4.633-2.386
							c1.759-0.542,3.65-0.814,5.672-0.814c2.808,0,5.391,0.441,7.749,1.32c2.358,0.88,4.417,1.919,6.177,3.116
							C77.78,340.669,74.353,346.956,74.353,346.956z"/>
						<path id="path4301" inkscape:connector-curvature="0" fill="#FFFFFF" d="M96.365,336.511h6.851l15.161,39.87h-7.974
							l-3.706-9.939H92.771l-3.649,9.939h-7.974L96.365,336.511z M105.293,360.994l-5.503-15.667l-5.728,15.667
							C94.062,360.994,105.293,360.994,105.293,360.994z"/>
						<path id="path4303" inkscape:connector-curvature="0" fill="#FFFFFF" d="M122.757,376.381v-39.87h7.749v33.075h20.328v6.795
							L122.757,376.381C122.757,376.381,122.757,376.381,122.757,376.381z"/>
						<path id="path4305" inkscape:connector-curvature="0" fill="#FFFFFF" d="M183.235,369.586v6.795H155.55v-39.87h27.179v6.795
							h-19.43v9.602h16.79v6.289h-16.79v10.388L183.235,369.586C183.235,369.586,183.235,369.586,183.235,369.586z"/>
					</g>
				</g>
			</g>
		</g>
		<g id="g4307">
		</g>
		<g id="g4309">
		</g>
		<g id="g4311">
		</g>
		<g id="g4313">
		</g>
		<g id="g4315">
		</g>
		<g id="g4317">
		</g>
		<g id="g4319">
		</g>
		<g id="g4321">
		</g>
		<g id="g4323">
		</g>
		<g id="g4325">
		</g>
		<g id="g4327">
		</g>
		<g id="g4329">
		</g>
		<g id="g4331">
		</g>
		<g id="g4333">
		</g>
		<g id="g4335">
		</g>
	</g>
</g>
</svg>
