<svg xmlns="http://www.w3.org/2000/svg" width="171" height="171" viewBox="0 0 171 171"><circle fill="#D45B3E" cx="85.188" cy="85.958" r="74"/><path fill="#C45237" d="M85.202 11.958l-.021.002v147.998h.021c40.86 0 73.984-33.131 73.984-74s-33.123-74-73.984-74z"/><path opacity=".2" fill="none" stroke="#FFF" enable-background="new" d="M85.188 1.458c46.624 0 84.5 37.876 84.5 84.5s-37.876 84.5-84.5 84.5-84.5-37.876-84.5-84.5 37.875-84.5 84.5-84.5z"/><defs><filter id="a" filterUnits="userSpaceOnUse" x="40.701" y="46.407" width="121.236" height="118.677"><feColorMatrix values="1 0 0 0 0 0 1 0 0 0 0 0 1 0 0 0 0 0 1 0"/></filter></defs><mask maskUnits="userSpaceOnUse" x="40.701" y="46.407" width="121.236" height="118.677" id="b"><g filter="url(#a)"><circle fill="#D45B3E" cx="85.188" cy="85.958" r="74"/><path fill="#C45237" d="M85.202 11.958l-.021.002v147.998h.021c40.86 0 73.984-33.131 73.984-74s-33.123-74-73.984-74z"/></g></mask><path mask="url(#b)" fill="#B14731" d="M40.701 115.845l49.111 49.238 31.625-6.875 28-20.5s3.75-10.25 5.5-11.75 7-24 7-24l-.25-4.75-36.465-35.404-20.535.154-15.264-15.551-48.722 69.438z"/><g transform="matrix(.19604 0 0 .19535 41 41.156)"><path fill="#E6E6E6" d="M452.407 129.725v251.88c0 11.14-7.57 20.52-17.86 23.25-1.98.53-4.06.81-6.2.81H22.466c-13.29 0-24.06-10.77-24.06-24.06v-251.88c0-13.29 10.77-24.06 24.06-24.06h405.88c2.14 0 4.22.28 6.2.81 10.291 2.73 17.861 12.11 17.861 23.25"/><path fill="#2BE0C6" d="M241.906 229.665h174v-41h-174v41m0 139h174v-41h-174v41m0-54.5h174v-71h-174v71m-207-84.5h193v-41h-193v41"/><path fill="#C7C7C7" d="M434.547 165.665h-6.2v240c2.14 0 4.22-.28 6.2-.81v-239.19"/><path fill="#FC7A51" d="M384.406 431.896l25-16.83 18.941 16.83V125.665h-43.941v306.231"/><path fill="#999" d="M452.407 129.725v23.94H-1.594v-23.94c0-13.29 10.77-24.06 24.06-24.06h405.88c13.291 0 24.061 10.77 24.061 24.06"/><ellipse fill="#FC7A51" cx="31.406" cy="129.665" rx="2.92" ry="2.93"/><ellipse fill="#F9DE58" cx="71.406" cy="129.665" rx="2.92" ry="2.93"/><path fill="#C7C7C7" d="M384.406 153.665H261.061c-12.604 15.384-30.204 26.514-50.325 30.91a89.797 89.797 0 0 1-19.33 2.09c-28.077 0-53.151-12.856-69.655-33H-1.594v12h121.765a90.437 90.437 0 0 0 26.309 23h81.426v4.29c13.734-6.102 25.655-15.543 34.736-27.29h121.764v-12m68.001 0h-24.06v12h24.06v-12"/><path fill="#32C3AE" d="M227.906 188.665h-81.427c13.219 7.633 28.56 12 44.927 12 12.996 0 25.346-2.754 36.5-7.71v-4.29"/><path fill="#D97150" d="M428.347 153.665h-43.941v12h43.941v-12"/><path fill="#8A8A8A" d="M101.85 105.665h-.304a91.86 91.86 0 0 0-.14 5c0 15.58 3.95 30.23 10.92 43H-1.594h123.345c-10.931-13.342-18.102-29.878-19.901-48m179.416 0h-.304c-1.798 18.12-8.971 34.659-19.901 48h191.345-181.92c6.97-12.77 10.92-27.42 10.92-43 0-1.68-.05-3.35-.14-5"/><path fill="#F9DE58" d="M281.406 96.665c0 43.07-30.25 79.08-70.67 87.91a89.797 89.797 0 0 1-19.33 2.09c-49.71 0-90-40.29-90-90 0-38.07 23.63-70.61 57.01-83.77 10.22-4.02 21.34-6.23 32.99-6.23 49.71 0 90 40.29 90 90"/><path fill="#FFF" d="M256.108 96.665c0-35.734-28.968-64.701-64.701-64.701-35.734 0-64.701 28.968-64.701 64.701s28.968 64.701 64.701 64.701 64.701-28.967 64.701-64.701"/><path fill="#FC7A51" d="M197.906 148.665h-13v-58.5h45.5v13h-32.5v45.5"/><path fill="#29ABE2" d="M197.906 148.665h-13v-58.5h13v58.5"/><path fill="#FC7A51" d="M207.286 355.535c0 8.5 7.86 17.91 5.76 25.75-2.17 8.12-13.74 12.34-17.85 19.44-4.17 7.2-2.08 19.32-7.93 25.17-5.84 5.85-17.96 3.76-25.17 7.92-6.29 3.64-10.32 13.14-16.79 16.77-.83.47-1.71.84-2.64 1.09-7.84 2.09-17.26-5.76-25.76-5.76s-17.92 7.85-25.76 5.76c-8.11-2.17-12.33-13.75-19.44-17.85-7.2-4.17-19.32-2.08-25.17-7.93-5.84-5.85-3.75-17.97-7.92-25.17-4.11-7.1-15.69-11.32-17.85-19.43-2.1-7.84 5.76-17.26 5.76-25.76 0-8.51-7.86-17.92-5.76-25.76 2.16-8.12 13.74-12.34 17.85-19.44 4.17-7.2 2.08-19.32 7.92-25.17 5.85-5.85 17.97-3.76 25.17-7.92 5.98-3.46 9.92-12.2 15.84-16.19 1.12-.75 2.31-1.33 3.6-1.67 7.84-2.09 17.26 5.76 25.76 5.76s17.92-7.85 25.76-5.76c8.11 2.17 12.33 13.75 19.43 17.86 7.21 4.16 19.33 2.07 25.17 7.92 5.85 5.85 3.76 17.97 7.93 25.17 4.11 7.1 15.68 11.32 17.85 19.44 2.1 7.84-5.76 17.25-5.76 25.76"/><path d="M74.353 346.956c-.262-.261-.739-.618-1.432-1.067-.693-.449-1.535-.889-2.526-1.32a21.944 21.944 0 0 0-3.229-1.095 14.12 14.12 0 0 0-3.537-.449c-2.134 0-3.726.393-4.773 1.179-1.049.786-1.572 1.891-1.572 3.313 0 .824.196 1.507.59 2.05.393.543.963 1.021 1.712 1.432.749.413 1.693.786 2.836 1.123 1.142.337 2.461.693 3.959 1.067a58.1 58.1 0 0 1 5.307 1.685c1.591.599 2.938 1.348 4.043 2.246a9.29 9.29 0 0 1 2.556 3.229c.598 1.255.898 2.799.898 4.633 0 2.134-.403 3.959-1.208 5.475s-1.891 2.743-3.257 3.678c-1.367.936-2.939 1.62-4.717 2.05-1.778.43-3.642.646-5.587.646-2.996 0-5.953-.449-8.873-1.348-2.92-.899-5.541-2.171-7.861-3.819l3.426-6.682c.337.337.944.777 1.824 1.32.88.543 1.919 1.086 3.117 1.628a24.154 24.154 0 0 0 3.986 1.376 17.99 17.99 0 0 0 4.493.562c4.268 0 6.401-1.366 6.401-4.099 0-.861-.244-1.591-.73-2.19-.486-.598-1.179-1.123-2.077-1.572s-1.985-.861-3.257-1.235a565.867 565.867 0 0 0-4.269-1.235c-1.909-.524-3.565-1.095-4.969-1.713-1.404-.618-2.575-1.348-3.51-2.19a8.174 8.174 0 0 1-2.106-2.92c-.468-1.104-.701-2.423-.701-3.959 0-2.021.373-3.818 1.123-5.391a10.888 10.888 0 0 1 3.116-3.931c1.328-1.048 2.873-1.844 4.633-2.386 1.759-.542 3.65-.814 5.672-.814 2.808 0 5.391.441 7.749 1.32 2.358.88 4.417 1.919 6.177 3.116l-3.427 6.287zm22.012-10.445h6.851l15.161 39.87h-7.974l-3.706-9.939H92.771l-3.649 9.939h-7.974l15.217-39.87zm8.928 24.483l-5.503-15.667-5.728 15.667h11.231zm17.464 15.387v-39.87h7.749v33.075h20.328v6.795h-28.077zm60.478-6.795v6.795H155.55v-39.87h27.179v6.795h-19.43v9.602h16.79v6.289h-16.79v10.388l19.936.001z" fill="#FFF"/><path fill="#FBE98E" d="M191.406 6.665c-11.65 0-22.77 2.21-32.99 6.23l3.4 11.17 4.008 13.153c7.846-3.381 16.496-5.254 25.583-5.254 35.733 0 64.701 28.968 64.701 64.701 0 31.661-22.74 58.011-52.78 63.605l7.409 24.305c40.42-8.83 70.67-44.84 70.67-87.91-.001-49.71-40.291-90-90.001-90"/><path fill="#FFF" d="M191.406 31.964a64.517 64.517 0 0 0-25.583 5.254l14.183 46.547 4.9 16.074v-9.674h45.5v13h-32.5v39.321l5.421 17.784c30.04-5.594 52.78-31.944 52.78-63.605.001-35.733-28.967-64.701-64.701-64.701"/><path fill="#FDA589" d="M230.406 90.165h-32.5v13h32.5v-13"/><path fill="#6EC6EB" d="M197.906 90.165h-13v9.674l13 42.647V90.165"/><path fill="#FDA589" d="M139.842 259.031c-7.216 0-15.434 6.114-22.935 6.114-7.502 0-15.719-6.114-22.935-6.114a10.9 10.9 0 0 0-2.825.354c-1.29.34-2.48.92-3.6 1.67l11.26 36.96 11.645 38.215h72.783v40.599h-60.41l22.482 73.755c6.47-3.63 10.5-13.13 16.79-16.77 7.21-4.16 19.33-2.07 25.17-7.92 5.85-5.85 3.76-17.97 7.93-25.17 4.11-7.1 15.68-11.32 17.85-19.44.246-.919.355-1.859.357-2.817.009-7.216-6.117-15.429-6.117-22.933 0-7.513 6.126-15.727 6.117-22.943a10.886 10.886 0 0 0-.357-2.817c-2.17-8.12-13.74-12.34-17.85-19.44-4.17-7.2-2.08-19.32-7.93-25.17-5.84-5.85-17.96-3.76-25.17-7.92-7.1-4.11-11.32-15.69-19.43-17.86a10.992 10.992 0 0 0-2.825-.353"/><path fill="#FDA589" d="M110.451 336.231h72.783v40.599h-72.783z"/><path d="M74.353 346.956c-.262-.261-.739-.618-1.432-1.067-.693-.449-1.535-.889-2.526-1.32a21.944 21.944 0 0 0-3.229-1.095 14.12 14.12 0 0 0-3.537-.449c-2.134 0-3.726.393-4.773 1.179-1.049.786-1.572 1.891-1.572 3.313 0 .824.196 1.507.59 2.05.393.543.963 1.021 1.712 1.432.749.413 1.693.786 2.836 1.123 1.142.337 2.461.693 3.959 1.067a58.1 58.1 0 0 1 5.307 1.685c1.591.599 2.938 1.348 4.043 2.246a9.29 9.29 0 0 1 2.556 3.229c.598 1.255.898 2.799.898 4.633 0 2.134-.403 3.959-1.208 5.475s-1.891 2.743-3.257 3.678c-1.367.936-2.939 1.62-4.717 2.05-1.778.43-3.642.646-5.587.646-2.996 0-5.953-.449-8.873-1.348-2.92-.899-5.541-2.171-7.861-3.819l3.426-6.682c.337.337.944.777 1.824 1.32.88.543 1.919 1.086 3.117 1.628a24.154 24.154 0 0 0 3.986 1.376 17.99 17.99 0 0 0 4.493.562c4.268 0 6.401-1.366 6.401-4.099 0-.861-.244-1.591-.73-2.19-.486-.598-1.179-1.123-2.077-1.572s-1.985-.861-3.257-1.235a565.867 565.867 0 0 0-4.269-1.235c-1.909-.524-3.565-1.095-4.969-1.713-1.404-.618-2.575-1.348-3.51-2.19a8.174 8.174 0 0 1-2.106-2.92c-.468-1.104-.701-2.423-.701-3.959 0-2.021.373-3.818 1.123-5.391a10.888 10.888 0 0 1 3.116-3.931c1.328-1.048 2.873-1.844 4.633-2.386 1.759-.542 3.65-.814 5.672-.814 2.808 0 5.391.441 7.749 1.32 2.358.88 4.417 1.919 6.177 3.116l-3.427 6.287zm22.012-10.445h6.851l15.161 39.87h-7.974l-3.706-9.939H92.771l-3.649 9.939h-7.974l15.217-39.87zm8.928 24.483l-5.503-15.667-5.728 15.667h11.231zm17.464 15.387v-39.87h7.749v33.075h20.328v6.795h-28.077zm60.478-6.795v6.795H155.55v-39.87h27.179v6.795h-19.43v9.602h16.79v6.289h-16.79v10.388l19.936.001z" fill="#FFF"/></g></svg>