<?xml version="1.0" encoding="UTF-8" standalone="no"?>
<!-- Generator: Adobe Illustrator 17.0.0, SVG Export Plug-In . SVG Version: 6.00 Build 0)  -->

<svg
   xmlns:dc="http://purl.org/dc/elements/1.1/"
   xmlns:cc="http://creativecommons.org/ns#"
   xmlns:rdf="http://www.w3.org/1999/02/22-rdf-syntax-ns#"
   xmlns:svg="http://www.w3.org/2000/svg"
   xmlns="http://www.w3.org/2000/svg"
   xmlns:sodipodi="http://sodipodi.sourceforge.net/DTD/sodipodi-0.dtd"
   xmlns:inkscape="http://www.inkscape.org/namespaces/inkscape"
   version="1.1"
   id="Слой_1"
   sodipodi:docname="Сайт Визитка.svg"
   inkscape:version="0.91 r13725"
   x="0px"
   y="0px"
   width="171px"
   height="171px"
   viewBox="0 0 171 171"
   enable-background="new 0 0 171 171"
   xml:space="preserve"><metadata
     id="metadata55"><rdf:RDF><cc:Work
         rdf:about=""><dc:format>image/svg+xml</dc:format><dc:type
           rdf:resource="http://purl.org/dc/dcmitype/StillImage" /><dc:title></dc:title></cc:Work></rdf:RDF></metadata><defs
     id="defs53"><defs
       id="defs10"><filter
         height="113.156"
         width="131.25"
         y="52.038"
         x="33.234"
         filterUnits="userSpaceOnUse"
         id="Adobe_OpacityMaskFilter"><feColorMatrix
           id="feColorMatrix13"
           values="1 0 0 0 0  0 1 0 0 0  0 0 1 0 0  0 0 0 1 0"
           type="matrix" /></filter></defs><mask
       id="mask4244"
       height="113.156"
       width="131.25"
       y="52.038"
       x="33.234"
       maskUnits="userSpaceOnUse"><g
         filter="url(#Adobe_OpacityMaskFilter)"
         id="g4246"><circle
           r="74"
           cy="85.5"
           cx="85.5"
           fill="#177898"
           id="circle4248" /><path
           d="M85.515,11.5c-0.007,0.001-0.014,0.001-0.021,0.002     V159.5c0.007,0,0.014,0,0.021,0c40.86,0,73.984-33.131,73.984-74S126.376,11.5,85.515,11.5L85.515,11.5z"
           fill="#0F7289"
           inkscape:connector-curvature="0"
           id="path4250" /></g></mask></defs><sodipodi:namedview
     showguides="true"
     inkscape:cy="67.798016"
     inkscape:cx="-12.311642"
     inkscape:zoom="1.4142136"
     showgrid="false"
     guidetolerance="10"
     gridtolerance="10"
     objecttolerance="10"
     borderopacity="1"
     bordercolor="#666666"
     pagecolor="#ffffff"
     id="namedview61"
     inkscape:guide-bbox="true"
     inkscape:current-layer="Слой_1"
     inkscape:window-maximized="1"
     inkscape:window-y="-8"
     inkscape:window-x="-8"
     inkscape:window-height="801"
     inkscape:window-width="1536"
     inkscape:pageshadow="2"
     inkscape:pageopacity="0"><inkscape:grid
       type="xygrid"
       id="grid4289" /></sodipodi:namedview><g
     id="g4232" /><g
     id="g4235"><g
       id="g4228"
       style=""><circle
         style="fill:#d45b3e;fill-opacity:1"
         r="74"
         cy="85.5"
         cx="85.5"
         id="path4230" /><path
         style="fill:#c45237;fill-opacity:1"
         d="m 85.515,11.5 c -0.007,10e-4 -0.014,10e-4 -0.021,0.002 l 0,147.998 c 0.007,0 0.014,0 0.021,0 40.86,0 73.984,-33.131 73.984,-74 0,-40.869 -33.123,-74 -73.984,-74 l 0,0 z"
         inkscape:connector-curvature="0"
         id="path4278" /></g><path
       id="path4271"
       inkscape:connector-curvature="0"
       enable-background="new    "
       d="M 85.5,1 C 132.124,1 170,38.876 170,85.5 170,132.124 132.124,170 85.5,170 38.876,170 1,132.124 1,85.5 1,38.876 38.876,1 85.5,1 Z"
       style="opacity:0.2;fill:none;stroke:#ffffff" /><path
       id="path4236"
       sodipodi:nodetypes="ccccccccc"
       inkscape:connector-curvature="0"
       mask="url(#mask4244)"
       d="m 33.234,107.944 57.5,57.25 37.25,-7.25 29.5,-31.5 6.5,-32 0.5,-5 -38.688,-37.406 -78.813,59.406 -13.749,-3.5 z"
       style="fill:#b14731;fill-opacity:1" /><g
       id="g4347"
       transform="matrix(0.23057767,0,0,0.22940806,32.970039,33.430504)"><g
         id="g4277"><path
           id="path4279"
           inkscape:connector-curvature="0"
           d="m 426.629,106.047 0,218.537 -397.625,0 0,-218.537 c 0,-13.86 11.231,-25.102 25.102,-25.102 l 347.421,0 c 13.86,0 25.102,11.242 25.102,25.102"
           style="fill:#808080" /><polyline
           id="polyline4281"
           points="56.5,297.082 56.5,108.443 399.127,108.443 399.127,297.082 56.5,297.082         "
           style="fill:#ffffff" /><path
           id="path4283-0"
           inkscape:connector-curvature="0"
           d="m 321.415,144.274 -8.118,8.972 34.555,31.264 -113.79,0 34.555,-31.264 -8.118,-8.972 -48.869,44.215 22.538,92.821 22.714,0 68.152,0 22.714,0 22.538,-92.821 -48.871,-44.215 m -36.509,68.396 -25.037,0 -2.157,-16.06 27.195,0 0,16.06 m 12.099,-16.06 27.195,0 -2.157,16.06 -25.038,0 0,-16.06 m -49.345,16.06 -17.709,0 -3.899,-16.06 19.451,0 2.157,16.06 m -14.771,12.1 16.396,0 2.276,16.94 -14.559,0 -4.113,-16.94 m 28.604,0 23.412,0 0,16.94 -21.137,0 -2.275,-16.94 m 35.512,0 23.412,0 -2.275,16.94 -21.137,0 0,-16.94 m 35.621,0 16.396,0 -4.113,16.94 -14.559,0 2.276,-16.94 m 1.625,-12.1 2.157,-16.06 19.451,0 -3.9,16.06 -17.708,0 m -90.573,56.54 -3.739,-15.4 13.246,0 2.069,15.4 -11.576,0 m 21.716,-15.4 19.511,0 0,15.4 -17.443,0 -2.068,-15.4 m 31.611,15.4 0,-15.4 19.511,0 -2.069,15.4 -17.442,0 m 29.651,0 2.069,-15.4 13.246,0 -3.739,15.4 -11.576,0"
           style="fill:#29abe2" /><rect
           id="rect4285"
           x="76.435997"
           y="132.25999"
           width="117.7"
           height="26.4"
           style="fill:#cccccc" /><rect
           id="rect4287"
           x="76.435997"
           y="170.75999"
           width="117.7"
           height="108.552"
           style="fill:#e6e6e6" /><path
           id="path4289-1"
           inkscape:connector-curvature="0"
           d="m 401.527,80.945 -214.96,0 8.38,27.498 204.181,0 0,188.639 -146.693,0 7.772,25.502 166.423,0 0,-216.537 C 426.629,92.187 415.387,80.945 401.527,80.945"
           style="fill:#a9a9a9" /><path
           id="path4291-9"
           inkscape:connector-curvature="0"
           d="m 253.187,253.81 -13.246,0 2.719,11.196 1.281,4.204 11.315,0 -2.069,-15.4 m 31.719,0 -19.511,0 2.068,15.4 17.443,0 0,-15.4 m 31.611,0 -19.511,0 0,15.4 17.443,0 2.068,-15.4 m 25.455,0 -13.246,0 -2.069,15.4 11.576,0 3.739,-15.4 m -92.686,-29.04 -16.396,0 4.113,16.94 14.559,0 -2.276,-16.94 m 35.62,0 -23.412,0 2.276,16.94 21.137,0 0,-16.94 m 35.511,0 -23.412,0 0,16.94 21.137,0 2.275,-16.94 m 28.606,0 -16.396,0 -2.276,16.94 14.559,0 4.113,-16.94 m -103.52,-28.16 -19.451,0 3.899,16.06 17.709,0 -2.157,-16.06 m 39.402,0 -27.195,0 2.157,16.06 25.037,0 0,-16.06 m 39.296,0 -27.195,0 0,16.06 25.037,0 2.158,-16.06 m 31.66,0 -19.451,0 -2.157,16.06 17.709,0 3.899,-16.06 m 43.266,-88.167 -204.181,0 22.728,74.577 42.824,-38.746 8.118,8.972 -34.555,31.264 113.791,0 -34.555,-31.264 8.118,-8.972 48.869,44.215 -22.538,92.821 -22.714,0 -68.152,0 -9.253,0 4.807,15.772 146.693,0 0,-188.639"
           style="fill:#ffffff" /><path
           id="path4293"
           inkscape:connector-curvature="0"
           d="m 267.464,269.21 -2.068,-15.4 19.511,0 0,15.4 -17.443,0 m 29.542,0 0,-15.4 19.511,0 -2.069,15.4 -17.442,0 m 29.651,0 2.069,-15.4 13.246,0 -3.739,15.4 -11.576,0 m -89.654,-27.5 -4.113,-16.94 16.396,0 2.276,16.94 -14.559,0 m 26.767,0 -2.276,-16.94 23.412,0 0,16.94 -21.136,0 m 33.236,0 0,-16.94 23.412,0 -2.275,16.94 -21.137,0 m 33.345,0 2.276,-16.94 16.396,0 -4.113,16.94 -14.559,0 m -100.399,-29.04 -3.899,-16.06 19.451,0 2.157,16.06 -17.709,0 m 29.917,0 -2.157,-16.06 27.195,0 0,16.06 -25.038,0 m 37.137,0 0,-16.06 27.195,0 -2.157,16.06 -25.038,0 m 37.246,0 2.157,-16.06 19.451,0 -3.9,16.06 -17.708,0 m -12.837,-68.396 -8.118,8.972 34.555,31.264 -113.79,0 34.555,-31.264 -8.118,-8.972 -42.824,38.746 24.986,81.987 -2.719,-11.196 13.246,0 2.069,15.4 -11.315,0 3.688,12.1 9.253,0 68.152,0 22.714,0 22.538,-92.821 -48.872,-44.216"
           style="fill:#6ec6eb" /><path
           id="path4295"
           inkscape:connector-curvature="0"
           d="m 455.504,322.584 c 0,17.314 -14.036,31.35 -31.35,31.35 l -392.675,0 c -8.657,0 -16.489,-3.509 -22.165,-9.185 -5.676,-5.665 -9.185,-13.508 -9.185,-22.165 l 455.375,0"
           style="fill:#fc7a51" /><rect
           id="rect4297"
           x="40.275002"
           y="258.95999"
           width="92.261002"
           height="109.271"
           style="fill:#f9de58" /><rect
           id="rect4299"
           x="108.335"
           y="258.95999"
           width="24.200001"
           height="108.9"
           style="fill:#e0bf20" /><rect
           id="rect4301"
           x="40.275002"
           y="258.95999"
           width="12.1"
           height="108.9"
           style="fill:#e0bf20" /><rect
           id="rect4303"
           x="79.053001"
           y="353.92999"
           width="92.261002"
           height="19.070999"
           style="fill:#f9de58" /><rect
           id="rect4305"
           x="147.11301"
           y="353.92999"
           width="24.200001"
           height="19.006001"
           style="fill:#e0bf20" /><rect
           id="rect4307"
           x="79.053001"
           y="353.92999"
           width="12.1"
           height="19.006001"
           style="fill:#e0bf20" /><path
           id="path4309"
           inkscape:connector-curvature="0"
           d="m 455.504,322.584 -28.875,0 -166.422,0 -30.466,0 9.559,31.35 184.855,0 c 17.313,0 31.349,-14.036 31.349,-31.35"
           style="fill:#fda589" /></g><g
         id="g4311" /><g
         id="g4313" /><g
         id="g4315" /><g
         id="g4317" /><g
         id="g4319" /><g
         id="g4321" /><g
         id="g4323" /><g
         id="g4325" /><g
         id="g4327" /><g
         id="g4329" /><g
         id="g4331" /><g
         id="g4333" /><g
         id="g4335" /><g
         id="g4337" /><g
         id="g4339" /></g></g></svg>