<?xml version="1.0" encoding="UTF-8" standalone="no"?>
<!-- Generator: Adobe Illustrator 17.0.0, SVG Export Plug-In . SVG Version: 6.00 Build 0)  -->

<svg
   xmlns:dc="http://purl.org/dc/elements/1.1/"
   xmlns:cc="http://creativecommons.org/ns#"
   xmlns:rdf="http://www.w3.org/1999/02/22-rdf-syntax-ns#"
   xmlns:svg="http://www.w3.org/2000/svg"
   xmlns="http://www.w3.org/2000/svg"
   xmlns:sodipodi="http://sodipodi.sourceforge.net/DTD/sodipodi-0.dtd"
   xmlns:inkscape="http://www.inkscape.org/namespaces/inkscape"
   version="1.1"
   id="Слой_1"
   sodipodi:docname="Копирайтинг.svg"
   inkscape:version="0.91 r13725"
   x="0px"
   y="0px"
   width="171px"
   height="171px"
   viewBox="0 0 171 171"
   enable-background="new 0 0 171 171"
   xml:space="preserve"><metadata
     id="metadata12"><rdf:RDF><cc:Work
         rdf:about=""><dc:format>image/svg+xml</dc:format><dc:type
           rdf:resource="http://purl.org/dc/dcmitype/StillImage" /><dc:title></dc:title></cc:Work></rdf:RDF></metadata><defs
     id="defs10"><mask
       maskUnits="userSpaceOnUse"
       id="mask4272"><g
         id="g4275"><circle
           id="circle4277"
           cx="85.333"
           cy="85.972"
           r="74"
           style="fill:#d45b3e" /><path
           id="path4279"
           inkscape:connector-curvature="0"
           d="m 85.348,11.972 c -0.007,0.001 -0.014,0.001 -0.021,0.002 l 0,147.998 c 0.007,0 0.014,0 0.021,0 40.86,0 73.984,-33.131 73.984,-74 0,-40.869 -33.123,-74 -73.984,-74 0,0 0,0 0,0 z"
           style="fill:#c45237" /></g></mask></defs><sodipodi:namedview
     showguides="false"
     inkscape:cy="20.729726"
     inkscape:cx="63.909245"
     inkscape:zoom="1.4142136"
     showgrid="false"
     guidetolerance="10"
     gridtolerance="10"
     objecttolerance="10"
     borderopacity="1"
     bordercolor="#666666"
     pagecolor="#ffffff"
     id="namedview61"
     inkscape:guide-bbox="true"
     inkscape:current-layer="Слой_1"
     inkscape:window-maximized="1"
     inkscape:window-y="-8"
     inkscape:window-x="-8"
     inkscape:window-height="801"
     inkscape:window-width="1536"
     inkscape:pageshadow="2"
     inkscape:pageopacity="0"><inkscape:grid
       type="xygrid"
       id="grid4289" /></sodipodi:namedview><g
     id="g4281"><g
       id="g4274"><circle
         id="path4230"
         cx="85.333"
         cy="85.972"
         r="74"
         style="fill:#d45b3e" /><path
         id="path4278"
         inkscape:connector-curvature="0"
         d="m 85.348,11.972 c -0.007,0.001 -0.014,0.001 -0.021,0.002 l 0,147.998 c 0.007,0 0.014,0 0.021,0 40.86,0 73.984,-33.131 73.984,-74 0,-40.869 -33.123,-74 -73.984,-74 0,0 0,0 0,0 z"
         style="fill:#c45237" /></g><path
       id="path4271"
       inkscape:connector-curvature="0"
       enable-background="new    "
       d="m 85.583,1.222 c 46.624,0 84.5,37.876 84.5,84.5 0,46.624 -37.876,84.5 -84.5,84.5 -46.624,0 -84.5,-37.876 -84.5,-84.5 0,-46.624 37.876,-84.5 84.5,-84.5 z"
       style="opacity:0.2;fill:none;stroke:#ffffff" /><path
       mask="url(#mask4272)"
       sodipodi:nodetypes="ccccccccc"
       inkscape:connector-curvature="0"
       id="path4264"
       d="m 36.873105,105.93147 60.442463,59.67684 40.216702,-13.52342 17.85444,-24.2184 8.66206,-21.74354 1.41421,-11.313704 L 124.13232,52.658269 51.442017,110.3656 Z"
       style="fill:#b14731;fill-opacity:1;fill-rule:evenodd;stroke:none;stroke-width:1px;stroke-linecap:butt;stroke-linejoin:miter;stroke-opacity:1" /><g
       transform="matrix(0.21389256,0,0,0.21389256,36.848904,37.487904)"
       id="g4221"><g
         id="g4141"><rect
           x="50.16"
           y="93.910004"
           style="fill:#afdaf9"
           width="353.04001"
           height="200.02"
           id="rect4143" /><path
           inkscape:connector-curvature="0"
           style="fill:#cccccc"
           d="m 426.2,89.19 0,227.74 -71.75,0 c -0.91,-7.75 -2.18,-15.41 -3.81,-23 l 52.56,0 0,-200.02 -353.04,0 0,200.02 55.92,0 c -1.62,7.59 -2.9,15.25 -3.79,23 l -75.13,0 0,-227.74 c 0,-10.1 8.18,-18.28 18.28,-18.28 l 362.48,0 c 10.09,0 18.28,8.18 18.28,18.28 z"
           id="path4145" /><path
           inkscape:connector-curvature="0"
           style="fill:#b3b3b3"
           d="m 453.35,316.94 c 0,20.71 -16.79,37.5 -37.5,37.5 l -60.2,0 c 0.68,-12.72 0.22,-25.21 -1.2,-37.5 l 98.9,0 z"
           id="path4147" /><path
           inkscape:connector-curvature="0"
           style="fill:#b3b3b3"
           d="m 101.07,354.44 -63.57,0 c -10.36,0 -19.73,-4.2 -26.52,-10.98 C 4.2,336.67 0,327.3 0,316.94 l 102.28,0 c -1.43,12.29 -1.89,24.78 -1.21,37.5 z"
           id="path4149" /><rect
           x="177.179"
           y="131.63"
           style="fill:#4d4d4d"
           width="98.996002"
           height="15"
           id="rect4151" /><rect
           x="138.181"
           y="155.629"
           style="fill:#4d4d4d"
           width="176.992"
           height="15"
           id="rect4153" /><path
           inkscape:connector-curvature="0"
           style="opacity:0.23000004;fill:#808080;enable-background:new"
           d="m 102.28,316.94 c -1.43,12.29 -1.89,24.78 -1.21,37.5 l -20.185,0 14.435,-37.5 6.96,0 z"
           id="path4155" /><path
           inkscape:connector-curvature="0"
           style="opacity:0.23000004;fill:#808080;enable-background:new"
           d="m 355.65,354.44 c 0.68,-12.72 0.22,-25.21 -1.2,-37.5 l 6.95,0 14.435,37.5 -20.185,0 z"
           id="path4157" /><path
           inkscape:connector-curvature="0"
           style="opacity:0.23000004;fill:#808080;enable-background:new"
           d="m 128.17,228.44 c 0,0 -38.203,64.175 -40.157,88.5 l 57.333,0"
           id="path4159" /><g
           id="g4161"><path
             inkscape:connector-curvature="0"
             style="opacity:0.23000004;fill:#f2f2f2;enable-background:new"
             d="m 426.2,89.19 0,227.74 -187.82,0 11.97,-23 104.09,-200.02 11.97,-23 41.51,0 c 10.1,0 18.28,8.18 18.28,18.28 z"
             id="path4163" /><path
             inkscape:connector-curvature="0"
             style="opacity:0.23000004;fill:#f2f2f2;enable-background:new"
             d="m 126.68,70.91 -99.52,192.72 0,-174.44 c 0,-10.1 8.19,-18.28 18.28,-18.28 l 81.24,0 z"
             id="path4165" /></g><g
           id="g4167"><path
             inkscape:connector-curvature="0"
             style="opacity:0.23000004;fill:#f2f2f2;enable-background:new"
             d="m 453.35,316.93 c 0,11.27 -4.98,21.39 -12.85,28.26 l -121.58,0 14.7,-28.26 119.73,0 z"
             id="path4169" /></g><path
           inkscape:connector-curvature="0"
           style="opacity:0.23000004;fill:#808080;enable-background:new"
           d="m 328.55,228.44 c 0,0 38.203,64.175 40.157,88.5 l -57.333,0"
           id="path4171" /><path
           inkscape:connector-curvature="0"
           style="fill:#e6e6e6"
           d="m 354.45,316.94 c 1.42,12.29 1.88,24.78 1.2,37.5 -0.47,9.21 -1.55,18.54 -3.29,28 l -248,0 c -1.74,-9.46 -2.81,-18.79 -3.29,-28 -0.68,-12.72 -0.22,-25.21 1.21,-37.5 l 0.01,0 0,-0.01 c 0.89,-7.75 2.17,-15.41 3.79,-23 3.16,-14.85 7.61,-29.41 13.04,-43.7 2.78,-7.33 5.81,-14.59 9.05,-21.79 l 200.38,0 c 3.24,7.2 6.28,14.46 9.05,21.79 5.43,14.29 9.89,28.85 13.04,43.7 1.63,7.59 2.9,15.25 3.81,23 -0.01,0.01 0,0.01 0,0.01 z"
           id="path4173" /><g
           id="g4175"><path
             inkscape:connector-curvature="0"
             style="fill:#4d4d4d"
             d="m 312.843,272.736 -168.955,0 c 1.114,-3.673 2.349,-7.309 3.672,-10.931 l 161.6,0 c 1.334,3.621 2.558,7.265 3.683,10.931 z"
             id="path4177" /><path
             inkscape:connector-curvature="0"
             style="fill:#4d4d4d"
             d="m 318.158,297.682 -179.596,0 c 0.209,-1.249 0.441,-2.481 0.673,-3.722 0.541,-2.856 1.136,-5.697 1.787,-8.52 l 174.688,0 c 0.639,2.832 1.235,5.664 1.775,8.52 0.243,1.241 0.464,2.473 0.673,3.722 z"
             id="path4179" /><path
             inkscape:connector-curvature="0"
             style="fill:#4d4d4d"
             d="m 320.97,327.38 -185.21,0 c 0.177,-3.5 0.408,-6.98 0.706,-10.44 l 0.011,0 0,-0.01 c 0.121,-1.52 0.265,-3.04 0.408,-4.55 l 182.949,0 c 0.166,1.51 0.298,3.03 0.43,4.55 l 0,0.01 c 0.287,3.47 0.53,6.95 0.706,10.44 z"
             id="path4181" /><path
             inkscape:connector-curvature="0"
             style="fill:#4d4d4d"
             d="m 278.689,341.27 c 0.012,4.36 -0.024,8.75 -0.119,13.17 -0.012,0.61 -0.024,1.22 -0.042,1.83 l -100.336,0 c -0.018,-0.61 -0.03,-1.22 -0.042,-1.83 -0.095,-4.42 -0.131,-8.81 -0.119,-13.17 l 100.658,0 z"
             id="path4183" /></g></g><g
         id="g4185" /><g
         id="g4187" /><g
         id="g4189" /><g
         id="g4191" /><g
         id="g4193" /><g
         id="g4195" /><g
         id="g4197" /><g
         id="g4199" /><g
         id="g4201" /><g
         id="g4203" /><g
         id="g4205" /><g
         id="g4207" /><g
         id="g4209" /><g
         id="g4211" /><g
         id="g4213" /></g></g></svg>