<?xml version="1.0" encoding="UTF-8" standalone="no"?>
<!-- Generator: Adobe Illustrator 17.0.0, SVG Export Plug-In . SVG Version: 6.00 Build 0)  -->

<svg
   xmlns:dc="http://purl.org/dc/elements/1.1/"
   xmlns:cc="http://creativecommons.org/ns#"
   xmlns:rdf="http://www.w3.org/1999/02/22-rdf-syntax-ns#"
   xmlns:svg="http://www.w3.org/2000/svg"
   xmlns="http://www.w3.org/2000/svg"
   xmlns:sodipodi="http://sodipodi.sourceforge.net/DTD/sodipodi-0.dtd"
   xmlns:inkscape="http://www.inkscape.org/namespaces/inkscape"
   version="1.1"
   id="Слой_1"
   sodipodi:docname="Рерайтинг.svg"
   inkscape:version="0.91 r13725"
   x="0px"
   y="0px"
   width="171px"
   height="171px"
   viewBox="0 0 171 171"
   enable-background="new 0 0 171 171"
   xml:space="preserve"><metadata
     id="metadata12"><rdf:RDF><cc:Work
         rdf:about=""><dc:format>image/svg+xml</dc:format><dc:type
           rdf:resource="http://purl.org/dc/dcmitype/StillImage" /><dc:title></dc:title></cc:Work></rdf:RDF></metadata><defs
     id="defs10"><mask
       maskUnits="userSpaceOnUse"
       id="mask4263"><g
         id="g4265"><circle
           id="circle4267"
           cx="85.333"
           cy="85.972"
           r="74"
           style="fill:#d45b3e" /><path
           id="path4269"
           inkscape:connector-curvature="0"
           d="m 85.348,11.972 c -0.007,0.001 -0.014,0.001 -0.021,0.002 l 0,147.998 c 0.007,0 0.014,0 0.021,0 40.86,0 73.984,-33.131 73.984,-74 0,-40.869 -33.123,-74 -73.984,-74 0,0 0,0 0,0 z"
           style="fill:#c45237" /></g></mask></defs><sodipodi:namedview
     showguides="false"
     inkscape:cy="22.240375"
     inkscape:cx="63.112544"
     inkscape:zoom="1"
     showgrid="false"
     guidetolerance="10"
     gridtolerance="10"
     objecttolerance="10"
     borderopacity="1"
     bordercolor="#666666"
     pagecolor="#ffffff"
     id="namedview61"
     inkscape:guide-bbox="true"
     inkscape:current-layer="Слой_1"
     inkscape:window-maximized="1"
     inkscape:window-y="-8"
     inkscape:window-x="-8"
     inkscape:window-height="801"
     inkscape:window-width="1536"
     inkscape:pageshadow="2"
     inkscape:pageopacity="0"><inkscape:grid
       type="xygrid"
       id="grid4289" /></sodipodi:namedview><g
     id="g4271"><g
       id="g4274"><circle
         id="path4230"
         cx="85.333"
         cy="85.972"
         r="74"
         style="fill:#d45b3e" /><path
         id="path4278"
         inkscape:connector-curvature="0"
         d="m 85.348,11.972 c -0.007,0.001 -0.014,0.001 -0.021,0.002 l 0,147.998 c 0.007,0 0.014,0 0.021,0 40.86,0 73.984,-33.131 73.984,-74 0,-40.869 -33.123,-74 -73.984,-74 0,0 0,0 0,0 z"
         style="fill:#c45237" /></g><path
       id="path4271"
       inkscape:connector-curvature="0"
       enable-background="new    "
       d="m 85.583,1.222 c 46.624,0 84.5,37.876 84.5,84.5 0,46.624 -37.876,84.5 -84.5,84.5 -46.624,0 -84.5,-37.876 -84.5,-84.5 0,-46.624 37.876,-84.5 84.5,-84.5 z"
       style="opacity:0.2;fill:none;stroke:#ffffff" /><path
       mask="url(#mask4263)"
       sodipodi:nodetypes="cccccccccc"
       inkscape:connector-curvature="0"
       id="path4255"
       d="m 36.835843,111.16109 54.204153,55.41949 34.117904,-10.78338 24.74873,-21.2132 11.31371,-17.32411 3.18198,-28.637828 -0.35355,-6.010407 -0.70711,-5.656854 -29.52462,-32.343318 z"
       style="fill:#b14731;fill-opacity:1;fill-rule:evenodd;stroke:none;stroke-width:1px;stroke-linecap:butt;stroke-linejoin:miter;stroke-opacity:1" /><g
       transform="matrix(0.21124204,0,0,0.21124204,36.825491,37.464491)"
       id="g4219"><g
         id="g4145"><polygon
           style="fill:#666666"
           points="215.88,383.419 223.56,417.919 154.7,417.919 162.38,383.419 166.05,366.919 212.2,366.919 "
           id="polygon4147" /><path
           inkscape:connector-curvature="0"
           style="fill:#b3b3b3"
           d="m 378.26,292.029 0,57.69 c 0,9.5 -7.7,17.2 -17.2,17.2 l -343.86,0 c -9.5,0 -17.2,-7.7 -17.2,-17.2 l 0,-227.79 c 0,-9.5 7.7,-17.2 17.2,-17.2 l 61.8,0 0,23 -56,0 0,216.19 332.26,0 0,-51.89 23,0 z"
           id="path4149" /><polygon
           style="fill:#4d4d4d"
           points="212.2,366.919 215.88,383.419 162.38,383.419 166.05,366.919 "
           id="polygon4151" /><rect
           x="362.29001"
           y="83.539001"
           style="fill:#b3b3b3"
           width="74.07"
           height="143.49001"
           id="rect4153" /><rect
           x="256.14001"
           y="83.539001"
           style="fill:#b3b3b3"
           width="74.07"
           height="143.49001"
           id="rect4155" /><rect
           x="149.99001"
           y="83.539001"
           style="fill:#b3b3b3"
           width="74.07"
           height="143.49001"
           id="rect4157" /><polygon
           style="fill:#afdaf9"
           points="79,292.029 355.26,292.029 355.26,343.919 23,343.919 23,127.729 79,127.729 "
           id="polygon4159" /><path
           inkscape:connector-curvature="0"
           style="fill:#e6e6e6"
           d="m 126.99,60.539 0,189.49 332.27,0 0,-189.49 -332.27,0 z m 97.07,166.49 -74.07,0 0,-143.49 74.07,0 0,143.49 z m 106.15,0 -74.07,0 0,-143.49 74.07,0 0,143.49 z m 106.15,0 -74.07,0 0,-143.49 74.07,0 0,143.49 z"
           id="path4161" /><rect
           x="126.99"
           y="33.839001"
           style="fill:#88c5fc"
           width="332.26999"
           height="26.700001"
           id="rect4163" /><rect
           x="126.035"
           y="410.42099"
           style="fill:#b3b3b3"
           width="126.181"
           height="15"
           id="rect4165" /><path
           inkscape:connector-curvature="0"
           style="opacity:0.23000004;fill:#f2f2f2;enable-background:new"
           d="m 378.26,292.029 0,57.69 c 0,9.5 -7.7,17.2 -17.2,17.2 l -159.23,0 38.973,-74.89 137.457,0 z"
           id="path4167" /><path
           inkscape:connector-curvature="0"
           style="opacity:0.23000004;fill:#f2f2f2;enable-background:new"
           d="M 88.31,125.879 0,295.589 0,121.929 c 0,-9.5 7.7,-17.2 17.2,-17.2 l 61.8,0 9.31,21.15 z"
           id="path4169" /><polygon
           style="fill:#f9a18a"
           points="126.99,250.029 411.26,250.029 411.26,292.029 79,292.029 79,75.839 126.99,75.839 "
           id="polygon4171" /><path
           inkscape:connector-curvature="0"
           style="opacity:0.23000004;fill:#808080;enable-background:new"
           d="m 126.99,250.029 0,-174.19 -15,0 0,189.19 299.27,0 0,-15 -284.27,0 0,0 z"
           id="path4173" /><polygon
           style="opacity:0.23000004;fill:#808080;enable-background:new"
           points="79,292.029 378.26,292.029 378.26,307.029 64,307.029 64,104.729 79,104.729 "
           id="polygon4175" /><g
           id="g4177"><polygon
             style="opacity:0.23000004;fill:#f2f2f2;enable-background:new"
             points="333.85,250.029 335.35,247.139 362.29,195.369 420.49,83.539 432.46,60.539 439.44,47.119 446.35,33.839 459.26,33.839 459.26,250.029 "
             id="polygon4179" /><polygon
             style="opacity:0.23000004;fill:#f2f2f2;enable-background:new"
             points="126.99,33.839 206.66,33.839 192.87,60.539 181,83.539 149.99,143.579 126.99,188.119 "
             id="polygon4181" /></g></g><g
         id="g4183" /><g
         id="g4185" /><g
         id="g4187" /><g
         id="g4189" /><g
         id="g4191" /><g
         id="g4193" /><g
         id="g4195" /><g
         id="g4197" /><g
         id="g4199" /><g
         id="g4201" /><g
         id="g4203" /><g
         id="g4205" /><g
         id="g4207" /><g
         id="g4209" /><g
         id="g4211" /></g></g></svg>