<svg xmlns="http://www.w3.org/2000/svg" width="171" height="171" viewBox="0 0 171 171"><defs><mask maskUnits="userSpaceOnUse" id="a"><g transform="translate(.5 -.5)"><circle cx="85.333" cy="85.972" r="74" fill="#d45b3e"/><path d="M85.348 11.972l-.021.002v147.998h.021c40.86 0 73.984-33.131 73.984-74s-33.123-74-73.984-74z" fill="#c45237"/></g></mask></defs><path d="M85.833.472c46.9 0 85 38.1 85 85s-38.1 85-85 85-85-38.1-85-85 38.1-85 85-85z" fill="#0b2848"/><path d="M85.833.972c46.624 0 84.5 37.876 84.5 84.5s-37.876 84.5-84.5 84.5-84.5-37.876-84.5-84.5 37.876-84.5 84.5-84.5z" opacity=".2" fill="none" stroke="#fff"/><g transform="translate(.5 -.5)"><circle cx="85.333" cy="85.972" r="74" fill="#d45b3e"/><path d="M85.348 11.972l-.021.002v147.998h.021c40.86 0 73.984-33.131 73.984-74s-33.123-74-73.984-74z" fill="#c45237"/></g><path mask="url(#a)" d="M39.164 112.656l52.711 52.969L122 156.5l22.25-18 18-26.5L165 96.75V92l-37.719-39.437z" fill="#b14731" fill-rule="evenodd"/><path d="M129.045 54.977h-84.55a3.466 3.466 0 0 0-3.466 3.465v56.478a3.466 3.466 0 0 0 3.466 3.466h84.55a3.466 3.466 0 0 0 3.466-3.466V58.442a3.466 3.466 0 0 0-3.466-3.465z" fill="#ccc"/><path d="M39.155 61.294v51.208a3.466 3.466 0 0 0 3.466 3.465h84.55a3.466 3.466 0 0 0 3.466-3.465V61.294H39.155zm27.88 50.039H43.79V80.727h23.245v30.606zm58.967 0H72.53V80.727h53.472v30.606zm0-35.406H43.79V65.876h82.212v10.051z" fill="#e6e6e6"/><path d="M130.637 56.025v5.269H39.155v-5.27a3.466 3.466 0 0 1 3.466-3.465h84.55a3.466 3.466 0 0 1 3.466 3.466z" fill="#88c5fc"/><path fill="#f9a18a" d="M72.53 80.727h53.472v30.606H72.53z"/><path fill="#b3b3b3" d="M43.79 65.876h82.212v10.05H43.79zm0 14.851h23.245v30.606H43.79z"/><path d="M91.545 58.438H53.663a1.511 1.511 0 0 1 0-3.023h37.882a1.511 1.511 0 0 1 0 3.023z" fill="#f2f2f2"/><path d="M48.626 58.439a1.53 1.53 0 0 1-1.07-.444 1.528 1.528 0 0 1-.442-1.07c0-.397.162-.786.442-1.068.282-.28.67-.44 1.07-.44.397 0 .786.16 1.068.44.282.282.443.671.443 1.068 0 .4-.161.788-.443 1.07a1.53 1.53 0 0 1-1.068.444z" fill="#4d4d4d"/><path d="M43.79 58.437c-.4 0-.788-.162-1.07-.442a1.528 1.528 0 0 1-.442-1.07c0-.397.162-.786.442-1.068a1.522 1.522 0 0 1 1.07-.443c.397 0 .786.161 1.068.443.282.282.443.671.443 1.068 0 .4-.161.788-.443 1.07-.282.28-.671.442-1.068.442z" fill="#f9a18a"/><path fill="#4d4d4d" d="M47.994 85.171H62.83v3.023H47.994zm0 6.046H62.83v3.022H47.994zm0 6.045H62.83v3.022H47.994zm0 6.045H62.83v3.022H47.994z"/><path d="M130.637 56.025v56.477a3.466 3.466 0 0 1-3.466 3.465H78.425l32.996-63.408h15.75a3.466 3.466 0 0 1 3.466 3.466zM63.27 52.559l-4.545 8.735-2.384 4.582-5.23 10.05-2.497 4.8-4.824 9.27-4.635 8.906V56.025a3.466 3.466 0 0 1 3.466-3.466h20.65z" opacity=".23" fill="#f2f2f2"/></svg>