<?xml version="1.0" encoding="UTF-8" standalone="no"?>
<!-- Generator: Adobe Illustrator 17.0.0, SVG Export Plug-In . SVG Version: 6.00 Build 0)  -->

<svg
   xmlns:dc="http://purl.org/dc/elements/1.1/"
   xmlns:cc="http://creativecommons.org/ns#"
   xmlns:rdf="http://www.w3.org/1999/02/22-rdf-syntax-ns#"
   xmlns:svg="http://www.w3.org/2000/svg"
   xmlns="http://www.w3.org/2000/svg"
   xmlns:sodipodi="http://sodipodi.sourceforge.net/DTD/sodipodi-0.dtd"
   xmlns:inkscape="http://www.inkscape.org/namespaces/inkscape"
   version="1.1"
   id="Слой_1"
   sodipodi:docname="what_content_we_are_creating_img5.svg"
   inkscape:version="0.91 r13725"
   x="0px"
   y="0px"
   width="171px"
   height="171px"
   viewBox="0 0 171 171"
   enable-background="new 0 0 171 171"
   xml:space="preserve"><metadata
     id="metadata12"><rdf:RDF><cc:Work
         rdf:about=""><dc:format>image/svg+xml</dc:format><dc:type
           rdf:resource="http://purl.org/dc/dcmitype/StillImage" /><dc:title /></cc:Work></rdf:RDF></metadata><defs
     id="defs10"><mask
       id="mask4751"
       maskUnits="userSpaceOnUse"><g
         id="g4753"><circle
           style="fill:#d45b3e"
           r="74"
           cy="85.972"
           cx="85.333"
           id="circle4755" /><path
           style="fill:#c45237"
           d="m 85.348,11.972 c -0.007,0.001 -0.014,0.001 -0.021,0.002 l 0,147.998 c 0.007,0 0.014,0 0.021,0 40.86,0 73.984,-33.131 73.984,-74 0,-40.869 -33.123,-74 -73.984,-74 0,0 0,0 0,0 z"
           inkscape:connector-curvature="0"
           id="path4757" /></g></mask><mask
       maskUnits="userSpaceOnUse"
       id="mask4795"><g
         id="g4797"><circle
           id="circle4799"
           cx="85.333"
           cy="85.972"
           r="74"
           style="fill:#d45b3e" /><path
           id="path4801"
           inkscape:connector-curvature="0"
           d="m 85.348,11.972 c -0.007,0.001 -0.014,0.001 -0.021,0.002 l 0,147.998 c 0.007,0 0.014,0 0.021,0 40.86,0 73.984,-33.131 73.984,-74 0,-40.869 -33.123,-74 -73.984,-74 0,0 0,0 0,0 z"
           style="fill:#c45237" /></g></mask><mask
       maskUnits="userSpaceOnUse"
       id="mask4240"><g
         transform="translate(0.49999982,-0.25000006)"
         id="g4242"><circle
           id="circle4244"
           cx="85.333"
           cy="85.972"
           r="74"
           style="fill:#d45b3e" /><path
           id="path4246"
           inkscape:connector-curvature="0"
           d="m 85.348,11.972 c -0.007,0.001 -0.014,0.001 -0.021,0.002 l 0,147.998 c 0.007,0 0.014,0 0.021,0 40.86,0 73.984,-33.131 73.984,-74 0,-40.869 -33.123,-74 -73.984,-74 0,0 0,0 0,0 z"
           style="fill:#c45237" /></g></mask></defs><sodipodi:namedview
     showguides="false"
     inkscape:cy="-11.063411"
     inkscape:cx="71.264418"
     inkscape:zoom="1.4142136"
     showgrid="false"
     guidetolerance="10"
     gridtolerance="10"
     objecttolerance="10"
     borderopacity="1"
     bordercolor="#666666"
     pagecolor="#ffffff"
     id="namedview61"
     inkscape:guide-bbox="true"
     inkscape:current-layer="Слой_1"
     inkscape:window-maximized="1"
     inkscape:window-y="-8"
     inkscape:window-x="-8"
     inkscape:window-height="801"
     inkscape:window-width="1536"
     inkscape:pageshadow="2"
     inkscape:pageopacity="0"><inkscape:grid
       type="xygrid"
       id="grid4289" /></sodipodi:namedview><g
     id="g4248"><g
       transform="translate(0,0.25)"
       id="g4228"><path
         id="path4226"
         inkscape:connector-curvature="0"
         enable-background="new    "
         d="m 85.833,0.472 c 46.89988,0 85,38.100118 85,85 0,46.89988 -38.10012,85 -85,85 -46.899882,0 -85,-38.10012 -85,-85 0,-46.899882 38.100118,-85 85,-85 z"
         style="opacity:1;fill:#0b2848;fill-opacity:1;stroke:none" /><path
         style="opacity:0.2;fill:none;stroke:#ffffff"
         d="m 85.833,0.972 c 46.624,0 84.5,37.876 84.5,84.5 0,46.624 -37.876,84.5 -84.5,84.5 -46.624,0 -84.5,-37.876 -84.5,-84.5 0,-46.624 37.876,-84.5 84.5,-84.5 z"
         enable-background="new    "
         inkscape:connector-curvature="0"
         id="path4271" /></g><g
       transform="translate(0.49999982,-0.25000006)"
       id="g4274"><circle
         id="path4230"
         cx="85.333"
         cy="85.972"
         r="74"
         style="fill:#d45b3e" /><path
         id="path4278"
         inkscape:connector-curvature="0"
         d="m 85.348,11.972 c -0.007,0.001 -0.014,0.001 -0.021,0.002 l 0,147.998 c 0.007,0 0.014,0 0.021,0 40.86,0 73.984,-33.131 73.984,-74 0,-40.869 -33.123,-74 -73.984,-74 0,0 0,0 0,0 z"
         style="fill:#c45237" /></g><path
       mask="url(#mask4240)"
       sodipodi:nodetypes="ccccccccc"
       inkscape:connector-curvature="0"
       id="path4232"
       d="M 38.846621,107.98614 95.375,164.625 118.75,160.25 145,139.5 l 14.25,-23.25 6.75,-19 -1.5,-15.5 -36.47227,-33.382583 z"
       style="fill:#b14731;fill-opacity:1;fill-rule:evenodd;stroke:none;stroke-width:1px;stroke-linecap:butt;stroke-linejoin:miter;stroke-opacity:1" /><g
       transform="translate(-12.312149,-2.7765018)"
       id="g4749"><polygon
         id="polygon4147"
         points="223.56,417.919 154.7,417.919 162.38,383.419 166.05,366.919 212.2,366.919 215.88,383.419 "
         style="fill:#666666"
         transform="matrix(0.20382368,0,0,0.20382368,51.146522,39.166763)" /><path
         id="path4149"
         d="m 128.24487,98.689189 0,11.758591 c 0,1.93632 -1.56944,3.50576 -3.50577,3.50576 l -70.086806,0 c -1.936325,0 -3.505767,-1.56944 -3.505767,-3.50576 l 0,-46.428998 c 0,-1.936325 1.569442,-3.505767 3.505767,-3.505767 l 12.596303,0 0,4.687944 -11.414126,0 0,44.064641 67.722459,0 0,-10.576411 4.68794,0 z"
         style="fill:#b3b3b3"
         inkscape:connector-curvature="0" /><polygon
         id="polygon4151"
         points="215.88,383.419 162.38,383.419 166.05,366.919 212.2,366.919 "
         style="fill:#4d4d4d"
         transform="matrix(0.20382368,0,0,0.20382368,51.146522,39.166763)" /><polygon
         id="polygon4159"
         points="355.26,292.029 355.26,343.919 23,343.919 23,127.729 79,127.729 79,292.029 "
         style="fill:#afdaf9"
         transform="matrix(0.20382368,0,0,0.20382368,51.146522,39.166763)" /><rect
         id="rect4165"
         height="3.0573552"
         width="25.718676"
         style="fill:#b3b3b3"
         y="122.82028"
         x="76.835449" /><path
         id="path4167"
         d="m 128.24487,98.689189 0,11.758591 c 0,1.93632 -1.56944,3.50576 -3.50577,3.50576 l -32.45484,0 7.94362,-15.264351 28.01699,0 z"
         style="opacity:0.23000004;fill:#f2f2f2;enable-background:new"
         inkscape:connector-curvature="0" /><path
         id="path4169"
         d="m 69.146196,64.823886 -17.999669,34.590915 0,-35.396019 c 0,-1.936325 1.569442,-3.505767 3.505767,-3.505767 l 12.596303,0 1.897599,4.310871 z"
         style="opacity:0.23000004;fill:#f2f2f2;enable-background:new"
         inkscape:connector-curvature="0" /><g
         id="g4727"><polygon
           transform="matrix(0.20382368,0,0,0.20382368,51.146522,39.166763)"
           style="opacity:0.23000004;fill:#808080;enable-background:new"
           points="378.26,292.029 378.26,307.029 64,307.029 64,104.729 79,104.729 79,292.029 "
           id="polygon4175" /><path
           inkscape:connector-curvature="0"
           style="fill:#cccccc"
           d="m 128.82467,56.474757 -62.199267,0 c -1.40823,0 -2.549637,1.141407 -2.549637,2.549637 l 0,3.876336 0,37.67088 c 0,1.40823 1.141407,2.54963 2.549637,2.54963 l 62.199267,0 c 1.40823,0 2.54964,-1.1414 2.54964,-2.54963 l 0,-37.67088 0,-3.876336 c -1.5e-4,-1.40823 -1.14141,-2.549637 -2.54964,-2.549637 z"
           id="path4310" /><path
           inkscape:connector-curvature="0"
           style="fill:#e6e6e6"
           d="m 62.697184,61.122062 0,37.670877 c 0,1.408231 1.141407,2.549641 2.549636,2.549641 l 62.19927,0 c 1.40823,0 2.54963,-1.14141 2.54963,-2.549641 l 0,-37.670877 -67.298536,0 z m 20.509749,36.810968 -17.100352,0 0,-22.515364 17.100352,0 0,22.515364 z m 43.379397,0 -39.337038,0 0,-22.515364 39.337038,0 0,22.515364 z m 0,-26.046166 -60.479749,0 0,-7.394093 60.479749,0 0,7.394093 z"
           id="path4312" /><path
           inkscape:connector-curvature="0"
           style="fill:#88c5fc"
           d="m 129.99572,57.245726 0,3.876336 -67.298536,0 0,-3.876336 c 0,-1.408229 1.141407,-2.549636 2.549636,-2.549636 l 62.19927,0 c 1.40823,0 2.54963,1.141407 2.54963,2.549636 z"
           id="path4314" /><rect
           x="87.24929"
           y="75.417816"
           style="fill:#f9a18a"
           width="39.337032"
           height="22.515364"
           id="rect4316" /><rect
           x="66.106583"
           y="64.492767"
           style="fill:#b3b3b3"
           width="60.479744"
           height="7.3939457"
           id="rect4318" /><rect
           x="66.106583"
           y="75.417816"
           style="fill:#b3b3b3"
           width="17.100351"
           height="22.515364"
           id="rect4320" /><path
           inkscape:connector-curvature="0"
           style="fill:#f2f2f2"
           d="m 101.23775,59.020836 -27.868114,0 c -0.613988,0 -1.11176,-0.497772 -1.11176,-1.11176 0,-0.613988 0.497772,-1.11176 1.11176,-1.11176 l 27.868114,0 c 0.61399,0 1.11176,0.497772 1.11176,1.11176 0,0.613988 -0.49777,1.11176 -1.11176,1.11176 z"
           id="path4322" /><path
           inkscape:connector-curvature="0"
           style="fill:#4d4d4d"
           d="m 69.664213,59.021577 c -0.293504,0 -0.579597,-0.12007 -0.787126,-0.326116 -0.206046,-0.207529 -0.324634,-0.493622 -0.324634,-0.787126 0,-0.292022 0.118588,-0.578115 0.324634,-0.785644 0.207529,-0.206046 0.493622,-0.324634 0.787126,-0.324634 0.292023,0 0.578116,0.118588 0.785644,0.324634 0.207529,0.207529 0.326117,0.493622 0.326117,0.785644 0,0.293504 -0.118588,0.579597 -0.326117,0.787126 -0.207528,0.206046 -0.493621,0.326116 -0.785644,0.326116 z"
           id="path4324" /><path
           inkscape:connector-curvature="0"
           style="fill:#f9a18a"
           d="m 66.106581,59.020095 c -0.293504,0 -0.579597,-0.118588 -0.787126,-0.324634 -0.206046,-0.207529 -0.324634,-0.493622 -0.324634,-0.787126 0,-0.292022 0.118588,-0.578115 0.324634,-0.785644 0.207529,-0.207528 0.493622,-0.326116 0.787126,-0.326116 0.292023,0 0.578116,0.118588 0.785644,0.326116 0.207529,0.207529 0.326116,0.493622 0.326116,0.785644 0,0.293504 -0.118587,0.579597 -0.326116,0.787126 -0.207528,0.206046 -0.493621,0.324634 -0.785644,0.324634 z"
           id="path4326" /><rect
           x="69.199348"
           y="78.687576"
           style="fill:#4d4d4d"
           width="10.914964"
           height="2.22352"
           id="rect4328" /><rect
           x="69.199348"
           y="83.134613"
           style="fill:#4d4d4d"
           width="10.914964"
           height="2.22352"
           id="rect4330" /><rect
           x="69.199348"
           y="87.581657"
           style="fill:#4d4d4d"
           width="10.914964"
           height="2.22352"
           id="rect4332" /><rect
           x="69.199348"
           y="92.028694"
           style="fill:#4d4d4d"
           width="10.914964"
           height="2.22352"
           id="rect4334" /><path
           inkscape:connector-curvature="0"
           style="opacity:0.23000004;fill:#f2f2f2;enable-background:new"
           d="m 129.99572,57.245726 0,41.547213 c 0,1.408231 -1.1414,2.549641 -2.54963,2.549641 l -35.859896,0 24.273426,-46.64649 11.58647,0 c 1.40823,0 2.54963,1.141407 2.54963,2.549636 z"
           id="path4336" /><path
           inkscape:connector-curvature="0"
           style="opacity:0.23000004;fill:#f2f2f2;enable-background:new"
           d="m 80.437909,54.69609 -3.344174,6.425972 -1.753616,3.370709 -3.848172,7.393945 -1.836628,3.53095 -3.548738,6.818795 -3.409397,6.551972 0,-31.542707 c 0,-1.408229 1.141407,-2.549636 2.549636,-2.549636 l 15.191089,0 z"
           id="path4338" /><rect
           id="rect4719"
           height="2.22352"
           width="34.249485"
           style="fill:#4d4d4d"
           y="78.687576"
           x="89.528671" /><rect
           id="rect4721"
           height="2.22352"
           width="34.249485"
           style="fill:#4d4d4d"
           y="83.134613"
           x="89.528671" /><rect
           id="rect4723"
           height="2.22352"
           width="34.249485"
           style="fill:#4d4d4d"
           y="87.581657"
           x="89.528671" /><rect
           id="rect4725"
           height="2.22352"
           width="34.249485"
           style="fill:#4d4d4d"
           y="92.028694"
           x="89.528671" /></g><g
         id="g4664"
         transform="matrix(0.16695033,0,0,0.16695033,34.412662,88.131662)"><path
           id="path4479"
           d="m 663.2548,-108.50445 0,-74.383 c 0,-16.463 -13.346,-29.809 -29.809,-29.809 l -210.382,0 c -16.463,0.001 -29.809,13.347 -29.809,29.809 l 0,74.383 c 0,16.463 13.346,29.809 29.809,29.809 l 6.191,0 -24,42 78,-42 150.191,0 c 16.463,-0.001 29.809,-13.346 29.809,-29.809 z"
           style="fill:#e6e6e6"
           inkscape:connector-curvature="0" /><path
           inkscape:connector-curvature="0"
           style="fill:#f9a18a"
           d="m 663.2578,-191.88645 0,74.38 c 0,16.47 -13.35,29.81 -29.81,29.81 l -150.19,0 -78,42 24,-42 -6.19,0 c -16.47,0 -29.81,-13.34 -29.81,-29.81 l 0,-74.38 c 0,-16.46 13.34,-29.81 29.81,-29.81 l 210.38,0 c 16.46,0 29.81,13.35 29.81,29.81 z"
           id="path4483" /><path
           inkscape:connector-curvature="0"
           style="fill:#4d4d4d"
           d="m 496.2578,-122.19645 c -1.98,0 -3.91,-0.8 -5.311,-2.2 -1.39,-1.39 -2.189,-3.32 -2.189,-5.3 0,-1.97 0.8,-3.91 2.189,-5.3 1.4,-1.4 3.33,-2.2 5.311,-2.2 1.97,0 3.899,0.8 5.3,2.2 1.4,1.39 2.2,3.33 2.2,5.3 0,1.98 -0.8,3.91 -2.2,5.3 -1.4,1.4 -3.33,2.2 -5.3,2.2 z"
           id="path4487" /><path
           inkscape:connector-curvature="0"
           style="fill:#4d4d4d"
           d="m 528.2578,-122.19645 c -1.98,0 -3.91,-0.8 -5.311,-2.2 -1.39,-1.39 -2.189,-3.33 -2.189,-5.3 0,-1.97 0.8,-3.91 2.189,-5.3 1.4,-1.4 3.33,-2.2 5.311,-2.2 1.97,0 3.91,0.8 5.3,2.2 1.4,1.39 2.2,3.33 2.2,5.3 0,1.97 -0.8,3.91 -2.2,5.3 -1.39,1.4 -3.33,2.2 -5.3,2.2 z"
           id="path4489" /><path
           inkscape:connector-curvature="0"
           style="fill:#4d4d4d"
           d="m 560.2578,-122.19645 c -1.98,0 -3.91,-0.8 -5.311,-2.2 -1.39,-1.39 -2.189,-3.32 -2.189,-5.3 0,-1.97 0.8,-3.91 2.189,-5.3 1.4,-1.4 3.33,-2.2 5.311,-2.2 1.97,0 3.899,0.8 5.3,2.2 1.4,1.4 2.2,3.33 2.2,5.3 0,1.97 -0.8,3.91 -2.2,5.3 -1.4,1.4 -3.33,2.2 -5.3,2.2 z"
           id="path4491" /><path
           inkscape:connector-curvature="0"
           style="opacity:0.23000004;fill:#f2f2f2;enable-background:new"
           d="m 440.5378,-221.69645 -2.1,4.03 -11.83,22.74 -25.96,49.88 -7.39,14.21 0,-61.05 c 0,-16.46 13.34,-29.81 29.81,-29.81 0,0 17.47,0 17.47,0 z"
           id="path4503" /><path
           inkscape:connector-curvature="0"
           style="opacity:0.23000004;fill:#f2f2f2;enable-background:new"
           d="m 663.2578,-191.88645 0,74.38 c 0,16.47 -13.35,29.81 -29.81,29.81 l -100.38,0 69.73,-134 30.65,0 c 16.46,0 29.81,13.35 29.81,29.81 z"
           id="path4505" /></g></g></g></svg>