<?xml version="1.0" encoding="UTF-8" standalone="no"?>
<!-- Generator: Adobe Illustrator 17.0.0, SVG Export Plug-In . SVG Version: 6.00 Build 0)  -->

<svg
   xmlns:dc="http://purl.org/dc/elements/1.1/"
   xmlns:cc="http://creativecommons.org/ns#"
   xmlns:rdf="http://www.w3.org/1999/02/22-rdf-syntax-ns#"
   xmlns:svg="http://www.w3.org/2000/svg"
   xmlns="http://www.w3.org/2000/svg"
   xmlns:sodipodi="http://sodipodi.sourceforge.net/DTD/sodipodi-0.dtd"
   xmlns:inkscape="http://www.inkscape.org/namespaces/inkscape"
   version="1.1"
   id="Слой_1"
   sodipodi:docname="what_content_we_are_creating_img4.svg"
   inkscape:version="0.91 r13725"
   x="0px"
   y="0px"
   width="171px"
   height="171px"
   viewBox="0 0 171 171"
   enable-background="new 0 0 171 171"
   xml:space="preserve"><metadata
     id="metadata12"><rdf:RDF><cc:Work
         rdf:about=""><dc:format>image/svg+xml</dc:format><dc:type
           rdf:resource="http://purl.org/dc/dcmitype/StillImage" /><dc:title /></cc:Work></rdf:RDF></metadata><defs
     id="defs10"><mask
       maskUnits="userSpaceOnUse"
       id="mask4751"><g
         id="g4753"><circle
           id="circle4755"
           cx="85.333"
           cy="85.972"
           r="74"
           style="fill:#d45b3e" /><path
           id="path4757"
           inkscape:connector-curvature="0"
           d="m 85.348,11.972 c -0.007,0.001 -0.014,0.001 -0.021,0.002 l 0,147.998 c 0.007,0 0.014,0 0.021,0 40.86,0 73.984,-33.131 73.984,-74 0,-40.869 -33.123,-74 -73.984,-74 0,0 0,0 0,0 z"
           style="fill:#c45237" /></g></mask><mask
       maskUnits="userSpaceOnUse"
       id="mask4276"><g
         transform="translate(0.49999982,-0.50000006)"
         id="g4278"><circle
           id="circle4280"
           cx="85.333"
           cy="85.972"
           r="74"
           style="fill:#d45b3e" /><path
           id="path4282"
           inkscape:connector-curvature="0"
           d="m 85.348,11.972 c -0.007,0.001 -0.014,0.001 -0.021,0.002 l 0,147.998 c 0.007,0 0.014,0 0.021,0 40.86,0 73.984,-33.131 73.984,-74 0,-40.869 -33.123,-74 -73.984,-74 0,0 0,0 0,0 z"
           style="fill:#c45237" /></g></mask></defs><sodipodi:namedview
     showguides="false"
     inkscape:cy="12.653908"
     inkscape:cx="41.268905"
     inkscape:zoom="1.4142136"
     showgrid="false"
     guidetolerance="10"
     gridtolerance="10"
     objecttolerance="10"
     borderopacity="1"
     bordercolor="#666666"
     pagecolor="#ffffff"
     id="namedview61"
     inkscape:guide-bbox="true"
     inkscape:current-layer="Слой_1"
     inkscape:window-maximized="1"
     inkscape:window-y="-8"
     inkscape:window-x="-8"
     inkscape:window-height="801"
     inkscape:window-width="1536"
     inkscape:pageshadow="2"
     inkscape:pageopacity="0"><inkscape:grid
       type="xygrid"
       id="grid4289" /></sodipodi:namedview><g
     id="g4412"
     transform="translate(-0.32531483,258.35592)" /><g
     id="g4284"><g
       id="g4264"><path
         id="path4262"
         inkscape:connector-curvature="0"
         enable-background="new    "
         d="m 85.833,0.472 c 46.89988,0 85,38.100118 85,85 0,46.89988 -38.10012,85 -85,85 -46.899882,0 -85,-38.10012 -85,-85 0,-46.899882 38.100118,-85 85,-85 z"
         style="opacity:1;fill:#0b2848;fill-opacity:1;stroke:none" /><path
         style="opacity:0.2;fill:none;stroke:#ffffff"
         d="m 85.833,0.972 c 46.624,0 84.5,37.876 84.5,84.5 0,46.624 -37.876,84.5 -84.5,84.5 -46.624,0 -84.5,-37.876 -84.5,-84.5 0,-46.624 37.876,-84.5 84.5,-84.5 z"
         enable-background="new    "
         inkscape:connector-curvature="0"
         id="path4271" /></g><g
       transform="translate(0.49999982,-0.50000006)"
       id="g4274"><circle
         id="path4230"
         cx="85.333"
         cy="85.972"
         r="74"
         style="fill:#d45b3e" /><path
         id="path4278"
         inkscape:connector-curvature="0"
         d="m 85.348,11.972 c -0.007,0.001 -0.014,0.001 -0.021,0.002 l 0,147.998 c 0.007,0 0.014,0 0.021,0 40.86,0 73.984,-33.131 73.984,-74 0,-40.869 -33.123,-74 -73.984,-74 0,0 0,0 0,0 z"
         style="fill:#c45237" /></g><path
       mask="url(#mask4276)"
       sodipodi:nodetypes="cccccccccc"
       inkscape:connector-curvature="0"
       id="path4268"
       d="M 36.25,64.5 58.375,86.625 55.337087,108.2487 108.5,161.5 130,152 151,132.25 165.25,100 l 0,-15.25 -33.61719,-32.390625 z"
       style="fill:#b14731;fill-opacity:1;fill-rule:evenodd;stroke:none;stroke-width:1px;stroke-linecap:butt;stroke-linejoin:miter;stroke-opacity:1" /><g
       transform="matrix(0.20382368,0,0,0.20382368,152.81902,95.671594)"
       id="g4561"><polygon
         id="polygon4147"
         points="212.2,366.919 215.88,383.419 223.56,417.919 154.7,417.919 162.38,383.419 166.05,366.919 "
         style="fill:#666666"
         transform="translate(-478.91338,-288.70165)" /><path
         id="path4149"
         d="m -100.97869,261.68327 0,57.69 c 0,9.5 -7.7,17.2 -17.2,17.2 l -343.86,0 c -9.5,0 -17.2,-7.7 -17.2,-17.2 l 0,-227.789995 c 0,-9.5 7.7,-17.2 17.2,-17.2 l 61.8,0 0,23 -56,0 0,216.189995 332.26,0 0,-51.89 23,0 z"
         style="fill:#b3b3b3"
         inkscape:connector-curvature="0"
         transform="translate(0.32531483,-258.35592)" /><polygon
         id="polygon4151"
         points="166.05,366.919 212.2,366.919 215.88,383.419 162.38,383.419 "
         style="fill:#4d4d4d"
         transform="translate(-478.91338,-288.70165)" /><polygon
         id="polygon4159"
         points="79,127.729 79,292.029 355.26,292.029 355.26,343.919 23,343.919 23,127.729 "
         style="fill:#afdaf9"
         transform="translate(-478.91338,-288.70165)" /><rect
         id="rect4165"
         height="15"
         width="126.181"
         style="fill:#b3b3b3"
         y="380.07526"
         x="-353.20367"
         transform="translate(0.32531483,-258.35592)" /><path
         id="path4167"
         d="m -100.97869,261.68327 0,57.69 c 0,9.5 -7.7,17.2 -17.2,17.2 l -159.23,0 38.973,-74.89 137.457,0 z"
         style="opacity:0.23000004;fill:#f2f2f2;enable-background:new"
         inkscape:connector-curvature="0"
         transform="translate(0.32531483,-258.35592)" /><path
         id="path4169"
         d="m -390.92869,95.533275 -88.31,169.709995 0,-173.659995 c 0,-9.5 7.7,-17.2 17.2,-17.2 l 61.8,0 9.31,21.15 z"
         style="opacity:0.23000004;fill:#f2f2f2;enable-background:new"
         inkscape:connector-curvature="0"
         transform="translate(0.32531483,-258.35592)" /><polygon
         id="polygon4175"
         points="79,104.729 79,292.029 378.26,292.029 378.26,307.029 64,307.029 64,104.729 "
         style="opacity:0.23000004;fill:#808080;enable-background:new"
         transform="translate(-478.91338,-288.70165)" /><g
         id="g4376"
         transform="matrix(0.72726912,0,0,0.72726912,-422.24351,-262.19213)"><g
           id="g4308"><path
             id="path4310"
             d="m 446.1,80.31 -419.6,0 c -9.5,0 -17.2,7.7 -17.2,17.2 l 0,26.15 0,254.13 c 0,9.5 7.7,17.2 17.2,17.2 l 419.6,0 c 9.5,0 17.2,-7.7 17.2,-17.2 l 0,-254.13 0,-26.15 c -0.001,-9.5 -7.7,-17.2 -17.2,-17.2 z"
             style="fill:#cccccc"
             inkscape:connector-curvature="0" /><path
             id="path4312"
             d="m 0,111.661 0,254.13 c 0,9.5 7.7,17.2 17.2,17.2 l 419.6,0 c 9.5,0 17.2,-7.7 17.2,-17.2 l 0,-254.13 -454,0 z m 138.36,248.329 -115.36,0 0,-151.89 115.36,0 0,151.89 z m 292.64,0 -265.37,0 0,-151.89 265.37,0 0,151.89 z m 0,-175.709 -408,0 0,-49.881 408,0 0,49.881 z"
             style="fill:#e6e6e6"
             inkscape:connector-curvature="0" /><path
             id="path4314"
             d="m 454,85.511 0,26.15 -454,0 0,-26.15 c 0,-9.5 7.7,-17.2 17.2,-17.2 l 419.6,0 c 9.5,0 17.2,7.7 17.2,17.2 z"
             style="fill:#88c5fc"
             inkscape:connector-curvature="0" /><rect
             id="rect4316"
             height="151.89"
             width="265.37"
             style="fill:#f9a18a"
             y="208.101"
             x="165.63" /><rect
             id="rect4318"
             height="49.880001"
             width="408"
             style="fill:#b3b3b3"
             y="134.39999"
             x="23" /><rect
             id="rect4320"
             height="151.89"
             width="115.36"
             style="fill:#b3b3b3"
             y="208.101"
             x="23" /><path
             id="path4322"
             d="m 259.997,97.486 -188,0 c -4.142,0 -7.5,-3.358 -7.5,-7.5 0,-4.142 3.358,-7.5 7.5,-7.5 l 188,0 c 4.142,0 7.5,3.358 7.5,7.5 0,4.142 -3.358,7.5 -7.5,7.5 z"
             style="fill:#f2f2f2"
             inkscape:connector-curvature="0" /><path
             id="path4324"
             d="m 47,97.491 c -1.98,0 -3.91,-0.81 -5.31,-2.2 -1.39,-1.4 -2.19,-3.33 -2.19,-5.31 0,-1.97 0.8,-3.9 2.19,-5.3 1.4,-1.39 3.33,-2.19 5.31,-2.19 1.97,0 3.9,0.8 5.3,2.19 1.4,1.4 2.2,3.33 2.2,5.3 0,1.98 -0.8,3.91 -2.2,5.31 -1.4,1.39 -3.33,2.2 -5.3,2.2 z"
             style="fill:#4d4d4d"
             inkscape:connector-curvature="0" /><path
             id="path4326"
             d="m 23,97.481 c -1.98,0 -3.91,-0.8 -5.31,-2.19 -1.39,-1.4 -2.19,-3.33 -2.19,-5.31 0,-1.97 0.8,-3.9 2.19,-5.3 1.4,-1.4 3.33,-2.2 5.31,-2.2 1.97,0 3.9,0.8 5.3,2.2 1.4,1.4 2.2,3.33 2.2,5.3 0,1.98 -0.8,3.91 -2.2,5.31 -1.4,1.39 -3.33,2.19 -5.3,2.19 z"
             style="fill:#f9a18a"
             inkscape:connector-curvature="0" /><rect
             id="rect4328"
             height="15"
             width="73.633003"
             style="fill:#4d4d4d"
             y="230.159"
             x="43.863998" /><rect
             id="rect4330"
             height="15"
             width="73.633003"
             style="fill:#4d4d4d"
             y="260.159"
             x="43.863998" /><rect
             id="rect4332"
             height="15"
             width="73.633003"
             style="fill:#4d4d4d"
             y="290.159"
             x="43.863998" /><rect
             id="rect4334"
             height="15"
             width="73.633003"
             style="fill:#4d4d4d"
             y="320.159"
             x="43.863998" /><path
             id="path4336"
             d="m 454,85.511 0,280.28 c 0,9.5 -7.7,17.2 -17.2,17.2 l -241.913,0 163.75,-314.68 78.163,0 c 9.5,0 17.2,7.7 17.2,17.2 z"
             style="opacity:0.23000004;fill:#f2f2f2;enable-background:new"
             inkscape:connector-curvature="0" /><path
             id="path4338"
             d="M 119.68,68.311 97.12,111.661 85.29,134.4 59.33,184.28 46.94,208.1 23,254.1 0,298.3 0,85.511 c 0,-9.5 7.7,-17.2 17.2,-17.2 l 102.48,0 z"
             style="opacity:0.23000004;fill:#f2f2f2;enable-background:new"
             inkscape:connector-curvature="0" /></g><g
           id="g4340" /><g
           id="g4342" /><g
           id="g4344" /><g
           id="g4346" /><g
           id="g4348" /><g
           id="g4350" /><g
           id="g4352" /><g
           id="g4354" /><g
           id="g4356" /><g
           id="g4358" /><g
           id="g4360" /><g
           id="g4362" /><g
           id="g4364" /><g
           id="g4366" /><g
           id="g4368" /></g><g
         id="g4512"
         transform="matrix(0.72763598,0,0,0.72763598,-647.6682,-367.41324)"><path
           inkscape:connector-curvature="0"
           style="fill:#e6e6e6"
           d="m 344.191,188.501 -210.382,0 C 117.346,188.501 104,201.847 104,218.31 l 0,74.383 c 0,16.463 13.346,29.809 29.809,29.809 l 150.191,0 78,42 -24,-42 6.191,0 c 16.463,0 29.809,-13.346 29.809,-29.809 l 0,-74.383 c 0,-16.462 -13.346,-29.809 -29.809,-29.809 z"
           id="path4416" /><path
           inkscape:connector-curvature="0"
           style="fill:#afdaf9"
           d="m 374.003,209.311 0,74.38 c 0,16.47 -13.35,29.81 -29.81,29.81 l -6.19,0 24,42 -78,-42 -150.19,0 c -16.47,0 -29.81,-13.34 -29.81,-29.81 l 0,-74.38 c 0,-16.46 13.34,-29.81 29.81,-29.81 l 210.38,0 c 16.46,0 29.81,13.349 29.81,29.81 z"
           id="path4420" /><path
           inkscape:connector-curvature="0"
           style="fill:#4d4d4d"
           d="m 207.003,283.001 c -1.98,0 -3.91,-0.8 -5.311,-2.19 -1.39,-1.4 -2.189,-3.34 -2.189,-5.31 0,-1.97 0.8,-3.9 2.189,-5.3 1.4,-1.4 3.33,-2.2 5.311,-2.2 1.97,0 3.91,0.8 5.3,2.2 1.4,1.39 2.2,3.33 2.2,5.3 0,1.97 -0.8,3.91 -2.2,5.31 -1.4,1.39 -3.33,2.19 -5.3,2.19 z"
           id="path4428" /><path
           inkscape:connector-curvature="0"
           style="fill:#4d4d4d"
           d="m 239.003,283.001 c -1.98,0 -3.91,-0.8 -5.311,-2.2 -1.39,-1.39 -2.189,-3.32 -2.189,-5.3 0,-1.97 0.8,-3.91 2.189,-5.3 1.4,-1.4 3.33,-2.2 5.311,-2.2 1.97,0 3.91,0.8 5.3,2.2 1.4,1.4 2.2,3.33 2.2,5.3 0,1.97 -0.8,3.91 -2.2,5.3 -1.4,1.4 -3.33,2.2 -5.3,2.2 z"
           id="path4430" /><path
           inkscape:connector-curvature="0"
           style="fill:#4d4d4d"
           d="m 271.003,283.001 c -1.98,0 -3.91,-0.8 -5.311,-2.2 -1.39,-1.39 -2.189,-3.33 -2.189,-5.3 0,-1.97 0.8,-3.91 2.189,-5.3 1.4,-1.4 3.33,-2.2 5.311,-2.2 1.97,0 3.899,0.8 5.3,2.2 1.39,1.39 2.2,3.33 2.2,5.3 0,1.98 -0.811,3.91 -2.2,5.3 -1.4,1.4 -3.33,2.2 -5.3,2.2 z"
           id="path4432" /><path
           inkscape:connector-curvature="0"
           style="opacity:0.23000004;fill:#f2f2f2;enable-background:new"
           d="m 152.683,179.501 -24.79,47.64 -12.39,23.82 -11.5,22.1 0,-63.75 c 0,-16.46 13.34,-29.81 29.81,-29.81 l 18.87,0 z"
           id="path4434" /><path
           inkscape:connector-curvature="0"
           style="opacity:0.23000004;fill:#f2f2f2;enable-background:new"
           d="m 374.003,209.311 0,74.38 c 0,16.47 -13.35,29.81 -29.81,29.81 l -6.19,0 24,42 -78,-42 -38.79,0 69.73,-134 29.25,0 c 16.46,0 29.81,13.349 29.81,29.81 z"
           id="path4436" /></g></g></g><g
     id="g4442"
     transform="translate(-0.32531483,258.35592)" /><g
     id="g4444"
     transform="translate(-0.32531483,258.35592)" /><g
     id="g4446"
     transform="translate(-0.32531483,258.35592)" /><g
     id="g4448"
     transform="translate(-0.32531483,258.35592)" /><g
     id="g4450"
     transform="translate(-0.32531483,258.35592)" /><g
     id="g4452"
     transform="translate(-0.32531483,258.35592)" /><g
     id="g4454"
     transform="translate(-0.32531483,258.35592)" /><g
     id="g4456"
     transform="translate(-0.32531483,258.35592)" /><g
     id="g4458"
     transform="translate(-0.32531483,258.35592)" /><g
     id="g4460"
     transform="translate(-0.32531483,258.35592)" /><g
     id="g4462"
     transform="translate(-0.32531483,258.35592)" /><g
     id="g4464"
     transform="translate(-0.32531483,258.35592)" /><g
     id="g4466"
     transform="translate(-0.32531483,258.35592)" /><g
     id="g4468"
     transform="translate(-0.32531483,258.35592)" /><g
     id="g4470"
     transform="translate(-0.32531483,258.35592)" /></svg>