<svg xmlns="http://www.w3.org/2000/svg" width="171" height="171" viewBox="0 0 171 171"><defs><mask maskUnits="userSpaceOnUse" id="a"><g transform="translate(.5 -.25)"><circle cx="85.333" cy="85.972" r="74" fill="#d45b3e"/><path d="M85.348 11.972l-.021.002v147.998h.021c40.86 0 73.984-33.131 73.984-74s-33.123-74-73.984-74z" fill="#c45237"/></g></mask></defs><path d="M85.833.722c46.9 0 85 38.1 85 85s-38.1 85-85 85-85-38.1-85-85 38.1-85 85-85z" fill="#0b2848"/><path d="M85.833 1.222c46.624 0 84.5 37.876 84.5 84.5s-37.876 84.5-84.5 84.5-84.5-37.876-84.5-84.5 37.876-84.5 84.5-84.5z" opacity=".2" fill="none" stroke="#fff"/><g transform="translate(.5 -.25)"><circle cx="85.333" cy="85.972" r="74" fill="#d45b3e"/><path d="M85.348 11.972l-.021.002v147.998h.021c40.86 0 73.984-33.131 73.984-74s-33.123-74-73.984-74z" fill="#c45237"/></g><path mask="url(#a)" d="M38.847 107.986l56.528 56.639 23.375-4.375L145 139.5l14.25-23.25 6.75-19-1.5-15.5-36.472-33.383z" fill="#b14731" fill-rule="evenodd"/><path fill="#666" d="M84.401 121.572H70.366l1.565-7.032.748-3.363h9.407l.75 3.363z"/><path d="M115.933 95.913v11.758a3.506 3.506 0 0 1-3.506 3.506H42.34a3.506 3.506 0 0 1-3.506-3.506V61.242a3.506 3.506 0 0 1 3.506-3.505h12.596v4.687H43.522v44.065h67.723V95.913h4.688z" fill="#b3b3b3"/><path fill="#4d4d4d" d="M82.836 114.54H71.93l.748-3.363h9.407z"/><path fill="#afdaf9" d="M111.245 95.913v10.576H43.522V62.424h11.414v33.489z"/><path fill="#b3b3b3" d="M64.523 120.043h25.719v3.057h-25.72z"/><path d="M115.933 95.913v11.758a3.506 3.506 0 0 1-3.506 3.506H79.972l7.944-15.264h28.017zM56.834 62.047l-18 34.591V61.242a3.506 3.506 0 0 1 3.506-3.505h12.596l1.898 4.31z" opacity=".23" fill="#f2f2f2"/><path opacity=".23" fill="gray" d="M115.933 95.913v3.057H51.879V57.737h3.057v38.176z"/><path d="M116.513 53.698h-62.2a2.55 2.55 0 0 0-2.55 2.55v41.547a2.55 2.55 0 0 0 2.55 2.55h62.2a2.55 2.55 0 0 0 2.55-2.55V56.248a2.55 2.55 0 0 0-2.55-2.55z" fill="#ccc"/><path d="M50.385 58.346v37.67a2.55 2.55 0 0 0 2.55 2.55h62.199a2.55 2.55 0 0 0 2.55-2.55v-37.67H50.385zm20.51 36.81h-17.1V72.642h17.1v22.516zm43.38 0H74.936V72.642h39.337v22.516zm0-26.046h-60.48v-7.394h60.48v7.394z" fill="#e6e6e6"/><path d="M117.684 54.47v3.876H50.385v-3.877a2.55 2.55 0 0 1 2.55-2.55h62.199a2.55 2.55 0 0 1 2.55 2.55z" fill="#88c5fc"/><path fill="#f9a18a" d="M74.937 72.641h39.337v22.515H74.937z"/><path fill="#b3b3b3" d="M53.795 61.716h60.48v7.394h-60.48zm0 10.925h17.1v22.515h-17.1z"/><path d="M88.926 56.244H61.057a1.112 1.112 0 0 1 0-2.223h27.869a1.112 1.112 0 0 1 0 2.223z" fill="#f2f2f2"/><path d="M57.352 56.245c-.293 0-.58-.12-.787-.326a1.124 1.124 0 0 1-.325-.787c0-.292.119-.578.325-.786.207-.206.494-.324.787-.324.292 0 .578.118.786.324.207.208.326.494.326.786 0 .293-.119.58-.326.787a1.125 1.125 0 0 1-.786.326z" fill="#4d4d4d"/><path d="M53.794 56.244c-.293 0-.58-.119-.787-.325a1.124 1.124 0 0 1-.324-.787c0-.292.118-.578.324-.786a1.12 1.12 0 0 1 .787-.326c.292 0 .579.119.786.326.208.208.326.494.326.786 0 .293-.118.58-.326.787a1.123 1.123 0 0 1-.786.325z" fill="#f9a18a"/><path fill="#4d4d4d" d="M56.887 75.911h10.915v2.224H56.887zm0 4.447h10.915v2.224H56.887zm0 4.447h10.915v2.224H56.887zm0 4.447h10.915v2.224H56.887z"/><path d="M117.684 54.47v41.546a2.55 2.55 0 0 1-2.55 2.55h-35.86l24.273-46.646h11.587a2.55 2.55 0 0 1 2.55 2.55zm-49.558-2.55l-3.344 6.426-1.754 3.37-3.848 7.394-1.837 3.531-3.549 6.819-3.409 6.552V54.469a2.55 2.55 0 0 1 2.55-2.55h15.19z" opacity=".23" fill="#f2f2f2"/><path fill="#4d4d4d" d="M77.217 75.911h34.249v2.224h-34.25zm0 4.447h34.249v2.224h-34.25zm0 4.447h34.249v2.224h-34.25zm0 4.447h34.249v2.224h-34.25z"/><path d="M132.831 67.24V54.822a4.977 4.977 0 0 0-4.977-4.977H92.731a4.977 4.977 0 0 0-4.976 4.977V67.24a4.977 4.977 0 0 0 4.976 4.977h1.034l-4.007 7.012 13.022-7.012h25.074a4.977 4.977 0 0 0 4.977-4.977z" fill="#e6e6e6"/><path d="M132.832 53.32v12.417a4.976 4.976 0 0 1-4.977 4.977H102.78l-13.023 7.012 4.007-7.012h-1.033a4.975 4.975 0 0 1-4.977-4.977V53.32a4.976 4.976 0 0 1 4.977-4.977h35.123a4.978 4.978 0 0 1 4.977 4.977z" fill="#f9a18a"/><path d="M104.95 64.954a1.26 1.26 0 0 1-.886-.367 1.26 1.26 0 0 1-.365-.885c0-.329.133-.652.365-.885a1.26 1.26 0 0 1 .887-.367 1.257 1.257 0 0 1 1.252 1.252 1.254 1.254 0 0 1-1.252 1.252zm5.343 0a1.26 1.26 0 0 1-.886-.367 1.262 1.262 0 0 1-.366-.885c0-.329.134-.652.366-.885a1.26 1.26 0 0 1 .886-.367 1.257 1.257 0 0 1 1.252 1.252 1.257 1.257 0 0 1-1.252 1.252zm5.343 0c-.33 0-.653-.133-.887-.367a1.26 1.26 0 0 1-.365-.885c0-.329.133-.652.365-.885a1.26 1.26 0 0 1 .887-.367c.329 0 .65.134.885.367.233.234.367.556.367.885a1.257 1.257 0 0 1-1.252 1.252z" fill="#4d4d4d"/><path d="M95.648 48.343l-.35.673-1.975 3.796-4.334 8.328-1.234 2.372V53.32a4.976 4.976 0 0 1 4.977-4.977h2.916zm37.184 4.977v12.417a4.976 4.976 0 0 1-4.977 4.977h-16.759l11.642-22.371h5.117a4.978 4.978 0 0 1 4.977 4.977z" opacity=".23" fill="#f2f2f2"/></svg>