<?xml version="1.0" encoding="UTF-8" standalone="no"?>
<!-- Generator: Adobe Illustrator 17.0.0, SVG Export Plug-In . SVG Version: 6.00 Build 0)  -->

<svg
   xmlns:dc="http://purl.org/dc/elements/1.1/"
   xmlns:cc="http://creativecommons.org/ns#"
   xmlns:rdf="http://www.w3.org/1999/02/22-rdf-syntax-ns#"
   xmlns:svg="http://www.w3.org/2000/svg"
   xmlns="http://www.w3.org/2000/svg"
   xmlns:sodipodi="http://sodipodi.sourceforge.net/DTD/sodipodi-0.dtd"
   xmlns:inkscape="http://www.inkscape.org/namespaces/inkscape"
   version="1.1"
   id="Слой_1"
   sodipodi:docname="Нативная Реклама.svg"
   inkscape:version="0.91 r13725"
   x="0px"
   y="0px"
   width="171px"
   height="171px"
   viewBox="0 0 171 171"
   enable-background="new 0 0 171 171"
   xml:space="preserve"><metadata
     id="metadata12"><rdf:RDF><cc:Work
         rdf:about=""><dc:format>image/svg+xml</dc:format><dc:type
           rdf:resource="http://purl.org/dc/dcmitype/StillImage" /><dc:title></dc:title></cc:Work></rdf:RDF></metadata><defs
     id="defs10"><mask
       maskUnits="userSpaceOnUse"
       id="mask4254"><g
         id="g4256"><circle
           id="circle4258"
           cx="85.333"
           cy="85.972"
           r="74"
           style="fill:#d45b3e" /><path
           id="path4260"
           inkscape:connector-curvature="0"
           d="m 85.348,11.972 c -0.007,0.001 -0.014,0.001 -0.021,0.002 l 0,147.998 c 0.007,0 0.014,0 0.021,0 40.86,0 73.984,-33.131 73.984,-74 0,-40.869 -33.123,-74 -73.984,-74 0,0 0,0 0,0 z"
           style="fill:#c45237" /></g></mask></defs><sodipodi:namedview
     showguides="false"
     inkscape:cy="112.45976"
     inkscape:cx="32.656938"
     inkscape:zoom="1.4142136"
     showgrid="false"
     guidetolerance="10"
     gridtolerance="10"
     objecttolerance="10"
     borderopacity="1"
     bordercolor="#666666"
     pagecolor="#ffffff"
     id="namedview61"
     inkscape:guide-bbox="true"
     inkscape:current-layer="Слой_1"
     inkscape:window-maximized="1"
     inkscape:window-y="-8"
     inkscape:window-x="-8"
     inkscape:window-height="801"
     inkscape:window-width="1536"
     inkscape:pageshadow="2"
     inkscape:pageopacity="0"><inkscape:grid
       type="xygrid"
       id="grid4289" /></sodipodi:namedview><g
     id="g4262"><g
       id="g4274"><circle
         id="path4230"
         cx="85.333"
         cy="85.972"
         r="74"
         style="fill:#d45b3e" /><path
         id="path4278"
         inkscape:connector-curvature="0"
         d="m 85.348,11.972 c -0.007,0.001 -0.014,0.001 -0.021,0.002 l 0,147.998 c 0.007,0 0.014,0 0.021,0 40.86,0 73.984,-33.131 73.984,-74 0,-40.869 -33.123,-74 -73.984,-74 0,0 0,0 0,0 z"
         style="fill:#c45237" /></g><path
       id="path4271"
       inkscape:connector-curvature="0"
       enable-background="new    "
       d="m 85.583,1.222 c 46.624,0 84.5,37.876 84.5,84.5 0,46.624 -37.876,84.5 -84.5,84.5 -46.624,0 -84.5,-37.876 -84.5,-84.5 0,-46.624 37.876,-84.5 84.5,-84.5 z"
       style="opacity:0.2;fill:none;stroke:#ffffff" /><path
       mask="url(#mask4254)"
       sodipodi:nodetypes="cccccccc"
       inkscape:connector-curvature="0"
       id="path4246"
       d="m 38.661611,113.11752 52.588387,53.63248 36.250002,-9 32,-29 4.25,-20.25 1,-14.749998 -37.98828,-40.691405 z"
       style="fill:#b14731;fill-opacity:1;fill-rule:evenodd;stroke:none;stroke-width:1px;stroke-linecap:butt;stroke-linejoin:miter;stroke-opacity:1" /><g
       transform="matrix(0.20150171,0,0,0.20150171,38.655129,39.294028)"
       id="g4213"><g
         id="g4145"><path
           inkscape:connector-curvature="0"
           style="fill:#cccccc"
           d="m 446.1,80.31 -419.6,0 c -9.5,0 -17.2,7.7 -17.2,17.2 l 0,26.15 0,254.13 c 0,9.5 7.7,17.2 17.2,17.2 l 419.6,0 c 9.5,0 17.2,-7.7 17.2,-17.2 l 0,-254.13 0,-26.15 c -0.001,-9.5 -7.7,-17.2 -17.2,-17.2 z"
           id="path4147" /><path
           inkscape:connector-curvature="0"
           style="fill:#e6e6e6"
           d="m 0,111.661 0,254.13 c 0,9.5 7.7,17.2 17.2,17.2 l 419.6,0 c 9.5,0 17.2,-7.7 17.2,-17.2 l 0,-254.13 -454,0 z m 138.36,248.329 -115.36,0 0,-151.89 115.36,0 0,151.89 z m 292.64,0 -265.37,0 0,-151.89 265.37,0 0,151.89 z m 0,-175.709 -408,0 0,-49.881 408,0 0,49.881 z"
           id="path4149" /><path
           inkscape:connector-curvature="0"
           style="fill:#88c5fc"
           d="m 454,85.511 0,26.15 -454,0 0,-26.15 c 0,-9.5 7.7,-17.2 17.2,-17.2 l 419.6,0 c 9.5,0 17.2,7.7 17.2,17.2 z"
           id="path4151" /><rect
           x="165.63"
           y="208.101"
           style="fill:#f9a18a"
           width="265.37"
           height="151.89"
           id="rect4153" /><rect
           x="23"
           y="134.39999"
           style="fill:#b3b3b3"
           width="408"
           height="49.880001"
           id="rect4155" /><rect
           x="23"
           y="208.101"
           style="fill:#b3b3b3"
           width="115.36"
           height="151.89"
           id="rect4157" /><path
           inkscape:connector-curvature="0"
           style="fill:#f2f2f2"
           d="m 259.997,97.486 -188,0 c -4.142,0 -7.5,-3.358 -7.5,-7.5 0,-4.142 3.358,-7.5 7.5,-7.5 l 188,0 c 4.142,0 7.5,3.358 7.5,7.5 0,4.142 -3.358,7.5 -7.5,7.5 z"
           id="path4159" /><path
           inkscape:connector-curvature="0"
           style="fill:#4d4d4d"
           d="m 47,97.491 c -1.98,0 -3.91,-0.81 -5.31,-2.2 -1.39,-1.4 -2.19,-3.33 -2.19,-5.31 0,-1.97 0.8,-3.9 2.19,-5.3 1.4,-1.39 3.33,-2.19 5.31,-2.19 1.97,0 3.9,0.8 5.3,2.19 1.4,1.4 2.2,3.33 2.2,5.3 0,1.98 -0.8,3.91 -2.2,5.31 -1.4,1.39 -3.33,2.2 -5.3,2.2 z"
           id="path4161" /><path
           inkscape:connector-curvature="0"
           style="fill:#f9a18a"
           d="m 23,97.481 c -1.98,0 -3.91,-0.8 -5.31,-2.19 -1.39,-1.4 -2.19,-3.33 -2.19,-5.31 0,-1.97 0.8,-3.9 2.19,-5.3 1.4,-1.4 3.33,-2.2 5.31,-2.2 1.97,0 3.9,0.8 5.3,2.2 1.4,1.4 2.2,3.33 2.2,5.3 0,1.98 -0.8,3.91 -2.2,5.31 -1.4,1.39 -3.33,2.19 -5.3,2.19 z"
           id="path4163" /><rect
           x="43.863998"
           y="230.159"
           style="fill:#4d4d4d"
           width="73.633003"
           height="15"
           id="rect4165" /><rect
           x="43.863998"
           y="260.159"
           style="fill:#4d4d4d"
           width="73.633003"
           height="15"
           id="rect4167" /><rect
           x="43.863998"
           y="290.159"
           style="fill:#4d4d4d"
           width="73.633003"
           height="15"
           id="rect4169" /><rect
           x="43.863998"
           y="320.159"
           style="fill:#4d4d4d"
           width="73.633003"
           height="15"
           id="rect4171" /><path
           inkscape:connector-curvature="0"
           style="opacity:0.23000004;fill:#f2f2f2;enable-background:new"
           d="m 454,85.511 0,280.28 c 0,9.5 -7.7,17.2 -17.2,17.2 l -241.913,0 163.75,-314.68 78.163,0 c 9.5,0 17.2,7.7 17.2,17.2 z"
           id="path4173" /><path
           inkscape:connector-curvature="0"
           style="opacity:0.23000004;fill:#f2f2f2;enable-background:new"
           d="M 119.68,68.311 97.12,111.661 85.29,134.4 59.33,184.28 46.94,208.1 23,254.1 0,298.3 0,85.511 c 0,-9.5 7.7,-17.2 17.2,-17.2 l 102.48,0 z"
           id="path4175" /></g><g
         id="g4177" /><g
         id="g4179" /><g
         id="g4181" /><g
         id="g4183" /><g
         id="g4185" /><g
         id="g4187" /><g
         id="g4189" /><g
         id="g4191" /><g
         id="g4193" /><g
         id="g4195" /><g
         id="g4197" /><g
         id="g4199" /><g
         id="g4201" /><g
         id="g4203" /><g
         id="g4205" /></g></g></svg>