<svg xmlns="http://www.w3.org/2000/svg" width="171" height="171" viewBox="0 0 171 171"><defs><mask maskUnits="userSpaceOnUse" id="a"><g transform="translate(.5 -.5)"><circle cx="85.333" cy="85.972" r="74" fill="#d45b3e"/><path d="M85.348 11.972l-.021.002v147.998h.021c40.86 0 73.984-33.131 73.984-74s-33.123-74-73.984-74z" fill="#c45237"/></g></mask></defs><path d="M85.833.472c46.9 0 85 38.1 85 85s-38.1 85-85 85-85-38.1-85-85 38.1-85 85-85z" fill="#0b2848"/><path d="M85.833.972c46.624 0 84.5 37.876 84.5 84.5s-37.876 84.5-84.5 84.5-84.5-37.876-84.5-84.5 37.876-84.5 84.5-84.5z" opacity=".2" fill="none" stroke="#fff"/><g transform="translate(.5 -.5)"><circle cx="85.333" cy="85.972" r="74" fill="#d45b3e"/><path d="M85.348 11.972l-.021.002v147.998h.021c40.86 0 73.984-33.131 73.984-74s-33.123-74-73.984-74z" fill="#c45237"/></g><path mask="url(#a)" d="M36.25 64.5l22.125 22.125-3.038 21.624L108.5 161.5 130 152l21-19.75L165.25 100V84.75l-33.617-32.39z" fill="#b14731" fill-rule="evenodd"/><path fill="#666" d="M98.457 111.614l.75 3.363 1.565 7.032H86.737l1.565-7.032.748-3.363z"/><path d="M132.303 96.35v11.758a3.506 3.506 0 0 1-3.505 3.506H58.71a3.506 3.506 0 0 1-3.506-3.506V61.68a3.506 3.506 0 0 1 3.506-3.505h12.596v4.688H59.893v44.064h67.723V96.35h4.687z" fill="#b3b3b3"/><path fill="#4d4d4d" d="M89.05 111.614h9.407l.75 3.363H88.302z"/><path fill="#afdaf9" d="M71.307 62.862V96.35h56.309v10.576H59.893V62.862z"/><path fill="#b3b3b3" d="M80.894 120.48h25.719v3.058H80.894z"/><path d="M132.303 96.35v11.758a3.506 3.506 0 0 1-3.505 3.506H96.343l7.943-15.264h28.017zM73.205 62.484l-18 34.591V61.68a3.506 3.506 0 0 1 3.506-3.505h12.596l1.898 4.31z" opacity=".23" fill="#f2f2f2"/><path opacity=".23" fill="gray" d="M71.307 58.174V96.35h60.996v3.057H68.25V58.174z"/><path d="M132.883 54.135H70.684a2.55 2.55 0 0 0-2.55 2.55v41.547a2.55 2.55 0 0 0 2.55 2.55h62.2a2.55 2.55 0 0 0 2.549-2.55V56.685a2.55 2.55 0 0 0-2.55-2.55z" fill="#ccc"/><path d="M66.756 58.783v37.67a2.55 2.55 0 0 0 2.55 2.55h62.199a2.55 2.55 0 0 0 2.55-2.55v-37.67h-67.3zm20.51 36.81h-17.1V73.079h17.1v22.516zm43.379 0H91.308V73.079h39.337v22.516zm0-26.046h-60.48v-7.394h60.48v7.394z" fill="#e6e6e6"/><path d="M134.054 54.906v3.877H66.756v-3.877a2.55 2.55 0 0 1 2.55-2.55h62.199a2.55 2.55 0 0 1 2.55 2.55z" fill="#88c5fc"/><path fill="#f9a18a" d="M91.308 73.078h39.337v22.516H91.308z"/><path fill="#b3b3b3" d="M70.165 62.153h60.48v7.394h-60.48zm0 10.925h17.1v22.516h-17.1z"/><path d="M105.296 56.681H77.428a1.112 1.112 0 0 1 0-2.223h27.868a1.112 1.112 0 0 1 0 2.223z" fill="#f2f2f2"/><path d="M73.723 56.682c-.294 0-.58-.12-.787-.326a1.124 1.124 0 0 1-.325-.787c0-.292.119-.578.325-.786.207-.206.493-.324.787-.324.292 0 .578.118.785.324.208.208.327.494.327.786 0 .293-.119.58-.327.787a1.125 1.125 0 0 1-.785.326z" fill="#4d4d4d"/><path d="M70.165 56.68c-.293 0-.58-.118-.787-.324a1.124 1.124 0 0 1-.325-.787c0-.292.119-.578.325-.786a1.12 1.12 0 0 1 .787-.326c.292 0 .578.119.786.326.207.208.326.494.326.786 0 .293-.119.58-.326.787a1.123 1.123 0 0 1-.786.325z" fill="#f9a18a"/><path fill="#4d4d4d" d="M73.258 76.348h10.915v2.224H73.258zm0 4.447h10.915v2.224H73.258zm0 4.447h10.915v2.224H73.258zm0 4.448h10.915v2.223H73.258z"/><path d="M134.054 54.906v41.548a2.55 2.55 0 0 1-2.55 2.55h-35.86l24.274-46.647h11.587a2.55 2.55 0 0 1 2.55 2.55zm-49.557-2.549l-3.345 6.426-1.753 3.37-3.848 7.394-1.837 3.531-3.549 6.82-3.41 6.551V54.906a2.55 2.55 0 0 1 2.55-2.55h15.192z" opacity=".23" fill="#f2f2f2"/><path d="M71.856 48.74H40.654a4.421 4.421 0 0 0-4.42 4.422v11.031a4.421 4.421 0 0 0 4.42 4.421h22.275l11.568 6.23-3.56-6.23h.919a4.421 4.421 0 0 0 4.42-4.42V53.161a4.421 4.421 0 0 0-4.42-4.421z" fill="#e6e6e6"/><path d="M76.277 51.827v11.031a4.42 4.42 0 0 1-4.421 4.421h-.918l3.56 6.23-11.569-6.23H40.655a4.42 4.42 0 0 1-4.421-4.42V51.826a4.42 4.42 0 0 1 4.42-4.421h31.202a4.422 4.422 0 0 1 4.421 4.42z" fill="#afdaf9"/><path d="M51.51 62.756c-.294 0-.58-.119-.788-.325a1.127 1.127 0 0 1-.325-.788c0-.292.119-.578.325-.786a1.12 1.12 0 0 1 .787-.326 1.116 1.116 0 0 1 1.113 1.112c0 .293-.119.58-.327.788a1.124 1.124 0 0 1-.786.325zm4.745 0a1.12 1.12 0 0 1-.787-.326 1.119 1.119 0 0 1-.325-.787c0-.292.119-.58.325-.786a1.12 1.12 0 0 1 .787-.326 1.116 1.116 0 0 1 1.113 1.112 1.116 1.116 0 0 1-1.113 1.113zm4.746 0a1.12 1.12 0 0 1-.787-.326 1.121 1.121 0 0 1-.325-.787c0-.292.119-.58.325-.786a1.12 1.12 0 0 1 .787-.326c.292 0 .578.119.786.326.206.207.327.494.327.786a1.119 1.119 0 0 1-1.112 1.112z" fill="#4d4d4d"/><path d="M43.453 47.406l-3.676 7.065-1.838 3.533-1.705 3.278v-9.455a4.42 4.42 0 0 1 4.42-4.421h2.8zm32.824 4.421v11.031a4.42 4.42 0 0 1-4.421 4.421h-.918l3.56 6.23-11.569-6.23h-5.753l10.342-19.873h4.338a4.422 4.422 0 0 1 4.421 4.42z" opacity=".23" fill="#f2f2f2"/></svg>