<svg xmlns="http://www.w3.org/2000/svg" width="171" height="171" viewBox="0 0 171 171"><defs><mask maskUnits="userSpaceOnUse" id="a"><g transform="translate(.5 -.5)"><circle cx="85.333" cy="85.972" r="74" fill="#d45b3e"/><path d="M85.348 11.972l-.021.002v147.998h.021c40.86 0 73.984-33.131 73.984-74s-33.123-74-73.984-74z" fill="#c45237"/></g></mask></defs><path d="M85.833.472c46.9 0 85 38.1 85 85s-38.1 85-85 85-85-38.1-85-85 38.1-85 85-85z" fill="#0b2848"/><path d="M85.833.972c46.624 0 84.5 37.876 84.5 84.5s-37.876 84.5-84.5 84.5-84.5-37.876-84.5-84.5 37.876-84.5 84.5-84.5z" opacity=".2" fill="none" stroke="#fff"/><g transform="translate(.5 -.5)"><circle cx="85.333" cy="85.972" r="74" fill="#d45b3e"/><path d="M85.348 11.972l-.021.002v147.998h.021c40.86 0 73.984-33.131 73.984-74s-33.123-74-73.984-74z" fill="#c45237"/></g><path mask="url(#a)" d="M37.339 110.668l53.613 54.41 29.08-7.336 24.748-16.97 17.324-33.235 2.829-17.678-.707-14.495-29.907-31.256z" fill="#b14731" fill-rule="evenodd"/><path fill="#666" d="M72.402 114.473h9.75l.776 3.486 1.623 7.288H70.005l1.622-7.288z"/><path d="M117.23 98.653v12.187a3.633 3.633 0 0 1-3.633 3.633H40.959a3.633 3.633 0 0 1-3.634-3.633V62.72a3.633 3.633 0 0 1 3.634-3.633h13.055v4.858h-11.83v45.669h70.187V98.653h4.859z" fill="#b3b3b3"/><path fill="#4d4d4d" d="M82.151 114.473l.777 3.486H71.627l.775-3.486z"/><path fill="#b3b3b3" d="M113.856 54.611h15.647v30.312h-15.647zm-22.423 0h15.647v30.312H91.433zm-22.423 0h15.646v30.312H69.01z"/><path fill="#afdaf9" d="M42.184 63.946h11.83v34.707h58.357v10.962H42.184z"/><path d="M64.151 49.753V89.78h70.19V49.753H64.15zm20.505 35.17H69.01V54.61h15.646v30.312zm22.424 0H91.433V54.61h15.647v30.312zm22.423 0h-15.647V54.61h15.647v30.312z" fill="#e6e6e6"/><path fill="#88c5fc" d="M64.151 44.113h70.19v5.64H64.15z"/><path fill="#b3b3b3" d="M63.95 123.663h26.654v3.168H63.95z"/><path d="M117.23 98.653v12.187a3.633 3.633 0 0 1-3.633 3.633H79.96l8.233-15.82h29.037zM55.98 63.555l-18.655 35.85V62.721a3.633 3.633 0 0 1 3.634-3.633h13.055l1.966 4.467z" opacity=".23" fill="#f2f2f2"/><path fill="#f9a18a" d="M54.014 52.985H64.15V89.78h60.05v8.872H54.014z"/><path d="M64.151 89.781V52.985h-3.169V92.95h63.219v-3.17H64.15z" opacity=".23" fill="gray"/><path opacity=".23" fill="gray" d="M50.845 59.088h3.169v39.565h63.216v3.169H50.845z"/><path opacity=".23" d="M128.68 49.753l1.474-2.835 1.46-2.805h2.727V89.78h-26.492l.317-.61 5.69-10.936 12.295-23.624zM69.01 67.294l-4.859 9.41V44.112h16.83l-2.913 5.64-2.508 4.858z" fill="#f2f2f2"/></svg>