<svg xmlns="http://www.w3.org/2000/svg" width="171" height="171" viewBox="0 0 171 171"><defs><mask maskUnits="userSpaceOnUse" id="a"><g transform="translate(.375 -.375)"><circle cx="85.333" cy="85.972" r="74" fill="#d45b3e"/><path d="M85.348 11.972l-.021.002v147.998h.021c40.86 0 73.984-33.131 73.984-74s-33.123-74-73.984-74z" fill="#c45237"/></g></mask></defs><path d="M85.708.597c46.9 0 85 38.1 85 85s-38.1 85-85 85-85-38.1-85-85 38.1-85 85-85z" fill="#0b2848"/><path d="M85.708 1.097c46.624 0 84.5 37.876 84.5 84.5s-37.876 84.5-84.5 84.5-84.5-37.876-84.5-84.5 37.876-84.5 84.5-84.5z" opacity=".2" fill="none" stroke="#fff"/><g transform="translate(.375 -.375)"><circle cx="85.333" cy="85.972" r="74" fill="#d45b3e"/><path d="M85.348 11.972l-.021.002v147.998h.021c40.86 0 73.984-33.131 73.984-74s-33.123-74-73.984-74z" fill="#c45237"/></g><path mask="url(#a)" d="M37.25 105.5l59.25 59.25 34-11.75 19.75-18.5 13.25-24.75 1-17.5v-7l-40.075-32.942L43.5 107.25z" fill="#b14731" fill-rule="evenodd"/><path fill="#afdaf9" d="M47.953 57.2h75.512v42.782H47.953z"/><path d="M128.385 56.19v48.712h-15.347a52.647 52.647 0 0 0-.815-4.92h11.242V57.2H47.953v42.782h11.96a51.94 51.94 0 0 0-.81 4.92h-16.07V56.19a3.91 3.91 0 0 1 3.91-3.91h77.532a3.91 3.91 0 0 1 3.91 3.91z" fill="#ccc"/><path d="M134.192 104.904a8.021 8.021 0 0 1-8.02 8.021h-12.877a47.61 47.61 0 0 0-.257-8.021h21.154zm-75.35 8.021H45.245a8.002 8.002 0 0 1-5.673-2.349 8.002 8.002 0 0 1-2.348-5.672H59.1a47.364 47.364 0 0 0-.259 8.021z" fill="#b3b3b3"/><path fill="#4d4d4d" d="M75.121 65.268h21.175v3.208H75.12zM66.78 70.4h37.857v3.21H66.78z"/><path d="M59.1 104.904a47.364 47.364 0 0 0-.258 8.021h-4.317l3.087-8.021h1.489zm54.195 8.021a47.61 47.61 0 0 0-.257-8.021h1.487l3.087 8.021h-4.317zm-48.656-26.95s-8.172 13.726-8.59 18.929h12.263" opacity=".23" fill="gray"/><path d="M128.385 56.19v48.712H88.212l2.56-4.92L113.036 57.2l2.56-4.92h8.879a3.91 3.91 0 0 1 3.91 3.91zM64.32 52.28L43.033 93.501V56.19a3.91 3.91 0 0 1 3.91-3.91H64.32zm69.872 52.622a8.005 8.005 0 0 1-2.748 6.044h-26.005l3.144-6.044h25.61z" opacity=".23" fill="#f2f2f2"/><path d="M107.498 85.975s8.172 13.726 8.59 18.929h-12.264" opacity=".23" fill="gray"/><path d="M113.038 104.904c.304 2.629.402 5.3.257 8.021-.1 1.97-.332 3.966-.704 5.989H59.546a46.41 46.41 0 0 1-.704-5.989 47.364 47.364 0 0 1 .259-8.021h.002v-.002a51.94 51.94 0 0 1 .81-4.92c.677-3.176 1.628-6.29 2.79-9.347a83.637 83.637 0 0 1 1.936-4.66h42.86a82.041 82.041 0 0 1 1.935 4.66c1.161 3.057 2.115 6.171 2.79 9.347a52.647 52.647 0 0 1 .814 4.922z" fill="#e6e6e6"/><path d="M104.139 95.45H68c.239-.787.503-1.564.786-2.339h34.565c.285.775.547 1.554.788 2.338zm1.137 5.335H66.86c.045-.267.095-.53.144-.796.116-.611.243-1.219.382-1.823h37.365a53.043 53.043 0 0 1 .524 2.619zm.601 6.352H66.262c.038-.749.087-1.493.151-2.233h.002v-.002c.026-.325.057-.65.088-.973h39.131c.036.323.064.648.092.973v.002c.061.742.113 1.487.151 2.233zm-9.044 2.971a116.18 116.18 0 0 1-.034 3.208H75.338l-.01-.391a116.18 116.18 0 0 1-.025-2.817h21.53z" fill="#4d4d4d"/></svg>