<svg xmlns="http://www.w3.org/2000/svg" width="171" height="171" viewBox="0 0 171 171"><defs><mask maskUnits="userSpaceOnUse" id="a"><circle cx="85.333" cy="85.972" r="74" fill="#d45b3e"/><path d="M85.348 11.972l-.021.002v147.998h.021c40.86 0 73.984-33.131 73.984-74s-33.123-74-73.984-74z" fill="#c45237"/></mask></defs><circle cx="85.333" cy="85.972" r="74" fill="#d45b3e"/><path d="M85.348 11.972l-.021.002v147.998h.021c40.86 0 73.984-33.131 73.984-74s-33.123-74-73.984-74z" fill="#c45237"/><path d="M85.583 1.222c46.624 0 84.5 37.876 84.5 84.5s-37.876 84.5-84.5 84.5-84.5-37.876-84.5-84.5 37.876-84.5 84.5-84.5z" opacity=".2" fill="none" stroke="#fff"/><path mask="url(#a)" d="M36.345 108.992l57.03 57.383s32.875-9.625 33.875-9.875S154.5 129 154.5 129l7.25-21.5.5-18.25-.5-10.75-.25-4-30.305-30.018z" fill="#b14731" fill-rule="evenodd"/><path d="M130.954 44.472H39.712a3.383 3.383 0 0 0-3.379 3.388v54.204h98V47.86a3.383 3.383 0 0 0-3.38-3.388zm-1.69 52.51H41.402V49.554h87.862v47.428z" fill="#464655"/><g fill="#fff"><path d="M75.195 70.727c.467 0 .845.379.845.847h2.534v-2.54h-3.38a.845.845 0 0 1-.844-.848c0-.468.378-.847.845-.847h3.38V56.33H63.366v15.245H74.35c0-.468.378-.847.845-.847z"/><path d="M41.402 96.982h87.862V49.554H41.402v47.428zm37.172-4.235h-3.379a.845.845 0 0 1-.845-.847c0-.468.378-.847.845-.847h3.38c.466 0 .844.38.844.847a.846.846 0 0 1-.845.847zm-3.38-8.469c.468 0 .846.379.846.847v3.388a.845.845 0 1 1-1.69 0v-3.388c0-.468.378-.847.845-.847zm-.844-2.54V78.35a.845.845 0 1 1 1.69 0v3.387a.845.845 0 1 1-1.69 0zm10.983 11.01h-3.38a.845.845 0 0 1-.844-.848c0-.468.377-.847.845-.847h3.379c.467 0 .845.38.845.847a.845.845 0 0 1-.845.847zm14.362-4.235a.845.845 0 1 1-1.69 0v-3.388a.845.845 0 1 1 1.69 0v3.388zm0-6.776a.845.845 0 1 1-1.69 0V78.35a.845.845 0 1 1 1.69 0v3.387zm0-6.775a.845.845 0 1 1-1.69 0v-3.388a.845.845 0 1 1 1.69 0v3.388zm7.604 1.694V54.635c0-.935.756-1.694 1.69-1.694h15.206c.933 0 1.69.759 1.69 1.694v37.266c0 .935-.757 1.693-1.69 1.693h-15.207c-.933 0-1.69-.758-1.69-1.693V76.656zM95.47 67.339h3.379c.467 0 .845.38.845.847a.845.845 0 0 1-.845.847h-3.38a.845.845 0 0 1-.844-.847c0-.468.378-.847.845-.847zm0 23.715h3.379c.467 0 .845.378.845.847a.845.845 0 0 1-.845.847h-3.38a.845.845 0 0 1-.844-.847c0-.469.378-.847.845-.847zm-6.759-23.715h3.38c.466 0 .844.38.844.847a.845.845 0 0 1-.845.847h-3.379a.845.845 0 0 1-.845-.847c0-.468.378-.847.845-.847zm0 23.715h3.38c.466 0 .844.378.844.847a.845.845 0 0 1-.845.847h-3.379a.845.845 0 0 1-.845-.847c0-.469.378-.847.845-.847zM59.988 54.635c0-.936.757-1.694 1.69-1.694h18.586c.933 0 1.69.758 1.69 1.694V67.34h3.379c.467 0 .845.38.845.847a.845.845 0 0 1-.845.847h-3.38v4.235c0 .184-.03.36-.083.526l4.434 3.982a.68.68 0 0 1-.18 1.129l-1.68.74 1.5 3.426a.85.85 0 0 1-.773 1.187.845.845 0 0 1-.775-.506l-1.5-3.427-1.681.74a.678.678 0 0 1-.95-.631l.07-5.476c-.024.001-.047.004-.071.004H76.04a.845.845 0 1 1-1.69 0H61.677c-.933 0-1.69-.758-1.69-1.694V54.635zm-15.207 0c0-.935.757-1.694 1.69-1.694h5.069c.933 0 1.69.759 1.69 1.694v37.266c0 .935-.757 1.693-1.69 1.693h-5.069c-.933 0-1.69-.758-1.69-1.693V54.635z"/></g><path d="M36.333 108.84a3.383 3.383 0 0 0 3.38 3.387h91.241a3.383 3.383 0 0 0 3.379-3.388v-6.775h-98v6.775zm49-4.236c1.4 0 2.534 1.138 2.534 2.541a2.538 2.538 0 0 1-2.534 2.54 2.538 2.538 0 0 1-2.534-2.54 2.538 2.538 0 0 1 2.534-2.54z" fill="#bec8dc"/><path fill="#afbbd0" d="M71.393 115.615l-1.056 8.47h29.992l-1.056-8.47z"/><path d="M70.126 124.084c-.933 0-1.69.759-1.69 1.694 0 .935.757 1.694 1.69 1.694h30.414c.933 0 1.69-.759 1.69-1.694 0-.935-.757-1.694-1.69-1.694H70.127z" fill="#bec8dc"/><g fill="#96a5b9" transform="matrix(.1914 0 0 .19188 36.333 36.85)"><path d="M185.379 392.828l-2.207 17.655h145.656l-2.207-17.655z"/><circle cx="256" cy="366.345" r="13.241"/></g><path d="M46.471 93.594h5.069c.933 0 1.69-.758 1.69-1.694V54.635c0-.935-.757-1.694-1.69-1.694h-5.069c-.933 0-1.69.759-1.69 1.694v37.266c0 .935.757 1.693 1.69 1.693zm1.69-37.265h1.69c.932 0 1.689.759 1.689 1.694 0 .935-.757 1.694-1.69 1.694h-1.69a1.693 1.693 0 1 1 0-3.388zm0 5.082h1.69c.932 0 1.689.758 1.689 1.694 0 .935-.757 1.694-1.69 1.694h-1.69c-.933 0-1.69-.759-1.69-1.694a1.693 1.693 0 0 1 1.69-1.694zm0 5.081h1.69c.932 0 1.689.759 1.689 1.694 0 .936-.757 1.694-1.69 1.694h-1.69c-.933 0-1.69-.758-1.69-1.694 0-.935.757-1.694 1.69-1.694zm0 5.082h1.69c.932 0 1.689.759 1.689 1.694 0 .935-.757 1.694-1.69 1.694h-1.69c-.933 0-1.69-.759-1.69-1.694 0-.935.757-1.694 1.69-1.694zm0 5.082h1.69c.932 0 1.689.758 1.689 1.694 0 .935-.757 1.693-1.69 1.693h-1.69c-.933 0-1.69-.758-1.69-1.693 0-.936.757-1.694 1.69-1.694zm-1.69 8.469c0-.936.757-1.694 1.69-1.694h1.69c.933 0 1.69.758 1.69 1.694v3.388c0 .935-.757 1.694-1.69 1.694h-1.69c-.933 0-1.69-.759-1.69-1.694v-3.388z" fill="#bec8dc"/><path d="M48.16 59.717h1.69c.933 0 1.69-.759 1.69-1.694 0-.936-.757-1.694-1.69-1.694h-1.69c-.933 0-1.69.758-1.69 1.694a1.693 1.693 0 0 0 1.69 1.694z" fill="#e4eaf6"/><path d="M48.16 64.798h1.69c.933 0 1.69-.758 1.69-1.693 0-.936-.757-1.694-1.69-1.694h-1.69c-.933 0-1.69.758-1.69 1.694a1.692 1.692 0 0 0 1.69 1.693z" fill="#96a5b9"/><path d="M48.16 69.88h1.69c.933 0 1.69-.758 1.69-1.694 0-.935-.757-1.694-1.69-1.694h-1.69c-.933 0-1.69.759-1.69 1.694 0 .936.757 1.694 1.69 1.694zm0 5.082h1.69c.933 0 1.69-.759 1.69-1.694 0-.936-.757-1.694-1.69-1.694h-1.69c-.933 0-1.69.758-1.69 1.694 0 .935.757 1.694 1.69 1.694zm0 5.081h1.69c.933 0 1.69-.758 1.69-1.694 0-.935-.757-1.694-1.69-1.694h-1.69c-.933 0-1.69.759-1.69 1.694 0 .936.757 1.694 1.69 1.694z" fill="#e4eaf6"/><path d="M48.16 90.207h1.69c.933 0 1.69-.759 1.69-1.694v-3.388c0-.936-.757-1.694-1.69-1.694h-1.69c-.933 0-1.69.758-1.69 1.694v3.388a1.693 1.693 0 0 0 1.69 1.694z" fill="#96a5b9"/><path d="M125.885 54.635c0-.935-.757-1.694-1.69-1.694h-15.207c-.933 0-1.69.759-1.69 1.694V64.8h18.587V54.635zm-2.535 8.47h-13.517a.846.846 0 0 1 0-1.694h13.517a.846.846 0 0 1 0 1.694zm0-3.388h-13.517a.846.846 0 0 1 0-1.694h13.518a.846.846 0 0 1 0 1.694zm0-3.388h-13.517a.846.846 0 0 1 0-1.694h13.517a.846.846 0 0 1 0 1.694zm-14.362 37.265h15.207c.933 0 1.69-.758 1.69-1.694V76.656h-18.586V91.9c0 .936.756 1.694 1.69 1.694zm7.604-15.244h6.758a.846.846 0 0 1 0 1.693h-6.758a.846.846 0 0 1 0-1.693zm0 3.387h6.758a.846.846 0 0 1 0 1.694h-6.758a.846.846 0 0 1 0-1.694zm0 3.388h6.758a.846.846 0 0 1 0 1.694h-6.758a.846.846 0 0 1 0-1.694zm0 3.388h6.758a.846.846 0 0 1 0 1.694h-6.758a.846.846 0 0 1 0-1.694zm-3.38-10.163a.846.846 0 0 1 0 1.693.846.846 0 0 1 0-1.693zm0 3.387a.846.846 0 0 1 0 1.694.846.846 0 0 1 0-1.694zm0 3.388a.846.846 0 0 1 0 1.694.846.846 0 0 1 0-1.694zm0 3.388a.846.846 0 0 1 0 1.694.846.846 0 0 1 0-1.694zm-3.379-10.163a.846.846 0 0 1 0 1.693.846.846 0 0 1 0-1.693zm0 3.387a.846.846 0 0 1 0 1.694.846.846 0 0 1 0-1.694zm0 3.388a.846.846 0 0 1 0 1.694.846.846 0 0 1 0-1.694zm0 3.388a.846.846 0 0 1 0 1.694.846.846 0 0 1 0-1.694z" fill="#bec8dc"/><path d="M125.885 64.798h-18.586v11.858h18.586V64.798zm-14.362 10.164h-1.69a.846.846 0 0 1 0-1.694h1.69a.846.846 0 0 1 0 1.694zm0-3.388h-1.69a.846.846 0 0 1 0-1.694h1.69a.846.846 0 0 1 0 1.694zm0-3.388h-1.69a.846.846 0 0 1 0-1.694h1.69a.846.846 0 0 1 0 1.694zm11.827 6.776h-8.448a.846.846 0 0 1 0-1.694h8.448a.846.846 0 0 1 0 1.694zm0-3.388h-8.448a.846.846 0 0 1 0-1.694h8.448a.846.846 0 0 1 0 1.694zm0-3.388h-8.448a.846.846 0 0 1 0-1.694h8.448a.846.846 0 0 1 0 1.694zm0-13.551h-10.138a.846.846 0 0 1 0 1.694h10.138a.846.846 0 0 0 0-1.694zm-12.672.847c0-.468.378-.847.845-.847h-1.69a.846.846 0 0 0 0 1.694h1.69a.846.846 0 0 1-.845-.847zm12.672 5.928h-6.758a.846.846 0 0 1 0 1.695h6.758a.846.846 0 0 0 0-1.694zm-9.293.848c0-.468.378-.847.845-.847h-5.069a.846.846 0 0 0 0 1.694h5.069a.846.846 0 0 1-.845-.847z" fill="#96a5b9"/><path d="M123.35 66.492h-8.448a.846.846 0 0 0 0 1.694h8.448a.846.846 0 0 0 0-1.694z" fill="#bec8dc"/><path d="M119.126 58.87c0-.468.378-.847.845-.847h-10.138a.846.846 0 0 0 0 1.694h10.138a.846.846 0 0 1-.845-.847zm4.224-.847h-1.69a.846.846 0 0 1 0 1.694h1.69a.846.846 0 0 0 0-1.694z" fill="#96a5b9"/><path d="M114.057 55.482a.846.846 0 0 0-.845-.847h-1.69a.846.846 0 0 0 0 1.694h1.69c.467 0 .845-.38.845-.847zm3.379 6.776a.846.846 0 0 0-.844-.847h-1.69a.846.846 0 0 0 0 1.694h1.69c.466 0 .844-.38.844-.847zm-5.913 4.234h-1.69a.846.846 0 0 0 0 1.694h1.69a.846.846 0 0 0 0-1.694z" fill="#e4eaf6"/><path d="M123.35 69.88h-8.448a.846.846 0 0 0 0 1.694h8.448a.846.846 0 0 0 0-1.694z" fill="#bec8dc"/><path d="M111.523 69.88h-1.69a.846.846 0 0 0 0 1.694h1.69a.846.846 0 0 0 0-1.694z" fill="#e4eaf6"/><path d="M123.35 73.268h-8.448a.846.846 0 0 0 0 1.694h8.448a.846.846 0 0 0 0-1.694z" fill="#bec8dc"/><path d="M111.523 73.268h-1.69a.846.846 0 0 0 0 1.694h1.69a.846.846 0 0 0 0-1.694zm-1.69 10.163a.846.846 0 0 0 0-1.694.846.846 0 0 0 0 1.694zm0-3.388a.846.846 0 0 0 0-1.694.846.846 0 0 0 0 1.694zm0 10.164a.846.846 0 0 0 0-1.694.846.846 0 0 0 0 1.694zm0-3.388a.846.846 0 0 0 0-1.694.846.846 0 0 0 0 1.694z" fill="#e4eaf6"/><path d="M113.212 83.431a.846.846 0 0 0 0-1.694.846.846 0 0 0 0 1.694zm0-3.388a.846.846 0 0 0 0-1.694.846.846 0 0 0 0 1.694zm0 10.164a.846.846 0 0 0 0-1.694.846.846 0 0 0 0 1.694zm0-3.388a.846.846 0 0 0 0-1.694.846.846 0 0 0 0 1.694zm3.38-3.388h6.758a.846.846 0 0 0 0-1.694h-6.758a.846.846 0 0 0 0 1.694zm0-3.388h6.758a.846.846 0 0 0 0-1.694h-6.758a.846.846 0 0 0 0 1.694zm0 10.164h6.758a.846.846 0 0 0 0-1.694h-6.758a.846.846 0 0 0 0 1.694zm0-3.388h6.758a.846.846 0 0 0 0-1.694h-6.758a.846.846 0 0 0 0 1.694z" fill="#96a5b9"/><path d="M122.505 58.87a.846.846 0 0 0-.844-.847h-1.69a.846.846 0 0 0 0 1.694h1.69c.466 0 .844-.38.844-.847z" fill="#e4eaf6"/><path d="M61.678 74.962H74.35v-3.388H63.367V56.33h15.207v11.01c.467 0 .845.38.845.847a.845.845 0 0 1-.845.847v2.541H76.04v3.388h4.224c.024 0 .047-.003.071-.004l.014-1.018a.678.678 0 0 1 1.13-.497l.39.35a1.66 1.66 0 0 0 .085-.525v-4.235a.845.845 0 0 1-.845-.847c0-.468.378-.847.845-.847V54.635c0-.936-.757-1.694-1.69-1.694H61.678c-.933 0-1.69.758-1.69 1.694v18.633c0 .936.757 1.694 1.69 1.694z" fill="#ff6469"/><path d="M75.195 82.584a.845.845 0 0 0 .845-.847V78.35a.845.845 0 1 0-1.69 0v3.387c0 .468.378.847.845.847zM95.47 92.747h3.38a.845.845 0 0 0 .845-.847.845.845 0 0 0-.845-.847h-3.38a.845.845 0 0 0-.844.847c0 .469.378.847.845.847zm3.38-8.469a.845.845 0 0 0-.845.847v3.388a.845.845 0 1 0 1.69 0v-3.388a.846.846 0 0 0-.845-.847zm-3.38-15.245h3.38a.845.845 0 0 0 .845-.847.845.845 0 0 0-.845-.847h-3.38a.845.845 0 0 0-.844.847c0 .468.378.847.845.847zm3.38 1.694a.845.845 0 0 0-.845.847v3.388a.845.845 0 1 0 1.69 0v-3.388a.846.846 0 0 0-.845-.847zM85.333 91.054h-3.38a.845.845 0 0 0-.844.847c0 .468.378.847.845.847h3.379a.845.845 0 0 0 .845-.847.845.845 0 0 0-.845-.847zM75.195 70.727a.845.845 0 0 0-.845.847v3.388a.845.845 0 1 0 1.69 0v-3.388a.845.845 0 0 0-.845-.847zm3.379 20.327h-3.379a.845.845 0 0 0-.845.847c0 .468.378.847.845.847h3.38a.845.845 0 0 0 .844-.847.846.846 0 0 0-.845-.847zm-4.224-2.541a.845.845 0 1 0 1.69 0v-3.388a.845.845 0 1 0-1.69 0v3.388zm24.5-11.01a.845.845 0 0 0-.845.847v3.387a.845.845 0 1 0 1.69 0V78.35a.846.846 0 0 0-.845-.847zm-10.138-8.47h3.38a.845.845 0 0 0 .844-.847.845.845 0 0 0-.845-.847h-3.379a.845.845 0 0 0-.845.847c0 .468.378.847.845.847zm-14.362-.847c0 .468.378.847.845.847h3.38a.845.845 0 0 0 .844-.847.845.845 0 0 0-.845-.847h-3.379a.846.846 0 0 0-.845.847zm14.362 24.561h3.38a.845.845 0 0 0 .844-.847.845.845 0 0 0-.845-.847h-3.379a.845.845 0 0 0-.845.847c0 .469.378.847.845.847zm-7.603-24.561c0 .468.378.847.845.847h3.379a.845.845 0 0 0 .845-.847.845.845 0 0 0-.845-.847h-3.38a.846.846 0 0 0-.844.847z" fill="#96a5b9"/><path d="M80.348 73.94l-.013 1.018-.071 5.475a.678.678 0 0 0 .95.632l1.681-.74 1.501 3.427a.845.845 0 1 0 1.548-.681l-1.5-3.427 1.68-.74a.68.68 0 0 0 .18-1.128l-4.434-3.983-.391-.35a.678.678 0 0 0-1.13.497z" fill="#464655"/></svg>