<?xml version="1.0" encoding="UTF-8" standalone="no"?>
<!-- Generator: Adobe Illustrator 17.0.0, SVG Export Plug-In . SVG Version: 6.00 Build 0)  -->

<svg
   xmlns:dc="http://purl.org/dc/elements/1.1/"
   xmlns:cc="http://creativecommons.org/ns#"
   xmlns:rdf="http://www.w3.org/1999/02/22-rdf-syntax-ns#"
   xmlns:svg="http://www.w3.org/2000/svg"
   xmlns="http://www.w3.org/2000/svg"
   xmlns:sodipodi="http://sodipodi.sourceforge.net/DTD/sodipodi-0.dtd"
   xmlns:inkscape="http://www.inkscape.org/namespaces/inkscape"
   version="1.1"
   id="Слой_1"
   sodipodi:docname="Дизайнер  (Мастер Кисти).svg"
   inkscape:version="0.91 r13725"
   x="0px"
   y="0px"
   width="171px"
   height="171px"
   viewBox="0 0 171 171"
   enable-background="new 0 0 171 171"
   xml:space="preserve"><metadata
     id="metadata12"><rdf:RDF><cc:Work
         rdf:about=""><dc:format>image/svg+xml</dc:format><dc:type
           rdf:resource="http://purl.org/dc/dcmitype/StillImage" /><dc:title></dc:title></cc:Work></rdf:RDF></metadata><defs
     id="defs10"><mask
       maskUnits="userSpaceOnUse"
       id="mask4419"><g
         id="g4421"><circle
           id="circle4423"
           cx="85.333"
           cy="85.972"
           r="74"
           style="fill:#d45b3e" /><path
           id="path4425"
           inkscape:connector-curvature="0"
           d="m 85.348,11.972 c -0.007,0.001 -0.014,0.001 -0.021,0.002 l 0,147.998 c 0.007,0 0.014,0 0.021,0 40.86,0 73.984,-33.131 73.984,-74 0,-40.869 -33.123,-74 -73.984,-74 0,0 0,0 0,0 z"
           style="fill:#c45237" /></g></mask></defs><sodipodi:namedview
     showguides="false"
     inkscape:cy="27.320955"
     inkscape:cx="120.12257"
     inkscape:zoom="1.4142136"
     showgrid="false"
     guidetolerance="10"
     gridtolerance="10"
     objecttolerance="10"
     borderopacity="1"
     bordercolor="#666666"
     pagecolor="#ffffff"
     id="namedview61"
     inkscape:guide-bbox="true"
     inkscape:current-layer="Слой_1"
     inkscape:window-maximized="1"
     inkscape:window-y="-8"
     inkscape:window-x="-8"
     inkscape:window-height="801"
     inkscape:window-width="1536"
     inkscape:pageshadow="2"
     inkscape:pageopacity="0"><inkscape:grid
       type="xygrid"
       id="grid4289" /></sodipodi:namedview><g
     id="g4427"><g
       id="g4274"><circle
         id="path4230"
         cx="85.333"
         cy="85.972"
         r="74"
         style="fill:#d45b3e" /><path
         id="path4278"
         inkscape:connector-curvature="0"
         d="m 85.348,11.972 c -0.007,0.001 -0.014,0.001 -0.021,0.002 l 0,147.998 c 0.007,0 0.014,0 0.021,0 40.86,0 73.984,-33.131 73.984,-74 0,-40.869 -33.123,-74 -73.984,-74 0,0 0,0 0,0 z"
         style="fill:#c45237" /></g><path
       id="path4271"
       inkscape:connector-curvature="0"
       enable-background="new    "
       d="m 85.583,1.222 c 46.624,0 84.5,37.876 84.5,84.5 0,46.624 -37.876,84.5 -84.5,84.5 -46.624,0 -84.5,-37.876 -84.5,-84.5 0,-46.624 37.876,-84.5 84.5,-84.5 z"
       style="opacity:0.2;fill:none;stroke:#ffffff" /><path
       mask="url(#mask4419)"
       sodipodi:nodetypes="ccsccccccc"
       inkscape:connector-curvature="0"
       id="path4411"
       d="M 36.345319,108.99177 93.374998,166.375 c 0,0 32.875002,-9.625 33.875002,-9.875 1,-0.25 27.25,-27.5 27.25,-27.5 l 7.25,-21.5 0.5,-18.249998 -0.5,-10.75 -0.25,-4 -30.30524,-30.01798 z"
       style="fill:#b14731;fill-opacity:1;fill-rule:evenodd;stroke:none;stroke-width:1px;stroke-linecap:butt;stroke-linejoin:miter;stroke-opacity:1" /><g
       transform="matrix(0.19140625,0,0,0.191884,36.333,36.8496)"
       id="g4319"><path
         inkscape:connector-curvature="0"
         style="fill:#464655"
         d="m 494.345,39.724 -476.69,0 C 7.904,39.724 0,47.628 0,57.379 l 0,282.483 512,0 0,-282.483 c 0,-9.751 -7.904,-17.655 -17.655,-17.655 z m -8.828,273.655 -459.034,0 0,-247.172 459.034,0 0,247.172 z"
         id="path4141" /><g
         id="g4143"><path
           inkscape:connector-curvature="0"
           style="fill:#ffffff"
           d="m 203.033,176.552 c 2.44,0 4.414,1.974 4.414,4.414 l 13.241,0 0,-13.241 -17.655,0 c -2.44,0 -4.414,-1.974 -4.414,-4.414 0,-2.44 1.974,-4.414 4.414,-4.414 l 17.655,0 0,-57.379 -79.448,0 0,79.448 57.379,0 c 0.001,-2.44 1.975,-4.414 4.414,-4.414 z"
           id="path4145" /><path
           inkscape:connector-curvature="0"
           style="fill:#ffffff"
           d="m 26.483,313.379 459.034,0 0,-247.172 -459.034,0 0,247.172 z m 194.206,-22.069 -17.655,0 c -2.44,0 -4.414,-1.974 -4.414,-4.414 0,-2.44 1.974,-4.414 4.414,-4.414 l 17.655,0 c 2.44,0 4.414,1.974 4.414,4.414 0,2.44 -1.975,4.414 -4.414,4.414 z m -17.656,-44.138 c 2.44,0 4.414,1.974 4.414,4.414 l 0,17.655 c 0,2.44 -1.974,4.414 -4.414,4.414 -2.44,0 -4.414,-1.974 -4.414,-4.414 l 0,-17.655 c 0.001,-2.44 1.975,-4.414 4.414,-4.414 z m -4.413,-13.241 0,-17.655 c 0,-2.44 1.974,-4.414 4.414,-4.414 2.44,0 4.414,1.974 4.414,4.414 l 0,17.655 c 0,2.44 -1.974,4.414 -4.414,4.414 -2.44,0 -4.414,-1.974 -4.414,-4.414 z m 57.379,57.379 -17.655,0 c -2.44,0 -4.414,-1.974 -4.414,-4.414 0,-2.44 1.974,-4.414 4.414,-4.414 l 17.655,0 c 2.44,0 4.414,1.974 4.414,4.414 0,2.44 -1.974,4.414 -4.414,4.414 z m 75.034,-22.069 c 0,2.44 -1.974,4.414 -4.414,4.414 -2.44,0 -4.414,-1.974 -4.414,-4.414 l 0,-17.655 c 0,-2.44 1.974,-4.414 4.414,-4.414 2.44,0 4.414,1.974 4.414,4.414 l 0,17.655 z m 0,-35.31 c 0,2.44 -1.974,4.414 -4.414,4.414 -2.44,0 -4.414,-1.974 -4.414,-4.414 l 0,-17.655 c 0,-2.44 1.974,-4.414 4.414,-4.414 2.44,0 4.414,1.974 4.414,4.414 l 0,17.655 z m 0,-35.31 c 0,2.44 -1.974,4.414 -4.414,4.414 -2.44,0 -4.414,-1.974 -4.414,-4.414 l 0,-17.655 c 0,-2.44 1.974,-4.414 4.414,-4.414 2.44,0 4.414,1.974 4.414,4.414 l 0,17.655 z m 39.726,8.827 0,-61.793 0,-52.965 c 0,-4.875 3.953,-8.828 8.828,-8.828 l 79.448,0 c 4.875,0 8.828,3.953 8.828,8.828 l 0,52.966 0,61.793 0,79.448 c 0,4.875 -3.953,8.828 -8.828,8.828 l -79.448,0 c -4.875,0 -8.828,-3.953 -8.828,-8.828 l 0,-79.449 z m -61.795,-48.551 17.655,0 c 2.44,0 4.414,1.974 4.414,4.414 0,2.44 -1.974,4.414 -4.414,4.414 l -17.655,0 c -2.44,0 -4.414,-1.974 -4.414,-4.414 10e-4,-2.44 1.975,-4.414 4.414,-4.414 z m 0,123.586 17.655,0 c 2.44,0 4.414,1.974 4.414,4.414 0,2.44 -1.974,4.414 -4.414,4.414 l -17.655,0 c -2.44,0 -4.414,-1.974 -4.414,-4.414 0,-2.44 1.975,-4.414 4.414,-4.414 z m -35.31,-123.586 17.655,0 c 2.44,0 4.414,1.974 4.414,4.414 0,2.44 -1.974,4.414 -4.414,4.414 l -17.655,0 c -2.44,0 -4.414,-1.974 -4.414,-4.414 0,-2.44 1.974,-4.414 4.414,-4.414 z m 0,123.586 17.655,0 c 2.44,0 4.414,1.974 4.414,4.414 0,2.44 -1.974,4.414 -4.414,4.414 l -17.655,0 c -2.44,0 -4.414,-1.974 -4.414,-4.414 0,-2.44 1.974,-4.414 4.414,-4.414 z M 123.585,92.69 c 0,-4.879 3.953,-8.828 8.828,-8.828 l 97.103,0 c 4.875,0 8.828,3.948 8.828,8.828 l 0,66.207 17.655,0 c 2.44,0 4.414,1.974 4.414,4.414 0,2.44 -1.974,4.414 -4.414,4.414 l -17.655,0 0,22.069 c 0,0.957 -0.157,1.877 -0.438,2.739 l 23.165,20.754 c 1.919,1.719 1.419,4.847 -0.94,5.884 l -8.778,3.853 7.84,17.857 c 0.979,2.232 -0.039,4.836 -2.268,5.818 -0.577,0.25 -1.181,0.371 -1.771,0.371 -1.703,0 -3.319,-0.983 -4.047,-2.638 l -7.841,-17.859 -8.781,3.854 c -2.359,1.036 -5.001,-0.714 -4.967,-3.29 l 0.371,-28.534 c -0.125,0.006 -0.247,0.019 -0.373,0.019 l -22.069,0 c 0,2.44 -1.974,4.414 -4.414,4.414 -2.44,0 -4.414,-1.974 -4.414,-4.414 l -66.207,0 c -4.875,0 -8.828,-3.948 -8.828,-8.828 l 0,-97.104 10e-4,0 z m -79.447,0 c 0,-4.875 3.953,-8.828 8.828,-8.828 l 26.483,0 c 4.875,0 8.828,3.953 8.828,8.828 l 0,194.207 c 0,4.875 -3.953,8.828 -8.828,8.828 l -26.483,0 c -4.875,0 -8.828,-3.953 -8.828,-8.828 l 0,-194.207 z"
           id="path4147" /></g><path
         inkscape:connector-curvature="0"
         style="fill:#bec8dc"
         d="m 0,375.172 c 0,9.751 7.904,17.655 17.655,17.655 l 167.724,0 141.241,0 167.724,0 c 9.751,0 17.655,-7.904 17.655,-17.655 l 0,-35.31 -511.999,0 0,35.31 z m 256,-22.069 c 7.313,0 13.241,5.929 13.241,13.241 0,7.312 -5.929,13.241 -13.241,13.241 -7.313,0 -13.241,-5.929 -13.241,-13.241 0,-7.312 5.928,-13.241 13.241,-13.241 z"
         id="path4149" /><polygon
         style="fill:#afbbd0"
         points="183.172,410.483 177.655,454.621 334.345,454.621 328.828,410.483 "
         id="polygon4151" /><path
         inkscape:connector-curvature="0"
         style="fill:#bec8dc"
         d="m 176.552,454.621 c -4.875,0 -8.828,3.953 -8.828,8.828 0,4.875 3.953,8.828 8.828,8.828 l 158.897,0 c 4.875,0 8.828,-3.953 8.828,-8.828 0,-4.875 -3.953,-8.828 -8.828,-8.828 l -1.103,0 -156.69,0 -1.104,0 z"
         id="path4153" /><g
         id="g4155"><polygon
           style="fill:#96a5b9"
           points="185.379,392.828 183.172,410.483 328.828,410.483 326.621,392.828 "
           id="polygon4157" /><circle
           style="fill:#96a5b9"
           cx="256"
           cy="366.345"
           r="13.241"
           id="circle4159" /></g><path
         inkscape:connector-curvature="0"
         style="fill:#bec8dc"
         d="m 52.966,295.724 26.483,0 c 4.875,0 8.828,-3.953 8.828,-8.828 l 0,-194.206 c 0,-4.875 -3.953,-8.828 -8.828,-8.828 l -26.483,0 c -4.875,0 -8.828,3.953 -8.828,8.828 l 0,194.207 c 0,4.875 3.952,8.827 8.828,8.827 z m 8.827,-194.207 8.828,0 c 4.875,0 8.828,3.953 8.828,8.828 0,4.875 -3.953,8.828 -8.828,8.828 l -8.828,0 c -4.875,0 -8.828,-3.953 -8.828,-8.828 10e-4,-4.875 3.953,-8.828 8.828,-8.828 z m 0,26.483 8.828,0 c 4.875,0 8.828,3.953 8.828,8.828 0,4.875 -3.953,8.828 -8.828,8.828 l -8.828,0 c -4.875,0 -8.828,-3.953 -8.828,-8.828 10e-4,-4.875 3.953,-8.828 8.828,-8.828 z m 0,26.483 8.828,0 c 4.875,0 8.828,3.953 8.828,8.828 0,4.875 -3.953,8.828 -8.828,8.828 l -8.828,0 c -4.875,0 -8.828,-3.953 -8.828,-8.828 0,-4.875 3.953,-8.828 8.828,-8.828 z m 0,26.483 8.828,0 c 4.875,0 8.828,3.953 8.828,8.828 0,4.875 -3.953,8.828 -8.828,8.828 l -8.828,0 c -4.875,0 -8.828,-3.953 -8.828,-8.828 0,-4.875 3.953,-8.828 8.828,-8.828 z m 0,26.482 8.828,0 c 4.875,0 8.828,3.953 8.828,8.828 0,4.875 -3.953,8.828 -8.828,8.828 l -8.828,0 c -4.875,0 -8.828,-3.953 -8.828,-8.828 0,-4.875 3.953,-8.828 8.828,-8.828 z m -8.827,44.138 c 0,-4.875 3.953,-8.828 8.828,-8.828 l 8.828,0 c 4.875,0 8.828,3.953 8.828,8.828 l 0,17.655 c 0,4.875 -3.953,8.828 -8.828,8.828 l -8.828,0 c -4.875,0 -8.828,-3.953 -8.828,-8.828 l 0,-17.655 z"
         id="path4161" /><path
         inkscape:connector-curvature="0"
         style="fill:#e4eaf6"
         d="m 61.793,119.172 8.828,0 c 4.875,0 8.828,-3.953 8.828,-8.828 0,-4.875 -3.953,-8.828 -8.828,-8.828 l -8.828,0 c -4.875,0 -8.828,3.953 -8.828,8.828 10e-4,4.876 3.953,8.828 8.828,8.828 z"
         id="path4163" /><path
         inkscape:connector-curvature="0"
         style="fill:#96a5b9"
         d="m 61.793,145.655 8.828,0 c 4.875,0 8.828,-3.953 8.828,-8.828 0,-4.875 -3.953,-8.828 -8.828,-8.828 l -8.828,0 c -4.875,0 -8.828,3.953 -8.828,8.828 10e-4,4.876 3.953,8.828 8.828,8.828 z"
         id="path4165" /><g
         id="g4167"><path
           inkscape:connector-curvature="0"
           style="fill:#e4eaf6"
           d="m 61.793,172.138 8.828,0 c 4.875,0 8.828,-3.953 8.828,-8.828 0,-4.875 -3.953,-8.828 -8.828,-8.828 l -8.828,0 c -4.875,0 -8.828,3.953 -8.828,8.828 0,4.875 3.953,8.828 8.828,8.828 z"
           id="path4169" /><path
           inkscape:connector-curvature="0"
           style="fill:#e4eaf6"
           d="m 61.793,198.621 8.828,0 c 4.875,0 8.828,-3.953 8.828,-8.828 0,-4.875 -3.953,-8.828 -8.828,-8.828 l -8.828,0 c -4.875,0 -8.828,3.953 -8.828,8.828 0,4.875 3.953,8.828 8.828,8.828 z"
           id="path4171" /><path
           inkscape:connector-curvature="0"
           style="fill:#e4eaf6"
           d="m 61.793,225.103 8.828,0 c 4.875,0 8.828,-3.953 8.828,-8.828 0,-4.875 -3.953,-8.828 -8.828,-8.828 l -8.828,0 c -4.875,0 -8.828,3.953 -8.828,8.828 0,4.875 3.953,8.828 8.828,8.828 z"
           id="path4173" /></g><path
         inkscape:connector-curvature="0"
         style="fill:#96a5b9"
         d="m 61.793,278.069 8.828,0 c 4.875,0 8.828,-3.953 8.828,-8.828 l 0,-17.655 c 0,-4.875 -3.953,-8.828 -8.828,-8.828 l -8.828,0 c -4.875,0 -8.828,3.953 -8.828,8.828 l 0,17.655 c 10e-4,4.875 3.952,8.828 8.828,8.828 z"
         id="path4175" /><g
         id="g4177"><path
           inkscape:connector-curvature="0"
           style="fill:#bec8dc"
           d="m 467.862,92.69 c 0,-4.875 -3.953,-8.828 -8.828,-8.828 l -79.448,0 c -4.875,0 -8.828,3.953 -8.828,8.828 l 0,52.966 97.103,0 0,-52.966 z m -13.241,44.138 -35.31,0 -8.828,0 -26.483,0 c -2.438,0 -4.414,-1.976 -4.414,-4.414 0,-2.438 1.976,-4.414 4.414,-4.414 l 26.483,0 8.828,0 35.31,0 c 2.438,0 4.414,1.976 4.414,4.414 0,2.438 -1.977,4.414 -4.414,4.414 z m 0,-17.656 -8.828,0 -8.828,0 -52.965,0 c -2.438,0 -4.414,-1.976 -4.414,-4.414 0,-2.438 1.976,-4.414 4.414,-4.414 l 52.966,0 8.828,0 8.828,0 c 2.438,0 4.414,1.976 4.414,4.414 0,2.438 -1.978,4.414 -4.415,4.414 z m 0,-17.655 -52.966,0 -8.828,0 -8.827,0 c -2.438,0 -4.414,-1.976 -4.414,-4.414 0,-2.438 1.976,-4.414 4.414,-4.414 l 8.828,0 8.828,0 52.966,0 c 2.438,0 4.414,1.976 4.414,4.414 0,2.438 -1.978,4.414 -4.415,4.414 z"
           id="path4179" /><path
           inkscape:connector-curvature="0"
           style="fill:#bec8dc"
           d="m 379.586,295.724 79.448,0 c 4.875,0 8.828,-3.953 8.828,-8.828 l 0,-79.448 -97.103,0 0,79.448 c 0,4.876 3.952,8.828 8.827,8.828 z m 39.724,-79.448 35.31,0 c 2.438,0 4.414,1.976 4.414,4.414 0,2.438 -1.976,4.414 -4.414,4.414 l -35.31,0 c -2.438,0 -4.414,-1.976 -4.414,-4.414 0,-2.438 1.977,-4.414 4.414,-4.414 z m 0,17.655 35.31,0 c 2.438,0 4.414,1.976 4.414,4.414 0,2.438 -1.976,4.414 -4.414,4.414 l -35.31,0 c -2.438,0 -4.414,-1.976 -4.414,-4.414 10e-4,-2.438 1.977,-4.414 4.414,-4.414 z m 0,17.655 35.31,0 c 2.438,0 4.414,1.976 4.414,4.414 0,2.438 -1.976,4.414 -4.414,4.414 l -35.31,0 c -2.438,0 -4.414,-1.976 -4.414,-4.414 10e-4,-2.438 1.977,-4.414 4.414,-4.414 z m 0,17.655 35.31,0 c 2.438,0 4.414,1.976 4.414,4.414 0,2.438 -1.976,4.414 -4.414,4.414 l -35.31,0 c -2.438,0 -4.414,-1.976 -4.414,-4.414 10e-4,-2.437 1.977,-4.414 4.414,-4.414 z m -17.655,-52.965 0,0 c 2.438,0 4.414,1.976 4.414,4.414 0,2.438 -1.976,4.414 -4.414,4.414 l 0,0 c -2.438,0 -4.414,-1.976 -4.414,-4.414 0,-2.438 1.977,-4.414 4.414,-4.414 z m 0,17.655 0,0 c 2.438,0 4.414,1.976 4.414,4.414 0,2.438 -1.976,4.414 -4.414,4.414 l 0,0 c -2.438,0 -4.414,-1.976 -4.414,-4.414 0,-2.438 1.977,-4.414 4.414,-4.414 z m 0,17.655 0,0 c 2.438,0 4.414,1.976 4.414,4.414 0,2.438 -1.976,4.414 -4.414,4.414 l 0,0 c -2.438,0 -4.414,-1.976 -4.414,-4.414 0,-2.438 1.977,-4.414 4.414,-4.414 z m 0,17.655 0,0 c 2.438,0 4.414,1.976 4.414,4.414 0,2.438 -1.976,4.414 -4.414,4.414 l 0,0 c -2.438,0 -4.414,-1.976 -4.414,-4.414 0,-2.437 1.977,-4.414 4.414,-4.414 z M 384,216.276 l 0,0 c 2.438,0 4.414,1.976 4.414,4.414 0,2.438 -1.976,4.414 -4.414,4.414 l 0,0 c -2.438,0 -4.414,-1.976 -4.414,-4.414 0,-2.438 1.976,-4.414 4.414,-4.414 z m 0,17.655 0,0 c 2.438,0 4.414,1.976 4.414,4.414 0,2.438 -1.976,4.414 -4.414,4.414 l 0,0 c -2.438,0 -4.414,-1.976 -4.414,-4.414 0,-2.438 1.976,-4.414 4.414,-4.414 z m 0,17.655 0,0 c 2.438,0 4.414,1.976 4.414,4.414 0,2.438 -1.976,4.414 -4.414,4.414 l 0,0 c -2.438,0 -4.414,-1.976 -4.414,-4.414 0,-2.438 1.976,-4.414 4.414,-4.414 z m 0,17.655 0,0 c 2.438,0 4.414,1.976 4.414,4.414 0,2.438 -1.976,4.414 -4.414,4.414 l 0,0 c -2.438,0 -4.414,-1.976 -4.414,-4.414 0,-2.437 1.976,-4.414 4.414,-4.414 z"
           id="path4181" /></g><g
         id="g4183"><path
           inkscape:connector-curvature="0"
           style="fill:#96a5b9"
           d="m 467.862,145.655 -97.103,0 0,61.793 97.103,0 0,-61.793 z m -75.034,52.966 -8.828,0 c -2.438,0 -4.414,-1.976 -4.414,-4.414 0,-2.438 1.976,-4.414 4.414,-4.414 l 8.828,0 c 2.438,0 4.414,1.976 4.414,4.414 0,2.438 -1.977,4.414 -4.414,4.414 z m 0,-17.655 -8.828,0 c -2.438,0 -4.414,-1.976 -4.414,-4.414 0,-2.438 1.976,-4.414 4.414,-4.414 l 8.828,0 c 2.438,0 4.414,1.976 4.414,4.414 0,2.438 -1.977,4.414 -4.414,4.414 z m 0,-17.656 -8.828,0 c -2.438,0 -4.414,-1.976 -4.414,-4.414 0,-2.438 1.976,-4.414 4.414,-4.414 l 8.828,0 c 2.438,0 4.414,1.976 4.414,4.414 0,2.438 -1.977,4.414 -4.414,4.414 z m 61.793,35.311 -44.138,0 c -2.438,0 -4.414,-1.976 -4.414,-4.414 0,-2.438 1.976,-4.414 4.414,-4.414 l 44.138,0 c 2.438,0 4.414,1.976 4.414,4.414 0,2.438 -1.977,4.414 -4.414,4.414 z m 0,-17.655 -44.138,0 c -2.438,0 -4.414,-1.976 -4.414,-4.414 0,-2.438 1.976,-4.414 4.414,-4.414 l 44.138,0 c 2.438,0 4.414,1.976 4.414,4.414 0,2.438 -1.977,4.414 -4.414,4.414 z m 0,-17.656 -44.138,0 c -2.438,0 -4.414,-1.976 -4.414,-4.414 0,-2.438 1.976,-4.414 4.414,-4.414 l 44.138,0 c 2.438,0 4.414,1.976 4.414,4.414 0,2.438 -1.977,4.414 -4.414,4.414 z"
           id="path4185" /><path
           inkscape:connector-curvature="0"
           style="fill:#96a5b9"
           d="m 454.621,92.69 -52.966,0 c 2.438,0 4.414,1.976 4.414,4.414 0,2.438 -1.976,4.414 -4.414,4.414 l 52.966,0 c 2.438,0 4.414,-1.976 4.414,-4.414 0,-2.438 -1.977,-4.414 -4.414,-4.414 z"
           id="path4187" /><path
           inkscape:connector-curvature="0"
           style="fill:#96a5b9"
           d="m 388.414,97.103 c 0,-2.438 1.976,-4.414 4.414,-4.414 l -8.828,0 c -2.438,0 -4.414,1.976 -4.414,4.414 0,2.438 1.976,4.414 4.414,4.414 l 8.828,0 c -2.438,0 -4.414,-1.976 -4.414,-4.414 z"
           id="path4189" /><path
           inkscape:connector-curvature="0"
           style="fill:#96a5b9"
           d="m 454.621,128 -35.31,0 c 2.438,0 4.414,1.976 4.414,4.414 0,2.438 -1.976,4.414 -4.414,4.414 l 35.31,0 c 2.438,0 4.414,-1.976 4.414,-4.414 0,-2.438 -1.977,-4.414 -4.414,-4.414 z"
           id="path4191" /><path
           inkscape:connector-curvature="0"
           style="fill:#96a5b9"
           d="m 406.069,132.414 c 0,-2.438 1.976,-4.414 4.414,-4.414 L 384,128 c -2.438,0 -4.414,1.976 -4.414,4.414 0,2.438 1.976,4.414 4.414,4.414 l 26.483,0 c -2.438,0 -4.414,-1.977 -4.414,-4.414 z"
           id="path4193" /></g><path
         inkscape:connector-curvature="0"
         style="fill:#bec8dc"
         d="m 454.621,154.483 -44.138,0 c -2.438,0 -4.414,1.976 -4.414,4.414 0,2.438 1.976,4.414 4.414,4.414 l 44.138,0 c 2.438,0 4.414,-1.976 4.414,-4.414 0,-2.438 -1.977,-4.414 -4.414,-4.414 z"
         id="path4195" /><g
         id="g4197"><path
           inkscape:connector-curvature="0"
           style="fill:#96a5b9"
           d="m 432.552,114.759 c 0,-2.438 1.976,-4.414 4.414,-4.414 l -52.966,0 c -2.438,0 -4.414,1.976 -4.414,4.414 0,2.438 1.976,4.414 4.414,4.414 l 52.966,0 c -2.438,-0.001 -4.414,-1.977 -4.414,-4.414 z"
           id="path4199" /><path
           inkscape:connector-curvature="0"
           style="fill:#96a5b9"
           d="m 454.621,110.345 -8.828,0 c 2.438,0 4.414,1.976 4.414,4.414 0,2.438 -1.976,4.414 -4.414,4.414 l 8.828,0 c 2.438,0 4.414,-1.976 4.414,-4.414 0,-2.438 -1.977,-4.414 -4.414,-4.414 z"
           id="path4201" /></g><g
         id="g4203"><path
           inkscape:connector-curvature="0"
           style="fill:#e4eaf6"
           d="m 406.069,97.103 c 0,-2.438 -1.976,-4.414 -4.414,-4.414 l -8.828,0 c -2.438,0 -4.414,1.976 -4.414,4.414 0,2.438 1.976,4.414 4.414,4.414 l 8.828,0 c 2.438,0 4.414,-1.976 4.414,-4.414 z"
           id="path4205" /><path
           inkscape:connector-curvature="0"
           style="fill:#e4eaf6"
           d="m 423.724,132.414 c 0,-2.438 -1.976,-4.414 -4.414,-4.414 l -8.828,0 c -2.438,0 -4.414,1.976 -4.414,4.414 0,2.438 1.976,4.414 4.414,4.414 l 8.828,0 c 2.438,0 4.414,-1.977 4.414,-4.414 z"
           id="path4207" /><path
           inkscape:connector-curvature="0"
           style="fill:#e4eaf6"
           d="m 392.828,154.483 -8.828,0 c -2.438,0 -4.414,1.976 -4.414,4.414 0,2.438 1.976,4.414 4.414,4.414 l 8.828,0 c 2.438,0 4.414,-1.976 4.414,-4.414 0,-2.438 -1.977,-4.414 -4.414,-4.414 z"
           id="path4209" /></g><path
         inkscape:connector-curvature="0"
         style="fill:#bec8dc"
         d="m 454.621,172.138 -44.138,0 c -2.438,0 -4.414,1.976 -4.414,4.414 0,2.438 1.976,4.414 4.414,4.414 l 44.138,0 c 2.438,0 4.414,-1.976 4.414,-4.414 0,-2.438 -1.977,-4.414 -4.414,-4.414 z"
         id="path4211" /><path
         inkscape:connector-curvature="0"
         style="fill:#e4eaf6"
         d="m 392.828,172.138 -8.828,0 c -2.438,0 -4.414,1.976 -4.414,4.414 0,2.438 1.976,4.414 4.414,4.414 l 8.828,0 c 2.438,0 4.414,-1.976 4.414,-4.414 0,-2.438 -1.977,-4.414 -4.414,-4.414 z"
         id="path4213" /><path
         inkscape:connector-curvature="0"
         style="fill:#bec8dc"
         d="m 454.621,189.793 -44.138,0 c -2.438,0 -4.414,1.976 -4.414,4.414 0,2.438 1.976,4.414 4.414,4.414 l 44.138,0 c 2.438,0 4.414,-1.976 4.414,-4.414 0,-2.438 -1.977,-4.414 -4.414,-4.414 z"
         id="path4215" /><g
         id="g4217"><path
           inkscape:connector-curvature="0"
           style="fill:#e4eaf6"
           d="m 392.828,189.793 -8.828,0 c -2.438,0 -4.414,1.976 -4.414,4.414 0,2.438 1.976,4.414 4.414,4.414 l 8.828,0 c 2.438,0 4.414,-1.976 4.414,-4.414 0,-2.438 -1.977,-4.414 -4.414,-4.414 z"
           id="path4219" /><path
           inkscape:connector-curvature="0"
           style="fill:#e4eaf6"
           d="m 384,242.759 0,0 c 2.438,0 4.414,-1.976 4.414,-4.414 0,-2.438 -1.976,-4.414 -4.414,-4.414 l 0,0 c -2.438,0 -4.414,1.976 -4.414,4.414 0,2.437 1.976,4.414 4.414,4.414 z"
           id="path4221" /><path
           inkscape:connector-curvature="0"
           style="fill:#e4eaf6"
           d="m 384,225.103 0,0 c 2.438,0 4.414,-1.976 4.414,-4.414 0,-2.438 -1.976,-4.414 -4.414,-4.414 l 0,0 c -2.438,0 -4.414,1.976 -4.414,4.414 0,2.438 1.976,4.414 4.414,4.414 z"
           id="path4223" /><path
           inkscape:connector-curvature="0"
           style="fill:#e4eaf6"
           d="m 384,278.069 0,0 c 2.438,0 4.414,-1.976 4.414,-4.414 0,-2.438 -1.976,-4.414 -4.414,-4.414 l 0,0 c -2.438,0 -4.414,1.976 -4.414,4.414 0,2.438 1.976,4.414 4.414,4.414 z"
           id="path4225" /><path
           inkscape:connector-curvature="0"
           style="fill:#e4eaf6"
           d="m 384,260.414 0,0 c 2.438,0 4.414,-1.976 4.414,-4.414 0,-2.438 -1.976,-4.414 -4.414,-4.414 l 0,0 c -2.438,0 -4.414,1.976 -4.414,4.414 0,2.438 1.976,4.414 4.414,4.414 z"
           id="path4227" /></g><g
         id="g4229"><path
           inkscape:connector-curvature="0"
           style="fill:#96a5b9"
           d="m 401.655,242.759 0,0 c 2.438,0 4.414,-1.976 4.414,-4.414 0,-2.438 -1.976,-4.414 -4.414,-4.414 l 0,0 c -2.438,0 -4.414,1.976 -4.414,4.414 0,2.437 1.977,4.414 4.414,4.414 z"
           id="path4231" /><path
           inkscape:connector-curvature="0"
           style="fill:#96a5b9"
           d="m 401.655,225.103 0,0 c 2.438,0 4.414,-1.976 4.414,-4.414 0,-2.438 -1.976,-4.414 -4.414,-4.414 l 0,0 c -2.438,0 -4.414,1.976 -4.414,4.414 0,2.438 1.977,4.414 4.414,4.414 z"
           id="path4233" /><path
           inkscape:connector-curvature="0"
           style="fill:#96a5b9"
           d="m 401.655,278.069 0,0 c 2.438,0 4.414,-1.976 4.414,-4.414 0,-2.438 -1.976,-4.414 -4.414,-4.414 l 0,0 c -2.438,0 -4.414,1.976 -4.414,4.414 0,2.438 1.977,4.414 4.414,4.414 z"
           id="path4235" /><path
           inkscape:connector-curvature="0"
           style="fill:#96a5b9"
           d="m 401.655,260.414 0,0 c 2.438,0 4.414,-1.976 4.414,-4.414 0,-2.438 -1.976,-4.414 -4.414,-4.414 l 0,0 c -2.438,0 -4.414,1.976 -4.414,4.414 0,2.438 1.977,4.414 4.414,4.414 z"
           id="path4237" /><path
           inkscape:connector-curvature="0"
           style="fill:#96a5b9"
           d="m 419.31,242.759 35.31,0 c 2.438,0 4.414,-1.976 4.414,-4.414 0,-2.438 -1.976,-4.414 -4.414,-4.414 l -35.31,0 c -2.438,0 -4.414,1.976 -4.414,4.414 10e-4,2.437 1.977,4.414 4.414,4.414 z"
           id="path4239" /><path
           inkscape:connector-curvature="0"
           style="fill:#96a5b9"
           d="m 419.31,225.103 35.31,0 c 2.438,0 4.414,-1.976 4.414,-4.414 0,-2.438 -1.976,-4.414 -4.414,-4.414 l -35.31,0 c -2.438,0 -4.414,1.976 -4.414,4.414 0,2.438 1.977,4.414 4.414,4.414 z"
           id="path4241" /><path
           inkscape:connector-curvature="0"
           style="fill:#96a5b9"
           d="m 419.31,278.069 35.31,0 c 2.438,0 4.414,-1.976 4.414,-4.414 0,-2.438 -1.976,-4.414 -4.414,-4.414 l -35.31,0 c -2.438,0 -4.414,1.976 -4.414,4.414 10e-4,2.438 1.977,4.414 4.414,4.414 z"
           id="path4243" /><path
           inkscape:connector-curvature="0"
           style="fill:#96a5b9"
           d="m 419.31,260.414 35.31,0 c 2.438,0 4.414,-1.976 4.414,-4.414 0,-2.438 -1.976,-4.414 -4.414,-4.414 l -35.31,0 c -2.438,0 -4.414,1.976 -4.414,4.414 10e-4,2.438 1.977,4.414 4.414,4.414 z"
           id="path4245" /></g><path
         inkscape:connector-curvature="0"
         style="fill:#e4eaf6"
         d="m 450.207,114.759 c 0,-2.438 -1.976,-4.414 -4.414,-4.414 l -8.828,0 c -2.438,0 -4.414,1.976 -4.414,4.414 0,2.438 1.976,4.414 4.414,4.414 l 8.828,0 c 2.438,-0.001 4.414,-1.977 4.414,-4.414 z"
         id="path4247" /><path
         inkscape:connector-curvature="0"
         style="fill:#ff6469"
         d="m 132.413,198.621 66.207,0 0,-17.655 -57.38,0 0,-79.448 79.448,0 0,57.379 c 2.44,0 4.414,1.974 4.414,4.414 0,2.44 -1.974,4.414 -4.414,4.414 l 0,13.241 -13.241,0 0,17.655 22.069,0 c 0.126,0 0.248,-0.013 0.373,-0.019 l 0.07,-5.305 c 0.04,-3.042 3.641,-4.622 5.907,-2.593 l 2.041,1.828 c 0.281,-0.863 0.438,-1.782 0.438,-2.739 l 0,-22.069 c -2.44,0 -4.414,-1.974 -4.414,-4.414 0,-2.44 1.974,-4.414 4.414,-4.414 l 0,-66.206 c 0,-4.879 -3.953,-8.828 -8.828,-8.828 l -97.103,0 c -4.875,0 -8.828,3.948 -8.828,8.828 l 0,97.103 c -0.001,4.88 3.952,8.828 8.827,8.828 z"
         id="path4249" /><g
         id="g4251"><path
           inkscape:connector-curvature="0"
           style="fill:#96a5b9"
           d="m 203.033,238.345 c 2.44,0 4.414,-1.974 4.414,-4.414 l 0,-17.655 c 0,-2.44 -1.974,-4.414 -4.414,-4.414 -2.44,0 -4.414,1.974 -4.414,4.414 l 0,17.655 c 0.001,2.44 1.975,4.414 4.414,4.414 z"
           id="path4253" /><path
           inkscape:connector-curvature="0"
           style="fill:#96a5b9"
           d="m 308.964,291.31 17.655,0 c 2.44,0 4.414,-1.974 4.414,-4.414 0,-2.44 -1.974,-4.414 -4.414,-4.414 l -17.655,0 c -2.44,0 -4.414,1.974 -4.414,4.414 0,2.44 1.975,4.414 4.414,4.414 z"
           id="path4255" /><path
           inkscape:connector-curvature="0"
           style="fill:#96a5b9"
           d="m 326.62,247.172 c -2.44,0 -4.414,1.974 -4.414,4.414 l 0,17.655 c 0,2.44 1.974,4.414 4.414,4.414 2.44,0 4.414,-1.974 4.414,-4.414 l 0,-17.655 c -10e-4,-2.44 -1.975,-4.414 -4.414,-4.414 z"
           id="path4257" /><path
           inkscape:connector-curvature="0"
           style="fill:#96a5b9"
           d="m 308.964,167.724 17.655,0 c 2.44,0 4.414,-1.974 4.414,-4.414 0,-2.44 -1.974,-4.414 -4.414,-4.414 l -17.655,0 c -2.44,0 -4.414,1.974 -4.414,4.414 10e-4,2.44 1.975,4.414 4.414,4.414 z"
           id="path4259" /><path
           inkscape:connector-curvature="0"
           style="fill:#96a5b9"
           d="m 326.62,176.552 c -2.44,0 -4.414,1.974 -4.414,4.414 l 0,17.655 c 0,2.44 1.974,4.414 4.414,4.414 2.44,0 4.414,-1.974 4.414,-4.414 l 0,-17.655 c -10e-4,-2.44 -1.975,-4.414 -4.414,-4.414 z"
           id="path4261" /><path
           inkscape:connector-curvature="0"
           style="fill:#96a5b9"
           d="m 255.999,282.483 -17.655,0 c -2.44,0 -4.414,1.974 -4.414,4.414 0,2.44 1.974,4.414 4.414,4.414 l 17.655,0 c 2.44,0 4.414,-1.974 4.414,-4.414 0,-2.44 -1.974,-4.414 -4.414,-4.414 z"
           id="path4263" /><path
           inkscape:connector-curvature="0"
           style="fill:#96a5b9"
           d="m 203.033,176.552 c -2.44,0 -4.414,1.974 -4.414,4.414 l 0,17.655 c 0,2.44 1.974,4.414 4.414,4.414 2.44,0 4.414,-1.974 4.414,-4.414 l 0,-17.655 c 0,-2.44 -1.974,-4.414 -4.414,-4.414 z"
           id="path4265" /><path
           inkscape:connector-curvature="0"
           style="fill:#96a5b9"
           d="m 220.689,282.483 -17.655,0 c -2.44,0 -4.414,1.974 -4.414,4.414 0,2.44 1.974,4.414 4.414,4.414 l 17.655,0 c 2.44,0 4.414,-1.974 4.414,-4.414 0,-2.44 -1.975,-4.414 -4.414,-4.414 z"
           id="path4267" /><path
           inkscape:connector-curvature="0"
           style="fill:#96a5b9"
           d="m 198.62,269.241 c 0,2.44 1.974,4.414 4.414,4.414 2.44,0 4.414,-1.974 4.414,-4.414 l 0,-17.655 c 0,-2.44 -1.974,-4.414 -4.414,-4.414 -2.44,0 -4.414,1.974 -4.414,4.414 l 0,17.655 z"
           id="path4269" /><path
           inkscape:connector-curvature="0"
           style="fill:#96a5b9"
           d="m 326.62,211.862 c -2.44,0 -4.414,1.974 -4.414,4.414 l 0,17.655 c 0,2.44 1.974,4.414 4.414,4.414 2.44,0 4.414,-1.974 4.414,-4.414 l 0,-17.655 c -10e-4,-2.44 -1.975,-4.414 -4.414,-4.414 z"
           id="path4271-8" /><path
           inkscape:connector-curvature="0"
           style="fill:#96a5b9"
           d="m 273.654,167.724 17.655,0 c 2.44,0 4.414,-1.974 4.414,-4.414 0,-2.44 -1.974,-4.414 -4.414,-4.414 l -17.655,0 c -2.44,0 -4.414,1.974 -4.414,4.414 0,2.44 1.974,4.414 4.414,4.414 z"
           id="path4273" /><path
           inkscape:connector-curvature="0"
           style="fill:#96a5b9"
           d="m 198.62,163.31 c 0,2.44 1.974,4.414 4.414,4.414 l 17.655,0 c 2.44,0 4.414,-1.974 4.414,-4.414 0,-2.44 -1.974,-4.414 -4.414,-4.414 l -17.655,0 c -2.44,0.001 -4.414,1.975 -4.414,4.414 z"
           id="path4275" /><path
           inkscape:connector-curvature="0"
           style="fill:#96a5b9"
           d="m 273.654,291.31 17.655,0 c 2.44,0 4.414,-1.974 4.414,-4.414 0,-2.44 -1.974,-4.414 -4.414,-4.414 l -17.655,0 c -2.44,0 -4.414,1.974 -4.414,4.414 0,2.44 1.974,4.414 4.414,4.414 z"
           id="path4277" /><path
           inkscape:connector-curvature="0"
           style="fill:#96a5b9"
           d="m 233.93,163.31 c 0,2.44 1.974,4.414 4.414,4.414 l 17.655,0 c 2.44,0 4.414,-1.974 4.414,-4.414 0,-2.44 -1.974,-4.414 -4.414,-4.414 l -17.655,0 c -2.44,0.001 -4.414,1.975 -4.414,4.414 z"
           id="path4279" /></g><path
         inkscape:connector-curvature="0"
         style="fill:#464655"
         d="m 229.958,193.297 -0.07,5.305 -0.371,28.534 c -0.033,2.577 2.607,4.327 4.967,3.29 l 8.781,-3.854 7.841,17.859 c 0.728,1.655 2.345,2.638 4.047,2.638 0.59,0 1.194,-0.12 1.771,-0.371 2.229,-0.983 3.245,-3.586 2.268,-5.818 l -7.84,-17.857 8.778,-3.853 c 2.359,-1.036 2.859,-4.163 0.94,-5.884 l -23.165,-20.754 -2.041,-1.828 c -2.265,-2.03 -5.867,-0.449 -5.906,2.593 z"
         id="path4281" /><g
         id="g4283" /><g
         id="g4285" /><g
         id="g4287" /><g
         id="g4289" /><g
         id="g4291" /><g
         id="g4293" /><g
         id="g4295" /><g
         id="g4297" /><g
         id="g4299" /><g
         id="g4301" /><g
         id="g4303" /><g
         id="g4305" /><g
         id="g4307" /><g
         id="g4309" /><g
         id="g4311" /></g></g></svg>