<svg xmlns="http://www.w3.org/2000/svg" width="171" height="171" viewBox="0 0 171 171"><defs><mask maskUnits="userSpaceOnUse" id="a"><circle cx="85.333" cy="85.972" r="74" fill="#d45b3e"/><path d="M85.348 11.972l-.021.002v147.998h.021c40.86 0 73.984-33.131 73.984-74s-33.123-74-73.984-74z" fill="#c45237"/></mask></defs><circle cx="85.333" cy="85.972" r="74" fill="#d45b3e"/><path d="M85.348 11.972l-.021.002v147.998h.021c40.86 0 73.984-33.131 73.984-74s-33.123-74-73.984-74z" fill="#c45237"/><path d="M85.583 1.222c46.624 0 84.5 37.876 84.5 84.5s-37.876 84.5-84.5 84.5-84.5-37.876-84.5-84.5 37.876-84.5 84.5-84.5z" opacity=".2" fill="none" stroke="#fff"/><path mask="url(#a)" d="M50.332 120.961l43.183 43.321 30.229-9.192 22.097-14.672 11.844-19.976 4.242-21.39.354-5.48-41.95-42.576z" fill="#b14731" fill-rule="evenodd"/><g transform="translate(50.333 50.972) scale(1.2069)"><path fill="#ecf0f1" d="M0 0h58v58H0z"/><path fill="#546a79" d="M0 0h58v12H0z"/><circle cx="6" cy="6" r="3" fill="#ed7161"/><circle cx="15" cy="6" r="3" fill="#f0c419"/><circle cx="24" cy="6" r="3" fill="#4fba6f"/><path d="M49 33H32V16c9.389 0 17 7.611 17 17z" fill="#f0c419"/><path d="M28 20c-9.389 0-17 7.611-17 17s7.611 17 17 17 17-7.611 17-17H28V20z" fill="#14a085"/></g></svg>