<svg xmlns="http://www.w3.org/2000/svg" width="171" height="171" viewBox="0 0 171 171"><defs><mask maskUnits="userSpaceOnUse" id="a"><circle cx="85.333" cy="85.972" r="74" fill="#d45b3e"/><path d="M85.348 11.972l-.021.002v147.998h.021c40.86 0 73.984-33.131 73.984-74s-33.123-74-73.984-74z" fill="#c45237"/></mask></defs><circle cx="85.333" cy="85.972" r="74" fill="#d45b3e"/><path d="M85.348 11.972l-.021.002v147.998h.021c40.86 0 73.984-33.131 73.984-74s-33.123-74-73.984-74z" fill="#c45237"/><path d="M85.583 1.222c46.624 0 84.5 37.876 84.5 84.5s-37.876 84.5-84.5 84.5-84.5-37.876-84.5-84.5 37.876-84.5 84.5-84.5z" opacity=".2" fill="none" stroke="#fff"/><path mask="url(#a)" d="M50.336 120.96l43.539 43.415L135.5 153l20.75-25.5s6.5-25.25 6.5-26.25-.5-9.75-.5-9.75l-41.948-40.515z" fill="#b14731" fill-rule="evenodd"/><g transform="translate(50.333 50.972) scale(1.2069)"><path fill="#ecf0f1" d="M0 0h58v58H0z"/><path fill="#546a79" d="M0 0h58v12H0z"/><circle cx="6" cy="6" r="3" fill="#ed7161"/><circle cx="15" cy="6" r="3" fill="#f0c419"/><circle cx="24" cy="6" r="3" fill="#4fba6f"/><path fill="#95a5a5" d="M0 12h7v46H0z"/><path d="M3 18h1a1 1 0 1 0 0-2H3a1 1 0 1 0 0 2zm1 2H3a1 1 0 1 0 0 2h1a1 1 0 1 0 0-2zm0 4H3a1 1 0 1 0 0 2h1a1 1 0 1 0 0-2zm0 4H3a1 1 0 1 0 0 2h1a1 1 0 1 0 0-2zm0 4H3a1 1 0 1 0 0 2h1a1 1 0 1 0 0-2zm0 4H3a1 1 0 1 0 0 2h1a1 1 0 1 0 0-2zm0 4H3a1 1 0 1 0 0 2h1a1 1 0 1 0 0-2zm0 4H3a1 1 0 1 0 0 2h1a1 1 0 1 0 0-2zm0 4H3a1 1 0 1 0 0 2h1a1 1 0 1 0 0-2zm0 4H3a1 1 0 1 0 0 2h1a1 1 0 1 0 0-2z" fill="#bdc3c7"/><path d="M25 18H12a1 1 0 1 1 0-2h13a1 1 0 1 1 0 2z" fill="#8697cb"/><path d="M39 18H29a1 1 0 1 1 0-2h10a1 1 0 1 1 0 2z" fill="#f0c419"/><path d="M45 18h-2a1 1 0 1 1 0-2h2a1 1 0 1 1 0 2z" fill="#4fba6f"/><path d="M50 22H35a1 1 0 1 1 0-2h15a1 1 0 1 1 0 2z" fill="#8697cb"/><path d="M31 22H17a1 1 0 1 1 0-2h14a1 1 0 1 1 0 2zm-18 0h-1a1 1 0 1 1 0-2h1a1 1 0 1 1 0 2z" fill="#e64c3c"/><path d="M21 26h-9a1 1 0 1 1 0-2h9a1 1 0 1 1 0 2z" fill="#8697cb"/><path d="M27 26h-2a1 1 0 1 1 0-2h2a1 1 0 1 1 0 2z" fill="#f0c419"/><path d="M45 26H31a1 1 0 1 1 0-2h14a1 1 0 1 1 0 2z" fill="#4fba6f"/><path d="M25 30H12a1 1 0 1 1 0-2h13a1 1 0 1 1 0 2z" fill="#f0c419"/><path d="M39 30H29a1 1 0 1 1 0-2h10a1 1 0 1 1 0 2z" fill="#4fba6f"/><path d="M43 34h-8a1 1 0 1 1 0-2h8a1 1 0 1 1 0 2z" fill="#f0c419"/><path d="M31 34H17a1 1 0 1 1 0-2h14a1 1 0 1 1 0 2z" fill="#8697cb"/><path d="M13 34h-1a1 1 0 1 1 0-2h1a1 1 0 1 1 0 2z" fill="#4fba6f"/><path d="M21 38h-9a1 1 0 1 1 0-2h9a1 1 0 1 1 0 2z" fill="#f0c419"/><path d="M27 38h-2a1 1 0 1 1 0-2h2a1 1 0 1 1 0 2z" fill="#8697cb"/><path d="M46 38H31a1 1 0 1 1 0-2h15a1 1 0 1 1 0 2z" fill="#e64c3c"/><path d="M25 42H12a1 1 0 1 1 0-2h13a1 1 0 1 1 0 2z" fill="#8697cb"/><path d="M39 42H29a1 1 0 1 1 0-2h10a1 1 0 1 1 0 2z" fill="#4fba6f"/><path d="M50 42h-7a1 1 0 1 1 0-2h7a1 1 0 1 1 0 2z" fill="#e64c3c"/><path d="M39 46h-4a1 1 0 1 1 0-2h4a1 1 0 1 1 0 2z" fill="#8697cb"/><path d="M31 46H17a1 1 0 1 1 0-2h14a1 1 0 1 1 0 2z" fill="#e64c3c"/><path d="M13 46h-1a1 1 0 1 1 0-2h1a1 1 0 1 1 0 2z" fill="#f0c419"/><path d="M21 50h-9a1 1 0 1 1 0-2h9a1 1 0 1 1 0 2z" fill="#4fba6f"/><path d="M27 50h-2a1 1 0 1 1 0-2h2a1 1 0 1 1 0 2z" fill="#8697cb"/><path d="M38 50h-7a1 1 0 1 1 0-2h7a1 1 0 1 1 0 2z" fill="#e64c3c"/><path d="M43 50h-1a1 1 0 1 1 0-2h1a1 1 0 1 1 0 2z" fill="#f0c419"/></g></svg>