<?xml version="1.0" encoding="UTF-8" standalone="no"?>
<!-- Generator: Adobe Illustrator 17.0.0, SVG Export Plug-In . SVG Version: 6.00 Build 0)  -->

<svg
   xmlns:dc="http://purl.org/dc/elements/1.1/"
   xmlns:cc="http://creativecommons.org/ns#"
   xmlns:rdf="http://www.w3.org/1999/02/22-rdf-syntax-ns#"
   xmlns:svg="http://www.w3.org/2000/svg"
   xmlns="http://www.w3.org/2000/svg"
   xmlns:sodipodi="http://sodipodi.sourceforge.net/DTD/sodipodi-0.dtd"
   xmlns:inkscape="http://www.inkscape.org/namespaces/inkscape"
   version="1.1"
   id="Слой_1"
   sodipodi:docname="Программист  (Шаман).svg"
   inkscape:version="0.91 r13725"
   x="0px"
   y="0px"
   width="171px"
   height="171px"
   viewBox="0 0 171 171"
   enable-background="new 0 0 171 171"
   xml:space="preserve"><metadata
     id="metadata12"><rdf:RDF><cc:Work
         rdf:about=""><dc:format>image/svg+xml</dc:format><dc:type
           rdf:resource="http://purl.org/dc/dcmitype/StillImage" /><dc:title></dc:title></cc:Work></rdf:RDF></metadata><defs
     id="defs10"><mask
       maskUnits="userSpaceOnUse"
       id="mask4338"><g
         id="g4340"><circle
           id="circle4342"
           cx="85.333"
           cy="85.972"
           r="74"
           style="fill:#d45b3e" /><path
           id="path4344"
           inkscape:connector-curvature="0"
           d="m 85.348,11.972 c -0.007,0.001 -0.014,0.001 -0.021,0.002 l 0,147.998 c 0.007,0 0.014,0 0.021,0 40.86,0 73.984,-33.131 73.984,-74 0,-40.869 -33.123,-74 -73.984,-74 0,0 0,0 0,0 z"
           style="fill:#c45237" /></g></mask></defs><sodipodi:namedview
     showguides="false"
     inkscape:cy="22.525022"
     inkscape:cx="20.624016"
     inkscape:zoom="1.4142136"
     showgrid="false"
     guidetolerance="10"
     gridtolerance="10"
     objecttolerance="10"
     borderopacity="1"
     bordercolor="#666666"
     pagecolor="#ffffff"
     id="namedview61"
     inkscape:guide-bbox="true"
     inkscape:current-layer="Слой_1"
     inkscape:window-maximized="1"
     inkscape:window-y="-8"
     inkscape:window-x="-8"
     inkscape:window-height="801"
     inkscape:window-width="1536"
     inkscape:pageshadow="2"
     inkscape:pageopacity="0"><inkscape:grid
       type="xygrid"
       id="grid4289" /></sodipodi:namedview><g
     id="g4346"><g
       id="g4274"><circle
         id="path4230"
         cx="85.333"
         cy="85.972"
         r="74"
         style="fill:#d45b3e" /><path
         id="path4278"
         inkscape:connector-curvature="0"
         d="m 85.348,11.972 c -0.007,0.001 -0.014,0.001 -0.021,0.002 l 0,147.998 c 0.007,0 0.014,0 0.021,0 40.86,0 73.984,-33.131 73.984,-74 0,-40.869 -33.123,-74 -73.984,-74 0,0 0,0 0,0 z"
         style="fill:#c45237" /></g><path
       id="path4271"
       inkscape:connector-curvature="0"
       enable-background="new    "
       d="m 85.583,1.222 c 46.624,0 84.5,37.876 84.5,84.5 0,46.624 -37.876,84.5 -84.5,84.5 -46.624,0 -84.5,-37.876 -84.5,-84.5 0,-46.624 37.876,-84.5 84.5,-84.5 z"
       style="opacity:0.2;fill:none;stroke:#ffffff" /><path
       mask="url(#mask4338)"
       sodipodi:nodetypes="ccccsccc"
       inkscape:connector-curvature="0"
       id="path4330"
       d="M 50.335937,120.96094 93.874998,164.375 135.5,153 156.25,127.5 c 0,0 6.5,-25.25 6.5,-26.25 0,-1 -0.5,-9.749998 -0.5,-9.749998 L 120.30243,50.984838 Z"
       style="fill:#b14731;fill-opacity:1;fill-rule:evenodd;stroke:none;stroke-width:1px;stroke-linecap:butt;stroke-linejoin:miter;stroke-opacity:1" /><g
       transform="matrix(1.2068966,0,0,1.2068966,50.332999,50.971999)"
       id="g4265"><rect
         y="0"
         x="0"
         style="fill:#ecf0f1"
         width="58"
         height="58"
         id="rect4141" /><rect
         y="0"
         x="0"
         style="fill:#546a79"
         width="58"
         height="12"
         id="rect4143" /><circle
         style="fill:#ed7161"
         cx="6"
         cy="6"
         r="3"
         id="circle4145" /><circle
         style="fill:#f0c419"
         cx="15"
         cy="6"
         r="3"
         id="circle4147" /><circle
         style="fill:#4fba6f"
         cx="24"
         cy="6"
         r="3"
         id="circle4149" /><rect
         x="0"
         y="12"
         style="fill:#95a5a5"
         width="7"
         height="46"
         id="rect4151" /><g
         id="g4153"><path
           inkscape:connector-curvature="0"
           style="fill:#bdc3c7"
           d="m 3,18 1,0 C 4.553,18 5,17.553 5,17 5,16.447 4.553,16 4,16 l -1,0 c -0.553,0 -1,0.447 -1,1 0,0.553 0.447,1 1,1 z"
           id="path4155" /><path
           inkscape:connector-curvature="0"
           style="fill:#bdc3c7"
           d="m 4,20 -1,0 c -0.553,0 -1,0.447 -1,1 0,0.553 0.447,1 1,1 l 1,0 C 4.553,22 5,21.553 5,21 5,20.447 4.553,20 4,20 Z"
           id="path4157" /><path
           inkscape:connector-curvature="0"
           style="fill:#bdc3c7"
           d="m 4,24 -1,0 c -0.553,0 -1,0.447 -1,1 0,0.553 0.447,1 1,1 l 1,0 C 4.553,26 5,25.553 5,25 5,24.447 4.553,24 4,24 Z"
           id="path4159" /><path
           inkscape:connector-curvature="0"
           style="fill:#bdc3c7"
           d="m 4,28 -1,0 c -0.553,0 -1,0.447 -1,1 0,0.553 0.447,1 1,1 l 1,0 C 4.553,30 5,29.553 5,29 5,28.447 4.553,28 4,28 Z"
           id="path4161" /><path
           inkscape:connector-curvature="0"
           style="fill:#bdc3c7"
           d="m 4,32 -1,0 c -0.553,0 -1,0.447 -1,1 0,0.553 0.447,1 1,1 l 1,0 C 4.553,34 5,33.553 5,33 5,32.447 4.553,32 4,32 Z"
           id="path4163" /><path
           inkscape:connector-curvature="0"
           style="fill:#bdc3c7"
           d="m 4,36 -1,0 c -0.553,0 -1,0.447 -1,1 0,0.553 0.447,1 1,1 l 1,0 C 4.553,38 5,37.553 5,37 5,36.447 4.553,36 4,36 Z"
           id="path4165" /><path
           inkscape:connector-curvature="0"
           style="fill:#bdc3c7"
           d="m 4,40 -1,0 c -0.553,0 -1,0.447 -1,1 0,0.553 0.447,1 1,1 l 1,0 C 4.553,42 5,41.553 5,41 5,40.447 4.553,40 4,40 Z"
           id="path4167" /><path
           inkscape:connector-curvature="0"
           style="fill:#bdc3c7"
           d="m 4,44 -1,0 c -0.553,0 -1,0.447 -1,1 0,0.553 0.447,1 1,1 l 1,0 C 4.553,46 5,45.553 5,45 5,44.447 4.553,44 4,44 Z"
           id="path4169" /><path
           inkscape:connector-curvature="0"
           style="fill:#bdc3c7"
           d="m 4,48 -1,0 c -0.553,0 -1,0.447 -1,1 0,0.553 0.447,1 1,1 l 1,0 C 4.553,50 5,49.553 5,49 5,48.447 4.553,48 4,48 Z"
           id="path4171" /><path
           inkscape:connector-curvature="0"
           style="fill:#bdc3c7"
           d="m 4,52 -1,0 c -0.553,0 -1,0.447 -1,1 0,0.553 0.447,1 1,1 l 1,0 C 4.553,54 5,53.553 5,53 5,52.447 4.553,52 4,52 Z"
           id="path4173" /></g><path
         inkscape:connector-curvature="0"
         style="fill:#8697cb"
         d="m 25,18 -13,0 c -0.553,0 -1,-0.447 -1,-1 0,-0.553 0.447,-1 1,-1 l 13,0 c 0.553,0 1,0.447 1,1 0,0.553 -0.447,1 -1,1 z"
         id="path4175" /><path
         inkscape:connector-curvature="0"
         style="fill:#f0c419"
         d="m 39,18 -10,0 c -0.553,0 -1,-0.447 -1,-1 0,-0.553 0.447,-1 1,-1 l 10,0 c 0.553,0 1,0.447 1,1 0,0.553 -0.447,1 -1,1 z"
         id="path4177" /><path
         inkscape:connector-curvature="0"
         style="fill:#4fba6f"
         d="m 45,18 -2,0 c -0.553,0 -1,-0.447 -1,-1 0,-0.553 0.447,-1 1,-1 l 2,0 c 0.553,0 1,0.447 1,1 0,0.553 -0.447,1 -1,1 z"
         id="path4179" /><path
         inkscape:connector-curvature="0"
         style="fill:#8697cb"
         d="m 50,22 -15,0 c -0.553,0 -1,-0.447 -1,-1 0,-0.553 0.447,-1 1,-1 l 15,0 c 0.553,0 1,0.447 1,1 0,0.553 -0.447,1 -1,1 z"
         id="path4181" /><path
         inkscape:connector-curvature="0"
         style="fill:#e64c3c"
         d="m 31,22 -14,0 c -0.553,0 -1,-0.447 -1,-1 0,-0.553 0.447,-1 1,-1 l 14,0 c 0.553,0 1,0.447 1,1 0,0.553 -0.447,1 -1,1 z"
         id="path4183" /><path
         inkscape:connector-curvature="0"
         style="fill:#e64c3c"
         d="m 13,22 -1,0 c -0.553,0 -1,-0.447 -1,-1 0,-0.553 0.447,-1 1,-1 l 1,0 c 0.553,0 1,0.447 1,1 0,0.553 -0.447,1 -1,1 z"
         id="path4185" /><path
         inkscape:connector-curvature="0"
         style="fill:#8697cb"
         d="m 21,26 -9,0 c -0.553,0 -1,-0.447 -1,-1 0,-0.553 0.447,-1 1,-1 l 9,0 c 0.553,0 1,0.447 1,1 0,0.553 -0.447,1 -1,1 z"
         id="path4187" /><path
         inkscape:connector-curvature="0"
         style="fill:#f0c419"
         d="m 27,26 -2,0 c -0.553,0 -1,-0.447 -1,-1 0,-0.553 0.447,-1 1,-1 l 2,0 c 0.553,0 1,0.447 1,1 0,0.553 -0.447,1 -1,1 z"
         id="path4189" /><path
         inkscape:connector-curvature="0"
         style="fill:#4fba6f"
         d="m 45,26 -14,0 c -0.553,0 -1,-0.447 -1,-1 0,-0.553 0.447,-1 1,-1 l 14,0 c 0.553,0 1,0.447 1,1 0,0.553 -0.447,1 -1,1 z"
         id="path4191" /><path
         inkscape:connector-curvature="0"
         style="fill:#f0c419"
         d="m 25,30 -13,0 c -0.553,0 -1,-0.447 -1,-1 0,-0.553 0.447,-1 1,-1 l 13,0 c 0.553,0 1,0.447 1,1 0,0.553 -0.447,1 -1,1 z"
         id="path4193" /><path
         inkscape:connector-curvature="0"
         style="fill:#4fba6f"
         d="m 39,30 -10,0 c -0.553,0 -1,-0.447 -1,-1 0,-0.553 0.447,-1 1,-1 l 10,0 c 0.553,0 1,0.447 1,1 0,0.553 -0.447,1 -1,1 z"
         id="path4195" /><path
         inkscape:connector-curvature="0"
         style="fill:#f0c419"
         d="m 43,34 -8,0 c -0.553,0 -1,-0.447 -1,-1 0,-0.553 0.447,-1 1,-1 l 8,0 c 0.553,0 1,0.447 1,1 0,0.553 -0.447,1 -1,1 z"
         id="path4197" /><path
         inkscape:connector-curvature="0"
         style="fill:#8697cb"
         d="m 31,34 -14,0 c -0.553,0 -1,-0.447 -1,-1 0,-0.553 0.447,-1 1,-1 l 14,0 c 0.553,0 1,0.447 1,1 0,0.553 -0.447,1 -1,1 z"
         id="path4199" /><path
         inkscape:connector-curvature="0"
         style="fill:#4fba6f"
         d="m 13,34 -1,0 c -0.553,0 -1,-0.447 -1,-1 0,-0.553 0.447,-1 1,-1 l 1,0 c 0.553,0 1,0.447 1,1 0,0.553 -0.447,1 -1,1 z"
         id="path4201" /><path
         inkscape:connector-curvature="0"
         style="fill:#f0c419"
         d="m 21,38 -9,0 c -0.553,0 -1,-0.447 -1,-1 0,-0.553 0.447,-1 1,-1 l 9,0 c 0.553,0 1,0.447 1,1 0,0.553 -0.447,1 -1,1 z"
         id="path4203" /><path
         inkscape:connector-curvature="0"
         style="fill:#8697cb"
         d="m 27,38 -2,0 c -0.553,0 -1,-0.447 -1,-1 0,-0.553 0.447,-1 1,-1 l 2,0 c 0.553,0 1,0.447 1,1 0,0.553 -0.447,1 -1,1 z"
         id="path4205" /><path
         inkscape:connector-curvature="0"
         style="fill:#e64c3c"
         d="m 46,38 -15,0 c -0.553,0 -1,-0.447 -1,-1 0,-0.553 0.447,-1 1,-1 l 15,0 c 0.553,0 1,0.447 1,1 0,0.553 -0.447,1 -1,1 z"
         id="path4207" /><path
         inkscape:connector-curvature="0"
         style="fill:#8697cb"
         d="m 25,42 -13,0 c -0.553,0 -1,-0.447 -1,-1 0,-0.553 0.447,-1 1,-1 l 13,0 c 0.553,0 1,0.447 1,1 0,0.553 -0.447,1 -1,1 z"
         id="path4209" /><path
         inkscape:connector-curvature="0"
         style="fill:#4fba6f"
         d="m 39,42 -10,0 c -0.553,0 -1,-0.447 -1,-1 0,-0.553 0.447,-1 1,-1 l 10,0 c 0.553,0 1,0.447 1,1 0,0.553 -0.447,1 -1,1 z"
         id="path4211" /><path
         inkscape:connector-curvature="0"
         style="fill:#e64c3c"
         d="m 50,42 -7,0 c -0.553,0 -1,-0.447 -1,-1 0,-0.553 0.447,-1 1,-1 l 7,0 c 0.553,0 1,0.447 1,1 0,0.553 -0.447,1 -1,1 z"
         id="path4213" /><path
         inkscape:connector-curvature="0"
         style="fill:#8697cb"
         d="m 39,46 -4,0 c -0.553,0 -1,-0.447 -1,-1 0,-0.553 0.447,-1 1,-1 l 4,0 c 0.553,0 1,0.447 1,1 0,0.553 -0.447,1 -1,1 z"
         id="path4215" /><path
         inkscape:connector-curvature="0"
         style="fill:#e64c3c"
         d="m 31,46 -14,0 c -0.553,0 -1,-0.447 -1,-1 0,-0.553 0.447,-1 1,-1 l 14,0 c 0.553,0 1,0.447 1,1 0,0.553 -0.447,1 -1,1 z"
         id="path4217" /><path
         inkscape:connector-curvature="0"
         style="fill:#f0c419"
         d="m 13,46 -1,0 c -0.553,0 -1,-0.447 -1,-1 0,-0.553 0.447,-1 1,-1 l 1,0 c 0.553,0 1,0.447 1,1 0,0.553 -0.447,1 -1,1 z"
         id="path4219" /><path
         inkscape:connector-curvature="0"
         style="fill:#4fba6f"
         d="m 21,50 -9,0 c -0.553,0 -1,-0.447 -1,-1 0,-0.553 0.447,-1 1,-1 l 9,0 c 0.553,0 1,0.447 1,1 0,0.553 -0.447,1 -1,1 z"
         id="path4221" /><path
         inkscape:connector-curvature="0"
         style="fill:#8697cb"
         d="m 27,50 -2,0 c -0.553,0 -1,-0.447 -1,-1 0,-0.553 0.447,-1 1,-1 l 2,0 c 0.553,0 1,0.447 1,1 0,0.553 -0.447,1 -1,1 z"
         id="path4223" /><path
         inkscape:connector-curvature="0"
         style="fill:#e64c3c"
         d="m 38,50 -7,0 c -0.553,0 -1,-0.447 -1,-1 0,-0.553 0.447,-1 1,-1 l 7,0 c 0.553,0 1,0.447 1,1 0,0.553 -0.447,1 -1,1 z"
         id="path4225" /><path
         inkscape:connector-curvature="0"
         style="fill:#f0c419"
         d="m 43,50 -1,0 c -0.553,0 -1,-0.447 -1,-1 0,-0.553 0.447,-1 1,-1 l 1,0 c 0.553,0 1,0.447 1,1 0,0.553 -0.447,1 -1,1 z"
         id="path4227" /><g
         id="g4229" /><g
         id="g4231" /><g
         id="g4233" /><g
         id="g4235" /><g
         id="g4237" /><g
         id="g4239" /><g
         id="g4241" /><g
         id="g4243" /><g
         id="g4245" /><g
         id="g4247" /><g
         id="g4249" /><g
         id="g4251" /><g
         id="g4253" /><g
         id="g4255" /><g
         id="g4257" /></g></g></svg>