<svg xmlns="http://www.w3.org/2000/svg" width="171" height="171" viewBox="0 0 171 171"><defs><mask maskUnits="userSpaceOnUse" id="a"><circle cx="85.333" cy="85.972" r="74" fill="#d45b3e"/><path d="M85.348 11.972l-.021.002v147.998h.021c40.86 0 73.984-33.131 73.984-74s-33.123-74-73.984-74z" fill="#c45237"/></mask></defs><circle cx="85.333" cy="85.972" r="74" fill="#d45b3e"/><path d="M85.348 11.972l-.021.002v147.998h.021c40.86 0 73.984-33.131 73.984-74s-33.123-74-73.984-74z" fill="#c45237"/><path d="M85.583 1.222c46.624 0 84.5 37.876 84.5 84.5s-37.876 84.5-84.5 84.5-84.5-37.876-84.5-84.5 37.876-84.5 84.5-84.5z" opacity=".2" fill="none" stroke="#fff"/><path mask="url(#a)" d="M50.328 120.96l45.047 44.915 33.375-11.125 24-21.25 7.5-17.5 1.25-21.75-41.19-43.278z" fill="#b14731" fill-rule="evenodd"/><g transform="translate(50.333 50.972) scale(1.2069)"><path fill="#ecf0f1" d="M0 0h58v58H0z"/><path fill="#546a79" d="M0 0h58v12H0z"/><circle cx="6" cy="6" r="3" fill="#ed7161"/><circle cx="15" cy="6" r="3" fill="#f0c419"/><circle cx="24" cy="6" r="3" fill="#4fba6f"/><path fill="#fff" d="M4 48h13v6H4zm18-6h13v12H22zM4 16h13v6H4zm18 0h13v13H22zM4 26h13v18H4zm36 20h13v8H40zm0-30h13v9H40zm0 13h13v13H40zm-18 4h13v5H22z"/></g></svg>