<?xml version="1.0" encoding="UTF-8" standalone="no"?>
<!-- Generator: Adobe Illustrator 17.0.0, SVG Export Plug-In . SVG Version: 6.00 Build 0)  -->

<svg
   xmlns:dc="http://purl.org/dc/elements/1.1/"
   xmlns:cc="http://creativecommons.org/ns#"
   xmlns:rdf="http://www.w3.org/1999/02/22-rdf-syntax-ns#"
   xmlns:svg="http://www.w3.org/2000/svg"
   xmlns="http://www.w3.org/2000/svg"
   xmlns:sodipodi="http://sodipodi.sourceforge.net/DTD/sodipodi-0.dtd"
   xmlns:inkscape="http://www.inkscape.org/namespaces/inkscape"
   version="1.1"
   id="Слой_1"
   sodipodi:docname="Копирайтер  (Мастер Пера).svg"
   inkscape:version="0.91 r13725"
   x="0px"
   y="0px"
   width="171px"
   height="171px"
   viewBox="0 0 171 171"
   enable-background="new 0 0 171 171"
   xml:space="preserve"><metadata
     id="metadata12"><rdf:RDF><cc:Work
         rdf:about=""><dc:format>image/svg+xml</dc:format><dc:type
           rdf:resource="http://purl.org/dc/dcmitype/StillImage" /><dc:title></dc:title></cc:Work></rdf:RDF></metadata><defs
     id="defs10"><mask
       maskUnits="userSpaceOnUse"
       id="mask4248"><g
         id="g4250"><circle
           id="circle4252"
           cx="85.333"
           cy="85.972"
           r="74"
           style="fill:#d45b3e" /><path
           id="path4254"
           inkscape:connector-curvature="0"
           d="m 85.348,11.972 c -0.007,0.001 -0.014,0.001 -0.021,0.002 l 0,147.998 c 0.007,0 0.014,0 0.021,0 40.86,0 73.984,-33.131 73.984,-74 0,-40.869 -33.123,-74 -73.984,-74 0,0 0,0 0,0 z"
           style="fill:#c45237" /></g></mask></defs><sodipodi:namedview
     showguides="false"
     inkscape:cy="-76.705627"
     inkscape:cx="19.059527"
     inkscape:zoom="1"
     showgrid="false"
     guidetolerance="10"
     gridtolerance="10"
     objecttolerance="10"
     borderopacity="1"
     bordercolor="#666666"
     pagecolor="#ffffff"
     id="namedview61"
     inkscape:guide-bbox="true"
     inkscape:current-layer="Слой_1"
     inkscape:window-maximized="1"
     inkscape:window-y="-8"
     inkscape:window-x="-8"
     inkscape:window-height="801"
     inkscape:window-width="1536"
     inkscape:pageshadow="2"
     inkscape:pageopacity="0"><inkscape:grid
       type="xygrid"
       id="grid4289" /></sodipodi:namedview><g
     id="g4256"><g
       id="g4274"><circle
         id="path4230"
         cx="85.333"
         cy="85.972"
         r="74"
         style="fill:#d45b3e" /><path
         id="path4278"
         inkscape:connector-curvature="0"
         d="m 85.348,11.972 c -0.007,0.001 -0.014,0.001 -0.021,0.002 l 0,147.998 c 0.007,0 0.014,0 0.021,0 40.86,0 73.984,-33.131 73.984,-74 0,-40.869 -33.123,-74 -73.984,-74 0,0 0,0 0,0 z"
         style="fill:#c45237" /></g><path
       id="path4271"
       inkscape:connector-curvature="0"
       enable-background="new    "
       d="m 85.583,1.222 c 46.624,0 84.5,37.876 84.5,84.5 0,46.624 -37.876,84.5 -84.5,84.5 -46.624,0 -84.5,-37.876 -84.5,-84.5 0,-46.624 37.876,-84.5 84.5,-84.5 z"
       style="opacity:0.2;fill:none;stroke:#ffffff" /><path
       mask="url(#mask4248)"
       sodipodi:nodetypes="cccccccc"
       inkscape:connector-curvature="0"
       id="path4240"
       d="M 50.328124,120.96094 95.374998,165.875 128.75,154.75 l 24,-21.25 7.5,-17.5 1.25,-21.749998 -41.18934,-43.27762 z"
       style="fill:#b14731;fill-opacity:1;fill-rule:evenodd;stroke:none;stroke-width:1px;stroke-linecap:butt;stroke-linejoin:miter;stroke-opacity:1" /><g
       transform="matrix(1.2068966,0,0,1.2068966,50.332999,50.971999)"
       id="g4209"><rect
         y="0"
         x="0"
         style="fill:#ecf0f1"
         width="58"
         height="58"
         id="rect4145" /><rect
         y="0"
         x="0"
         style="fill:#546a79"
         width="58"
         height="12"
         id="rect4147" /><circle
         style="fill:#ed7161"
         cx="6"
         cy="6"
         r="3"
         id="circle4149" /><circle
         style="fill:#f0c419"
         cx="15"
         cy="6"
         r="3"
         id="circle4151" /><circle
         style="fill:#4fba6f"
         cx="24"
         cy="6"
         r="3"
         id="circle4153" /><rect
         x="4"
         y="48"
         style="fill:#ffffff"
         width="13"
         height="6"
         id="rect4155" /><rect
         x="22"
         y="42"
         style="fill:#ffffff"
         width="13"
         height="12"
         id="rect4157" /><rect
         x="4"
         y="16"
         style="fill:#ffffff"
         width="13"
         height="6"
         id="rect4159" /><rect
         x="22"
         y="16"
         style="fill:#ffffff"
         width="13"
         height="13"
         id="rect4161" /><rect
         x="4"
         y="26"
         style="fill:#ffffff"
         width="13"
         height="18"
         id="rect4163" /><rect
         x="40"
         y="46"
         style="fill:#ffffff"
         width="13"
         height="8"
         id="rect4165" /><rect
         x="40"
         y="16"
         style="fill:#ffffff"
         width="13"
         height="9"
         id="rect4167" /><rect
         x="40"
         y="29"
         style="fill:#ffffff"
         width="13"
         height="13"
         id="rect4169" /><rect
         x="22"
         y="33"
         style="fill:#ffffff"
         width="13"
         height="5"
         id="rect4171" /><g
         id="g4173" /><g
         id="g4175" /><g
         id="g4177" /><g
         id="g4179" /><g
         id="g4181" /><g
         id="g4183" /><g
         id="g4185" /><g
         id="g4187" /><g
         id="g4189" /><g
         id="g4191" /><g
         id="g4193" /><g
         id="g4195" /><g
         id="g4197" /><g
         id="g4199" /><g
         id="g4201" /></g></g></svg>