<svg xmlns="http://www.w3.org/2000/svg" width="171" height="171" viewBox="0 0 171 171"><defs><filter height="117.813" width="121.25" y="46.562" x="42.5" filterUnits="userSpaceOnUse" id="a"><feColorMatrix values="1 0 0 0 0 0 1 0 0 0 0 0 1 0 0 0 0 0 1 0"/></filter><mask id="b" height="117.813" width="121.25" y="46.562" x="42.5" maskUnits="userSpaceOnUse"><g filter="url(#a)" transform="translate(-220.21 -311.393)"><path d="M306 322.67c-40.869 0-74 33.131-74 74s33.131 74 74 74 74-33.131 74-74-33.131-74-74-74z" fill="#D45B3E"/><path d="M306 322.67c-1.368.03-2.734.099-4.098.205v147.65c1.364.086 2.731.134 4.098.145 40.869 0 74-33.131 74-74s-33.131-74-74-74z" fill="#C45237"/></g></mask><mask maskUnits="userSpaceOnUse" id="c"><path d="M305.559 322.67a74 74 0 0 0-74 74 74 74 0 0 0 74 74 74 74 0 0 0 74-74 74 74 0 0 0-74-74z" transform="translate(-219.743 -311.386)" fill="#d45b3e"/><path d="M85.848 11.285v147.996a74 74 0 0 0 73.968-73.998 74 74 0 0 0-73.968-73.998z" fill="#c45237" stroke-width=".937"/></mask></defs><path d="M85.816.284c46.9 0 85 38.1 85 85s-38.1 85-85 85-85-38.1-85-85 38.1-85 85-85z" fill="#0b2848"/><path d="M85.816.781c46.626 0 84.503 37.877 84.503 84.503s-37.877 84.503-84.503 84.503S1.313 131.91 1.313 85.284 39.19.781 85.816.781z" enable-background="new" opacity=".2" fill="none" stroke="#fff" stroke-width=".994"/><path mask="url(#b)" d="M42.5 118.192l46.625 46.183L110 161l27-15s17.5-22.5 18-23.5 8.5-25 8.5-25l.25-9.75-.75-6.5-34.5-34.688L112 64.25l-69.5 53.942z" fill="#b14731"/><path d="M85.816 11.284a74 74 0 0 0-74 74 74 74 0 0 0 74 74 74 74 0 0 0 74-74 74 74 0 0 0-74-74z" fill="#d45b3e"/><path d="M85.848 11.285v147.996a74 74 0 0 0 73.968-73.998 74 74 0 0 0-73.968-73.998z" fill="#c45237"/><path mask="url(#c)" d="M42.36 117.083l45.852 45.962s22.627-1.414 23.334-1.768c.707-.353 25.633-16.44 25.633-16.44s19.445-23.511 19.799-24.395c.353-.884 8.131-29.168 8.131-29.168l.177-7.425-37.338-37.337L93.161 79.96z" fill="#b14731" fill-rule="evenodd"/><path d="M129.316 116.53a7.525 7.525 0 0 1-7.525 7.526h-71.95a7.525 7.525 0 0 1 0-15.05h71.95a7.525 7.525 0 0 1 7.525 7.525z" fill="#a5a5a5"/><path d="M71.159 118.412c0 .78-.636 1.41-1.419 1.41H54.61a1.415 1.415 0 0 1-1.419-1.41c0-.78.635-1.41 1.419-1.41h15.13a1.413 1.413 0 0 1 1.419 1.41zM117.023 117h-28.37c-.783 0-1.418.632-1.418 1.41 0 .78.635 1.412 1.418 1.412h28.37c.783 0 1.418-.632 1.418-1.411 0-.78-.635-1.411-1.418-1.411zm-34.8 0h-.19c-.783 0-1.418.632-1.418 1.41 0 .78.635 1.412 1.419 1.412h.189c.783 0 1.418-.632 1.418-1.411 0-.78-.635-1.411-1.418-1.411zm-5.863 0h-.19c-.783 0-1.418.632-1.418 1.41 0 .78.635 1.412 1.419 1.412h.189c.783 0 1.418-.632 1.418-1.411 0-.78-.635-1.411-1.418-1.411z" fill="#777"/><path d="M123.642 63.895v41.308a7.565 7.565 0 0 1-7.565 7.565H55.555a7.565 7.565 0 0 1-7.565-7.565V63.895a7.565 7.565 0 0 1 7.565-7.565h60.522a7.565 7.565 0 0 1 7.565 7.565z" fill="#cccac4"/><path d="M116.077 109.006H55.555a3.783 3.783 0 0 1-3.782-3.783V63.875a3.783 3.783 0 0 1 3.782-3.782h60.522a3.783 3.783 0 0 1 3.783 3.782v41.348a3.783 3.783 0 0 1-3.783 3.783z" fill="#f2efe2"/><path d="M112.294 69.509v30.08a1.891 1.891 0 0 1-1.89 1.891H61.228a1.891 1.891 0 0 1-1.891-1.89V69.508a1.89 1.89 0 0 1 1.891-1.891h49.174a1.89 1.89 0 0 1 1.891 1.89z" fill="#ffe6ae"/><path d="M112.294 69.499v30.1a1.886 1.886 0 0 1-1.89 1.881H61.228a1.888 1.888 0 0 1-1.88-1.685L74.531 84.69H91.49c.368 0 .721-.142.986-.396l17.351-16.677h.576c1.045 0 1.891.842 1.891 1.88z" fill="#fcbb9a"/><path d="M129.304 48.009l-1.097 9.256c-.055.465-.478.886-.945.94a.679.679 0 0 1-.569-.176l-3.386-3.368-30.831 29.634a1.422 1.422 0 0 1-.986.396H74.532l-17.442 17.35a1.42 1.42 0 0 1-1.003.413 1.42 1.42 0 0 1-1.003-.413 1.406 1.406 0 0 1 0-1.996l17.858-17.763a1.422 1.422 0 0 1 1.003-.413h16.971l30.385-29.203-3.563-3.544a.67.67 0 0 1-.177-.566c.055-.465.478-.886.945-.941l9.306-1.09c.934-.11 1.603.554 1.492 1.484z" fill="#fc8059"/></svg>