<svg xmlns="http://www.w3.org/2000/svg" width="171" height="171" viewBox="0 0 171 171"><defs><mask maskUnits="userSpaceOnUse" id="c"><path d="M305.559 322.67a74 74 0 0 0-74 74 74 74 0 0 0 74 74 74 74 0 0 0 74-74 74 74 0 0 0-74-74z" transform="translate(-219.743 -311.386)" fill="#d45b3e"/><path d="M85.814 11.283v148a74 74 0 0 0 .002 0 74 74 0 0 0 74-74 74 74 0 0 0-74-74 74 74 0 0 0-.002 0z" fill="#c45237"/></mask></defs><defs><filter id="a" filterUnits="userSpaceOnUse" x="42.094" y="41.531" width="120.656" height="124.219"><feColorMatrix values="1 0 0 0 0 0 1 0 0 0 0 0 1 0 0 0 0 0 1 0"/></filter></defs><mask maskUnits="userSpaceOnUse" x="42.094" y="41.531" width="120.656" height="124.219" id="b"><g transform="translate(-220.21 -311.393)" filter="url(#a)"><path fill="#D45B3E" d="M306 322.67c-40.869 0-74 33.131-74 74s33.131 74 74 74 74-33.131 74-74-33.131-74-74-74z"/><path fill="#C45237" d="M306 322.67c-1.368.03-2.734.099-4.098.205v147.65c1.364.086 2.731.134 4.098.145 40.869 0 74-33.131 74-74s-33.131-74-74-74z"/></g></mask><path d="M85.79 11.277c-40.87 0-74 33.13-74 74 0 40.869 33.13 74 74 74s74-33.131 74-74c0-40.87-33.131-74-74-74z" fill="#D45B3E"/><path d="M85.79 11.277c-1.368.03-2.734.099-4.098.205v147.65c1.364.086 2.73.134 4.098.145 40.869 0 74-33.131 74-74 0-40.87-33.131-74-74-74z" fill="#C45237"/><path d="M85.79 11.277c-40.87 0-74 33.13-74 74 0 40.869 33.13 74 74 74s74-33.131 74-74c0-40.87-33.131-74-74-74z" fill="#D45B3E"/><path d="M85.79 11.277c-1.368.03-2.734.099-4.098.205v147.65c1.364.086 2.73.134 4.098.145 40.869 0 74-33.131 74-74 0-40.87-33.131-74-74-74z" fill="#C45237"/><path fill="#0B2848" d="M85.816.284c46.9 0 85 38.1 85 85s-38.1 85-85 85-85-38.1-85-85 38.1-85 85-85z"/><path opacity=".2" fill="none" stroke="#fff" stroke-width=".994" enable-background="new" d="M85.816.781c46.626 0 84.503 37.877 84.503 84.503s-37.877 84.503-84.503 84.503S1.313 131.91 1.313 85.284 39.19.781 85.816.781z"/><path d="M42.094 116.5L91.5 165.75l27.25-8 25-17.5L160 113l2.75-15L107 41.531 62.5 113.25l-20.406 3.25z" fill="#B14731" mask="url(#b)"/><path d="M85.816 11.284a74 74 0 0 0-74 74 74 74 0 0 0 74 74 74 74 0 0 0 74-74 74 74 0 0 0-74-74z" fill="#d45b3e"/><path d="M85.814 11.283v148a74 74 0 0 0 .002 0 74 74 0 0 0 74-74 74 74 0 0 0-74-74 74 74 0 0 0-.002 0z" fill="#c45237"/><path mask="url(#c)" d="M42.078 116.406l49.797 49.969L128 153.75s23-24.5 24-25.25S165.25 95 165.25 95l-58.222-53.464L65.25 114.25z" fill="#b14731" fill-rule="evenodd"/><path d="M129.566 115.718a7.609 7.609 0 0 1-7.608 7.61H49.675a7.609 7.609 0 0 1 0-15.217l13.315-.001h58.968a7.609 7.609 0 0 1 7.608 7.608z" fill="#dbd8d2"/><path d="M62.99 115.718c0 .788-.639 1.427-1.427 1.427h-9.986c-.803 0-1.45-.662-1.426-1.47.023-.781.705-1.383 1.486-1.383h9.926c.788 0 1.427.639 1.427 1.426z" fill="#a5a5a5"/><path d="M110.545 117.145H91.523V45.338a3.804 3.804 0 0 1 3.804-3.804h11.413a3.804 3.804 0 0 1 3.805 3.804v71.807z" fill="#fc8059"/><path d="M99.131 117.145H80.11V64.36a3.804 3.804 0 0 1 3.804-3.805h11.413a3.804 3.804 0 0 1 3.805 3.805v52.785z" fill="#bf5243"/><path d="M95.327 117.145H76.305v-56.59a3.804 3.804 0 0 1 3.805-3.804h11.413a3.804 3.804 0 0 1 3.804 3.804v56.59z" fill="#a3ccaa"/><path d="M83.914 75.773v41.372h-9.51V71.968h5.706a3.804 3.804 0 0 1 3.804 3.805z" fill="#80a886"/><path d="M80.11 117.145H61.088V71.968a3.804 3.804 0 0 1 3.804-3.804h11.413a3.804 3.804 0 0 1 3.805 3.804v45.177z" fill="#fed766"/><path d="M121.958 85.284v7.608H66.794v-7.608a3.804 3.804 0 0 1 3.805-3.805h47.554a3.804 3.804 0 0 1 3.805 3.805z" fill="#a5a5a5"/><path d="M106.265 86.14v.19a1.427 1.427 0 0 1-2.854 0v-.19a1.427 1.427 0 0 1 2.854 0zm4.28-1.427c-.788 0-1.427.639-1.427 1.427v.19a1.427 1.427 0 0 0 2.853 0v-.19c0-.788-.639-1.427-1.426-1.427zm5.706 0c-.788 0-1.427.639-1.427 1.427v.19a1.427 1.427 0 0 0 2.854 0v-.19c0-.788-.64-1.427-1.427-1.427z" fill="#777"/><path d="M121.958 90.99v34.24a3.804 3.804 0 0 1-3.805 3.804H70.6a3.804 3.804 0 0 1-3.805-3.805V90.99h7.61V79.577c0-1.05.85-1.902 1.901-1.902h11.413c1.05 0 1.902.852 1.902 1.902V90.99h32.338z" fill="#e9f2f4"/><path d="M89.62 79.577V90.99H74.404V79.577c0-1.05.852-1.902 1.902-1.902H87.72c1.05 0 1.902.852 1.902 1.902z" fill="#c3e4ed"/><path d="M84.865 85.284H79.16a.951.951 0 0 1-.951-.951V82.43c0-.526.426-.952.95-.952h5.707c.525 0 .951.426.951.952v1.902a.951.951 0 0 1-.95.95z" fill="#b2d1d8"/><path d="M115.3 123.327H73.452a.951.951 0 0 1-.951-.95v-15.218c0-.525.426-.951.951-.951H115.3c.525 0 .951.426.951.95v15.218a.951.951 0 0 1-.951.951zm-29.484-21.875V99.55a.951.951 0 0 0-.95-.95H73.451a.951.951 0 0 0-.95.95v1.902a.95.95 0 0 0 .95.951h11.413a.951.951 0 0 0 .951-.95zm30.435 0V99.55a.951.951 0 0 0-.951-.95H90.572a.951.951 0 0 0-.951.95v1.902c0 .525.426.951.95.951H115.3a.951.951 0 0 0 .951-.95z" fill="#cfdfe2"/></svg>