<svg xmlns="http://www.w3.org/2000/svg" width="171" height="171" viewBox="0 0 171 171"><defs><filter height="123.114" width="121.953" y="42.261" x="42.797" filterUnits="userSpaceOnUse" id="a"><feColorMatrix values="1 0 0 0 0 0 1 0 0 0 0 0 1 0 0 0 0 0 1 0"/></filter><mask id="b" height="123.114" width="121.953" y="42.261" x="42.797" maskUnits="userSpaceOnUse"><g filter="url(#a)" transform="translate(-220.21 -311.393)"><path d="M306 322.67c-40.869 0-74 33.131-74 74s33.131 74 74 74 74-33.131 74-74-33.131-74-74-74z" fill="#D45B3E"/><path d="M306 322.67c-1.368.03-2.734.099-4.098.205v147.65c1.364.086 2.731.134 4.098.145 40.869 0 74-33.131 74-74s-33.131-74-74-74z" fill="#C45237"/></g></mask><mask maskUnits="userSpaceOnUse" id="c"><path d="M305.559 322.67a74 74 0 0 0-74 74 74 74 0 0 0 74 74 74 74 0 0 0 74-74 74 74 0 0 0-74-74z" transform="translate(-219.743 -311.386)" fill="#d45b3e"/><path d="M85.816 11.283v148a74 74 0 0 0 74-74 74 74 0 0 0-74-74z" fill="#c45237"/></mask></defs><path d="M85.79 11.277c-40.87 0-74 33.13-74 74 0 40.869 33.13 74 74 74s74-33.131 74-74c0-40.87-33.131-74-74-74z" fill="#D45B3E"/><path d="M85.79 11.277c-1.368.03-2.734.099-4.098.205v147.65c1.364.086 2.73.134 4.098.145 40.869 0 74-33.131 74-74 0-40.87-33.131-74-74-74z" fill="#C45237"/><path d="M85.816.284c46.9 0 85 38.1 85 85s-38.1 85-85 85-85-38.1-85-85 38.1-85 85-85z" fill="#0b2848"/><path enable-background="new" d="M85.816.781c46.626 0 84.503 37.877 84.503 84.503s-37.877 84.503-84.503 84.503S1.313 131.91 1.313 85.284 39.19.781 85.816.781z" opacity=".2" fill="none" stroke="#fff" stroke-width=".994"/><path mask="url(#b)" d="M42.797 120.75l44.078 44.625 19.875-3.125s23.25-8.75 24-10.5 25.75-28.5 25.75-28.5L164.75 93l-.75-5.75-42.375-38.625-39.375.031-9.475-6.395-29.978 78.489z" fill="#b14731"/><path d="M85.816 11.284a74 74 0 0 0-74 74 74 74 0 0 0 74 74 74 74 0 0 0 74-74 74 74 0 0 0-74-74z" fill="#d45b3e"/><path d="M85.816 11.283v148a74 74 0 0 0 74-74 74 74 0 0 0-74-74z" fill="#c45237"/><path mask="url(#c)" d="M42.805 119.96l45.32 46.415L120.5 156l31-23.75L164 104.5l.25-17.5-43.015-38.456-35.356.206-13.066-6.5z" fill="#b14731" fill-rule="evenodd"/><path d="M128.816 56.967v7.342h-86v-7.342c0-4.634 3.348-8.39 7.478-8.39h71.044c4.13 0 7.478 3.756 7.478 8.39z" fill="#a5a5a5"/><path d="M109.653 54.765v.21c0 .868-.628 1.573-1.402 1.573-.775 0-1.403-.705-1.403-1.574v-.21c0-.868.628-1.573 1.403-1.573.774 0 1.402.705 1.402 1.574zm4.206-1.574c-.774 0-1.402.705-1.402 1.574v.21c0 .868.628 1.573 1.402 1.573.775 0 1.403-.705 1.403-1.574v-.21c0-.868-.628-1.573-1.403-1.573zm5.61 0c-.775 0-1.403.705-1.403 1.574v.21c0 .868.628 1.573 1.402 1.573.774 0 1.402-.705 1.402-1.574v-.21c0-.868-.628-1.573-1.402-1.573z" fill="#777"/><path d="M128.816 61.162v58.732c0 4.633-3.348 8.39-7.478 8.39H50.294c-4.13 0-7.478-3.757-7.478-8.39V61.162h11.218V46.48c0-2.317 1.674-4.195 3.739-4.195h14.956c2.065 0 3.74 1.878 3.74 4.195v14.683h52.347z" fill="#f2efe2"/><path d="M119.468 102.064c0 2.317-1.674 4.195-3.739 4.195H55.903c-2.065 0-3.74-1.878-3.74-4.195s1.675-4.195 3.74-4.195h59.826c2.065 0 3.74 1.878 3.74 4.195zm-29.913 9.889H55.903c-2.065 0-3.74 1.878-3.74 4.195s1.675 4.195 3.74 4.195h33.652c2.065 0 3.74-1.878 3.74-4.195s-1.675-4.195-3.74-4.195z" fill="#b5c4c6"/><path d="M128.816 61.162v29.366h-86V61.162h11.218V46.48c0-2.317 1.674-4.195 3.739-4.195h14.956c2.065 0 3.74 1.878 3.74 4.195v14.683h52.347z" fill="#dbd8d2"/><path d="M72.73 49.626v4.195c0 1.158-.838 2.097-1.87 2.097H59.642c-1.032 0-1.87-.939-1.87-2.097v-4.195c0-1.159.838-2.098 1.87-2.098H70.86c1.032 0 1.87.939 1.87 2.098z" fill="#cccac4"/><path d="M115.729 82.138H55.903c-2.065 0-3.74-1.878-3.74-4.195v-4.196c0-2.317 1.675-4.195 3.74-4.195h59.826c2.065 0 3.74 1.878 3.74 4.195v4.196c0 2.317-1.675 4.195-3.74 4.195z" fill="#fff"/><path d="M76 75.845c0 .869-.627 1.573-1.401 1.573H57.773c-.775 0-1.403-.704-1.403-1.573s.628-1.573 1.403-1.573h16.826c.774 0 1.402.704 1.402 1.573z" fill="#256277"/><path d="M89.716 76.512l23.35 10.25c2.168.953 2.418 4.284.42 5.629l-8.325 5.604-4.996 9.341c-1.198 2.241-4.167 1.961-5.016-.472l-9.136-26.197c-.414-1.186-.163-2.535.64-3.436.803-.901 2.006-1.184 3.063-.72z" fill="#fc8059"/><path d="M113.487 92.39l-8.326 5.606L86.653 77.23c.804-.901 2.006-1.184 3.063-.719l23.35 10.251c2.169.952 2.418 4.284.42 5.628z" fill="#ad3c1e"/></svg>