<svg xmlns="http://www.w3.org/2000/svg" width="171" height="171" viewBox="0 0 171 171"><defs><filter height="120.779" width="120.146" y="43.034" x="43.5" filterUnits="userSpaceOnUse" id="a"><feColorMatrix values="1 0 0 0 0 0 1 0 0 0 0 0 1 0 0 0 0 0 1 0"/></filter><mask id="b" height="120.779" width="120.146" y="43.034" x="43.5" maskUnits="userSpaceOnUse"><g filter="url(#a)" transform="translate(-220.21 -311.393)"><path d="M306 322.67c-40.869 0-74 33.131-74 74s33.131 74 74 74 74-33.131 74-74-33.131-74-74-74z" fill="#D45B3E"/><path d="M306 322.67c-1.368.03-2.734.099-4.098.205v147.65c1.364.086 2.731.134 4.098.145 40.869 0 74-33.131 74-74s-33.131-74-74-74z" fill="#C45237"/></g></mask><mask maskUnits="userSpaceOnUse" id="c"><path d="M305.559 322.67a74 74 0 0 0-74 74 74 74 0 0 0 74 74 74 74 0 0 0 74-74 74 74 0 0 0-74-74z" transform="translate(-219.743 -311.386)" fill="#d45b3e"/><path d="M85.813 11.283v148a74 74 0 0 0 .003 0 74 74 0 0 0 74-74 74 74 0 0 0-74-74 74 74 0 0 0-.004 0z" fill="#c45237" stroke-width=".658"/></mask></defs><path d="M85.79 11.277c-1.368.03-2.734.099-4.098.205v147.65c1.364.086 2.73.134 4.098.145 40.869 0 74-33.131 74-74 0-40.87-33.131-74-74-74z" fill="#c45237"/><path d="M85.79 11.277c-1.368.03-2.734.099-4.098.205v147.65c1.364.086 2.73.134 4.098.145 40.869 0 74-33.131 74-74 0-40.87-33.131-74-74-74z" fill="#c45237"/><path d="M85.79 11.277c-1.368.03-2.734.099-4.098.205v147.65c1.364.086 2.73.134 4.098.145 40.869 0 74-33.131 74-74 0-40.87-33.131-74-74-74z" fill="#c45237"/><path d="M85.816.284c46.9 0 85 38.1 85 85s-38.1 85-85 85-85-38.1-85-85 38.1-85 85-85z" fill="#0b2848"/><path enable-background="new" d="M85.816.781c46.626 0 84.503 37.877 84.503 84.503s-37.877 84.503-84.503 84.503S1.313 131.91 1.313 85.284 39.19.781 85.816.781z" opacity=".2" fill="none" stroke="#fff" stroke-width=".994"/><path mask="url(#b)" d="M43.5 111.719l10.094 9.906 41.844 42.188L117.25 159 143 142.75l18.75-30.5 1.896-14.686-1.104-8.702-49.075-40.231L107.5 49l-6.75-2.25-8.249-3.716L57.75 99 43.5 111.719z" fill="#b14731"/><path d="M85.816 11.284a74 74 0 0 0-74 74 74 74 0 0 0 74 74 74 74 0 0 0 74-74 74 74 0 0 0-74-74z" fill="#d45b3e"/><path d="M85.813 11.283v148a74 74 0 0 0 .003 0 74 74 0 0 0 74-74 74 74 0 0 0-74-74 74 74 0 0 0-.004 0z" fill="#c45237"/><path mask="url(#c)" d="M43.594 111.563l10.094 10.374 4.406 5.047 36.219 36.329 36.062-12.063s20.75-21.75 21-22.5 10.375-21.25 10.375-21.25l1-7.5.5-3.75-50.078-47.656z" fill="#b14731" fill-rule="evenodd"/><path d="M112.218 127.527H60.792a7.347 7.347 0 0 1-7.347-7.347V55.898a7.347 7.347 0 0 1 7.347-7.347h51.426a7.347 7.347 0 0 1 7.346 7.347v64.282a7.347 7.347 0 0 1-7.346 7.347z" fill="#84a7b7"/><path d="M108.544 120.18H64.465a3.673 3.673 0 0 1-3.673-3.673V50.388a3.673 3.673 0 0 1 3.673-3.673h44.08a3.673 3.673 0 0 1 3.673 3.673v66.119a3.673 3.673 0 0 1-3.674 3.673z" fill="#f2efe2"/><path d="M92.015 54.061h-11.02a5.51 5.51 0 1 1 0-11.02h11.02a5.51 5.51 0 1 1 0 11.02z" fill="#fed766"/><path d="M96.786 45.796a5.51 5.51 0 0 1-4.77 8.265H80.994a5.51 5.51 0 0 1-5.51-5.51c0-1.003.27-1.944.739-2.755a5.506 5.506 0 0 0 4.771 2.755h11.02a5.507 5.507 0 0 0 4.77-2.755z" fill="#e8ba52"/><path d="M73.648 97.222v14.693a2.755 2.755 0 0 1-5.51 0V97.222a2.755 2.755 0 0 1 5.51 0zm18.06-35.814a2.755 2.755 0 0 0-2.754 2.755v47.752a2.755 2.755 0 0 0 5.51 0V64.163a2.755 2.755 0 0 0-2.755-2.755z" fill="#a3ccaa"/><path d="M84.056 75.183v36.732a2.755 2.755 0 0 1-5.51 0V75.183a2.755 2.755 0 0 1 5.51 0zm18.06-2.755a2.755 2.755 0 0 0-2.755 2.755v36.732a2.755 2.755 0 0 0 5.51 0V75.183a2.755 2.755 0 0 0-2.755-2.755z" fill="#80a886"/><path d="M128.058 67.377a9.183 9.183 0 0 1-13.796 7.939L102.86 86.717a1.377 1.377 0 0 1-.973.404H71.234l-25.31 25.309c-.268.27-.62.403-.973.403s-.705-.134-.974-.403a1.377 1.377 0 0 1 0-1.948L69.69 84.769c.258-.258.608-.403.974-.403h30.652l10.787-10.788a9.183 9.183 0 1 1 15.955-6.201z" fill="#fcbb9a"/><path d="M74.567 85.743a3.673 3.673 0 1 1-7.347 0 3.673 3.673 0 0 1 7.347 0zM53.445 98.6a3.673 3.673 0 1 0 0 7.346 3.673 3.673 0 0 0 0-7.346zm48.67-16.53a3.673 3.673 0 1 0 0 7.346 3.673 3.673 0 0 0 0-7.346zm16.76-18.366a3.673 3.673 0 1 0 0 7.346 3.673 3.673 0 0 0 0-7.346z" fill="#fc8059"/></svg>