<svg xmlns="http://www.w3.org/2000/svg" width="171" height="171" viewBox="0 0 171 171"><defs><filter height="123.624" width="120.813" y="42.254" x="42.789" filterUnits="userSpaceOnUse" id="a"><feColorMatrix values="1 0 0 0 0 0 1 0 0 0 0 0 1 0 0 0 0 0 1 0"/></filter><mask id="b" height="123.624" width="120.813" y="42.254" x="42.789" maskUnits="userSpaceOnUse"><g filter="url(#a)" transform="translate(-1.312 -.772)"><path d="M306 322.67c-40.869 0-74 33.131-74 74s33.131 74 74 74 74-33.131 74-74-33.131-74-74-74z" fill="#D45B3E"/><path d="M306 322.67c-1.368.03-2.734.099-4.098.205v147.65c1.364.086 2.731.134 4.098.145 40.869 0 74-33.131 74-74s-33.131-74-74-74z" fill="#C45237"/></g></mask><mask maskUnits="userSpaceOnUse" id="c"><path d="M305.559 322.67a74 74 0 0 0-74 74 74 74 0 0 0 74 74 74 74 0 0 0 74-74 74 74 0 0 0-74-74z" transform="translate(-219.743 -311.386)" fill="#d45b3e"/><path d="M85.816 11.283v148a74 74 0 0 0 74-74 74 74 0 0 0-74-74z" fill="#c45237"/></mask></defs><path d="M85.816.284c46.9 0 85 38.1 85 85s-38.1 85-85 85-85-38.1-85-85 38.1-85 85-85z" fill="#0b2848"/><path enable-background="new" d="M85.816.781c46.626 0 84.503 37.877 84.503 84.503s-37.877 84.503-84.503 84.503S1.313 131.91 1.313 85.284 39.19.781 85.816.781z" opacity=".2" fill="none" stroke="#fff" stroke-width=".994"/><path mask="url(#b)" d="M42.789 112.629l52.063 53.25 18.75-6.25s28-17 28.25-18 14.75-23 14.75-23l2-5.75 2.5-14.25 2.5-14-41.531-36.75-41.123.058-8.048-5.683-30.111 70.375z" fill="#b14731"/><path d="M85.816 11.284a74 74 0 0 0-74 74 74 74 0 0 0 74 74 74 74 0 0 0 74-74 74 74 0 0 0-74-74z" fill="#d45b3e"/><path d="M85.816 11.283v148a74 74 0 0 0 74-74 74 74 0 0 0-74-74z" fill="#c45237"/><path mask="url(#c)" d="M42.842 111.497l51.645 53.05 28.196-10.518 25.456-16.617 11.667-21.92 4.596-24.749-43.133-42.868-39.323.036-9.619-5.672z" fill="#b14731" fill-rule="evenodd"/><path d="M128.816 55.371v5.609h-86v-5.61a7.478 7.478 0 0 1 7.478-7.478h71.044a7.478 7.478 0 0 1 7.478 7.478z" fill="#a5a5a5"/><path d="M109.653 53.408v.187a1.402 1.402 0 0 1-2.805 0v-.187a1.402 1.402 0 0 1 2.805 0zm4.206-1.402c-.774 0-1.402.628-1.402 1.402v.187a1.402 1.402 0 0 0 2.805 0v-.187c0-.774-.628-1.402-1.403-1.402zm5.61 0c-.775 0-1.403.628-1.403 1.402v.187a1.402 1.402 0 0 0 2.804 0v-.187c0-.774-.628-1.402-1.402-1.402z" fill="#777"/><path d="M128.816 59.11v52.348a7.478 7.478 0 0 1-7.478 7.478H50.294a7.478 7.478 0 0 1-7.478-7.478V59.11h11.218V46.023a3.739 3.739 0 0 1 3.739-3.739h14.956a3.739 3.739 0 0 1 3.74 3.74V59.11h52.347z" fill="#e9f2f4"/><path d="M119.468 86.219v20.565a3.739 3.739 0 0 1-3.739 3.74H55.903a3.739 3.739 0 0 1-3.74-3.74V86.22a3.739 3.739 0 0 1 3.74-3.74h59.826a3.739 3.739 0 0 1 3.74 3.74zM55.903 75.002h16.826a3.739 3.739 0 1 0 0-7.478H55.903a3.739 3.739 0 1 0 0 7.478zm59.826-7.479H85.816a3.739 3.739 0 1 0 0 7.478h29.913a3.74 3.74 0 0 0 0-7.478z" fill="#cfdfe2"/><path d="M76.468 46.023V59.11H54.034V46.023a3.739 3.739 0 0 1 3.739-3.739h14.956a3.74 3.74 0 0 1 3.74 3.74z" fill="#c3e4ed"/><path d="M72.73 48.828v3.739a1.87 1.87 0 0 1-1.87 1.87H59.642a1.87 1.87 0 0 1-1.87-1.87v-3.74a1.87 1.87 0 0 1 1.87-1.869H70.86a1.87 1.87 0 0 1 1.87 1.87z" fill="#b2d1d8"/><path d="M115.675 117.695a4.887 4.887 0 0 1-6.677 1.789l-2.137-1.234a14.643 14.643 0 0 1-4.64 2.682v2.465a4.887 4.887 0 0 1-9.774 0v-2.465a14.647 14.647 0 0 1-4.64-2.682l-2.138 1.234a4.887 4.887 0 1 1-4.887-8.465l2.135-1.233a14.738 14.738 0 0 1 0-5.36l-2.135-1.232a4.887 4.887 0 0 1 4.887-8.465l2.138 1.234a14.643 14.643 0 0 1 4.64-2.683v-2.464a4.887 4.887 0 0 1 9.774 0v2.464a14.647 14.647 0 0 1 4.64 2.683l2.137-1.234a4.887 4.887 0 1 1 4.887 8.465l-2.135 1.232a14.738 14.738 0 0 1 0 5.36l2.136 1.233a4.887 4.887 0 0 1 1.789 6.676z" fill="#a5a5a5"/><path d="M107.108 107.106c0 5.398-4.376 9.775-9.774 9.775-5.398 0-9.775-4.377-9.775-9.775 0-5.398 4.376-9.774 9.775-9.774 5.398 0 9.774 4.376 9.774 9.774z" fill="#cccac4"/><path d="M102.22 107.106a4.887 4.887 0 1 1-9.774 0 4.887 4.887 0 0 1 9.775 0z" fill="#fff"/></svg>