<svg xmlns="http://www.w3.org/2000/svg" width="171" height="171" viewBox="0 0 171 171"><g transform="translate(.25 -.25)"><circle fill="#177898" cx="85.25" cy="85.75" r="74"/><path fill="#0F7289" d="M85.265 11.75l-.021.002V159.75h.021c40.86 0 73.984-33.131 73.984-74s-33.123-74-73.984-74z"/></g><path opacity=".2" fill="none" stroke="#FFF" enable-background="new" d="M85.5 1C132.124 1 170 38.876 170 85.5S132.124 170 85.5 170 1 132.124 1 85.5 38.876 1 85.5 1z"/><defs><filter id="a" filterUnits="userSpaceOnUse" x="41.528" y="44.5" width="124.375" height="119.375"><feColorMatrix values="1 0 0 0 0 0 1 0 0 0 0 0 1 0 0 0 0 0 1 0"/></filter></defs><mask maskUnits="userSpaceOnUse" x="41.528" y="44.5" width="124.375" height="119.375" id="b"><g transform="translate(.25 -.25)" filter="url(#a)"><circle fill="#177898" cx="85.25" cy="85.75" r="74"/><path fill="#0F7289" d="M85.265 11.75l-.021.002V159.75h.021c40.86 0 73.984-33.131 73.984-74s-33.123-74-73.984-74z"/></g></mask><path mask="url(#b)" fill="#0F6378" d="M41.528 103.25l61 60.625 30.875-10.375 24-28.25 8.5-25.5v-11.5L124.215 44.5l-82.687 58.75z"/><path fill="#E8EDEE" d="M103.707 126.5H67.293a6.072 6.072 0 0 1 6.069-6.074h24.276a6.072 6.072 0 0 1 6.069 6.074"/><path fill="#B0B6BB" d="M93.086 108.278l3.035 12.148H74.879l3.035-12.148z"/><path fill="#38454F" d="M129.5 96.13h-88V49.814a5.313 5.313 0 0 1 5.31-5.315h77.38c2.932 0 5.31 2.38 5.31 5.315v46.314z"/><path fill="#E8EDEE" d="M124.19 108.278H46.81a5.313 5.313 0 0 1-5.31-5.315v-6.834h88v6.834a5.313 5.313 0 0 1-5.31 5.315"/><path d="M115.845 90.055H93.086a1.518 1.518 0 0 1 0-3.037h22.759a1.518 1.518 0 0 1 0 3.037m-45.518-9.111H55.155a1.518 1.518 0 0 1 0-3.037h15.172a1.518 1.518 0 0 1 0 3.037m37.931 0H85.5a1.518 1.518 0 0 1 0-3.037h22.758a1.518 1.518 0 0 1 0 3.037m-30.344 0a1.51 1.51 0 0 1-.577-.121 1.563 1.563 0 0 1-.5-.32 1.562 1.562 0 0 1-.44-1.077c0-.41.165-.79.44-1.079a1.57 1.57 0 0 1 .5-.318 1.549 1.549 0 0 1 1.654.318 1.6 1.6 0 0 1 .44 1.079c0 .394-.167.79-.44 1.078-.288.273-.683.44-1.077.44m7.586 9.111H62.74a1.518 1.518 0 0 1 0-3.037H85.5a1.518 1.518 0 0 1 0 3.037m-30.345 0a1.51 1.51 0 0 1-.576-.121 1.75 1.75 0 0 1-.501-.319 1.562 1.562 0 0 1-.44-1.078c0-.198.045-.395.121-.577.076-.198.182-.35.319-.501.364-.35.88-.501 1.364-.41a.92.92 0 0 1 .29.091c.09.03.182.076.258.137.09.06.167.121.242.182.137.152.243.304.319.5.076.183.121.38.121.578 0 .41-.167.79-.44 1.078-.075.06-.153.121-.242.182a.858.858 0 0 1-.258.137.925.925 0 0 1-.29.091 1.85 1.85 0 0 1-.287.03m60.69-9.111c-.093 0-.198-.015-.289-.03a.912.912 0 0 1-.288-.091 1.19 1.19 0 0 1-.275-.137l-.226-.182a1.59 1.59 0 0 1-.44-1.078c0-.395.166-.79.44-1.079l.226-.182a1.21 1.21 0 0 1 .275-.136.917.917 0 0 1 .288-.091 1.515 1.515 0 0 1 1.366.41c.06.075.121.151.182.242.06.076.105.167.136.259a.879.879 0 0 1 .09.288 1.7 1.7 0 0 1 .032.288c0 .091-.015.198-.032.304a.913.913 0 0 1-.09.274 1.208 1.208 0 0 1-.136.273l-.182.228-.228.182c-.09.06-.183.106-.273.136a.925.925 0 0 1-.29.092 1.79 1.79 0 0 1-.286.03m0-18.222H93.086a1.518 1.518 0 0 1 0-3.037h22.759a1.518 1.518 0 0 1 0 3.037m0 9.111h-15.173a1.518 1.518 0 0 1 0-3.037h15.173a1.518 1.518 0 0 1 0 3.037m-27.311 0H85.5a1.518 1.518 0 0 1 0-3.037h3.034a1.518 1.518 0 0 1 0 3.037m19.724-18.222H85.5a1.518 1.518 0 0 1 0-3.037h22.758a1.518 1.518 0 0 1 0 3.037m7.587 0c-.093 0-.198-.015-.289-.03a.912.912 0 0 1-.288-.091 1.19 1.19 0 0 1-.275-.137l-.226-.182a1.59 1.59 0 0 1-.44-1.078c0-.395.166-.79.44-1.079l.226-.182a1.21 1.21 0 0 1 .275-.136.917.917 0 0 1 .288-.092 1.515 1.515 0 0 1 1.366.41c.06.076.121.152.182.243.06.076.105.167.136.258a.879.879 0 0 1 .09.289 1.7 1.7 0 0 1 .032.288c0 .091-.015.198-.032.304a.913.913 0 0 1-.09.274 1.208 1.208 0 0 1-.136.273l-.182.228-.228.182c-.09.06-.183.106-.273.136a.925.925 0 0 1-.29.092 1.81 1.81 0 0 1-.286.03m-28.828 9.111c-.394 0-.79-.167-1.077-.44a1.76 1.76 0 0 1-.319-.501 1.51 1.51 0 0 1-.121-.577c0-.198.045-.395.121-.577a1.74 1.74 0 0 1 .319-.501c.349-.35.88-.501 1.364-.41a.92.92 0 0 1 .29.091c.09.03.182.076.258.137.09.06.167.121.227.182.152.152.258.319.334.5.076.183.121.38.121.578 0 .197-.045.395-.121.577a1.513 1.513 0 0 1-.561.683.858.858 0 0 1-.258.137.925.925 0 0 1-.29.09c-.09.016-.196.031-.287.031m7.586 9.111c-.41 0-.79-.167-1.077-.44a1.59 1.59 0 0 1-.44-1.078c0-.395.165-.79.44-1.078.561-.562 1.593-.562 2.155 0 .273.288.44.683.44 1.078 0 .106-.016.197-.032.304a.913.913 0 0 1-.09.273 1.208 1.208 0 0 1-.136.273l-.182.228a1.57 1.57 0 0 1-1.078.44" fill="#EA6148"/><path fill="#ECBA16" d="M55.155 50.574v21.26h21.241v-21.26z"/></svg>