<svg xmlns="http://www.w3.org/2000/svg" width="171" height="171" viewBox="0 0 171 171"><g transform="translate(.25 -.25)"><circle fill="#177898" cx="85.097" cy="85.75" r="74"/><path fill="#0F7289" d="M85.112 11.75l-.021.002V159.75h.021c40.86 0 73.984-33.131 73.984-74s-33.123-74-73.984-74z"/></g><defs><filter id="a" filterUnits="userSpaceOnUse" x="42.833" y="45.857" width="119.75" height="118.252"><feColorMatrix values="1 0 0 0 0 0 1 0 0 0 0 0 1 0 0 0 0 0 1 0"/></filter></defs><mask maskUnits="userSpaceOnUse" x="42.833" y="45.857" width="119.75" height="118.252" id="b"><g filter="url(#a)"><circle fill="#177898" cx="85.097" cy="85.75" r="74"/><path fill="#0F7289" d="M85.112 11.75l-.021.002V159.75h.021c40.86 0 73.984-33.131 73.984-74s-33.123-74-73.984-74z"/></g></mask><path mask="url(#b)" fill="#0F6378" d="M42.833 119.859l44.25 44.25 26.75-2.25 30-18.5 14.75-24.25 2.25-13.25 1.75-13.75-40.344-37.25-7.656 1.25-9.059-10.252-62.691 74.002z"/><path d="M48.403 56.82l-5.556 63.154 21.347 1.858-5.41-61.509 14.944-1.3zm57.951 68.68l.504-5.722-33.13 2.883z" fill="#C4BFAD"/><path fill="#ECE8D8" d="M122.29 54.798l-11.683 1.016a7.578 7.578 0 0 1-7.045 4.78c-2.734 0-5.11-1.45-6.447-3.606l-38.331 3.336 5.555 63.154 63.508-5.526-5.557-63.154z"/><path d="M108.38 78.887c.044 0 .09-.001.133-.006l4.536-.395a1.51 1.51 0 0 0 1.38-1.635 1.514 1.514 0 0 0-1.644-1.372l-4.536.395a1.51 1.51 0 0 0-1.38 1.635c.07.785.732 1.378 1.51 1.378m-16.632 1.448c.044 0 .09-.002.134-.006l10.584-.921a1.512 1.512 0 0 0 1.38-1.635 1.518 1.518 0 0 0-1.644-1.372l-10.584.92a1.51 1.51 0 0 0-1.38 1.635c.07.785.732 1.379 1.51 1.379m-19.524 1.704l13.609-1.184c.836-.072 1.452-.804 1.38-1.634s-.826-1.448-1.644-1.373l-13.61 1.184a1.51 1.51 0 0 0-1.38 1.635 1.516 1.516 0 0 0 1.645 1.372m30.772 3.384a1.51 1.51 0 0 0-1.38 1.635 1.515 1.515 0 0 0 1.644 1.372l10.584-.92a1.513 1.513 0 0 0 1.381-1.636 1.517 1.517 0 0 0-1.644-1.372l-10.585.921zm-8.808 3.796a1.51 1.51 0 0 0 1.38-1.635 1.515 1.515 0 0 0-1.644-1.372l-10.584.92a1.513 1.513 0 0 0-1.381 1.635 1.516 1.516 0 0 0 1.644 1.372l10.585-.92zm-21.17 1.842l4.536-.395a1.51 1.51 0 0 0 1.38-1.635 1.512 1.512 0 0 0-1.645-1.372l-4.535.396a1.51 1.51 0 0 0-1.38 1.634 1.516 1.516 0 0 0 1.644 1.372m38.33 2.726a1.51 1.51 0 0 0-1.378 1.636 1.515 1.515 0 0 0 1.646 1.37l3.023-.264a1.51 1.51 0 0 0 1.378-1.636 1.503 1.503 0 0 0-1.645-1.37l-3.024.264zm-21.168 1.841a1.51 1.51 0 0 0-1.38 1.635 1.513 1.513 0 0 0 1.644 1.372l15.122-1.315c.837-.072 1.453-.804 1.38-1.635s-.815-1.44-1.644-1.372L90.18 95.628zm-9.072.79l-7.56.658a1.512 1.512 0 0 0-1.381 1.635 1.516 1.516 0 0 0 1.643 1.372l7.562-.658a1.51 1.51 0 0 0 1.38-1.635 1.511 1.511 0 0 0-1.644-1.372m34.06 6.128l-15.12 1.316a1.51 1.51 0 0 0-1.38 1.635 1.515 1.515 0 0 0 1.643 1.372l15.121-1.317a1.51 1.51 0 0 0 1.38-1.634 1.511 1.511 0 0 0-1.644-1.372m-24.194 2.104l-6.047.528a1.512 1.512 0 0 0-1.38 1.634 1.517 1.517 0 0 0 1.643 1.372l6.048-.527a1.51 1.51 0 1 0-.264-3.006m-12.096 1.052l-4.536.396a1.51 1.51 0 0 0-1.38 1.634 1.515 1.515 0 0 0 1.644 1.372l4.536-.395a1.51 1.51 0 0 0 1.38-1.635 1.524 1.524 0 0 0-1.644-1.372" fill="#C9B693"/><path fill="#B8BDC1" d="M89.9 68.141a1.52 1.52 0 0 1-1.073-.442 1.502 1.502 0 0 1 0-2.134l8.295-8.25a1.525 1.525 0 0 1 2.147 0c.592.59.592 1.546 0 2.135l-8.296 8.249a1.518 1.518 0 0 1-1.073.442"/><path fill="#E02B22" d="M111.15 53.047c0-4.167-3.398-7.547-7.589-7.547s-7.59 3.38-7.59 7.547 3.4 7.547 7.59 7.547c4.19 0 7.59-3.38 7.59-7.547"/><path opacity=".2" fill="none" stroke="#FFF" enable-background="new" d="M85.347 1c46.624 0 84.5 37.876 84.5 84.5s-37.876 84.5-84.5 84.5-84.5-37.876-84.5-84.5S38.723 1 85.347 1z"/></svg>