<svg xmlns="http://www.w3.org/2000/svg" width="171" height="171" viewBox="0 0 171 171"><g transform="translate(.25 -.25)"><circle fill="#177898" cx="85.25" cy="85.75" r="74"/><path fill="#0F7289" d="M85.265 11.75l-.021.002V159.75h.021c40.86 0 73.984-33.131 73.984-74s-33.123-74-73.984-74z"/></g><path opacity=".2" fill="none" stroke="#FFF" enable-background="new" d="M85.5 1C132.124 1 170 38.876 170 85.5S132.124 170 85.5 170 1 132.124 1 85.5 38.876 1 85.5 1z"/><defs><filter id="a" filterUnits="userSpaceOnUse" x="50.881" y="46.014" width="115.619" height="120.611"><feColorMatrix values="1 0 0 0 0 0 1 0 0 0 0 0 1 0 0 0 0 0 1 0"/></filter></defs><mask maskUnits="userSpaceOnUse" x="50.881" y="46.014" width="115.619" height="120.611" id="b"><g transform="translate(.25 -.25)" filter="url(#a)"><circle fill="#177898" cx="85.25" cy="85.75" r="74"/><path fill="#0F7289" d="M85.265 11.75l-.021.002V159.75h.021c40.86 0 73.984-33.131 73.984-74s-33.123-74-73.984-74z"/></g></mask><path mask="url(#b)" fill="#0F6378" d="M50.881 124.883l42.494 41.742 31.375-8.875 33-27.75 8.75-26.5-.75-9.75-45.902-47.736L53.5 118.5l-2.619 6.383z"/><path fill="#D75A4A" d="M85.5 48.873v3.983c6.092 4.136 10.096 11.1 10.096 18.998s-4.004 14.863-10.096 19v6.855h4.327v8.618l8.654-8.618h21.634A2.878 2.878 0 0 0 123 94.836V48.873A2.878 2.878 0 0 0 120.115 46h-31.73a2.878 2.878 0 0 0-2.885 2.873"/><path fill="#38454F" d="M89.827 97.709H85.5v-6.856a23.038 23.038 0 0 1-12.981 3.983c-2.598 0-5.084-.446-7.415-1.234l-7.008 6.98V89.779c-1.78-1.422-3.322-3.119-4.613-4.997h-2.598A2.878 2.878 0 0 0 48 87.654v25.855a2.878 2.878 0 0 0 2.885 2.873V125l8.654-8.618h31.73a2.878 2.878 0 0 0 2.885-2.873v-11.49l-4.327 4.308V97.71z"/><path d="M114.346 58.927H104.25c-.798 0-1.442-.642-1.442-1.436s.644-1.436 1.442-1.436h10.096c.798 0 1.442.642 1.442 1.436 0 .794-.644 1.436-1.442 1.436m-15.866 0h-7.21c-.798 0-1.443-.642-1.443-1.436s.645-1.436 1.442-1.436h7.212c.797 0 1.442.642 1.442 1.436 0 .794-.645 1.436-1.442 1.436m15.865 7.182h-4.327c-.797 0-1.442-.642-1.442-1.436s.645-1.437 1.442-1.437h4.327a1.438 1.438 0 1 1 0 2.873m-10.096 0h-8.654a1.437 1.437 0 1 1 0-2.873h8.654c.797 0 1.442.642 1.442 1.437 0 .794-.645 1.436-1.442 1.436m10.096 7.182h-8.654a1.438 1.438 0 0 1-1.442-1.436c0-.795.645-1.437 1.442-1.437h8.654a1.438 1.438 0 1 1 0 2.873m-14.423 0h-4.327a1.438 1.438 0 0 1-1.442-1.436c0-.795.644-1.437 1.442-1.437h4.327a1.438 1.438 0 1 1 0 2.873m14.423 7.182h-4.327a1.438 1.438 0 0 1 0-2.873h4.327a1.437 1.437 0 1 1 0 2.873m-10.096 0h-8.654a1.438 1.438 0 0 1 0-2.873h8.654c.797 0 1.442.642 1.442 1.436 0 .795-.645 1.437-1.442 1.437m10.096 7.182h-7.211a1.438 1.438 0 0 1-1.443-1.437c0-.794.645-1.436 1.443-1.436h7.211a1.437 1.437 0 1 1 0 2.873m-12.981 0H91.27a1.438 1.438 0 0 1-1.442-1.437c0-.794.644-1.436 1.442-1.436h10.096c.798 0 1.443.642 1.443 1.436s-.645 1.437-1.443 1.437" fill="#FFF"/><path fill="none" stroke="#000" stroke-width="2" stroke-linecap="round" stroke-linejoin="round" d="M237.376 167.564h9.309" transform="matrix(.15494 0 0 .1543 45.836 46)"/><path d="M81.173 103.455H71.077a1.438 1.438 0 0 1-1.443-1.437c0-.794.645-1.436 1.443-1.436h10.096a1.437 1.437 0 1 1 0 2.873m-15.865 0h-1.443a1.438 1.438 0 0 1-1.442-1.437c0-.794.645-1.436 1.442-1.436h1.443c.797 0 1.442.642 1.442 1.436 0 .795-.645 1.437-1.442 1.437m15.865 7.181h-4.327a1.438 1.438 0 0 1-1.442-1.436c0-.794.644-1.436 1.442-1.436h4.327c.798 0 1.442.642 1.442 1.436 0 .794-.644 1.436-1.442 1.436m-10.096 0h-7.212a1.438 1.438 0 0 1-1.442-1.436c0-.794.645-1.436 1.442-1.436h7.212c.797 0 1.442.642 1.442 1.436 0 .794-.645 1.436-1.442 1.436" fill="#FFF"/><path fill="#4DC95B" d="M72.52 48.873c-12.746 0-23.078 10.288-23.078 22.981 0 7.254 3.383 13.713 8.654 17.925v10.803l7.008-6.98a23.113 23.113 0 0 0 7.415 1.234c12.746 0 23.077-10.288 23.077-22.981S85.265 48.873 72.52 48.873"/><path d="M84.058 66.109h-7.212a1.437 1.437 0 1 1 0-2.873h7.212c.797 0 1.442.642 1.442 1.437 0 .794-.645 1.436-1.442 1.436m-12.981 0H60.98c-.798 0-1.443-.642-1.443-1.436s.645-1.437 1.443-1.437h10.096c.797 0 1.442.642 1.442 1.437 0 .794-.645 1.436-1.442 1.436m5.77 7.182h-5.77a1.438 1.438 0 0 1-1.441-1.436c0-.795.644-1.437 1.442-1.437h5.77a1.437 1.437 0 1 1-.001 2.873m-11.538 0H60.98a1.438 1.438 0 0 1-1.443-1.436c0-.795.645-1.437 1.443-1.437h4.327a1.438 1.438 0 0 1 0 2.873m18.751 7.182H79.73a1.438 1.438 0 0 1 0-2.873h4.327c.797 0 1.442.642 1.442 1.436 0 .795-.645 1.437-1.442 1.437m-10.096 0h-12.98a1.438 1.438 0 0 1 0-2.873h12.98c.798 0 1.443.642 1.443 1.436 0 .795-.645 1.437-1.443 1.437" fill="#FFF"/></svg>