<?xml version="1.0" encoding="UTF-8" standalone="no"?>
<!-- Generator: Adobe Illustrator 17.0.0, SVG Export Plug-In . SVG Version: 6.00 Build 0)  -->

<svg
   xmlns:dc="http://purl.org/dc/elements/1.1/"
   xmlns:cc="http://creativecommons.org/ns#"
   xmlns:rdf="http://www.w3.org/1999/02/22-rdf-syntax-ns#"
   xmlns:svg="http://www.w3.org/2000/svg"
   xmlns="http://www.w3.org/2000/svg"
   xmlns:sodipodi="http://sodipodi.sourceforge.net/DTD/sodipodi-0.dtd"
   xmlns:inkscape="http://www.inkscape.org/namespaces/inkscape"
   version="1.1"
   id="Слой_1"
   sodipodi:docname="why_seo_img2.svg"
   inkscape:version="0.91 r13725"
   x="0px"
   y="0px"
   width="171px"
   height="171px"
   viewBox="0 0 171 171"
   enable-background="new 0 0 171 171"
   xml:space="preserve"><metadata
     id="metadata58"><rdf:RDF><cc:Work
         rdf:about=""><dc:format>image/svg+xml</dc:format><dc:type
           rdf:resource="http://purl.org/dc/dcmitype/StillImage" /></cc:Work></rdf:RDF></metadata><defs
     id="defs56"><defs
       id="defs20"><filter
         height="123.114"
         width="121.953"
         y="42.261"
         x="42.797"
         filterUnits="userSpaceOnUse"
         id="Adobe_OpacityMaskFilter"><feColorMatrix
           id="feColorMatrix23"
           values="1 0 0 0 0  0 1 0 0 0  0 0 1 0 0  0 0 0 1 0"
           type="matrix" /></filter></defs><mask
       id="mask5068"
       height="123.114"
       width="121.953"
       y="42.261"
       x="42.797"
       maskUnits="userSpaceOnUse"><g
         filter="url(#Adobe_OpacityMaskFilter)"
         transform="translate(-220.21042,-311.39331)"
         id="g5070"><path
           d="     M306,322.67c-40.869,0-74,33.131-74,74l0,0c0,40.869,33.131,74,74,74s74-33.131,74-74l0,0C380,355.801,346.869,322.67,306,322.67     L306,322.67z"
           fill="#D45B3E"
           inkscape:original="M 305.55859 322.66992 A 74 74 0 0 0 231.55859 396.66992 A 74 74 0 0 0 305.55859 470.66992 A 74 74 0 0 0 379.55859 396.66992 A 74 74 0 0 0 305.55859 322.66992 z "
           inkscape:radius="0"
           sodipodi:type="inkscape:offset"
           id="path5072" /><path
           d="M306,322.67c-1.368,0.03-2.734,0.099-4.098,0.205v147.65     c1.364,0.086,2.731,0.134,4.098,0.145c40.869,0,74-33.131,74-74l0,0C380,355.801,346.869,322.67,306,322.67L306,322.67z"
           fill="#C45237"
           inkscape:connector-curvature="0"
           id="path5074" /></g></mask><mask
       maskUnits="userSpaceOnUse"
       id="mask4260"><g
         id="g4262"><path
           id="path4264"
           sodipodi:type="inkscape:offset"
           inkscape:radius="0"
           inkscape:original="M 305.55859 322.66992 A 74 74 0 0 0 231.55859 396.66992 A 74 74 0 0 0 305.55859 470.66992 A 74 74 0 0 0 379.55859 396.66992 A 74 74 0 0 0 305.55859 322.66992 z "
           d="m 305.55859,322.66992 a 74,74 0 0 0 -74,74 74,74 0 0 0 74,74 74,74 0 0 0 74,-74 74,74 0 0 0 -74,-74 z"
           style="fill:#d45b3e"
           transform="translate(-219.74259,-311.38592)" /><path
           style="opacity:1;fill:#c45237;fill-opacity:1;fill-rule:nonzero;stroke:none;stroke-width:1;stroke-miterlimit:4;stroke-dasharray:none;stroke-opacity:1"
           d="m 85.816406,11.283203 0,147.999997 a 74,74 0 0 0 74.000004,-73.999997 74,74 0 0 0 -74.000004,-74 z"
           id="path4266"
           inkscape:connector-curvature="0" /></g></mask></defs><sodipodi:namedview
     showguides="true"
     inkscape:cy="31.553319"
     inkscape:cx="47.011764"
     inkscape:zoom="1.9999999"
     showgrid="false"
     guidetolerance="10"
     gridtolerance="10"
     objecttolerance="10"
     borderopacity="1"
     bordercolor="#666666"
     pagecolor="#ffffff"
     id="namedview61"
     inkscape:guide-bbox="true"
     inkscape:current-layer="Слой_1"
     inkscape:window-maximized="1"
     inkscape:window-y="-8"
     inkscape:window-x="-8"
     inkscape:window-height="801"
     inkscape:window-width="1536"
     inkscape:pageshadow="2"
     inkscape:pageopacity="0"><inkscape:grid
       type="xygrid"
       id="grid4289" /><sodipodi:guide
       position="85.81641,159.72657"
       orientation="1,0"
       id="guide4241" /></sodipodi:namedview><g
     id="g4268"><g
       transform="translate(-220.21042,-311.39331)"
       id="g4688"><path
         d="   M306,322.67c-40.869,0-74,33.131-74,74l0,0c0,40.869,33.131,74,74,74s74-33.131,74-74l0,0C380,355.801,346.869,322.67,306,322.67   L306,322.67z"
         fill="#D45B3E"
         inkscape:original="M 305.55859 322.66992 A 74 74 0 0 0 231.55859 396.66992 A 74 74 0 0 0 305.55859 470.66992 A 74 74 0 0 0 379.55859 396.66992 A 74 74 0 0 0 305.55859 322.66992 z "
         inkscape:radius="0"
         sodipodi:type="inkscape:offset"
         id="path4690" /><path
         d="M306,322.67c-1.368,0.03-2.734,0.099-4.098,0.205v147.65   c1.364,0.086,2.731,0.134,4.098,0.145c40.869,0,74-33.131,74-74l0,0C380,355.801,346.869,322.67,306,322.67L306,322.67z"
         fill="#C45237"
         inkscape:connector-curvature="0"
         id="path4692" /></g><g
       id="g4303"><linearGradient
         id="path5_1_"
         gradientUnits="userSpaceOnUse"
         x1="213.90511"
         y1="-250.9303"
         x2="383.90509"
         y2="-250.9303"
         gradientTransform="matrix(0.9942,0,0,-0.9942,-211.341,-164.1786)"><stop
           offset="0"
           style="stop-color:#FFFFFF"
           id="stop12" /><stop
           offset="1"
           style="stop-color:#000000"
           id="stop14" /></linearGradient><g
         id="g4229"><g
           id="g4233"><path
             id="path4299"
             inkscape:connector-curvature="0"
             d="m 85.816,0.284 c 46.9,0 85,38.1 85,85 0,46.9 -38.1,85 -85,85 -46.9,0 -85,-38.1 -85,-85 0,-46.9 38.1,-85 85,-85 z"
             style="fill:#0b2848" /><path
             id="path5"
             inkscape:connector-curvature="0"
             enable-background="new    "
             d="m 85.816,0.781 c 46.626,0 84.503,37.877 84.503,84.503 0,46.626 -37.877,84.503 -84.503,84.503 C 39.19,169.787 1.313,131.91 1.313,85.284 1.313,38.658 39.19,0.781 85.816,0.781 Z"
             style="opacity:0.2;fill:none;stroke:#ffffff;stroke-width:0.99400002;stroke-opacity:1" /></g></g></g><path
       id="path5060"
       inkscape:connector-curvature="0"
       sodipodi:nodetypes="cccsccccccc"
       mask="url(#mask5068)"
       d="m 42.797,120.75 44.078,44.625 19.875,-3.125 c 0,0 23.25,-8.75 24,-10.5 0.75,-1.75 25.75,-28.5 25.75,-28.5 L 164.75,93 164,87.25 121.625,48.625 82.25,48.656 72.775,42.261 42.797,120.75 Z"
       style="fill:#b14731" /><g
       id="g4250"><path
         id="path4213"
         sodipodi:type="inkscape:offset"
         inkscape:radius="0"
         inkscape:original="M 305.55859 322.66992 A 74 74 0 0 0 231.55859 396.66992 A 74 74 0 0 0 305.55859 470.66992 A 74 74 0 0 0 379.55859 396.66992 A 74 74 0 0 0 305.55859 322.66992 z "
         d="m 305.55859,322.66992 a 74,74 0 0 0 -74,74 74,74 0 0 0 74,74 74,74 0 0 0 74,-74 74,74 0 0 0 -74,-74 z"
         style="fill:#d45b3e"
         transform="translate(-219.74259,-311.38592)" /><path
         style="opacity:1;fill:#c45237;fill-opacity:1;fill-rule:nonzero;stroke:none;stroke-width:1;stroke-miterlimit:4;stroke-dasharray:none;stroke-opacity:1"
         d="M 85.816406 11.283203 L 85.816406 159.2832 A 74 74 0 0 0 159.81641 85.283203 A 74 74 0 0 0 85.816406 11.283203 z "
         id="path4239" /></g><path
       mask="url(#mask4260)"
       sodipodi:nodetypes="cccccccccc"
       inkscape:connector-curvature="0"
       id="path4246"
       d="M 42.80469,119.96094 88.125004,166.375 120.50001,156 l 31,-23.75 12.5,-27.75 0.25,-17.500004 -43.01517,-38.455807 -35.35593,0.205806 -13.066407,-6.500001 z"
       style="fill:#b14731;fill-opacity:1;fill-rule:evenodd;stroke:none;stroke-width:1px;stroke-linecap:butt;stroke-linejoin:miter;stroke-opacity:1" /><g
       id="g4452"
       transform="matrix(0.16796875,0,0,0.18845267,42.816084,37.040211)"><path
         id="path4396"
         inkscape:connector-curvature="0"
         d="m 511.999,105.739 0,38.957 -511.999,0 0,-38.957 C 0,81.151 19.933,61.217 44.522,61.217 l 422.956,0 c 24.589,0 44.521,19.934 44.521,44.522 z"
         style="fill:#a5a5a5" /><path
         id="path4398"
         inkscape:connector-curvature="0"
         d="m 397.912,94.052 0,1.113 c 0,4.61 -3.738,8.348 -8.348,8.348 -4.61,0 -8.348,-3.738 -8.348,-8.348 l 0,-1.113 c 0,-4.61 3.738,-8.348 8.348,-8.348 4.61,0 8.348,3.738 8.348,8.348 z m 25.044,-8.348 c -4.61,0 -8.348,3.738 -8.348,8.348 l 0,1.113 c 0,4.61 3.738,8.348 8.348,8.348 4.61,0 8.348,-3.738 8.348,-8.348 l 0,-1.113 c -10e-4,-4.61 -3.738,-8.348 -8.348,-8.348 z m 33.391,0 c -4.61,0 -8.348,3.738 -8.348,8.348 l 0,1.113 c 0,4.61 3.738,8.348 8.348,8.348 4.61,0 8.348,-3.738 8.348,-8.348 l 0,-1.113 c 0,-4.61 -3.738,-8.348 -8.348,-8.348 z"
         style="fill:#777777" /><path
         id="path4400"
         inkscape:connector-curvature="0"
         d="m 511.999,128 0,311.651 c 0,24.588 -19.933,44.522 -44.522,44.522 l -422.955,0 C 19.933,484.173 0,464.239 0,439.651 L 0,128 l 66.783,0 0,-77.913 c 0,-12.295 9.966,-22.261 22.261,-22.261 l 89.043,0 c 12.295,0 22.261,9.966 22.261,22.261 l 0,77.913 311.651,0 z"
         style="fill:#f2efe2" /><path
         id="path4402"
         inkscape:connector-curvature="0"
         d="m 456.347,345.042 c 0,12.295 -9.966,22.261 -22.261,22.261 l -356.173,0 c -12.295,0 -22.261,-9.966 -22.261,-22.261 0,-12.295 9.966,-22.261 22.261,-22.261 l 356.173,0 c 12.295,10e-4 22.261,9.967 22.261,22.261 z m -178.086,52.473 -200.348,0 c -12.295,0 -22.261,9.967 -22.261,22.261 0,12.295 9.966,22.261 22.261,22.261 l 200.348,0 c 12.295,0 22.261,-9.966 22.261,-22.261 0,-12.295 -9.966,-22.261 -22.261,-22.261 z"
         style="fill:#b5c4c6" /><path
         id="path4404"
         inkscape:connector-curvature="0"
         d="m 511.999,128 0,155.826 L 0,283.826 0,128 l 66.783,0 0,-77.913 c 0,-12.295 9.966,-22.261 22.261,-22.261 l 89.043,0 c 12.295,0 22.261,9.966 22.261,22.261 l 0,77.913 311.651,0 z"
         style="fill:#dbd8d2" /><path
         id="path4406"
         inkscape:connector-curvature="0"
         d="m 178.087,66.783 0,22.261 c 0,6.147 -4.983,11.13 -11.13,11.13 l -66.783,0 c -6.147,0 -11.13,-4.983 -11.13,-11.13 l 0,-22.261 c 0,-6.147 4.983,-11.13 11.13,-11.13 l 66.783,0 c 6.147,-10e-4 11.13,4.982 11.13,11.13 z"
         style="fill:#cccac4" /><path
         id="path4408"
         inkscape:connector-curvature="0"
         d="m 434.086,239.304 -356.173,0 c -12.295,0 -22.261,-9.966 -22.261,-22.261 l 0,-22.261 c 0,-12.295 9.966,-22.261 22.261,-22.261 l 356.173,0 c 12.295,0 22.261,9.966 22.261,22.261 l 0,22.261 c 0,12.295 -9.966,22.261 -22.261,22.261 z"
         style="fill:#ffffff" /><path
         id="path4410"
         inkscape:connector-curvature="0"
         d="m 197.565,205.913 c 0,4.61 -3.738,8.348 -8.348,8.348 l -100.174,0 c -4.61,0 -8.348,-3.738 -8.348,-8.348 0,-4.61 3.738,-8.348 8.348,-8.348 l 100.174,0 c 4.611,0 8.348,3.738 8.348,8.348 z"
         style="fill:#256277" /><path
         id="path4412"
         inkscape:connector-curvature="0"
         d="m 279.22,209.45 139.011,54.396 c 12.911,5.052 14.395,22.731 2.505,29.864 l -49.566,29.74 -29.741,49.567 c -7.134,11.89 -24.812,10.406 -29.864,-2.505 L 257.17,231.501 c -2.464,-6.296 -0.966,-13.454 3.814,-18.235 l 0,0 c 4.782,-4.782 11.94,-6.279 18.236,-3.816 z"
         style="fill:#fc8059" /><path
         id="path4414"
         inkscape:connector-curvature="0"
         d="M 420.737,293.711 371.17,323.452 260.985,213.266 c 4.782,-4.782 11.939,-6.279 18.235,-3.814 l 139.011,54.396 c 12.912,5.051 14.396,22.73 2.506,29.863 l 0,0 z"
         style="fill:#ad3c1e" /><g
         id="g4416" /><g
         id="g4418" /><g
         id="g4420" /><g
         id="g4422" /><g
         id="g4424" /><g
         id="g4426" /><g
         id="g4428" /><g
         id="g4430" /><g
         id="g4432" /><g
         id="g4434" /><g
         id="g4436" /><g
         id="g4438" /><g
         id="g4440" /><g
         id="g4442" /><g
         id="g4444" /></g></g></svg>