<?xml version="1.0" encoding="UTF-8" standalone="no"?>
<!-- Generator: Adobe Illustrator 17.0.0, SVG Export Plug-In . SVG Version: 6.00 Build 0)  -->

<svg
   xmlns:dc="http://purl.org/dc/elements/1.1/"
   xmlns:cc="http://creativecommons.org/ns#"
   xmlns:rdf="http://www.w3.org/1999/02/22-rdf-syntax-ns#"
   xmlns:svg="http://www.w3.org/2000/svg"
   xmlns="http://www.w3.org/2000/svg"
   xmlns:sodipodi="http://sodipodi.sourceforge.net/DTD/sodipodi-0.dtd"
   xmlns:inkscape="http://www.inkscape.org/namespaces/inkscape"
   version="1.1"
   id="Слой_1"
   sodipodi:docname="why_seo_img5.svg"
   inkscape:version="0.91 r13725"
   x="0px"
   y="0px"
   width="171px"
   height="171px"
   viewBox="0 0 171 171"
   enable-background="new 0 0 171 171"
   xml:space="preserve"><metadata
     id="metadata64"><rdf:RDF><cc:Work
         rdf:about=""><dc:format>image/svg+xml</dc:format><dc:type
           rdf:resource="http://purl.org/dc/dcmitype/StillImage" /></cc:Work></rdf:RDF></metadata><defs
     id="defs62"><mask
       maskUnits="userSpaceOnUse"
       id="mask4218"><g
         id="g4220"><path
           style="fill:#d45b3e"
           d="m 305.55859,322.66992 a 74,74 0 0 0 -74,74 74,74 0 0 0 74,74 74,74 0 0 0 74,-74 74,74 0 0 0 -74,-74 z"
           inkscape:original="M 305.55859 322.66992 A 74 74 0 0 0 231.55859 396.66992 A 74 74 0 0 0 305.55859 470.66992 A 74 74 0 0 0 379.55859 396.66992 A 74 74 0 0 0 305.55859 322.66992 z "
           inkscape:radius="0"
           sodipodi:type="inkscape:offset"
           id="path4222"
           transform="translate(-219.74259,-311.38592)" /><path
           style="opacity:1;fill:#c45237;fill-opacity:1;fill-rule:nonzero;stroke:none;stroke-width:1;stroke-miterlimit:4;stroke-dasharray:none;stroke-opacity:1"
           d="m 85.814453,11.283203 0,147.999997 a 74,74 0 0 0 0.002,0 74,74 0 0 0 74.000004,-73.999997 74,74 0 0 0 -74.000004,-74 74,74 0 0 0 -0.002,0 z"
           id="path4224"
           inkscape:connector-curvature="0" /></g></mask></defs><sodipodi:namedview
     showguides="true"
     inkscape:cy="55.931116"
     inkscape:cx="33.928635"
     inkscape:zoom="1.9999999"
     showgrid="false"
     guidetolerance="10"
     gridtolerance="10"
     objecttolerance="10"
     borderopacity="1"
     bordercolor="#666666"
     pagecolor="#ffffff"
     id="namedview61"
     inkscape:guide-bbox="true"
     inkscape:current-layer="g5497"
     inkscape:window-maximized="1"
     inkscape:window-y="-8"
     inkscape:window-x="-8"
     inkscape:window-height="801"
     inkscape:window-width="1536"
     inkscape:pageshadow="2"
     inkscape:pageopacity="0"><inkscape:grid
       type="xygrid"
       id="grid4289" /><sodipodi:guide
       position="85.814042,159.76195"
       orientation="1,0"
       id="guide4200" /></sodipodi:namedview><g
     id="g5497"><defs
       id="defs23"><filter
         id="Adobe_OpacityMaskFilter"
         filterUnits="userSpaceOnUse"
         x="42.094"
         y="41.531"
         width="120.656"
         height="124.219"><feColorMatrix
           type="matrix"
           values="1 0 0 0 0  0 1 0 0 0  0 0 1 0 0  0 0 0 1 0"
           id="feColorMatrix26" /></filter></defs><mask
       maskUnits="userSpaceOnUse"
       x="42.094"
       y="41.531"
       width="120.656"
       height="124.219"
       id="mask5489"><g
         id="g5491"
         transform="translate(-220.21042,-311.39331)"
         filter="url(#Adobe_OpacityMaskFilter)"><path
           id="path5493"
           sodipodi:type="inkscape:offset"
           inkscape:radius="0"
           inkscape:original="M 305.55859 322.66992 A 74 74 0 0 0 231.55859 396.66992 A 74 74 0 0 0 305.55859 470.66992 A 74 74 0 0 0 379.55859 396.66992 A 74 74 0 0 0 305.55859 322.66992 z "
           fill="#D45B3E"
           d="     M306,322.67c-40.869,0-74,33.131-74,74l0,0c0,40.869,33.131,74,74,74s74-33.131,74-74l0,0C380,355.801,346.869,322.67,306,322.67     L306,322.67z" /><path
           id="path5495"
           inkscape:connector-curvature="0"
           fill="#C45237"
           d="M306,322.67c-1.368,0.03-2.734,0.099-4.098,0.205v147.65     c1.364,0.086,2.731,0.134,4.098,0.145c40.869,0,74-33.131,74-74l0,0C380,355.801,346.869,322.67,306,322.67L306,322.67z" /></g></mask><g
       id="g4232"><g
         transform="translate(-220.21042,-311.39331)"
         id="g5070"
         style=""><path
           d="   M306,322.67c-40.869,0-74,33.131-74,74l0,0c0,40.869,33.131,74,74,74s74-33.131,74-74l0,0C380,355.801,346.869,322.67,306,322.67   L306,322.67z"
           fill="#D45B3E"
           inkscape:original="M 305.55859 322.66992 A 74 74 0 0 0 231.55859 396.66992 A 74 74 0 0 0 305.55859 470.66992 A 74 74 0 0 0 379.55859 396.66992 A 74 74 0 0 0 305.55859 322.66992 z "
           inkscape:radius="0"
           sodipodi:type="inkscape:offset"
           id="path5072" /><path
           d="M306,322.67c-1.368,0.03-2.734,0.099-4.098,0.205v147.65   c1.364,0.086,2.731,0.134,4.098,0.145c40.869,0,74-33.131,74-74l0,0C380,355.801,346.869,322.67,306,322.67L306,322.67z"
           fill="#C45237"
           inkscape:connector-curvature="0"
           id="path5074" /></g><g
         transform="translate(-220.21042,-311.39331)"
         id="g4688"
         style=""><path
           d="   M306,322.67c-40.869,0-74,33.131-74,74l0,0c0,40.869,33.131,74,74,74s74-33.131,74-74l0,0C380,355.801,346.869,322.67,306,322.67   L306,322.67z"
           fill="#D45B3E"
           inkscape:original="M 305.55859 322.66992 A 74 74 0 0 0 231.55859 396.66992 A 74 74 0 0 0 305.55859 470.66992 A 74 74 0 0 0 379.55859 396.66992 A 74 74 0 0 0 305.55859 322.66992 z "
           inkscape:radius="0"
           sodipodi:type="inkscape:offset"
           id="path4690" /><path
           d="M306,322.67c-1.368,0.03-2.734,0.099-4.098,0.205v147.65   c1.364,0.086,2.731,0.134,4.098,0.145c40.869,0,74-33.131,74-74l0,0C380,355.801,346.869,322.67,306,322.67L306,322.67z"
           fill="#C45237"
           inkscape:connector-curvature="0"
           id="path4692" /></g><g
         id="g4303"><linearGradient
           gradientTransform="matrix(0.9942 0 0 -0.9942 -211.341 -164.1786)"
           y2="-250.9303"
           x2="383.9051"
           y1="-250.9303"
           x1="213.9051"
           gradientUnits="userSpaceOnUse"
           id="path5_1_"><stop
             id="stop15"
             style="stop-color:#FFFFFF"
             offset="0" /><stop
             id="stop17"
             style="stop-color:#000000"
             offset="1" /></linearGradient><g
           id="g4192"><path
             id="path4299"
             inkscape:connector-curvature="0"
             fill="#0B2848"
             d="M85.816,0.284c46.9,0,85,38.1,85,85s-38.1,85-85,85    s-85-38.1-85-85S38.916,0.284,85.816,0.284z" /><path
             id="path5"
             inkscape:connector-curvature="0"
             opacity="0.2"
             fill="none"
             stroke="url(#path5_1_)"
             stroke-width="0.994"
             enable-background="new    "
             d="    M85.816,0.781c46.626,0,84.503,37.877,84.503,84.503s-37.877,84.503-84.503,84.503S1.313,131.91,1.313,85.284    S39.19,0.781,85.816,0.781z"
             style="stroke:#ffffff;stroke-opacity:1" /></g></g><path
         d="   M42.094,116.5L91.5,165.75l27.25-8l25-17.5L160,113l2.75-15L107,41.531L62.5,113.25L42.094,116.5z"
         fill="#B14731"
         mask="url(#mask5489)"
         sodipodi:nodetypes="ccccccccc"
         inkscape:connector-curvature="0"
         id="path5481" /><g
         id="g4205"><path
           style="fill:#d45b3e"
           d="m 305.55859,322.66992 a 74,74 0 0 0 -74,74 74,74 0 0 0 74,74 74,74 0 0 0 74,-74 74,74 0 0 0 -74,-74 z"
           inkscape:original="M 305.55859 322.66992 A 74 74 0 0 0 231.55859 396.66992 A 74 74 0 0 0 305.55859 470.66992 A 74 74 0 0 0 379.55859 396.66992 A 74 74 0 0 0 305.55859 322.66992 z "
           inkscape:radius="0"
           sodipodi:type="inkscape:offset"
           id="path4213"
           transform="translate(-219.74259,-311.38592)" /><path
           style="opacity:1;fill:#c45237;fill-opacity:1;fill-rule:nonzero;stroke:none;stroke-width:1;stroke-miterlimit:4;stroke-dasharray:none;stroke-opacity:1"
           d="M 85.814453 11.283203 L 85.814453 159.2832 A 74 74 0 0 0 85.816406 159.2832 A 74 74 0 0 0 159.81641 85.283203 A 74 74 0 0 0 85.816406 11.283203 A 74 74 0 0 0 85.814453 11.283203 z "
           id="path4198" /></g><path
         mask="url(#mask4218)"
         sodipodi:nodetypes="cccscccc"
         inkscape:connector-curvature="0"
         id="path4209"
         d="M 42.078127,116.40625 91.875005,166.375 128.00001,153.75 c 0,0 23,-24.5 24,-25.25 1,-0.75 13.25,-33.500004 13.25,-33.500004 L 107.02774,41.535954 65.250003,114.25 Z"
         style="fill:#b14731;fill-opacity:1;fill-rule:evenodd;stroke:none;stroke-width:1px;stroke-linecap:butt;stroke-linejoin:miter;stroke-opacity:1" /><g
         transform="matrix(0.1708984,0,0,0.1708984,42.066129,41.533526)"
         id="g4925"><path
           style="fill:#dbd8d2"
           d="m 512.001,434.088 0,0 c 0,24.588 -19.933,44.522 -44.522,44.522 l -422.957,0 C 19.933,478.61 0,458.676 0,434.088 l 0,0 C 0,409.5 19.933,389.566 44.522,389.566 l 77.913,0 267.131,0 77.913,0 c 24.588,0 44.522,19.934 44.522,44.522 z"
           inkscape:connector-curvature="0"
           id="path4863" /><path
           style="fill:#a5a5a5"
           d="m 122.435,434.088 0,0 c 0,4.61 -3.738,8.348 -8.348,8.348 l -58.435,0 c -4.696,0 -8.486,-3.877 -8.344,-8.605 0.137,-4.569 4.123,-8.091 8.694,-8.091 l 58.085,0 c 4.61,0 8.348,3.738 8.348,8.348 z"
           inkscape:connector-curvature="0"
           id="path4865" /><path
           style="fill:#fc8059"
           d="m 400.697,442.436 -111.305,0 0,-420.175 C 289.392,9.966 299.358,0 311.653,0 l 66.783,0 c 12.295,0 22.261,9.966 22.261,22.261 0,0 0,420.175 0,420.175 z"
           inkscape:connector-curvature="0"
           id="path4867" /><path
           style="fill:#bf5243"
           d="m 333.914,442.436 -111.304,0 0,-308.871 c 0,-12.295 9.966,-22.261 22.261,-22.261 l 66.783,0 c 12.295,0 22.261,9.966 22.261,22.261 l -0.001,308.871 0,0 z"
           inkscape:connector-curvature="0"
           id="path4869" /><path
           style="fill:#a3ccaa"
           d="m 311.653,442.436 -111.305,0 0,-331.131 c 0,-12.295 9.966,-22.261 22.261,-22.261 l 66.783,0 c 12.295,0 22.261,9.966 22.261,22.261 l 0,331.131 0,0 z"
           inkscape:connector-curvature="0"
           id="path4871" /><path
           style="fill:#80a886"
           d="m 244.871,200.348 0,242.088 -55.652,0 0,-264.349 33.391,0 c 12.294,0 22.261,9.966 22.261,22.261 z"
           inkscape:connector-curvature="0"
           id="path4873" /><path
           style="fill:#fed766"
           d="m 222.61,442.436 -111.306,0 0,-264.349 c 0,-12.295 9.966,-22.261 22.261,-22.261 l 66.783,0 c 12.295,0 22.261,9.966 22.261,22.261 l 0,264.349 z"
           inkscape:connector-curvature="0"
           id="path4875" /><path
           style="fill:#a5a5a5"
           d="m 467.479,256.001 0,44.522 -322.783,0 0,-44.522 c 0,-12.295 9.966,-22.261 22.261,-22.261 l 278.262,0 c 12.294,0 22.26,9.966 22.26,22.261 z"
           inkscape:connector-curvature="0"
           id="path4877" /><path
           style="fill:#777777"
           d="m 375.653,261.01 0,1.113 c 0,4.61 -3.738,8.348 -8.348,8.348 -4.61,0 -8.348,-3.738 -8.348,-8.348 l 0,-1.113 c 0,-4.61 3.738,-8.348 8.348,-8.348 4.611,0 8.348,3.737 8.348,8.348 z m 25.044,-8.348 c -4.61,0 -8.348,3.738 -8.348,8.348 l 0,1.113 c 0,4.61 3.738,8.348 8.348,8.348 4.61,0 8.348,-3.738 8.348,-8.348 l 0,-1.113 c -0.001,-4.611 -3.738,-8.348 -8.348,-8.348 z m 33.391,0 c -4.61,0 -8.348,3.738 -8.348,8.348 l 0,1.113 c 0,4.61 3.738,8.348 8.348,8.348 4.61,0 8.348,-3.738 8.348,-8.348 l 0,-1.113 c 0,-4.611 -3.738,-8.348 -8.348,-8.348 z"
           inkscape:connector-curvature="0"
           id="path4879" /><path
           style="fill:#e9f2f4"
           d="m 467.479,289.392 0,200.348 c 0,12.295 -9.966,22.261 -22.261,22.261 l -278.261,0 c -12.295,0 -22.261,-9.966 -22.261,-22.261 l 0,-200.348 44.522,0 0,-66.783 c 0,-6.147 4.983,-11.13 11.13,-11.13 l 66.783,0 c 6.147,0 11.13,4.983 11.13,11.13 l 0,66.783 c 10e-4,0 189.218,0 189.218,0 z"
           inkscape:connector-curvature="0"
           id="path4881" /><path
           style="fill:#c3e4ed"
           d="m 278.262,222.61 0,66.783 -89.043,0 0,-66.783 c 0,-6.147 4.983,-11.13 11.13,-11.13 l 66.783,0 c 6.147,-0.002 11.13,4.982 11.13,11.13 z"
           inkscape:connector-curvature="0"
           id="path4883" /><path
           style="fill:#b2d1d8"
           d="m 250.436,256.001 -33.391,0 c -3.073,0 -5.565,-2.492 -5.565,-5.565 l 0,-11.13 c 0,-3.073 2.492,-5.565 5.565,-5.565 l 33.391,0 c 3.073,0 5.565,2.492 5.565,5.565 l 0,11.13 c 0,3.073 -2.492,5.565 -5.565,5.565 z"
           inkscape:connector-curvature="0"
           id="path4885" /><path
           style="fill:#cfdfe2"
           d="m 428.523,478.61 -244.871,0 c -3.073,0 -5.565,-2.492 -5.565,-5.565 l 0,-89.044 c 0,-3.073 2.492,-5.565 5.565,-5.565 l 244.871,0 c 3.073,0 5.565,2.492 5.565,5.565 l 0,89.043 c 0,3.074 -2.492,5.566 -5.565,5.566 z m -172.522,-128 0,-11.13 c 0,-3.073 -2.492,-5.565 -5.565,-5.565 l -66.783,0 c -3.073,0 -5.565,2.492 -5.565,5.565 l 0,11.13 c 0,3.073 2.492,5.565 5.565,5.565 l 66.783,0 c 3.073,0 5.565,-2.492 5.565,-5.565 z m 178.087,0 0,-11.13 c 0,-3.073 -2.492,-5.565 -5.565,-5.565 l -144.696,0 c -3.073,0 -5.565,2.492 -5.565,5.565 l 0,11.13 c 0,3.073 2.492,5.565 5.565,5.565 l 144.696,0 c 3.073,0 5.565,-2.492 5.565,-5.565 z"
           inkscape:connector-curvature="0"
           id="path4887" /><g
           id="g4889" /><g
           id="g4891" /><g
           id="g4893" /><g
           id="g4895" /><g
           id="g4897" /><g
           id="g4899" /><g
           id="g4901" /><g
           id="g4903" /><g
           id="g4905" /><g
           id="g4907" /><g
           id="g4909" /><g
           id="g4911" /><g
           id="g4913" /><g
           id="g4915" /><g
           id="g4917" /></g></g></g></svg>