<?xml version="1.0" encoding="UTF-8" standalone="no"?>
<!-- Generator: Adobe Illustrator 17.0.0, SVG Export Plug-In . SVG Version: 6.00 Build 0)  -->

<svg
   xmlns:dc="http://purl.org/dc/elements/1.1/"
   xmlns:cc="http://creativecommons.org/ns#"
   xmlns:rdf="http://www.w3.org/1999/02/22-rdf-syntax-ns#"
   xmlns:svg="http://www.w3.org/2000/svg"
   xmlns="http://www.w3.org/2000/svg"
   xmlns:sodipodi="http://sodipodi.sourceforge.net/DTD/sodipodi-0.dtd"
   xmlns:inkscape="http://www.inkscape.org/namespaces/inkscape"
   version="1.1"
   id="Слой_1"
   sodipodi:docname="why_seo_img3.svg"
   inkscape:version="0.91 r13725"
   x="0px"
   y="0px"
   width="171px"
   height="171px"
   viewBox="0 0 171 171"
   enable-background="new 0 0 171 171"
   xml:space="preserve"><metadata
     id="metadata62"><rdf:RDF><cc:Work
         rdf:about=""><dc:format>image/svg+xml</dc:format><dc:type
           rdf:resource="http://purl.org/dc/dcmitype/StillImage" /></cc:Work></rdf:RDF></metadata><defs
     id="defs60"><defs
       id="defs26"><filter
         height="120.779"
         width="120.146"
         y="43.034"
         x="43.5"
         filterUnits="userSpaceOnUse"
         id="Adobe_OpacityMaskFilter"><feColorMatrix
           id="feColorMatrix29"
           values="1 0 0 0 0  0 1 0 0 0  0 0 1 0 0  0 0 0 1 0"
           type="matrix" /></filter></defs><mask
       id="mask5885"
       height="120.779"
       width="120.146"
       y="43.034"
       x="43.5"
       maskUnits="userSpaceOnUse"><g
         filter="url(#Adobe_OpacityMaskFilter)"
         transform="translate(-220.21042,-311.39331)"
         id="g5887"><path
           d="     M306,322.67c-40.869,0-74,33.131-74,74l0,0c0,40.869,33.131,74,74,74s74-33.131,74-74l0,0C380,355.801,346.869,322.67,306,322.67     L306,322.67z"
           fill="#D45B3E"
           inkscape:original="M 305.55859 322.66992 A 74 74 0 0 0 231.55859 396.66992 A 74 74 0 0 0 305.55859 470.66992 A 74 74 0 0 0 379.55859 396.66992 A 74 74 0 0 0 305.55859 322.66992 z "
           inkscape:radius="0"
           sodipodi:type="inkscape:offset"
           id="path5889" /><path
           d="M306,322.67c-1.368,0.03-2.734,0.099-4.098,0.205v147.65     c1.364,0.086,2.731,0.134,4.098,0.145c40.869,0,74-33.131,74-74l0,0C380,355.801,346.869,322.67,306,322.67L306,322.67z"
           fill="#C45237"
           inkscape:connector-curvature="0"
           id="path5891" /></g></mask><linearGradient
       id="path5_1_"
       gradientUnits="userSpaceOnUse"
       x1="213.90511"
       y1="-250.9303"
       x2="383.90509"
       y2="-250.9303"
       gradientTransform="matrix(0.9942,0,0,-0.9942,-211.341,-164.1786)"><stop
         offset="0"
         style="stop-color:#FFFFFF"
         id="stop18" /><stop
         offset="1"
         style="stop-color:#000000"
         id="stop20" /></linearGradient><mask
       maskUnits="userSpaceOnUse"
       id="mask4266"><g
         id="g4268"><path
           id="path4270"
           sodipodi:type="inkscape:offset"
           inkscape:radius="0"
           inkscape:original="M 305.55859 322.66992 A 74 74 0 0 0 231.55859 396.66992 A 74 74 0 0 0 305.55859 470.66992 A 74 74 0 0 0 379.55859 396.66992 A 74 74 0 0 0 305.55859 322.66992 z "
           d="m 305.55859,322.66992 a 74,74 0 0 0 -74,74 74,74 0 0 0 74,74 74,74 0 0 0 74,-74 74,74 0 0 0 -74,-74 z"
           style="fill:#d45b3e"
           transform="translate(-219.74259,-311.38592)" /><path
           style="opacity:1;fill:#c45237;fill-opacity:1;fill-rule:nonzero;stroke:none;stroke-width:0.65777773;stroke-miterlimit:4;stroke-dasharray:none;stroke-opacity:1"
           d="m 85.8125,11.283203 0,147.999997 a 74,74 0 0 0 0.0039,0 74,74 0 0 0 74.000004,-73.999997 74,74 0 0 0 -74.000004,-74 74,74 0 0 0 -0.0039,0 z"
           id="path4272"
           inkscape:connector-curvature="0" /></g></mask></defs><sodipodi:namedview
     showguides="true"
     inkscape:cy="38.679549"
     inkscape:cx="-17.052084"
     inkscape:zoom="1.9999999"
     showgrid="false"
     guidetolerance="10"
     gridtolerance="10"
     objecttolerance="10"
     borderopacity="1"
     bordercolor="#666666"
     pagecolor="#ffffff"
     id="namedview61"
     inkscape:guide-bbox="true"
     inkscape:current-layer="Слой_1"
     inkscape:window-maximized="1"
     inkscape:window-y="-8"
     inkscape:window-x="-8"
     inkscape:window-height="801"
     inkscape:window-width="1536"
     inkscape:pageshadow="2"
     inkscape:pageopacity="0"><inkscape:grid
       type="xygrid"
       id="grid4289" /><sodipodi:guide
       position="85.812504,159.73829"
       orientation="1,0"
       id="guide4249" /></sodipodi:namedview><g
     id="g4274"><path
       id="path5495"
       inkscape:connector-curvature="0"
       d="m 85.78958,11.27669 c -1.368,0.03 -2.734,0.099 -4.098,0.205 l 0,147.65 c 1.364,0.086 2.731,0.134 4.098,0.145 40.869,0 74,-33.131 74,-74 l 0,0 c 0,-40.869 -33.131,-74 -74,-74 l 0,0 z"
       style="fill:#c45237" /><path
       id="path5074"
       inkscape:connector-curvature="0"
       d="m 85.78958,11.27669 c -1.368,0.03 -2.734,0.099 -4.098,0.205 l 0,147.65 c 1.364,0.086 2.731,0.134 4.098,0.145 40.869,0 74,-33.131 74,-74 l 0,0 c 0,-40.869 -33.131,-74 -74,-74 l 0,0 z"
       style="fill:#c45237" /><path
       id="path4692"
       inkscape:connector-curvature="0"
       d="m 85.78958,11.27669 c -1.368,0.03 -2.734,0.099 -4.098,0.205 l 0,147.65 c 1.364,0.086 2.731,0.134 4.098,0.145 40.869,0 74,-33.131 74,-74 l 0,0 c 0,-40.869 -33.131,-74 -74,-74 l 0,0 z"
       style="fill:#c45237" /><path
       style="fill:#0b2848"
       d="m 85.816,0.284 c 46.9,0 85,38.1 85,85 0,46.9 -38.1,85 -85,85 -46.9,0 -85,-38.1 -85,-85 0,-46.9 38.1,-85 85,-85 z"
       inkscape:connector-curvature="0"
       id="path4299" /><g
       id="g4242"><path
         id="path5"
         inkscape:connector-curvature="0"
         enable-background="new    "
         d="m 85.816,0.781 c 46.626,0 84.503,37.877 84.503,84.503 0,46.626 -37.877,84.503 -84.503,84.503 C 39.19,169.787 1.313,131.91 1.313,85.284 1.313,38.658 39.19,0.781 85.816,0.781 Z"
         style="opacity:0.2;fill:none;stroke:#ffffff;stroke-width:0.99400002;stroke-opacity:1" /></g><path
       id="path5877"
       inkscape:connector-curvature="0"
       sodipodi:nodetypes="cccccccccccccc"
       mask="url(#mask5885)"
       d="m 43.5,111.719 10.094,9.906 41.844,42.188 L 117.25,159 143,142.75 161.75,112.25 163.646,97.564 162.542,88.862 113.467,48.631 107.5,49 100.75,46.75 92.501,43.034 57.75,99 43.5,111.719 Z"
       style="fill:#b14731" /><g
       id="g4254"><path
         id="path4213"
         sodipodi:type="inkscape:offset"
         inkscape:radius="0"
         inkscape:original="M 305.55859 322.66992 A 74 74 0 0 0 231.55859 396.66992 A 74 74 0 0 0 305.55859 470.66992 A 74 74 0 0 0 379.55859 396.66992 A 74 74 0 0 0 305.55859 322.66992 z "
         d="m 305.55859,322.66992 a 74,74 0 0 0 -74,74 74,74 0 0 0 74,74 74,74 0 0 0 74,-74 74,74 0 0 0 -74,-74 z"
         style="fill:#d45b3e"
         transform="translate(-219.74259,-311.38592)" /><path
         style="opacity:1;fill:#c45237;fill-opacity:1;fill-rule:nonzero;stroke:none;stroke-width:0.65777773;stroke-miterlimit:4;stroke-dasharray:none;stroke-opacity:1"
         d="M 85.8125 11.283203 L 85.8125 159.2832 A 74 74 0 0 0 85.816406 159.2832 A 74 74 0 0 0 159.81641 85.283203 A 74 74 0 0 0 85.816406 11.283203 A 74 74 0 0 0 85.8125 11.283203 z "
         id="path4247" /></g><path
       mask="url(#mask4266)"
       sodipodi:nodetypes="cccccsccccc"
       inkscape:connector-curvature="0"
       id="path4258"
       d="m 43.593752,111.5625 10.09375,10.375 4.40625,5.04687 36.218752,36.32813 36.062506,-12.0625 c 0,0 20.75,-21.75 21,-22.5 0.25,-0.75 10.375,-21.25 10.375,-21.25 l 1,-7.500003 0.5,-3.75 -50.07814,-47.656252 z"
       style="fill:#b14731;fill-opacity:1;fill-rule:evenodd;stroke:none;stroke-width:1px;stroke-linecap:butt;stroke-linejoin:miter;stroke-opacity:1" /><g
       id="g4612"
       transform="matrix(0.16500991,0,0,0.16500991,43.573381,43.041463)"><path
         id="path4560"
         inkscape:connector-curvature="0"
         d="m 416,512 -311.652,0 C 79.76,512 59.826,492.067 59.826,467.478 l 0,-389.565 c 0,-24.588 19.933,-44.522 44.522,-44.522 l 311.652,0 c 24.588,0 44.522,19.933 44.522,44.522 l 0,389.565 C 460.522,492.066 440.589,512 416,512 Z"
         style="fill:#84a7b7" /><path
         id="path4562"
         inkscape:connector-curvature="0"
         d="m 393.739,467.478 -267.13,0 c -12.295,0 -22.261,-9.966 -22.261,-22.261 l 0,-400.695 c 0,-12.295 9.966,-22.261 22.261,-22.261 l 267.13,0 c 12.295,0 22.261,9.966 22.261,22.261 l 0,400.696 c 0,12.294 -9.966,22.26 -22.261,22.26 z"
         style="fill:#f2efe2" /><path
         id="path4564"
         inkscape:connector-curvature="0"
         d="m 293.565,66.783 -66.783,0 c -18.442,0 -33.391,-14.949 -33.391,-33.391 l 0,0 C 193.391,14.949 208.34,0 226.782,0 l 66.783,0 c 18.442,0 33.391,14.949 33.391,33.391 l 0,0 c 0,18.442 -14.949,33.392 -33.391,33.392 z"
         style="fill:#fed766" /><path
         id="path4566"
         inkscape:connector-curvature="0"
         d="m 322.479,16.696 c 2.843,4.913 4.478,10.612 4.478,16.696 l 0,0 c 0,18.442 -14.949,33.391 -33.391,33.391 l -66.783,0 c -18.442,0 -33.391,-14.949 -33.391,-33.391 l 0,0 c 0,-6.084 1.635,-11.783 4.478,-16.696 5.774,9.977 16.555,16.696 28.914,16.696 l 66.783,0 c 12.356,-0.001 23.137,-6.719 28.912,-16.696 z"
         style="fill:#e8ba52" /><path
         id="path4568"
         inkscape:connector-curvature="0"
         d="m 182.261,328.348 0,89.043 c 0,9.22 -7.475,16.696 -16.696,16.696 -9.22,0 -16.696,-7.475 -16.696,-16.696 l 0,-89.043 c 0,-9.22 7.475,-16.696 16.696,-16.696 9.221,0 16.696,7.475 16.696,16.696 z m 109.45,-217.044 0,0 c -9.22,0 -16.696,7.475 -16.696,16.696 l 0,289.391 c 0,9.22 7.475,16.696 16.696,16.696 l 0,0 c 9.22,0 16.696,-7.475 16.696,-16.696 l 0,-289.391 c -10e-4,-9.22 -7.476,-16.696 -16.696,-16.696 z"
         style="fill:#a3ccaa" /><path
         id="path4570"
         inkscape:connector-curvature="0"
         d="m 245.334,194.783 0,222.609 c 0,9.22 -7.475,16.696 -16.696,16.696 l 0,0 c -9.22,0 -16.696,-7.475 -16.696,-16.696 l 0,-222.609 c 0,-9.22 7.475,-16.696 16.696,-16.696 l 0,0 c 9.22,0 16.696,7.475 16.696,16.696 z m 109.448,-16.696 c -9.22,0 -16.696,7.475 -16.696,16.696 l 0,222.609 c 0,9.22 7.475,16.696 16.696,16.696 9.22,0 16.696,-7.475 16.696,-16.696 l 0,-222.609 c 0,-9.221 -7.474,-16.696 -16.696,-16.696 z"
         style="fill:#80a886" /><path
         id="path4572"
         inkscape:connector-curvature="0"
         d="m 512,147.478 c 0,30.736 -24.917,55.652 -55.652,55.652 -10.194,0 -19.741,-2.755 -27.959,-7.54 l -69.095,69.096 c -1.565,1.566 -3.689,2.445 -5.902,2.445 l -185.76,0 -153.382,153.38 c -1.629,1.631 -3.765,2.445 -5.902,2.445 -2.137,0 -4.273,-0.815 -5.902,-2.445 -3.26,-3.26 -3.26,-8.546 0,-11.805 L 158.271,252.88 c 1.565,-1.566 3.689,-2.445 5.902,-2.445 l 185.76,0 65.375,-65.375 c -9.073,-9.902 -14.613,-23.093 -14.613,-37.582 0,-30.736 24.917,-55.652 55.652,-55.652 30.735,0 55.653,24.917 55.653,55.652 z"
         style="fill:#fcbb9a" /><path
         id="path4574"
         inkscape:connector-curvature="0"
         d="m 187.826,258.783 c 0,12.295 -9.966,22.261 -22.261,22.261 -12.295,0 -22.261,-9.966 -22.261,-22.261 0,-12.294 9.966,-22.261 22.261,-22.261 12.295,0 22.261,9.967 22.261,22.261 z m -128,77.913 c -12.295,0 -22.261,9.966 -22.261,22.261 0,12.295 9.966,22.261 22.261,22.261 12.295,0 22.261,-9.966 22.261,-22.261 0,-12.295 -9.966,-22.261 -22.261,-22.261 z M 354.782,236.522 c -12.295,0 -22.261,9.967 -22.261,22.261 0,12.295 9.966,22.261 22.261,22.261 12.295,0 22.261,-9.966 22.261,-22.261 0,-12.294 -9.966,-22.261 -22.261,-22.261 z M 456.348,125.217 c -12.295,0 -22.261,9.966 -22.261,22.261 0,12.295 9.966,22.261 22.261,22.261 12.295,0 22.261,-9.966 22.261,-22.261 0,-12.294 -9.967,-22.261 -22.261,-22.261 z"
         style="fill:#fc8059" /><g
         id="g4576" /><g
         id="g4578" /><g
         id="g4580" /><g
         id="g4582" /><g
         id="g4584" /><g
         id="g4586" /><g
         id="g4588" /><g
         id="g4590" /><g
         id="g4592" /><g
         id="g4594" /><g
         id="g4596-7-0" /><g
         id="g4598" /><g
         id="g4600" /><g
         id="g4602" /><g
         id="g4604" /></g></g></svg>