<svg xmlns="http://www.w3.org/2000/svg" width="171" height="171" viewBox="0 0 171 171"><g transform="translate(.25 -.25)"><circle fill="#D45B3E" cx="85.244" cy="85.542" r="74"/><path fill="#C45237" d="M85.259 11.542l-.021.002v147.998h.021c40.86 0 73.984-33.131 73.984-74s-33.123-74-73.984-74z"/></g><path opacity=".2" fill="none" stroke="#FFF" enable-background="new" d="M85.494.792c46.624 0 84.5 37.876 84.5 84.5s-37.876 84.5-84.5 84.5-84.5-37.876-84.5-84.5S38.87.792 85.494.792z"/><defs><filter id="a" filterUnits="userSpaceOnUse" x="41.508" y="41.606" width="123.071" height="120.252"><feColorMatrix values="1 0 0 0 0 0 1 0 0 0 0 0 1 0 0 0 0 0 1 0"/></filter></defs><mask maskUnits="userSpaceOnUse" x="41.508" y="41.606" width="123.071" height="120.252" id="b"><g transform="translate(.25 -.25)" filter="url(#a)"><circle fill="#D45B3E" cx="85.244" cy="85.542" r="74"/><path fill="#C45237" d="M85.259 11.542l-.021.002v147.998h.021c40.86 0 73.984-33.131 73.984-74s-33.123-74-73.984-74z"/></g></mask><path mask="url(#b)" fill="#B14731" d="M41.516 45.893l13.903 13.7-8.22 14.584-2.298 12.198-3.393 2.095 33.357 33.349-2.917 5.392 34.648 34.648 22.627-8.309 19.976-19.799 11.314-20.506 3.889-18.385.177-11.49-37.985-41.763-4.088 4.287-80.99-.001z"/><path d="M85.411 98.945zm-.381-.018zm-3.861-1.793zm-1.137-1.607zm-.142-.316zm.289.597zm-.429-.969zm4.937 4.053zm-4.173-2.547zm-.174-.265zm-.832-2.208zm-.073-.658zm.027.331zm9.066-43.15h-1.517v34.631a3.02 3.02 0 0 0 1.516 2.617c2.191 1.263 3.521 3.844 2.87 6.675-.503 2.183-2.274 3.957-4.457 4.461a6.405 6.405 0 0 1-1.457.167h.01v21.242h10.621c.31-11.303 7.192-22.353 9.71-26.03.562-.822.69-1.863.336-2.795L90.046 48.878c0 .838-.68 1.517-1.518 1.517zM79.65 94.516zm-.08-.321zm1.344 2.662zm-.21-.254zm3.654 2.236zm-1.621-.555zm.685.3zm-.351-.141zm.655.241zm-2.299-1.302zm.238.204zm.783.54zm1.59.644zm-2.124-.992zm.261.18z" fill="#FFDC69"/><path fill="#FFC85A" d="M85.494 98.947h-.01l-.073-.002a6.11 6.11 0 0 1-.264-.009c-.04-.002-.078-.006-.117-.009a6.74 6.74 0 0 1-.215-.019l-.128-.016a6.411 6.411 0 0 1-.524-.093l-.125-.03a6.497 6.497 0 0 1-.198-.052l-.114-.033a5.791 5.791 0 0 1-.222-.073l-.082-.028c-.1-.036-.2-.075-.298-.116l-.053-.025a5.94 5.94 0 0 1-.235-.107l-.099-.051a6.308 6.308 0 0 1-.182-.096l-.107-.062a6.4 6.4 0 0 1-.431-.275c-.035-.025-.07-.049-.103-.074a5.958 5.958 0 0 1-.156-.119c-.031-.024-.063-.048-.093-.073a6.373 6.373 0 0 1-.169-.143l-.07-.06a5.996 5.996 0 0 1-.227-.217l-.03-.031a6.225 6.225 0 0 1-.185-.196l-.07-.081a5.818 5.818 0 0 1-.134-.158l-.076-.096a6.345 6.345 0 0 1-.116-.154l-.074-.104a5.778 5.778 0 0 1-.275-.433l-.06-.105a5.995 5.995 0 0 1-.101-.192l-.046-.089a6.074 6.074 0 0 1-.131-.288l-.01-.027a6.273 6.273 0 0 1-.106-.27l-.034-.102a5.37 5.37 0 0 1-.066-.203c-.013-.04-.023-.08-.035-.12a6.07 6.07 0 0 1-.12-.513l-.023-.131a5.918 5.918 0 0 1-.029-.2l-.016-.127a5.94 5.94 0 0 1-.02-.223l-.007-.108a6.031 6.031 0 0 1 3.027-5.57 3.02 3.02 0 0 0 1.515-2.618v-34.63h-1.518c-.837 0-1.517-.68-1.517-1.518L64.827 91.363a3.036 3.036 0 0 0 .337 2.796c2.517 3.677 9.4 14.727 9.71 26.03h10.62V98.946z"/><path d="M100.907 47.36H90.046v.272c17.192 2.073 31.034 15.914 33.107 33.108h3.053c-1.678-15.063-11.716-27.795-25.3-33.38zm-30.826 0c-13.584 5.585-23.621 18.317-25.3 33.38h3.054c2.072-17.193 15.914-31.035 33.107-33.108v-.271h-10.86z" fill="#BEC8DC"/><path d="M71.939 122.461zm-.039 4.408zm10.56-3.646v3.034a3.035 3.035 0 0 0 3.034 3.034h10.62a3.034 3.034 0 0 0 3.035-3.034v-3.034a3.034 3.034 0 0 0-3.035-3.035h-10.62a3.034 3.034 0 0 0-3.035 3.035zm-8.198-2.973zm-.393.112zm-1.969 6.507zm2.973 2.422z" fill="#707384"/><path d="M43.011 80.74c-.838 0-1.517.68-1.517 1.517v6.07c0 .837.68 1.516 1.517 1.516h6.07c.837 0 1.517-.679 1.517-1.517v-6.069c0-.838-.68-1.517-1.518-1.517h-6.068zm84.965 0h-6.069c-.837 0-1.517.68-1.517 1.517v6.07c0 .837.68 1.516 1.517 1.516h6.07c.837 0 1.517-.679 1.517-1.517v-6.069c0-.838-.68-1.517-1.518-1.517z" fill="#E4EAF6"/><path fill="#707384" d="M100.907 47.36h19.743a4.553 4.553 0 0 0 8.844-1.517 4.552 4.552 0 0 0-8.844-1.517H90.046V42.81c0-.838-.68-1.517-1.518-1.517H82.46c-.838 0-1.517.68-1.517 1.517v1.517H50.337a4.553 4.553 0 0 0-8.843 1.517 4.552 4.552 0 0 0 8.843 1.518h30.605v1.517c0 .838.68 1.517 1.517 1.517h6.071c.837 0 1.517-.68 1.517-1.517V47.36h10.86z"/><path fill="#464655" d="M82.46 126.257v-3.034a3.034 3.034 0 0 1 3.034-3.035h-10.62c-.21 0-.415.021-.613.062a3.027 3.027 0 0 0-.392.112 3.038 3.038 0 0 0-2.03 2.86v3.035a3.038 3.038 0 0 0 3.035 3.035h10.62a3.035 3.035 0 0 1-3.035-3.035z"/></svg>