<svg xmlns="http://www.w3.org/2000/svg" width="171" height="171" viewBox="0 0 171 171"><g transform="translate(.25 -.25)"><circle fill="#D45B3E" cx="85.25" cy="85.75" r="74"/><path fill="#C45237" d="M85.265 11.75l-.021.002V159.75h.021c40.86 0 73.984-33.131 73.984-74s-33.123-74-73.984-74z"/></g><path opacity=".2" fill="none" stroke="#FFF" enable-background="new" d="M85.5 1C132.124 1 170 38.876 170 85.5S132.124 170 85.5 170 1 132.124 1 85.5 38.876 1 85.5 1z"/><defs><filter id="a" filterUnits="userSpaceOnUse" x="44.527" y="72.007" width="112.253" height="92.42"><feColorMatrix values="1 0 0 0 0 0 1 0 0 0 0 0 1 0 0 0 0 0 1 0"/></filter></defs><mask maskUnits="userSpaceOnUse" x="44.527" y="72.007" width="112.253" height="92.42" id="b"><g transform="translate(.25 -.25)" filter="url(#a)"><circle fill="#D45B3E" cx="85.25" cy="85.75" r="74"/><path fill="#C45237" d="M85.265 11.75l-.021.002V159.75h.021c40.86 0 73.984-33.131 73.984-74s-33.123-74-73.984-74z"/></g></mask><path mask="url(#b)" fill="#B14731" d="M44.527 72.11l53.151 92.317 38.243-7.962 19.092-24.042 1.768-4.596-30.55-55.82-81.704.103z"/><path fill="#FFE182" d="M85.5 120l41-47.877h-24.323z"/><g fill="#FFCD73"><path d="M44.5 72.123h24.323L61.466 51zm82 0L109.535 51l-7.358 21.123z"/><path d="M85.5 51L68.823 72.123h33.354z"/></g><path fill="#FFAA64" d="M61.466 51l7.357 21.123L85.5 51z"/><path fill="#FFE182" d="M85.5 51l16.677 21.123L109.535 51z"/><path fill="#FFAA64" d="M85.5 120l16.677-47.877H68.823z"/><path fill="#FF8C5A" d="M85.5 120L68.823 72.123H44.5z"/></svg>