<?xml version="1.0" encoding="UTF-8" standalone="no"?>
<!-- Generator: Adobe Illustrator 17.0.0, SVG Export Plug-In . SVG Version: 6.00 Build 0)  -->

<svg
   xmlns:dc="http://purl.org/dc/elements/1.1/"
   xmlns:cc="http://creativecommons.org/ns#"
   xmlns:rdf="http://www.w3.org/1999/02/22-rdf-syntax-ns#"
   xmlns:svg="http://www.w3.org/2000/svg"
   xmlns="http://www.w3.org/2000/svg"
   xmlns:sodipodi="http://sodipodi.sourceforge.net/DTD/sodipodi-0.dtd"
   xmlns:inkscape="http://www.inkscape.org/namespaces/inkscape"
   version="1.1"
   id="Слой_1"
   sodipodi:docname="Уменьшение Цены Клика.svg"
   inkscape:version="0.91 r13725"
   x="0px"
   y="0px"
   width="171px"
   height="171px"
   viewBox="0 0 171 171"
   enable-background="new 0 0 171 171"
   xml:space="preserve"><metadata
     id="metadata12"><rdf:RDF><cc:Work
         rdf:about=""><dc:format>image/svg+xml</dc:format><dc:type
           rdf:resource="http://purl.org/dc/dcmitype/StillImage" /><dc:title></dc:title></cc:Work></rdf:RDF></metadata><defs
     id="defs10"><mask
       maskUnits="userSpaceOnUse"
       id="mask4240"><g
         id="g4242"><circle
           id="circle4244"
           cx="85.333"
           cy="85.972"
           r="74"
           style="fill:#d45b3e" /><path
           id="path4246"
           inkscape:connector-curvature="0"
           d="m 85.348,11.972 c -0.007,0.001 -0.014,0.001 -0.021,0.002 l 0,147.998 c 0.007,0 0.014,0 0.021,0 40.86,0 73.984,-33.131 73.984,-74 0,-40.869 -33.123,-74 -73.984,-74 0,0 0,0 0,0 z"
           style="fill:#c45237" /></g></mask></defs><sodipodi:namedview
     showguides="false"
     inkscape:cy="50.631921"
     inkscape:cx="285.0423"
     inkscape:zoom="1.4142136"
     showgrid="false"
     guidetolerance="10"
     gridtolerance="10"
     objecttolerance="10"
     borderopacity="1"
     bordercolor="#666666"
     pagecolor="#ffffff"
     id="namedview61"
     inkscape:guide-bbox="true"
     inkscape:current-layer="Слой_1"
     inkscape:window-maximized="1"
     inkscape:window-y="-8"
     inkscape:window-x="-8"
     inkscape:window-height="801"
     inkscape:window-width="1536"
     inkscape:pageshadow="2"
     inkscape:pageopacity="0"><inkscape:grid
       type="xygrid"
       id="grid4289" /></sodipodi:namedview><g
     id="g4248"><g
       id="g4274"><circle
         id="path4230"
         cx="85.333"
         cy="85.972"
         r="74"
         style="fill:#d45b3e" /><path
         id="path4278"
         inkscape:connector-curvature="0"
         d="m 85.348,11.972 c -0.007,0.001 -0.014,0.001 -0.021,0.002 l 0,147.998 c 0.007,0 0.014,0 0.021,0 40.86,0 73.984,-33.131 73.984,-74 0,-40.869 -33.123,-74 -73.984,-74 0,0 0,0 0,0 z"
         style="fill:#c45237" /></g><path
       id="path4271"
       inkscape:connector-curvature="0"
       enable-background="new    "
       d="m 85.583,1.222 c 46.624,0 84.5,37.876 84.5,84.5 0,46.624 -37.876,84.5 -84.5,84.5 -46.624,0 -84.5,-37.876 -84.5,-84.5 0,-46.624 37.876,-84.5 84.5,-84.5 z"
       style="opacity:0.2;fill:none;stroke:#ffffff" /><path
       mask="url(#mask4240)"
       sodipodi:nodetypes="cccccccccc"
       inkscape:connector-curvature="0"
       id="path4232"
       d="M 50.249999,108.25 104.5,162.5 l 24,-7.25 19.75,-20.25 14,-19.25 0.75,-21.249998 0.25,-13.25 -42.99567,-36.28163 -45.754332,54.78163 z"
       style="fill:#b14731;fill-opacity:1;fill-rule:evenodd;stroke:none;stroke-width:1px;stroke-linecap:butt;stroke-linejoin:miter;stroke-opacity:1" /><g
       transform="matrix(1.4137931,0,0,1.4137931,44.333,44.972)"
       id="g4198"><g
         id="XMLID_71_"><path
           inkscape:connector-curvature="0"
           id="XMLID_136_"
           style="fill:#f5d698"
           d="M 52,15.568 C 47.839,6.887 39.771,1 30.5,1 16.969,1 6,13.536 6,29 6,44.464 16.969,57 30.5,57 39.771,57 47.839,51.113 52,42.432 l 0,-26.864 z" /><path
           inkscape:connector-curvature="0"
           id="XMLID_135_"
           style="fill:#edbc64"
           d="M 6,29 C 6,14.698 15.385,2.908 27.5,1.216 26.516,1.079 25.516,1 24.5,1 10.969,1 0,13.536 0,29 c 0,15.464 10.969,28 24.5,28 1.016,0 2.016,-0.079 3,-0.216 C 15.385,55.092 6,43.302 6,29" /><path
           inkscape:connector-curvature="0"
           id="XMLID_134_"
           style="fill:#f6d38b"
           d="M 5.998,30 0,30 c 0.021,0.673 0.059,1.34 0.119,2 l 6.003,0 C 6.061,31.341 6.019,30.674 5.998,30" /><path
           inkscape:connector-curvature="0"
           id="XMLID_133_"
           style="fill:#f6d38b"
           d="M 6.227,25 0.23,25 c -0.082,0.659 -0.143,1.327 -0.184,2 l 5.999,0 c 0.043,-0.672 0.099,-1.34 0.182,-2" /><path
           inkscape:connector-curvature="0"
           id="XMLID_132_"
           style="fill:#f6d38b"
           d="m 6.549,35 -6.002,0 c 0.131,0.676 0.28,1.343 0.451,2 l 5.999,0 C 6.826,36.344 6.678,35.677 6.549,35" /><path
           inkscape:connector-curvature="0"
           id="XMLID_131_"
           style="fill:#f6d38b"
           d="m 7.947,40 -6.004,0 c 0.255,0.682 0.537,1.347 0.837,2 l 6.001,0 C 8.481,41.349 8.202,40.682 7.947,40" /><path
           inkscape:connector-curvature="0"
           id="XMLID_130_"
           style="fill:#f6d38b"
           d="M 7.273,20 1.278,20 C 1.084,20.657 0.902,21.322 0.75,22 l 6.007,0 c 0.151,-0.675 0.32,-1.345 0.516,-2" /><path
           inkscape:connector-curvature="0"
           id="XMLID_129_"
           style="fill:#f6d38b"
           d="m 9.264,15 -6,0 c -0.33,0.651 -0.641,1.317 -0.925,2 l 6.004,0 c 0.284,-0.682 0.591,-1.349 0.921,-2" /><path
           inkscape:connector-curvature="0"
           id="XMLID_128_"
           style="fill:#f6d38b"
           d="M 13.345,9 7.338,9 C 6.77,9.636 6.229,10.303 5.716,11 l 6.005,0 c 0.513,-0.696 1.055,-1.363 1.624,-2" /><path
           inkscape:connector-curvature="0"
           id="XMLID_127_"
           style="fill:#f6d38b"
           d="m 19.46,4.001 -6.013,0 c -1.023,0.59 -2.002,1.258 -2.937,2 l 6.009,0 c 0.936,-0.742 1.918,-1.41 2.941,-2" /><path
           inkscape:connector-curvature="0"
           id="XMLID_126_"
           style="fill:#f6d38b"
           d="m 11.019,46 -6.003,0 c 0.464,0.693 0.954,1.36 1.473,2 l 6.007,0 c -0.519,-0.64 -1.012,-1.307 -1.477,-2" /><path
           inkscape:connector-curvature="0"
           id="XMLID_125_"
           style="fill:#f6d38b"
           d="m 9.333,51 c 0.803,0.723 1.644,1.394 2.523,2 l 6.015,0 C 16.986,52.393 16.137,51.726 15.33,51 l -5.997,0 z" /><path
           inkscape:connector-curvature="0"
           id="XMLID_108_"
           style="fill:#efc16d"
           d="m 30.584,51.524 -0.084,0 c -0.7,0 -1.405,-0.042 -2.096,-0.124 -0.548,-0.066 -0.94,-0.564 -0.874,-1.112 0.065,-0.548 0.547,-0.931 1.112,-0.875 0.609,0.073 1.236,0.111 1.857,0.111 0.553,0 1.041,0.447 1.041,1 0.001,0.552 -0.403,1 -0.956,1 m 5.814,-1.077 c -0.404,0 -0.785,-0.247 -0.936,-0.648 -0.195,-0.517 0.066,-1.094 0.583,-1.288 0.576,-0.218 1.151,-0.473 1.706,-0.757 0.493,-0.255 1.095,-0.059 1.347,0.433 0.252,0.491 0.059,1.093 -0.433,1.346 -0.623,0.319 -1.267,0.605 -1.916,0.849 -0.114,0.044 -0.233,0.065 -0.351,0.065 M 22.865,49.683 c -0.152,0 -0.307,-0.034 -0.451,-0.108 -0.618,-0.313 -1.227,-0.666 -1.81,-1.048 -0.462,-0.303 -0.591,-0.922 -0.289,-1.384 0.304,-0.461 0.923,-0.592 1.385,-0.289 0.522,0.342 1.066,0.657 1.618,0.938 0.493,0.25 0.689,0.851 0.439,1.344 -0.175,0.346 -0.527,0.547 -0.892,0.547 m 20.11,-3.557 c -0.254,0 -0.508,-0.097 -0.702,-0.289 -0.394,-0.388 -0.397,-1.021 -0.01,-1.414 0.438,-0.443 0.86,-0.916 1.259,-1.404 0.348,-0.427 0.977,-0.493 1.406,-0.144 0.429,0.348 0.493,0.978 0.145,1.407 -0.438,0.537 -0.904,1.057 -1.386,1.546 -0.197,0.198 -0.455,0.298 -0.712,0.298 m -26.216,-1.41 c -0.29,0 -0.576,-0.125 -0.774,-0.365 -0.431,-0.525 -0.847,-1.085 -1.238,-1.664 -0.31,-0.458 -0.19,-1.079 0.268,-1.389 0.459,-0.309 1.079,-0.189 1.389,0.269 0.358,0.528 0.737,1.038 1.129,1.515 0.35,0.427 0.288,1.057 -0.14,1.408 -0.186,0.153 -0.412,0.226 -0.634,0.226 m 30.609,-5.134 c -0.133,0 -0.269,-0.027 -0.398,-0.084 -0.506,-0.221 -0.738,-0.81 -0.518,-1.316 0.251,-0.577 0.48,-1.172 0.683,-1.77 0.177,-0.523 0.744,-0.803 1.267,-0.628 0.523,0.177 0.806,0.744 0.628,1.267 -0.22,0.652 -0.47,1.301 -0.743,1.93 -0.165,0.375 -0.532,0.601 -0.919,0.601 M 12.945,37.813 c -0.416,0 -0.805,-0.262 -0.947,-0.678 -0.221,-0.649 -0.418,-1.317 -0.584,-1.983 -0.133,-0.536 0.193,-1.078 0.73,-1.211 0.534,-0.136 1.078,0.192 1.212,0.728 0.152,0.611 0.332,1.224 0.536,1.82 0.179,0.522 -0.101,1.091 -0.623,1.269 -0.108,0.036 -0.216,0.055 -0.324,0.055 m 36.316,-5.896 c -0.025,0 -0.052,-0.001 -0.078,-0.003 -0.551,-0.042 -0.963,-0.523 -0.92,-1.074 0.047,-0.603 0.069,-1.222 0.069,-1.839 0,-0.553 0.448,-1.032 1,-1.032 0.554,0 1,0.415 1,0.968 l 0,0.063 c 0,0.669 -0.024,1.339 -0.075,1.993 -0.041,0.526 -0.479,0.924 -0.996,0.924 M 11.666,30.011 c -0.552,0 -1,-0.438 -1,-0.989 l 0,-0.022 c 0,-0.676 0.028,-1.361 0.081,-2.037 0.044,-0.551 0.535,-0.958 1.075,-0.919 0.551,0.044 0.962,0.525 0.919,1.076 -0.049,0.624 -0.075,1.257 -0.075,1.88 0,0.553 -0.446,1.011 -1,1.011 m 36.938,-5.963 c -0.447,0 -0.855,-0.302 -0.969,-0.756 -0.153,-0.611 -0.335,-1.223 -0.54,-1.819 -0.179,-0.523 0.1,-1.092 0.622,-1.271 0.521,-0.18 1.091,0.099 1.271,0.621 0.222,0.65 0.42,1.317 0.587,1.983 0.135,0.536 -0.19,1.079 -0.727,1.214 -0.082,0.02 -0.163,0.028 -0.244,0.028 M 12.932,22.23 c -0.106,0 -0.215,-0.018 -0.321,-0.054 -0.523,-0.177 -0.803,-0.745 -0.626,-1.268 0.223,-0.654 0.473,-1.303 0.748,-1.929 0.222,-0.505 0.809,-0.739 1.317,-0.514 0.506,0.222 0.736,0.811 0.515,1.317 -0.252,0.574 -0.483,1.169 -0.686,1.768 -0.142,0.417 -0.53,0.68 -0.947,0.68 m 32.472,-5.393 c -0.32,0 -0.636,-0.154 -0.829,-0.439 -0.352,-0.52 -0.732,-1.029 -1.131,-1.513 -0.351,-0.426 -0.289,-1.057 0.138,-1.408 0.427,-0.35 1.056,-0.289 1.407,0.137 0.438,0.532 0.855,1.092 1.242,1.662 0.31,0.458 0.189,1.079 -0.267,1.389 -0.173,0.116 -0.366,0.172 -0.56,0.172 M 16.729,15.316 c -0.222,0 -0.446,-0.074 -0.632,-0.226 -0.428,-0.349 -0.491,-0.979 -0.141,-1.407 0.439,-0.538 0.906,-1.057 1.389,-1.544 0.39,-0.392 1.023,-0.393 1.414,-0.006 0.392,0.389 0.395,1.022 0.006,1.414 -0.438,0.441 -0.861,0.913 -1.261,1.402 -0.196,0.242 -0.484,0.367 -0.775,0.367 m 23.082,-4.028 c -0.188,0 -0.377,-0.052 -0.545,-0.162 -0.523,-0.342 -1.068,-0.656 -1.62,-0.933 -0.493,-0.249 -0.691,-0.851 -0.442,-1.344 0.248,-0.493 0.847,-0.692 1.343,-0.443 0.617,0.311 1.227,0.663 1.812,1.045 0.463,0.302 0.594,0.921 0.292,1.384 -0.194,0.293 -0.514,0.453 -0.84,0.453 M 22.829,10.337 c -0.364,0 -0.715,-0.2 -0.892,-0.546 -0.251,-0.492 -0.056,-1.095 0.435,-1.345 0.625,-0.319 1.271,-0.603 1.916,-0.845 0.523,-0.194 1.095,0.07 1.288,0.587 0.193,0.517 -0.069,1.093 -0.586,1.286 -0.577,0.216 -1.151,0.469 -1.709,0.753 -0.144,0.074 -0.3,0.11 -0.452,0.11 m 9.607,-1.749 c -0.038,0 -0.077,-0.002 -0.117,-0.007 -0.6,-0.07 -1.212,-0.105 -1.818,-0.105 -0.553,0 -1.021,-0.448 -1.021,-1 0,-0.553 0.427,-1 0.979,-1 l 0,1 0.014,-1 c 0.705,0.019 1.402,0.04 2.08,0.119 0.548,0.064 0.941,0.56 0.877,1.109 -0.062,0.509 -0.493,0.884 -0.994,0.884" /><path
           inkscape:connector-curvature="0"
           id="XMLID_107_"
           style="fill:#a5a5a4"
           d="M 53.344,0 44.656,0 C 42.56,0 40.809,1.393 40.225,3.296 45.242,5.779 49.39,10.123 52,15.568 l 0,26.864 C 49.39,47.877 45.242,52.221 40.226,54.704 40.81,56.607 42.561,58 44.656,58 l 8.688,0 C 55.915,58 58,55.915 58,53.344 L 58,4.656 C 58,2.084 55.915,0 53.344,0" /><path
           inkscape:connector-curvature="0"
           id="XMLID_106_"
           style="fill:#556180"
           d="m 46,50.673 0,1.929 C 46,53.375 46.625,54 47.396,54 l 3.206,0 C 51.375,54 52,53.375 52,52.603 l 0,-10.17 c -1.521,3.171 -3.568,5.965 -6,8.24" /><path
           inkscape:connector-curvature="0"
           id="XMLID_70_"
           style="fill:#556180"
           d="M 50.603,4 47.397,4 C 46.626,4 46,4.625 46,5.397 l 0,1.93 c 2.433,2.275 4.479,5.069 6,8.241 L 52,5.397 C 52,4.625 51.375,4 50.603,4" /></g><g
         id="g4162" /><g
         id="g4164" /><g
         id="g4166" /><g
         id="g4168" /><g
         id="g4170" /><g
         id="g4172" /><g
         id="g4174" /><g
         id="g4176" /><g
         id="g4178" /><g
         id="g4180" /><g
         id="g4182" /><g
         id="g4184" /><g
         id="g4186" /><g
         id="g4188" /><g
         id="g4190" /></g></g></svg>