<svg xmlns="http://www.w3.org/2000/svg" width="171" height="171" viewBox="0 0 171 171"><g transform="translate(.25 -.25)"><circle fill="#D45B3E" cx="85.25" cy="85.75" r="74"/><path fill="#C45237" d="M85.265 11.75l-.021.002V159.75h.021c40.86 0 73.984-33.131 73.984-74s-33.123-74-73.984-74z"/></g><path opacity=".2" fill="none" stroke="#FFF" enable-background="new" d="M85.5 1C132.124 1 170 38.876 170 85.5S132.124 170 85.5 170 1 132.124 1 85.5 38.876 1 85.5 1z"/><defs><filter id="a" filterUnits="userSpaceOnUse" x="53.059" y="37.517" width="109.941" height="130.608"><feColorMatrix values="1 0 0 0 0 0 1 0 0 0 0 0 1 0 0 0 0 0 1 0"/></filter></defs><mask maskUnits="userSpaceOnUse" x="53.059" y="37.517" width="109.941" height="130.608" id="b"><g transform="translate(.25 -.25)" filter="url(#a)"><circle fill="#D45B3E" cx="85.25" cy="85.75" r="74"/><path fill="#C45237" d="M85.265 11.75l-.021.002V159.75h.021c40.86 0 73.984-33.131 73.984-74s-33.123-74-73.984-74z"/></g></mask><path mask="url(#b)" fill="#B14731" d="M53.059 127.381l39.816 40.744L127.25 155.5l21.5-16.75 12.75-28.25 1.5-14.75-51.344-51.625-17.406.375-8.618-6.983L83.5 41.25l-30.441 86.131z"/><path fill="#E1C3A0" d="M111.81 133.5H59.19c-3.418 0-6.19-2.964-6.19-6.62V50.74c0-3.656 2.772-6.62 6.19-6.62h52.62c3.418 0 6.19 2.964 6.19 6.62v76.138c0 3.657-2.772 6.621-6.19 6.621z"/><path fill="#EFF2FA" d="M111.81 128.534H59.19c-.854 0-1.547-.74-1.547-1.655V50.741c0-.914.693-1.655 1.547-1.655h52.62c.854 0 1.547.741 1.547 1.655v76.138c0 .914-.693 1.655-1.548 1.655z"/><path fill="#C7CFE2" d="M94.786 44.12h-4.643v-1.655c0-2.742-2.079-4.965-4.643-4.965s-4.643 2.223-4.643 4.966v1.655h-4.643c-1.71 0-3.095 1.482-3.095 3.31v3.31H97.88v-3.31c0-1.828-1.386-3.31-3.095-3.31zm-9.286 0c-.855 0-1.548-.74-1.548-1.655s.693-1.655 1.548-1.655 1.548.741 1.548 1.655-.694 1.656-1.548 1.656z"/><path fill="#AFB9D2" d="M97.88 52.396H73.12c-.855 0-1.548-.74-1.548-1.655 0-.914.693-1.655 1.548-1.655h24.76c.854 0 1.547.741 1.547 1.655s-.692 1.655-1.547 1.655z"/><path fill="#82889D" d="M70.024 75.569c-.396 0-.792-.162-1.094-.485l-4.643-4.966a1.737 1.737 0 0 1 0-2.34 1.477 1.477 0 0 1 2.188 0l3.549 3.795 6.644-7.105c.604-.647 1.584-.647 2.188 0s.605 1.694 0 2.34l-7.738 8.276a1.493 1.493 0 0 1-1.094.485z"/><path fill="#AFB9D2" d="M96.333 68.948h-12.38c-.856 0-1.549-.74-1.549-1.655 0-.914.693-1.655 1.548-1.655h12.381c.855 0 1.548.74 1.548 1.655 0 .914-.693 1.655-1.548 1.655z" opacity=".97"/><path fill="#C7CFE2" d="M104.071 75.569H83.952c-.855 0-1.548-.741-1.548-1.655s.693-1.656 1.548-1.656h20.12c.854 0 1.547.742 1.547 1.656 0 .914-.693 1.655-1.548 1.655z" opacity=".97"/><path fill="#82889D" d="M70.024 115.293a1.49 1.49 0 0 1-1.094-.485l-4.643-4.965a1.737 1.737 0 0 1 0-2.341 1.477 1.477 0 0 1 2.188 0l3.549 3.795 6.644-7.105c.604-.647 1.584-.647 2.188 0s.605 1.694 0 2.34l-7.738 8.276a1.493 1.493 0 0 1-1.094.485z"/><path fill="#AFB9D2" d="M96.333 108.672h-12.38c-.856 0-1.549-.74-1.549-1.655 0-.914.693-1.655 1.548-1.655h12.381c.855 0 1.548.741 1.548 1.655s-.693 1.655-1.548 1.655z" opacity=".97"/><path fill="#C7CFE2" d="M104.071 115.293H83.952c-.855 0-1.548-.741-1.548-1.655s.693-1.655 1.548-1.655h20.12c.854 0 1.547.74 1.547 1.655 0 .914-.693 1.655-1.548 1.655z" opacity=".97"/><path fill="#82889D" d="M70.024 95.431c-.396 0-.792-.162-1.094-.485l-4.643-4.966a1.737 1.737 0 0 1 0-2.34 1.477 1.477 0 0 1 2.188 0l3.549 3.795 6.644-7.105c.604-.647 1.584-.647 2.188 0s.605 1.694 0 2.34l-7.738 8.276a1.493 1.493 0 0 1-1.094.485z"/><path fill="#AFB9D2" d="M96.333 88.81h-12.38c-.856 0-1.549-.74-1.549-1.655 0-.914.693-1.655 1.548-1.655h12.381c.855 0 1.548.741 1.548 1.655s-.693 1.655-1.548 1.655z" opacity=".97"/><path fill="#C7CFE2" d="M104.071 95.431H83.952c-.855 0-1.548-.741-1.548-1.655s.693-1.655 1.548-1.655h20.12c.854 0 1.547.74 1.547 1.655 0 .914-.693 1.655-1.548 1.655z" opacity=".97"/></svg>