<?xml version="1.0" encoding="UTF-8" standalone="no"?>
<!-- Generator: Adobe Illustrator 17.0.0, SVG Export Plug-In . SVG Version: 6.00 Build 0)  -->

<svg
   xmlns:dc="http://purl.org/dc/elements/1.1/"
   xmlns:cc="http://creativecommons.org/ns#"
   xmlns:rdf="http://www.w3.org/1999/02/22-rdf-syntax-ns#"
   xmlns:svg="http://www.w3.org/2000/svg"
   xmlns="http://www.w3.org/2000/svg"
   xmlns:sodipodi="http://sodipodi.sourceforge.net/DTD/sodipodi-0.dtd"
   xmlns:inkscape="http://www.inkscape.org/namespaces/inkscape"
   version="1.1"
   id="Слой_1"
   sodipodi:docname="Повышение  Кликабельности.svg"
   inkscape:version="0.91 r13725"
   x="0px"
   y="0px"
   width="171px"
   height="171px"
   viewBox="0 0 171 171"
   enable-background="new 0 0 171 171"
   xml:space="preserve"><metadata
     id="metadata12"><rdf:RDF><cc:Work
         rdf:about=""><dc:format>image/svg+xml</dc:format><dc:type
           rdf:resource="http://purl.org/dc/dcmitype/StillImage" /><dc:title></dc:title></cc:Work></rdf:RDF></metadata><defs
     id="defs10"><mask
       maskUnits="userSpaceOnUse"
       id="mask4216"><g
         id="g4218"><circle
           id="circle4220"
           cx="85.333"
           cy="85.972"
           r="74"
           style="fill:#d45b3e" /><path
           id="path4222"
           inkscape:connector-curvature="0"
           d="m 85.348,11.972 c -0.007,0.001 -0.014,0.001 -0.021,0.002 l 0,147.998 c 0.007,0 0.014,0 0.021,0 40.86,0 73.984,-33.131 73.984,-74 0,-40.869 -33.123,-74 -73.984,-74 0,0 0,0 0,0 z"
           style="fill:#c45237" /></g></mask></defs><sodipodi:namedview
     showguides="false"
     inkscape:cy="-2.3071177"
     inkscape:cx="137.01699"
     inkscape:zoom="1.4142136"
     showgrid="false"
     guidetolerance="10"
     gridtolerance="10"
     objecttolerance="10"
     borderopacity="1"
     bordercolor="#666666"
     pagecolor="#ffffff"
     id="namedview61"
     inkscape:guide-bbox="true"
     inkscape:current-layer="Слой_1"
     inkscape:window-maximized="1"
     inkscape:window-y="-8"
     inkscape:window-x="-8"
     inkscape:window-height="801"
     inkscape:window-width="1536"
     inkscape:pageshadow="2"
     inkscape:pageopacity="0"><inkscape:grid
       type="xygrid"
       id="grid4289" /></sodipodi:namedview><g
     id="g4224"><g
       id="g4274"><circle
         id="path4230"
         cx="85.333"
         cy="85.972"
         r="74"
         style="fill:#d45b3e" /><path
         id="path4278"
         inkscape:connector-curvature="0"
         d="m 85.348,11.972 c -0.007,0.001 -0.014,0.001 -0.021,0.002 l 0,147.998 c 0.007,0 0.014,0 0.021,0 40.86,0 73.984,-33.131 73.984,-74 0,-40.869 -33.123,-74 -73.984,-74 0,0 0,0 0,0 z"
         style="fill:#c45237" /></g><path
       id="path4271"
       inkscape:connector-curvature="0"
       enable-background="new    "
       d="m 85.583,1.222 c 46.624,0 84.5,37.876 84.5,84.5 0,46.624 -37.876,84.5 -84.5,84.5 -46.624,0 -84.5,-37.876 -84.5,-84.5 0,-46.624 37.876,-84.5 84.5,-84.5 z"
       style="opacity:0.2;fill:none;stroke:#ffffff" /><path
       mask="url(#mask4216)"
       sodipodi:nodetypes="cccsccccccccc"
       inkscape:connector-curvature="0"
       id="path4208"
       d="m 50.027803,118.32055 48.08326,45.43161 31.996577,-13.96536 c 0,0 32.17336,-30.05204 30.75915,-30.05204 -1.41422,0 1.76777,-18.38478 1.76777,-18.38478 l -40.8443,-41.375545 -9.71384,6.727317 -3.88296,1.017767 -15.377418,-26.634466 -13.266531,2.282176 -8.485281,9.192388 0.707106,14.142135 z"
       style="fill:#b14731;fill-opacity:1;fill-rule:evenodd;stroke:none;stroke-width:1px;stroke-linecap:butt;stroke-linejoin:miter;stroke-opacity:1" /><g
       transform="matrix(0.23174603,0,0,0.2313253,37.245699,37.972)"
       id="g4186"><g
         id="XMLID_1082_"><path
           inkscape:connector-curvature="0"
           id="XMLID_1083_"
           style="fill:#565659"
           d="m 335,95 c 0,19.299 -15.701,35 -35,35 -19.299,0 -35,-15.701 -35,-35 l 0,-30 C 265,29.159 235.841,0 200,0 164.159,0 135,29.159 135,65 l 0,41.12 c 4.894,-0.735 9.902,-1.12 15,-1.12 5.098,0 10.106,0.385 15,1.12 L 165,65 c 0,-19.299 15.701,-35 35,-35 19.299,0 35,15.701 35,35 l 0,30 c 0,35.841 29.159,65 65,65 35.841,0 65,-29.159 65,-65 l -30,0 z" /><path
           inkscape:connector-curvature="0"
           id="XMLID_1084_"
           style="fill:#ccf7f9"
           d="m 150,195 0,0 c -11.046,0 -20,-8.954 -20,-20 0,-11.046 8.954,-20 20,-20 l 0,0 c 0,-29.947 0,-50 0,-50 -5.099,0 -10.107,0.385 -15,1.12 -48.112,7.237 -85,48.75 -85,98.88 l 0,110 c 0,55.228 44.772,100 100,100 0,-20.174 0,-135.847 0,-220 z" /><path
           inkscape:connector-curvature="0"
           id="XMLID_1085_"
           style="fill:#00d7df"
           d="m 150,155 c 11.045,0 20,8.954 20,20 0,11.046 -8.954,20 -20,20 0,84.153 0,199.826 0,220 55.229,0 100,-44.772 100,-100 l 0,-110 c 0,-50.131 -36.888,-91.643 -85,-98.88 -4.893,-0.735 -9.901,-1.12 -15,-1.12 0,0 0,20.053 0,50 z" /><path
           inkscape:connector-curvature="0"
           id="XMLID_1086_"
           style="fill:#ffffff"
           d="m 130,175 c 0,11.046 8.954,20 20,20 l 0,0 c 11.045,0 20,-8.954 20,-20 0,-11.046 -8.954,-20 -20,-20 l 0,0 c -11.046,0 -20,8.954 -20,20 z" /></g><g
         id="g4150" /><g
         id="g4152" /><g
         id="g4154" /><g
         id="g4156" /><g
         id="g4158" /><g
         id="g4160" /><g
         id="g4162" /><g
         id="g4164" /><g
         id="g4166" /><g
         id="g4168" /><g
         id="g4170" /><g
         id="g4172" /><g
         id="g4174" /><g
         id="g4176" /><g
         id="g4178" /></g></g></svg>