<svg xmlns="http://www.w3.org/2000/svg" width="171" height="171" viewBox="0 0 171 171"><g transform="translate(.25 -.25)"><circle fill="#D45B3E" cx="85.244" cy="86.375" r="74"/><path fill="#C45237" d="M85.259 12.375l-.021.002v147.998h.021c40.86 0 73.984-33.131 73.984-74s-33.123-74-73.984-74z"/></g><path opacity=".2" fill="none" stroke="#FFF" enable-background="new" d="M85.494 1.625c46.624 0 84.5 37.876 84.5 84.5s-37.876 84.5-84.5 84.5-84.5-37.876-84.5-84.5 37.876-84.5 84.5-84.5z"/><defs><filter id="a" filterUnits="userSpaceOnUse" x="41.025" y="52.125" width="122.469" height="117"><feColorMatrix values="1 0 0 0 0 0 1 0 0 0 0 0 1 0 0 0 0 0 1 0"/></filter></defs><mask maskUnits="userSpaceOnUse" x="41.025" y="52.125" width="122.469" height="117" id="b"><g transform="translate(.25 -.25)" filter="url(#a)"><circle fill="#D45B3E" cx="85.244" cy="86.375" r="74"/><path fill="#C45237" d="M85.259 12.375l-.021.002v147.998h.021c40.86 0 73.984-33.131 73.984-74s-33.123-74-73.984-74z"/></g></mask><path mask="url(#b)" fill="#B14731" d="M41.025 115.797l53.469 53.328 33.75-12 26.25-26 9-35.5-38-43.5-84.469 63.672z"/><path fill="#E4EAF6" d="M125.39 52.125H45.598c-2.542 0-4.603 2.076-4.603 4.636v58.728c0 2.56 2.061 4.636 4.603 4.636h79.793c2.543 0 4.604-2.076 4.604-4.636V56.76c0-2.56-2.061-4.636-4.603-4.636zm-3.068 37.09a1.54 1.54 0 0 1-1.535 1.546h-4.603v9.273h4.603a1.54 1.54 0 0 1 1.535 1.546v6.181a1.54 1.54 0 0 1-1.535 1.546h-12.276a1.54 1.54 0 0 1-1.534-1.546v-6.181a1.54 1.54 0 0 1 1.534-1.546h4.604v-9.273H97.77v9.273h4.603a1.54 1.54 0 0 1 1.535 1.546v6.181a1.54 1.54 0 0 1-1.535 1.546H90.097a1.54 1.54 0 0 1-1.534-1.546v-6.181a1.54 1.54 0 0 1 1.534-1.546h4.604v-9.273h-4.604a1.54 1.54 0 0 1-1.534-1.545v-6.182a1.54 1.54 0 0 1 1.534-1.545h13.81v-9.273H67.08v9.273h13.81a1.54 1.54 0 0 1 1.535 1.545v6.182a1.54 1.54 0 0 1-1.534 1.545h-4.604v9.273h4.604a1.54 1.54 0 0 1 1.534 1.546v6.181a1.54 1.54 0 0 1-1.534 1.546H68.615a1.54 1.54 0 0 1-1.535-1.546v-6.181a1.54 1.54 0 0 1 1.535-1.546h4.603v-9.273H57.873v9.273h4.604a1.54 1.54 0 0 1 1.534 1.546v6.181a1.54 1.54 0 0 1-1.534 1.546H50.2a1.54 1.54 0 0 1-1.534-1.546v-6.181a1.54 1.54 0 0 1 1.534-1.546h4.604v-9.273H50.2a1.54 1.54 0 0 1-1.534-1.545v-6.182A1.54 1.54 0 0 1 50.2 81.49h13.81v-9.273h-3.069a1.54 1.54 0 0 1-1.534-1.546V64.49a1.54 1.54 0 0 1 1.534-1.546h49.104a1.54 1.54 0 0 1 1.534 1.546v6.181a1.54 1.54 0 0 1-1.534 1.546h-3.069v9.273h13.81a1.54 1.54 0 0 1 1.535 1.545v6.182z"/><path fill="#FF6469" d="M110.046 72.216a1.54 1.54 0 0 0 1.534-1.546v-6.18a1.54 1.54 0 0 0-1.534-1.546H60.942a1.54 1.54 0 0 0-1.534 1.546v6.181a1.54 1.54 0 0 0 1.534 1.546h49.104z"/><path fill="#FFDC69" d="M50.201 81.489a1.54 1.54 0 0 0-1.534 1.545v6.182A1.54 1.54 0 0 0 50.2 90.76h30.691a1.54 1.54 0 0 0 1.534-1.545v-6.182a1.54 1.54 0 0 0-1.534-1.545H50.2z"/><path fill="#A0DCF0" d="M50.201 100.034a1.54 1.54 0 0 0-1.534 1.546v6.181a1.54 1.54 0 0 0 1.534 1.546h12.276a1.54 1.54 0 0 0 1.535-1.546v-6.181a1.54 1.54 0 0 0-1.535-1.546H50.201z"/><path fill="#C3B4FA" d="M68.615 100.034a1.54 1.54 0 0 0-1.535 1.546v6.181a1.54 1.54 0 0 0 1.535 1.546H80.89a1.54 1.54 0 0 0 1.534-1.546v-6.181a1.54 1.54 0 0 0-1.534-1.546H68.615z"/><path fill="#B4E173" d="M120.787 81.489h-30.69a1.54 1.54 0 0 0-1.534 1.545v6.182a1.54 1.54 0 0 0 1.535 1.545h30.689a1.54 1.54 0 0 0 1.535-1.545v-6.182a1.54 1.54 0 0 0-1.535-1.545z"/><path fill="#91E6BE" d="M90.098 100.034a1.54 1.54 0 0 0-1.535 1.546v6.181a1.54 1.54 0 0 0 1.535 1.546h12.275a1.54 1.54 0 0 0 1.535-1.546v-6.181a1.54 1.54 0 0 0-1.535-1.546H90.098z"/><path fill="#FFAFD7" d="M108.511 100.034a1.54 1.54 0 0 0-1.534 1.546v6.181a1.54 1.54 0 0 0 1.534 1.546h12.276a1.54 1.54 0 0 0 1.535-1.546v-6.181a1.54 1.54 0 0 0-1.535-1.546h-12.276z"/><path d="M64.011 72.216h3.07v9.273h-3.07zm39.897 0h3.069v9.273h-3.07zm-9.207 18.545h3.069v9.273h-3.069zm18.414 0h3.069v9.273h-3.07zm-58.311 0h3.07v9.273h-3.07zm18.414 0h3.07v9.273h-3.07z" fill="#BEC8DC"/></svg>