<svg xmlns="http://www.w3.org/2000/svg" width="171" height="171" viewBox="0 0 171 171"><defs><mask maskUnits="userSpaceOnUse" id="a"><circle cx="85.333" cy="85.972" r="74" fill="#d45b3e"/><path d="M85.348 11.972l-.021.002v147.998h.021c40.86 0 73.984-33.131 73.984-74s-33.123-74-73.984-74z" fill="#c45237"/></mask></defs><circle cx="85.333" cy="85.972" r="74" fill="#d45b3e"/><path d="M85.348 11.972l-.021.002v147.998h.021c40.86 0 73.984-33.131 73.984-74s-33.123-74-73.984-74z" fill="#c45237"/><path d="M85.583 1.222c46.624 0 84.5 37.876 84.5 84.5s-37.876 84.5-84.5 84.5-84.5-37.876-84.5-84.5 37.876-84.5 84.5-84.5z" opacity=".2" fill="none" stroke="#fff"/><path mask="url(#a)" d="M50.25 108.25l54.25 54.25 24-7.25L148.25 135l14-19.25.75-21.25.25-13.25-42.996-36.282L74.5 99.75z" fill="#b14731" fill-rule="evenodd"/><path d="M117.85 66.982c-5.883-12.273-17.289-20.596-30.396-20.596-19.13 0-34.638 17.723-34.638 39.586s15.508 39.586 34.638 39.586c13.107 0 24.513-8.323 30.396-20.596v-37.98z" fill="#f5d698"/><path d="M52.816 85.972c0-20.22 13.268-36.889 30.396-39.28a30.72 30.72 0 0 0-4.241-.306c-19.13 0-34.638 17.723-34.638 39.586s15.508 39.586 34.638 39.586c1.436 0 2.85-.111 4.241-.305-17.128-2.392-30.396-19.06-30.396-39.281" fill="#edbc64"/><path d="M52.813 87.386h-8.48c.03.951.083 1.894.168 2.827h8.487a46.331 46.331 0 0 1-.175-2.827m.324-7.069h-8.479a45.154 45.154 0 0 0-.26 2.827h8.481c.061-.95.14-1.894.258-2.827m.455 14.138h-8.486c.186.955.396 1.898.638 2.827h8.481a43.449 43.449 0 0 1-.633-2.827m1.976 7.069H47.08c.36.964.76 1.904 1.183 2.827h8.485a41.402 41.402 0 0 1-1.18-2.827m-.952-28.276H46.14a43.877 43.877 0 0 0-.747 2.827h8.493c.213-.954.452-1.901.73-2.827m2.814-7.069h-8.482a41.48 41.48 0 0 0-1.308 2.827h8.488c.402-.964.836-1.907 1.302-2.827m5.77-8.483h-8.493c-.803.9-1.567 1.842-2.293 2.828h8.49a38.799 38.799 0 0 1 2.296-2.828m8.645-7.067h-8.5a34.015 34.015 0 0 0-4.153 2.827h8.495a34.186 34.186 0 0 1 4.158-2.827m-11.933 59.377h-8.487c.656.98 1.348 1.923 2.082 2.828H62a38.9 38.9 0 0 1-2.088-2.828m-2.384 7.069a35.205 35.205 0 0 0 3.567 2.828h8.504a34.801 34.801 0 0 1-3.593-2.828h-8.478z" fill="#f6d38b"/><path d="M87.572 117.816h-.118c-.99 0-1.987-.06-2.964-.175a1.415 1.415 0 0 1 .337-2.81c.86.104 1.747.158 2.625.158.782 0 1.472.632 1.472 1.413.001.78-.57 1.414-1.352 1.414m8.22-1.522a1.415 1.415 0 0 1-.499-2.737 23.864 23.864 0 0 0 2.412-1.07 1.41 1.41 0 0 1 1.904.611 1.413 1.413 0 0 1-.612 1.903c-.88.451-1.791.856-2.709 1.2-.16.063-.329.093-.496.093m-19.133-1.08c-.215 0-.434-.049-.637-.153a26.706 26.706 0 0 1-2.56-1.482 1.414 1.414 0 0 1 1.55-2.365c.738.483 1.507.929 2.288 1.326a1.412 1.412 0 0 1-.64 2.673m28.43-5.028a1.414 1.414 0 0 1-1.007-2.408 28.384 28.384 0 0 0 1.781-1.985 1.413 1.413 0 0 1 2.193 1.786 31.384 31.384 0 0 1-1.96 2.185c-.278.28-.643.422-1.006.422m-37.064-1.994c-.41 0-.815-.177-1.095-.516a31.53 31.53 0 0 1-1.75-2.352 1.413 1.413 0 1 1 2.343-1.584 29.151 29.151 0 0 0 1.596 2.142 1.414 1.414 0 0 1-1.094 2.31m43.275-7.258a1.415 1.415 0 0 1-1.295-1.98c.354-.815.678-1.657.965-2.502a1.413 1.413 0 1 1 2.68.903c-.312.922-.665 1.84-1.051 2.73a1.42 1.42 0 0 1-1.3.849m-48.666-2.501c-.589 0-1.139-.37-1.34-.959a35.001 35.001 0 0 1-.825-2.803 1.412 1.412 0 0 1 1.032-1.712 1.412 1.412 0 0 1 1.714 1.029c.215.864.469 1.73.757 2.573a1.413 1.413 0 0 1-1.338 1.872m51.343-8.336a1.412 1.412 0 0 1-1.411-1.523c.066-.852.097-1.727.097-2.6 0-.781.634-1.459 1.414-1.459.783 0 1.414.587 1.414 1.369v.089c0 .946-.034 1.893-.106 2.818a1.414 1.414 0 0 1-1.408 1.306m-53.152-2.695c-.78 0-1.413-.619-1.413-1.398v-.031c0-.956.04-1.924.114-2.88a1.427 1.427 0 0 1 1.52-1.3c.779.063 1.36.743 1.3 1.522-.07.882-.107 1.777-.107 2.658 0 .782-.63 1.43-1.414 1.43m52.223-8.431a1.414 1.414 0 0 1-1.37-1.069 31.366 31.366 0 0 0-.763-2.572 1.415 1.415 0 0 1 2.676-.919c.314.92.594 1.862.83 2.804a1.413 1.413 0 0 1-1.028 1.716c-.116.029-.23.04-.345.04M62.616 76.4a1.414 1.414 0 0 1-1.339-1.869c.316-.925.669-1.843 1.058-2.728a1.414 1.414 0 0 1 2.59 1.135 30.985 30.985 0 0 0-.97 2.5c-.2.59-.75.962-1.339.962m45.909-7.625c-.453 0-.9-.218-1.172-.62a28.422 28.422 0 0 0-1.6-2.14 1.414 1.414 0 0 1 2.185-1.797 31.82 31.82 0 0 1 1.756 2.35 1.415 1.415 0 0 1-1.17 2.207m-40.54-2.15a1.412 1.412 0 0 1-1.093-2.309 30.732 30.732 0 0 1 1.964-2.183 1.414 1.414 0 1 1 2.008 1.99 27.78 27.78 0 0 0-1.783 1.983 1.404 1.404 0 0 1-1.096.519m32.634-5.695a1.4 1.4 0 0 1-.771-.23c-.74-.483-1.51-.927-2.29-1.318a1.415 1.415 0 0 1 1.273-2.527c.873.44 1.735.938 2.562 1.478a1.413 1.413 0 0 1-.774 2.597m-24.01-1.345a1.413 1.413 0 0 1-.646-2.673 26.338 26.338 0 0 1 2.71-1.195 1.413 1.413 0 1 1 .992 2.648c-.816.306-1.628.663-2.416 1.065a1.401 1.401 0 0 1-.64.155m13.583-2.472a1.33 1.33 0 0 1-.166-.01 22.271 22.271 0 0 0-2.57-.149c-.782 0-1.443-.633-1.443-1.413 0-.782.603-1.414 1.384-1.414v1.414l.02-1.414c.996.027 1.982.056 2.94.168a1.413 1.413 0 0 1-.165 2.818" fill="#efc16d"/><path d="M119.75 44.972h-12.283c-2.963 0-5.439 1.97-6.264 4.66 7.093 3.51 12.957 9.652 16.647 17.35v37.98c-3.69 7.698-9.554 13.84-16.646 17.35.826 2.69 3.301 4.66 6.263 4.66h12.283a6.583 6.583 0 0 0 6.583-6.583V51.555a6.583 6.583 0 0 0-6.583-6.583" fill="#a5a5a4"/><path d="M109.367 116.613v2.727c0 1.093.884 1.977 1.974 1.977h4.533a1.975 1.975 0 0 0 1.976-1.975v-14.379c-2.15 4.484-5.044 8.434-8.483 11.65m6.508-65.986h-4.532c-1.09 0-1.976.884-1.976 1.975v2.729c3.44 3.216 6.333 7.166 8.483 11.65V52.603a1.974 1.974 0 0 0-1.975-1.975" fill="#556180"/></svg>