<svg xmlns="http://www.w3.org/2000/svg" width="171" height="171" viewBox="0 0 171 171"><defs><mask maskUnits="userSpaceOnUse" id="a"><circle cx="85.333" cy="85.972" r="74" fill="#d45b3e"/><path d="M85.348 11.972l-.021.002v147.998h.021c40.86 0 73.984-33.131 73.984-74s-33.123-74-73.984-74z" fill="#c45237"/></mask></defs><circle cx="85.333" cy="85.972" r="74" fill="#d45b3e"/><path d="M85.348 11.972l-.021.002v147.998h.021c40.86 0 73.984-33.131 73.984-74s-33.123-74-73.984-74z" fill="#c45237"/><path d="M85.583 1.222c46.624 0 84.5 37.876 84.5 84.5s-37.876 84.5-84.5 84.5-84.5-37.876-84.5-84.5 37.876-84.5 84.5-84.5z" opacity=".2" fill="none" stroke="#fff"/><path mask="url(#a)" d="M50.028 118.32l48.083 45.432 31.997-13.965s32.173-30.052 30.759-30.052c-1.414 0 1.768-18.385 1.768-18.385L121.79 59.974l-9.714 6.728-3.883 1.018-15.377-26.635-13.266 2.282-8.486 9.193.707 14.142z" fill="#b14731" fill-rule="evenodd"/><path d="M114.88 59.948c0 4.464-3.638 8.096-8.11 8.096-4.473 0-8.112-3.632-8.112-8.096v-6.94c0-8.29-6.757-15.036-15.063-15.036-8.306 0-15.064 6.745-15.064 15.036v9.512a23.434 23.434 0 0 1 6.953 0v-9.512c0-4.464 3.638-8.096 8.11-8.096 4.473 0 8.112 3.632 8.112 8.096v6.94c0 8.29 6.757 15.036 15.064 15.036 8.306 0 15.063-6.745 15.063-15.036h-6.952z" fill="#565659"/><path d="M72.008 83.08a4.63 4.63 0 0 1-4.635-4.626 4.63 4.63 0 0 1 4.635-4.627V62.261c-1.182 0-2.343.09-3.477.26-11.15 1.673-19.698 11.276-19.698 22.873v25.445c0 12.776 10.376 23.133 23.175 23.133V83.08z" fill="#ccf7f9"/><path d="M72.008 73.827a4.63 4.63 0 0 1 4.635 4.627 4.63 4.63 0 0 1-4.635 4.626v50.892c12.799 0 23.174-10.357 23.174-23.133V85.394c0-11.597-8.548-21.2-19.698-22.874a23.43 23.43 0 0 0-3.476-.259v11.566z" fill="#00d7df"/><path d="M67.373 78.454a4.63 4.63 0 0 0 4.635 4.626 4.63 4.63 0 0 0 4.635-4.626 4.63 4.63 0 0 0-4.635-4.627 4.63 4.63 0 0 0-4.635 4.627z" fill="#fff"/></svg>