<svg xmlns="http://www.w3.org/2000/svg" width="171" height="171" viewBox="0 0 171 171"><g transform="translate(.25 -.25)"><circle fill="#D45B3E" cx="85.448" cy="85.789" r="74"/><path fill="#C45237" d="M85.463 11.789l-.021.002v147.998h.021c40.86 0 73.984-33.131 73.984-74s-33.123-74-73.984-74z"/></g><path opacity=".2" fill="none" stroke="#FFF" enable-background="new" d="M85.698 1.039c46.624 0 84.5 37.876 84.5 84.5s-37.876 84.5-84.5 84.5-84.5-37.876-84.5-84.5 37.876-84.5 84.5-84.5z"/><defs><filter id="a" filterUnits="userSpaceOnUse" x="35.73" y="45.483" width="127.81" height="121.49"><feColorMatrix values="1 0 0 0 0 0 1 0 0 0 0 0 1 0 0 0 0 0 1 0"/></filter></defs><mask maskUnits="userSpaceOnUse" x="35.73" y="45.483" width="127.81" height="121.49" id="b"><g transform="translate(.25 -.25)" filter="url(#a)"><circle fill="#D45B3E" cx="85.448" cy="85.789" r="74"/><path fill="#C45237" d="M85.463 11.789l-.021.002v147.998h.021c40.86 0 73.984-33.131 73.984-74s-33.123-74-73.984-74z"/></g></mask><path mask="url(#b)" fill="#B14731" d="M35.73 120.613l45.962 46.36 35.355-9.369 24.042-14.672 17.678-21.92 3.359-14.319 1.414-17.324-.354-10.607-33.013-33.278-94.443 75.129z"/><g transform="matrix(.19531 0 0 .19701 35.5 35.065)"><path fill="#E4EAF6" d="M53.981 362.127v-220.69H27.498c-4.867 0-8.828 3.96-8.828 8.828v282.483c0 4.867 3.96 8.828 8.828 8.828h388.414c4.867 0 8.828-3.96 8.828-8.828v-26.483H98.118c-24.376 0-44.137-19.761-44.137-44.138z"/><path fill="#CFD7E8" d="M98.118 388.61c-14.626 0-26.483-11.857-26.483-26.483V141.438H53.981v220.69c0 24.377 19.762 44.138 44.138 44.138H424.74V388.61H98.118z"/><path fill="#BEC8DC" d="M424.74 406.265v26.483c0 4.867-3.96 8.828-8.828 8.828H27.498c-4.867 0-8.828-3.96-8.828-8.828V150.266c0-4.867 3.96-8.828 8.828-8.828h44.138v-17.655H27.498c-2.285 0-4.503.289-6.618.834a26.31 26.31 0 0 0-8.189 3.688 26.635 26.635 0 0 0-8.48 9.337 26.265 26.265 0 0 0-2.362 6.005 26.507 26.507 0 0 0-.834 6.619v282.483c0 2.285.289 4.503.834 6.618a26.328 26.328 0 0 0 3.688 8.189 26.62 26.62 0 0 0 9.338 8.479 26.265 26.265 0 0 0 6.005 2.362 26.48 26.48 0 0 0 6.617.834h388.414c2.285 0 4.503-.289 6.618-.834a26.31 26.31 0 0 0 8.189-3.688 26.635 26.635 0 0 0 8.48-9.337 26.219 26.219 0 0 0 2.362-6.005 26.54 26.54 0 0 0 .834-6.618V388.61H424.74v17.655z"/><path d="M486.533 53.163H420.09c19.53 27.42 31.133 60.875 31.133 97.103 0 11.018-1.075 21.783-3.102 32.207l64.895 64.896V79.645c0-14.626-11.857-26.482-26.483-26.482zM71.636 317.989l73.26-73.26c-18.372-26.903-29.122-59.427-29.122-94.464 0-36.228 11.603-69.684 31.133-97.103H98.118c-14.626 0-26.483 11.857-26.483 26.483v61.793l.001 176.551z" fill="#B9EBFF"/><path d="M389.43 150.266c0 3.135-.145 6.236-.412 9.301 10.383-9.715 26.663-9.534 36.792.597l22.309 22.31a168.513 168.513 0 0 0 3.103-32.207c0-36.228-11.603-69.684-31.133-97.103h-94.313c37.45 16.328 63.654 53.636 63.654 97.102zM252.362 251.543l22.31 22.31 18.06-18.06c-3.043.263-6.121.405-9.233.405a105.95 105.95 0 0 1-31.137-4.655zM115.775 150.266c0 35.037 10.75 67.561 29.122 94.464l31.601-31.601c4.626-4.625 10.536-7.166 16.583-7.655-9.839-16.077-15.512-34.979-15.512-55.209 0-43.466 26.204-80.774 63.654-97.103h-94.314c-19.532 27.42-31.134 60.876-31.134 97.104z" fill="#D2F5F0"/><path fill="#FCFFDC" d="M177.568 150.266c0 20.23 5.673 39.132 15.511 55.21 7.474-.604 15.153 1.938 20.871 7.655l38.413 38.413a105.937 105.937 0 0 0 31.136 4.653c3.112 0 6.189-.142 9.233-.405l95.627-95.628c.212-.212.442-.393.66-.597.267-3.065.412-6.166.412-9.301 0-43.466-26.204-80.774-63.654-97.103h-84.556c-37.45 16.329-63.653 53.637-63.653 97.103zm105.931-61.793c34.127 0 61.793 27.666 61.793 61.793s-27.666 61.793-61.793 61.793-61.793-27.666-61.793-61.793 27.665-61.793 61.793-61.793z"/><path fill="#B4EBBE" d="M425.812 160.164c-10.13-10.13-26.41-10.311-36.792-.597-.217.203-.448.384-.66.597l-95.627 95.628-18.061 18.06L389.431 388.61h97.103c14.626 0 26.483-11.857 26.483-26.483V247.369l-64.895-64.895-22.31-22.31z"/><path fill="#A0D778" d="M213.95 213.129c-5.717-5.717-13.397-8.258-20.871-7.655-6.046.488-11.957 3.029-16.583 7.655l-31.601 31.601-73.259 73.26v44.138c0 14.626 11.857 26.483 26.483 26.483h291.31L274.671 273.852l-22.31-22.31-38.411-38.413z"/><path fill="#FFF5A5" d="M221.706 150.266c0 34.127 27.666 61.793 61.793 61.793s61.793-27.666 61.793-61.793-27.666-61.793-61.793-61.793-61.793 27.666-61.793 61.793zm97.103 0c0 19.501-15.809 35.31-35.31 35.31s-35.31-15.809-35.31-35.31 15.809-35.31 35.31-35.31 35.31 15.809 35.31 35.31z"/><ellipse fill="#FFDC69" cx="283.499" cy="150.266" rx="6.896" ry="6.956"/></g></svg>